<svg width="352" height="283" viewBox="0 0 352 283" fill="none" xmlns="http://www.w3.org/2000/svg">
<rect width="76.5882" height="76.5882" rx="38.2941" fill="#FFDAD6"/>
<path d="M20.2941 54.7942L38.2941 21.7942L56.2941 54.7942H20.2941ZM25.9396 51.3205H50.6487L38.2941 28.7416L25.9396 51.3205ZM38.2941 49.5837C38.7578 49.5837 39.1464 49.4172 39.46 49.0843C39.7737 48.7514 39.9305 48.3389 39.9305 47.8468C39.9305 47.3547 39.7737 46.9422 39.46 46.6093C39.1464 46.2764 38.7578 46.11 38.2941 46.11C37.8305 46.11 37.4419 46.2764 37.1282 46.6093C36.8146 46.9422 36.6578 47.3547 36.6578 47.8468C36.6578 48.3389 36.8146 48.7514 37.1282 49.0843C37.4419 49.4172 37.8305 49.5837 38.2941 49.5837ZM36.6578 44.3731H39.9305V35.6889H36.6578V44.3731Z" fill="#BA1A1A"/>
<path d="M7.956 129.43C6.63867 129.43 5.46867 129.196 4.446 128.728C3.42333 128.26 2.626 127.592 2.054 126.726C1.482 125.859 1.18733 124.828 1.17 123.632H4.472C4.472 124.238 4.61067 124.784 4.888 125.27C5.18267 125.738 5.58133 126.11 6.084 126.388C6.604 126.665 7.228 126.804 7.956 126.804C8.58 126.804 9.11733 126.708 9.568 126.518C10.036 126.31 10.3913 126.024 10.634 125.66C10.894 125.278 11.024 124.836 11.024 124.334C11.024 123.762 10.8853 123.294 10.608 122.93C10.348 122.548 9.984 122.228 9.516 121.968C9.048 121.708 8.51067 121.482 7.904 121.292C7.29733 121.084 6.656 120.867 5.98 120.642C4.54133 120.156 3.458 119.541 2.73 118.796C2.002 118.033 1.638 117.019 1.638 115.754C1.638 114.696 1.88933 113.786 2.392 113.024C2.89467 112.261 3.59667 111.672 4.498 111.256C5.41667 110.822 6.474 110.606 7.67 110.606C8.88333 110.606 9.94067 110.822 10.842 111.256C11.7607 111.689 12.48 112.296 13 113.076C13.5373 113.838 13.8147 114.757 13.832 115.832H10.504C10.4867 115.381 10.3653 114.965 10.14 114.584C9.91467 114.185 9.58533 113.864 9.152 113.622C8.736 113.362 8.22467 113.232 7.618 113.232C7.098 113.214 6.63 113.301 6.214 113.492C5.81533 113.665 5.49467 113.925 5.252 114.272C5.02667 114.601 4.914 115.017 4.914 115.52C4.914 116.005 5.018 116.412 5.226 116.742C5.45133 117.054 5.772 117.322 6.188 117.548C6.604 117.756 7.08933 117.955 7.644 118.146C8.19867 118.336 8.80533 118.544 9.464 118.77C10.3653 119.064 11.18 119.428 11.908 119.862C12.6533 120.278 13.2427 120.824 13.676 121.5C14.1093 122.176 14.326 123.051 14.326 124.126C14.326 125.062 14.0833 125.937 13.598 126.752C13.1127 127.549 12.402 128.199 11.466 128.702C10.53 129.187 9.36 129.43 7.956 129.43ZM22.1177 129.43C21.0603 129.43 20.1503 129.222 19.3877 128.806C18.6423 128.372 18.0703 127.731 17.6717 126.882C17.273 126.015 17.0737 124.949 17.0737 123.684V116.014H20.1937V123.372C20.1937 124.498 20.4277 125.356 20.8957 125.946C21.381 126.518 22.109 126.804 23.0797 126.804C23.7037 126.804 24.2583 126.656 24.7437 126.362C25.2463 126.067 25.6363 125.642 25.9137 125.088C26.2083 124.516 26.3557 123.822 26.3557 123.008V116.014H29.4757V129.118H26.7197L26.4857 126.934C26.087 127.696 25.5063 128.303 24.7437 128.754C23.9983 129.204 23.123 129.43 22.1177 129.43ZM38.4591 135.15C37.2284 135.15 36.1451 134.994 35.2091 134.682C34.2904 134.387 33.5711 133.928 33.0511 133.304C32.5484 132.697 32.2971 131.934 32.2971 131.016C32.2971 130.478 32.4271 129.95 32.6871 129.43C32.9644 128.927 33.3717 128.459 33.9091 128.026C34.4637 127.575 35.1657 127.185 36.0151 126.856L37.3931 128.364C36.5611 128.658 35.9804 129.014 35.6511 129.43C35.3217 129.846 35.1571 130.27 35.1571 130.704C35.1571 131.154 35.2957 131.527 35.5731 131.822C35.8677 132.134 36.2577 132.368 36.7431 132.524C37.2457 132.68 37.8091 132.758 38.4331 132.758C39.0397 132.758 39.5684 132.671 40.0191 132.498C40.4697 132.342 40.8164 132.116 41.0591 131.822C41.3191 131.527 41.4491 131.172 41.4491 130.756C41.4491 130.236 41.2671 129.811 40.9031 129.482C40.5391 129.17 39.8197 128.979 38.7451 128.91C37.8264 128.84 37.0204 128.745 36.3271 128.624C35.6337 128.485 35.0357 128.329 34.5331 128.156C34.0477 127.982 33.6317 127.792 33.2851 127.584C32.9384 127.358 32.6524 127.133 32.4271 126.908V126.31L35.1571 123.45L37.4711 124.204L34.4031 127.194L35.2091 125.686C35.3824 125.807 35.5557 125.92 35.7291 126.024C35.9197 126.128 36.1537 126.223 36.4311 126.31C36.7257 126.379 37.1071 126.448 37.5751 126.518C38.0431 126.587 38.6497 126.656 39.3951 126.726C40.5564 126.812 41.5011 127.02 42.2291 127.35C42.9571 127.679 43.4944 128.121 43.8411 128.676C44.1877 129.23 44.3611 129.898 44.3611 130.678C44.3611 131.44 44.1444 132.16 43.7111 132.836C43.2951 133.512 42.6537 134.066 41.7871 134.5C40.9204 134.933 39.8111 135.15 38.4591 135.15ZM38.4591 125.192C37.3671 125.192 36.4224 124.984 35.6251 124.568C34.8451 124.134 34.2471 123.562 33.8311 122.852C33.4151 122.124 33.2071 121.326 33.2071 120.46C33.2071 119.576 33.4151 118.778 33.8311 118.068C34.2471 117.357 34.8451 116.785 35.6251 116.352C36.4224 115.918 37.3671 115.702 38.4591 115.702C39.5511 115.702 40.4871 115.918 41.2671 116.352C42.0471 116.785 42.6451 117.357 43.0611 118.068C43.4771 118.778 43.6851 119.576 43.6851 120.46C43.6851 121.326 43.4771 122.124 43.0611 122.852C42.6451 123.562 42.0471 124.134 41.2671 124.568C40.4871 124.984 39.5511 125.192 38.4591 125.192ZM38.4591 122.774C39.2044 122.774 39.8024 122.574 40.2531 122.176C40.7037 121.777 40.9291 121.205 40.9291 120.46C40.9291 119.714 40.7037 119.151 40.2531 118.77C39.8024 118.371 39.2044 118.172 38.4591 118.172C37.7137 118.172 37.1071 118.371 36.6391 118.77C36.1711 119.151 35.9371 119.714 35.9371 120.46C35.9371 121.205 36.1711 121.777 36.6391 122.176C37.1071 122.574 37.7137 122.774 38.4591 122.774ZM40.6171 118.302L40.0191 116.014H45.4011V117.964L40.6171 118.302ZM52.5241 129.43C51.4494 129.43 50.5567 129.248 49.8461 128.884C49.1354 128.52 48.6067 128.034 48.2601 127.428C47.9134 126.821 47.7401 126.162 47.7401 125.452C47.7401 124.62 47.9481 123.9 48.3641 123.294C48.7974 122.687 49.4301 122.219 50.2621 121.89C51.0941 121.543 52.1167 121.37 53.3301 121.37H56.6321C56.6321 120.676 56.5367 120.104 56.3461 119.654C56.1554 119.186 55.8607 118.839 55.4621 118.614C55.0634 118.388 54.5521 118.276 53.9281 118.276C53.2174 118.276 52.6107 118.44 52.1081 118.77C51.6054 119.082 51.2934 119.567 51.1721 120.226H48.1041C48.2081 119.29 48.5201 118.492 49.0401 117.834C49.5601 117.158 50.2447 116.638 51.0941 116.274C51.9607 115.892 52.9054 115.702 53.9281 115.702C55.1587 115.702 56.2074 115.918 57.0741 116.352C57.9407 116.768 58.5994 117.374 59.0501 118.172C59.5181 118.952 59.7521 119.896 59.7521 121.006V129.118H57.1001L56.7881 127.012C56.6147 127.358 56.3894 127.679 56.1121 127.974C55.8521 128.268 55.5487 128.528 55.2021 128.754C54.8554 128.962 54.4567 129.126 54.0061 129.248C53.5727 129.369 53.0787 129.43 52.5241 129.43ZM53.2261 126.96C53.7287 126.96 54.1707 126.873 54.5521 126.7C54.9507 126.509 55.2887 126.249 55.5661 125.92C55.8607 125.573 56.0861 125.192 56.2421 124.776C56.3981 124.36 56.5021 123.918 56.5541 123.45V123.398H53.6681C53.0614 123.398 52.5587 123.476 52.1601 123.632C51.7614 123.77 51.4754 123.978 51.3021 124.256C51.1287 124.533 51.0421 124.854 51.0421 125.218C51.0421 125.582 51.1287 125.894 51.3021 126.154C51.4754 126.414 51.7267 126.613 52.0561 126.752C52.3854 126.89 52.7754 126.96 53.2261 126.96ZM63.0858 129.118V116.014H65.8678L66.1538 118.458C66.4658 117.886 66.8558 117.4 67.3238 117.002C67.7918 116.586 68.3378 116.265 68.9618 116.04C69.6031 115.814 70.3051 115.702 71.0678 115.702V119.004H69.9758C69.4558 119.004 68.9618 119.073 68.4938 119.212C68.0258 119.333 67.6184 119.541 67.2718 119.836C66.9424 120.113 66.6824 120.503 66.4918 121.006C66.3011 121.491 66.2058 122.106 66.2058 122.852V129.118H63.0858ZM79.7674 129.118V110.398H82.8874V129.118H79.7674ZM92.505 129.43C91.205 129.43 90.061 129.152 89.073 128.598C88.085 128.026 87.3136 127.228 86.759 126.206C86.2043 125.183 85.927 124.004 85.927 122.67C85.927 121.283 86.1956 120.07 86.733 119.03C87.2876 117.99 88.059 117.175 89.047 116.586C90.0523 115.996 91.2136 115.702 92.531 115.702C93.8136 115.702 94.9316 115.988 95.885 116.56C96.8383 117.132 97.575 117.903 98.095 118.874C98.615 119.827 98.875 120.902 98.875 122.098C98.875 122.271 98.875 122.462 98.875 122.67C98.875 122.878 98.8576 123.094 98.823 123.32H88.163V121.318H95.729C95.6943 120.364 95.3736 119.619 94.767 119.082C94.1603 118.527 93.4063 118.25 92.505 118.25C91.8636 118.25 91.2743 118.397 90.737 118.692C90.1996 118.986 89.775 119.428 89.463 120.018C89.151 120.59 88.995 121.318 88.995 122.202V122.956C88.995 123.77 89.1423 124.472 89.437 125.062C89.749 125.651 90.165 126.102 90.685 126.414C91.2223 126.708 91.8203 126.856 92.479 126.856C93.207 126.856 93.805 126.7 94.273 126.388C94.7583 126.076 95.1136 125.66 95.339 125.14H98.511C98.2683 125.954 97.8696 126.691 97.315 127.35C96.7603 127.991 96.0756 128.502 95.261 128.884C94.4463 129.248 93.5276 129.43 92.505 129.43ZM104.836 129.118L99.9999 116.014H103.276L106.734 126.154L110.192 116.014H113.416L108.58 129.118H104.836ZM121.146 129.43C119.846 129.43 118.702 129.152 117.714 128.598C116.726 128.026 115.954 127.228 115.4 126.206C114.845 125.183 114.568 124.004 114.568 122.67C114.568 121.283 114.836 120.07 115.374 119.03C115.928 117.99 116.7 117.175 117.688 116.586C118.693 115.996 119.854 115.702 121.172 115.702C122.454 115.702 123.572 115.988 124.526 116.56C125.479 117.132 126.216 117.903 126.736 118.874C127.256 119.827 127.516 120.902 127.516 122.098C127.516 122.271 127.516 122.462 127.516 122.67C127.516 122.878 127.498 123.094 127.464 123.32H116.804V121.318H124.37C124.335 120.364 124.014 119.619 123.408 119.082C122.801 118.527 122.047 118.25 121.146 118.25C120.504 118.25 119.915 118.397 119.378 118.692C118.84 118.986 118.416 119.428 118.104 120.018C117.792 120.59 117.636 121.318 117.636 122.202V122.956C117.636 123.77 117.783 124.472 118.078 125.062C118.39 125.651 118.806 126.102 119.326 126.414C119.863 126.708 120.461 126.856 121.12 126.856C121.848 126.856 122.446 126.7 122.914 126.388C123.399 126.076 123.754 125.66 123.98 125.14H127.152C126.909 125.954 126.51 126.691 125.956 127.35C125.401 127.991 124.716 128.502 123.902 128.884C123.087 129.248 122.168 129.43 121.146 129.43ZM130.396 129.118V110.398H133.516V129.118H130.396ZM142.224 129.43C141.063 129.43 140.049 129.248 139.182 128.884C138.333 128.502 137.657 127.982 137.154 127.324C136.669 126.648 136.383 125.876 136.296 125.01H139.416C139.503 125.374 139.659 125.712 139.884 126.024C140.109 126.318 140.413 126.552 140.794 126.726C141.193 126.899 141.661 126.986 142.198 126.986C142.718 126.986 143.143 126.916 143.472 126.778C143.801 126.622 144.044 126.422 144.2 126.18C144.356 125.937 144.434 125.677 144.434 125.4C144.434 124.984 144.321 124.663 144.096 124.438C143.871 124.212 143.541 124.039 143.108 123.918C142.692 123.779 142.189 123.649 141.6 123.528C140.976 123.406 140.369 123.259 139.78 123.086C139.208 122.895 138.688 122.661 138.22 122.384C137.769 122.106 137.405 121.751 137.128 121.318C136.868 120.884 136.738 120.356 136.738 119.732C136.738 118.969 136.937 118.284 137.336 117.678C137.752 117.071 138.341 116.594 139.104 116.248C139.884 115.884 140.811 115.702 141.886 115.702C143.411 115.702 144.625 116.057 145.526 116.768C146.445 117.461 146.982 118.44 147.138 119.706H144.174C144.087 119.22 143.845 118.848 143.446 118.588C143.047 118.31 142.519 118.172 141.86 118.172C141.184 118.172 140.664 118.302 140.3 118.562C139.953 118.804 139.78 119.134 139.78 119.55C139.78 119.81 139.884 120.052 140.092 120.278C140.317 120.486 140.638 120.668 141.054 120.824C141.47 120.962 141.981 121.101 142.588 121.24C143.559 121.43 144.417 121.656 145.162 121.916C145.907 122.176 146.497 122.557 146.93 123.06C147.363 123.562 147.58 124.273 147.58 125.192C147.597 126.024 147.381 126.76 146.93 127.402C146.497 128.043 145.881 128.546 145.084 128.91C144.287 129.256 143.333 129.43 142.224 129.43ZM161.323 129.43C160.248 129.43 159.356 129.248 158.645 128.884C157.934 128.52 157.406 128.034 157.059 127.428C156.712 126.821 156.539 126.162 156.539 125.452C156.539 124.62 156.747 123.9 157.163 123.294C157.596 122.687 158.229 122.219 159.061 121.89C159.893 121.543 160.916 121.37 162.129 121.37H165.431C165.431 120.676 165.336 120.104 165.145 119.654C164.954 119.186 164.66 118.839 164.261 118.614C163.862 118.388 163.351 118.276 162.727 118.276C162.016 118.276 161.41 118.44 160.907 118.77C160.404 119.082 160.092 119.567 159.971 120.226H156.903C157.007 119.29 157.319 118.492 157.839 117.834C158.359 117.158 159.044 116.638 159.893 116.274C160.76 115.892 161.704 115.702 162.727 115.702C163.958 115.702 165.006 115.918 165.873 116.352C166.74 116.768 167.398 117.374 167.849 118.172C168.317 118.952 168.551 119.896 168.551 121.006V129.118H165.899L165.587 127.012C165.414 127.358 165.188 127.679 164.911 127.974C164.651 128.268 164.348 128.528 164.001 128.754C163.654 128.962 163.256 129.126 162.805 129.248C162.372 129.369 161.878 129.43 161.323 129.43ZM162.025 126.96C162.528 126.96 162.97 126.873 163.351 126.7C163.75 126.509 164.088 126.249 164.365 125.92C164.66 125.573 164.885 125.192 165.041 124.776C165.197 124.36 165.301 123.918 165.353 123.45V123.398H162.467C161.86 123.398 161.358 123.476 160.959 123.632C160.56 123.77 160.274 123.978 160.101 124.256C159.928 124.533 159.841 124.854 159.841 125.218C159.841 125.582 159.928 125.894 160.101 126.154C160.274 126.414 160.526 126.613 160.855 126.752C161.184 126.89 161.574 126.96 162.025 126.96ZM171.885 129.118V116.014H174.667L174.953 118.458C175.265 117.886 175.655 117.4 176.123 117.002C176.591 116.586 177.137 116.265 177.761 116.04C178.402 115.814 179.104 115.702 179.867 115.702V119.004H178.775C178.255 119.004 177.761 119.073 177.293 119.212C176.825 119.333 176.417 119.541 176.071 119.836C175.741 120.113 175.481 120.503 175.291 121.006C175.1 121.491 175.005 122.106 175.005 122.852V129.118H171.885ZM188.075 129.43C186.775 129.43 185.631 129.152 184.643 128.598C183.655 128.026 182.884 127.228 182.329 126.206C181.775 125.183 181.497 124.004 181.497 122.67C181.497 121.283 181.766 120.07 182.303 119.03C182.858 117.99 183.629 117.175 184.617 116.586C185.623 115.996 186.784 115.702 188.101 115.702C189.384 115.702 190.502 115.988 191.455 116.56C192.409 117.132 193.145 117.903 193.665 118.874C194.185 119.827 194.445 120.902 194.445 122.098C194.445 122.271 194.445 122.462 194.445 122.67C194.445 122.878 194.428 123.094 194.393 123.32H183.733V121.318H191.299C191.265 120.364 190.944 119.619 190.337 119.082C189.731 118.527 188.977 118.25 188.075 118.25C187.434 118.25 186.845 118.397 186.307 118.692C185.77 118.986 185.345 119.428 185.033 120.018C184.721 120.59 184.565 121.318 184.565 122.202V122.956C184.565 123.77 184.713 124.472 185.007 125.062C185.319 125.651 185.735 126.102 186.255 126.414C186.793 126.708 187.391 126.856 188.049 126.856C188.777 126.856 189.375 126.7 189.843 126.388C190.329 126.076 190.684 125.66 190.909 125.14H194.081C193.839 125.954 193.44 126.691 192.885 127.35C192.331 127.991 191.646 128.502 190.831 128.884C190.017 129.248 189.098 129.43 188.075 129.43ZM203.674 129.118V110.398H206.794V118.042C207.227 117.331 207.816 116.768 208.562 116.352C209.307 115.918 210.148 115.702 211.084 115.702C212.158 115.702 213.068 115.927 213.814 116.378C214.559 116.811 215.122 117.461 215.504 118.328C215.902 119.177 216.102 120.243 216.102 121.526V129.118H213.008V121.812C213.008 120.685 212.765 119.827 212.28 119.238C211.812 118.648 211.092 118.354 210.122 118.354C209.498 118.354 208.934 118.51 208.432 118.822C207.929 119.116 207.53 119.55 207.236 120.122C206.941 120.676 206.794 121.361 206.794 122.176V129.118H203.674ZM219.546 129.118V116.014H222.666V129.118H219.546ZM221.106 113.934C220.534 113.934 220.057 113.76 219.676 113.414C219.312 113.05 219.13 112.608 219.13 112.088C219.13 111.55 219.312 111.117 219.676 110.788C220.057 110.441 220.534 110.268 221.106 110.268C221.678 110.268 222.146 110.441 222.51 110.788C222.891 111.117 223.082 111.55 223.082 112.088C223.082 112.608 222.891 113.05 222.51 113.414C222.146 113.76 221.678 113.934 221.106 113.934ZM231.783 135.15C230.553 135.15 229.469 134.994 228.533 134.682C227.615 134.387 226.895 133.928 226.375 133.304C225.873 132.697 225.621 131.934 225.621 131.016C225.621 130.478 225.751 129.95 226.011 129.43C226.289 128.927 226.696 128.459 227.233 128.026C227.788 127.575 228.49 127.185 229.339 126.856L230.717 128.364C229.885 128.658 229.305 129.014 228.975 129.43C228.646 129.846 228.481 130.27 228.481 130.704C228.481 131.154 228.62 131.527 228.897 131.822C229.192 132.134 229.582 132.368 230.067 132.524C230.57 132.68 231.133 132.758 231.757 132.758C232.364 132.758 232.893 132.671 233.343 132.498C233.794 132.342 234.141 132.116 234.383 131.822C234.643 131.527 234.773 131.172 234.773 130.756C234.773 130.236 234.591 129.811 234.227 129.482C233.863 129.17 233.144 128.979 232.069 128.91C231.151 128.84 230.345 128.745 229.651 128.624C228.958 128.485 228.36 128.329 227.857 128.156C227.372 127.982 226.956 127.792 226.609 127.584C226.263 127.358 225.977 127.133 225.751 126.908V126.31L228.481 123.45L230.795 124.204L227.727 127.194L228.533 125.686C228.707 125.807 228.88 125.92 229.053 126.024C229.244 126.128 229.478 126.223 229.755 126.31C230.05 126.379 230.431 126.448 230.899 126.518C231.367 126.587 231.974 126.656 232.719 126.726C233.881 126.812 234.825 127.02 235.553 127.35C236.281 127.679 236.819 128.121 237.165 128.676C237.512 129.23 237.685 129.898 237.685 130.678C237.685 131.44 237.469 132.16 237.035 132.836C236.619 133.512 235.978 134.066 235.111 134.5C234.245 134.933 233.135 135.15 231.783 135.15ZM231.783 125.192C230.691 125.192 229.747 124.984 228.949 124.568C228.169 124.134 227.571 123.562 227.155 122.852C226.739 122.124 226.531 121.326 226.531 120.46C226.531 119.576 226.739 118.778 227.155 118.068C227.571 117.357 228.169 116.785 228.949 116.352C229.747 115.918 230.691 115.702 231.783 115.702C232.875 115.702 233.811 115.918 234.591 116.352C235.371 116.785 235.969 117.357 236.385 118.068C236.801 118.778 237.009 119.576 237.009 120.46C237.009 121.326 236.801 122.124 236.385 122.852C235.969 123.562 235.371 124.134 234.591 124.568C233.811 124.984 232.875 125.192 231.783 125.192ZM231.783 122.774C232.529 122.774 233.127 122.574 233.577 122.176C234.028 121.777 234.253 121.205 234.253 120.46C234.253 119.714 234.028 119.151 233.577 118.77C233.127 118.371 232.529 118.172 231.783 118.172C231.038 118.172 230.431 118.371 229.963 118.77C229.495 119.151 229.261 119.714 229.261 120.46C229.261 121.205 229.495 121.777 229.963 122.176C230.431 122.574 231.038 122.774 231.783 122.774ZM233.941 118.302L233.343 116.014H238.725V117.964L233.941 118.302ZM241.48 129.118V110.398H244.6V118.042C245.034 117.331 245.623 116.768 246.368 116.352C247.114 115.918 247.954 115.702 248.89 115.702C249.965 115.702 250.875 115.927 251.62 116.378C252.366 116.811 252.929 117.461 253.31 118.328C253.709 119.177 253.908 120.243 253.908 121.526V129.118H250.814V121.812C250.814 120.685 250.572 119.827 250.086 119.238C249.618 118.648 248.899 118.354 247.928 118.354C247.304 118.354 246.741 118.51 246.238 118.822C245.736 119.116 245.337 119.55 245.042 120.122C244.748 120.676 244.6 121.361 244.6 122.176V129.118H241.48ZM258.574 129.248C257.985 129.248 257.508 129.066 257.144 128.702C256.78 128.338 256.598 127.904 256.598 127.402C256.598 126.864 256.78 126.414 257.144 126.05C257.508 125.686 257.985 125.504 258.574 125.504C259.146 125.504 259.614 125.686 259.978 126.05C260.342 126.414 260.524 126.864 260.524 127.402C260.524 127.904 260.342 128.338 259.978 128.702C259.614 129.066 259.146 129.248 258.574 129.248ZM1.846 165.118V146.918H4.966V162.674H13.078V165.118H1.846ZM21.5635 165.43C20.2635 165.43 19.1195 165.152 18.1315 164.598C17.1435 164.026 16.3722 163.228 15.8175 162.206C15.2629 161.183 14.9855 160.004 14.9855 158.67C14.9855 157.283 15.2542 156.07 15.7915 155.03C16.3462 153.99 17.1175 153.175 18.1055 152.586C19.1109 151.996 20.2722 151.702 21.5895 151.702C22.8722 151.702 23.9902 151.988 24.9435 152.56C25.8969 153.132 26.6335 153.903 27.1535 154.874C27.6735 155.827 27.9335 156.902 27.9335 158.098C27.9335 158.271 27.9335 158.462 27.9335 158.67C27.9335 158.878 27.9162 159.094 27.8815 159.32H17.2215V157.318H24.7875C24.7529 156.364 24.4322 155.619 23.8255 155.082C23.2189 154.527 22.4649 154.25 21.5635 154.25C20.9222 154.25 20.3329 154.397 19.7955 154.692C19.2582 154.986 18.8335 155.428 18.5215 156.018C18.2095 156.59 18.0535 157.318 18.0535 158.202V158.956C18.0535 159.77 18.2009 160.472 18.4955 161.062C18.8075 161.651 19.2235 162.102 19.7435 162.414C20.2809 162.708 20.8789 162.856 21.5375 162.856C22.2655 162.856 22.8635 162.7 23.3315 162.388C23.8169 162.076 24.1722 161.66 24.3975 161.14H27.5695C27.3269 161.954 26.9282 162.691 26.3735 163.35C25.8189 163.991 25.1342 164.502 24.3195 164.884C23.5049 165.248 22.5862 165.43 21.5635 165.43ZM36.2544 165.118C35.3704 165.118 34.599 164.979 33.9404 164.702C33.299 164.424 32.7964 163.965 32.4324 163.324C32.0684 162.682 31.8864 161.816 31.8864 160.724V154.64H29.6504V152.014H31.8864L32.2504 148.556H35.0064V152.014H38.5684V154.64H35.0064V160.724C35.0064 161.382 35.145 161.842 35.4224 162.102C35.717 162.344 36.2024 162.466 36.8784 162.466H38.4904V165.118H36.2544ZM41.1137 151.052L40.7757 145.488H43.5577L43.2457 151.052H41.1137ZM51.5539 165.43C50.3926 165.43 49.3786 165.248 48.5119 164.884C47.6626 164.502 46.9866 163.982 46.4839 163.324C45.9986 162.648 45.7126 161.876 45.6259 161.01H48.7459C48.8326 161.374 48.9886 161.712 49.2139 162.024C49.4393 162.318 49.7426 162.552 50.1239 162.726C50.5226 162.899 50.9906 162.986 51.5279 162.986C52.0479 162.986 52.4726 162.916 52.8019 162.778C53.1313 162.622 53.3739 162.422 53.5299 162.18C53.6859 161.937 53.7639 161.677 53.7639 161.4C53.7639 160.984 53.6513 160.663 53.4259 160.438C53.2006 160.212 52.8713 160.039 52.4379 159.918C52.0219 159.779 51.5193 159.649 50.9299 159.528C50.3059 159.406 49.6993 159.259 49.1099 159.086C48.5379 158.895 48.0179 158.661 47.5499 158.384C47.0993 158.106 46.7353 157.751 46.4579 157.318C46.1979 156.884 46.0679 156.356 46.0679 155.732C46.0679 154.969 46.2673 154.284 46.6659 153.678C47.0819 153.071 47.6713 152.594 48.4339 152.248C49.2139 151.884 50.1413 151.702 51.2159 151.702C52.7413 151.702 53.9546 152.057 54.8559 152.768C55.7746 153.461 56.3119 154.44 56.4679 155.706H53.5039C53.4173 155.22 53.1746 154.848 52.7759 154.588C52.3773 154.31 51.8486 154.172 51.1899 154.172C50.5139 154.172 49.9939 154.302 49.6299 154.562C49.2833 154.804 49.1099 155.134 49.1099 155.55C49.1099 155.81 49.2139 156.052 49.4219 156.278C49.6473 156.486 49.9679 156.668 50.3839 156.824C50.7999 156.962 51.3113 157.101 51.9179 157.24C52.8886 157.43 53.7466 157.656 54.4919 157.916C55.2373 158.176 55.8266 158.557 56.2599 159.06C56.6933 159.562 56.9099 160.273 56.9099 161.192C56.9273 162.024 56.7106 162.76 56.2599 163.402C55.8266 164.043 55.2113 164.546 54.4139 164.91C53.6166 165.256 52.6633 165.43 51.5539 165.43ZM71.797 171.15C70.5663 171.15 69.483 170.994 68.547 170.682C67.6283 170.387 66.909 169.928 66.389 169.304C65.8863 168.697 65.635 167.934 65.635 167.016C65.635 166.478 65.765 165.95 66.025 165.43C66.3023 164.927 66.7096 164.459 67.247 164.026C67.8016 163.575 68.5036 163.185 69.353 162.856L70.731 164.364C69.899 164.658 69.3183 165.014 68.989 165.43C68.6596 165.846 68.495 166.27 68.495 166.704C68.495 167.154 68.6336 167.527 68.911 167.822C69.2056 168.134 69.5956 168.368 70.081 168.524C70.5836 168.68 71.147 168.758 71.771 168.758C72.3776 168.758 72.9063 168.671 73.357 168.498C73.8076 168.342 74.1543 168.116 74.397 167.822C74.657 167.527 74.787 167.172 74.787 166.756C74.787 166.236 74.605 165.811 74.241 165.482C73.877 165.17 73.1576 164.979 72.083 164.91C71.1643 164.84 70.3583 164.745 69.665 164.624C68.9716 164.485 68.3736 164.329 67.871 164.156C67.3856 163.982 66.9696 163.792 66.623 163.584C66.2763 163.358 65.9903 163.133 65.765 162.908V162.31L68.495 159.45L70.809 160.204L67.741 163.194L68.547 161.686C68.7203 161.807 68.8936 161.92 69.067 162.024C69.2576 162.128 69.4916 162.223 69.769 162.31C70.0636 162.379 70.445 162.448 70.913 162.518C71.381 162.587 71.9876 162.656 72.733 162.726C73.8943 162.812 74.839 163.02 75.567 163.35C76.295 163.679 76.8323 164.121 77.179 164.676C77.5256 165.23 77.699 165.898 77.699 166.678C77.699 167.44 77.4823 168.16 77.049 168.836C76.633 169.512 75.9916 170.066 75.125 170.5C74.2583 170.933 73.149 171.15 71.797 171.15ZM71.797 161.192C70.705 161.192 69.7603 160.984 68.963 160.568C68.183 160.134 67.585 159.562 67.169 158.852C66.753 158.124 66.545 157.326 66.545 156.46C66.545 155.576 66.753 154.778 67.169 154.068C67.585 153.357 68.183 152.785 68.963 152.352C69.7603 151.918 70.705 151.702 71.797 151.702C72.889 151.702 73.825 151.918 74.605 152.352C75.385 152.785 75.983 153.357 76.399 154.068C76.815 154.778 77.023 155.576 77.023 156.46C77.023 157.326 76.815 158.124 76.399 158.852C75.983 159.562 75.385 160.134 74.605 160.568C73.825 160.984 72.889 161.192 71.797 161.192ZM71.797 158.774C72.5423 158.774 73.1403 158.574 73.591 158.176C74.0416 157.777 74.267 157.205 74.267 156.46C74.267 155.714 74.0416 155.151 73.591 154.77C73.1403 154.371 72.5423 154.172 71.797 154.172C71.0516 154.172 70.445 154.371 69.977 154.77C69.509 155.151 69.275 155.714 69.275 156.46C69.275 157.205 69.509 157.777 69.977 158.176C70.445 158.574 71.0516 158.774 71.797 158.774ZM73.955 154.302L73.357 152.014H78.739V153.964L73.955 154.302ZM87.1221 165.43C85.8221 165.43 84.6781 165.152 83.6901 164.598C82.7021 164.026 81.9308 163.228 81.3761 162.206C80.8215 161.183 80.5441 160.004 80.5441 158.67C80.5441 157.283 80.8128 156.07 81.3501 155.03C81.9048 153.99 82.6761 153.175 83.6641 152.586C84.6695 151.996 85.8308 151.702 87.1481 151.702C88.4308 151.702 89.5488 151.988 90.5021 152.56C91.4555 153.132 92.1921 153.903 92.7121 154.874C93.2321 155.827 93.4921 156.902 93.4921 158.098C93.4921 158.271 93.4921 158.462 93.4921 158.67C93.4921 158.878 93.4748 159.094 93.4401 159.32H82.7801V157.318H90.3461C90.3115 156.364 89.9908 155.619 89.3841 155.082C88.7775 154.527 88.0235 154.25 87.1221 154.25C86.4808 154.25 85.8915 154.397 85.3541 154.692C84.8168 154.986 84.3921 155.428 84.0801 156.018C83.7681 156.59 83.6121 157.318 83.6121 158.202V158.956C83.6121 159.77 83.7595 160.472 84.0541 161.062C84.3661 161.651 84.7821 162.102 85.3021 162.414C85.8395 162.708 86.4375 162.856 87.0961 162.856C87.8241 162.856 88.4221 162.7 88.8901 162.388C89.3755 162.076 89.7308 161.66 89.9561 161.14H93.1281C92.8855 161.954 92.4868 162.691 91.9321 163.35C91.3775 163.991 90.6928 164.502 89.8781 164.884C89.0635 165.248 88.1448 165.43 87.1221 165.43ZM101.813 165.118C100.929 165.118 100.158 164.979 99.499 164.702C98.8576 164.424 98.355 163.965 97.991 163.324C97.627 162.682 97.445 161.816 97.445 160.724V154.64H95.209V152.014H97.445L97.809 148.556H100.565V152.014H104.127V154.64H100.565V160.724C100.565 161.382 100.704 161.842 100.981 162.102C101.276 162.344 101.761 162.466 102.437 162.466H104.049V165.118H101.813ZM114.996 170.838L118.194 163.662H117.414L112.188 152.014H115.594L119.494 160.906L123.186 152.014H126.488L118.298 170.838H114.996ZM133.713 165.43C132.465 165.43 131.339 165.144 130.333 164.572C129.345 163.982 128.565 163.176 127.993 162.154C127.439 161.114 127.161 159.926 127.161 158.592C127.161 157.222 127.447 156.026 128.019 155.004C128.591 153.964 129.371 153.158 130.359 152.586C131.365 151.996 132.491 151.702 133.739 151.702C134.987 151.702 136.105 151.996 137.093 152.586C138.099 153.158 138.879 153.955 139.433 154.978C140.005 156 140.291 157.196 140.291 158.566C140.291 159.935 140.005 161.131 139.433 162.154C138.861 163.176 138.073 163.982 137.067 164.572C136.079 165.144 134.961 165.43 133.713 165.43ZM133.713 162.752C134.337 162.752 134.901 162.596 135.403 162.284C135.923 161.972 136.339 161.504 136.651 160.88C136.963 160.256 137.119 159.484 137.119 158.566C137.119 157.647 136.963 156.884 136.651 156.278C136.357 155.654 135.949 155.186 135.429 154.874C134.927 154.562 134.363 154.406 133.739 154.406C133.133 154.406 132.569 154.562 132.049 154.874C131.529 155.186 131.113 155.654 130.801 156.278C130.489 156.884 130.333 157.647 130.333 158.566C130.333 159.484 130.489 160.256 130.801 160.88C131.113 161.504 131.521 161.972 132.023 162.284C132.543 162.596 133.107 162.752 133.713 162.752ZM148.208 165.43C147.15 165.43 146.24 165.222 145.478 164.806C144.732 164.372 144.16 163.731 143.762 162.882C143.363 162.015 143.164 160.949 143.164 159.684V152.014H146.284V159.372C146.284 160.498 146.518 161.356 146.986 161.946C147.471 162.518 148.199 162.804 149.17 162.804C149.794 162.804 150.348 162.656 150.834 162.362C151.336 162.067 151.726 161.642 152.004 161.088C152.298 160.516 152.446 159.822 152.446 159.008V152.014H155.566V165.118H152.81L152.576 162.934C152.177 163.696 151.596 164.303 150.834 164.754C150.088 165.204 149.213 165.43 148.208 165.43ZM172.873 165.43C172.179 165.43 171.555 165.334 171.001 165.144C170.446 164.97 169.961 164.728 169.545 164.416C169.129 164.086 168.782 163.714 168.505 163.298L168.167 165.118H165.385V146.398H168.505V153.938C168.921 153.296 169.484 152.768 170.195 152.352C170.905 151.918 171.789 151.702 172.847 151.702C174.077 151.702 175.161 152.005 176.097 152.612C177.05 153.201 177.795 154.016 178.333 155.056C178.887 156.078 179.165 157.257 179.165 158.592C179.165 159.892 178.896 161.062 178.359 162.102C177.821 163.142 177.076 163.956 176.123 164.546C175.187 165.135 174.103 165.43 172.873 165.43ZM172.223 162.726C172.951 162.726 173.601 162.552 174.173 162.206C174.745 161.842 175.187 161.356 175.499 160.75C175.828 160.126 175.993 159.398 175.993 158.566C175.993 157.751 175.828 157.032 175.499 156.408C175.187 155.784 174.745 155.298 174.173 154.952C173.601 154.605 172.951 154.432 172.223 154.432C171.477 154.432 170.819 154.605 170.247 154.952C169.692 155.298 169.25 155.784 168.921 156.408C168.609 157.032 168.453 157.751 168.453 158.566C168.453 159.398 168.609 160.126 168.921 160.75C169.25 161.356 169.692 161.842 170.247 162.206C170.819 162.552 171.477 162.726 172.223 162.726ZM186.561 165.43C185.487 165.43 184.594 165.248 183.883 164.884C183.173 164.52 182.644 164.034 182.297 163.428C181.951 162.821 181.777 162.162 181.777 161.452C181.777 160.62 181.985 159.9 182.401 159.294C182.835 158.687 183.467 158.219 184.299 157.89C185.131 157.543 186.154 157.37 187.367 157.37H190.669C190.669 156.676 190.574 156.104 190.383 155.654C190.193 155.186 189.898 154.839 189.499 154.614C189.101 154.388 188.589 154.276 187.965 154.276C187.255 154.276 186.648 154.44 186.145 154.77C185.643 155.082 185.331 155.567 185.209 156.226H182.141C182.245 155.29 182.557 154.492 183.077 153.834C183.597 153.158 184.282 152.638 185.131 152.274C185.998 151.892 186.943 151.702 187.965 151.702C189.196 151.702 190.245 151.918 191.111 152.352C191.978 152.768 192.637 153.374 193.087 154.172C193.555 154.952 193.789 155.896 193.789 157.006V165.118H191.137L190.825 163.012C190.652 163.358 190.427 163.679 190.149 163.974C189.889 164.268 189.586 164.528 189.239 164.754C188.893 164.962 188.494 165.126 188.043 165.248C187.61 165.369 187.116 165.43 186.561 165.43ZM187.263 162.96C187.766 162.96 188.208 162.873 188.589 162.7C188.988 162.509 189.326 162.249 189.603 161.92C189.898 161.573 190.123 161.192 190.279 160.776C190.435 160.36 190.539 159.918 190.591 159.45V159.398H187.705C187.099 159.398 186.596 159.476 186.197 159.632C185.799 159.77 185.513 159.978 185.339 160.256C185.166 160.533 185.079 160.854 185.079 161.218C185.079 161.582 185.166 161.894 185.339 162.154C185.513 162.414 185.764 162.613 186.093 162.752C186.423 162.89 186.813 162.96 187.263 162.96ZM203.337 165.43C202.054 165.43 200.902 165.144 199.879 164.572C198.874 163.982 198.085 163.176 197.513 162.154C196.958 161.114 196.681 159.935 196.681 158.618C196.681 157.248 196.958 156.052 197.513 155.03C198.085 153.99 198.874 153.175 199.879 152.586C200.902 151.996 202.063 151.702 203.363 151.702C204.992 151.702 206.362 152.135 207.471 153.002C208.58 153.851 209.291 155.021 209.603 156.512H206.327C206.154 155.853 205.79 155.333 205.235 154.952C204.698 154.57 204.056 154.38 203.311 154.38C202.67 154.38 202.08 154.544 201.543 154.874C201.023 155.203 200.607 155.68 200.295 156.304C200 156.928 199.853 157.682 199.853 158.566C199.853 159.242 199.94 159.84 200.113 160.36C200.286 160.88 200.529 161.322 200.841 161.686C201.17 162.032 201.543 162.301 201.959 162.492C202.375 162.682 202.826 162.778 203.311 162.778C203.814 162.778 204.264 162.7 204.663 162.544C205.079 162.37 205.426 162.119 205.703 161.79C205.998 161.46 206.206 161.07 206.327 160.62H209.603C209.291 162.076 208.58 163.246 207.471 164.13C206.362 164.996 204.984 165.43 203.337 165.43ZM221.061 165.118L215.263 157.942L220.463 152.014H224.181L217.707 159.216V156.798L224.961 165.118H221.061ZM212.611 165.118V146.398H215.731V165.118H212.611ZM239.516 165.43C238.268 165.43 237.141 165.144 236.136 164.572C235.148 163.982 234.368 163.176 233.796 162.154C233.241 161.114 232.964 159.926 232.964 158.592C232.964 157.222 233.25 156.026 233.822 155.004C234.394 153.964 235.174 153.158 236.162 152.586C237.167 151.996 238.294 151.702 239.542 151.702C240.79 151.702 241.908 151.996 242.896 152.586C243.901 153.158 244.681 153.955 245.236 154.978C245.808 156 246.094 157.196 246.094 158.566C246.094 159.935 245.808 161.131 245.236 162.154C244.664 163.176 243.875 163.982 242.87 164.572C241.882 165.144 240.764 165.43 239.516 165.43ZM239.516 162.752C240.14 162.752 240.703 162.596 241.206 162.284C241.726 161.972 242.142 161.504 242.454 160.88C242.766 160.256 242.922 159.484 242.922 158.566C242.922 157.647 242.766 156.884 242.454 156.278C242.159 155.654 241.752 155.186 241.232 154.874C240.729 154.562 240.166 154.406 239.542 154.406C238.935 154.406 238.372 154.562 237.852 154.874C237.332 155.186 236.916 155.654 236.604 156.278C236.292 156.884 236.136 157.647 236.136 158.566C236.136 159.484 236.292 160.256 236.604 160.88C236.916 161.504 237.323 161.972 237.826 162.284C238.346 162.596 238.909 162.752 239.516 162.752ZM249.148 165.118V152.014H251.904L252.138 154.198C252.537 153.435 253.109 152.828 253.854 152.378C254.6 151.927 255.484 151.702 256.506 151.702C257.564 151.702 258.465 151.927 259.21 152.378C259.956 152.811 260.528 153.452 260.926 154.302C261.342 155.151 261.55 156.208 261.55 157.474V165.118H258.43V157.76C258.43 156.668 258.188 155.827 257.702 155.238C257.217 154.648 256.498 154.354 255.544 154.354C254.92 154.354 254.357 154.501 253.854 154.796C253.369 155.09 252.979 155.524 252.684 156.096C252.407 156.65 252.268 157.326 252.268 158.124V165.118H249.148ZM276.881 165.118C275.997 165.118 275.226 164.979 274.567 164.702C273.926 164.424 273.423 163.965 273.059 163.324C272.695 162.682 272.513 161.816 272.513 160.724V154.64H270.277V152.014H272.513L272.877 148.556H275.633V152.014H279.195V154.64H275.633V160.724C275.633 161.382 275.772 161.842 276.049 162.102C276.344 162.344 276.829 162.466 277.505 162.466H279.117V165.118H276.881ZM282.131 165.118V152.014H284.913L285.199 154.458C285.511 153.886 285.901 153.4 286.369 153.002C286.837 152.586 287.383 152.265 288.007 152.04C288.648 151.814 289.35 151.702 290.113 151.702V155.004H289.021C288.501 155.004 288.007 155.073 287.539 155.212C287.071 155.333 286.663 155.541 286.317 155.836C285.987 156.113 285.727 156.503 285.537 157.006C285.346 157.491 285.251 158.106 285.251 158.852V165.118H282.131ZM296.833 165.43C295.758 165.43 294.865 165.248 294.155 164.884C293.444 164.52 292.915 164.034 292.569 163.428C292.222 162.821 292.049 162.162 292.049 161.452C292.049 160.62 292.257 159.9 292.673 159.294C293.106 158.687 293.739 158.219 294.571 157.89C295.403 157.543 296.425 157.37 297.639 157.37H300.941C300.941 156.676 300.845 156.104 300.655 155.654C300.464 155.186 300.169 154.839 299.771 154.614C299.372 154.388 298.861 154.276 298.237 154.276C297.526 154.276 296.919 154.44 296.417 154.77C295.914 155.082 295.602 155.567 295.481 156.226H292.413C292.517 155.29 292.829 154.492 293.349 153.834C293.869 153.158 294.553 152.638 295.403 152.274C296.269 151.892 297.214 151.702 298.237 151.702C299.467 151.702 300.516 151.918 301.383 152.352C302.249 152.768 302.908 153.374 303.359 154.172C303.827 154.952 304.061 155.896 304.061 157.006V165.118H301.409L301.097 163.012C300.923 163.358 300.698 163.679 300.421 163.974C300.161 164.268 299.857 164.528 299.511 164.754C299.164 164.962 298.765 165.126 298.315 165.248C297.881 165.369 297.387 165.43 296.833 165.43ZM297.535 162.96C298.037 162.96 298.479 162.873 298.861 162.7C299.259 162.509 299.597 162.249 299.875 161.92C300.169 161.573 300.395 161.192 300.551 160.776C300.707 160.36 300.811 159.918 300.863 159.45V159.398H297.977C297.37 159.398 296.867 159.476 296.469 159.632C296.07 159.77 295.784 159.978 295.611 160.256C295.437 160.533 295.351 160.854 295.351 161.218C295.351 161.582 295.437 161.894 295.611 162.154C295.784 162.414 296.035 162.613 296.365 162.752C296.694 162.89 297.084 162.96 297.535 162.96ZM313.608 165.43C312.326 165.43 311.173 165.144 310.15 164.572C309.145 163.982 308.356 163.176 307.784 162.154C307.23 161.114 306.952 159.935 306.952 158.618C306.952 157.248 307.23 156.052 307.784 155.03C308.356 153.99 309.145 153.175 310.15 152.586C311.173 151.996 312.334 151.702 313.634 151.702C315.264 151.702 316.633 152.135 317.742 153.002C318.852 153.851 319.562 155.021 319.874 156.512H316.598C316.425 155.853 316.061 155.333 315.506 154.952C314.969 154.57 314.328 154.38 313.582 154.38C312.941 154.38 312.352 154.544 311.814 154.874C311.294 155.203 310.878 155.68 310.566 156.304C310.272 156.928 310.124 157.682 310.124 158.566C310.124 159.242 310.211 159.84 310.384 160.36C310.558 160.88 310.8 161.322 311.112 161.686C311.442 162.032 311.814 162.301 312.23 162.492C312.646 162.682 313.097 162.778 313.582 162.778C314.085 162.778 314.536 162.7 314.934 162.544C315.35 162.37 315.697 162.119 315.974 161.79C316.269 161.46 316.477 161.07 316.598 160.62H319.874C319.562 162.076 318.852 163.246 317.742 164.13C316.633 164.996 315.255 165.43 313.608 165.43ZM331.333 165.118L325.535 157.942L330.735 152.014H334.453L327.979 159.216V156.798L335.233 165.118H331.333ZM322.883 165.118V146.398H326.003V165.118H322.883ZM338.682 165.248C338.093 165.248 337.616 165.066 337.252 164.702C336.888 164.338 336.706 163.904 336.706 163.402C336.706 162.864 336.888 162.414 337.252 162.05C337.616 161.686 338.093 161.504 338.682 161.504C339.254 161.504 339.722 161.686 340.086 162.05C340.45 162.414 340.632 162.864 340.632 163.402C340.632 163.904 340.45 164.338 340.086 164.702C339.722 165.066 339.254 165.248 338.682 165.248Z" fill="white"/>
<path d="M5.53988 210.882V204.94L0.446765 195.246H2.5689L6.76848 203.712H6.21003L10.3873 195.246H12.4871L7.41629 204.94V210.882H5.53988ZM17.6062 211.15C16.5637 211.15 15.6255 210.912 14.7916 210.436C13.9576 209.944 13.3024 209.259 12.8258 208.38C12.3493 207.487 12.111 206.452 12.111 205.275C12.111 204.069 12.3493 203.027 12.8258 202.148C13.3173 201.255 13.98 200.57 14.8139 200.093C15.6628 199.602 16.6084 199.356 17.6509 199.356C18.7231 199.356 19.6688 199.602 20.4878 200.093C21.3218 200.57 21.977 201.255 22.4536 202.148C22.945 203.027 23.1908 204.062 23.1908 205.253C23.1908 206.444 22.945 207.487 22.4536 208.38C21.9621 209.259 21.2994 209.944 20.4655 210.436C19.6315 210.912 18.6784 211.15 17.6062 211.15ZM17.6285 209.542C18.2689 209.542 18.8646 209.386 19.4156 209.073C19.9666 208.745 20.4134 208.261 20.7559 207.621C21.0984 206.981 21.2697 206.191 21.2697 205.253C21.2697 204.3 21.0984 203.511 20.7559 202.885C20.4283 202.245 19.9889 201.768 19.4379 201.456C18.9018 201.128 18.3061 200.964 17.6509 200.964C17.0254 200.964 16.4297 201.128 15.8638 201.456C15.3128 201.768 14.866 202.245 14.5235 202.885C14.1959 203.511 14.0321 204.3 14.0321 205.253C14.0321 206.191 14.1959 206.981 14.5235 207.621C14.866 208.261 15.3054 208.745 15.8415 209.073C16.3925 209.386 16.9882 209.542 17.6285 209.542ZM29.9095 211.15C29.0458 211.15 28.2863 210.979 27.631 210.637C26.9906 210.294 26.4918 209.765 26.1343 209.051C25.7918 208.336 25.6206 207.442 25.6206 206.37V199.624H27.497V206.169C27.497 207.286 27.7427 208.127 28.2341 208.693C28.7256 209.259 29.4181 209.542 30.3116 209.542C30.9371 209.542 31.503 209.393 32.0093 209.095C32.5156 208.783 32.9103 208.343 33.1932 207.777C33.4911 207.197 33.64 206.489 33.64 205.655V199.624H35.5164V210.882H33.8187L33.707 208.917C33.3645 209.616 32.8581 210.168 32.188 210.57C31.5179 210.957 30.7584 211.15 29.9095 211.15ZM38.6268 210.882V199.624H40.3245L40.4586 201.768C40.7117 201.262 41.0319 200.83 41.4191 200.473C41.8212 200.115 42.2977 199.84 42.8487 199.646C43.4146 199.453 44.055 199.356 44.7698 199.356V201.322H44.0774C43.6008 201.322 43.1466 201.389 42.7147 201.523C42.2828 201.642 41.8956 201.843 41.5531 202.126C41.2255 202.409 40.9649 202.796 40.7713 203.287C40.5926 203.764 40.5032 204.36 40.5032 205.074V210.882H38.6268ZM52.8282 210.882V199.624H54.5259L54.6599 201.768C54.9131 201.262 55.2333 200.83 55.6205 200.473C56.0225 200.115 56.4991 199.84 57.0501 199.646C57.616 199.453 58.2564 199.356 58.9712 199.356V201.322H58.2787C57.8022 201.322 57.3479 201.389 56.9161 201.523C56.4842 201.642 56.097 201.843 55.7545 202.126C55.4269 202.409 55.1662 202.796 54.9726 203.287C54.7939 203.764 54.7046 204.36 54.7046 205.074V210.882H52.8282ZM65.6182 211.15C64.5609 211.15 63.6227 210.905 62.8036 210.413C61.9994 209.922 61.3665 209.237 60.9048 208.358C60.4432 207.465 60.2124 206.43 60.2124 205.253C60.2124 204.062 60.4357 203.027 60.8825 202.148C61.3442 201.269 61.9845 200.584 62.8036 200.093C63.6376 199.602 64.5907 199.356 65.6629 199.356C66.7649 199.356 67.6957 199.602 68.4552 200.093C69.2296 200.584 69.8178 201.232 70.2199 202.036C70.6369 202.826 70.8454 203.697 70.8454 204.65C70.8454 204.799 70.8454 204.955 70.8454 205.119C70.8454 205.283 70.8379 205.469 70.823 205.678H61.6197V204.226H69.0136C68.9689 203.198 68.6264 202.394 67.9861 201.813C67.3606 201.232 66.5713 200.942 65.6182 200.942C64.9779 200.942 64.3822 201.091 63.8312 201.389C63.295 201.672 62.8632 202.096 62.5355 202.662C62.2079 203.213 62.0441 203.905 62.0441 204.739V205.365C62.0441 206.288 62.2079 207.062 62.5355 207.688C62.8781 208.313 63.3174 208.783 63.8535 209.095C64.4045 209.408 64.9927 209.564 65.6182 209.564C66.4075 209.564 67.0553 209.393 67.5616 209.051C68.0829 208.693 68.4552 208.217 68.6786 207.621H70.5326C70.3539 208.291 70.0412 208.894 69.5944 209.43C69.1477 209.966 68.5892 210.391 67.9191 210.704C67.2638 211.001 66.4969 211.15 65.6182 211.15ZM77.0411 211.15C76.1327 211.15 75.3732 210.994 74.7626 210.681C74.152 210.354 73.6978 209.929 73.3999 209.408C73.1021 208.872 72.9532 208.291 72.9532 207.666C72.9532 206.906 73.1468 206.266 73.534 205.745C73.9361 205.208 74.4945 204.806 75.2093 204.538C75.9391 204.255 76.7954 204.114 77.7782 204.114H80.7492C80.7492 203.414 80.6375 202.833 80.4142 202.371C80.2057 201.895 79.8929 201.537 79.4759 201.299C79.0739 201.061 78.5675 200.942 77.9569 200.942C77.2421 200.942 76.6241 201.121 76.1029 201.478C75.5816 201.835 75.2615 202.364 75.1423 203.064H73.2212C73.3106 202.26 73.5787 201.59 74.0254 201.054C74.4871 200.502 75.0679 200.086 75.7678 199.803C76.4677 199.505 77.1974 199.356 77.9569 199.356C78.9994 199.356 79.8631 199.549 80.5482 199.937C81.2481 200.309 81.7693 200.838 82.1119 201.523C82.4544 202.193 82.6256 202.989 82.6256 203.913V210.882H80.9503L80.8386 208.894C80.6897 209.207 80.4961 209.505 80.2578 209.788C80.0344 210.056 79.7663 210.294 79.4536 210.503C79.1409 210.696 78.7835 210.853 78.3814 210.972C77.9942 211.091 77.5474 211.15 77.0411 211.15ZM77.3315 209.564C77.8527 209.564 78.3218 209.46 78.7388 209.252C79.1707 209.028 79.5355 208.73 79.8334 208.358C80.1312 207.971 80.3546 207.546 80.5035 207.085C80.6673 206.623 80.7492 206.139 80.7492 205.633V205.566H77.9346C77.2049 205.566 76.6167 205.655 76.1699 205.834C75.7231 205.998 75.4029 206.236 75.2093 206.549C75.0157 206.847 74.9189 207.189 74.9189 207.576C74.9189 207.978 75.0083 208.328 75.187 208.626C75.3806 208.924 75.6561 209.155 76.0135 209.319C76.3858 209.482 76.8251 209.564 77.3315 209.564ZM90.4875 211.15C89.4003 211.15 88.4472 210.897 87.6282 210.391C86.8091 209.87 86.1762 209.162 85.7294 208.269C85.2827 207.375 85.0593 206.363 85.0593 205.231C85.0593 204.099 85.2827 203.094 85.7294 202.215C86.1762 201.322 86.8091 200.622 87.6282 200.115C88.4621 199.609 89.4227 199.356 90.5098 199.356C91.4331 199.356 92.2373 199.542 92.9223 199.914C93.6223 200.287 94.1584 200.808 94.5307 201.478V194.799H96.4071V210.882H94.7094L94.553 209.028C94.3148 209.401 94.0095 209.751 93.6372 210.078C93.2649 210.391 92.8181 210.651 92.2969 210.86C91.7756 211.054 91.1725 211.15 90.4875 211.15ZM90.7109 209.52C91.4555 209.52 92.1107 209.341 92.6766 208.984C93.2425 208.626 93.6818 208.135 93.9946 207.509C94.3073 206.869 94.4637 206.117 94.4637 205.253C94.4637 204.404 94.3073 203.66 93.9946 203.019C93.6818 202.379 93.2425 201.88 92.6766 201.523C92.1107 201.165 91.4555 200.986 90.7109 200.986C89.9811 200.986 89.3333 201.165 88.7674 201.523C88.2015 201.88 87.7622 202.379 87.4495 203.019C87.1367 203.66 86.9804 204.404 86.9804 205.253C86.9804 206.117 87.1367 206.869 87.4495 207.509C87.7622 208.135 88.2015 208.626 88.7674 208.984C89.3333 209.341 89.9811 209.52 90.7109 209.52ZM99.7121 210.882V199.624H101.589V210.882H99.7121ZM100.65 197.234C100.278 197.234 99.9653 197.115 99.7121 196.876C99.4738 196.623 99.3547 196.31 99.3547 195.938C99.3547 195.566 99.4738 195.268 99.7121 195.045C99.9653 194.806 100.278 194.687 100.65 194.687C101.008 194.687 101.313 194.806 101.566 195.045C101.819 195.268 101.946 195.566 101.946 195.938C101.946 196.31 101.819 196.623 101.566 196.876C101.313 197.115 101.008 197.234 100.65 197.234ZM104.9 210.882V199.624H106.598L106.687 201.59C107.044 200.89 107.551 200.346 108.206 199.959C108.876 199.557 109.636 199.356 110.484 199.356C111.363 199.356 112.123 199.535 112.763 199.892C113.403 200.234 113.902 200.763 114.26 201.478C114.617 202.178 114.796 203.071 114.796 204.159V210.882H112.919V204.36C112.919 203.228 112.666 202.379 112.16 201.813C111.668 201.247 110.968 200.964 110.06 200.964C109.434 200.964 108.876 201.121 108.385 201.433C107.893 201.731 107.499 202.17 107.201 202.751C106.918 203.317 106.776 204.024 106.776 204.873V210.882H104.9ZM122.172 216.065C121.159 216.065 120.259 215.931 119.469 215.663C118.695 215.41 118.092 215.015 117.66 214.479C117.228 213.943 117.012 213.28 117.012 212.491C117.012 212.148 117.079 211.783 117.213 211.396C117.362 211.009 117.608 210.629 117.95 210.257C118.308 209.885 118.807 209.549 119.447 209.252L120.743 210.011C119.953 210.339 119.439 210.711 119.201 211.128C118.963 211.56 118.844 211.955 118.844 212.312C118.844 212.803 118.985 213.213 119.268 213.541C119.551 213.868 119.946 214.114 120.452 214.278C120.958 214.442 121.532 214.523 122.172 214.523C122.813 214.523 123.364 214.434 123.825 214.255C124.287 214.077 124.644 213.824 124.897 213.496C125.151 213.168 125.277 212.781 125.277 212.334C125.277 211.813 125.084 211.374 124.696 211.016C124.309 210.674 123.572 210.473 122.485 210.413C121.606 210.354 120.869 210.272 120.273 210.168C119.678 210.063 119.186 209.944 118.799 209.81C118.412 209.661 118.084 209.497 117.816 209.319C117.563 209.14 117.332 208.954 117.124 208.76V208.246L119.291 206.102L120.921 206.683L118.687 208.693L118.978 207.911C119.142 208.03 119.298 208.142 119.447 208.246C119.596 208.351 119.797 208.44 120.05 208.514C120.303 208.589 120.653 208.656 121.1 208.716C121.562 208.775 122.165 208.835 122.909 208.894C123.937 208.969 124.756 209.147 125.367 209.43C125.992 209.713 126.439 210.093 126.707 210.57C126.99 211.046 127.131 211.612 127.131 212.267C127.131 212.908 126.953 213.511 126.595 214.077C126.253 214.657 125.716 215.134 124.987 215.506C124.257 215.879 123.319 216.065 122.172 216.065ZM122.15 207.353C121.212 207.353 120.407 207.174 119.737 206.817C119.082 206.459 118.583 205.983 118.241 205.387C117.898 204.777 117.727 204.099 117.727 203.354C117.727 202.61 117.898 201.94 118.241 201.344C118.598 200.748 119.104 200.272 119.76 199.914C120.415 199.542 121.212 199.356 122.15 199.356C123.088 199.356 123.885 199.542 124.54 199.914C125.195 200.272 125.694 200.748 126.037 201.344C126.379 201.94 126.55 202.61 126.55 203.354C126.55 204.099 126.379 204.777 126.037 205.387C125.694 205.983 125.195 206.459 124.54 206.817C123.885 207.174 123.088 207.353 122.15 207.353ZM122.15 205.812C122.954 205.812 123.587 205.603 124.049 205.186C124.51 204.769 124.741 204.159 124.741 203.354C124.741 202.565 124.51 201.962 124.049 201.545C123.587 201.128 122.954 200.919 122.15 200.919C121.361 200.919 120.72 201.128 120.229 201.545C119.752 201.962 119.514 202.565 119.514 203.354C119.514 204.159 119.752 204.769 120.229 205.186C120.705 205.603 121.346 205.812 122.15 205.812ZM123.982 201.21L123.423 199.624H128.025V201.031L123.982 201.21ZM134.427 211.15C133.489 211.15 132.67 210.994 131.97 210.681C131.285 210.369 130.734 209.937 130.317 209.386C129.915 208.82 129.669 208.157 129.58 207.398H131.501C131.575 207.785 131.732 208.142 131.97 208.47C132.208 208.797 132.529 209.065 132.931 209.274C133.348 209.468 133.854 209.564 134.45 209.564C134.971 209.564 135.403 209.49 135.745 209.341C136.088 209.177 136.341 208.961 136.505 208.693C136.683 208.425 136.773 208.135 136.773 207.822C136.773 207.36 136.661 207.01 136.438 206.772C136.229 206.534 135.917 206.348 135.5 206.214C135.083 206.065 134.576 205.938 133.981 205.834C133.489 205.745 133.005 205.625 132.529 205.476C132.052 205.328 131.628 205.134 131.255 204.896C130.883 204.643 130.585 204.337 130.362 203.98C130.153 203.622 130.049 203.183 130.049 202.662C130.049 202.021 130.213 201.456 130.54 200.964C130.868 200.458 131.337 200.063 131.948 199.78C132.573 199.497 133.296 199.356 134.115 199.356C135.321 199.356 136.296 199.646 137.041 200.227C137.785 200.808 138.225 201.649 138.359 202.751H136.505C136.43 202.185 136.185 201.746 135.768 201.433C135.366 201.106 134.807 200.942 134.092 200.942C133.392 200.942 132.856 201.083 132.484 201.366C132.126 201.649 131.948 202.021 131.948 202.483C131.948 202.781 132.045 203.049 132.238 203.287C132.447 203.511 132.744 203.704 133.132 203.868C133.534 204.032 134.025 204.166 134.606 204.27C135.351 204.404 136.028 204.583 136.639 204.806C137.249 205.03 137.741 205.365 138.113 205.812C138.5 206.243 138.694 206.861 138.694 207.666C138.694 208.366 138.515 208.976 138.158 209.497C137.815 210.019 137.324 210.428 136.683 210.726C136.043 211.009 135.291 211.15 134.427 211.15ZM150.993 211.15C150.084 211.15 149.325 210.994 148.714 210.681C148.104 210.354 147.65 209.929 147.352 209.408C147.054 208.872 146.905 208.291 146.905 207.666C146.905 206.906 147.099 206.266 147.486 205.745C147.888 205.208 148.446 204.806 149.161 204.538C149.891 204.255 150.747 204.114 151.73 204.114H154.701C154.701 203.414 154.589 202.833 154.366 202.371C154.157 201.895 153.845 201.537 153.428 201.299C153.026 201.061 152.519 200.942 151.909 200.942C151.194 200.942 150.576 201.121 150.055 201.478C149.533 201.835 149.213 202.364 149.094 203.064H147.173C147.262 202.26 147.53 201.59 147.977 201.054C148.439 200.502 149.02 200.086 149.72 199.803C150.42 199.505 151.149 199.356 151.909 199.356C152.951 199.356 153.815 199.549 154.5 199.937C155.2 200.309 155.721 200.838 156.064 201.523C156.406 202.193 156.577 202.989 156.577 203.913V210.882H154.902L154.79 208.894C154.641 209.207 154.448 209.505 154.21 209.788C153.986 210.056 153.718 210.294 153.405 210.503C153.093 210.696 152.735 210.853 152.333 210.972C151.946 211.091 151.499 211.15 150.993 211.15ZM151.283 209.564C151.804 209.564 152.274 209.46 152.691 209.252C153.122 209.028 153.487 208.73 153.785 208.358C154.083 207.971 154.306 207.546 154.455 207.085C154.619 206.623 154.701 206.139 154.701 205.633V205.566H151.886C151.157 205.566 150.568 205.655 150.122 205.834C149.675 205.998 149.355 206.236 149.161 206.549C148.968 206.847 148.871 207.189 148.871 207.576C148.871 207.978 148.96 208.328 149.139 208.626C149.332 208.924 149.608 209.155 149.965 209.319C150.338 209.482 150.777 209.564 151.283 209.564ZM159.48 210.882V199.624H161.178L161.312 201.768C161.565 201.262 161.885 200.83 162.272 200.473C162.675 200.115 163.151 199.84 163.702 199.646C164.268 199.453 164.908 199.356 165.623 199.356V201.322H164.931C164.454 201.322 164 201.389 163.568 201.523C163.136 201.642 162.749 201.843 162.406 202.126C162.079 202.409 161.818 202.796 161.625 203.287C161.446 203.764 161.357 204.36 161.357 205.074V210.882H159.48ZM172.27 211.15C171.213 211.15 170.275 210.905 169.456 210.413C168.651 209.922 168.018 209.237 167.557 208.358C167.095 207.465 166.864 206.43 166.864 205.253C166.864 204.062 167.088 203.027 167.534 202.148C167.996 201.269 168.637 200.584 169.456 200.093C170.29 199.602 171.243 199.356 172.315 199.356C173.417 199.356 174.348 199.602 175.107 200.093C175.882 200.584 176.47 201.232 176.872 202.036C177.289 202.826 177.497 203.697 177.497 204.65C177.497 204.799 177.497 204.955 177.497 205.119C177.497 205.283 177.49 205.469 177.475 205.678H168.272V204.226H175.666C175.621 203.198 175.278 202.394 174.638 201.813C174.013 201.232 173.223 200.942 172.27 200.942C171.63 200.942 171.034 201.091 170.483 201.389C169.947 201.672 169.515 202.096 169.188 202.662C168.86 203.213 168.696 203.905 168.696 204.739V205.365C168.696 206.288 168.86 207.062 169.188 207.688C169.53 208.313 169.969 208.783 170.505 209.095C171.056 209.408 171.645 209.564 172.27 209.564C173.059 209.564 173.707 209.393 174.214 209.051C174.735 208.693 175.107 208.217 175.331 207.621H177.185C177.006 208.291 176.693 208.894 176.246 209.43C175.8 209.966 175.241 210.391 174.571 210.704C173.916 211.001 173.149 211.15 172.27 211.15ZM187.795 210.882V197.345L185.114 198.016V196.675L188.42 195.246H189.694V210.882H187.795ZM198.306 211.15C197.233 211.15 196.303 210.957 195.513 210.57C194.739 210.182 194.121 209.654 193.659 208.984C193.212 208.313 192.93 207.561 192.81 206.727H194.642C194.821 207.561 195.23 208.239 195.871 208.76C196.511 209.281 197.33 209.542 198.328 209.542C199.073 209.542 199.705 209.371 200.227 209.028C200.763 208.686 201.172 208.217 201.455 207.621C201.753 207.025 201.902 206.363 201.902 205.633C201.902 204.873 201.753 204.203 201.455 203.622C201.157 203.042 200.748 202.595 200.227 202.282C199.705 201.954 199.095 201.791 198.395 201.791C197.546 201.791 196.824 201.977 196.228 202.349C195.632 202.721 195.186 203.198 194.888 203.779H193.078L194.374 195.246H202.639V196.876H195.826L194.955 201.679C195.327 201.247 195.819 200.897 196.429 200.629C197.055 200.346 197.777 200.205 198.596 200.205C199.37 200.205 200.07 200.339 200.696 200.607C201.321 200.875 201.857 201.255 202.304 201.746C202.751 202.237 203.093 202.811 203.332 203.466C203.585 204.121 203.711 204.836 203.711 205.611C203.711 206.37 203.585 207.085 203.332 207.755C203.093 208.41 202.743 208.998 202.282 209.52C201.82 210.026 201.254 210.428 200.584 210.726C199.914 211.009 199.154 211.15 198.306 211.15ZM208.232 210.882L217.323 195.246H219.2L210.108 210.882H208.232ZM218.083 211.15C217.413 211.15 216.809 211.001 216.273 210.704C215.737 210.391 215.305 209.952 214.978 209.386C214.665 208.82 214.509 208.157 214.509 207.398C214.509 206.623 214.665 205.96 214.978 205.409C215.305 204.844 215.737 204.412 216.273 204.114C216.809 203.801 217.413 203.645 218.083 203.645C218.768 203.645 219.371 203.801 219.892 204.114C220.428 204.412 220.853 204.844 221.165 205.409C221.478 205.96 221.635 206.623 221.635 207.398C221.635 208.157 221.478 208.82 221.165 209.386C220.853 209.952 220.428 210.391 219.892 210.704C219.356 211.001 218.753 211.15 218.083 211.15ZM218.06 209.698C218.418 209.698 218.745 209.616 219.043 209.453C219.341 209.274 219.579 209.013 219.758 208.671C219.952 208.328 220.049 207.904 220.049 207.398C220.049 206.876 219.959 206.444 219.78 206.102C219.602 205.759 219.364 205.506 219.066 205.342C218.768 205.164 218.44 205.074 218.083 205.074C217.74 205.074 217.413 205.164 217.1 205.342C216.802 205.506 216.556 205.759 216.363 206.102C216.184 206.444 216.095 206.876 216.095 207.398C216.095 207.904 216.184 208.328 216.363 208.671C216.556 209.013 216.802 209.274 217.1 209.453C217.398 209.616 217.718 209.698 218.06 209.698ZM209.483 202.505C208.812 202.505 208.209 202.357 207.673 202.059C207.137 201.746 206.705 201.307 206.378 200.741C206.065 200.175 205.908 199.512 205.908 198.753C205.908 197.978 206.065 197.316 206.378 196.765C206.705 196.199 207.137 195.767 207.673 195.469C208.224 195.156 208.835 195 209.505 195C210.175 195 210.778 195.156 211.314 195.469C211.85 195.767 212.275 196.199 212.588 196.765C212.9 197.316 213.057 197.978 213.057 198.753C213.057 199.512 212.9 200.175 212.588 200.741C212.275 201.307 211.843 201.746 211.292 202.059C210.756 202.357 210.153 202.505 209.483 202.505ZM209.483 201.054C209.84 201.054 210.168 200.972 210.465 200.808C210.763 200.629 211.002 200.368 211.18 200.026C211.359 199.683 211.448 199.259 211.448 198.753C211.448 198.231 211.359 197.8 211.18 197.457C211.002 197.1 210.763 196.839 210.465 196.675C210.168 196.497 209.847 196.407 209.505 196.407C209.162 196.407 208.835 196.497 208.522 196.675C208.209 196.839 207.956 197.1 207.763 197.457C207.584 197.8 207.494 198.231 207.494 198.753C207.494 199.259 207.584 199.683 207.763 200.026C207.956 200.368 208.202 200.629 208.5 200.808C208.812 200.972 209.14 201.054 209.483 201.054ZM233.714 211.15C232.806 211.15 232.046 210.994 231.436 210.681C230.825 210.354 230.371 209.929 230.073 209.408C229.775 208.872 229.626 208.291 229.626 207.666C229.626 206.906 229.82 206.266 230.207 205.745C230.609 205.208 231.168 204.806 231.882 204.538C232.612 204.255 233.468 204.114 234.451 204.114H237.422C237.422 203.414 237.311 202.833 237.087 202.371C236.879 201.895 236.566 201.537 236.149 201.299C235.747 201.061 235.241 200.942 234.63 200.942C233.915 200.942 233.297 201.121 232.776 201.478C232.255 201.835 231.935 202.364 231.815 203.064H229.894C229.984 202.26 230.252 201.59 230.698 201.054C231.16 200.502 231.741 200.086 232.441 199.803C233.141 199.505 233.87 199.356 234.63 199.356C235.672 199.356 236.536 199.549 237.221 199.937C237.921 200.309 238.442 200.838 238.785 201.523C239.127 202.193 239.299 202.989 239.299 203.913V210.882H237.623L237.512 208.894C237.363 209.207 237.169 209.505 236.931 209.788C236.707 210.056 236.439 210.294 236.127 210.503C235.814 210.696 235.457 210.853 235.054 210.972C234.667 211.091 234.22 211.15 233.714 211.15ZM234.005 209.564C234.526 209.564 234.995 209.46 235.412 209.252C235.844 209.028 236.209 208.73 236.506 208.358C236.804 207.971 237.028 207.546 237.177 207.085C237.34 206.623 237.422 206.139 237.422 205.633V205.566H234.608C233.878 205.566 233.29 205.655 232.843 205.834C232.396 205.998 232.076 206.236 231.882 206.549C231.689 206.847 231.592 207.189 231.592 207.576C231.592 207.978 231.681 208.328 231.86 208.626C232.054 208.924 232.329 209.155 232.687 209.319C233.059 209.482 233.498 209.564 234.005 209.564ZM248.099 211.15C247.458 211.15 246.878 211.061 246.356 210.882C245.85 210.689 245.403 210.436 245.016 210.123C244.629 209.81 244.309 209.445 244.056 209.028L243.899 210.882H242.201V194.799H244.078V201.478C244.435 200.897 244.949 200.398 245.619 199.981C246.289 199.564 247.116 199.356 248.099 199.356C249.186 199.356 250.139 199.616 250.958 200.138C251.777 200.644 252.41 201.344 252.857 202.237C253.318 203.116 253.549 204.121 253.549 205.253C253.549 206.385 253.318 207.398 252.857 208.291C252.41 209.185 251.777 209.885 250.958 210.391C250.139 210.897 249.186 211.15 248.099 211.15ZM247.875 209.52C248.605 209.52 249.253 209.341 249.819 208.984C250.385 208.626 250.824 208.135 251.137 207.509C251.464 206.869 251.628 206.117 251.628 205.253C251.628 204.404 251.464 203.66 251.137 203.019C250.824 202.379 250.385 201.88 249.819 201.523C249.253 201.165 248.605 200.986 247.875 200.986C247.131 200.986 246.475 201.165 245.91 201.523C245.344 201.88 244.904 202.379 244.592 203.019C244.279 203.66 244.123 204.404 244.123 205.253C244.123 206.117 244.279 206.869 244.592 207.509C244.904 208.135 245.344 208.626 245.91 208.984C246.475 209.341 247.131 209.52 247.875 209.52ZM261.211 211.15C260.168 211.15 259.23 210.912 258.396 210.436C257.562 209.944 256.907 209.259 256.43 208.38C255.954 207.487 255.716 206.452 255.716 205.275C255.716 204.069 255.954 203.027 256.43 202.148C256.922 201.255 257.585 200.57 258.418 200.093C259.267 199.602 260.213 199.356 261.255 199.356C262.328 199.356 263.273 199.602 264.092 200.093C264.926 200.57 265.582 201.255 266.058 202.148C266.55 203.027 266.795 204.062 266.795 205.253C266.795 206.444 266.55 207.487 266.058 208.38C265.567 209.259 264.904 209.944 264.07 210.436C263.236 210.912 262.283 211.15 261.211 211.15ZM261.233 209.542C261.873 209.542 262.469 209.386 263.02 209.073C263.571 208.745 264.018 208.261 264.36 207.621C264.703 206.981 264.874 206.191 264.874 205.253C264.874 204.3 264.703 203.511 264.36 202.885C264.033 202.245 263.593 201.768 263.042 201.456C262.506 201.128 261.911 200.964 261.255 200.964C260.63 200.964 260.034 201.128 259.468 201.456C258.917 201.768 258.471 202.245 258.128 202.885C257.8 203.511 257.637 204.3 257.637 205.253C257.637 206.191 257.8 206.981 258.128 207.621C258.471 208.261 258.91 208.745 259.446 209.073C259.997 209.386 260.593 209.542 261.233 209.542ZM272.098 210.882L267.831 199.624H269.797L273.193 209.073L276.61 199.624H278.531L274.265 210.882H272.098ZM285.008 211.15C283.951 211.15 283.013 210.905 282.194 210.413C281.39 209.922 280.757 209.237 280.295 208.358C279.833 207.465 279.603 206.43 279.603 205.253C279.603 204.062 279.826 203.027 280.273 202.148C280.734 201.269 281.375 200.584 282.194 200.093C283.028 199.602 283.981 199.356 285.053 199.356C286.155 199.356 287.086 199.602 287.845 200.093C288.62 200.584 289.208 201.232 289.61 202.036C290.027 202.826 290.236 203.697 290.236 204.65C290.236 204.799 290.236 204.955 290.236 205.119C290.236 205.283 290.228 205.469 290.213 205.678H281.01V204.226H288.404C288.359 203.198 288.017 202.394 287.376 201.813C286.751 201.232 285.962 200.942 285.008 200.942C284.368 200.942 283.772 201.091 283.221 201.389C282.685 201.672 282.253 202.096 281.926 202.662C281.598 203.213 281.434 203.905 281.434 204.739V205.365C281.434 206.288 281.598 207.062 281.926 207.688C282.268 208.313 282.708 208.783 283.244 209.095C283.795 209.408 284.383 209.564 285.008 209.564C285.798 209.564 286.446 209.393 286.952 209.051C287.473 208.693 287.845 208.217 288.069 207.621H289.923C289.744 208.291 289.431 208.894 288.985 209.43C288.538 209.966 287.979 210.391 287.309 210.704C286.654 211.001 285.887 211.15 285.008 211.15ZM5.98665 241.882C5.3165 241.882 4.73571 241.778 4.24426 241.57C3.75282 241.361 3.37307 241.011 3.10501 240.52C2.85185 240.013 2.72526 239.336 2.72526 238.487V232.21H0.7595V230.624H2.72526L2.97099 227.899H4.60168V230.624H7.86306V232.21H4.60168V238.487C4.60168 239.187 4.74315 239.663 5.0261 239.917C5.30905 240.155 5.80794 240.274 6.52276 240.274H7.72903V241.882H5.98665ZM13.9748 242.15C13.0664 242.15 12.3069 241.994 11.6963 241.681C11.0858 241.354 10.6315 240.929 10.3337 240.408C10.0359 239.872 9.88694 239.291 9.88694 238.666C9.88694 237.906 10.0805 237.266 10.4677 236.745C10.8698 236.208 11.4283 235.806 12.1431 235.538C12.8728 235.255 13.7291 235.114 14.712 235.114H17.683C17.683 234.414 17.5713 233.833 17.3479 233.371C17.1394 232.895 16.8267 232.537 16.4097 232.299C16.0076 232.061 15.5013 231.942 14.8907 231.942C14.1759 231.942 13.5579 232.121 13.0366 232.478C12.5154 232.835 12.1952 233.364 12.0761 234.064H10.155C10.2443 233.26 10.5124 232.59 10.9592 232.054C11.4208 231.502 12.0016 231.086 12.7016 230.803C13.4015 230.505 14.1312 230.356 14.8907 230.356C15.9332 230.356 16.7969 230.549 17.4819 230.937C18.1819 231.309 18.7031 231.838 19.0456 232.523C19.3881 233.193 19.5594 233.989 19.5594 234.913V241.882H17.884L17.7723 239.894C17.6234 240.207 17.4298 240.505 17.1915 240.788C16.9682 241.056 16.7001 241.294 16.3874 241.503C16.0746 241.696 15.7172 241.853 15.3151 241.972C14.9279 242.091 14.4812 242.15 13.9748 242.15ZM14.2652 240.564C14.7865 240.564 15.2556 240.46 15.6725 240.252C16.1044 240.028 16.4693 239.73 16.7671 239.358C17.065 238.971 17.2883 238.546 17.4373 238.085C17.6011 237.623 17.683 237.139 17.683 236.633V236.566H14.8684C14.1386 236.566 13.5504 236.655 13.1036 236.834C12.6569 236.998 12.3367 237.236 12.1431 237.549C11.9495 237.847 11.8527 238.189 11.8527 238.576C11.8527 238.978 11.9421 239.328 12.1208 239.626C12.3144 239.924 12.5899 240.155 12.9473 240.319C13.3196 240.482 13.7589 240.564 14.2652 240.564ZM22.4621 241.882V230.624H24.1598L24.2939 232.768C24.547 232.262 24.8672 231.83 25.2544 231.473C25.6565 231.115 26.1331 230.84 26.6841 230.646C27.25 230.453 27.8903 230.356 28.6052 230.356V232.322H27.9127C27.4361 232.322 26.9819 232.389 26.55 232.523C26.1182 232.642 25.731 232.843 25.3884 233.126C25.0608 233.409 24.8002 233.796 24.6066 234.287C24.4279 234.764 24.3386 235.36 24.3386 236.074V241.882H22.4621ZM34.9134 247.065C33.9008 247.065 32.9998 246.931 32.2105 246.663C31.4361 246.41 30.833 246.015 30.4011 245.479C29.9692 244.943 29.7533 244.28 29.7533 243.491C29.7533 243.148 29.8203 242.783 29.9544 242.396C30.1033 242.009 30.349 241.629 30.6915 241.257C31.0489 240.885 31.5478 240.549 32.1882 240.252L33.4838 241.011C32.6945 241.339 32.1807 241.711 31.9425 242.128C31.7042 242.56 31.585 242.955 31.585 243.312C31.585 243.803 31.7265 244.213 32.0095 244.541C32.2924 244.868 32.6871 245.114 33.1934 245.278C33.6997 245.442 34.2731 245.523 34.9134 245.523C35.5538 245.523 36.1048 245.434 36.5665 245.255C37.0281 245.077 37.3855 244.824 37.6387 244.496C37.8919 244.168 38.0185 243.781 38.0185 243.334C38.0185 242.813 37.8249 242.374 37.4377 242.016C37.0505 241.674 36.3133 241.473 35.2262 241.413C34.3475 241.354 33.6104 241.272 33.0147 241.168C32.419 241.063 31.9276 240.944 31.5404 240.81C31.1532 240.661 30.8255 240.497 30.5575 240.319C30.3043 240.14 30.0735 239.954 29.865 239.76V239.246L32.0318 237.102L33.6625 237.683L31.4287 239.693L31.7191 238.911C31.8829 239.03 32.0393 239.142 32.1882 239.246C32.3371 239.351 32.5381 239.44 32.7913 239.514C33.0445 239.589 33.3944 239.656 33.8412 239.716C34.3029 239.775 34.906 239.835 35.6506 239.894C36.6782 239.969 37.4972 240.147 38.1078 240.43C38.7333 240.713 39.18 241.093 39.4481 241.57C39.7311 242.046 39.8725 242.612 39.8725 243.267C39.8725 243.908 39.6938 244.511 39.3364 245.077C38.9939 245.657 38.4578 246.134 37.7281 246.506C36.9983 246.879 36.0601 247.065 34.9134 247.065ZM34.8911 238.353C33.9529 238.353 33.1487 238.174 32.4786 237.817C31.8233 237.459 31.3244 236.983 30.9819 236.387C30.6394 235.777 30.4681 235.099 30.4681 234.354C30.4681 233.61 30.6394 232.94 30.9819 232.344C31.3393 231.748 31.8457 231.272 32.5009 230.914C33.1562 230.542 33.9529 230.356 34.8911 230.356C35.8293 230.356 36.626 230.542 37.2813 230.914C37.9365 231.272 38.4354 231.748 38.778 232.344C39.1205 232.94 39.2917 233.61 39.2917 234.354C39.2917 235.099 39.1205 235.777 38.778 236.387C38.4354 236.983 37.9365 237.459 37.2813 237.817C36.626 238.174 35.8293 238.353 34.8911 238.353ZM34.8911 236.812C35.6953 236.812 36.3282 236.603 36.7899 236.186C37.2515 235.769 37.4823 235.159 37.4823 234.354C37.4823 233.565 37.2515 232.962 36.7899 232.545C36.3282 232.128 35.6953 231.919 34.8911 231.919C34.1018 231.919 33.4615 232.128 32.97 232.545C32.4935 232.962 32.2552 233.565 32.2552 234.354C32.2552 235.159 32.4935 235.769 32.97 236.186C33.4466 236.603 34.0869 236.812 34.8911 236.812ZM36.7228 232.21L36.1644 230.624H40.7661V232.031L36.7228 232.21ZM47.4248 242.15C46.3674 242.15 45.4292 241.905 44.6102 241.413C43.806 240.922 43.1731 240.237 42.7114 239.358C42.2497 238.465 42.0189 237.43 42.0189 236.253C42.0189 235.062 42.2423 234.027 42.6891 233.148C43.1507 232.269 43.7911 231.584 44.6102 231.093C45.4441 230.602 46.3972 230.356 47.4694 230.356C48.5715 230.356 49.5022 230.602 50.2617 231.093C51.0361 231.584 51.6244 232.232 52.0264 233.036C52.4434 233.826 52.6519 234.697 52.6519 235.65C52.6519 235.799 52.6519 235.955 52.6519 236.119C52.6519 236.283 52.6445 236.469 52.6296 236.678H43.4262V235.226H50.8202C50.7755 234.198 50.433 233.394 49.7926 232.813C49.1672 232.232 48.3779 231.942 47.4248 231.942C46.7844 231.942 46.1887 232.091 45.6377 232.389C45.1016 232.672 44.6697 233.096 44.3421 233.662C44.0145 234.213 43.8507 234.905 43.8507 235.739V236.365C43.8507 237.288 44.0145 238.062 44.3421 238.688C44.6846 239.313 45.1239 239.783 45.66 240.095C46.2111 240.408 46.7993 240.564 47.4248 240.564C48.2141 240.564 48.8619 240.393 49.3682 240.051C49.8894 239.693 50.2617 239.217 50.4851 238.621H52.3392C52.1605 239.291 51.8477 239.894 51.401 240.43C50.9542 240.966 50.3958 241.391 49.7256 241.704C49.0704 242.001 48.3034 242.15 47.4248 242.15ZM59.2363 241.882C58.5661 241.882 57.9853 241.778 57.4939 241.57C57.0025 241.361 56.6227 241.011 56.3547 240.52C56.1015 240.013 55.9749 239.336 55.9749 238.487V232.21H54.0091V230.624H55.9749L56.2206 227.899H57.8513V230.624H61.1127V232.21H57.8513V238.487C57.8513 239.187 57.9928 239.663 58.2757 239.917C58.5587 240.155 59.0576 240.274 59.7724 240.274H60.9787V241.882H59.2363ZM64.2311 241.994C63.8588 241.994 63.5461 241.875 63.2929 241.637C63.0547 241.383 62.9355 241.078 62.9355 240.721C62.9355 240.363 63.0547 240.065 63.2929 239.827C63.5461 239.574 63.8588 239.447 64.2311 239.447C64.6035 239.447 64.9087 239.574 65.147 239.827C65.3853 240.065 65.5044 240.363 65.5044 240.721C65.5044 241.078 65.3853 241.383 65.147 241.637C64.9087 241.875 64.6035 241.994 64.2311 241.994ZM74.0347 241.882V226.246H75.9111V241.882H74.0347ZM79.1585 241.882V230.624H80.8562L80.9679 232.232C81.3253 231.651 81.8019 231.197 82.3975 230.87C83.0081 230.527 83.6708 230.356 84.3856 230.356C84.9664 230.356 85.4877 230.438 85.9493 230.602C86.4259 230.75 86.8429 230.989 87.2003 231.316C87.5577 231.629 87.8481 232.031 88.0715 232.523C88.4587 231.838 88.9873 231.309 89.6575 230.937C90.3425 230.549 91.0722 230.356 91.8466 230.356C92.7104 230.356 93.4624 230.535 94.1028 230.892C94.758 231.234 95.2569 231.763 95.5994 232.478C95.9569 233.178 96.1356 234.071 96.1356 235.159V241.882H94.2815V235.36C94.2815 234.228 94.0507 233.379 93.589 232.813C93.1273 232.247 92.4795 231.964 91.6456 231.964C91.0648 231.964 90.5436 232.121 90.0819 232.433C89.6202 232.731 89.2554 233.17 88.9873 233.751C88.7193 234.332 88.5852 235.047 88.5852 235.896V241.882H86.7088V235.36C86.7088 234.228 86.478 233.379 86.0163 232.813C85.5547 232.247 84.8994 231.964 84.0506 231.964C83.4847 231.964 82.9709 232.121 82.5092 232.433C82.0625 232.731 81.7051 233.17 81.437 233.751C81.1689 234.332 81.0349 235.047 81.0349 235.896V241.882H79.1585ZM99.0535 241.882V230.624H100.751L100.863 232.232C101.22 231.651 101.697 231.197 102.293 230.87C102.903 230.527 103.566 230.356 104.281 230.356C104.861 230.356 105.383 230.438 105.844 230.602C106.321 230.75 106.738 230.989 107.095 231.316C107.453 231.629 107.743 232.031 107.966 232.523C108.354 231.838 108.882 231.309 109.552 230.937C110.238 230.549 110.967 230.356 111.742 230.356C112.605 230.356 113.357 230.535 113.998 230.892C114.653 231.234 115.152 231.763 115.494 232.478C115.852 233.178 116.031 234.071 116.031 235.159V241.882H114.176V235.36C114.176 234.228 113.946 233.379 113.484 232.813C113.022 232.247 112.375 231.964 111.541 231.964C110.96 231.964 110.439 232.121 109.977 232.433C109.515 232.731 109.15 233.17 108.882 233.751C108.614 234.332 108.48 235.047 108.48 235.896V241.882H106.604V235.36C106.604 234.228 106.373 233.379 105.911 232.813C105.45 232.247 104.794 231.964 103.946 231.964C103.38 231.964 102.866 232.121 102.404 232.433C101.957 232.731 101.6 233.17 101.332 233.751C101.064 234.332 100.93 235.047 100.93 235.896V241.882H99.0535ZM123.885 242.15C122.828 242.15 121.89 241.905 121.071 241.413C120.266 240.922 119.634 240.237 119.172 239.358C118.71 238.465 118.479 237.43 118.479 236.253C118.479 235.062 118.703 234.027 119.15 233.148C119.611 232.269 120.252 231.584 121.071 231.093C121.905 230.602 122.858 230.356 123.93 230.356C125.032 230.356 125.963 230.602 126.722 231.093C127.497 231.584 128.085 232.232 128.487 233.036C128.904 233.826 129.112 234.697 129.112 235.65C129.112 235.799 129.112 235.955 129.112 236.119C129.112 236.283 129.105 236.469 129.09 236.678H119.887V235.226H127.281C127.236 234.198 126.893 233.394 126.253 232.813C125.628 232.232 124.838 231.942 123.885 231.942C123.245 231.942 122.649 232.091 122.098 232.389C121.562 232.672 121.13 233.096 120.803 233.662C120.475 234.213 120.311 234.905 120.311 235.739V236.365C120.311 237.288 120.475 238.062 120.803 238.688C121.145 239.313 121.584 239.783 122.121 240.095C122.672 240.408 123.26 240.564 123.885 240.564C124.675 240.564 125.322 240.393 125.829 240.051C126.35 239.693 126.722 239.217 126.946 238.621H128.8C128.621 239.291 128.308 239.894 127.861 240.43C127.415 240.966 126.856 241.391 126.186 241.704C125.531 242.001 124.764 242.15 123.885 242.15ZM136.604 242.15C135.517 242.15 134.563 241.897 133.744 241.391C132.925 240.87 132.292 240.162 131.846 239.269C131.399 238.375 131.176 237.363 131.176 236.231C131.176 235.099 131.399 234.094 131.846 233.215C132.292 232.322 132.925 231.622 133.744 231.115C134.578 230.609 135.539 230.356 136.626 230.356C137.549 230.356 138.354 230.542 139.039 230.914C139.739 231.287 140.275 231.808 140.647 232.478V225.799H142.523V241.882H140.826L140.669 240.028C140.431 240.401 140.126 240.751 139.753 241.078C139.381 241.391 138.934 241.651 138.413 241.86C137.892 242.054 137.289 242.15 136.604 242.15ZM136.827 240.52C137.572 240.52 138.227 240.341 138.793 239.984C139.359 239.626 139.798 239.135 140.111 238.509C140.424 237.869 140.58 237.117 140.58 236.253C140.58 235.404 140.424 234.66 140.111 234.019C139.798 233.379 139.359 232.88 138.793 232.523C138.227 232.165 137.572 231.986 136.827 231.986C136.097 231.986 135.45 232.165 134.884 232.523C134.318 232.88 133.878 233.379 133.566 234.019C133.253 234.66 133.097 235.404 133.097 236.253C133.097 237.117 133.253 237.869 133.566 238.509C133.878 239.135 134.318 239.626 134.884 239.984C135.45 240.341 136.097 240.52 136.827 240.52ZM145.828 241.882V230.624H147.705V241.882H145.828ZM146.767 228.234C146.394 228.234 146.082 228.115 145.828 227.876C145.59 227.623 145.471 227.31 145.471 226.938C145.471 226.566 145.59 226.268 145.828 226.045C146.082 225.806 146.394 225.687 146.767 225.687C147.124 225.687 147.429 225.806 147.682 226.045C147.936 226.268 148.062 226.566 148.062 226.938C148.062 227.31 147.936 227.623 147.682 227.876C147.429 228.115 147.124 228.234 146.767 228.234ZM154.68 242.15C153.771 242.15 153.012 241.994 152.401 241.681C151.79 241.354 151.336 240.929 151.038 240.408C150.741 239.872 150.592 239.291 150.592 238.666C150.592 237.906 150.785 237.266 151.172 236.745C151.575 236.208 152.133 235.806 152.848 235.538C153.578 235.255 154.434 235.114 155.417 235.114H158.388C158.388 234.414 158.276 233.833 158.053 233.371C157.844 232.895 157.531 232.537 157.114 232.299C156.712 232.061 156.206 231.942 155.595 231.942C154.881 231.942 154.263 232.121 153.741 232.478C153.22 232.835 152.9 233.364 152.781 234.064H150.86C150.949 233.26 151.217 232.59 151.664 232.054C152.126 231.502 152.706 231.086 153.406 230.803C154.106 230.505 154.836 230.356 155.595 230.356C156.638 230.356 157.502 230.549 158.187 230.937C158.887 231.309 159.408 231.838 159.75 232.523C160.093 233.193 160.264 233.989 160.264 234.913V241.882H158.589L158.477 239.894C158.328 240.207 158.135 240.505 157.896 240.788C157.673 241.056 157.405 241.294 157.092 241.503C156.779 241.696 156.422 241.853 156.02 241.972C155.633 242.091 155.186 242.15 154.68 242.15ZM154.97 240.564C155.491 240.564 155.96 240.46 156.377 240.252C156.809 240.028 157.174 239.73 157.472 239.358C157.77 238.971 157.993 238.546 158.142 238.085C158.306 237.623 158.388 237.139 158.388 236.633V236.566H155.573C154.843 236.566 154.255 236.655 153.808 236.834C153.362 236.998 153.041 237.236 152.848 237.549C152.654 237.847 152.557 238.189 152.557 238.576C152.557 238.978 152.647 239.328 152.825 239.626C153.019 239.924 153.295 240.155 153.652 240.319C154.024 240.482 154.464 240.564 154.97 240.564ZM167.284 241.882C166.614 241.882 166.033 241.778 165.542 241.57C165.051 241.361 164.671 241.011 164.403 240.52C164.15 240.013 164.023 239.336 164.023 238.487V232.21H162.057V230.624H164.023L164.269 227.899H165.899V230.624H169.161V232.21H165.899V238.487C165.899 239.187 166.041 239.663 166.324 239.917C166.607 240.155 167.106 240.274 167.821 240.274H169.027V241.882H167.284ZM176.24 242.15C175.183 242.15 174.245 241.905 173.426 241.413C172.622 240.922 171.989 240.237 171.527 239.358C171.065 238.465 170.835 237.43 170.835 236.253C170.835 235.062 171.058 234.027 171.505 233.148C171.966 232.269 172.607 231.584 173.426 231.093C174.26 230.602 175.213 230.356 176.285 230.356C177.387 230.356 178.318 230.602 179.077 231.093C179.852 231.584 180.44 232.232 180.842 233.036C181.259 233.826 181.468 234.697 181.468 235.65C181.468 235.799 181.468 235.955 181.468 236.119C181.468 236.283 181.46 236.469 181.445 236.678H172.242V235.226H179.636C179.591 234.198 179.249 233.394 178.608 232.813C177.983 232.232 177.194 231.942 176.24 231.942C175.6 231.942 175.004 232.091 174.453 232.389C173.917 232.672 173.485 233.096 173.158 233.662C172.83 234.213 172.666 234.905 172.666 235.739V236.365C172.666 237.288 172.83 238.062 173.158 238.688C173.5 239.313 173.94 239.783 174.476 240.095C175.027 240.408 175.615 240.564 176.24 240.564C177.03 240.564 177.678 240.393 178.184 240.051C178.705 239.693 179.077 239.217 179.301 238.621H181.155C180.976 239.291 180.663 239.894 180.217 240.43C179.77 240.966 179.211 241.391 178.541 241.704C177.886 242.001 177.119 242.15 176.24 242.15ZM193.597 242.15C192.689 242.15 191.929 241.994 191.318 241.681C190.708 241.354 190.254 240.929 189.956 240.408C189.658 239.872 189.509 239.291 189.509 238.666C189.509 237.906 189.703 237.266 190.09 236.745C190.492 236.208 191.05 235.806 191.765 235.538C192.495 235.255 193.351 235.114 194.334 235.114H197.305C197.305 234.414 197.193 233.833 196.97 233.371C196.762 232.895 196.449 232.537 196.032 232.299C195.63 232.061 195.123 231.942 194.513 231.942C193.798 231.942 193.18 232.121 192.659 232.478C192.137 232.835 191.817 233.364 191.698 234.064H189.777C189.866 233.26 190.135 232.59 190.581 232.054C191.043 231.502 191.624 231.086 192.324 230.803C193.024 230.505 193.753 230.356 194.513 230.356C195.555 230.356 196.419 230.549 197.104 230.937C197.804 231.309 198.325 231.838 198.668 232.523C199.01 233.193 199.181 233.989 199.181 234.913V241.882H197.506L197.394 239.894C197.246 240.207 197.052 240.505 196.814 240.788C196.59 241.056 196.322 241.294 196.009 241.503C195.697 241.696 195.339 241.853 194.937 241.972C194.55 242.091 194.103 242.15 193.597 242.15ZM193.887 240.564C194.409 240.564 194.878 240.46 195.295 240.252C195.727 240.028 196.091 239.73 196.389 239.358C196.687 238.971 196.91 238.546 197.059 238.085C197.223 237.623 197.305 237.139 197.305 236.633V236.566H194.49C193.761 236.566 193.173 236.655 192.726 236.834C192.279 236.998 191.959 237.236 191.765 237.549C191.572 237.847 191.475 238.189 191.475 238.576C191.475 238.978 191.564 239.328 191.743 239.626C191.936 239.924 192.212 240.155 192.569 240.319C192.942 240.482 193.381 240.564 193.887 240.564ZM207.043 242.15C205.956 242.15 205.003 241.897 204.184 241.391C203.365 240.87 202.732 240.162 202.285 239.269C201.839 238.375 201.615 237.363 201.615 236.231C201.615 235.099 201.839 234.094 202.285 233.215C202.732 232.322 203.365 231.622 204.184 231.115C205.018 230.609 205.979 230.356 207.066 230.356C207.989 230.356 208.793 230.542 209.478 230.914C210.178 231.287 210.714 231.808 211.087 232.478V225.799H212.963V241.882H211.265L211.109 240.028C210.871 240.401 210.565 240.751 210.193 241.078C209.821 241.391 209.374 241.651 208.853 241.86C208.331 242.054 207.728 242.15 207.043 242.15ZM207.267 240.52C208.011 240.52 208.667 240.341 209.232 239.984C209.798 239.626 210.238 239.135 210.55 238.509C210.863 237.869 211.02 237.117 211.02 236.253C211.02 235.404 210.863 234.66 210.55 234.019C210.238 233.379 209.798 232.88 209.232 232.523C208.667 232.165 208.011 231.986 207.267 231.986C206.537 231.986 205.889 232.165 205.323 232.523C204.757 232.88 204.318 233.379 204.005 234.019C203.693 234.66 203.536 235.404 203.536 236.253C203.536 237.117 203.693 237.869 204.005 238.509C204.318 239.135 204.757 239.626 205.323 239.984C205.889 240.341 206.537 240.52 207.267 240.52ZM213.922 246.797V245.188H214.794C215.36 245.188 215.762 245.069 216 244.831C216.238 244.608 216.357 244.22 216.357 243.669V230.624H218.234V243.714C218.234 244.429 218.115 245.01 217.876 245.456C217.638 245.918 217.281 246.253 216.804 246.462C216.342 246.685 215.769 246.797 215.084 246.797H213.922ZM217.318 228.234C216.946 228.234 216.633 228.115 216.38 227.876C216.141 227.623 216.022 227.31 216.022 226.938C216.022 226.566 216.141 226.268 216.38 226.045C216.633 225.806 216.946 225.687 217.318 225.687C217.675 225.687 217.973 225.806 218.211 226.045C218.465 226.268 218.591 226.566 218.591 226.938C218.591 227.31 218.465 227.623 218.211 227.876C217.973 228.115 217.675 228.234 217.318 228.234ZM225.609 242.15C224.745 242.15 223.986 241.979 223.331 241.637C222.69 241.294 222.191 240.765 221.834 240.051C221.491 239.336 221.32 238.442 221.32 237.37V230.624H223.196V237.169C223.196 238.286 223.442 239.127 223.934 239.693C224.425 240.259 225.118 240.542 226.011 240.542C226.637 240.542 227.202 240.393 227.709 240.095C228.215 239.783 228.61 239.343 228.893 238.777C229.191 238.197 229.339 237.489 229.339 236.655V230.624H231.216V241.882H229.518L229.407 239.917C229.064 240.616 228.558 241.168 227.888 241.57C227.217 241.957 226.458 242.15 225.609 242.15ZM238.571 242.15C237.632 242.15 236.813 241.994 236.113 241.681C235.428 241.369 234.877 240.937 234.46 240.386C234.058 239.82 233.813 239.157 233.723 238.398H235.644C235.719 238.785 235.875 239.142 236.113 239.47C236.352 239.797 236.672 240.065 237.074 240.274C237.491 240.468 237.997 240.564 238.593 240.564C239.114 240.564 239.546 240.49 239.889 240.341C240.231 240.177 240.484 239.961 240.648 239.693C240.827 239.425 240.916 239.135 240.916 238.822C240.916 238.36 240.804 238.01 240.581 237.772C240.373 237.534 240.06 237.348 239.643 237.214C239.226 237.065 238.72 236.938 238.124 236.834C237.632 236.745 237.148 236.625 236.672 236.476C236.195 236.328 235.771 236.134 235.399 235.896C235.026 235.643 234.728 235.337 234.505 234.98C234.297 234.622 234.192 234.183 234.192 233.662C234.192 233.021 234.356 232.456 234.684 231.964C235.011 231.458 235.48 231.063 236.091 230.78C236.717 230.497 237.439 230.356 238.258 230.356C239.464 230.356 240.44 230.646 241.184 231.227C241.929 231.808 242.368 232.649 242.502 233.751H240.648C240.574 233.185 240.328 232.746 239.911 232.433C239.509 232.106 238.95 231.942 238.236 231.942C237.536 231.942 236.999 232.083 236.627 232.366C236.27 232.649 236.091 233.021 236.091 233.483C236.091 233.781 236.188 234.049 236.381 234.287C236.59 234.511 236.888 234.704 237.275 234.868C237.677 235.032 238.169 235.166 238.749 235.27C239.494 235.404 240.171 235.583 240.782 235.806C241.393 236.03 241.884 236.365 242.256 236.812C242.644 237.243 242.837 237.861 242.837 238.666C242.837 239.366 242.658 239.976 242.301 240.497C241.959 241.019 241.467 241.428 240.827 241.726C240.186 242.009 239.434 242.15 238.571 242.15ZM249.46 241.882C248.79 241.882 248.209 241.778 247.718 241.57C247.226 241.361 246.847 241.011 246.579 240.52C246.326 240.013 246.199 239.336 246.199 238.487V232.21H244.233V230.624H246.199L246.445 227.899H248.075V230.624H251.337V232.21H248.075V238.487C248.075 239.187 248.217 239.663 248.5 239.917C248.783 240.155 249.282 240.274 249.996 240.274H251.203V241.882H249.46ZM253.785 241.882V230.624H255.483L255.594 232.232C255.952 231.651 256.428 231.197 257.024 230.87C257.635 230.527 258.297 230.356 259.012 230.356C259.593 230.356 260.114 230.438 260.576 230.602C261.052 230.75 261.469 230.989 261.827 231.316C262.184 231.629 262.475 232.031 262.698 232.523C263.085 231.838 263.614 231.309 264.284 230.937C264.969 230.549 265.699 230.356 266.473 230.356C267.337 230.356 268.089 230.535 268.729 230.892C269.385 231.234 269.883 231.763 270.226 232.478C270.583 233.178 270.762 234.071 270.762 235.159V241.882H268.908V235.36C268.908 234.228 268.677 233.379 268.216 232.813C267.754 232.247 267.106 231.964 266.272 231.964C265.691 231.964 265.17 232.121 264.708 232.433C264.247 232.731 263.882 233.17 263.614 233.751C263.346 234.332 263.212 235.047 263.212 235.896V241.882H261.335V235.36C261.335 234.228 261.105 233.379 260.643 232.813C260.181 232.247 259.526 231.964 258.677 231.964C258.111 231.964 257.597 232.121 257.136 232.433C256.689 232.731 256.332 233.17 256.064 233.751C255.795 234.332 255.661 235.047 255.661 235.896V241.882H253.785ZM278.617 242.15C277.559 242.15 276.621 241.905 275.802 241.413C274.998 240.922 274.365 240.237 273.903 239.358C273.442 238.465 273.211 237.43 273.211 236.253C273.211 235.062 273.434 234.027 273.881 233.148C274.343 232.269 274.983 231.584 275.802 231.093C276.636 230.602 277.589 230.356 278.661 230.356C279.763 230.356 280.694 230.602 281.454 231.093C282.228 231.584 282.816 232.232 283.218 233.036C283.635 233.826 283.844 234.697 283.844 235.65C283.844 235.799 283.844 235.955 283.844 236.119C283.844 236.283 283.836 236.469 283.822 236.678H274.618V235.226H282.012C281.967 234.198 281.625 233.394 280.985 232.813C280.359 232.232 279.57 231.942 278.617 231.942C277.976 231.942 277.381 232.091 276.83 232.389C276.294 232.672 275.862 233.096 275.534 233.662C275.206 234.213 275.043 234.905 275.043 235.739V236.365C275.043 237.288 275.206 238.062 275.534 238.688C275.877 239.313 276.316 239.783 276.852 240.095C277.403 240.408 277.991 240.564 278.617 240.564C279.406 240.564 280.054 240.393 280.56 240.051C281.081 239.693 281.454 239.217 281.677 238.621H283.531C283.352 239.291 283.04 239.894 282.593 240.43C282.146 240.966 281.588 241.391 280.918 241.704C280.262 242.001 279.495 242.15 278.617 242.15ZM286.376 241.882V230.624H288.074L288.163 232.59C288.521 231.89 289.027 231.346 289.682 230.959C290.352 230.557 291.112 230.356 291.961 230.356C292.839 230.356 293.599 230.535 294.239 230.892C294.88 231.234 295.378 231.763 295.736 232.478C296.093 233.178 296.272 234.071 296.272 235.159V241.882H294.396V235.36C294.396 234.228 294.142 233.379 293.636 232.813C293.145 232.247 292.445 231.964 291.536 231.964C290.911 231.964 290.352 232.121 289.861 232.433C289.369 232.731 288.975 233.17 288.677 233.751C288.394 234.317 288.253 235.024 288.253 235.873V241.882H286.376ZM303.626 241.882C302.956 241.882 302.375 241.778 301.884 241.57C301.392 241.361 301.013 241.011 300.745 240.52C300.491 240.013 300.365 239.336 300.365 238.487V232.21H298.399V230.624H300.365L300.611 227.899H302.241V230.624H305.503V232.21H302.241V238.487C302.241 239.187 302.383 239.663 302.666 239.917C302.949 240.155 303.447 240.274 304.162 240.274H305.369V241.882H303.626ZM314.063 241.882V230.624H315.94V241.882H314.063ZM315.001 228.234C314.629 228.234 314.316 228.115 314.063 227.876C313.825 227.623 313.706 227.31 313.706 226.938C313.706 226.566 313.825 226.268 314.063 226.045C314.316 225.806 314.629 225.687 315.001 225.687C315.359 225.687 315.664 225.806 315.917 226.045C316.17 226.268 316.297 226.566 316.297 226.938C316.297 227.31 316.17 227.623 315.917 227.876C315.664 228.115 315.359 228.234 315.001 228.234ZM323.495 242.15C322.557 242.15 321.738 241.994 321.038 241.681C320.353 241.369 319.802 240.937 319.385 240.386C318.983 239.82 318.737 239.157 318.648 238.398H320.569C320.643 238.785 320.8 239.142 321.038 239.47C321.276 239.797 321.596 240.065 321.998 240.274C322.415 240.468 322.922 240.564 323.517 240.564C324.039 240.564 324.471 240.49 324.813 240.341C325.156 240.177 325.409 239.961 325.573 239.693C325.751 239.425 325.841 239.135 325.841 238.822C325.841 238.36 325.729 238.01 325.506 237.772C325.297 237.534 324.984 237.348 324.567 237.214C324.15 237.065 323.644 236.938 323.048 236.834C322.557 236.745 322.073 236.625 321.596 236.476C321.12 236.328 320.695 236.134 320.323 235.896C319.951 235.643 319.653 235.337 319.43 234.98C319.221 234.622 319.117 234.183 319.117 233.662C319.117 233.021 319.281 232.456 319.608 231.964C319.936 231.458 320.405 231.063 321.016 230.78C321.641 230.497 322.363 230.356 323.182 230.356C324.389 230.356 325.364 230.646 326.109 231.227C326.853 231.808 327.293 232.649 327.427 233.751H325.573C325.498 233.185 325.252 232.746 324.835 232.433C324.433 232.106 323.875 231.942 323.16 231.942C322.46 231.942 321.924 232.083 321.552 232.366C321.194 232.649 321.016 233.021 321.016 233.483C321.016 233.781 321.112 234.049 321.306 234.287C321.514 234.511 321.812 234.704 322.2 234.868C322.602 235.032 323.093 235.166 323.674 235.27C324.418 235.404 325.096 235.583 325.707 235.806C326.317 236.03 326.809 236.365 327.181 236.812C327.568 237.243 327.762 237.861 327.762 238.666C327.762 239.366 327.583 239.976 327.226 240.497C326.883 241.019 326.392 241.428 325.751 241.726C325.111 242.009 324.359 242.15 323.495 242.15ZM1.56368 273.882V262.624H3.26138L3.39541 264.768C3.64858 264.262 3.96876 263.83 4.35596 263.473C4.75804 263.115 5.23459 262.84 5.7856 262.646C6.3515 262.453 6.99187 262.356 7.70669 262.356V264.322H7.01421C6.53766 264.322 6.08345 264.389 5.65157 264.523C5.2197 264.642 4.8325 264.843 4.48999 265.126C4.16236 265.409 3.90175 265.796 3.70815 266.287C3.52944 266.764 3.44009 267.36 3.44009 268.074V273.882H1.56368ZM14.3537 274.15C13.2964 274.15 12.3582 273.905 11.5391 273.413C10.7349 272.922 10.102 272.237 9.64034 271.358C9.17869 270.465 8.94786 269.43 8.94786 268.253C8.94786 267.062 9.17124 266.027 9.61801 265.148C10.0797 264.269 10.72 263.584 11.5391 263.093C12.3731 262.602 13.3262 262.356 14.3984 262.356C15.5004 262.356 16.4312 262.602 17.1907 263.093C17.9651 263.584 18.5533 264.232 18.9554 265.036C19.3724 265.826 19.5809 266.697 19.5809 267.65C19.5809 267.799 19.5809 267.955 19.5809 268.119C19.5809 268.283 19.5734 268.469 19.5585 268.678H10.3552V267.226H17.7491C17.7044 266.198 17.3619 265.394 16.7216 264.813C16.0961 264.232 15.3068 263.942 14.3537 263.942C13.7133 263.942 13.1177 264.091 12.5667 264.389C12.0305 264.672 11.5987 265.096 11.271 265.662C10.9434 266.213 10.7796 266.905 10.7796 267.739V268.365C10.7796 269.288 10.9434 270.062 11.271 270.688C11.6136 271.313 12.0529 271.783 12.589 272.095C13.14 272.408 13.7282 272.564 14.3537 272.564C15.143 272.564 15.7908 272.393 16.2971 272.051C16.8184 271.693 17.1907 271.217 17.4141 270.621H19.2681C19.0894 271.291 18.7767 271.894 18.3299 272.43C17.8832 272.966 17.3247 273.391 16.6546 273.704C15.9993 274.001 15.2323 274.15 14.3537 274.15ZM27.1839 274.15C26.1265 274.15 25.1734 273.905 24.3246 273.413C23.4906 272.922 22.8354 272.237 22.3588 271.358C21.8823 270.465 21.644 269.437 21.644 268.275C21.644 267.084 21.8823 266.049 22.3588 265.17C22.8354 264.292 23.4906 263.607 24.3246 263.115C25.1734 262.609 26.1265 262.356 27.1839 262.356C28.5242 262.356 29.6411 262.706 30.5346 263.406C31.4282 264.091 31.9941 265.014 32.2323 266.176H30.3112C30.1623 265.476 29.7975 264.932 29.2167 264.545C28.6359 264.158 27.9508 263.964 27.1615 263.964C26.5212 263.964 25.9255 264.128 25.3745 264.456C24.8235 264.768 24.3842 265.245 24.0565 265.885C23.7289 266.526 23.5651 267.315 23.5651 268.253C23.5651 268.953 23.6619 269.578 23.8555 270.13C24.0491 270.666 24.3097 271.112 24.6373 271.47C24.965 271.827 25.3447 272.103 25.7766 272.296C26.2233 272.475 26.685 272.564 27.1615 272.564C27.6977 272.564 28.1817 272.482 28.6135 272.319C29.0454 272.14 29.4103 271.879 29.7081 271.537C30.006 271.194 30.207 270.792 30.3112 270.331H32.2323C31.9941 271.462 31.4207 272.386 30.5123 273.1C29.6188 273.8 28.5093 274.15 27.1839 274.15ZM39.9226 274.15C38.8802 274.15 37.942 273.912 37.108 273.436C36.274 272.944 35.6188 272.259 35.1422 271.38C34.6657 270.487 34.4274 269.452 34.4274 268.275C34.4274 267.069 34.6657 266.027 35.1422 265.148C35.6337 264.255 36.2964 263.57 37.1303 263.093C37.9792 262.602 38.9248 262.356 39.9673 262.356C41.0395 262.356 41.9852 262.602 42.8042 263.093C43.6382 263.57 44.2935 264.255 44.77 265.148C45.2614 266.027 45.5072 267.062 45.5072 268.253C45.5072 269.444 45.2614 270.487 44.77 271.38C44.2786 272.259 43.6159 272.944 42.7819 273.436C41.9479 273.912 40.9948 274.15 39.9226 274.15ZM39.9449 272.542C40.5853 272.542 41.181 272.386 41.732 272.073C42.283 271.745 42.7298 271.261 43.0723 270.621C43.4148 269.981 43.5861 269.191 43.5861 268.253C43.5861 267.3 43.4148 266.511 43.0723 265.885C42.7447 265.245 42.3054 264.768 41.7543 264.456C41.2182 264.128 40.6225 263.964 39.9673 263.964C39.3418 263.964 38.7461 264.128 38.1802 264.456C37.6292 264.768 37.1825 265.245 36.8399 265.885C36.5123 266.511 36.3485 267.3 36.3485 268.253C36.3485 269.191 36.5123 269.981 36.8399 270.621C37.1825 271.261 37.6218 271.745 38.1579 272.073C38.7089 272.386 39.3046 272.542 39.9449 272.542ZM48.138 273.882V262.624H49.8357L49.9474 264.232C50.3048 263.651 50.7814 263.197 51.3771 262.87C51.9876 262.527 52.6503 262.356 53.3652 262.356C53.946 262.356 54.4672 262.438 54.9288 262.602C55.4054 262.75 55.8224 262.989 56.1798 263.316C56.5372 263.629 56.8276 264.031 57.051 264.523C57.4382 263.838 57.9668 263.309 58.637 262.937C59.322 262.549 60.0517 262.356 60.8261 262.356C61.6899 262.356 62.4419 262.535 63.0823 262.892C63.7376 263.234 64.2364 263.763 64.579 264.478C64.9364 265.178 65.1151 266.071 65.1151 267.159V273.882H63.261V267.36C63.261 266.228 63.0302 265.379 62.5685 264.813C62.1069 264.247 61.4591 263.964 60.6251 263.964C60.0443 263.964 59.5231 264.121 59.0614 264.433C58.5998 264.731 58.2349 265.17 57.9668 265.751C57.6988 266.332 57.5648 267.047 57.5648 267.896V273.882H55.6883V267.36C55.6883 266.228 55.4575 265.379 54.9959 264.813C54.5342 264.247 53.8789 263.964 53.0301 263.964C52.4642 263.964 51.9504 264.121 51.4888 264.433C51.042 264.731 50.6846 265.17 50.4165 265.751C50.1485 266.332 50.0144 267.047 50.0144 267.896V273.882H48.138ZM68.033 273.882V262.624H69.7307L69.8424 264.232C70.1998 263.651 70.6764 263.197 71.2721 262.87C71.8826 262.527 72.5453 262.356 73.2602 262.356C73.841 262.356 74.3622 262.438 74.8238 262.602C75.3004 262.75 75.7174 262.989 76.0748 263.316C76.4322 263.629 76.7226 264.031 76.946 264.523C77.3332 263.838 77.8618 263.309 78.532 262.937C79.217 262.549 79.9467 262.356 80.7211 262.356C81.5849 262.356 82.3369 262.535 82.9773 262.892C83.6325 263.234 84.1314 263.763 84.474 264.478C84.8314 265.178 85.0101 266.071 85.0101 267.159V273.882H83.156V267.36C83.156 266.228 82.9252 265.379 82.4635 264.813C82.0019 264.247 81.354 263.964 80.5201 263.964C79.9393 263.964 79.4181 264.121 78.9564 264.433C78.4948 264.731 78.1299 265.17 77.8618 265.751C77.5938 266.332 77.4597 267.047 77.4597 267.896V273.882H75.5833V267.36C75.5833 266.228 75.3525 265.379 74.8909 264.813C74.4292 264.247 73.7739 263.964 72.9251 263.964C72.3592 263.964 71.8454 264.121 71.3837 264.433C70.937 264.731 70.5796 265.17 70.3115 265.751C70.0435 266.332 69.9094 267.047 69.9094 267.896V273.882H68.033ZM92.8648 274.15C91.8074 274.15 90.8692 273.905 90.0501 273.413C89.246 272.922 88.613 272.237 88.1514 271.358C87.6897 270.465 87.4589 269.43 87.4589 268.253C87.4589 267.062 87.6823 266.027 88.129 265.148C88.5907 264.269 89.2311 263.584 90.0501 263.093C90.8841 262.602 91.8372 262.356 92.9094 262.356C94.0114 262.356 94.9422 262.602 95.7017 263.093C96.4761 263.584 97.0643 264.232 97.4664 265.036C97.8834 265.826 98.0919 266.697 98.0919 267.65C98.0919 267.799 98.0919 267.955 98.0919 268.119C98.0919 268.283 98.0845 268.469 98.0696 268.678H88.8662V267.226H96.2602C96.2155 266.198 95.873 265.394 95.2326 264.813C94.6071 264.232 93.8179 263.942 92.8648 263.942C92.2244 263.942 91.6287 264.091 91.0777 264.389C90.5416 264.672 90.1097 265.096 89.7821 265.662C89.4544 266.213 89.2906 266.905 89.2906 267.739V268.365C89.2906 269.288 89.4544 270.062 89.7821 270.688C90.1246 271.313 90.5639 271.783 91.1 272.095C91.651 272.408 92.2393 272.564 92.8648 272.564C93.654 272.564 94.3018 272.393 94.8082 272.051C95.3294 271.693 95.7017 271.217 95.9251 270.621H97.7792C97.6005 271.291 97.2877 271.894 96.841 272.43C96.3942 272.966 95.8357 273.391 95.1656 273.704C94.5103 274.001 93.7434 274.15 92.8648 274.15ZM100.624 273.882V262.624H102.322L102.411 264.59C102.769 263.89 103.275 263.346 103.93 262.959C104.6 262.557 105.36 262.356 106.209 262.356C107.087 262.356 107.847 262.535 108.487 262.892C109.128 263.234 109.626 263.763 109.984 264.478C110.341 265.178 110.52 266.071 110.52 267.159V273.882H108.644V267.36C108.644 266.228 108.39 265.379 107.884 264.813C107.393 264.247 106.693 263.964 105.784 263.964C105.159 263.964 104.6 264.121 104.109 264.433C103.617 264.731 103.223 265.17 102.925 265.751C102.642 266.317 102.501 267.024 102.501 267.873V273.882H100.624ZM118.41 274.15C117.323 274.15 116.37 273.897 115.551 273.391C114.732 272.87 114.099 272.162 113.652 271.269C113.205 270.375 112.982 269.363 112.982 268.231C112.982 267.099 113.205 266.094 113.652 265.215C114.099 264.322 114.732 263.622 115.551 263.115C116.385 262.609 117.345 262.356 118.433 262.356C119.356 262.356 120.16 262.542 120.845 262.914C121.545 263.287 122.081 263.808 122.453 264.478V257.799H124.33V273.882H122.632L122.476 272.028C122.238 272.401 121.932 272.751 121.56 273.078C121.188 273.391 120.741 273.651 120.22 273.86C119.698 274.054 119.095 274.15 118.41 274.15ZM118.634 272.52C119.378 272.52 120.034 272.341 120.599 271.984C121.165 271.626 121.605 271.135 121.917 270.509C122.23 269.869 122.386 269.117 122.386 268.253C122.386 267.404 122.23 266.66 121.917 266.019C121.605 265.379 121.165 264.88 120.599 264.523C120.034 264.165 119.378 263.986 118.634 263.986C117.904 263.986 117.256 264.165 116.69 264.523C116.124 264.88 115.685 265.379 115.372 266.019C115.06 266.66 114.903 267.404 114.903 268.253C114.903 269.117 115.06 269.869 115.372 270.509C115.685 271.135 116.124 271.626 116.69 271.984C117.256 272.341 117.904 272.52 118.634 272.52ZM132.393 274.15C131.336 274.15 130.397 273.905 129.578 273.413C128.774 272.922 128.141 272.237 127.68 271.358C127.218 270.465 126.987 269.43 126.987 268.253C126.987 267.062 127.21 266.027 127.657 265.148C128.119 264.269 128.759 263.584 129.578 263.093C130.412 262.602 131.365 262.356 132.438 262.356C133.54 262.356 134.47 262.602 135.23 263.093C136.004 263.584 136.593 264.232 136.995 265.036C137.412 265.826 137.62 266.697 137.62 267.65C137.62 267.799 137.62 267.955 137.62 268.119C137.62 268.283 137.613 268.469 137.598 268.678H128.394V267.226H135.788C135.744 266.198 135.401 265.394 134.761 264.813C134.135 264.232 133.346 263.942 132.393 263.942C131.753 263.942 131.157 264.091 130.606 264.389C130.07 264.672 129.638 265.096 129.31 265.662C128.983 266.213 128.819 266.905 128.819 267.739V268.365C128.819 269.288 128.983 270.062 129.31 270.688C129.653 271.313 130.092 271.783 130.628 272.095C131.179 272.408 131.767 272.564 132.393 272.564C133.182 272.564 133.83 272.393 134.336 272.051C134.858 271.693 135.23 271.217 135.453 270.621H137.307C137.129 271.291 136.816 271.894 136.369 272.43C135.922 272.966 135.364 273.391 134.694 273.704C134.039 274.001 133.272 274.15 132.393 274.15ZM145.111 274.15C144.024 274.15 143.071 273.897 142.252 273.391C141.433 272.87 140.8 272.162 140.353 271.269C139.907 270.375 139.683 269.363 139.683 268.231C139.683 267.099 139.907 266.094 140.353 265.215C140.8 264.322 141.433 263.622 142.252 263.115C143.086 262.609 144.047 262.356 145.134 262.356C146.057 262.356 146.861 262.542 147.546 262.914C148.246 263.287 148.782 263.808 149.155 264.478V257.799H151.031V273.882H149.333L149.177 272.028C148.939 272.401 148.633 272.751 148.261 273.078C147.889 273.391 147.442 273.651 146.921 273.86C146.4 274.054 145.796 274.15 145.111 274.15ZM145.335 272.52C146.079 272.52 146.735 272.341 147.301 271.984C147.866 271.626 148.306 271.135 148.619 270.509C148.931 269.869 149.088 269.117 149.088 268.253C149.088 267.404 148.931 266.66 148.619 266.019C148.306 265.379 147.866 264.88 147.301 264.523C146.735 264.165 146.079 263.986 145.335 263.986C144.605 263.986 143.957 264.165 143.391 264.523C142.825 264.88 142.386 265.379 142.073 266.019C141.761 266.66 141.604 267.404 141.604 268.253C141.604 269.117 141.761 269.869 142.073 270.509C142.386 271.135 142.825 271.626 143.391 271.984C143.957 272.341 144.605 272.52 145.335 272.52ZM154.828 273.994C154.455 273.994 154.142 273.875 153.889 273.637C153.651 273.383 153.532 273.078 153.532 272.721C153.532 272.363 153.651 272.065 153.889 271.827C154.142 271.574 154.455 271.447 154.828 271.447C155.2 271.447 155.505 271.574 155.743 271.827C155.982 272.065 156.101 272.363 156.101 272.721C156.101 273.078 155.982 273.383 155.743 273.637C155.505 273.875 155.2 273.994 154.828 273.994Z" fill="white"/>
</svg>
