<svg width="438" height="155" viewBox="0 0 438 155" fill="none" xmlns="http://www.w3.org/2000/svg">
<rect width="437.164" height="154.326" rx="13.4685" fill="#F4F3F0" fill-opacity="0.2"/>
<path d="M23.32 31.126C22.34 31.126 21.4953 30.916 20.786 30.496C20.086 30.0667 19.5446 29.474 19.162 28.718C18.7886 27.9527 18.602 27.0707 18.602 26.072C18.602 25.0733 18.7886 24.1913 19.162 23.426C19.5446 22.6607 20.086 22.0633 20.786 21.634C21.4953 21.2047 22.34 20.99 23.32 20.99C24.5053 20.99 25.476 21.284 26.232 21.872C26.988 22.46 27.4593 23.2907 27.646 24.364H25.588C25.4666 23.8413 25.21 23.4353 24.818 23.146C24.4353 22.8473 23.9313 22.698 23.306 22.698C22.7273 22.698 22.228 22.838 21.808 23.118C21.3973 23.3887 21.08 23.776 20.856 24.28C20.632 24.7747 20.52 25.372 20.52 26.072C20.52 26.7627 20.632 27.36 20.856 27.864C21.08 28.368 21.3973 28.7553 21.808 29.026C22.228 29.2967 22.7273 29.432 23.306 29.432C23.9313 29.432 24.4353 29.2967 24.818 29.026C25.2006 28.746 25.4526 28.3587 25.574 27.864H27.646C27.4593 28.8813 26.988 29.6793 26.232 30.258C25.476 30.8367 24.5053 31.126 23.32 31.126ZM32.5499 31.126C31.8779 31.126 31.2712 30.972 30.7299 30.664C30.1979 30.3467 29.7732 29.9127 29.4559 29.362C29.1479 28.802 28.9939 28.1627 28.9939 27.444C28.9939 26.7067 29.1479 26.0627 29.4559 25.512C29.7732 24.952 30.2026 24.518 30.7439 24.21C31.2852 23.8927 31.8919 23.734 32.5639 23.734C33.2452 23.734 33.8519 23.8927 34.3839 24.21C34.9252 24.518 35.3499 24.952 35.6579 25.512C35.9752 26.0627 36.1339 26.702 36.1339 27.43C36.1339 28.158 35.9752 28.802 35.6579 29.362C35.3499 29.9127 34.9252 30.3467 34.3839 30.664C33.8426 30.972 33.2312 31.126 32.5499 31.126ZM32.5499 29.488C32.8672 29.488 33.1472 29.4133 33.3899 29.264C33.6419 29.1147 33.8379 28.886 33.9779 28.578C34.1272 28.27 34.2019 27.8873 34.2019 27.43C34.2019 26.9727 34.1272 26.5947 33.9779 26.296C33.8379 25.988 33.6419 25.7593 33.3899 25.61C33.1472 25.4513 32.8719 25.372 32.5639 25.372C32.2652 25.372 31.9899 25.4513 31.7379 25.61C31.4859 25.7593 31.2852 25.988 31.1359 26.296C30.9959 26.5947 30.9259 26.9727 30.9259 27.43C30.9259 27.8873 30.9959 28.27 31.1359 28.578C31.2852 28.886 31.4812 29.1147 31.7239 29.264C31.9759 29.4133 32.2512 29.488 32.5499 29.488ZM37.7628 30.958V23.902H39.4288L39.5828 24.84C39.8068 24.504 40.1008 24.238 40.4648 24.042C40.8382 23.8367 41.2628 23.734 41.7388 23.734C42.0935 23.734 42.4108 23.7807 42.6908 23.874C42.9708 23.9673 43.2182 24.1027 43.4328 24.28C43.6568 24.4573 43.8388 24.6813 43.9788 24.952C44.2402 24.5693 44.5808 24.2707 45.0008 24.056C45.4208 23.8413 45.8782 23.734 46.3728 23.734C46.9888 23.734 47.5022 23.86 47.9128 24.112C48.3235 24.3547 48.6315 24.7093 48.8368 25.176C49.0515 25.6427 49.1588 26.2167 49.1588 26.898V30.958H47.2828V27.066C47.2828 26.506 47.1708 26.0767 46.9468 25.778C46.7322 25.4793 46.3962 25.33 45.9388 25.33C45.6402 25.33 45.3742 25.4047 45.1408 25.554C44.9075 25.7033 44.7255 25.918 44.5948 26.198C44.4735 26.478 44.4128 26.814 44.4128 27.206V30.958H42.5228V27.066C42.5228 26.506 42.4108 26.0767 42.1868 25.778C41.9628 25.4793 41.6175 25.33 41.1508 25.33C40.8615 25.33 40.6002 25.4047 40.3668 25.554C40.1428 25.7033 39.9655 25.918 39.8348 26.198C39.7135 26.478 39.6528 26.814 39.6528 27.206V30.958H37.7628ZM50.9425 34.038V23.902H52.6225L52.8325 24.882C52.9818 24.6767 53.1592 24.49 53.3645 24.322C53.5698 24.1447 53.8125 24.0047 54.0925 23.902C54.3818 23.79 54.7178 23.734 55.1005 23.734C55.7632 23.734 56.3465 23.8973 56.8505 24.224C57.3545 24.5507 57.7512 24.994 58.0405 25.554C58.3392 26.1047 58.4885 26.7347 58.4885 27.444C58.4885 28.1533 58.3392 28.788 58.0405 29.348C57.7418 29.8987 57.3405 30.3327 56.8365 30.65C56.3325 30.9673 55.7585 31.126 55.1145 31.126C54.5918 31.126 54.1392 31.0327 53.7565 30.846C53.3832 30.65 53.0752 30.384 52.8325 30.048V34.038H50.9425ZM54.6665 29.474C55.0398 29.474 55.3665 29.39 55.6465 29.222C55.9358 29.054 56.1598 28.816 56.3185 28.508C56.4772 28.2 56.5565 27.8453 56.5565 27.444C56.5565 27.0427 56.4772 26.688 56.3185 26.38C56.1598 26.0627 55.9358 25.82 55.6465 25.652C55.3665 25.4747 55.0398 25.386 54.6665 25.386C54.3025 25.386 53.9758 25.4747 53.6865 25.652C53.4065 25.82 53.1825 26.058 53.0145 26.366C52.8558 26.674 52.7765 27.0287 52.7765 27.43C52.7765 27.8313 52.8558 28.1907 53.0145 28.508C53.1825 28.816 53.4065 29.054 53.6865 29.222C53.9758 29.39 54.3025 29.474 54.6665 29.474ZM62.4963 31.126C61.9083 31.126 61.423 31.0327 61.0403 30.846C60.6577 30.65 60.373 30.3933 60.1863 30.076C60.009 29.7493 59.9203 29.39 59.9203 28.998C59.9203 28.5687 60.0277 28.1907 60.2423 27.864C60.4663 27.5373 60.7977 27.2807 61.2363 27.094C61.6843 26.9073 62.2443 26.814 62.9163 26.814H64.6663C64.6663 26.4687 64.6197 26.184 64.5263 25.96C64.433 25.7267 64.2883 25.554 64.0923 25.442C63.8963 25.33 63.635 25.274 63.3083 25.274C62.9537 25.274 62.6503 25.3533 62.3983 25.512C62.1557 25.6613 62.0063 25.8947 61.9503 26.212H60.1163C60.163 25.708 60.3263 25.274 60.6063 24.91C60.8957 24.5367 61.2737 24.2473 61.7403 24.042C62.2163 23.8367 62.7437 23.734 63.3223 23.734C63.985 23.734 64.559 23.846 65.0443 24.07C65.5297 24.294 65.903 24.616 66.1643 25.036C66.4257 25.456 66.5563 25.974 66.5563 26.59V30.958H64.9603L64.7503 29.88C64.6477 30.0667 64.5263 30.2347 64.3863 30.384C64.2463 30.5333 64.083 30.664 63.8963 30.776C63.7097 30.888 63.4997 30.972 63.2663 31.028C63.033 31.0933 62.7763 31.126 62.4963 31.126ZM62.9443 29.67C63.187 29.67 63.4017 29.628 63.5883 29.544C63.7843 29.4507 63.9523 29.3293 64.0923 29.18C64.2323 29.0213 64.3397 28.844 64.4143 28.648C64.4983 28.4427 64.5543 28.2233 64.5823 27.99V27.976H63.1403C62.851 27.976 62.613 28.0133 62.4263 28.088C62.249 28.1533 62.1183 28.2513 62.0343 28.382C61.9503 28.5127 61.9083 28.662 61.9083 28.83C61.9083 29.0167 61.9503 29.1707 62.0343 29.292C62.1183 29.4133 62.2397 29.5067 62.3983 29.572C62.557 29.6373 62.739 29.67 62.9443 29.67ZM68.3195 30.958V23.902H69.9995L70.1815 25.204C70.3495 24.896 70.5595 24.6347 70.8115 24.42C71.0728 24.2053 71.3668 24.0373 71.6935 23.916C72.0295 23.7947 72.3981 23.734 72.7995 23.734V25.736H72.1555C71.8755 25.736 71.6141 25.7687 71.3715 25.834C71.1381 25.8993 70.9328 26.0067 70.7555 26.156C70.5781 26.296 70.4428 26.492 70.3495 26.744C70.2561 26.996 70.2095 27.3133 70.2095 27.696V30.958H68.3195ZM76.428 31.126C75.84 31.126 75.3546 31.0327 74.972 30.846C74.5893 30.65 74.3046 30.3933 74.118 30.076C73.9406 29.7493 73.852 29.39 73.852 28.998C73.852 28.5687 73.9593 28.1907 74.174 27.864C74.398 27.5373 74.7293 27.2807 75.168 27.094C75.616 26.9073 76.176 26.814 76.848 26.814H78.598C78.598 26.4687 78.5513 26.184 78.458 25.96C78.3646 25.7267 78.22 25.554 78.024 25.442C77.828 25.33 77.5666 25.274 77.24 25.274C76.8853 25.274 76.582 25.3533 76.33 25.512C76.0873 25.6613 75.938 25.8947 75.882 26.212H74.048C74.0946 25.708 74.258 25.274 74.538 24.91C74.8273 24.5367 75.2053 24.2473 75.672 24.042C76.148 23.8367 76.6753 23.734 77.254 23.734C77.9166 23.734 78.4906 23.846 78.976 24.07C79.4613 24.294 79.8346 24.616 80.096 25.036C80.3573 25.456 80.488 25.974 80.488 26.59V30.958H78.892L78.682 29.88C78.5793 30.0667 78.458 30.2347 78.318 30.384C78.178 30.5333 78.0146 30.664 77.828 30.776C77.6413 30.888 77.4313 30.972 77.198 31.028C76.9646 31.0933 76.708 31.126 76.428 31.126ZM76.876 29.67C77.1186 29.67 77.3333 29.628 77.52 29.544C77.716 29.4507 77.884 29.3293 78.024 29.18C78.164 29.0213 78.2713 28.844 78.346 28.648C78.43 28.4427 78.486 28.2233 78.514 27.99V27.976H77.072C76.7826 27.976 76.5446 28.0133 76.358 28.088C76.1806 28.1533 76.05 28.2513 75.966 28.382C75.882 28.5127 75.84 28.662 75.84 28.83C75.84 29.0167 75.882 29.1707 75.966 29.292C76.05 29.4133 76.1713 29.5067 76.33 29.572C76.4886 29.6373 76.6706 29.67 76.876 29.67ZM85.3471 30.958C84.8524 30.958 84.4184 30.8833 84.0451 30.734C83.6811 30.5753 83.3964 30.3187 83.1911 29.964C82.9857 29.6 82.8831 29.1053 82.8831 28.48V25.484H81.6791V23.902H82.8831L83.0931 21.984H84.7731V23.902H86.6351V25.484H84.7731V28.508C84.7731 28.8253 84.8431 29.0447 84.9831 29.166C85.1231 29.2873 85.3611 29.348 85.6971 29.348H86.6211V30.958H85.3471ZM88.2677 30.958V23.902H90.1577V30.958H88.2677ZM89.2197 22.936C88.8837 22.936 88.6037 22.838 88.3797 22.642C88.165 22.4367 88.0577 22.18 88.0577 21.872C88.0577 21.564 88.165 21.312 88.3797 21.116C88.6037 20.9107 88.8837 20.808 89.2197 20.808C89.565 20.808 89.845 20.9107 90.0597 21.116C90.2837 21.312 90.3957 21.564 90.3957 21.872C90.3957 22.18 90.2837 22.4367 90.0597 22.642C89.845 22.838 89.565 22.936 89.2197 22.936ZM93.9575 30.958L91.3675 23.902H93.3555L95.1055 29.18L96.8555 23.902H98.8295L96.2535 30.958H93.9575ZM103.043 31.126C102.334 31.126 101.704 30.9767 101.153 30.678C100.612 30.37 100.187 29.9453 99.8794 29.404C99.5807 28.8533 99.4314 28.2187 99.4314 27.5C99.4314 26.7627 99.5807 26.114 99.8794 25.554C100.187 24.9847 100.612 24.5413 101.153 24.224C101.695 23.8973 102.325 23.734 103.043 23.734C103.743 23.734 104.355 23.888 104.877 24.196C105.4 24.504 105.806 24.9193 106.095 25.442C106.385 25.9647 106.529 26.5573 106.529 27.22C106.529 27.3133 106.529 27.4207 106.529 27.542C106.529 27.654 106.52 27.7707 106.501 27.892H100.775V26.744H104.625C104.597 26.2867 104.434 25.9273 104.135 25.666C103.846 25.4047 103.482 25.274 103.043 25.274C102.726 25.274 102.432 25.3487 102.161 25.498C101.891 25.638 101.676 25.8573 101.517 26.156C101.368 26.4547 101.293 26.8327 101.293 27.29V27.696C101.293 28.0787 101.363 28.4147 101.503 28.704C101.653 28.984 101.858 29.2033 102.119 29.362C102.381 29.5113 102.684 29.586 103.029 29.586C103.375 29.586 103.659 29.5113 103.883 29.362C104.117 29.2127 104.289 29.0213 104.401 28.788H106.333C106.203 29.2267 105.983 29.6233 105.675 29.978C105.367 30.3327 104.989 30.6127 104.541 30.818C104.093 31.0233 103.594 31.126 103.043 31.126ZM111.414 30.958V21.158H117.854V22.684H113.304V25.246H117.434V26.716H113.304V29.432H117.854V30.958H111.414ZM119.856 30.958V23.272C119.856 22.684 119.954 22.2173 120.15 21.872C120.346 21.5267 120.626 21.2747 120.99 21.116C121.364 20.9573 121.798 20.878 122.292 20.878H123.16V22.488H122.572C122.274 22.488 122.059 22.5487 121.928 22.67C121.807 22.782 121.746 22.9827 121.746 23.272V30.958H119.856ZM118.89 25.484V23.902H123.272V25.484H118.89ZM125.052 30.958V25.484H124.086V23.902H125.052V23.272C125.052 22.684 125.15 22.2173 125.346 21.872C125.542 21.5267 125.822 21.2747 126.186 21.116C126.559 20.9573 126.993 20.878 127.488 20.878H128.258V22.488H127.768C127.478 22.488 127.268 22.5487 127.138 22.67C127.007 22.782 126.942 22.978 126.942 23.258V23.902H131.38V30.958H129.49V25.484H126.942V30.958H125.052ZM130.442 22.95C130.106 22.95 129.826 22.8473 129.602 22.642C129.387 22.4367 129.28 22.18 129.28 21.872C129.28 21.564 129.387 21.312 129.602 21.116C129.826 20.92 130.106 20.822 130.442 20.822C130.787 20.822 131.067 20.92 131.282 21.116C131.506 21.312 131.618 21.564 131.618 21.872C131.618 22.18 131.506 22.4367 131.282 22.642C131.067 22.8473 130.787 22.95 130.442 22.95ZM136.691 31.126C135.981 31.126 135.351 30.9673 134.801 30.65C134.25 30.3327 133.821 29.8987 133.513 29.348C133.205 28.7973 133.051 28.1673 133.051 27.458C133.051 26.73 133.205 26.0907 133.513 25.54C133.821 24.98 134.25 24.5413 134.801 24.224C135.351 23.8973 135.981 23.734 136.691 23.734C137.596 23.734 138.357 23.972 138.973 24.448C139.589 24.924 139.981 25.5773 140.149 26.408H138.147C138.063 26.0813 137.885 25.8247 137.615 25.638C137.353 25.4513 137.041 25.358 136.677 25.358C136.35 25.358 136.056 25.442 135.795 25.61C135.543 25.7687 135.342 26.0067 135.193 26.324C135.053 26.632 134.983 27.0007 134.983 27.43C134.983 27.7567 135.025 28.0507 135.109 28.312C135.193 28.564 135.309 28.7833 135.459 28.97C135.608 29.1473 135.785 29.2827 135.991 29.376C136.205 29.4693 136.434 29.516 136.677 29.516C136.919 29.516 137.139 29.474 137.335 29.39C137.54 29.306 137.713 29.1893 137.853 29.04C137.993 28.8813 138.091 28.69 138.147 28.466H140.149C139.981 29.278 139.584 29.9267 138.959 30.412C138.343 30.888 137.587 31.126 136.691 31.126ZM141.82 30.958V23.902H143.71V30.958H141.82ZM142.772 22.936C142.436 22.936 142.156 22.838 141.932 22.642C141.718 22.4367 141.61 22.18 141.61 21.872C141.61 21.564 141.718 21.312 141.932 21.116C142.156 20.9107 142.436 20.808 142.772 20.808C143.118 20.808 143.398 20.9107 143.612 21.116C143.836 21.312 143.948 21.564 143.948 21.872C143.948 22.18 143.836 22.4367 143.612 22.642C143.398 22.838 143.118 22.936 142.772 22.936ZM149.008 31.126C148.299 31.126 147.669 30.9767 147.118 30.678C146.577 30.37 146.152 29.9453 145.844 29.404C145.546 28.8533 145.396 28.2187 145.396 27.5C145.396 26.7627 145.546 26.114 145.844 25.554C146.152 24.9847 146.577 24.5413 147.118 24.224C147.66 23.8973 148.29 23.734 149.008 23.734C149.708 23.734 150.32 23.888 150.842 24.196C151.365 24.504 151.771 24.9193 152.06 25.442C152.35 25.9647 152.494 26.5573 152.494 27.22C152.494 27.3133 152.494 27.4207 152.494 27.542C152.494 27.654 152.485 27.7707 152.466 27.892H146.74V26.744H150.59C150.562 26.2867 150.399 25.9273 150.1 25.666C149.811 25.4047 149.447 25.274 149.008 25.274C148.691 25.274 148.397 25.3487 148.126 25.498C147.856 25.638 147.641 25.8573 147.482 26.156C147.333 26.4547 147.258 26.8327 147.258 27.29V27.696C147.258 28.0787 147.328 28.4147 147.468 28.704C147.618 28.984 147.823 29.2033 148.084 29.362C148.346 29.5113 148.649 29.586 148.994 29.586C149.34 29.586 149.624 29.5113 149.848 29.362C150.082 29.2127 150.254 29.0213 150.366 28.788H152.298C152.168 29.2267 151.948 29.6233 151.64 29.978C151.332 30.3327 150.954 30.6127 150.506 30.818C150.058 31.0233 149.559 31.126 149.008 31.126ZM154.042 30.958V23.902H155.708L155.848 25.05C156.063 24.658 156.366 24.3407 156.758 24.098C157.159 23.8553 157.635 23.734 158.186 23.734C158.774 23.734 159.269 23.8553 159.67 24.098C160.071 24.3407 160.375 24.6953 160.58 25.162C160.795 25.6287 160.902 26.2027 160.902 26.884V30.958H159.026V27.066C159.026 26.506 158.905 26.0767 158.662 25.778C158.429 25.4793 158.065 25.33 157.57 25.33C157.253 25.33 156.968 25.4047 156.716 25.554C156.473 25.7033 156.282 25.918 156.142 26.198C156.002 26.4687 155.932 26.8 155.932 27.192V30.958H154.042ZM166.099 31.126C165.389 31.126 164.759 30.9673 164.209 30.65C163.658 30.3327 163.229 29.8987 162.921 29.348C162.613 28.7973 162.459 28.1673 162.459 27.458C162.459 26.73 162.613 26.0907 162.921 25.54C163.229 24.98 163.658 24.5413 164.209 24.224C164.759 23.8973 165.389 23.734 166.099 23.734C167.004 23.734 167.765 23.972 168.381 24.448C168.997 24.924 169.389 25.5773 169.557 26.408H167.555C167.471 26.0813 167.293 25.8247 167.023 25.638C166.761 25.4513 166.449 25.358 166.085 25.358C165.758 25.358 165.464 25.442 165.203 25.61C164.951 25.7687 164.75 26.0067 164.601 26.324C164.461 26.632 164.391 27.0007 164.391 27.43C164.391 27.7567 164.433 28.0507 164.517 28.312C164.601 28.564 164.717 28.7833 164.867 28.97C165.016 29.1473 165.193 29.2827 165.399 29.376C165.613 29.4693 165.842 29.516 166.085 29.516C166.327 29.516 166.547 29.474 166.743 29.39C166.948 29.306 167.121 29.1893 167.261 29.04C167.401 28.8813 167.499 28.69 167.555 28.466H169.557C169.389 29.278 168.992 29.9267 168.367 30.412C167.751 30.888 166.995 31.126 166.099 31.126ZM172.083 34.038L173.791 30.174H173.371L170.543 23.902H172.601L174.617 28.452L176.437 23.902H178.439L174.085 34.038H172.083Z" fill="white"/>
<path d="M307.076 30.458V22.058H308.276V29.51H312.116V30.458H307.076ZM315.466 30.602C314.97 30.602 314.558 30.518 314.23 30.35C313.902 30.182 313.658 29.958 313.498 29.678C313.338 29.39 313.258 29.082 313.258 28.754C313.258 28.354 313.362 28.014 313.57 27.734C313.778 27.446 314.074 27.226 314.458 27.074C314.842 26.922 315.302 26.846 315.838 26.846H317.41C317.41 26.494 317.358 26.202 317.254 25.97C317.15 25.738 316.994 25.566 316.786 25.454C316.586 25.334 316.33 25.274 316.018 25.274C315.658 25.274 315.35 25.362 315.094 25.538C314.838 25.706 314.678 25.958 314.614 26.294H313.414C313.462 25.87 313.606 25.51 313.846 25.214C314.094 24.91 314.41 24.678 314.794 24.518C315.178 24.35 315.586 24.266 316.018 24.266C316.586 24.266 317.062 24.366 317.446 24.566C317.83 24.766 318.118 25.05 318.31 25.418C318.51 25.778 318.61 26.21 318.61 26.714V30.458H317.566L317.47 29.438C317.382 29.598 317.278 29.75 317.158 29.894C317.038 30.038 316.894 30.162 316.726 30.266C316.566 30.37 316.378 30.45 316.162 30.506C315.954 30.57 315.722 30.602 315.466 30.602ZM315.694 29.63C315.95 29.63 316.182 29.578 316.39 29.474C316.598 29.37 316.774 29.23 316.918 29.054C317.07 28.87 317.182 28.666 317.254 28.442C317.334 28.21 317.378 27.974 317.386 27.734V27.698H315.958C315.614 27.698 315.334 27.742 315.118 27.83C314.91 27.91 314.758 28.022 314.662 28.166C314.566 28.31 314.518 28.478 314.518 28.67C314.518 28.87 314.562 29.042 314.65 29.186C314.746 29.322 314.882 29.43 315.058 29.51C315.234 29.59 315.446 29.63 315.694 29.63ZM322.481 30.602C321.969 30.602 321.521 30.518 321.137 30.35C320.753 30.182 320.449 29.946 320.225 29.642C320.001 29.338 319.865 28.982 319.817 28.574H321.041C321.081 28.766 321.157 28.942 321.269 29.102C321.389 29.262 321.549 29.39 321.749 29.486C321.957 29.582 322.201 29.63 322.481 29.63C322.745 29.63 322.961 29.594 323.129 29.522C323.305 29.442 323.433 29.338 323.513 29.21C323.593 29.074 323.633 28.93 323.633 28.778C323.633 28.554 323.577 28.386 323.465 28.274C323.361 28.154 323.201 28.062 322.985 27.998C322.777 27.926 322.525 27.862 322.229 27.806C321.949 27.758 321.677 27.694 321.413 27.614C321.157 27.526 320.925 27.418 320.717 27.29C320.517 27.162 320.357 27.002 320.237 26.81C320.117 26.61 320.057 26.366 320.057 26.078C320.057 25.734 320.149 25.426 320.333 25.154C320.517 24.874 320.777 24.658 321.113 24.506C321.457 24.346 321.861 24.266 322.325 24.266C322.997 24.266 323.537 24.426 323.945 24.746C324.353 25.066 324.593 25.518 324.665 26.102H323.501C323.469 25.83 323.349 25.622 323.141 25.478C322.933 25.326 322.657 25.25 322.313 25.25C321.969 25.25 321.705 25.318 321.521 25.454C321.337 25.59 321.245 25.77 321.245 25.994C321.245 26.138 321.297 26.266 321.401 26.378C321.505 26.49 321.657 26.586 321.857 26.666C322.065 26.738 322.317 26.806 322.613 26.87C323.037 26.95 323.417 27.05 323.753 27.17C324.089 27.29 324.357 27.466 324.557 27.698C324.757 27.93 324.857 28.262 324.857 28.694C324.865 29.07 324.769 29.402 324.569 29.69C324.377 29.978 324.101 30.202 323.741 30.362C323.389 30.522 322.969 30.602 322.481 30.602ZM328.52 30.458C328.136 30.458 327.804 30.398 327.524 30.278C327.244 30.158 327.028 29.958 326.876 29.678C326.724 29.398 326.648 29.018 326.648 28.538V25.43H325.604V24.41H326.648L326.792 22.898H327.848V24.41H329.564V25.43H327.848V28.55C327.848 28.894 327.92 29.13 328.064 29.258C328.208 29.378 328.456 29.438 328.808 29.438H329.504V30.458H328.52ZM334.702 30.458L337.906 23.09H333.466V22.058H339.142V22.934L335.95 30.458H334.702ZM343.51 30.458V22.058H346.09C347.066 22.058 347.874 22.23 348.514 22.574C349.154 22.918 349.626 23.406 349.93 24.038C350.242 24.662 350.398 25.406 350.398 26.27C350.398 27.134 350.242 27.878 349.93 28.502C349.626 29.126 349.154 29.61 348.514 29.954C347.882 30.29 347.074 30.458 346.09 30.458H343.51ZM344.71 29.45H346.042C346.818 29.45 347.434 29.322 347.89 29.066C348.346 28.81 348.67 28.446 348.862 27.974C349.062 27.494 349.162 26.926 349.162 26.27C349.162 25.606 349.062 25.034 348.862 24.554C348.67 24.074 348.346 23.706 347.89 23.45C347.434 23.194 346.818 23.066 346.042 23.066H344.71V29.45ZM353.786 30.602C353.29 30.602 352.878 30.518 352.55 30.35C352.222 30.182 351.978 29.958 351.818 29.678C351.658 29.39 351.578 29.082 351.578 28.754C351.578 28.354 351.682 28.014 351.89 27.734C352.098 27.446 352.394 27.226 352.778 27.074C353.162 26.922 353.622 26.846 354.158 26.846H355.73C355.73 26.494 355.678 26.202 355.574 25.97C355.47 25.738 355.314 25.566 355.106 25.454C354.906 25.334 354.65 25.274 354.338 25.274C353.978 25.274 353.67 25.362 353.414 25.538C353.158 25.706 352.998 25.958 352.934 26.294H351.734C351.782 25.87 351.926 25.51 352.166 25.214C352.414 24.91 352.73 24.678 353.114 24.518C353.498 24.35 353.906 24.266 354.338 24.266C354.906 24.266 355.382 24.366 355.766 24.566C356.15 24.766 356.438 25.05 356.63 25.418C356.83 25.778 356.93 26.21 356.93 26.714V30.458H355.886L355.79 29.438C355.702 29.598 355.598 29.75 355.478 29.894C355.358 30.038 355.214 30.162 355.046 30.266C354.886 30.37 354.698 30.45 354.482 30.506C354.274 30.57 354.042 30.602 353.786 30.602ZM354.014 29.63C354.27 29.63 354.502 29.578 354.71 29.474C354.918 29.37 355.094 29.23 355.238 29.054C355.39 28.87 355.502 28.666 355.574 28.442C355.654 28.21 355.698 27.974 355.706 27.734V27.698H354.278C353.934 27.698 353.654 27.742 353.438 27.83C353.23 27.91 353.078 28.022 352.982 28.166C352.886 28.31 352.838 28.478 352.838 28.67C352.838 28.87 352.882 29.042 352.97 29.186C353.066 29.322 353.202 29.43 353.378 29.51C353.554 29.59 353.766 29.63 354.014 29.63ZM358.97 33.098L360.446 29.786H360.098L357.71 24.41H359.006L360.902 28.802L362.81 24.41H364.07L360.23 33.098H358.97ZM367.142 30.602C366.63 30.602 366.182 30.518 365.798 30.35C365.414 30.182 365.11 29.946 364.886 29.642C364.662 29.338 364.526 28.982 364.478 28.574H365.702C365.742 28.766 365.818 28.942 365.93 29.102C366.05 29.262 366.21 29.39 366.41 29.486C366.618 29.582 366.862 29.63 367.142 29.63C367.406 29.63 367.622 29.594 367.79 29.522C367.966 29.442 368.094 29.338 368.174 29.21C368.254 29.074 368.294 28.93 368.294 28.778C368.294 28.554 368.238 28.386 368.126 28.274C368.022 28.154 367.862 28.062 367.646 27.998C367.438 27.926 367.186 27.862 366.89 27.806C366.61 27.758 366.338 27.694 366.074 27.614C365.818 27.526 365.586 27.418 365.378 27.29C365.178 27.162 365.018 27.002 364.898 26.81C364.778 26.61 364.718 26.366 364.718 26.078C364.718 25.734 364.81 25.426 364.994 25.154C365.178 24.874 365.438 24.658 365.774 24.506C366.118 24.346 366.522 24.266 366.986 24.266C367.658 24.266 368.198 24.426 368.606 24.746C369.014 25.066 369.254 25.518 369.326 26.102H368.162C368.13 25.83 368.01 25.622 367.802 25.478C367.594 25.326 367.318 25.25 366.974 25.25C366.63 25.25 366.366 25.318 366.182 25.454C365.998 25.59 365.906 25.77 365.906 25.994C365.906 26.138 365.958 26.266 366.062 26.378C366.166 26.49 366.318 26.586 366.518 26.666C366.726 26.738 366.978 26.806 367.274 26.87C367.698 26.95 368.078 27.05 368.414 27.17C368.75 27.29 369.018 27.466 369.218 27.698C369.418 27.93 369.518 28.262 369.518 28.694C369.526 29.07 369.43 29.402 369.23 29.69C369.038 29.978 368.762 30.202 368.402 30.362C368.05 30.522 367.63 30.602 367.142 30.602ZM373.521 30.458L376.605 22.058H377.913L380.997 30.458H379.713L377.253 23.498L374.781 30.458H373.521ZM374.913 28.382L375.249 27.422H379.197L379.533 28.382H374.913ZM383.217 30.458L380.949 24.41H382.209L383.925 29.306L385.653 24.41H386.889L384.633 30.458H383.217ZM390.413 30.602C389.837 30.602 389.325 30.47 388.877 30.206C388.429 29.942 388.077 29.574 387.821 29.102C387.573 28.63 387.449 28.082 387.449 27.458C387.449 26.818 387.573 26.262 387.821 25.79C388.077 25.31 388.429 24.938 388.877 24.674C389.325 24.402 389.845 24.266 390.437 24.266C391.029 24.266 391.537 24.398 391.961 24.662C392.385 24.926 392.713 25.278 392.945 25.718C393.177 26.15 393.293 26.63 393.293 27.158C393.293 27.238 393.289 27.326 393.281 27.422C393.281 27.51 393.277 27.61 393.269 27.722H388.325V26.87H392.093C392.069 26.366 391.901 25.974 391.589 25.694C391.277 25.406 390.889 25.262 390.425 25.262C390.097 25.262 389.797 25.338 389.525 25.49C389.253 25.634 389.033 25.85 388.865 26.138C388.705 26.418 388.625 26.774 388.625 27.206V27.542C388.625 27.99 388.705 28.37 388.865 28.682C389.033 28.986 389.253 29.218 389.525 29.378C389.797 29.53 390.093 29.606 390.413 29.606C390.797 29.606 391.113 29.522 391.361 29.354C391.609 29.186 391.793 28.958 391.913 28.67H393.113C393.009 29.038 392.833 29.37 392.585 29.666C392.337 29.954 392.029 30.182 391.661 30.35C391.301 30.518 390.885 30.602 390.413 30.602ZM394.626 30.458V24.41H395.706L395.814 25.55C395.95 25.278 396.126 25.05 396.342 24.866C396.558 24.674 396.81 24.526 397.098 24.422C397.394 24.318 397.73 24.266 398.106 24.266V25.538H397.674C397.426 25.538 397.19 25.57 396.966 25.634C396.742 25.69 396.542 25.79 396.366 25.934C396.198 26.078 396.066 26.274 395.97 26.522C395.874 26.77 395.826 27.078 395.826 27.446V30.458H394.626ZM401.212 30.602C400.716 30.602 400.304 30.518 399.976 30.35C399.648 30.182 399.404 29.958 399.244 29.678C399.084 29.39 399.004 29.082 399.004 28.754C399.004 28.354 399.108 28.014 399.316 27.734C399.524 27.446 399.82 27.226 400.204 27.074C400.588 26.922 401.048 26.846 401.584 26.846H403.156C403.156 26.494 403.104 26.202 403 25.97C402.896 25.738 402.74 25.566 402.532 25.454C402.332 25.334 402.076 25.274 401.764 25.274C401.404 25.274 401.096 25.362 400.84 25.538C400.584 25.706 400.424 25.958 400.36 26.294H399.16C399.208 25.87 399.352 25.51 399.592 25.214C399.84 24.91 400.156 24.678 400.54 24.518C400.924 24.35 401.332 24.266 401.764 24.266C402.332 24.266 402.808 24.366 403.192 24.566C403.576 24.766 403.864 25.05 404.056 25.418C404.256 25.778 404.356 26.21 404.356 26.714V30.458H403.312L403.216 29.438C403.128 29.598 403.024 29.75 402.904 29.894C402.784 30.038 402.64 30.162 402.472 30.266C402.312 30.37 402.124 30.45 401.908 30.506C401.7 30.57 401.468 30.602 401.212 30.602ZM401.44 29.63C401.696 29.63 401.928 29.578 402.136 29.474C402.344 29.37 402.52 29.23 402.664 29.054C402.816 28.87 402.928 28.666 403 28.442C403.08 28.21 403.124 27.974 403.132 27.734V27.698H401.704C401.36 27.698 401.08 27.742 400.864 27.83C400.656 27.91 400.504 28.022 400.408 28.166C400.312 28.31 400.264 28.478 400.264 28.67C400.264 28.87 400.308 29.042 400.396 29.186C400.492 29.322 400.628 29.43 400.804 29.51C400.98 29.59 401.192 29.63 401.44 29.63ZM408.348 33.242C407.796 33.242 407.308 33.17 406.884 33.026C406.46 32.89 406.132 32.678 405.9 32.39C405.668 32.102 405.552 31.75 405.552 31.334C405.552 31.118 405.6 30.898 405.696 30.674C405.792 30.458 405.948 30.25 406.164 30.05C406.38 29.85 406.672 29.67 407.04 29.51L407.712 30.05C407.304 30.202 407.028 30.382 406.884 30.59C406.748 30.806 406.68 31.014 406.68 31.214C406.68 31.454 406.752 31.654 406.896 31.814C407.04 31.974 407.236 32.094 407.484 32.174C407.74 32.254 408.028 32.294 408.348 32.294C408.66 32.294 408.932 32.25 409.164 32.162C409.396 32.074 409.576 31.95 409.704 31.79C409.832 31.63 409.896 31.442 409.896 31.226C409.896 30.97 409.8 30.754 409.608 30.578C409.416 30.41 409.048 30.31 408.504 30.278C408.048 30.246 407.66 30.202 407.34 30.146C407.028 30.09 406.76 30.022 406.536 29.942C406.32 29.862 406.136 29.774 405.984 29.678C405.84 29.582 405.716 29.482 405.612 29.378V29.102L406.812 27.866L407.784 28.202L406.476 29.414L406.728 28.874C406.816 28.93 406.9 28.986 406.98 29.042C407.06 29.09 407.168 29.134 407.304 29.174C407.44 29.214 407.624 29.25 407.856 29.282C408.088 29.314 408.392 29.346 408.768 29.378C409.312 29.418 409.748 29.514 410.076 29.666C410.412 29.818 410.656 30.022 410.808 30.278C410.96 30.534 411.036 30.838 411.036 31.19C411.036 31.534 410.94 31.862 410.748 32.174C410.564 32.486 410.272 32.742 409.872 32.942C409.48 33.142 408.972 33.242 408.348 33.242ZM408.348 28.598C407.836 28.598 407.4 28.502 407.04 28.31C406.688 28.118 406.416 27.858 406.224 27.53C406.04 27.202 405.948 26.838 405.948 26.438C405.948 26.03 406.04 25.666 406.224 25.346C406.416 25.018 406.692 24.758 407.052 24.566C407.412 24.366 407.844 24.266 408.348 24.266C408.852 24.266 409.28 24.366 409.632 24.566C409.992 24.758 410.264 25.018 410.448 25.346C410.64 25.666 410.736 26.03 410.736 26.438C410.736 26.838 410.64 27.202 410.448 27.53C410.264 27.858 409.992 28.118 409.632 28.31C409.28 28.502 408.852 28.598 408.348 28.598ZM408.348 27.638C408.74 27.638 409.052 27.538 409.284 27.338C409.516 27.13 409.632 26.83 409.632 26.438C409.632 26.046 409.516 25.75 409.284 25.55C409.052 25.342 408.74 25.238 408.348 25.238C407.956 25.238 407.64 25.342 407.4 25.55C407.16 25.75 407.04 26.046 407.04 26.438C407.04 26.83 407.16 27.13 407.4 27.338C407.64 27.538 407.956 27.638 408.348 27.638ZM409.332 25.358L409.044 24.41H411.528V25.238L409.332 25.358ZM415.233 30.602C414.657 30.602 414.145 30.47 413.697 30.206C413.249 29.942 412.897 29.574 412.641 29.102C412.393 28.63 412.269 28.082 412.269 27.458C412.269 26.818 412.393 26.262 412.641 25.79C412.897 25.31 413.249 24.938 413.697 24.674C414.145 24.402 414.665 24.266 415.257 24.266C415.849 24.266 416.357 24.398 416.781 24.662C417.205 24.926 417.533 25.278 417.765 25.718C417.997 26.15 418.113 26.63 418.113 27.158C418.113 27.238 418.109 27.326 418.101 27.422C418.101 27.51 418.097 27.61 418.089 27.722H413.145V26.87H416.913C416.889 26.366 416.721 25.974 416.409 25.694C416.097 25.406 415.709 25.262 415.245 25.262C414.917 25.262 414.617 25.338 414.345 25.49C414.073 25.634 413.853 25.85 413.685 26.138C413.525 26.418 413.445 26.774 413.445 27.206V27.542C413.445 27.99 413.525 28.37 413.685 28.682C413.853 28.986 414.073 29.218 414.345 29.378C414.617 29.53 414.913 29.606 415.233 29.606C415.617 29.606 415.933 29.522 416.181 29.354C416.429 29.186 416.613 28.958 416.733 28.67H417.933C417.829 29.038 417.653 29.37 417.405 29.666C417.157 29.954 416.849 30.182 416.481 30.35C416.121 30.518 415.705 30.602 415.233 30.602Z" fill="white"/>
<rect x="17.958" y="51.916" width="191.645" height="92.0679" rx="13.4685" fill="white"/>
<path d="M32.1364 73.3843V66.3843H34.6564C35.2164 66.3843 35.6798 66.4809 36.0464 66.6743C36.4131 66.8609 36.6864 67.1143 36.8664 67.4343C37.0464 67.7543 37.1364 68.1209 37.1364 68.5343C37.1364 68.9209 37.0498 69.2776 36.8764 69.6043C36.7031 69.9243 36.4331 70.1843 36.0664 70.3843C35.6998 70.5776 35.2298 70.6743 34.6564 70.6743H33.3364V73.3843H32.1364ZM33.3364 69.6943H34.5864C35.0598 69.6943 35.3998 69.5909 35.6064 69.3843C35.8131 69.1709 35.9164 68.8876 35.9164 68.5343C35.9164 68.1676 35.8131 67.8809 35.6064 67.6743C35.3998 67.4676 35.0598 67.3643 34.5864 67.3643H33.3364V69.6943ZM38.845 73.3843V66.3843H41.355C41.9083 66.3843 42.365 66.4809 42.725 66.6743C43.0917 66.8609 43.3617 67.1143 43.535 67.4343C43.715 67.7476 43.805 68.1043 43.805 68.5043C43.805 68.8776 43.7183 69.2243 43.545 69.5443C43.3717 69.8643 43.1017 70.1209 42.735 70.3143C42.3683 70.5076 41.8983 70.6043 41.325 70.6043H40.045V73.3843H38.845ZM42.495 73.3843L41.025 70.2943H42.325L43.865 73.3843H42.495ZM40.045 69.7143H41.275C41.7217 69.7143 42.0483 69.6076 42.255 69.3943C42.4683 69.1743 42.575 68.8876 42.575 68.5343C42.575 68.1876 42.4717 67.9109 42.265 67.7043C42.0583 67.4909 41.7283 67.3843 41.275 67.3843H40.045V69.7143ZM45.7196 73.3843V66.3843H50.2396V67.3543H46.9196V69.3643H49.9396V70.3143H46.9196V72.4143H50.2396V73.3843H45.7196ZM52.2143 70.9343V69.9343H56.3543V70.9343H52.2143ZM58.502 73.3843V66.3843H63.022V67.3543H59.702V69.3643H62.722V70.3143H59.702V72.4143H63.022V73.3843H58.502ZM64.5967 73.3843L66.7767 69.8443L64.5767 66.3843H65.9567L67.5467 68.8943L69.0167 66.3843H70.3767L68.1967 69.8943L70.4167 73.3843H69.0367L67.4267 70.8443L65.9567 73.3843H64.5967ZM72.134 73.3843V66.3843H76.654V67.3543H73.334V69.3643H76.354V70.3143H73.334V72.4143H76.654V73.3843H72.134ZM78.5887 73.3843V66.3843H81.0987C81.652 66.3843 82.1087 66.4809 82.4687 66.6743C82.8353 66.8609 83.1053 67.1143 83.2787 67.4343C83.4587 67.7476 83.5487 68.1043 83.5487 68.5043C83.5487 68.8776 83.462 69.2243 83.2887 69.5443C83.1153 69.8643 82.8453 70.1209 82.4787 70.3143C82.112 70.5076 81.642 70.6043 81.0687 70.6043H79.7887V73.3843H78.5887ZM82.2387 73.3843L80.7687 70.2943H82.0687L83.6087 73.3843H82.2387ZM79.7887 69.7143H81.0187C81.4653 69.7143 81.792 69.6076 81.9987 69.3943C82.212 69.1743 82.3187 68.8876 82.3187 68.5343C82.3187 68.1876 82.2153 67.9109 82.0087 67.7043C81.802 67.4909 81.472 67.3843 81.0187 67.3843H79.7887V69.7143ZM88.5733 73.5043C87.8799 73.5043 87.2799 73.3543 86.7733 73.0543C86.2733 72.7476 85.8866 72.3243 85.6133 71.7843C85.3466 71.2376 85.2133 70.6076 85.2133 69.8943C85.2133 69.1743 85.3466 68.5443 85.6133 68.0043C85.8866 67.4576 86.2733 67.0309 86.7733 66.7243C87.2799 66.4176 87.8799 66.2643 88.5733 66.2643C89.4066 66.2643 90.0866 66.4709 90.6133 66.8843C91.1399 67.2909 91.4733 67.8676 91.6133 68.6143H90.2933C90.1999 68.2209 90.0099 67.9109 89.7233 67.6843C89.4366 67.4576 89.0499 67.3443 88.5633 67.3443C88.1233 67.3443 87.7433 67.4476 87.4233 67.6543C87.1099 67.8543 86.8666 68.1476 86.6933 68.5343C86.5266 68.9143 86.4433 69.3676 86.4433 69.8943C86.4433 70.4209 86.5266 70.8743 86.6933 71.2543C86.8666 71.6276 87.1099 71.9176 87.4233 72.1243C87.7433 72.3243 88.1233 72.4243 88.5633 72.4243C89.0499 72.4243 89.4366 72.3209 89.7233 72.1143C90.0099 71.9009 90.1999 71.6076 90.2933 71.2343H91.6133C91.4799 71.9409 91.1466 72.4976 90.6133 72.9043C90.0866 73.3043 89.4066 73.5043 88.5733 73.5043ZM93.4609 73.3843V66.3843H94.6609V73.3843H93.4609ZM99.0918 73.5043C98.5851 73.5043 98.1351 73.4143 97.7418 73.2343C97.3484 73.0543 97.0418 72.7976 96.8218 72.4643C96.6018 72.1309 96.4884 71.7343 96.4818 71.2743H97.7518C97.7518 71.5076 97.8051 71.7176 97.9118 71.9043C98.0251 72.0843 98.1784 72.2276 98.3718 72.3343C98.5718 72.4409 98.8118 72.4943 99.0918 72.4943C99.3318 72.4943 99.5384 72.4576 99.7118 72.3843C99.8918 72.3043 100.028 72.1943 100.122 72.0543C100.222 71.9076 100.272 71.7376 100.272 71.5443C100.272 71.3243 100.218 71.1443 100.112 71.0043C100.012 70.8576 99.8718 70.7343 99.6918 70.6343C99.5118 70.5343 99.3051 70.4476 99.0718 70.3743C98.8384 70.2943 98.5918 70.2109 98.3318 70.1243C97.7784 69.9376 97.3618 69.7009 97.0818 69.4143C96.8018 69.1209 96.6618 68.7309 96.6618 68.2443C96.6618 67.8376 96.7584 67.4876 96.9518 67.1943C97.1451 66.9009 97.4151 66.6743 97.7618 66.5143C98.1151 66.3476 98.5218 66.2643 98.9818 66.2643C99.4484 66.2643 99.8551 66.3476 100.202 66.5143C100.555 66.6809 100.832 66.9143 101.032 67.2143C101.238 67.5076 101.345 67.8609 101.352 68.2743H100.072C100.065 68.1009 100.018 67.9409 99.9318 67.7943C99.8451 67.6409 99.7184 67.5176 99.5518 67.4243C99.3918 67.3243 99.1951 67.2743 98.9618 67.2743C98.7618 67.2676 98.5818 67.3009 98.4218 67.3743C98.2684 67.4409 98.1451 67.5409 98.0518 67.6743C97.9651 67.8009 97.9218 67.9609 97.9218 68.1543C97.9218 68.3409 97.9618 68.4976 98.0418 68.6243C98.1284 68.7443 98.2518 68.8476 98.4118 68.9343C98.5718 69.0143 98.7584 69.0909 98.9718 69.1643C99.1851 69.2376 99.4184 69.3176 99.6718 69.4043C100.018 69.5176 100.332 69.6576 100.612 69.8243C100.898 69.9843 101.125 70.1943 101.292 70.4543C101.458 70.7143 101.542 71.0509 101.542 71.4643C101.542 71.8243 101.448 72.1609 101.262 72.4743C101.075 72.7809 100.802 73.0309 100.442 73.2243C100.082 73.4109 99.6318 73.5043 99.0918 73.5043ZM103.382 73.3843V66.3843H107.902V67.3543H104.582V69.3643H107.602V70.3143H104.582V72.4143H107.902V73.3843H103.382Z" fill="#707973"/>
<path d="M34.5264 96.5933V85.6933L32.0464 86.3533V84.1933L35.6864 82.5933H37.3264V96.5933H34.5264ZM41.8116 96.5933V85.6933L39.3316 86.3533V84.1933L42.9716 82.5933H44.6116V96.5933H41.8116ZM52.3167 96.8333C51.3701 96.8333 50.5034 96.6599 49.7167 96.3133C48.9434 95.9666 48.3301 95.4799 47.8767 94.8533C47.4234 94.2266 47.1967 93.4999 47.1967 92.6733C47.1967 92.0999 47.2901 91.5799 47.4767 91.1133C47.6767 90.6466 47.9501 90.2333 48.2967 89.8733C48.6434 89.5133 49.0567 89.2399 49.5367 89.0533C48.9367 88.7733 48.4501 88.3733 48.0767 87.8533C47.7167 87.3333 47.5367 86.7466 47.5367 86.0933C47.5367 85.4399 47.7167 84.8266 48.0767 84.2533C48.4367 83.6799 48.9701 83.2199 49.6767 82.8733C50.3834 82.5266 51.2634 82.3533 52.3167 82.3533C53.3701 82.3533 54.2501 82.5266 54.9567 82.8733C55.6634 83.2199 56.1967 83.6799 56.5567 84.2533C56.9167 84.8266 57.0967 85.4399 57.0967 86.0933C57.0967 86.7333 56.9101 87.3199 56.5367 87.8533C56.1767 88.3733 55.6967 88.7733 55.0967 89.0533C55.5767 89.2533 55.9901 89.5333 56.3367 89.8933C56.6967 90.2399 56.9701 90.6466 57.1567 91.1133C57.3567 91.5799 57.4567 92.0999 57.4567 92.6733C57.4567 93.4999 57.2234 94.2266 56.7567 94.8533C56.3034 95.4799 55.6901 95.9666 54.9167 96.3133C54.1434 96.6599 53.2767 96.8333 52.3167 96.8333ZM52.3167 94.5733C53.1434 94.5733 53.7634 94.3733 54.1767 93.9733C54.5901 93.5733 54.7967 93.0666 54.7967 92.4533C54.7967 91.7733 54.5767 91.2399 54.1367 90.8533C53.7101 90.4533 53.1034 90.2533 52.3167 90.2533C51.5434 90.2533 50.9301 90.4533 50.4767 90.8533C50.0367 91.2399 49.8167 91.7733 49.8167 92.4533C49.8167 93.0666 50.0301 93.5733 50.4567 93.9733C50.8834 94.3733 51.5034 94.5733 52.3167 94.5733ZM52.3167 88.2733C52.9967 88.2733 53.5167 88.0999 53.8767 87.7533C54.2501 87.4066 54.4367 86.9599 54.4367 86.4133C54.4367 85.8266 54.2501 85.3733 53.8767 85.0533C53.5167 84.7199 52.9967 84.5533 52.3167 84.5533C51.6501 84.5533 51.1301 84.7199 50.7567 85.0533C50.3834 85.3733 50.1967 85.8333 50.1967 86.4333C50.1967 86.9666 50.3834 87.4066 50.7567 87.7533C51.1301 88.0999 51.6501 88.2733 52.3167 88.2733Z" fill="#1A1C1A"/>
<path d="M64.6159 96.5933V91.5533H65.3759L65.4259 92.2733C65.5859 92.0133 65.7993 91.8099 66.0659 91.6633C66.3393 91.5099 66.6359 91.4333 66.9559 91.4333C67.2159 91.4333 67.4493 91.4699 67.6559 91.5433C67.8693 91.6099 68.0559 91.7166 68.2159 91.8633C68.3759 92.0033 68.5059 92.1833 68.6059 92.4033C68.7793 92.0966 69.0159 91.8599 69.3159 91.6933C69.6226 91.5199 69.9493 91.4333 70.2959 91.4333C70.6826 91.4333 71.0193 91.5133 71.3059 91.6733C71.5993 91.8266 71.8226 92.0633 71.9759 92.3833C72.1359 92.6966 72.2159 93.0966 72.2159 93.5833V96.5933H71.3859V93.6733C71.3859 93.1666 71.2826 92.7866 71.0759 92.5333C70.8693 92.2799 70.5793 92.1533 70.2059 92.1533C69.9459 92.1533 69.7126 92.2233 69.5059 92.3633C69.2993 92.4966 69.1359 92.6933 69.0159 92.9533C68.8959 93.2133 68.8359 93.5333 68.8359 93.9133V96.5933H67.9959V93.6733C67.9959 93.1666 67.8926 92.7866 67.6859 92.5333C67.4793 92.2799 67.1859 92.1533 66.8059 92.1533C66.5526 92.1533 66.3226 92.2233 66.1159 92.3633C65.9159 92.4966 65.7559 92.6933 65.6359 92.9533C65.5159 93.2133 65.4559 93.5333 65.4559 93.9133V96.5933H64.6159ZM75.5122 98.9133C75.0588 98.9133 74.6555 98.8533 74.3022 98.7333C73.9555 98.6199 73.6855 98.4433 73.4922 98.2033C73.2988 97.9633 73.2022 97.6666 73.2022 97.3133C73.2022 97.1599 73.2322 96.9966 73.2922 96.8233C73.3588 96.6499 73.4688 96.4799 73.6222 96.3133C73.7822 96.1466 74.0055 95.9966 74.2922 95.8633L74.8722 96.2033C74.5188 96.3499 74.2888 96.5166 74.1822 96.7033C74.0755 96.8966 74.0222 97.0733 74.0222 97.2333C74.0222 97.4533 74.0855 97.6366 74.2122 97.7833C74.3388 97.9299 74.5155 98.0399 74.7422 98.1133C74.9688 98.1866 75.2255 98.2233 75.5122 98.2233C75.7988 98.2233 76.0455 98.1833 76.2522 98.1033C76.4588 98.0233 76.6188 97.9099 76.7322 97.7633C76.8455 97.6166 76.9022 97.4433 76.9022 97.2433C76.9022 97.0099 76.8155 96.8133 76.6422 96.6533C76.4688 96.4999 76.1388 96.4099 75.6522 96.3833C75.2588 96.3566 74.9288 96.3199 74.6622 96.2733C74.3955 96.2266 74.1755 96.1733 74.0022 96.1133C73.8288 96.0466 73.6822 95.9733 73.5622 95.8933C73.4488 95.8133 73.3455 95.7299 73.2522 95.6433V95.4133L74.2222 94.4533L74.9522 94.7133L73.9522 95.6133L74.0822 95.2633C74.1555 95.3166 74.2255 95.3666 74.2922 95.4133C74.3588 95.4599 74.4488 95.4999 74.5622 95.5333C74.6755 95.5666 74.8322 95.5966 75.0322 95.6233C75.2388 95.6499 75.5088 95.6766 75.8422 95.7033C76.3022 95.7366 76.6688 95.8166 76.9422 95.9433C77.2222 96.0699 77.4222 96.2399 77.5422 96.4533C77.6688 96.6666 77.7322 96.9199 77.7322 97.2133C77.7322 97.4999 77.6522 97.7699 77.4922 98.0233C77.3388 98.2833 77.0988 98.4966 76.7722 98.6633C76.4455 98.8299 76.0255 98.9133 75.5122 98.9133ZM75.5022 95.0133C75.0822 95.0133 74.7222 94.9333 74.4222 94.7733C74.1288 94.6133 73.9055 94.3999 73.7522 94.1333C73.5988 93.8599 73.5222 93.5566 73.5222 93.2233C73.5222 92.8899 73.5988 92.5899 73.7522 92.3233C73.9122 92.0566 74.1388 91.8433 74.4322 91.6833C74.7255 91.5166 75.0822 91.4333 75.5022 91.4333C75.9222 91.4333 76.2788 91.5166 76.5722 91.6833C76.8655 91.8433 77.0888 92.0566 77.2422 92.3233C77.3955 92.5899 77.4722 92.8899 77.4722 93.2233C77.4722 93.5566 77.3955 93.8599 77.2422 94.1333C77.0888 94.3999 76.8655 94.6133 76.5722 94.7733C76.2788 94.9333 75.9222 95.0133 75.5022 95.0133ZM75.5022 94.3233C75.8622 94.3233 76.1455 94.2299 76.3522 94.0433C76.5588 93.8566 76.6622 93.5833 76.6622 93.2233C76.6622 92.8699 76.5588 92.5999 76.3522 92.4133C76.1455 92.2266 75.8622 92.1333 75.5022 92.1333C75.1488 92.1333 74.8622 92.2266 74.6422 92.4133C74.4288 92.5999 74.3222 92.8699 74.3222 93.2233C74.3222 93.5833 74.4288 93.8566 74.6422 94.0433C74.8555 94.2299 75.1422 94.3233 75.5022 94.3233ZM76.3222 92.2633L76.0722 91.5533H78.1322V92.1833L76.3222 92.2633ZM78.6783 97.5433L81.1883 88.9533H82.0183L79.5083 97.5433H78.6783ZM84.7656 96.7133C84.2789 96.7133 83.8523 96.5999 83.4856 96.3733C83.1189 96.1399 82.8356 95.8233 82.6356 95.4233C82.4356 95.0233 82.3356 94.5699 82.3356 94.0633C82.3356 93.5566 82.4356 93.1066 82.6356 92.7133C82.8356 92.3133 83.1189 91.9999 83.4856 91.7733C83.8589 91.5466 84.2889 91.4333 84.7756 91.4333C85.1889 91.4333 85.5489 91.5166 85.8556 91.6833C86.1689 91.8499 86.4089 92.0833 86.5756 92.3833V89.3933H87.4156V96.5933H86.6556L86.5856 95.7633C86.4789 95.9299 86.3423 96.0866 86.1756 96.2333C86.0089 96.3733 85.8089 96.4899 85.5756 96.5833C85.3423 96.6699 85.0723 96.7133 84.7656 96.7133ZM84.8656 95.9833C85.1989 95.9833 85.4923 95.9033 85.7456 95.7433C85.9989 95.5833 86.1956 95.3633 86.3356 95.0833C86.4756 94.7966 86.5456 94.4599 86.5456 94.0733C86.5456 93.6933 86.4756 93.3599 86.3356 93.0733C86.1956 92.7866 85.9989 92.5633 85.7456 92.4033C85.4923 92.2433 85.1989 92.1633 84.8656 92.1633C84.5389 92.1633 84.2489 92.2433 83.9956 92.4033C83.7423 92.5633 83.5456 92.7866 83.4056 93.0733C83.2656 93.3599 83.1956 93.6933 83.1956 94.0733C83.1956 94.4599 83.2656 94.7966 83.4056 95.0833C83.5456 95.3633 83.7423 95.5833 83.9956 95.7433C84.2489 95.9033 84.5389 95.9833 84.8656 95.9833ZM88.8651 96.5933V89.5933H89.7051V95.9233H92.9651V96.5933H88.8651Z" fill="#404943"/>
<g clip-path="url(#clip0_1_234)">
<rect x="31.4264" y="110.572" width="164.708" height="4.48949" rx="2.24475" fill="#EFEEEB"/>
<rect x="31.4233" y="110.57" width="131.764" height="4.48949" fill="#6764E5"/>
</g>
<path d="M32.1264 128.087L31.4264 127.387L35.1264 123.662L37.1264 125.662L39.7264 123.087H38.4264V122.087H41.4264V125.087H40.4264V123.787L37.1264 127.087L35.1264 125.087L32.1264 128.087Z" fill="#BA1A1A"/>
<path d="M45.2883 127.271L47.8483 120.271H49.1883L51.7483 127.271H50.4783L48.5083 121.671L46.5383 127.271H45.2883ZM46.4283 125.621L46.7483 124.671H50.1983L50.5183 125.621H46.4283ZM55.5512 127.391C55.2845 127.391 55.0445 127.354 54.8312 127.281C54.6178 127.214 54.4312 127.121 54.2712 127.001C54.1112 126.874 53.9778 126.731 53.8712 126.571L53.7412 127.271H52.6712V120.071H53.8712V122.971C54.0312 122.724 54.2478 122.521 54.5212 122.361C54.7945 122.194 55.1345 122.111 55.5412 122.111C56.0145 122.111 56.4312 122.227 56.7912 122.461C57.1578 122.687 57.4445 123.001 57.6512 123.401C57.8645 123.794 57.9712 124.247 57.9712 124.761C57.9712 125.261 57.8678 125.711 57.6612 126.111C57.4545 126.511 57.1678 126.824 56.8012 127.051C56.4412 127.277 56.0245 127.391 55.5512 127.391ZM55.3012 126.351C55.5812 126.351 55.8312 126.284 56.0512 126.151C56.2712 126.011 56.4412 125.824 56.5612 125.591C56.6878 125.351 56.7512 125.071 56.7512 124.751C56.7512 124.437 56.6878 124.161 56.5612 123.921C56.4412 123.681 56.2712 123.494 56.0512 123.361C55.8312 123.227 55.5812 123.161 55.3012 123.161C55.0145 123.161 54.7612 123.227 54.5412 123.361C54.3278 123.494 54.1578 123.681 54.0312 123.921C53.9112 124.161 53.8512 124.437 53.8512 124.751C53.8512 125.071 53.9112 125.351 54.0312 125.591C54.1578 125.824 54.3278 126.011 54.5412 126.151C54.7612 126.284 55.0145 126.351 55.3012 126.351ZM61.486 127.391C61.006 127.391 60.5727 127.281 60.186 127.061C59.806 126.834 59.506 126.524 59.286 126.131C59.0727 125.731 58.966 125.274 58.966 124.761C58.966 124.234 59.076 123.774 59.296 123.381C59.516 122.981 59.816 122.671 60.196 122.451C60.5827 122.224 61.016 122.111 61.496 122.111C61.976 122.111 62.406 122.224 62.786 122.451C63.1727 122.671 63.4727 122.977 63.686 123.371C63.906 123.764 64.016 124.224 64.016 124.751C64.016 125.277 63.906 125.737 63.686 126.131C63.466 126.524 63.1627 126.834 62.776 127.061C62.396 127.281 61.966 127.391 61.486 127.391ZM61.486 126.361C61.726 126.361 61.9427 126.301 62.136 126.181C62.336 126.061 62.496 125.881 62.616 125.641C62.736 125.401 62.796 125.104 62.796 124.751C62.796 124.397 62.736 124.104 62.616 123.871C62.5027 123.631 62.346 123.451 62.146 123.331C61.9527 123.211 61.736 123.151 61.496 123.151C61.2627 123.151 61.046 123.211 60.846 123.331C60.646 123.451 60.486 123.631 60.366 123.871C60.246 124.104 60.186 124.397 60.186 124.751C60.186 125.104 60.246 125.401 60.366 125.641C60.486 125.881 60.6427 126.061 60.836 126.181C61.036 126.301 61.2527 126.361 61.486 126.361ZM66.3266 127.271L64.4666 122.231H65.7266L67.0566 126.131L68.3866 122.231H69.6266L67.7666 127.271H66.3266ZM72.5995 127.391C72.0995 127.391 71.6595 127.284 71.2795 127.071C70.8995 126.851 70.6029 126.544 70.3895 126.151C70.1762 125.757 70.0695 125.304 70.0695 124.791C70.0695 124.257 70.1729 123.791 70.3795 123.391C70.5929 122.991 70.8895 122.677 71.2695 122.451C71.6562 122.224 72.1029 122.111 72.6095 122.111C73.1029 122.111 73.5329 122.221 73.8995 122.441C74.2662 122.661 74.5495 122.957 74.7495 123.331C74.9495 123.697 75.0495 124.111 75.0495 124.571C75.0495 124.637 75.0495 124.711 75.0495 124.791C75.0495 124.871 75.0429 124.954 75.0295 125.041H70.9295V124.271H73.8395C73.8262 123.904 73.7029 123.617 73.4695 123.411C73.2362 123.197 72.9462 123.091 72.5995 123.091C72.3529 123.091 72.1262 123.147 71.9195 123.261C71.7129 123.374 71.5495 123.544 71.4295 123.771C71.3095 123.991 71.2495 124.271 71.2495 124.611V124.901C71.2495 125.214 71.3062 125.484 71.4195 125.711C71.5395 125.937 71.6995 126.111 71.8995 126.231C72.1062 126.344 72.3362 126.401 72.5895 126.401C72.8695 126.401 73.0995 126.341 73.2795 126.221C73.4662 126.101 73.6029 125.941 73.6895 125.741H74.9095C74.8162 126.054 74.6629 126.337 74.4495 126.591C74.2362 126.837 73.9729 127.034 73.6595 127.181C73.3462 127.321 72.9929 127.391 72.5995 127.391ZM80.2689 127.271V121.241H78.2089V120.271H83.5189V121.241H81.4589V127.271H80.2689ZM85.318 127.391C84.9046 127.391 84.5613 127.321 84.288 127.181C84.0146 127.041 83.8113 126.854 83.678 126.621C83.5446 126.387 83.478 126.134 83.478 125.861C83.478 125.541 83.558 125.264 83.718 125.031C83.8846 124.797 84.128 124.617 84.448 124.491C84.768 124.357 85.1613 124.291 85.628 124.291H86.898C86.898 124.024 86.8613 123.804 86.788 123.631C86.7146 123.451 86.6013 123.317 86.448 123.231C86.2946 123.144 86.098 123.101 85.858 123.101C85.5846 123.101 85.3513 123.164 85.158 123.291C84.9646 123.411 84.8446 123.597 84.798 123.851H83.618C83.658 123.491 83.778 123.184 83.978 122.931C84.178 122.671 84.4413 122.471 84.768 122.331C85.1013 122.184 85.4646 122.111 85.858 122.111C86.3313 122.111 86.7346 122.194 87.068 122.361C87.4013 122.521 87.6546 122.754 87.828 123.061C88.008 123.361 88.098 123.724 88.098 124.151V127.271H87.078L86.958 126.461C86.8913 126.594 86.8046 126.717 86.698 126.831C86.598 126.944 86.4813 127.044 86.348 127.131C86.2146 127.211 86.0613 127.274 85.888 127.321C85.7213 127.367 85.5313 127.391 85.318 127.391ZM85.588 126.441C85.7813 126.441 85.9513 126.407 86.098 126.341C86.2513 126.267 86.3813 126.167 86.488 126.041C86.6013 125.907 86.688 125.761 86.748 125.601C86.808 125.441 86.848 125.271 86.868 125.091V125.071H85.758C85.5246 125.071 85.3313 125.101 85.178 125.161C85.0246 125.214 84.9146 125.294 84.848 125.401C84.7813 125.507 84.748 125.631 84.748 125.771C84.748 125.911 84.7813 126.031 84.848 126.131C84.9146 126.231 85.0113 126.307 85.138 126.361C85.2646 126.414 85.4146 126.441 85.588 126.441ZM89.3802 127.271V122.231H90.4502L90.5602 123.171C90.6802 122.951 90.8302 122.764 91.0102 122.611C91.1902 122.451 91.4002 122.327 91.6402 122.241C91.8868 122.154 92.1568 122.111 92.4502 122.111V123.381H92.0302C91.8302 123.381 91.6402 123.407 91.4602 123.461C91.2802 123.507 91.1235 123.587 90.9902 123.701C90.8635 123.807 90.7635 123.957 90.6902 124.151C90.6168 124.337 90.5802 124.574 90.5802 124.861V127.271H89.3802ZM95.3576 129.591C94.8843 129.591 94.4676 129.531 94.1076 129.411C93.7543 129.297 93.4776 129.121 93.2776 128.881C93.0843 128.647 92.9876 128.354 92.9876 128.001C92.9876 127.794 93.0376 127.591 93.1376 127.391C93.2443 127.197 93.4009 127.017 93.6076 126.851C93.8209 126.677 94.0909 126.527 94.4176 126.401L94.9476 126.981C94.6276 127.094 94.4043 127.231 94.2776 127.391C94.1509 127.551 94.0876 127.714 94.0876 127.881C94.0876 128.054 94.1409 128.197 94.2476 128.311C94.3609 128.431 94.5109 128.521 94.6976 128.581C94.8909 128.641 95.1076 128.671 95.3476 128.671C95.5809 128.671 95.7843 128.637 95.9576 128.571C96.1309 128.511 96.2643 128.424 96.3576 128.311C96.4576 128.197 96.5076 128.061 96.5076 127.901C96.5076 127.701 96.4376 127.537 96.2976 127.411C96.1576 127.291 95.8809 127.217 95.4676 127.191C95.1143 127.164 94.8043 127.127 94.5376 127.081C94.2709 127.027 94.0409 126.967 93.8476 126.901C93.6609 126.834 93.5009 126.761 93.3676 126.681C93.2343 126.594 93.1243 126.507 93.0376 126.421V126.191L94.0876 125.091L94.9776 125.381L93.7976 126.531L94.1076 125.951C94.1743 125.997 94.2409 126.041 94.3076 126.081C94.3809 126.121 94.4709 126.157 94.5776 126.191C94.6909 126.217 94.8376 126.244 95.0176 126.271C95.1976 126.297 95.4309 126.324 95.7176 126.351C96.1643 126.384 96.5276 126.464 96.8076 126.591C97.0876 126.717 97.2943 126.887 97.4276 127.101C97.5609 127.314 97.6276 127.571 97.6276 127.871C97.6276 128.164 97.5443 128.441 97.3776 128.701C97.2176 128.961 96.9709 129.174 96.6376 129.341C96.3043 129.507 95.8776 129.591 95.3576 129.591ZM95.3576 125.761C94.9376 125.761 94.5743 125.681 94.2676 125.521C93.9676 125.354 93.7376 125.134 93.5776 124.861C93.4176 124.581 93.3376 124.274 93.3376 123.941C93.3376 123.601 93.4176 123.294 93.5776 123.021C93.7376 122.747 93.9676 122.527 94.2676 122.361C94.5743 122.194 94.9376 122.111 95.3576 122.111C95.7776 122.111 96.1376 122.194 96.4376 122.361C96.7376 122.527 96.9676 122.747 97.1276 123.021C97.2876 123.294 97.3676 123.601 97.3676 123.941C97.3676 124.274 97.2876 124.581 97.1276 124.861C96.9676 125.134 96.7376 125.354 96.4376 125.521C96.1376 125.681 95.7776 125.761 95.3576 125.761ZM95.3576 124.831C95.6443 124.831 95.8743 124.754 96.0476 124.601C96.2209 124.447 96.3076 124.227 96.3076 123.941C96.3076 123.654 96.2209 123.437 96.0476 123.291C95.8743 123.137 95.6443 123.061 95.3576 123.061C95.0709 123.061 94.8376 123.137 94.6576 123.291C94.4776 123.437 94.3876 123.654 94.3876 123.941C94.3876 124.227 94.4776 124.447 94.6576 124.601C94.8376 124.754 95.0709 124.831 95.3576 124.831ZM96.1876 123.111L95.9576 122.231H98.0276V122.981L96.1876 123.111ZM101.252 127.391C100.752 127.391 100.312 127.284 99.9319 127.071C99.5519 126.851 99.2552 126.544 99.0419 126.151C98.8286 125.757 98.7219 125.304 98.7219 124.791C98.7219 124.257 98.8252 123.791 99.0319 123.391C99.2452 122.991 99.5419 122.677 99.9219 122.451C100.309 122.224 100.755 122.111 101.262 122.111C101.755 122.111 102.185 122.221 102.552 122.441C102.919 122.661 103.202 122.957 103.402 123.331C103.602 123.697 103.702 124.111 103.702 124.571C103.702 124.637 103.702 124.711 103.702 124.791C103.702 124.871 103.695 124.954 103.682 125.041H99.5819V124.271H102.492C102.479 123.904 102.355 123.617 102.122 123.411C101.889 123.197 101.599 123.091 101.252 123.091C101.005 123.091 100.779 123.147 100.572 123.261C100.365 123.374 100.202 123.544 100.082 123.771C99.9619 123.991 99.9019 124.271 99.9019 124.611V124.901C99.9019 125.214 99.9586 125.484 100.072 125.711C100.192 125.937 100.352 126.111 100.552 126.231C100.759 126.344 100.989 126.401 101.242 126.401C101.522 126.401 101.752 126.341 101.932 126.221C102.119 126.101 102.255 125.941 102.342 125.741H103.562C103.469 126.054 103.315 126.337 103.102 126.591C102.889 126.837 102.625 127.034 102.312 127.181C101.999 127.321 101.645 127.391 101.252 127.391ZM106.902 127.271C106.562 127.271 106.266 127.217 106.012 127.111C105.766 127.004 105.572 126.827 105.432 126.581C105.292 126.334 105.222 126.001 105.222 125.581V123.241H104.362V122.231H105.222L105.362 120.901H106.422V122.231H107.792V123.241H106.422V125.581C106.422 125.834 106.476 126.011 106.582 126.111C106.696 126.204 106.882 126.251 107.142 126.251H107.762V127.271H106.902Z" fill="#BA1A1A"/>
<rect x="227.561" y="51.916" width="191.645" height="92.0679" rx="13.4685" fill="white"/>
<rect x="228.122" y="52.4772" width="190.523" height="90.9456" rx="12.9073" stroke="#0F5238" stroke-opacity="0.1" stroke-width="1.12237"/>
<path d="M242.862 74.5068V67.5068H245.382C245.942 67.5068 246.405 67.6035 246.772 67.7968C247.139 67.9835 247.412 68.2368 247.592 68.5568C247.772 68.8768 247.862 69.2435 247.862 69.6568C247.862 70.0435 247.775 70.4002 247.602 70.7268C247.429 71.0468 247.159 71.3068 246.792 71.5068C246.425 71.7002 245.955 71.7968 245.382 71.7968H244.062V74.5068H242.862ZM244.062 70.8168H245.312C245.785 70.8168 246.125 70.7135 246.332 70.5068C246.539 70.2935 246.642 70.0102 246.642 69.6568C246.642 69.2902 246.539 69.0035 246.332 68.7968C246.125 68.5902 245.785 68.4868 245.312 68.4868H244.062V70.8168ZM252.76 74.6268C252.087 74.6268 251.49 74.4768 250.97 74.1768C250.457 73.8702 250.054 73.4468 249.76 72.9068C249.467 72.3602 249.32 71.7268 249.32 71.0068C249.32 70.2935 249.467 69.6668 249.76 69.1268C250.054 68.5802 250.457 68.1535 250.97 67.8468C251.49 67.5402 252.087 67.3868 252.76 67.3868C253.447 67.3868 254.05 67.5402 254.57 67.8468C255.09 68.1535 255.494 68.5802 255.78 69.1268C256.067 69.6668 256.21 70.2935 256.21 71.0068C256.21 71.7268 256.067 72.3602 255.78 72.9068C255.494 73.4468 255.09 73.8702 254.57 74.1768C254.05 74.4768 253.447 74.6268 252.76 74.6268ZM252.77 73.5468C253.217 73.5468 253.607 73.4468 253.94 73.2468C254.274 73.0402 254.53 72.7468 254.71 72.3668C254.89 71.9868 254.98 71.5335 254.98 71.0068C254.98 70.4802 254.89 70.0268 254.71 69.6468C254.53 69.2668 254.274 68.9768 253.94 68.7768C253.607 68.5702 253.217 68.4668 252.77 68.4668C252.324 68.4668 251.934 68.5702 251.6 68.7768C251.267 68.9768 251.007 69.2668 250.82 69.6468C250.64 70.0268 250.55 70.4802 250.55 71.0068C250.55 71.5335 250.64 71.9868 250.82 72.3668C251.007 72.7468 251.267 73.0402 251.6 73.2468C251.934 73.4468 252.324 73.5468 252.77 73.5468ZM260.406 74.6268C259.9 74.6268 259.45 74.5368 259.056 74.3568C258.663 74.1768 258.356 73.9202 258.136 73.5868C257.916 73.2535 257.803 72.8568 257.796 72.3968H259.066C259.066 72.6302 259.12 72.8402 259.226 73.0268C259.34 73.2068 259.493 73.3502 259.686 73.4568C259.886 73.5635 260.126 73.6168 260.406 73.6168C260.646 73.6168 260.853 73.5802 261.026 73.5068C261.206 73.4268 261.343 73.3168 261.436 73.1768C261.536 73.0302 261.586 72.8602 261.586 72.6668C261.586 72.4468 261.533 72.2668 261.426 72.1268C261.326 71.9802 261.186 71.8568 261.006 71.7568C260.826 71.6568 260.62 71.5702 260.386 71.4968C260.153 71.4168 259.906 71.3335 259.646 71.2468C259.093 71.0602 258.676 70.8235 258.396 70.5368C258.116 70.2435 257.976 69.8535 257.976 69.3668C257.976 68.9602 258.073 68.6102 258.266 68.3168C258.46 68.0235 258.73 67.7968 259.076 67.6368C259.43 67.4702 259.836 67.3868 260.296 67.3868C260.763 67.3868 261.17 67.4702 261.516 67.6368C261.87 67.8035 262.146 68.0368 262.346 68.3368C262.553 68.6302 262.66 68.9835 262.666 69.3968H261.386C261.38 69.2235 261.333 69.0635 261.246 68.9168C261.16 68.7635 261.033 68.6402 260.866 68.5468C260.706 68.4468 260.51 68.3968 260.276 68.3968C260.076 68.3902 259.896 68.4235 259.736 68.4968C259.583 68.5635 259.46 68.6635 259.366 68.7968C259.28 68.9235 259.236 69.0835 259.236 69.2768C259.236 69.4635 259.276 69.6202 259.356 69.7468C259.443 69.8668 259.566 69.9702 259.726 70.0568C259.886 70.1368 260.073 70.2135 260.286 70.2868C260.5 70.3602 260.733 70.4402 260.986 70.5268C261.333 70.6402 261.646 70.7802 261.926 70.9468C262.213 71.1068 262.44 71.3168 262.606 71.5768C262.773 71.8368 262.856 72.1735 262.856 72.5868C262.856 72.9468 262.763 73.2835 262.576 73.5968C262.39 73.9035 262.116 74.1535 261.756 74.3468C261.396 74.5335 260.946 74.6268 260.406 74.6268ZM266.229 74.5068V68.4768H264.169V67.5068H269.479V68.4768H267.419V74.5068H266.229ZM270.683 72.0568V71.0568H274.823V72.0568H270.683ZM276.971 74.5068V67.5068H281.491V68.4768H278.171V70.4868H281.191V71.4368H278.171V73.5368H281.491V74.5068H276.971ZM283.066 74.5068L285.246 70.9668L283.046 67.5068H284.426L286.016 70.0168L287.486 67.5068H288.846L286.666 71.0168L288.886 74.5068H287.506L285.896 71.9668L284.426 74.5068H283.066ZM290.603 74.5068V67.5068H295.123V68.4768H291.803V70.4868H294.823V71.4368H291.803V73.5368H295.123V74.5068H290.603ZM297.058 74.5068V67.5068H299.568C300.121 67.5068 300.578 67.6035 300.938 67.7968C301.305 67.9835 301.575 68.2368 301.748 68.5568C301.928 68.8702 302.018 69.2268 302.018 69.6268C302.018 70.0002 301.931 70.3468 301.758 70.6668C301.585 70.9868 301.315 71.2435 300.948 71.4368C300.581 71.6302 300.111 71.7268 299.538 71.7268H298.258V74.5068H297.058ZM300.708 74.5068L299.238 71.4168H300.538L302.078 74.5068H300.708ZM298.258 70.8368H299.488C299.935 70.8368 300.261 70.7302 300.468 70.5168C300.681 70.2968 300.788 70.0102 300.788 69.6568C300.788 69.3102 300.685 69.0335 300.478 68.8268C300.271 68.6135 299.941 68.5068 299.488 68.5068H298.258V70.8368ZM307.042 74.6268C306.349 74.6268 305.749 74.4768 305.242 74.1768C304.742 73.8702 304.356 73.4468 304.082 72.9068C303.816 72.3602 303.682 71.7302 303.682 71.0168C303.682 70.2968 303.816 69.6668 304.082 69.1268C304.356 68.5802 304.742 68.1535 305.242 67.8468C305.749 67.5402 306.349 67.3868 307.042 67.3868C307.876 67.3868 308.556 67.5935 309.082 68.0068C309.609 68.4135 309.942 68.9902 310.082 69.7368H308.762C308.669 69.3435 308.479 69.0335 308.192 68.8068C307.906 68.5802 307.519 68.4668 307.032 68.4668C306.592 68.4668 306.212 68.5702 305.892 68.7768C305.579 68.9768 305.336 69.2702 305.162 69.6568C304.996 70.0368 304.912 70.4902 304.912 71.0168C304.912 71.5435 304.996 71.9968 305.162 72.3768C305.336 72.7502 305.579 73.0402 305.892 73.2468C306.212 73.4468 306.592 73.5468 307.032 73.5468C307.519 73.5468 307.906 73.4435 308.192 73.2368C308.479 73.0235 308.669 72.7302 308.762 72.3568H310.082C309.949 73.0635 309.616 73.6202 309.082 74.0268C308.556 74.4268 307.876 74.6268 307.042 74.6268ZM311.93 74.5068V67.5068H313.13V74.5068H311.93ZM317.561 74.6268C317.054 74.6268 316.604 74.5368 316.211 74.3568C315.818 74.1768 315.511 73.9202 315.291 73.5868C315.071 73.2535 314.958 72.8568 314.951 72.3968H316.221C316.221 72.6302 316.274 72.8402 316.381 73.0268C316.494 73.2068 316.648 73.3502 316.841 73.4568C317.041 73.5635 317.281 73.6168 317.561 73.6168C317.801 73.6168 318.008 73.5802 318.181 73.5068C318.361 73.4268 318.498 73.3168 318.591 73.1768C318.691 73.0302 318.741 72.8602 318.741 72.6668C318.741 72.4468 318.688 72.2668 318.581 72.1268C318.481 71.9802 318.341 71.8568 318.161 71.7568C317.981 71.6568 317.774 71.5702 317.541 71.4968C317.308 71.4168 317.061 71.3335 316.801 71.2468C316.248 71.0602 315.831 70.8235 315.551 70.5368C315.271 70.2435 315.131 69.8535 315.131 69.3668C315.131 68.9602 315.228 68.6102 315.421 68.3168C315.614 68.0235 315.884 67.7968 316.231 67.6368C316.584 67.4702 316.991 67.3868 317.451 67.3868C317.918 67.3868 318.324 67.4702 318.671 67.6368C319.024 67.8035 319.301 68.0368 319.501 68.3368C319.708 68.6302 319.814 68.9835 319.821 69.3968H318.541C318.534 69.2235 318.488 69.0635 318.401 68.9168C318.314 68.7635 318.188 68.6402 318.021 68.5468C317.861 68.4468 317.664 68.3968 317.431 68.3968C317.231 68.3902 317.051 68.4235 316.891 68.4968C316.738 68.5635 316.614 68.6635 316.521 68.7968C316.434 68.9235 316.391 69.0835 316.391 69.2768C316.391 69.4635 316.431 69.6202 316.511 69.7468C316.598 69.8668 316.721 69.9702 316.881 70.0568C317.041 70.1368 317.228 70.2135 317.441 70.2868C317.654 70.3602 317.888 70.4402 318.141 70.5268C318.488 70.6402 318.801 70.7802 319.081 70.9468C319.368 71.1068 319.594 71.3168 319.761 71.5768C319.928 71.8368 320.011 72.1735 320.011 72.5868C320.011 72.9468 319.918 73.2835 319.731 73.5968C319.544 73.9035 319.271 74.1535 318.911 74.3468C318.551 74.5335 318.101 74.6268 317.561 74.6268ZM321.851 74.5068V67.5068H326.371V68.4768H323.051V70.4868H326.071V71.4368H323.051V73.5368H326.371V74.5068H321.851Z" fill="#707973"/>
<path d="M248.272 97.9558C247.299 97.9558 246.472 97.7692 245.792 97.3958C245.112 97.0092 244.585 96.5092 244.212 95.8958C243.852 95.2825 243.632 94.6225 243.552 93.9158H246.072C246.192 94.5025 246.439 94.9558 246.812 95.2758C247.199 95.5825 247.699 95.7358 248.312 95.7358C248.885 95.7358 249.379 95.5692 249.792 95.2358C250.219 94.8892 250.552 94.3758 250.792 93.6958C251.032 93.0025 251.165 92.1492 251.192 91.1358C251.192 91.0958 251.192 91.0558 251.192 91.0158C251.192 90.9758 251.192 90.9425 251.192 90.9158C251.005 91.2625 250.732 91.5825 250.372 91.8758C250.012 92.1558 249.605 92.3758 249.152 92.5358C248.712 92.6958 248.239 92.7758 247.732 92.7758C246.972 92.7758 246.252 92.5892 245.572 92.2158C244.892 91.8425 244.345 91.3158 243.932 90.6358C243.519 89.9558 243.312 89.1492 243.312 88.2158C243.312 87.3625 243.519 86.5758 243.932 85.8558C244.345 85.1358 244.919 84.5625 245.652 84.1358C246.385 83.6958 247.232 83.4758 248.192 83.4758C249.259 83.4758 250.152 83.6692 250.872 84.0558C251.592 84.4425 252.165 84.9625 252.592 85.6158C253.032 86.2692 253.345 87.0025 253.532 87.8158C253.732 88.6158 253.832 89.4292 253.832 90.2558C253.832 91.8158 253.612 93.1758 253.172 94.3358C252.745 95.4825 252.119 96.3758 251.292 97.0158C250.465 97.6425 249.459 97.9558 248.272 97.9558ZM248.372 90.4958C248.852 90.4958 249.272 90.3958 249.632 90.1958C250.005 89.9958 250.299 89.7225 250.512 89.3758C250.739 89.0158 250.852 88.6092 250.852 88.1558C250.852 87.6892 250.739 87.2758 250.512 86.9158C250.299 86.5558 250.005 86.2825 249.632 86.0958C249.259 85.8958 248.832 85.7958 248.352 85.7958C247.885 85.7958 247.465 85.8958 247.092 86.0958C246.719 86.2958 246.425 86.5692 246.212 86.9158C246.012 87.2625 245.912 87.6692 245.912 88.1358C245.912 88.6025 246.012 89.0158 246.212 89.3758C246.425 89.7225 246.719 89.9958 247.092 90.1958C247.465 90.3958 247.892 90.4958 248.372 90.4958ZM262.627 97.7158V95.1758H255.747V93.0358L262.267 83.7158H265.327V92.8358H267.147V95.1758H265.327V97.7158H262.627ZM258.627 92.8358H262.807V86.6958L258.627 92.8358Z" fill="#0F5238"/>
<path d="M273.341 97.7158V92.6758H274.101L274.151 93.3958C274.311 93.1358 274.525 92.9325 274.791 92.7858C275.065 92.6325 275.361 92.5558 275.681 92.5558C275.941 92.5558 276.175 92.5925 276.381 92.6658C276.595 92.7325 276.781 92.8392 276.941 92.9858C277.101 93.1258 277.231 93.3058 277.331 93.5258C277.505 93.2192 277.741 92.9825 278.041 92.8158C278.348 92.6425 278.675 92.5558 279.021 92.5558C279.408 92.5558 279.745 92.6358 280.031 92.7958C280.325 92.9492 280.548 93.1858 280.701 93.5058C280.861 93.8192 280.941 94.2192 280.941 94.7058V97.7158H280.111V94.7958C280.111 94.2892 280.008 93.9092 279.801 93.6558C279.595 93.4025 279.305 93.2758 278.931 93.2758C278.671 93.2758 278.438 93.3458 278.231 93.4858C278.025 93.6192 277.861 93.8158 277.741 94.0758C277.621 94.3358 277.561 94.6558 277.561 95.0358V97.7158H276.721V94.7958C276.721 94.2892 276.618 93.9092 276.411 93.6558C276.205 93.4025 275.911 93.2758 275.531 93.2758C275.278 93.2758 275.048 93.3458 274.841 93.4858C274.641 93.6192 274.481 93.8158 274.361 94.0758C274.241 94.3358 274.181 94.6558 274.181 95.0358V97.7158H273.341ZM284.238 100.036C283.784 100.036 283.381 99.9758 283.028 99.8558C282.681 99.7425 282.411 99.5658 282.218 99.3258C282.024 99.0858 281.928 98.7892 281.928 98.4358C281.928 98.2825 281.958 98.1192 282.018 97.9458C282.084 97.7725 282.194 97.6025 282.348 97.4358C282.508 97.2692 282.731 97.1192 283.018 96.9858L283.598 97.3258C283.244 97.4725 283.014 97.6392 282.908 97.8258C282.801 98.0192 282.748 98.1958 282.748 98.3558C282.748 98.5758 282.811 98.7592 282.938 98.9058C283.064 99.0525 283.241 99.1625 283.468 99.2358C283.694 99.3092 283.951 99.3458 284.238 99.3458C284.524 99.3458 284.771 99.3058 284.978 99.2258C285.184 99.1458 285.344 99.0325 285.458 98.8858C285.571 98.7392 285.628 98.5658 285.628 98.3658C285.628 98.1325 285.541 97.9358 285.368 97.7758C285.194 97.6225 284.864 97.5325 284.378 97.5058C283.984 97.4792 283.654 97.4425 283.388 97.3958C283.121 97.3492 282.901 97.2958 282.728 97.2358C282.554 97.1692 282.408 97.0958 282.288 97.0158C282.174 96.9358 282.071 96.8525 281.978 96.7658V96.5358L282.948 95.5758L283.678 95.8358L282.678 96.7358L282.808 96.3858C282.881 96.4392 282.951 96.4892 283.018 96.5358C283.084 96.5825 283.174 96.6225 283.288 96.6558C283.401 96.6892 283.558 96.7192 283.758 96.7458C283.964 96.7725 284.234 96.7992 284.568 96.8258C285.028 96.8592 285.394 96.9392 285.668 97.0658C285.948 97.1925 286.148 97.3625 286.268 97.5758C286.394 97.7892 286.458 98.0425 286.458 98.3358C286.458 98.6225 286.378 98.8925 286.218 99.1458C286.064 99.4058 285.824 99.6192 285.498 99.7858C285.171 99.9525 284.751 100.036 284.238 100.036ZM284.228 96.1358C283.808 96.1358 283.448 96.0558 283.148 95.8958C282.854 95.7358 282.631 95.5225 282.478 95.2558C282.324 94.9825 282.248 94.6792 282.248 94.3458C282.248 94.0125 282.324 93.7125 282.478 93.4458C282.638 93.1792 282.864 92.9658 283.158 92.8058C283.451 92.6392 283.808 92.5558 284.228 92.5558C284.648 92.5558 285.004 92.6392 285.298 92.8058C285.591 92.9658 285.814 93.1792 285.968 93.4458C286.121 93.7125 286.198 94.0125 286.198 94.3458C286.198 94.6792 286.121 94.9825 285.968 95.2558C285.814 95.5225 285.591 95.7358 285.298 95.8958C285.004 96.0558 284.648 96.1358 284.228 96.1358ZM284.228 95.4458C284.588 95.4458 284.871 95.3525 285.078 95.1658C285.284 94.9792 285.388 94.7058 285.388 94.3458C285.388 93.9925 285.284 93.7225 285.078 93.5358C284.871 93.3492 284.588 93.2558 284.228 93.2558C283.874 93.2558 283.588 93.3492 283.368 93.5358C283.154 93.7225 283.048 93.9925 283.048 94.3458C283.048 94.7058 283.154 94.9792 283.368 95.1658C283.581 95.3525 283.868 95.4458 284.228 95.4458ZM285.048 93.3858L284.798 92.6758H286.858V93.3058L285.048 93.3858ZM287.404 98.6658L289.914 90.0758H290.744L288.234 98.6658H287.404ZM293.491 97.8358C293.004 97.8358 292.578 97.7225 292.211 97.4958C291.844 97.2625 291.561 96.9458 291.361 96.5458C291.161 96.1458 291.061 95.6925 291.061 95.1858C291.061 94.6792 291.161 94.2292 291.361 93.8358C291.561 93.4358 291.844 93.1225 292.211 92.8958C292.584 92.6692 293.014 92.5558 293.501 92.5558C293.914 92.5558 294.274 92.6392 294.581 92.8058C294.894 92.9725 295.134 93.2058 295.301 93.5058V90.5158H296.141V97.7158H295.381L295.311 96.8858C295.204 97.0525 295.068 97.2092 294.901 97.3558C294.734 97.4958 294.534 97.6125 294.301 97.7058C294.068 97.7925 293.798 97.8358 293.491 97.8358ZM293.591 97.1058C293.924 97.1058 294.218 97.0258 294.471 96.8658C294.724 96.7058 294.921 96.4858 295.061 96.2058C295.201 95.9192 295.271 95.5825 295.271 95.1958C295.271 94.8158 295.201 94.4825 295.061 94.1958C294.921 93.9092 294.724 93.6858 294.471 93.5258C294.218 93.3658 293.924 93.2858 293.591 93.2858C293.264 93.2858 292.974 93.3658 292.721 93.5258C292.468 93.6858 292.271 93.9092 292.131 94.1958C291.991 94.4825 291.921 94.8158 291.921 95.1958C291.921 95.5825 291.991 95.9192 292.131 96.2058C292.271 96.4858 292.468 96.7058 292.721 96.8658C292.974 97.0258 293.264 97.1058 293.591 97.1058ZM297.591 97.7158V90.7158H298.431V97.0458H301.691V97.7158H297.591Z" fill="#404943"/>
<g clip-path="url(#clip1_1_234)">
<rect x="242.152" y="111.695" width="162.463" height="4.48949" rx="2.24475" fill="#EFEEEB"/>
<rect x="242.152" y="111.696" width="105.599" height="4.48949" fill="#0F5238"/>
</g>
<path d="M249.152 129.209V128.209H250.452L247.852 125.634L245.852 127.634L242.152 123.909L242.852 123.209L245.852 126.209L247.852 124.209L251.152 127.509V126.209H252.152V129.209H249.152Z" fill="#0F5238"/>
<path d="M257.75 125.55V124.55H261.89V125.55H257.75ZM263.194 128V127.13C263.641 126.777 264.068 126.423 264.474 126.07C264.881 125.717 265.248 125.367 265.574 125.02C265.901 124.673 266.158 124.333 266.344 124C266.531 123.667 266.624 123.347 266.624 123.04C266.624 122.84 266.588 122.653 266.514 122.48C266.441 122.307 266.324 122.167 266.164 122.06C266.011 121.953 265.804 121.9 265.544 121.9C265.291 121.9 265.074 121.957 264.894 122.07C264.721 122.183 264.591 122.337 264.504 122.53C264.418 122.717 264.374 122.93 264.374 123.17H263.214C263.228 122.663 263.338 122.24 263.544 121.9C263.751 121.56 264.031 121.307 264.384 121.14C264.738 120.967 265.134 120.88 265.574 120.88C266.048 120.88 266.451 120.967 266.784 121.14C267.118 121.313 267.374 121.557 267.554 121.87C267.734 122.183 267.824 122.553 267.824 122.98C267.824 123.293 267.764 123.603 267.644 123.91C267.531 124.21 267.371 124.503 267.164 124.79C266.958 125.07 266.724 125.343 266.464 125.61C266.211 125.87 265.948 126.12 265.674 126.36C265.401 126.593 265.138 126.81 264.884 127.01H268.014V128H263.194ZM271.867 128.12C271.234 128.12 270.691 127.97 270.237 127.67C269.784 127.363 269.434 126.94 269.187 126.4C268.947 125.853 268.827 125.22 268.827 124.5C268.827 123.78 268.947 123.15 269.187 122.61C269.434 122.063 269.784 121.64 270.237 121.34C270.691 121.033 271.234 120.88 271.867 120.88C272.494 120.88 273.031 121.033 273.477 121.34C273.931 121.64 274.277 122.063 274.517 122.61C274.764 123.15 274.887 123.78 274.887 124.5C274.887 125.22 274.764 125.853 274.517 126.4C274.277 126.94 273.931 127.363 273.477 127.67C273.031 127.97 272.494 128.12 271.867 128.12ZM271.857 127.04C272.211 127.04 272.524 126.94 272.797 126.74C273.071 126.533 273.281 126.24 273.427 125.86C273.581 125.48 273.657 125.027 273.657 124.5C273.657 123.973 273.581 123.52 273.427 123.14C273.281 122.76 273.071 122.47 272.797 122.27C272.524 122.063 272.211 121.96 271.857 121.96C271.504 121.96 271.191 122.063 270.917 122.27C270.644 122.47 270.431 122.76 270.277 123.14C270.131 123.52 270.057 123.973 270.057 124.5C270.057 125.027 270.131 125.48 270.277 125.86C270.431 126.24 270.644 126.533 270.917 126.74C271.191 126.94 271.504 127.04 271.857 127.04ZM277.09 128L281.06 121H282.24L278.27 128H277.09ZM281.92 128.12C281.606 128.12 281.32 128.05 281.06 127.91C280.806 127.763 280.603 127.56 280.45 127.3C280.296 127.033 280.22 126.72 280.22 126.36C280.22 125.993 280.296 125.68 280.45 125.42C280.603 125.16 280.806 124.96 281.06 124.82C281.32 124.673 281.606 124.6 281.92 124.6C282.246 124.6 282.533 124.673 282.78 124.82C283.033 124.96 283.233 125.16 283.38 125.42C283.533 125.68 283.61 125.993 283.61 126.36C283.61 126.72 283.533 127.033 283.38 127.3C283.233 127.56 283.033 127.763 282.78 127.91C282.526 128.05 282.24 128.12 281.92 128.12ZM281.91 127.28C282.05 127.28 282.176 127.247 282.29 127.18C282.403 127.107 282.493 127.003 282.56 126.87C282.626 126.73 282.66 126.56 282.66 126.36C282.66 126.153 282.626 125.983 282.56 125.85C282.493 125.717 282.403 125.617 282.29 125.55C282.183 125.477 282.06 125.44 281.92 125.44C281.786 125.44 281.663 125.477 281.55 125.55C281.436 125.617 281.346 125.717 281.28 125.85C281.213 125.983 281.18 126.153 281.18 126.36C281.18 126.56 281.213 126.73 281.28 126.87C281.346 127.003 281.433 127.107 281.54 127.18C281.653 127.247 281.776 127.28 281.91 127.28ZM277.47 124.4C277.15 124.4 276.86 124.33 276.6 124.19C276.346 124.05 276.143 123.847 275.99 123.58C275.843 123.313 275.77 123 275.77 122.64C275.77 122.28 275.843 121.97 275.99 121.71C276.143 121.443 276.35 121.24 276.61 121.1C276.87 120.96 277.156 120.89 277.47 120.89C277.79 120.89 278.076 120.96 278.33 121.1C278.583 121.24 278.783 121.443 278.93 121.71C279.083 121.97 279.16 122.28 279.16 122.64C279.16 123 279.083 123.313 278.93 123.58C278.783 123.847 278.583 124.05 278.33 124.19C278.076 124.33 277.79 124.4 277.47 124.4ZM277.46 123.56C277.6 123.56 277.726 123.527 277.84 123.46C277.953 123.387 278.04 123.283 278.1 123.15C278.166 123.01 278.2 122.84 278.2 122.64C278.2 122.44 278.166 122.27 278.1 122.13C278.04 121.99 277.953 121.887 277.84 121.82C277.726 121.747 277.603 121.71 277.47 121.71C277.336 121.71 277.21 121.747 277.09 121.82C276.976 121.887 276.886 121.99 276.82 122.13C276.753 122.27 276.72 122.44 276.72 122.64C276.72 122.84 276.753 123.01 276.82 123.15C276.886 123.283 276.976 123.387 277.09 123.46C277.203 123.527 277.326 123.56 277.46 123.56ZM287.183 128V121H289.693C290.246 121 290.703 121.097 291.063 121.29C291.429 121.477 291.699 121.73 291.873 122.05C292.053 122.363 292.143 122.72 292.143 123.12C292.143 123.493 292.056 123.84 291.883 124.16C291.709 124.48 291.439 124.737 291.073 124.93C290.706 125.123 290.236 125.22 289.663 125.22H288.383V128H287.183ZM290.833 128L289.363 124.91H290.663L292.203 128H290.833ZM288.383 124.33H289.613C290.059 124.33 290.386 124.223 290.593 124.01C290.806 123.79 290.913 123.503 290.913 123.15C290.913 122.803 290.809 122.527 290.603 122.32C290.396 122.107 290.066 122 289.613 122H288.383V124.33ZM295.401 128.12C294.901 128.12 294.461 128.013 294.081 127.8C293.701 127.58 293.404 127.273 293.191 126.88C292.978 126.487 292.871 126.033 292.871 125.52C292.871 124.987 292.974 124.52 293.181 124.12C293.394 123.72 293.691 123.407 294.071 123.18C294.458 122.953 294.904 122.84 295.411 122.84C295.904 122.84 296.334 122.95 296.701 123.17C297.068 123.39 297.351 123.687 297.551 124.06C297.751 124.427 297.851 124.84 297.851 125.3C297.851 125.367 297.851 125.44 297.851 125.52C297.851 125.6 297.844 125.683 297.831 125.77H293.731V125H296.641C296.628 124.633 296.504 124.347 296.271 124.14C296.038 123.927 295.748 123.82 295.401 123.82C295.154 123.82 294.928 123.877 294.721 123.99C294.514 124.103 294.351 124.273 294.231 124.5C294.111 124.72 294.051 125 294.051 125.34V125.63C294.051 125.943 294.108 126.213 294.221 126.44C294.341 126.667 294.501 126.84 294.701 126.96C294.908 127.073 295.138 127.13 295.391 127.13C295.671 127.13 295.901 127.07 296.081 126.95C296.268 126.83 296.404 126.67 296.491 126.47H297.711C297.618 126.783 297.464 127.067 297.251 127.32C297.038 127.567 296.774 127.763 296.461 127.91C296.148 128.05 295.794 128.12 295.401 128.12ZM301.199 128.12C300.732 128.12 300.316 128.007 299.949 127.78C299.582 127.553 299.296 127.24 299.089 126.84C298.889 126.44 298.789 125.987 298.789 125.48C298.789 124.973 298.892 124.523 299.099 124.13C299.306 123.73 299.592 123.417 299.959 123.19C300.332 122.957 300.752 122.84 301.219 122.84C301.599 122.84 301.929 122.913 302.209 123.06C302.496 123.2 302.722 123.4 302.889 123.66V120.8H304.089V128H303.009L302.889 127.27C302.782 127.417 302.652 127.557 302.499 127.69C302.346 127.817 302.162 127.92 301.949 128C301.736 128.08 301.486 128.12 301.199 128.12ZM301.449 127.08C301.736 127.08 301.989 127.013 302.209 126.88C302.429 126.74 302.599 126.55 302.719 126.31C302.839 126.07 302.899 125.793 302.899 125.48C302.899 125.167 302.839 124.89 302.719 124.65C302.599 124.41 302.429 124.223 302.209 124.09C301.989 123.957 301.736 123.89 301.449 123.89C301.176 123.89 300.929 123.957 300.709 124.09C300.489 124.223 300.316 124.41 300.189 124.65C300.069 124.89 300.009 125.167 300.009 125.48C300.009 125.793 300.069 126.07 300.189 126.31C300.316 126.55 300.489 126.74 300.709 126.88C300.929 127.013 301.176 127.08 301.449 127.08ZM307.294 128.12C306.887 128.12 306.537 128.04 306.244 127.88C305.957 127.713 305.737 127.467 305.584 127.14C305.431 126.807 305.354 126.397 305.354 125.91V122.96H306.554V125.79C306.554 126.223 306.644 126.553 306.824 126.78C307.011 127 307.291 127.11 307.664 127.11C307.904 127.11 308.117 127.053 308.304 126.94C308.497 126.827 308.647 126.663 308.754 126.45C308.867 126.23 308.924 125.963 308.924 125.65V122.96H310.124V128H309.064L308.974 127.16C308.821 127.453 308.597 127.687 308.304 127.86C308.017 128.033 307.681 128.12 307.294 128.12ZM313.849 128.12C313.356 128.12 312.912 128.01 312.519 127.79C312.132 127.563 311.829 127.253 311.609 126.86C311.396 126.46 311.289 126.007 311.289 125.5C311.289 124.973 311.396 124.513 311.609 124.12C311.829 123.72 312.132 123.407 312.519 123.18C312.912 122.953 313.359 122.84 313.859 122.84C314.486 122.84 315.012 123.007 315.439 123.34C315.866 123.667 316.139 124.117 316.259 124.69H314.999C314.932 124.437 314.792 124.237 314.579 124.09C314.372 123.943 314.126 123.87 313.839 123.87C313.592 123.87 313.366 123.933 313.159 124.06C312.959 124.187 312.799 124.37 312.679 124.61C312.566 124.85 312.509 125.14 312.509 125.48C312.509 125.74 312.542 125.97 312.609 126.17C312.676 126.37 312.769 126.54 312.889 126.68C313.016 126.813 313.159 126.917 313.319 126.99C313.479 127.063 313.652 127.1 313.839 127.1C314.032 127.1 314.206 127.07 314.359 127.01C314.519 126.943 314.652 126.847 314.759 126.72C314.872 126.593 314.952 126.443 314.999 126.27H316.259C316.139 126.83 315.866 127.28 315.439 127.62C315.012 127.953 314.482 128.12 313.849 128.12ZM319.528 128C319.188 128 318.891 127.947 318.638 127.84C318.391 127.733 318.198 127.557 318.058 127.31C317.918 127.063 317.848 126.73 317.848 126.31V123.97H316.988V122.96H317.848L317.988 121.63H319.048V122.96H320.418V123.97H319.048V126.31C319.048 126.563 319.101 126.74 319.208 126.84C319.321 126.933 319.508 126.98 319.768 126.98H320.388V128H319.528ZM321.597 128V122.96H322.797V128H321.597ZM322.197 122.16C321.977 122.16 321.794 122.093 321.647 121.96C321.507 121.82 321.437 121.65 321.437 121.45C321.437 121.243 321.507 121.077 321.647 120.95C321.794 120.817 321.977 120.75 322.197 120.75C322.417 120.75 322.597 120.817 322.737 120.95C322.884 121.077 322.957 121.243 322.957 121.45C322.957 121.65 322.884 121.82 322.737 121.96C322.597 122.093 322.417 122.16 322.197 122.16ZM326.534 128.12C326.054 128.12 325.62 128.01 325.234 127.79C324.854 127.563 324.554 127.253 324.334 126.86C324.12 126.46 324.014 126.003 324.014 125.49C324.014 124.963 324.124 124.503 324.344 124.11C324.564 123.71 324.864 123.4 325.244 123.18C325.63 122.953 326.064 122.84 326.544 122.84C327.024 122.84 327.454 122.953 327.834 123.18C328.22 123.4 328.52 123.707 328.734 124.1C328.954 124.493 329.064 124.953 329.064 125.48C329.064 126.007 328.954 126.467 328.734 126.86C328.514 127.253 328.21 127.563 327.824 127.79C327.444 128.01 327.014 128.12 326.534 128.12ZM326.534 127.09C326.774 127.09 326.99 127.03 327.184 126.91C327.384 126.79 327.544 126.61 327.664 126.37C327.784 126.13 327.844 125.833 327.844 125.48C327.844 125.127 327.784 124.833 327.664 124.6C327.55 124.36 327.394 124.18 327.194 124.06C327 123.94 326.784 123.88 326.544 123.88C326.31 123.88 326.094 123.94 325.894 124.06C325.694 124.18 325.534 124.36 325.414 124.6C325.294 124.833 325.234 125.127 325.234 125.48C325.234 125.833 325.294 126.13 325.414 126.37C325.534 126.61 325.69 126.79 325.884 126.91C326.084 127.03 326.3 127.09 326.534 127.09ZM330.238 128V122.96H331.298L331.388 123.8C331.542 123.507 331.762 123.273 332.048 123.1C332.335 122.927 332.675 122.84 333.068 122.84C333.475 122.84 333.822 122.927 334.108 123.1C334.395 123.267 334.615 123.513 334.768 123.84C334.928 124.167 335.008 124.573 335.008 125.06V128H333.808V125.17C333.808 124.75 333.715 124.427 333.528 124.2C333.342 123.973 333.065 123.86 332.698 123.86C332.458 123.86 332.242 123.917 332.048 124.03C331.862 124.143 331.712 124.31 331.598 124.53C331.492 124.743 331.438 125.003 331.438 125.31V128H330.238Z" fill="#0F5238"/>
<defs>
<clipPath id="clip0_1_234">
<rect x="31.4264" y="110.572" width="164.708" height="4.48949" rx="2.24475" fill="white"/>
</clipPath>
<clipPath id="clip1_1_234">
<rect x="242.152" y="111.695" width="162.463" height="4.48949" rx="2.24475" fill="white"/>
</clipPath>
</defs>
</svg>
