<svg width="135" height="68" viewBox="0 0 135 68" fill="none" xmlns="http://www.w3.org/2000/svg">
<rect y="9.27647" width="13.4471" height="13.4471" rx="6.72353" fill="#90A1B9"/>
<path d="M9.26909 14.9091L8.81454 13.9091L7.81454 13.4545L8.81454 13L9.26909 12L9.72363 13L10.7236 13.4545L9.72363 13.9091L9.26909 14.9091ZM9.26909 20L8.81454 19L7.81454 18.5455L8.81454 18.0909L9.26909 17.0909L9.72363 18.0909L10.7236 18.5455L9.72363 19L9.26909 20ZM5.63272 18.9091L4.72363 16.9091L2.72363 16L4.72363 15.0909L5.63272 13.0909L6.54181 15.0909L8.54181 16L6.54181 16.9091L5.63272 18.9091Z" fill="white"/>
<path d="M19.5926 12V4.908H17.1326V3.6H23.6486V4.908H21.2006V12H19.5926ZM25.5897 12.144C25.0857 12.144 24.6697 12.064 24.3417 11.904C24.0137 11.736 23.7697 11.516 23.6097 11.244C23.4577 10.964 23.3817 10.656 23.3817 10.32C23.3817 9.952 23.4737 9.628 23.6577 9.348C23.8497 9.068 24.1337 8.848 24.5097 8.688C24.8937 8.528 25.3737 8.448 25.9497 8.448H27.4497C27.4497 8.152 27.4097 7.908 27.3297 7.716C27.2497 7.516 27.1257 7.368 26.9577 7.272C26.7897 7.176 26.5657 7.128 26.2857 7.128C25.9817 7.128 25.7217 7.196 25.5057 7.332C25.2977 7.46 25.1697 7.66 25.1217 7.932H23.5497C23.5897 7.5 23.7297 7.128 23.9697 6.816C24.2177 6.496 24.5417 6.248 24.9417 6.072C25.3497 5.896 25.8017 5.808 26.2977 5.808C26.8657 5.808 27.3577 5.904 27.7737 6.096C28.1897 6.288 28.5097 6.564 28.7337 6.924C28.9577 7.284 29.0697 7.728 29.0697 8.256V12H27.7017L27.5217 11.076C27.4337 11.236 27.3297 11.38 27.2097 11.508C27.0897 11.636 26.9497 11.748 26.7897 11.844C26.6297 11.94 26.4497 12.012 26.2497 12.06C26.0497 12.116 25.8297 12.144 25.5897 12.144ZM25.9737 10.896C26.1817 10.896 26.3657 10.86 26.5257 10.788C26.6937 10.708 26.8377 10.604 26.9577 10.476C27.0777 10.34 27.1697 10.188 27.2337 10.02C27.3057 9.844 27.3537 9.656 27.3777 9.456V9.444H26.1417C25.8937 9.444 25.6897 9.476 25.5297 9.54C25.3777 9.596 25.2657 9.68 25.1937 9.792C25.1217 9.904 25.0857 10.032 25.0857 10.176C25.0857 10.336 25.1217 10.468 25.1937 10.572C25.2657 10.676 25.3697 10.756 25.5057 10.812C25.6417 10.868 25.7977 10.896 25.9737 10.896ZM34.3729 12L31.7929 8.688L34.1089 5.952H36.0169L33.0289 9.372V8.088L36.3889 12H34.3729ZM30.4129 12V3.36H32.0329V12H30.4129ZM39.5824 12.144C38.9744 12.144 38.4344 12.016 37.9624 11.76C37.4984 11.496 37.1344 11.132 36.8704 10.668C36.6144 10.196 36.4864 9.652 36.4864 9.036C36.4864 8.404 36.6144 7.848 36.8704 7.368C37.1344 6.88 37.4984 6.5 37.9624 6.228C38.4264 5.948 38.9664 5.808 39.5824 5.808C40.1824 5.808 40.7064 5.94 41.1544 6.204C41.6024 6.468 41.9504 6.824 42.1984 7.272C42.4464 7.72 42.5704 8.228 42.5704 8.796C42.5704 8.876 42.5704 8.968 42.5704 9.072C42.5704 9.168 42.5624 9.268 42.5464 9.372H37.6384V8.388H40.9384C40.9144 7.996 40.7744 7.688 40.5184 7.464C40.2704 7.24 39.9584 7.128 39.5824 7.128C39.3104 7.128 39.0584 7.192 38.8264 7.32C38.5944 7.44 38.4104 7.628 38.2744 7.884C38.1464 8.14 38.0824 8.464 38.0824 8.856V9.204C38.0824 9.532 38.1424 9.82 38.2624 10.068C38.3904 10.308 38.5664 10.496 38.7904 10.632C39.0144 10.76 39.2744 10.824 39.5704 10.824C39.8664 10.824 40.1104 10.76 40.3024 10.632C40.5024 10.504 40.6504 10.34 40.7464 10.14H42.4024C42.2904 10.516 42.1024 10.856 41.8384 11.16C41.5744 11.464 41.2504 11.704 40.8664 11.88C40.4824 12.056 40.0544 12.144 39.5824 12.144ZM46.4212 12V3.6H48.0412V12H46.4212ZM49.4866 12V5.952H50.9146L51.0346 6.936C51.2186 6.6 51.4786 6.328 51.8146 6.12C52.1586 5.912 52.5666 5.808 53.0386 5.808C53.5426 5.808 53.9666 5.912 54.3106 6.12C54.6546 6.328 54.9146 6.632 55.0906 7.032C55.2746 7.432 55.3666 7.924 55.3666 8.508V12H53.7586V8.664C53.7586 8.184 53.6546 7.816 53.4466 7.56C53.2466 7.304 52.9346 7.176 52.5106 7.176C52.2386 7.176 51.9946 7.24 51.7786 7.368C51.5706 7.496 51.4066 7.68 51.2866 7.92C51.1666 8.152 51.1066 8.436 51.1066 8.772V12H49.4866ZM59.4488 12C59.0248 12 58.6528 11.936 58.3328 11.808C58.0208 11.672 57.7768 11.452 57.6008 11.148C57.4248 10.836 57.3368 10.412 57.3368 9.876V7.308H56.3048V5.952H57.3368L57.5168 4.308H58.9568V5.952H60.5528V7.308H58.9568V9.9C58.9568 10.172 59.0168 10.36 59.1368 10.464C59.2568 10.568 59.4608 10.62 59.7488 10.62H60.5408V12H59.4488ZM64.4997 12.144C63.8917 12.144 63.3517 12.016 62.8797 11.76C62.4157 11.496 62.0517 11.132 61.7877 10.668C61.5317 10.196 61.4037 9.652 61.4037 9.036C61.4037 8.404 61.5317 7.848 61.7877 7.368C62.0517 6.88 62.4157 6.5 62.8797 6.228C63.3437 5.948 63.8837 5.808 64.4997 5.808C65.0997 5.808 65.6237 5.94 66.0717 6.204C66.5197 6.468 66.8677 6.824 67.1157 7.272C67.3637 7.72 67.4877 8.228 67.4877 8.796C67.4877 8.876 67.4877 8.968 67.4877 9.072C67.4877 9.168 67.4797 9.268 67.4637 9.372H62.5557V8.388H65.8557C65.8317 7.996 65.6917 7.688 65.4357 7.464C65.1877 7.24 64.8757 7.128 64.4997 7.128C64.2277 7.128 63.9757 7.192 63.7437 7.32C63.5117 7.44 63.3277 7.628 63.1917 7.884C63.0637 8.14 62.9997 8.464 62.9997 8.856V9.204C62.9997 9.532 63.0597 9.82 63.1797 10.068C63.3077 10.308 63.4837 10.496 63.7077 10.632C63.9317 10.76 64.1917 10.824 64.4877 10.824C64.7837 10.824 65.0277 10.76 65.2197 10.632C65.4197 10.504 65.5677 10.34 65.6637 10.14H67.3197C67.2077 10.516 67.0197 10.856 66.7557 11.16C66.4917 11.464 66.1677 11.704 65.7837 11.88C65.3997 12.056 64.9717 12.144 64.4997 12.144ZM68.6464 12V3.36H70.2664V12H68.6464ZM71.6775 12V3.36H73.2975V12H71.6775ZM74.7447 12V5.952H76.3647V12H74.7447ZM75.5607 5.124C75.2727 5.124 75.0327 5.04 74.8407 4.872C74.6567 4.696 74.5647 4.476 74.5647 4.212C74.5647 3.948 74.6567 3.732 74.8407 3.564C75.0327 3.388 75.2727 3.3 75.5607 3.3C75.8567 3.3 76.0967 3.388 76.2807 3.564C76.4727 3.732 76.5687 3.948 76.5687 4.212C76.5687 4.476 76.4727 4.696 76.2807 4.872C76.0967 5.04 75.8567 5.124 75.5607 5.124ZM80.4375 14.784C79.8615 14.784 79.3575 14.712 78.9255 14.568C78.4935 14.432 78.1575 14.22 77.9175 13.932C77.6855 13.652 77.5695 13.304 77.5695 12.888C77.5695 12.608 77.6415 12.344 77.7855 12.096C77.9295 11.848 78.1375 11.624 78.4095 11.424C78.6895 11.216 79.0375 11.04 79.4535 10.896L80.0655 11.688C79.6975 11.808 79.4295 11.956 79.2615 12.132C79.1015 12.316 79.0215 12.512 79.0215 12.72C79.0215 12.904 79.0815 13.06 79.2015 13.188C79.3295 13.316 79.4975 13.408 79.7055 13.464C79.9215 13.528 80.1615 13.56 80.4255 13.56C80.6815 13.56 80.9015 13.528 81.0855 13.464C81.2775 13.4 81.4255 13.304 81.5295 13.176C81.6415 13.056 81.6975 12.912 81.6975 12.744C81.6975 12.528 81.6215 12.352 81.4695 12.216C81.3175 12.08 81.0135 11.996 80.5575 11.964C80.1495 11.932 79.7855 11.888 79.4655 11.832C79.1535 11.768 78.8775 11.696 78.6375 11.616C78.3975 11.528 78.1935 11.432 78.0255 11.328C77.8655 11.224 77.7335 11.12 77.6295 11.016V10.74L78.9135 9.36L80.0775 9.732L78.5655 11.22L79.0215 10.428C79.1095 10.476 79.1935 10.524 79.2735 10.572C79.3615 10.612 79.4695 10.652 79.5975 10.692C79.7255 10.724 79.8935 10.756 80.1015 10.788C80.3095 10.82 80.5735 10.848 80.8935 10.872C81.4215 10.92 81.8535 11.02 82.1895 11.172C82.5335 11.324 82.7855 11.528 82.9455 11.784C83.1055 12.032 83.1855 12.34 83.1855 12.708C83.1855 13.068 83.0855 13.404 82.8855 13.716C82.6935 14.036 82.3935 14.292 81.9855 14.484C81.5775 14.684 81.0615 14.784 80.4375 14.784ZM80.4375 10.212C79.9335 10.212 79.4975 10.116 79.1295 9.924C78.7695 9.724 78.4895 9.46 78.2895 9.132C78.0975 8.796 78.0015 8.424 78.0015 8.016C78.0015 7.608 78.0975 7.24 78.2895 6.912C78.4895 6.576 78.7695 6.308 79.1295 6.108C79.4975 5.908 79.9335 5.808 80.4375 5.808C80.9495 5.808 81.3855 5.908 81.7455 6.108C82.1135 6.308 82.3935 6.576 82.5855 6.912C82.7775 7.24 82.8735 7.608 82.8735 8.016C82.8735 8.424 82.7775 8.796 82.5855 9.132C82.3935 9.46 82.1135 9.724 81.7455 9.924C81.3855 10.116 80.9495 10.212 80.4375 10.212ZM80.4375 8.976C80.7495 8.976 81.0015 8.896 81.1935 8.736C81.3855 8.576 81.4815 8.34 81.4815 8.028C81.4815 7.716 81.3855 7.48 81.1935 7.32C81.0015 7.152 80.7495 7.068 80.4375 7.068C80.1335 7.068 79.8815 7.152 79.6815 7.32C79.4895 7.48 79.3935 7.716 79.3935 8.028C79.3935 8.34 79.4895 8.576 79.6815 8.736C79.8815 8.896 80.1335 8.976 80.4375 8.976ZM81.4455 7.104L81.1815 5.952H83.6655V6.912L81.4455 7.104ZM87.4835 12.144C86.8755 12.144 86.3355 12.016 85.8635 11.76C85.3995 11.496 85.0355 11.132 84.7715 10.668C84.5155 10.196 84.3875 9.652 84.3875 9.036C84.3875 8.404 84.5155 7.848 84.7715 7.368C85.0355 6.88 85.3995 6.5 85.8635 6.228C86.3275 5.948 86.8675 5.808 87.4835 5.808C88.0835 5.808 88.6075 5.94 89.0555 6.204C89.5035 6.468 89.8515 6.824 90.0995 7.272C90.3475 7.72 90.4715 8.228 90.4715 8.796C90.4715 8.876 90.4715 8.968 90.4715 9.072C90.4715 9.168 90.4635 9.268 90.4475 9.372H85.5395V8.388H88.8395C88.8155 7.996 88.6755 7.688 88.4195 7.464C88.1715 7.24 87.8595 7.128 87.4835 7.128C87.2115 7.128 86.9595 7.192 86.7275 7.32C86.4955 7.44 86.3115 7.628 86.1755 7.884C86.0475 8.14 85.9835 8.464 85.9835 8.856V9.204C85.9835 9.532 86.0435 9.82 86.1635 10.068C86.2915 10.308 86.4675 10.496 86.6915 10.632C86.9155 10.76 87.1755 10.824 87.4715 10.824C87.7675 10.824 88.0115 10.76 88.2035 10.632C88.4035 10.504 88.5515 10.34 88.6475 10.14H90.3035C90.1915 10.516 90.0035 10.856 89.7395 11.16C89.4755 11.464 89.1515 11.704 88.7675 11.88C88.3835 12.056 87.9555 12.144 87.4835 12.144ZM91.6302 12V5.952H93.0582L93.1782 6.936C93.3622 6.6 93.6222 6.328 93.9582 6.12C94.3022 5.912 94.7102 5.808 95.1822 5.808C95.6862 5.808 96.1102 5.912 96.4542 6.12C96.7982 6.328 97.0582 6.632 97.2342 7.032C97.4182 7.432 97.5102 7.924 97.5102 8.508V12H95.9022V8.664C95.9022 8.184 95.7982 7.816 95.5902 7.56C95.3902 7.304 95.0782 7.176 94.6542 7.176C94.3822 7.176 94.1382 7.24 93.9222 7.368C93.7142 7.496 93.5502 7.68 93.4302 7.92C93.3102 8.152 93.2502 8.436 93.2502 8.772V12H91.6302ZM101.796 12.144C101.188 12.144 100.648 12.008 100.176 11.736C99.7043 11.464 99.3363 11.092 99.0723 10.62C98.8083 10.148 98.6763 9.608 98.6763 9C98.6763 8.376 98.8083 7.828 99.0723 7.356C99.3363 6.876 99.7043 6.5 100.176 6.228C100.648 5.948 101.188 5.808 101.796 5.808C102.572 5.808 103.224 6.012 103.752 6.42C104.28 6.828 104.616 7.388 104.76 8.1H103.044C102.972 7.82 102.82 7.6 102.588 7.44C102.364 7.28 102.096 7.2 101.784 7.2C101.504 7.2 101.252 7.272 101.028 7.416C100.812 7.552 100.64 7.756 100.512 8.028C100.392 8.292 100.332 8.608 100.332 8.976C100.332 9.256 100.368 9.508 100.44 9.732C100.512 9.948 100.612 10.136 100.74 10.296C100.868 10.448 101.02 10.564 101.196 10.644C101.38 10.724 101.576 10.764 101.784 10.764C101.992 10.764 102.18 10.728 102.348 10.656C102.524 10.584 102.672 10.484 102.792 10.356C102.912 10.22 102.996 10.056 103.044 9.864H104.76C104.616 10.56 104.276 11.116 103.74 11.532C103.212 11.94 102.564 12.144 101.796 12.144ZM108.893 12.144C108.285 12.144 107.745 12.016 107.273 11.76C106.809 11.496 106.445 11.132 106.181 10.668C105.925 10.196 105.797 9.652 105.797 9.036C105.797 8.404 105.925 7.848 106.181 7.368C106.445 6.88 106.809 6.5 107.273 6.228C107.737 5.948 108.277 5.808 108.893 5.808C109.493 5.808 110.017 5.94 110.465 6.204C110.913 6.468 111.261 6.824 111.509 7.272C111.757 7.72 111.881 8.228 111.881 8.796C111.881 8.876 111.881 8.968 111.881 9.072C111.881 9.168 111.873 9.268 111.857 9.372H106.949V8.388H110.249C110.225 7.996 110.085 7.688 109.829 7.464C109.581 7.24 109.269 7.128 108.893 7.128C108.621 7.128 108.369 7.192 108.137 7.32C107.905 7.44 107.721 7.628 107.585 7.884C107.457 8.14 107.393 8.464 107.393 8.856V9.204C107.393 9.532 107.453 9.82 107.573 10.068C107.701 10.308 107.877 10.496 108.101 10.632C108.325 10.76 108.585 10.824 108.881 10.824C109.177 10.824 109.421 10.76 109.613 10.632C109.813 10.504 109.961 10.34 110.057 10.14H111.713C111.601 10.516 111.413 10.856 111.149 11.16C110.885 11.464 110.561 11.704 110.177 11.88C109.793 12.056 109.365 12.144 108.893 12.144ZM22.9286 28V19.6H24.5486V28H22.9286ZM17.6366 28V19.6H19.2566V28H17.6366ZM19.0286 24.364V23.056H23.2046V24.364H19.0286ZM28.9029 28.144C28.2949 28.144 27.7549 28.016 27.2829 27.76C26.8189 27.496 26.4549 27.132 26.1909 26.668C25.9349 26.196 25.8069 25.652 25.8069 25.036C25.8069 24.404 25.9349 23.848 26.1909 23.368C26.4549 22.88 26.8189 22.5 27.2829 22.228C27.7469 21.948 28.2869 21.808 28.9029 21.808C29.5029 21.808 30.0269 21.94 30.4749 22.204C30.9229 22.468 31.2709 22.824 31.5189 23.272C31.7669 23.72 31.8909 24.228 31.8909 24.796C31.8909 24.876 31.8909 24.968 31.8909 25.072C31.8909 25.168 31.8829 25.268 31.8669 25.372H26.9589V24.388H30.2589C30.2349 23.996 30.0949 23.688 29.8389 23.464C29.5909 23.24 29.2789 23.128 28.9029 23.128C28.6309 23.128 28.3789 23.192 28.1469 23.32C27.9149 23.44 27.7309 23.628 27.5949 23.884C27.4669 24.14 27.4029 24.464 27.4029 24.856V25.204C27.4029 25.532 27.4629 25.82 27.5829 26.068C27.7109 26.308 27.8869 26.496 28.1109 26.632C28.3349 26.76 28.5949 26.824 28.8909 26.824C29.1869 26.824 29.4309 26.76 29.6229 26.632C29.8229 26.504 29.9709 26.34 30.0669 26.14H31.7229C31.6109 26.516 31.4229 26.856 31.1589 27.16C30.8949 27.464 30.5709 27.704 30.1869 27.88C29.8029 28.056 29.3749 28.144 28.9029 28.144ZM35.0896 28.144C34.5856 28.144 34.1696 28.064 33.8416 27.904C33.5136 27.736 33.2696 27.516 33.1096 27.244C32.9576 26.964 32.8816 26.656 32.8816 26.32C32.8816 25.952 32.9736 25.628 33.1576 25.348C33.3496 25.068 33.6336 24.848 34.0096 24.688C34.3936 24.528 34.8736 24.448 35.4496 24.448H36.9496C36.9496 24.152 36.9096 23.908 36.8296 23.716C36.7496 23.516 36.6256 23.368 36.4576 23.272C36.2896 23.176 36.0656 23.128 35.7856 23.128C35.4816 23.128 35.2216 23.196 35.0056 23.332C34.7976 23.46 34.6696 23.66 34.6216 23.932H33.0496C33.0896 23.5 33.2296 23.128 33.4696 22.816C33.7176 22.496 34.0416 22.248 34.4416 22.072C34.8496 21.896 35.3016 21.808 35.7976 21.808C36.3656 21.808 36.8576 21.904 37.2736 22.096C37.6896 22.288 38.0096 22.564 38.2336 22.924C38.4576 23.284 38.5696 23.728 38.5696 24.256V28H37.2016L37.0216 27.076C36.9336 27.236 36.8296 27.38 36.7096 27.508C36.5896 27.636 36.4496 27.748 36.2896 27.844C36.1296 27.94 35.9496 28.012 35.7496 28.06C35.5496 28.116 35.3296 28.144 35.0896 28.144ZM35.4736 26.896C35.6816 26.896 35.8656 26.86 36.0256 26.788C36.1936 26.708 36.3376 26.604 36.4576 26.476C36.5776 26.34 36.6696 26.188 36.7336 26.02C36.8056 25.844 36.8536 25.656 36.8776 25.456V25.444H35.6416C35.3936 25.444 35.1896 25.476 35.0296 25.54C34.8776 25.596 34.7656 25.68 34.6936 25.792C34.6216 25.904 34.5856 26.032 34.5856 26.176C34.5856 26.336 34.6216 26.468 34.6936 26.572C34.7656 26.676 34.8696 26.756 35.0056 26.812C35.1416 26.868 35.2976 26.896 35.4736 26.896ZM39.9127 28V19.36H41.5327V28H39.9127ZM45.6679 28C45.2439 28 44.8719 27.936 44.5519 27.808C44.2399 27.672 43.9959 27.452 43.8199 27.148C43.6439 26.836 43.5559 26.412 43.5559 25.876V23.308H42.5239V21.952H43.5559L43.7359 20.308H45.1759V21.952H46.7719V23.308H45.1759V25.9C45.1759 26.172 45.2359 26.36 45.3559 26.464C45.4759 26.568 45.6799 26.62 45.9679 26.62H46.7599V28H45.6679ZM47.9672 28V19.36H49.5872V22.852C49.7872 22.532 50.0512 22.28 50.3792 22.096C50.7152 21.904 51.1032 21.808 51.5432 21.808C52.0472 21.808 52.4712 21.916 52.8152 22.132C53.1592 22.34 53.4192 22.644 53.5952 23.044C53.7712 23.444 53.8592 23.94 53.8592 24.532V28H52.2512V24.676C52.2512 24.196 52.1512 23.828 51.9512 23.572C51.7512 23.308 51.4352 23.176 51.0032 23.176C50.7392 23.176 50.4992 23.24 50.2832 23.368C50.0672 23.496 49.8952 23.684 49.7672 23.932C49.6472 24.172 49.5872 24.46 49.5872 24.796V28H47.9672ZM57.3452 28L60.4172 19.6H62.2532L65.3132 28H63.5972L61.3292 21.448L59.0492 28H57.3452ZM58.7012 26.092L59.1332 24.832H63.4052L63.8252 26.092H58.7012ZM68.6849 28.144C68.1329 28.144 67.6529 28.056 67.2449 27.88C66.8369 27.704 66.5169 27.46 66.2849 27.148C66.0529 26.836 65.9209 26.484 65.8889 26.092H67.4969C67.5369 26.244 67.6049 26.384 67.7009 26.512C67.7969 26.632 67.9249 26.728 68.0849 26.8C68.2449 26.872 68.4369 26.908 68.6609 26.908C68.8769 26.908 69.0529 26.88 69.1889 26.824C69.3249 26.76 69.4249 26.676 69.4889 26.572C69.5609 26.468 69.5969 26.36 69.5969 26.248C69.5969 26.08 69.5489 25.952 69.4529 25.864C69.3569 25.768 69.2169 25.692 69.0329 25.636C68.8489 25.58 68.6249 25.524 68.3609 25.468C68.0729 25.412 67.7889 25.344 67.5089 25.264C67.2369 25.176 66.9929 25.068 66.7769 24.94C66.5609 24.812 66.3889 24.648 66.2609 24.448C66.1329 24.248 66.0689 24 66.0689 23.704C66.0689 23.344 66.1649 23.024 66.3569 22.744C66.5489 22.456 66.8289 22.228 67.1969 22.06C67.5649 21.892 68.0089 21.808 68.5289 21.808C69.2569 21.808 69.8329 21.972 70.2569 22.3C70.6809 22.628 70.9329 23.08 71.0129 23.656H69.4889C69.4409 23.472 69.3329 23.328 69.1649 23.224C69.0049 23.112 68.7889 23.056 68.5169 23.056C68.2289 23.056 68.0089 23.108 67.8569 23.212C67.7049 23.316 67.6289 23.452 67.6289 23.62C67.6289 23.732 67.6769 23.832 67.7729 23.92C67.8769 24.008 68.0209 24.084 68.2049 24.148C68.3889 24.204 68.6129 24.26 68.8769 24.316C69.3409 24.412 69.7489 24.524 70.1009 24.652C70.4529 24.772 70.7289 24.948 70.9289 25.18C71.1289 25.404 71.2289 25.732 71.2289 26.164C71.2289 26.548 71.1249 26.892 70.9169 27.196C70.7089 27.492 70.4129 27.724 70.0289 27.892C69.6529 28.06 69.2049 28.144 68.6849 28.144ZM74.9035 28.144C74.3515 28.144 73.8715 28.056 73.4635 27.88C73.0555 27.704 72.7355 27.46 72.5035 27.148C72.2715 26.836 72.1395 26.484 72.1075 26.092H73.7155C73.7555 26.244 73.8235 26.384 73.9195 26.512C74.0155 26.632 74.1435 26.728 74.3035 26.8C74.4635 26.872 74.6555 26.908 74.8795 26.908C75.0955 26.908 75.2715 26.88 75.4075 26.824C75.5435 26.76 75.6435 26.676 75.7075 26.572C75.7795 26.468 75.8155 26.36 75.8155 26.248C75.8155 26.08 75.7675 25.952 75.6715 25.864C75.5755 25.768 75.4355 25.692 75.2515 25.636C75.0675 25.58 74.8435 25.524 74.5795 25.468C74.2915 25.412 74.0075 25.344 73.7275 25.264C73.4555 25.176 73.2115 25.068 72.9955 24.94C72.7795 24.812 72.6075 24.648 72.4795 24.448C72.3515 24.248 72.2875 24 72.2875 23.704C72.2875 23.344 72.3835 23.024 72.5755 22.744C72.7675 22.456 73.0475 22.228 73.4155 22.06C73.7835 21.892 74.2275 21.808 74.7475 21.808C75.4755 21.808 76.0515 21.972 76.4755 22.3C76.8995 22.628 77.1515 23.08 77.2315 23.656H75.7075C75.6595 23.472 75.5515 23.328 75.3835 23.224C75.2235 23.112 75.0075 23.056 74.7355 23.056C74.4475 23.056 74.2275 23.108 74.0755 23.212C73.9235 23.316 73.8475 23.452 73.8475 23.62C73.8475 23.732 73.8955 23.832 73.9915 23.92C74.0955 24.008 74.2395 24.084 74.4235 24.148C74.6075 24.204 74.8315 24.26 75.0955 24.316C75.5595 24.412 75.9675 24.524 76.3195 24.652C76.6715 24.772 76.9475 24.948 77.1475 25.18C77.3475 25.404 77.4475 25.732 77.4475 26.164C77.4475 26.548 77.3435 26.892 77.1355 27.196C76.9275 27.492 76.6315 27.724 76.2475 27.892C75.8715 28.06 75.4235 28.144 74.9035 28.144ZM78.6862 28V21.952H80.3062V28H78.6862ZM79.5022 21.124C79.2142 21.124 78.9742 21.04 78.7822 20.872C78.5982 20.696 78.5062 20.476 78.5062 20.212C78.5062 19.948 78.5982 19.732 78.7822 19.564C78.9742 19.388 79.2142 19.3 79.5022 19.3C79.7982 19.3 80.0382 19.388 80.2222 19.564C80.4142 19.732 80.5102 19.948 80.5102 20.212C80.5102 20.476 80.4142 20.696 80.2222 20.872C80.0382 21.04 79.7982 21.124 79.5022 21.124ZM84.2471 28.144C83.6951 28.144 83.2151 28.056 82.8071 27.88C82.3991 27.704 82.0791 27.46 81.8471 27.148C81.6151 26.836 81.4831 26.484 81.4511 26.092H83.0591C83.0991 26.244 83.1671 26.384 83.2631 26.512C83.3591 26.632 83.4871 26.728 83.6471 26.8C83.8071 26.872 83.9991 26.908 84.2231 26.908C84.4391 26.908 84.6151 26.88 84.7511 26.824C84.8871 26.76 84.9871 26.676 85.0511 26.572C85.1231 26.468 85.1591 26.36 85.1591 26.248C85.1591 26.08 85.1111 25.952 85.0151 25.864C84.9191 25.768 84.7791 25.692 84.5951 25.636C84.4111 25.58 84.1871 25.524 83.9231 25.468C83.6351 25.412 83.3511 25.344 83.0711 25.264C82.7991 25.176 82.5551 25.068 82.3391 24.94C82.1231 24.812 81.9511 24.648 81.8231 24.448C81.6951 24.248 81.6311 24 81.6311 23.704C81.6311 23.344 81.7271 23.024 81.9191 22.744C82.1111 22.456 82.3911 22.228 82.7591 22.06C83.1271 21.892 83.5711 21.808 84.0911 21.808C84.8191 21.808 85.3951 21.972 85.8191 22.3C86.2431 22.628 86.4951 23.08 86.5751 23.656H85.0511C85.0031 23.472 84.8951 23.328 84.7271 23.224C84.5671 23.112 84.3511 23.056 84.0791 23.056C83.7911 23.056 83.5711 23.108 83.4191 23.212C83.2671 23.316 83.1911 23.452 83.1911 23.62C83.1911 23.732 83.2391 23.832 83.3351 23.92C83.4391 24.008 83.5831 24.084 83.7671 24.148C83.9511 24.204 84.1751 24.26 84.4391 24.316C84.9031 24.412 85.3111 24.524 85.6631 24.652C86.0151 24.772 86.2911 24.948 86.4911 25.18C86.6911 25.404 86.7911 25.732 86.7911 26.164C86.7911 26.548 86.6871 26.892 86.4791 27.196C86.2711 27.492 85.9751 27.724 85.5911 27.892C85.2151 28.06 84.7671 28.144 84.2471 28.144ZM90.5302 28C90.1062 28 89.7342 27.936 89.4142 27.808C89.1022 27.672 88.8582 27.452 88.6822 27.148C88.5062 26.836 88.4182 26.412 88.4182 25.876V23.308H87.3862V21.952H88.4182L88.5982 20.308H90.0382V21.952H91.6342V23.308H90.0382V25.9C90.0382 26.172 90.0982 26.36 90.2182 26.464C90.3382 26.568 90.5422 26.62 90.8302 26.62H91.6222V28H90.5302ZM94.8695 28.144C94.3655 28.144 93.9495 28.064 93.6215 27.904C93.2935 27.736 93.0495 27.516 92.8895 27.244C92.7375 26.964 92.6615 26.656 92.6615 26.32C92.6615 25.952 92.7535 25.628 92.9375 25.348C93.1295 25.068 93.4135 24.848 93.7895 24.688C94.1735 24.528 94.6535 24.448 95.2295 24.448H96.7295C96.7295 24.152 96.6895 23.908 96.6095 23.716C96.5295 23.516 96.4055 23.368 96.2375 23.272C96.0695 23.176 95.8455 23.128 95.5655 23.128C95.2615 23.128 95.0015 23.196 94.7855 23.332C94.5775 23.46 94.4495 23.66 94.4015 23.932H92.8295C92.8695 23.5 93.0095 23.128 93.2495 22.816C93.4975 22.496 93.8215 22.248 94.2215 22.072C94.6295 21.896 95.0815 21.808 95.5775 21.808C96.1455 21.808 96.6375 21.904 97.0535 22.096C97.4695 22.288 97.7895 22.564 98.0135 22.924C98.2375 23.284 98.3495 23.728 98.3495 24.256V28H96.9815L96.8015 27.076C96.7135 27.236 96.6095 27.38 96.4895 27.508C96.3695 27.636 96.2295 27.748 96.0695 27.844C95.9095 27.94 95.7295 28.012 95.5295 28.06C95.3295 28.116 95.1095 28.144 94.8695 28.144ZM95.2535 26.896C95.4615 26.896 95.6455 26.86 95.8055 26.788C95.9735 26.708 96.1175 26.604 96.2375 26.476C96.3575 26.34 96.4495 26.188 96.5135 26.02C96.5855 25.844 96.6335 25.656 96.6575 25.456V25.444H95.4215C95.1735 25.444 94.9695 25.476 94.8095 25.54C94.6575 25.596 94.5455 25.68 94.4735 25.792C94.4015 25.904 94.3655 26.032 94.3655 26.176C94.3655 26.336 94.4015 26.468 94.4735 26.572C94.5455 26.676 94.6495 26.756 94.7855 26.812C94.9215 26.868 95.0775 26.896 95.2535 26.896ZM99.6927 28V21.952H101.121L101.241 22.936C101.425 22.6 101.685 22.328 102.021 22.12C102.365 21.912 102.773 21.808 103.245 21.808C103.749 21.808 104.173 21.912 104.517 22.12C104.861 22.328 105.121 22.632 105.297 23.032C105.481 23.432 105.573 23.924 105.573 24.508V28H103.965V24.664C103.965 24.184 103.861 23.816 103.653 23.56C103.453 23.304 103.141 23.176 102.717 23.176C102.445 23.176 102.201 23.24 101.985 23.368C101.777 23.496 101.613 23.68 101.493 23.92C101.373 24.152 101.313 24.436 101.313 24.772V28H99.6927ZM109.655 28C109.231 28 108.859 27.936 108.539 27.808C108.227 27.672 107.983 27.452 107.807 27.148C107.631 26.836 107.543 26.412 107.543 25.876V23.308H106.511V21.952H107.543L107.723 20.308H109.163V21.952H110.759V23.308H109.163V25.9C109.163 26.172 109.223 26.36 109.343 26.464C109.463 26.568 109.667 26.62 109.955 26.62H110.747V28H109.655Z" fill="#E7F9BD"/>
<path d="M0.83 50V42.55H3.46C3.95333 42.55 4.38667 42.6433 4.76 42.83C5.13333 43.0167 5.42333 43.2833 5.63 43.63C5.84333 43.9767 5.95 44.3833 5.95 44.85C5.95 45.3167 5.84333 45.7233 5.63 46.07C5.42333 46.41 5.13333 46.6767 4.76 46.87C4.39333 47.0567 3.96 47.15 3.46 47.15H1.81V50H0.83ZM1.81 46.25H3.49C3.79 46.25 4.05 46.1933 4.27 46.08C4.49 45.9667 4.66 45.8033 4.78 45.59C4.9 45.3767 4.96 45.13 4.96 44.85C4.96 44.5633 4.9 44.3167 4.78 44.11C4.66 43.8967 4.49 43.7333 4.27 43.62C4.05 43.5067 3.79 43.45 3.49 43.45H1.81V46.25ZM9.53 50.12C9.01 50.12 8.54 50 8.12 49.76C7.7 49.5133 7.36667 49.1767 7.12 48.75C6.87333 48.3233 6.75 47.84 6.75 47.3C6.75 46.76 6.87 46.28 7.11 45.86C7.35667 45.44 7.69 45.1067 8.11 44.86C8.53 44.6133 9.00333 44.49 9.53 44.49C10.05 44.49 10.52 44.6133 10.94 44.86C11.36 45.1 11.69 45.43 11.93 45.85C12.1767 46.27 12.3 46.7533 12.3 47.3C12.3 47.8467 12.1733 48.3333 11.92 48.76C11.6667 49.18 11.33 49.5133 10.91 49.76C10.4967 50 10.0367 50.12 9.53 50.12ZM9.53 49.22C9.86333 49.22 10.1633 49.1367 10.43 48.97C10.7033 48.8033 10.9167 48.5733 11.07 48.28C11.23 47.9867 11.31 47.66 11.31 47.3C11.31 46.9333 11.23 46.61 11.07 46.33C10.9167 46.0433 10.7033 45.8167 10.43 45.65C10.1633 45.4767 9.86333 45.39 9.53 45.39C9.19 45.39 8.88333 45.4767 8.61 45.65C8.34333 45.8167 8.13 46.0433 7.97 46.33C7.81 46.61 7.73 46.9333 7.73 47.3C7.73 47.66 7.81 47.9867 7.97 48.28C8.13 48.5733 8.34333 48.8033 8.61 48.97C8.88333 49.1367 9.19 49.22 9.53 49.22ZM15.443 50.12C14.903 50.12 14.433 49.9867 14.033 49.72C13.633 49.4533 13.3496 49.0933 13.183 48.64L13.923 48.28C14.0763 48.6 14.2863 48.8533 14.553 49.04C14.8196 49.2267 15.1163 49.32 15.443 49.32C15.7363 49.32 15.9796 49.25 16.173 49.11C16.3663 48.97 16.463 48.7867 16.463 48.56C16.463 48.4 16.4163 48.2733 16.323 48.18C16.2363 48.08 16.1296 48.0033 16.003 47.95C15.8763 47.89 15.7596 47.8467 15.653 47.82L14.843 47.59C14.3563 47.45 13.9996 47.25 13.773 46.99C13.553 46.73 13.443 46.4267 13.443 46.08C13.443 45.76 13.523 45.4833 13.683 45.25C13.8496 45.01 14.073 44.8233 14.353 44.69C14.6396 44.5567 14.9596 44.49 15.313 44.49C15.7863 44.49 16.2096 44.61 16.583 44.85C16.963 45.09 17.233 45.4267 17.393 45.86L16.633 46.21C16.513 45.93 16.333 45.71 16.093 45.55C15.853 45.3833 15.583 45.3 15.283 45.3C15.0096 45.3 14.793 45.37 14.633 45.51C14.473 45.6433 14.393 45.8133 14.393 46.02C14.393 46.1733 14.433 46.3 14.513 46.4C14.593 46.4933 14.6896 46.5667 14.803 46.62C14.9163 46.6667 15.0263 46.7067 15.133 46.74L16.013 47C16.453 47.1267 16.793 47.3233 17.033 47.59C17.2796 47.8567 17.403 48.1767 17.403 48.55C17.403 48.85 17.3196 49.12 17.153 49.36C16.9863 49.6 16.7563 49.7867 16.463 49.92C16.1696 50.0533 15.8296 50.12 15.443 50.12ZM20.8104 50.06C20.2837 50.06 19.8771 49.91 19.5904 49.61C19.3104 49.31 19.1704 48.8867 19.1704 48.34V45.5H18.1904V44.61H18.3904C18.6304 44.61 18.8204 44.5367 18.9604 44.39C19.1004 44.2433 19.1704 44.05 19.1704 43.81V43.37H20.1004V44.61H21.3104V45.5H20.1004V48.31C20.1004 48.49 20.1271 48.6467 20.1804 48.78C20.2404 48.9133 20.3371 49.02 20.4704 49.1C20.6037 49.1733 20.7804 49.21 21.0004 49.21C21.0471 49.21 21.1037 49.2067 21.1704 49.2C21.2437 49.1933 21.3104 49.1867 21.3704 49.18V50C21.2837 50.02 21.1871 50.0333 21.0804 50.04C20.9737 50.0533 20.8837 50.06 20.8104 50.06ZM22.6552 47.73V46.88H26.4052V47.73H22.6552ZM27.9075 50V42.43H28.8375V50H27.9075ZM32.1905 50.12C31.8039 50.12 31.4539 50.03 31.1405 49.85C30.8339 49.67 30.5939 49.42 30.4205 49.1C30.2539 48.7733 30.1705 48.4 30.1705 47.98V44.61H31.1005V47.88C31.1005 48.1467 31.1539 48.38 31.2605 48.58C31.3739 48.78 31.5272 48.9367 31.7205 49.05C31.9205 49.1633 32.1472 49.22 32.4005 49.22C32.6539 49.22 32.8772 49.1633 33.0705 49.05C33.2705 48.9367 33.4239 48.7733 33.5305 48.56C33.6439 48.3467 33.7005 48.0933 33.7005 47.8V44.61H34.6405V50H33.7305V48.95L33.8805 49.04C33.7539 49.38 33.5372 49.6467 33.2305 49.84C32.9305 50.0267 32.5839 50.12 32.1905 50.12ZM36.0813 50V44.61H36.9913V45.66L36.8413 45.57C36.9747 45.23 37.188 44.9667 37.4813 44.78C37.7813 44.5867 38.1313 44.49 38.5313 44.49C38.918 44.49 39.2613 44.5767 39.5613 44.75C39.868 44.9233 40.108 45.1633 40.2813 45.47C40.4613 45.7767 40.5513 46.1233 40.5513 46.51V50H39.6113V46.81C39.6113 46.51 39.558 46.2567 39.4513 46.05C39.3447 45.8433 39.1913 45.6833 38.9913 45.57C38.798 45.45 38.5747 45.39 38.3213 45.39C38.068 45.39 37.8413 45.45 37.6413 45.57C37.448 45.6833 37.2947 45.8467 37.1813 46.06C37.068 46.2667 37.0113 46.5167 37.0113 46.81V50H36.0813ZM44.3821 50.12C43.8554 50.12 43.3854 49.9967 42.9721 49.75C42.5654 49.5033 42.2454 49.1667 42.0121 48.74C41.7788 48.3133 41.6621 47.8333 41.6621 47.3C41.6621 46.76 41.7788 46.28 42.0121 45.86C42.2454 45.44 42.5654 45.1067 42.9721 44.86C43.3854 44.6133 43.8554 44.49 44.3821 44.49C44.7354 44.49 45.0654 44.5533 45.3721 44.68C45.6788 44.8067 45.9488 44.9767 46.1821 45.19C46.4154 45.4033 46.5854 45.6533 46.6921 45.94L45.8621 46.34C45.7354 46.06 45.5421 45.8333 45.2821 45.66C45.0221 45.48 44.7221 45.39 44.3821 45.39C44.0554 45.39 43.7588 45.4733 43.4921 45.64C43.2321 45.8067 43.0254 46.0333 42.8721 46.32C42.7188 46.6067 42.6421 46.9367 42.6421 47.31C42.6421 47.67 42.7188 47.9967 42.8721 48.29C43.0254 48.5767 43.2321 48.8033 43.4921 48.97C43.7588 49.1367 44.0554 49.22 44.3821 49.22C44.7221 49.22 45.0221 49.1333 45.2821 48.96C45.5421 48.78 45.7354 48.5433 45.8621 48.25L46.6921 48.67C46.5854 48.95 46.4154 49.2 46.1821 49.42C45.9488 49.6333 45.6788 49.8033 45.3721 49.93C45.0654 50.0567 44.7354 50.12 44.3821 50.12ZM47.9075 50V42.43H48.8375V45.66L48.6675 45.57C48.8008 45.23 49.0142 44.9667 49.3075 44.78C49.6075 44.5867 49.9575 44.49 50.3575 44.49C50.7442 44.49 51.0875 44.5767 51.3875 44.75C51.6942 44.9233 51.9342 45.1633 52.1075 45.47C52.2875 45.7767 52.3775 46.1233 52.3775 46.51V50H51.4375V46.81C51.4375 46.51 51.3808 46.2567 51.2675 46.05C51.1608 45.8433 51.0108 45.6833 50.8175 45.57C50.6242 45.45 50.4008 45.39 50.1475 45.39C49.9008 45.39 49.6775 45.45 49.4775 45.57C49.2775 45.6833 49.1208 45.8467 49.0075 46.06C48.8942 46.2667 48.8375 46.5167 48.8375 46.81V50H47.9075ZM58.0068 52.2C57.6268 52.2 57.2735 52.14 56.9468 52.02C56.6268 51.9 56.3501 51.7333 56.1168 51.52C55.8901 51.3133 55.7168 51.07 55.5968 50.79L56.4668 50.39C56.5601 50.6433 56.7368 50.8567 56.9968 51.03C57.2635 51.21 57.5968 51.3 57.9968 51.3C58.3035 51.3 58.5801 51.24 58.8268 51.12C59.0801 51.0067 59.2801 50.8333 59.4268 50.6C59.5735 50.3733 59.6468 50.0967 59.6468 49.77V48.56L59.8168 48.74C59.6301 49.1067 59.3601 49.3867 59.0068 49.58C58.6601 49.7733 58.2768 49.87 57.8568 49.87C57.3501 49.87 56.8968 49.7533 56.4968 49.52C56.0968 49.28 55.7835 48.9567 55.5568 48.55C55.3301 48.1367 55.2168 47.68 55.2168 47.18C55.2168 46.6733 55.3301 46.2167 55.5568 45.81C55.7835 45.4033 56.0935 45.0833 56.4868 44.85C56.8868 44.61 57.3401 44.49 57.8468 44.49C58.2668 44.49 58.6468 44.5867 58.9868 44.78C59.3335 44.9667 59.6101 45.2267 59.8168 45.56L59.6768 45.81V44.61H60.5868V49.77C60.5868 50.2367 60.4768 50.6533 60.2568 51.02C60.0368 51.3867 59.7301 51.6733 59.3368 51.88C58.9501 52.0933 58.5068 52.2 58.0068 52.2ZM57.9368 48.97C58.2568 48.97 58.5435 48.89 58.7968 48.73C59.0568 48.57 59.2635 48.3567 59.4168 48.09C59.5701 47.8167 59.6468 47.5133 59.6468 47.18C59.6468 46.8533 59.5701 46.5533 59.4168 46.28C59.2635 46.0067 59.0568 45.79 58.7968 45.63C58.5435 45.47 58.2568 45.39 57.9368 45.39C57.6101 45.39 57.3135 45.47 57.0468 45.63C56.7801 45.79 56.5701 46.0067 56.4168 46.28C56.2701 46.5467 56.1968 46.8467 56.1968 47.18C56.1968 47.5133 56.2701 47.8167 56.4168 48.09C56.5701 48.3567 56.7768 48.57 57.0368 48.73C57.3035 48.89 57.6035 48.97 57.9368 48.97ZM62.0286 50V42.43H62.9586V50H62.0286ZM66.3116 50.12C65.925 50.12 65.575 50.03 65.2616 49.85C64.955 49.67 64.715 49.42 64.5416 49.1C64.375 48.7733 64.2916 48.4 64.2916 47.98V44.61H65.2216V47.88C65.2216 48.1467 65.275 48.38 65.3816 48.58C65.495 48.78 65.6483 48.9367 65.8416 49.05C66.0416 49.1633 66.2683 49.22 66.5216 49.22C66.775 49.22 66.9983 49.1633 67.1916 49.05C67.3916 48.9367 67.545 48.7733 67.6516 48.56C67.765 48.3467 67.8216 48.0933 67.8216 47.8V44.61H68.7616V50H67.8516V48.95L68.0016 49.04C67.875 49.38 67.6583 49.6467 67.3516 49.84C67.0516 50.0267 66.705 50.12 66.3116 50.12ZM72.7024 50.12C72.1758 50.12 71.7058 49.9967 71.2924 49.75C70.8858 49.5033 70.5658 49.1667 70.3324 48.74C70.0991 48.3133 69.9824 47.8333 69.9824 47.3C69.9824 46.76 70.0991 46.28 70.3324 45.86C70.5658 45.44 70.8858 45.1067 71.2924 44.86C71.7058 44.6133 72.1758 44.49 72.7024 44.49C73.0558 44.49 73.3858 44.5533 73.6924 44.68C73.9991 44.8067 74.2691 44.9767 74.5024 45.19C74.7358 45.4033 74.9058 45.6533 75.0124 45.94L74.1824 46.34C74.0558 46.06 73.8624 45.8333 73.6024 45.66C73.3424 45.48 73.0424 45.39 72.7024 45.39C72.3758 45.39 72.0791 45.4733 71.8124 45.64C71.5524 45.8067 71.3458 46.0333 71.1924 46.32C71.0391 46.6067 70.9624 46.9367 70.9624 47.31C70.9624 47.67 71.0391 47.9967 71.1924 48.29C71.3458 48.5767 71.5524 48.8033 71.8124 48.97C72.0791 49.1367 72.3758 49.22 72.7024 49.22C73.0424 49.22 73.3424 49.1333 73.6024 48.96C73.8624 48.78 74.0558 48.5433 74.1824 48.25L75.0124 48.67C74.9058 48.95 74.7358 49.2 74.5024 49.42C74.2691 49.6333 73.9991 49.8033 73.6924 49.93C73.3858 50.0567 73.0558 50.12 72.7024 50.12ZM78.7878 50.12C78.2678 50.12 77.7978 50 77.3778 49.76C76.9578 49.5133 76.6245 49.1767 76.3778 48.75C76.1311 48.3233 76.0078 47.84 76.0078 47.3C76.0078 46.76 76.1278 46.28 76.3678 45.86C76.6145 45.44 76.9478 45.1067 77.3678 44.86C77.7878 44.6133 78.2611 44.49 78.7878 44.49C79.3078 44.49 79.7778 44.6133 80.1978 44.86C80.6178 45.1 80.9478 45.43 81.1878 45.85C81.4345 46.27 81.5578 46.7533 81.5578 47.3C81.5578 47.8467 81.4311 48.3333 81.1778 48.76C80.9245 49.18 80.5878 49.5133 80.1678 49.76C79.7545 50 79.2945 50.12 78.7878 50.12ZM78.7878 49.22C79.1211 49.22 79.4211 49.1367 79.6878 48.97C79.9611 48.8033 80.1745 48.5733 80.3278 48.28C80.4878 47.9867 80.5678 47.66 80.5678 47.3C80.5678 46.9333 80.4878 46.61 80.3278 46.33C80.1745 46.0433 79.9611 45.8167 79.6878 45.65C79.4211 45.4767 79.1211 45.39 78.7878 45.39C78.4478 45.39 78.1411 45.4767 77.8678 45.65C77.6011 45.8167 77.3878 46.0433 77.2278 46.33C77.0678 46.61 76.9878 46.9333 76.9878 47.3C76.9878 47.66 77.0678 47.9867 77.2278 48.28C77.3878 48.5733 77.6011 48.8033 77.8678 48.97C78.1411 49.1367 78.4478 49.22 78.7878 49.22ZM84.7008 50.12C84.1608 50.12 83.6908 49.9867 83.2908 49.72C82.8908 49.4533 82.6074 49.0933 82.4408 48.64L83.1808 48.28C83.3341 48.6 83.5441 48.8533 83.8108 49.04C84.0774 49.2267 84.3741 49.32 84.7008 49.32C84.9941 49.32 85.2374 49.25 85.4308 49.11C85.6241 48.97 85.7208 48.7867 85.7208 48.56C85.7208 48.4 85.6741 48.2733 85.5808 48.18C85.4941 48.08 85.3874 48.0033 85.2608 47.95C85.1341 47.89 85.0174 47.8467 84.9108 47.82L84.1008 47.59C83.6141 47.45 83.2574 47.25 83.0308 46.99C82.8108 46.73 82.7008 46.4267 82.7008 46.08C82.7008 45.76 82.7808 45.4833 82.9408 45.25C83.1074 45.01 83.3308 44.8233 83.6108 44.69C83.8974 44.5567 84.2174 44.49 84.5708 44.49C85.0441 44.49 85.4674 44.61 85.8408 44.85C86.2208 45.09 86.4908 45.4267 86.6508 45.86L85.8908 46.21C85.7708 45.93 85.5908 45.71 85.3508 45.55C85.1108 45.3833 84.8408 45.3 84.5408 45.3C84.2674 45.3 84.0508 45.37 83.8908 45.51C83.7308 45.6433 83.6508 45.8133 83.6508 46.02C83.6508 46.1733 83.6908 46.3 83.7708 46.4C83.8508 46.4933 83.9474 46.5667 84.0608 46.62C84.1741 46.6667 84.2841 46.7067 84.3908 46.74L85.2708 47C85.7108 47.1267 86.0508 47.3233 86.2908 47.59C86.5374 47.8567 86.6608 48.1767 86.6608 48.55C86.6608 48.85 86.5774 49.12 86.4108 49.36C86.2441 49.6 86.0141 49.7867 85.7208 49.92C85.4274 50.0533 85.0874 50.12 84.7008 50.12ZM90.3582 50.12C89.8382 50.12 89.3749 49.9967 88.9682 49.75C88.5615 49.5033 88.2415 49.1667 88.0082 48.74C87.7749 48.3067 87.6582 47.8233 87.6582 47.29C87.6582 46.75 87.7715 46.27 87.9982 45.85C88.2315 45.43 88.5449 45.1 88.9382 44.86C89.3382 44.6133 89.7849 44.49 90.2782 44.49C90.6782 44.49 91.0315 44.5633 91.3382 44.71C91.6515 44.85 91.9149 45.0433 92.1282 45.29C92.3482 45.53 92.5149 45.8067 92.6282 46.12C92.7482 46.4267 92.8082 46.7467 92.8082 47.08C92.8082 47.1533 92.8015 47.2367 92.7882 47.33C92.7815 47.4167 92.7715 47.5 92.7582 47.58H88.3382V46.78H92.2182L91.7782 47.14C91.8382 46.7933 91.8049 46.4833 91.6782 46.21C91.5515 45.9367 91.3649 45.72 91.1182 45.56C90.8715 45.4 90.5915 45.32 90.2782 45.32C89.9649 45.32 89.6782 45.4 89.4182 45.56C89.1582 45.72 88.9549 45.95 88.8082 46.25C88.6682 46.5433 88.6115 46.8933 88.6382 47.3C88.6115 47.6933 88.6715 48.04 88.8182 48.34C88.9715 48.6333 89.1849 48.8633 89.4582 49.03C89.7382 49.19 90.0415 49.27 90.3682 49.27C90.7282 49.27 91.0315 49.1867 91.2782 49.02C91.5249 48.8533 91.7249 48.64 91.8782 48.38L92.6582 48.78C92.5515 49.0267 92.3849 49.2533 92.1582 49.46C91.9382 49.66 91.6749 49.82 91.3682 49.94C91.0682 50.06 90.7315 50.12 90.3582 50.12ZM95.7493 50V44.61H96.6793V50H95.7493ZM95.7493 43.75V42.55H96.6793V43.75H95.7493ZM100.052 50.12C99.5123 50.12 99.0423 49.9867 98.6423 49.72C98.2423 49.4533 97.959 49.0933 97.7923 48.64L98.5323 48.28C98.6857 48.6 98.8957 48.8533 99.1623 49.04C99.429 49.2267 99.7257 49.32 100.052 49.32C100.346 49.32 100.589 49.25 100.782 49.11C100.976 48.97 101.072 48.7867 101.072 48.56C101.072 48.4 101.026 48.2733 100.932 48.18C100.846 48.08 100.739 48.0033 100.612 47.95C100.486 47.89 100.369 47.8467 100.262 47.82L99.4523 47.59C98.9657 47.45 98.609 47.25 98.3823 46.99C98.1623 46.73 98.0523 46.4267 98.0523 46.08C98.0523 45.76 98.1323 45.4833 98.2923 45.25C98.459 45.01 98.6823 44.8233 98.9623 44.69C99.249 44.5567 99.569 44.49 99.9223 44.49C100.396 44.49 100.819 44.61 101.192 44.85C101.572 45.09 101.842 45.4267 102.002 45.86L101.242 46.21C101.122 45.93 100.942 45.71 100.702 45.55C100.462 45.3833 100.192 45.3 99.8923 45.3C99.619 45.3 99.4023 45.37 99.2423 45.51C99.0823 45.6433 99.0023 45.8133 99.0023 46.02C99.0023 46.1733 99.0423 46.3 99.1223 46.4C99.2023 46.4933 99.299 46.5667 99.4123 46.62C99.5257 46.6667 99.6357 46.7067 99.7423 46.74L100.622 47C101.062 47.1267 101.402 47.3233 101.642 47.59C101.889 47.8567 102.012 48.1767 102.012 48.55C102.012 48.85 101.929 49.12 101.762 49.36C101.596 49.6 101.366 49.7867 101.072 49.92C100.779 50.0533 100.439 50.12 100.052 50.12ZM104.958 50V42.43H105.888V45.66L105.718 45.57C105.852 45.23 106.065 44.9667 106.358 44.78C106.658 44.5867 107.008 44.49 107.408 44.49C107.795 44.49 108.138 44.5767 108.438 44.75C108.745 44.9233 108.985 45.1633 109.158 45.47C109.338 45.7767 109.428 46.1233 109.428 46.51V50H108.488V46.81C108.488 46.51 108.432 46.2567 108.318 46.05C108.212 45.8433 108.062 45.6833 107.868 45.57C107.675 45.45 107.452 45.39 107.198 45.39C106.952 45.39 106.728 45.45 106.528 45.57C106.328 45.6833 106.172 45.8467 106.058 46.06C105.945 46.2667 105.888 46.5167 105.888 46.81V50H104.958ZM110.759 50V44.61H111.689V50H110.759ZM110.759 43.75V42.55H111.689V43.75H110.759ZM115.702 52.2C115.322 52.2 114.969 52.14 114.642 52.02C114.322 51.9 114.045 51.7333 113.812 51.52C113.585 51.3133 113.412 51.07 113.292 50.79L114.162 50.39C114.255 50.6433 114.432 50.8567 114.692 51.03C114.959 51.21 115.292 51.3 115.692 51.3C115.999 51.3 116.275 51.24 116.522 51.12C116.775 51.0067 116.975 50.8333 117.122 50.6C117.269 50.3733 117.342 50.0967 117.342 49.77V48.56L117.512 48.74C117.325 49.1067 117.055 49.3867 116.702 49.58C116.355 49.7733 115.972 49.87 115.552 49.87C115.045 49.87 114.592 49.7533 114.192 49.52C113.792 49.28 113.479 48.9567 113.252 48.55C113.025 48.1367 112.912 47.68 112.912 47.18C112.912 46.6733 113.025 46.2167 113.252 45.81C113.479 45.4033 113.789 45.0833 114.182 44.85C114.582 44.61 115.035 44.49 115.542 44.49C115.962 44.49 116.342 44.5867 116.682 44.78C117.029 44.9667 117.305 45.2267 117.512 45.56L117.372 45.81V44.61H118.282V49.77C118.282 50.2367 118.172 50.6533 117.952 51.02C117.732 51.3867 117.425 51.6733 117.032 51.88C116.645 52.0933 116.202 52.2 115.702 52.2ZM115.632 48.97C115.952 48.97 116.239 48.89 116.492 48.73C116.752 48.57 116.959 48.3567 117.112 48.09C117.265 47.8167 117.342 47.5133 117.342 47.18C117.342 46.8533 117.265 46.5533 117.112 46.28C116.959 46.0067 116.752 45.79 116.492 45.63C116.239 45.47 115.952 45.39 115.632 45.39C115.305 45.39 115.009 45.47 114.742 45.63C114.475 45.79 114.265 46.0067 114.112 46.28C113.965 46.5467 113.892 46.8467 113.892 47.18C113.892 47.5133 113.965 47.8167 114.112 48.09C114.265 48.3567 114.472 48.57 114.732 48.73C114.999 48.89 115.299 48.97 115.632 48.97ZM119.724 50V42.43H120.654V45.66L120.484 45.57C120.617 45.23 120.831 44.9667 121.124 44.78C121.424 44.5867 121.774 44.49 122.174 44.49C122.561 44.49 122.904 44.5767 123.204 44.75C123.511 44.9233 123.751 45.1633 123.924 45.47C124.104 45.7767 124.194 46.1233 124.194 46.51V50H123.254V46.81C123.254 46.51 123.197 46.2567 123.084 46.05C122.977 45.8433 122.827 45.6833 122.634 45.57C122.441 45.45 122.217 45.39 121.964 45.39C121.717 45.39 121.494 45.45 121.294 45.57C121.094 45.6833 120.937 45.8467 120.824 46.06C120.711 46.2667 120.654 46.5167 120.654 46.81V50H119.724ZM127.323 47.73V46.88H131.073V47.73H127.323ZM0.72 64V56.43H1.65V64H0.72ZM5.57305 64.12C5.05305 64.12 4.58971 63.9967 4.18305 63.75C3.77638 63.5033 3.45638 63.1667 3.22305 62.74C2.98971 62.3067 2.87305 61.8233 2.87305 61.29C2.87305 60.75 2.98638 60.27 3.21305 59.85C3.44638 59.43 3.75971 59.1 4.15305 58.86C4.55305 58.6133 4.99971 58.49 5.49305 58.49C5.89305 58.49 6.24638 58.5633 6.55305 58.71C6.86638 58.85 7.12971 59.0433 7.34305 59.29C7.56305 59.53 7.72971 59.8067 7.84305 60.12C7.96305 60.4267 8.02305 60.7467 8.02305 61.08C8.02305 61.1533 8.01638 61.2367 8.00305 61.33C7.99638 61.4167 7.98638 61.5 7.97305 61.58H3.55305V60.78H7.43305L6.99305 61.14C7.05305 60.7933 7.01971 60.4833 6.89305 60.21C6.76638 59.9367 6.57971 59.72 6.33305 59.56C6.08638 59.4 5.80638 59.32 5.49305 59.32C5.17971 59.32 4.89305 59.4 4.63305 59.56C4.37305 59.72 4.16971 59.95 4.02305 60.25C3.88305 60.5433 3.82638 60.8933 3.85305 61.3C3.82638 61.6933 3.88638 62.04 4.03305 62.34C4.18638 62.6333 4.39971 62.8633 4.67305 63.03C4.95305 63.19 5.25638 63.27 5.58305 63.27C5.94305 63.27 6.24638 63.1867 6.49305 63.02C6.73971 62.8533 6.93971 62.64 7.09305 62.38L7.87305 62.78C7.76638 63.0267 7.59971 63.2533 7.37305 63.46C7.15305 63.66 6.88971 63.82 6.58305 63.94C6.28305 64.06 5.94638 64.12 5.57305 64.12ZM11.4256 64.06C10.899 64.06 10.4923 63.91 10.2056 63.61C9.92563 63.31 9.78563 62.8867 9.78563 62.34V59.5H8.80563V58.61H9.00563C9.24563 58.61 9.43563 58.5367 9.57563 58.39C9.71563 58.2433 9.78563 58.05 9.78563 57.81V57.37H10.7156V58.61H11.9256V59.5H10.7156V62.31C10.7156 62.49 10.7423 62.6467 10.7956 62.78C10.8556 62.9133 10.9523 63.02 11.0856 63.1C11.219 63.1733 11.3956 63.21 11.6156 63.21C11.6623 63.21 11.719 63.2067 11.7856 63.2C11.859 63.1933 11.9256 63.1867 11.9856 63.18V64C11.899 64.02 11.8023 64.0333 11.6956 64.04C11.589 64.0533 11.499 64.06 11.4256 64.06ZM13.3605 59.04V58.59C13.5671 58.5367 13.7205 58.44 13.8205 58.3C13.9271 58.1533 13.9905 57.97 14.0105 57.75H13.5605V56.55H14.5305V57.4C14.5305 57.8333 14.4305 58.1933 14.2305 58.48C14.0371 58.76 13.7471 58.9467 13.3605 59.04ZM18.1188 64.12C17.5788 64.12 17.1088 63.9867 16.7088 63.72C16.3088 63.4533 16.0254 63.0933 15.8588 62.64L16.5988 62.28C16.7521 62.6 16.9621 62.8533 17.2288 63.04C17.4954 63.2267 17.7921 63.32 18.1188 63.32C18.4121 63.32 18.6554 63.25 18.8488 63.11C19.0421 62.97 19.1388 62.7867 19.1388 62.56C19.1388 62.4 19.0921 62.2733 18.9988 62.18C18.9121 62.08 18.8054 62.0033 18.6788 61.95C18.5521 61.89 18.4354 61.8467 18.3288 61.82L17.5188 61.59C17.0321 61.45 16.6754 61.25 16.4488 60.99C16.2288 60.73 16.1188 60.4267 16.1188 60.08C16.1188 59.76 16.1988 59.4833 16.3588 59.25C16.5254 59.01 16.7488 58.8233 17.0288 58.69C17.3154 58.5567 17.6354 58.49 17.9888 58.49C18.4621 58.49 18.8854 58.61 19.2588 58.85C19.6388 59.09 19.9088 59.4267 20.0688 59.86L19.3088 60.21C19.1888 59.93 19.0088 59.71 18.7688 59.55C18.5288 59.3833 18.2588 59.3 17.9588 59.3C17.6854 59.3 17.4688 59.37 17.3088 59.51C17.1488 59.6433 17.0688 59.8133 17.0688 60.02C17.0688 60.1733 17.1088 60.3 17.1888 60.4C17.2688 60.4933 17.3654 60.5667 17.4788 60.62C17.5921 60.6667 17.7021 60.7067 17.8088 60.74L18.6888 61C19.1288 61.1267 19.4688 61.3233 19.7088 61.59C19.9554 61.8567 20.0788 62.1767 20.0788 62.55C20.0788 62.85 19.9954 63.12 19.8288 63.36C19.6621 63.6 19.4321 63.7867 19.1388 63.92C18.8454 64.0533 18.5054 64.12 18.1188 64.12ZM25.2147 64.06C24.688 64.06 24.2814 63.91 23.9947 63.61C23.7147 63.31 23.5747 62.8867 23.5747 62.34V59.5H22.5947V58.61H22.7947C23.0347 58.61 23.2247 58.5367 23.3647 58.39C23.5047 58.2433 23.5747 58.05 23.5747 57.81V57.37H24.5047V58.61H25.7147V59.5H24.5047V62.31C24.5047 62.49 24.5314 62.6467 24.5847 62.78C24.6447 62.9133 24.7414 63.02 24.8747 63.1C25.008 63.1733 25.1847 63.21 25.4047 63.21C25.4514 63.21 25.508 63.2067 25.5747 63.2C25.648 63.1933 25.7147 63.1867 25.7747 63.18V64C25.688 64.02 25.5914 64.0333 25.4847 64.04C25.378 64.0533 25.288 64.06 25.2147 64.06ZM28.5012 64.12C28.1478 64.12 27.8345 64.0567 27.5612 63.93C27.2945 63.7967 27.0845 63.6167 26.9312 63.39C26.7778 63.1567 26.7012 62.89 26.7012 62.59C26.7012 62.3033 26.7612 62.0467 26.8812 61.82C27.0078 61.5867 27.2012 61.39 27.4612 61.23C27.7278 61.07 28.0612 60.9567 28.4612 60.89L30.4612 60.56V61.34L28.6712 61.64C28.3245 61.7 28.0712 61.81 27.9112 61.97C27.7578 62.13 27.6812 62.3267 27.6812 62.56C27.6812 62.78 27.7678 62.9633 27.9412 63.11C28.1212 63.2567 28.3445 63.33 28.6112 63.33C28.9512 63.33 29.2445 63.26 29.4912 63.12C29.7445 62.9733 29.9412 62.7767 30.0812 62.53C30.2278 62.2833 30.3012 62.01 30.3012 61.71V60.34C30.3012 60.0467 30.1912 59.81 29.9712 59.63C29.7578 59.4433 29.4745 59.35 29.1212 59.35C28.8145 59.35 28.5412 59.43 28.3012 59.59C28.0678 59.7433 27.8945 59.95 27.7812 60.21L26.9712 59.79C27.0712 59.5433 27.2312 59.3233 27.4512 59.13C27.6712 58.93 27.9278 58.7733 28.2212 58.66C28.5145 58.5467 28.8212 58.49 29.1412 58.49C29.5545 58.49 29.9178 58.57 30.2312 58.73C30.5445 58.8833 30.7878 59.1 30.9612 59.38C31.1412 59.6533 31.2312 59.9733 31.2312 60.34V64H30.3212V62.98L30.4912 63.04C30.3778 63.2533 30.2245 63.44 30.0312 63.6C29.8378 63.76 29.6112 63.8867 29.3512 63.98C29.0912 64.0733 28.8078 64.12 28.5012 64.12ZM32.6731 64V56.43H33.6031V61.62L33.2231 61.53L36.0831 58.61H37.2731L35.2031 60.78L37.4131 64H36.3131L34.2931 61.08L34.8731 61.05L33.3031 62.69L33.6031 62.01V64H32.6731ZM40.6316 64.12C40.1116 64.12 39.6483 63.9967 39.2416 63.75C38.835 63.5033 38.515 63.1667 38.2816 62.74C38.0483 62.3067 37.9316 61.8233 37.9316 61.29C37.9316 60.75 38.045 60.27 38.2716 59.85C38.505 59.43 38.8183 59.1 39.2116 58.86C39.6116 58.6133 40.0583 58.49 40.5516 58.49C40.9516 58.49 41.305 58.5633 41.6116 58.71C41.925 58.85 42.1883 59.0433 42.4016 59.29C42.6216 59.53 42.7883 59.8067 42.9016 60.12C43.0216 60.4267 43.0816 60.7467 43.0816 61.08C43.0816 61.1533 43.075 61.2367 43.0616 61.33C43.055 61.4167 43.045 61.5 43.0316 61.58H38.6116V60.78H42.4916L42.0516 61.14C42.1116 60.7933 42.0783 60.4833 41.9516 60.21C41.825 59.9367 41.6383 59.72 41.3916 59.56C41.145 59.4 40.865 59.32 40.5516 59.32C40.2383 59.32 39.9516 59.4 39.6916 59.56C39.4316 59.72 39.2283 59.95 39.0816 60.25C38.9416 60.5433 38.885 60.8933 38.9116 61.3C38.885 61.6933 38.945 62.04 39.0916 62.34C39.245 62.6333 39.4583 62.8633 39.7316 63.03C40.0116 63.19 40.315 63.27 40.6416 63.27C41.0016 63.27 41.305 63.1867 41.5516 63.02C41.7983 62.8533 41.9983 62.64 42.1516 62.38L42.9316 62.78C42.825 63.0267 42.6583 63.2533 42.4316 63.46C42.2116 63.66 41.9483 63.82 41.6416 63.94C41.3416 64.06 41.005 64.12 40.6316 64.12ZM47.6027 64.12C47.2494 64.12 46.9361 64.0567 46.6627 63.93C46.3961 63.7967 46.1861 63.6167 46.0327 63.39C45.8794 63.1567 45.8027 62.89 45.8027 62.59C45.8027 62.3033 45.8627 62.0467 45.9827 61.82C46.1094 61.5867 46.3027 61.39 46.5627 61.23C46.8294 61.07 47.1627 60.9567 47.5627 60.89L49.5627 60.56V61.34L47.7727 61.64C47.4261 61.7 47.1727 61.81 47.0127 61.97C46.8594 62.13 46.7827 62.3267 46.7827 62.56C46.7827 62.78 46.8694 62.9633 47.0427 63.11C47.2227 63.2567 47.4461 63.33 47.7127 63.33C48.0527 63.33 48.3461 63.26 48.5927 63.12C48.8461 62.9733 49.0427 62.7767 49.1827 62.53C49.3294 62.2833 49.4027 62.01 49.4027 61.71V60.34C49.4027 60.0467 49.2927 59.81 49.0727 59.63C48.8594 59.4433 48.5761 59.35 48.2227 59.35C47.9161 59.35 47.6427 59.43 47.4027 59.59C47.1694 59.7433 46.9961 59.95 46.8827 60.21L46.0727 59.79C46.1727 59.5433 46.3327 59.3233 46.5527 59.13C46.7727 58.93 47.0294 58.7733 47.3227 58.66C47.6161 58.5467 47.9227 58.49 48.2427 58.49C48.6561 58.49 49.0194 58.57 49.3327 58.73C49.6461 58.8833 49.8894 59.1 50.0627 59.38C50.2427 59.6533 50.3327 59.9733 50.3327 60.34V64H49.4227V62.98L49.5927 63.04C49.4794 63.2533 49.3261 63.44 49.1327 63.6C48.9394 63.76 48.7127 63.8867 48.4527 63.98C48.1927 64.0733 47.9094 64.12 47.6027 64.12Z" fill="white"/>
<path d="M54.5632 64V57.4H53.1532V56.55H55.5532V64H54.5632ZM59.6016 64.12C59.2149 64.12 58.8516 64.0533 58.5116 63.92C58.1716 63.78 57.8749 63.5833 57.6216 63.33C57.3749 63.07 57.1949 62.7667 57.0816 62.42L57.8816 62.08C58.0216 62.4467 58.2482 62.7333 58.5616 62.94C58.8816 63.14 59.2282 63.24 59.6016 63.24C59.9082 63.24 60.1782 63.1733 60.4116 63.04C60.6516 62.9 60.8382 62.71 60.9716 62.47C61.1049 62.2233 61.1716 61.95 61.1716 61.65C61.1716 61.3367 61.1016 61.06 60.9616 60.82C60.8282 60.58 60.6449 60.3933 60.4116 60.26C60.1782 60.12 59.9116 60.05 59.6116 60.05C59.3049 60.05 59.0249 60.12 58.7716 60.26C58.5182 60.4 58.3349 60.5767 58.2216 60.79L57.4316 60.62L58.0016 56.55H61.8616V57.4H58.3716L58.7516 57.02L58.3116 60.18L57.9716 59.98C58.1916 59.7 58.4482 59.5 58.7416 59.38C59.0416 59.2533 59.3649 59.19 59.7116 59.19C60.1982 59.19 60.6249 59.3 60.9916 59.52C61.3582 59.74 61.6449 60.0333 61.8516 60.4C62.0582 60.7667 62.1616 61.1833 62.1616 61.65C62.1616 62.1167 62.0482 62.5367 61.8216 62.91C61.6016 63.2833 61.2982 63.58 60.9116 63.8C60.5316 64.0133 60.0949 64.12 59.6016 64.12ZM63.6337 61.93V61.06H68.1337V61.93H63.6337ZM69.7239 64V58.61H70.6339V59.71L70.5039 59.54C70.6372 59.2 70.8506 58.94 71.1439 58.76C71.4372 58.58 71.7672 58.49 72.1339 58.49C72.5539 58.49 72.9306 58.6067 73.2639 58.84C73.6039 59.0733 73.8372 59.38 73.9639 59.76L73.7039 59.77C73.8439 59.35 74.0806 59.0333 74.4139 58.82C74.7472 58.6 75.1172 58.49 75.5239 58.49C75.8972 58.49 76.2339 58.5767 76.5339 58.75C76.8406 58.9233 77.0839 59.1633 77.2639 59.47C77.4439 59.7767 77.5339 60.1233 77.5339 60.51V64H76.5939V60.81C76.5939 60.51 76.5406 60.2567 76.4339 60.05C76.3272 59.8433 76.1806 59.6833 75.9939 59.57C75.8139 59.45 75.6006 59.39 75.3539 59.39C75.1139 59.39 74.8972 59.45 74.7039 59.57C74.5172 59.6833 74.3672 59.8467 74.2539 60.06C74.1472 60.2667 74.0939 60.5167 74.0939 60.81V64H73.1539V60.81C73.1539 60.51 73.1006 60.2567 72.9939 60.05C72.8872 59.8433 72.7406 59.6833 72.5539 59.57C72.3739 59.45 72.1606 59.39 71.9139 59.39C71.6739 59.39 71.4572 59.45 71.2639 59.57C71.0772 59.6833 70.9272 59.8467 70.8139 60.06C70.7072 60.2667 70.6539 60.5167 70.6539 60.81V64H69.7239ZM78.8548 64V58.61H79.7848V64H78.8548ZM78.8548 57.75V56.55H79.7848V57.75H78.8548ZM81.2278 64V58.61H82.1378V59.66L81.9878 59.57C82.1211 59.23 82.3345 58.9667 82.6278 58.78C82.9278 58.5867 83.2778 58.49 83.6778 58.49C84.0645 58.49 84.4078 58.5767 84.7078 58.75C85.0145 58.9233 85.2545 59.1633 85.4278 59.47C85.6078 59.7767 85.6978 60.1233 85.6978 60.51V64H84.7578V60.81C84.7578 60.51 84.7045 60.2567 84.5978 60.05C84.4911 59.8433 84.3378 59.6833 84.1378 59.57C83.9445 59.45 83.7211 59.39 83.4678 59.39C83.2145 59.39 82.9878 59.45 82.7878 59.57C82.5945 59.6833 82.4411 59.8467 82.3278 60.06C82.2145 60.2667 82.1578 60.5167 82.1578 60.81V64H81.2278ZM89.9971 64L88.1471 58.61H89.1771L90.6471 63.12L90.2871 63.11L91.7271 58.61H92.6071L94.0471 63.11L93.6871 63.12L95.1671 58.61H96.1871L94.3371 64H93.4471L92.0271 59.5H92.3071L90.8871 64H89.9971ZM98.4035 64.12C98.0502 64.12 97.7368 64.0567 97.4635 63.93C97.1968 63.7967 96.9868 63.6167 96.8335 63.39C96.6802 63.1567 96.6035 62.89 96.6035 62.59C96.6035 62.3033 96.6635 62.0467 96.7835 61.82C96.9102 61.5867 97.1035 61.39 97.3635 61.23C97.6302 61.07 97.9635 60.9567 98.3635 60.89L100.364 60.56V61.34L98.5735 61.64C98.2268 61.7 97.9735 61.81 97.8135 61.97C97.6602 62.13 97.5835 62.3267 97.5835 62.56C97.5835 62.78 97.6702 62.9633 97.8435 63.11C98.0235 63.2567 98.2468 63.33 98.5135 63.33C98.8535 63.33 99.1468 63.26 99.3935 63.12C99.6468 62.9733 99.8435 62.7767 99.9835 62.53C100.13 62.2833 100.204 62.01 100.204 61.71V60.34C100.204 60.0467 100.094 59.81 99.8735 59.63C99.6602 59.4433 99.3768 59.35 99.0235 59.35C98.7168 59.35 98.4435 59.43 98.2035 59.59C97.9702 59.7433 97.7968 59.95 97.6835 60.21L96.8735 59.79C96.9735 59.5433 97.1335 59.3233 97.3535 59.13C97.5735 58.93 97.8302 58.7733 98.1235 58.66C98.4168 58.5467 98.7235 58.49 99.0435 58.49C99.4568 58.49 99.8202 58.57 100.134 58.73C100.447 58.8833 100.69 59.1 100.864 59.38C101.044 59.6533 101.134 59.9733 101.134 60.34V64H100.224V62.98L100.394 63.04C100.28 63.2533 100.127 63.44 99.9335 63.6C99.7402 63.76 99.5135 63.8867 99.2535 63.98C98.9935 64.0733 98.7102 64.12 98.4035 64.12ZM102.575 64V56.43H103.505V64H102.575ZM104.949 64V56.43H105.879V61.62L105.499 61.53L108.359 58.61H109.549L107.479 60.78L109.689 64H108.589L106.569 61.08L107.149 61.05L105.579 62.69L105.879 62.01V64H104.949ZM110.905 64V62.8H111.875V64H110.905Z" fill="#E7F9BD"/>
</svg>
