<svg width="158" height="92" viewBox="0 0 158 92" fill="none" xmlns="http://www.w3.org/2000/svg">
<rect width="24" height="24" rx="12" fill="#FFDAD6"/>
<path d="M6.35938 17.1705L11.9999 6.8295L17.6405 17.1705H6.35938ZM8.12846 16.082H15.8714L11.9999 9.00655L8.12846 16.082ZM11.9999 15.5377C12.1452 15.5377 12.267 15.4856 12.3653 15.3812C12.4636 15.2769 12.5127 15.1477 12.5127 14.9935C12.5127 14.8392 12.4636 14.71 12.3653 14.6057C12.267 14.5014 12.1452 14.4492 11.9999 14.4492C11.8546 14.4492 11.7329 14.5014 11.6346 14.6057C11.5363 14.71 11.4872 14.8392 11.4872 14.9935C11.4872 15.1477 11.5363 15.2769 11.6346 15.3812C11.7329 15.4856 11.8546 15.5377 11.9999 15.5377ZM11.4872 13.9049H12.5127V11.1836H11.4872V13.9049Z" fill="#BA1A1A"/>
<path d="M3.672 40.144C3.064 40.144 2.524 40.036 2.052 39.82C1.58 39.604 1.212 39.296 0.948 38.896C0.684 38.496 0.548 38.02 0.54 37.468H2.064C2.064 37.748 2.128 38 2.256 38.224C2.392 38.44 2.576 38.612 2.808 38.74C3.048 38.868 3.336 38.932 3.672 38.932C3.96 38.932 4.208 38.888 4.416 38.8C4.632 38.704 4.796 38.572 4.908 38.404C5.028 38.228 5.088 38.024 5.088 37.792C5.088 37.528 5.024 37.312 4.896 37.144C4.776 36.968 4.608 36.82 4.392 36.7C4.176 36.58 3.928 36.476 3.648 36.388C3.368 36.292 3.072 36.192 2.76 36.088C2.096 35.864 1.596 35.58 1.26 35.236C0.924 34.884 0.756 34.416 0.756 33.832C0.756 33.344 0.872 32.924 1.104 32.572C1.336 32.22 1.66 31.948 2.076 31.756C2.5 31.556 2.988 31.456 3.54 31.456C4.1 31.456 4.588 31.556 5.004 31.756C5.428 31.956 5.76 32.236 6 32.596C6.248 32.948 6.376 33.372 6.384 33.868H4.848C4.84 33.66 4.784 33.468 4.68 33.292C4.576 33.108 4.424 32.96 4.224 32.848C4.032 32.728 3.796 32.668 3.516 32.668C3.276 32.66 3.06 32.7 2.868 32.788C2.684 32.868 2.536 32.988 2.424 33.148C2.32 33.3 2.268 33.492 2.268 33.724C2.268 33.948 2.316 34.136 2.412 34.288C2.516 34.432 2.664 34.556 2.856 34.66C3.048 34.756 3.272 34.848 3.528 34.936C3.784 35.024 4.064 35.12 4.368 35.224C4.784 35.36 5.16 35.528 5.496 35.728C5.84 35.92 6.112 36.172 6.312 36.484C6.512 36.796 6.612 37.2 6.612 37.696C6.612 38.128 6.5 38.532 6.276 38.908C6.052 39.276 5.724 39.576 5.292 39.808C4.86 40.032 4.32 40.144 3.672 40.144ZM10.2082 40.144C9.72016 40.144 9.30016 40.048 8.94816 39.856C8.60416 39.656 8.34016 39.36 8.15616 38.968C7.97216 38.568 7.88016 38.076 7.88016 37.492V33.952H9.32016V37.348C9.32016 37.868 9.42816 38.264 9.64416 38.536C9.86816 38.8 10.2042 38.932 10.6522 38.932C10.9402 38.932 11.1962 38.864 11.4202 38.728C11.6522 38.592 11.8322 38.396 11.9602 38.14C12.0962 37.876 12.1642 37.556 12.1642 37.18V33.952H13.6042V40H12.3322L12.2242 38.992C12.0402 39.344 11.7722 39.624 11.4202 39.832C11.0762 40.04 10.6722 40.144 10.2082 40.144ZM17.7503 42.784C17.1823 42.784 16.6823 42.712 16.2503 42.568C15.8263 42.432 15.4943 42.22 15.2543 41.932C15.0223 41.652 14.9063 41.3 14.9063 40.876C14.9063 40.628 14.9663 40.384 15.0863 40.144C15.2143 39.912 15.4023 39.696 15.6503 39.496C15.9063 39.288 16.2303 39.108 16.6223 38.956L17.2583 39.652C16.8743 39.788 16.6063 39.952 16.4543 40.144C16.3023 40.336 16.2263 40.532 16.2263 40.732C16.2263 40.94 16.2903 41.112 16.4183 41.248C16.5543 41.392 16.7343 41.5 16.9583 41.572C17.1903 41.644 17.4503 41.68 17.7383 41.68C18.0183 41.68 18.2623 41.64 18.4703 41.56C18.6783 41.488 18.8383 41.384 18.9503 41.248C19.0703 41.112 19.1303 40.948 19.1303 40.756C19.1303 40.516 19.0463 40.32 18.8783 40.168C18.7103 40.024 18.3783 39.936 17.8823 39.904C17.4583 39.872 17.0863 39.828 16.7663 39.772C16.4463 39.708 16.1703 39.636 15.9383 39.556C15.7143 39.476 15.5223 39.388 15.3623 39.292C15.2023 39.188 15.0703 39.084 14.9663 38.98V38.704L16.2263 37.384L17.2943 37.732L15.8783 39.112L16.2503 38.416C16.3303 38.472 16.4103 38.524 16.4903 38.572C16.5783 38.62 16.6863 38.664 16.8143 38.704C16.9503 38.736 17.1263 38.768 17.3423 38.8C17.5583 38.832 17.8383 38.864 18.1823 38.896C18.7183 38.936 19.1543 39.032 19.4903 39.184C19.8263 39.336 20.0743 39.54 20.2343 39.796C20.3943 40.052 20.4743 40.36 20.4743 40.72C20.4743 41.072 20.3743 41.404 20.1743 41.716C19.9823 42.028 19.6863 42.284 19.2863 42.484C18.8863 42.684 18.3743 42.784 17.7503 42.784ZM17.7503 38.188C17.2463 38.188 16.8103 38.092 16.4423 37.9C16.0823 37.7 15.8063 37.436 15.6143 37.108C15.4223 36.772 15.3263 36.404 15.3263 36.004C15.3263 35.596 15.4223 35.228 15.6143 34.9C15.8063 34.572 16.0823 34.308 16.4423 34.108C16.8103 33.908 17.2463 33.808 17.7503 33.808C18.2543 33.808 18.6863 33.908 19.0463 34.108C19.4063 34.308 19.6823 34.572 19.8743 34.9C20.0663 35.228 20.1623 35.596 20.1623 36.004C20.1623 36.404 20.0663 36.772 19.8743 37.108C19.6823 37.436 19.4063 37.7 19.0463 37.9C18.6863 38.092 18.2543 38.188 17.7503 38.188ZM17.7503 37.072C18.0943 37.072 18.3703 36.98 18.5783 36.796C18.7863 36.612 18.8903 36.348 18.8903 36.004C18.8903 35.66 18.7863 35.4 18.5783 35.224C18.3703 35.04 18.0943 34.948 17.7503 34.948C17.4063 34.948 17.1263 35.04 16.9103 35.224C16.6943 35.4 16.5863 35.66 16.5863 36.004C16.5863 36.348 16.6943 36.612 16.9103 36.796C17.1263 36.98 17.4063 37.072 17.7503 37.072ZM18.7463 35.008L18.4703 33.952H20.9543V34.852L18.7463 35.008ZM24.2419 40.144C23.7459 40.144 23.3339 40.06 23.0059 39.892C22.6779 39.724 22.4339 39.5 22.2739 39.22C22.1139 38.94 22.0339 38.636 22.0339 38.308C22.0339 37.924 22.1299 37.592 22.3219 37.312C22.5219 37.032 22.8139 36.816 23.1979 36.664C23.5819 36.504 24.0539 36.424 24.6139 36.424H26.1379C26.1379 36.104 26.0939 35.84 26.0059 35.632C25.9179 35.416 25.7819 35.256 25.5979 35.152C25.4139 35.048 25.1779 34.996 24.8899 34.996C24.5619 34.996 24.2819 35.072 24.0499 35.224C23.8179 35.368 23.6739 35.592 23.6179 35.896H22.2019C22.2499 35.464 22.3939 35.096 22.6339 34.792C22.8739 34.48 23.1899 34.24 23.5819 34.072C23.9819 33.896 24.4179 33.808 24.8899 33.808C25.4579 33.808 25.9419 33.908 26.3419 34.108C26.7419 34.3 27.0459 34.58 27.2539 34.948C27.4699 35.308 27.5779 35.744 27.5779 36.256V40H26.3539L26.2099 39.028C26.1299 39.188 26.0259 39.336 25.8979 39.472C25.7779 39.608 25.6379 39.728 25.4779 39.832C25.3179 39.928 25.1339 40.004 24.9259 40.06C24.7259 40.116 24.4979 40.144 24.2419 40.144ZM24.5659 39.004C24.7979 39.004 25.0019 38.964 25.1779 38.884C25.3619 38.796 25.5179 38.676 25.6459 38.524C25.7819 38.364 25.8859 38.188 25.9579 37.996C26.0299 37.804 26.0779 37.6 26.1019 37.384V37.36H24.7699C24.4899 37.36 24.2579 37.396 24.0739 37.468C23.8899 37.532 23.7579 37.628 23.6779 37.756C23.5979 37.884 23.5579 38.032 23.5579 38.2C23.5579 38.368 23.5979 38.512 23.6779 38.632C23.7579 38.752 23.8739 38.844 24.0259 38.908C24.1779 38.972 24.3579 39.004 24.5659 39.004ZM29.1165 40V33.952H30.4005L30.5325 35.08C30.6765 34.816 30.8565 34.592 31.0725 34.408C31.2885 34.216 31.5405 34.068 31.8285 33.964C32.1245 33.86 32.4485 33.808 32.8005 33.808V35.332H32.2965C32.0565 35.332 31.8285 35.364 31.6125 35.428C31.3965 35.484 31.2085 35.58 31.0485 35.716C30.8965 35.844 30.7765 36.024 30.6885 36.256C30.6005 36.48 30.5565 36.764 30.5565 37.108V40H29.1165ZM36.8157 40V31.36H38.2557V40H36.8157ZM42.6946 40.144C42.0946 40.144 41.5666 40.016 41.1106 39.76C40.6546 39.496 40.2986 39.128 40.0426 38.656C39.7866 38.184 39.6586 37.64 39.6586 37.024C39.6586 36.384 39.7826 35.824 40.0306 35.344C40.2866 34.864 40.6426 34.488 41.0986 34.216C41.5626 33.944 42.0986 33.808 42.7066 33.808C43.2986 33.808 43.8146 33.94 44.2546 34.204C44.6946 34.468 45.0346 34.824 45.2746 35.272C45.5146 35.712 45.6346 36.208 45.6346 36.76C45.6346 36.84 45.6346 36.928 45.6346 37.024C45.6346 37.12 45.6266 37.22 45.6106 37.324H40.6906V36.4H44.1826C44.1666 35.96 44.0186 35.616 43.7386 35.368C43.4586 35.112 43.1106 34.984 42.6946 34.984C42.3986 34.984 42.1266 35.052 41.8786 35.188C41.6306 35.324 41.4346 35.528 41.2906 35.8C41.1466 36.064 41.0746 36.4 41.0746 36.808V37.156C41.0746 37.532 41.1426 37.856 41.2786 38.128C41.4226 38.4 41.6146 38.608 41.8546 38.752C42.1026 38.888 42.3786 38.956 42.6826 38.956C43.0186 38.956 43.2946 38.884 43.5106 38.74C43.7346 38.596 43.8986 38.404 44.0026 38.164H45.4666C45.3546 38.54 45.1706 38.88 44.9146 39.184C44.6586 39.48 44.3426 39.716 43.9666 39.892C43.5906 40.06 43.1666 40.144 42.6946 40.144ZM48.3858 40L46.1538 33.952H47.6658L49.2618 38.632L50.8578 33.952H52.3458L50.1138 40H48.3858ZM55.9133 40.144C55.3133 40.144 54.7853 40.016 54.3293 39.76C53.8733 39.496 53.5173 39.128 53.2613 38.656C53.0053 38.184 52.8773 37.64 52.8773 37.024C52.8773 36.384 53.0013 35.824 53.2493 35.344C53.5053 34.864 53.8613 34.488 54.3173 34.216C54.7813 33.944 55.3173 33.808 55.9253 33.808C56.5173 33.808 57.0333 33.94 57.4733 34.204C57.9133 34.468 58.2533 34.824 58.4933 35.272C58.7333 35.712 58.8533 36.208 58.8533 36.76C58.8533 36.84 58.8533 36.928 58.8533 37.024C58.8533 37.12 58.8453 37.22 58.8293 37.324H53.9093V36.4H57.4013C57.3853 35.96 57.2373 35.616 56.9573 35.368C56.6773 35.112 56.3293 34.984 55.9133 34.984C55.6173 34.984 55.3453 35.052 55.0973 35.188C54.8493 35.324 54.6533 35.528 54.5093 35.8C54.3653 36.064 54.2933 36.4 54.2933 36.808V37.156C54.2933 37.532 54.3613 37.856 54.4973 38.128C54.6413 38.4 54.8333 38.608 55.0733 38.752C55.3213 38.888 55.5973 38.956 55.9013 38.956C56.2373 38.956 56.5133 38.884 56.7293 38.74C56.9533 38.596 57.1173 38.404 57.2213 38.164H58.6853C58.5733 38.54 58.3893 38.88 58.1333 39.184C57.8773 39.48 57.5613 39.716 57.1853 39.892C56.8093 40.06 56.3853 40.144 55.9133 40.144ZM60.1829 40V31.36H61.6229V40H60.1829ZM65.6418 40.144C65.1058 40.144 64.6378 40.06 64.2378 39.892C63.8458 39.716 63.5338 39.476 63.3018 39.172C63.0778 38.86 62.9458 38.504 62.9058 38.104H64.3458C64.3858 38.272 64.4578 38.428 64.5618 38.572C64.6658 38.708 64.8058 38.816 64.9818 38.896C65.1658 38.976 65.3818 39.016 65.6298 39.016C65.8698 39.016 66.0658 38.984 66.2178 38.92C66.3698 38.848 66.4818 38.756 66.5538 38.644C66.6258 38.532 66.6618 38.412 66.6618 38.284C66.6618 38.092 66.6098 37.944 66.5058 37.84C66.4018 37.736 66.2498 37.656 66.0498 37.6C65.8578 37.536 65.6258 37.476 65.3538 37.42C65.0658 37.364 64.7858 37.296 64.5138 37.216C64.2498 37.128 64.0098 37.02 63.7938 36.892C63.5858 36.764 63.4178 36.6 63.2898 36.4C63.1698 36.2 63.1098 35.956 63.1098 35.668C63.1098 35.316 63.2018 35 63.3858 34.72C63.5778 34.44 63.8498 34.22 64.2018 34.06C64.5618 33.892 64.9898 33.808 65.4858 33.808C66.1898 33.808 66.7498 33.972 67.1658 34.3C67.5898 34.62 67.8378 35.072 67.9098 35.656H66.5418C66.5018 35.432 66.3898 35.26 66.2058 35.14C66.0218 35.012 65.7778 34.948 65.4738 34.948C65.1618 34.948 64.9218 35.008 64.7538 35.128C64.5938 35.24 64.5138 35.392 64.5138 35.584C64.5138 35.704 64.5618 35.816 64.6578 35.92C64.7618 36.016 64.9098 36.1 65.1018 36.172C65.2938 36.236 65.5298 36.3 65.8098 36.364C66.2578 36.452 66.6538 36.556 66.9978 36.676C67.3418 36.796 67.6138 36.972 67.8138 37.204C68.0138 37.436 68.1138 37.764 68.1138 38.188C68.1218 38.572 68.0218 38.912 67.8138 39.208C67.6138 39.504 67.3298 39.736 66.9618 39.904C66.5938 40.064 66.1538 40.144 65.6418 40.144ZM74.4567 40.144C73.9607 40.144 73.5487 40.06 73.2207 39.892C72.8927 39.724 72.6487 39.5 72.4887 39.22C72.3287 38.94 72.2487 38.636 72.2487 38.308C72.2487 37.924 72.3447 37.592 72.5367 37.312C72.7367 37.032 73.0287 36.816 73.4127 36.664C73.7967 36.504 74.2687 36.424 74.8287 36.424H76.3527C76.3527 36.104 76.3087 35.84 76.2207 35.632C76.1327 35.416 75.9967 35.256 75.8127 35.152C75.6287 35.048 75.3927 34.996 75.1047 34.996C74.7767 34.996 74.4967 35.072 74.2647 35.224C74.0327 35.368 73.8887 35.592 73.8327 35.896H72.4167C72.4647 35.464 72.6087 35.096 72.8487 34.792C73.0887 34.48 73.4047 34.24 73.7967 34.072C74.1967 33.896 74.6327 33.808 75.1047 33.808C75.6727 33.808 76.1567 33.908 76.5567 34.108C76.9567 34.3 77.2607 34.58 77.4687 34.948C77.6847 35.308 77.7927 35.744 77.7927 36.256V40H76.5687L76.4247 39.028C76.3447 39.188 76.2407 39.336 76.1127 39.472C75.9927 39.608 75.8527 39.728 75.6927 39.832C75.5327 39.928 75.3487 40.004 75.1407 40.06C74.9407 40.116 74.7127 40.144 74.4567 40.144ZM74.7807 39.004C75.0127 39.004 75.2167 38.964 75.3927 38.884C75.5767 38.796 75.7327 38.676 75.8607 38.524C75.9967 38.364 76.1007 38.188 76.1727 37.996C76.2447 37.804 76.2927 37.6 76.3167 37.384V37.36H74.9847C74.7047 37.36 74.4727 37.396 74.2887 37.468C74.1047 37.532 73.9727 37.628 73.8927 37.756C73.8127 37.884 73.7727 38.032 73.7727 38.2C73.7727 38.368 73.8127 38.512 73.8927 38.632C73.9727 38.752 74.0887 38.844 74.2407 38.908C74.3927 38.972 74.5727 39.004 74.7807 39.004ZM79.3313 40V33.952H80.6153L80.7473 35.08C80.8913 34.816 81.0713 34.592 81.2873 34.408C81.5033 34.216 81.7553 34.068 82.0433 33.964C82.3393 33.86 82.6633 33.808 83.0153 33.808V35.332H82.5113C82.2713 35.332 82.0433 35.364 81.8273 35.428C81.6113 35.484 81.4233 35.58 81.2633 35.716C81.1113 35.844 80.9913 36.024 80.9033 36.256C80.8153 36.48 80.7713 36.764 80.7713 37.108V40H79.3313ZM86.804 40.144C86.204 40.144 85.676 40.016 85.22 39.76C84.764 39.496 84.408 39.128 84.152 38.656C83.896 38.184 83.768 37.64 83.768 37.024C83.768 36.384 83.892 35.824 84.14 35.344C84.396 34.864 84.752 34.488 85.208 34.216C85.672 33.944 86.208 33.808 86.816 33.808C87.408 33.808 87.924 33.94 88.364 34.204C88.804 34.468 89.144 34.824 89.384 35.272C89.624 35.712 89.744 36.208 89.744 36.76C89.744 36.84 89.744 36.928 89.744 37.024C89.744 37.12 89.736 37.22 89.72 37.324H84.8V36.4H88.292C88.276 35.96 88.128 35.616 87.848 35.368C87.568 35.112 87.22 34.984 86.804 34.984C86.508 34.984 86.236 35.052 85.988 35.188C85.74 35.324 85.544 35.528 85.4 35.8C85.256 36.064 85.184 36.4 85.184 36.808V37.156C85.184 37.532 85.252 37.856 85.388 38.128C85.532 38.4 85.724 38.608 85.964 38.752C86.212 38.888 86.488 38.956 86.792 38.956C87.128 38.956 87.404 38.884 87.62 38.74C87.844 38.596 88.008 38.404 88.112 38.164H89.576C89.464 38.54 89.28 38.88 89.024 39.184C88.768 39.48 88.452 39.716 88.076 39.892C87.7 40.06 87.276 40.144 86.804 40.144ZM94.0032 40V31.36H95.4432V34.888C95.6432 34.56 95.9152 34.3 96.2592 34.108C96.6032 33.908 96.9912 33.808 97.4232 33.808C97.9192 33.808 98.3392 33.912 98.6832 34.12C99.0272 34.32 99.2872 34.62 99.4632 35.02C99.6472 35.412 99.7392 35.904 99.7392 36.496V40H98.3112V36.628C98.3112 36.108 98.1992 35.712 97.9752 35.44C97.7592 35.168 97.4272 35.032 96.9792 35.032C96.6912 35.032 96.4312 35.104 96.1992 35.248C95.9672 35.384 95.7832 35.584 95.6472 35.848C95.5112 36.104 95.4432 36.42 95.4432 36.796V40H94.0032ZM101.329 40V33.952H102.769V40H101.329ZM102.049 32.992C101.785 32.992 101.565 32.912 101.389 32.752C101.221 32.584 101.137 32.38 101.137 32.14C101.137 31.892 101.221 31.692 101.389 31.54C101.565 31.38 101.785 31.3 102.049 31.3C102.313 31.3 102.529 31.38 102.697 31.54C102.873 31.692 102.961 31.892 102.961 32.14C102.961 32.38 102.873 32.584 102.697 32.752C102.529 32.912 102.313 32.992 102.049 32.992ZM106.977 42.784C106.409 42.784 105.909 42.712 105.477 42.568C105.053 42.432 104.721 42.22 104.481 41.932C104.249 41.652 104.133 41.3 104.133 40.876C104.133 40.628 104.193 40.384 104.313 40.144C104.441 39.912 104.629 39.696 104.877 39.496C105.133 39.288 105.457 39.108 105.849 38.956L106.485 39.652C106.101 39.788 105.833 39.952 105.681 40.144C105.529 40.336 105.453 40.532 105.453 40.732C105.453 40.94 105.517 41.112 105.645 41.248C105.781 41.392 105.961 41.5 106.185 41.572C106.417 41.644 106.677 41.68 106.965 41.68C107.245 41.68 107.489 41.64 107.697 41.56C107.905 41.488 108.065 41.384 108.177 41.248C108.297 41.112 108.357 40.948 108.357 40.756C108.357 40.516 108.273 40.32 108.105 40.168C107.937 40.024 107.605 39.936 107.109 39.904C106.685 39.872 106.313 39.828 105.993 39.772C105.673 39.708 105.397 39.636 105.165 39.556C104.941 39.476 104.749 39.388 104.589 39.292C104.429 39.188 104.297 39.084 104.193 38.98V38.704L105.453 37.384L106.521 37.732L105.105 39.112L105.477 38.416C105.557 38.472 105.637 38.524 105.717 38.572C105.805 38.62 105.913 38.664 106.041 38.704C106.177 38.736 106.353 38.768 106.569 38.8C106.785 38.832 107.065 38.864 107.409 38.896C107.945 38.936 108.381 39.032 108.717 39.184C109.053 39.336 109.301 39.54 109.461 39.796C109.621 40.052 109.701 40.36 109.701 40.72C109.701 41.072 109.601 41.404 109.401 41.716C109.209 42.028 108.913 42.284 108.513 42.484C108.113 42.684 107.601 42.784 106.977 42.784ZM106.977 38.188C106.473 38.188 106.037 38.092 105.669 37.9C105.309 37.7 105.033 37.436 104.841 37.108C104.649 36.772 104.553 36.404 104.553 36.004C104.553 35.596 104.649 35.228 104.841 34.9C105.033 34.572 105.309 34.308 105.669 34.108C106.037 33.908 106.473 33.808 106.977 33.808C107.481 33.808 107.913 33.908 108.273 34.108C108.633 34.308 108.909 34.572 109.101 34.9C109.293 35.228 109.389 35.596 109.389 36.004C109.389 36.404 109.293 36.772 109.101 37.108C108.909 37.436 108.633 37.7 108.273 37.9C107.913 38.092 107.481 38.188 106.977 38.188ZM106.977 37.072C107.321 37.072 107.597 36.98 107.805 36.796C108.013 36.612 108.117 36.348 108.117 36.004C108.117 35.66 108.013 35.4 107.805 35.224C107.597 35.04 107.321 34.948 106.977 34.948C106.633 34.948 106.353 35.04 106.137 35.224C105.921 35.4 105.813 35.66 105.813 36.004C105.813 36.348 105.921 36.612 106.137 36.796C106.353 36.98 106.633 37.072 106.977 37.072ZM107.973 35.008L107.697 33.952H110.181V34.852L107.973 35.008ZM111.452 40V31.36H112.892V34.888C113.092 34.56 113.364 34.3 113.708 34.108C114.052 33.908 114.44 33.808 114.872 33.808C115.368 33.808 115.788 33.912 116.132 34.12C116.476 34.32 116.736 34.62 116.912 35.02C117.096 35.412 117.188 35.904 117.188 36.496V40H115.76V36.628C115.76 36.108 115.648 35.712 115.424 35.44C115.208 35.168 114.876 35.032 114.428 35.032C114.14 35.032 113.88 35.104 113.648 35.248C113.416 35.384 113.232 35.584 113.096 35.848C112.96 36.104 112.892 36.42 112.892 36.796V40H111.452ZM119.342 40.06C119.07 40.06 118.85 39.976 118.682 39.808C118.514 39.64 118.43 39.44 118.43 39.208C118.43 38.96 118.514 38.752 118.682 38.584C118.85 38.416 119.07 38.332 119.342 38.332C119.606 38.332 119.822 38.416 119.99 38.584C120.158 38.752 120.242 38.96 120.242 39.208C120.242 39.44 120.158 39.64 119.99 39.808C119.822 39.976 119.606 40.06 119.342 40.06ZM0.852 56V47.6H2.292V54.872H6.036V56H0.852ZM9.95241 56.144C9.35241 56.144 8.82441 56.016 8.36841 55.76C7.91241 55.496 7.55641 55.128 7.30041 54.656C7.04441 54.184 6.91641 53.64 6.91641 53.024C6.91641 52.384 7.04041 51.824 7.28841 51.344C7.54441 50.864 7.90041 50.488 8.35641 50.216C8.82041 49.944 9.35641 49.808 9.96441 49.808C10.5564 49.808 11.0724 49.94 11.5124 50.204C11.9524 50.468 12.2924 50.824 12.5324 51.272C12.7724 51.712 12.8924 52.208 12.8924 52.76C12.8924 52.84 12.8924 52.928 12.8924 53.024C12.8924 53.12 12.8844 53.22 12.8684 53.324H7.94841V52.4H11.4404C11.4244 51.96 11.2764 51.616 10.9964 51.368C10.7164 51.112 10.3684 50.984 9.95241 50.984C9.65641 50.984 9.38441 51.052 9.13641 51.188C8.88841 51.324 8.69241 51.528 8.54841 51.8C8.40441 52.064 8.33241 52.4 8.33241 52.808V53.156C8.33241 53.532 8.40041 53.856 8.53641 54.128C8.68041 54.4 8.87241 54.608 9.11241 54.752C9.36041 54.888 9.63641 54.956 9.94041 54.956C10.2764 54.956 10.5524 54.884 10.7684 54.74C10.9924 54.596 11.1564 54.404 11.2604 54.164H12.7244C12.6124 54.54 12.4284 54.88 12.1724 55.184C11.9164 55.48 11.6004 55.716 11.2244 55.892C10.8484 56.06 10.4244 56.144 9.95241 56.144ZM16.7328 56C16.3248 56 15.9688 55.936 15.6648 55.808C15.3688 55.68 15.1368 55.468 14.9688 55.172C14.8008 54.876 14.7168 54.476 14.7168 53.972V51.164H13.6848V49.952H14.7168L14.8848 48.356H16.1568V49.952H17.8008V51.164H16.1568V53.972C16.1568 54.276 16.2208 54.488 16.3488 54.608C16.4848 54.72 16.7088 54.776 17.0208 54.776H17.7648V56H16.7328ZM18.9756 49.508L18.8196 46.94H20.1036L19.9596 49.508H18.9756ZM23.7941 56.144C23.2581 56.144 22.7901 56.06 22.3901 55.892C21.9981 55.716 21.6861 55.476 21.4541 55.172C21.2301 54.86 21.0981 54.504 21.0581 54.104H22.4981C22.5381 54.272 22.6101 54.428 22.7141 54.572C22.8181 54.708 22.9581 54.816 23.1341 54.896C23.3181 54.976 23.5341 55.016 23.7821 55.016C24.0221 55.016 24.2181 54.984 24.3701 54.92C24.5221 54.848 24.6341 54.756 24.7061 54.644C24.7781 54.532 24.8141 54.412 24.8141 54.284C24.8141 54.092 24.7621 53.944 24.6581 53.84C24.5541 53.736 24.4021 53.656 24.2021 53.6C24.0101 53.536 23.7781 53.476 23.5061 53.42C23.2181 53.364 22.9381 53.296 22.6661 53.216C22.4021 53.128 22.1621 53.02 21.9461 52.892C21.7381 52.764 21.5701 52.6 21.4421 52.4C21.3221 52.2 21.2621 51.956 21.2621 51.668C21.2621 51.316 21.3541 51 21.5381 50.72C21.7301 50.44 22.0021 50.22 22.3541 50.06C22.7141 49.892 23.1421 49.808 23.6381 49.808C24.3421 49.808 24.9021 49.972 25.3181 50.3C25.7421 50.62 25.9901 51.072 26.0621 51.656H24.6941C24.6541 51.432 24.5421 51.26 24.3581 51.14C24.1741 51.012 23.9301 50.948 23.6261 50.948C23.3141 50.948 23.0741 51.008 22.9061 51.128C22.7461 51.24 22.6661 51.392 22.6661 51.584C22.6661 51.704 22.7141 51.816 22.8101 51.92C22.9141 52.016 23.0621 52.1 23.2541 52.172C23.4461 52.236 23.6821 52.3 23.9621 52.364C24.4101 52.452 24.8061 52.556 25.1501 52.676C25.4941 52.796 25.7661 52.972 25.9661 53.204C26.1661 53.436 26.2661 53.764 26.2661 54.188C26.2741 54.572 26.1741 54.912 25.9661 55.208C25.7661 55.504 25.4821 55.736 25.1141 55.904C24.7461 56.064 24.3061 56.144 23.7941 56.144ZM33.1371 58.784C32.5691 58.784 32.0691 58.712 31.6371 58.568C31.2131 58.432 30.8811 58.22 30.6411 57.932C30.4091 57.652 30.2931 57.3 30.2931 56.876C30.2931 56.628 30.3531 56.384 30.4731 56.144C30.6011 55.912 30.7891 55.696 31.0371 55.496C31.2931 55.288 31.6171 55.108 32.0091 54.956L32.6451 55.652C32.2611 55.788 31.9931 55.952 31.8411 56.144C31.6891 56.336 31.6131 56.532 31.6131 56.732C31.6131 56.94 31.6771 57.112 31.8051 57.248C31.9411 57.392 32.1211 57.5 32.3451 57.572C32.5771 57.644 32.8371 57.68 33.1251 57.68C33.4051 57.68 33.6491 57.64 33.8571 57.56C34.0651 57.488 34.2251 57.384 34.3371 57.248C34.4571 57.112 34.5171 56.948 34.5171 56.756C34.5171 56.516 34.4331 56.32 34.2651 56.168C34.0971 56.024 33.7651 55.936 33.2691 55.904C32.8451 55.872 32.4731 55.828 32.1531 55.772C31.8331 55.708 31.5571 55.636 31.3251 55.556C31.1011 55.476 30.9091 55.388 30.7491 55.292C30.5891 55.188 30.4571 55.084 30.3531 54.98V54.704L31.6131 53.384L32.6811 53.732L31.2651 55.112L31.6371 54.416C31.7171 54.472 31.7971 54.524 31.8771 54.572C31.9651 54.62 32.0731 54.664 32.2011 54.704C32.3371 54.736 32.5131 54.768 32.7291 54.8C32.9451 54.832 33.2251 54.864 33.5691 54.896C34.1051 54.936 34.5411 55.032 34.8771 55.184C35.2131 55.336 35.4611 55.54 35.6211 55.796C35.7811 56.052 35.8611 56.36 35.8611 56.72C35.8611 57.072 35.7611 57.404 35.5611 57.716C35.3691 58.028 35.0731 58.284 34.6731 58.484C34.2731 58.684 33.7611 58.784 33.1371 58.784ZM33.1371 54.188C32.6331 54.188 32.1971 54.092 31.8291 53.9C31.4691 53.7 31.1931 53.436 31.0011 53.108C30.8091 52.772 30.7131 52.404 30.7131 52.004C30.7131 51.596 30.8091 51.228 31.0011 50.9C31.1931 50.572 31.4691 50.308 31.8291 50.108C32.1971 49.908 32.6331 49.808 33.1371 49.808C33.6411 49.808 34.0731 49.908 34.4331 50.108C34.7931 50.308 35.0691 50.572 35.2611 50.9C35.4531 51.228 35.5491 51.596 35.5491 52.004C35.5491 52.404 35.4531 52.772 35.2611 53.108C35.0691 53.436 34.7931 53.7 34.4331 53.9C34.0731 54.092 33.6411 54.188 33.1371 54.188ZM33.1371 53.072C33.4811 53.072 33.7571 52.98 33.9651 52.796C34.1731 52.612 34.2771 52.348 34.2771 52.004C34.2771 51.66 34.1731 51.4 33.9651 51.224C33.7571 51.04 33.4811 50.948 33.1371 50.948C32.7931 50.948 32.5131 51.04 32.2971 51.224C32.0811 51.4 31.9731 51.66 31.9731 52.004C31.9731 52.348 32.0811 52.612 32.2971 52.796C32.5131 52.98 32.7931 53.072 33.1371 53.072ZM34.1331 51.008L33.8571 49.952H36.3411V50.852L34.1331 51.008ZM40.2102 56.144C39.6102 56.144 39.0822 56.016 38.6262 55.76C38.1702 55.496 37.8142 55.128 37.5582 54.656C37.3022 54.184 37.1742 53.64 37.1742 53.024C37.1742 52.384 37.2982 51.824 37.5462 51.344C37.8022 50.864 38.1582 50.488 38.6142 50.216C39.0782 49.944 39.6142 49.808 40.2222 49.808C40.8142 49.808 41.3302 49.94 41.7702 50.204C42.2102 50.468 42.5502 50.824 42.7902 51.272C43.0302 51.712 43.1502 52.208 43.1502 52.76C43.1502 52.84 43.1502 52.928 43.1502 53.024C43.1502 53.12 43.1422 53.22 43.1262 53.324H38.2062V52.4H41.6982C41.6822 51.96 41.5342 51.616 41.2542 51.368C40.9742 51.112 40.6262 50.984 40.2102 50.984C39.9142 50.984 39.6422 51.052 39.3942 51.188C39.1462 51.324 38.9502 51.528 38.8062 51.8C38.6622 52.064 38.5902 52.4 38.5902 52.808V53.156C38.5902 53.532 38.6582 53.856 38.7942 54.128C38.9382 54.4 39.1302 54.608 39.3702 54.752C39.6182 54.888 39.8942 54.956 40.1982 54.956C40.5342 54.956 40.8102 54.884 41.0262 54.74C41.2502 54.596 41.4142 54.404 41.5182 54.164H42.9822C42.8702 54.54 42.6862 54.88 42.4302 55.184C42.1742 55.48 41.8582 55.716 41.4822 55.892C41.1062 56.06 40.6822 56.144 40.2102 56.144ZM46.9906 56C46.5826 56 46.2266 55.936 45.9226 55.808C45.6266 55.68 45.3946 55.468 45.2266 55.172C45.0586 54.876 44.9746 54.476 44.9746 53.972V51.164H43.9426V49.952H44.9746L45.1426 48.356H46.4146V49.952H48.0586V51.164H46.4146V53.972C46.4146 54.276 46.4786 54.488 46.6066 54.608C46.7426 54.72 46.9666 54.776 47.2786 54.776H48.0226V56H46.9906ZM53.0751 58.64L54.5511 55.328H54.1911L51.7791 49.952H53.3511L55.1511 54.056L56.8551 49.952H58.3791L54.5991 58.64H53.0751ZM61.7138 56.144C61.1378 56.144 60.6178 56.012 60.1538 55.748C59.6978 55.476 59.3378 55.104 59.0738 54.632C58.8178 54.152 58.6898 53.604 58.6898 52.988C58.6898 52.356 58.8218 51.804 59.0858 51.332C59.3498 50.852 59.7098 50.48 60.1658 50.216C60.6298 49.944 61.1498 49.808 61.7258 49.808C62.3018 49.808 62.8178 49.944 63.2738 50.216C63.7378 50.48 64.0978 50.848 64.3538 51.32C64.6178 51.792 64.7498 52.344 64.7498 52.976C64.7498 53.608 64.6178 54.16 64.3538 54.632C64.0898 55.104 63.7258 55.476 63.2618 55.748C62.8058 56.012 62.2898 56.144 61.7138 56.144ZM61.7138 54.908C62.0018 54.908 62.2618 54.836 62.4938 54.692C62.7338 54.548 62.9258 54.332 63.0698 54.044C63.2138 53.756 63.2858 53.4 63.2858 52.976C63.2858 52.552 63.2138 52.2 63.0698 51.92C62.9338 51.632 62.7458 51.416 62.5058 51.272C62.2738 51.128 62.0138 51.056 61.7258 51.056C61.4458 51.056 61.1858 51.128 60.9458 51.272C60.7058 51.416 60.5138 51.632 60.3698 51.92C60.2258 52.2 60.1538 52.552 60.1538 52.976C60.1538 53.4 60.2258 53.756 60.3698 54.044C60.5138 54.332 60.7018 54.548 60.9338 54.692C61.1738 54.836 61.4338 54.908 61.7138 54.908ZM68.4035 56.144C67.9155 56.144 67.4955 56.048 67.1435 55.856C66.7995 55.656 66.5355 55.36 66.3515 54.968C66.1675 54.568 66.0755 54.076 66.0755 53.492V49.952H67.5155V53.348C67.5155 53.868 67.6235 54.264 67.8395 54.536C68.0635 54.8 68.3995 54.932 68.8475 54.932C69.1355 54.932 69.3915 54.864 69.6155 54.728C69.8475 54.592 70.0275 54.396 70.1555 54.14C70.2915 53.876 70.3595 53.556 70.3595 53.18V49.952H71.7995V56H70.5275L70.4195 54.992C70.2355 55.344 69.9675 55.624 69.6155 55.832C69.2715 56.04 68.8675 56.144 68.4035 56.144ZM79.7873 56.144C79.4673 56.144 79.1793 56.1 78.9233 56.012C78.6673 55.932 78.4433 55.82 78.2513 55.676C78.0593 55.524 77.8993 55.352 77.7713 55.16L77.6153 56H76.3313V47.36H77.7713V50.84C77.9633 50.544 78.2233 50.3 78.5513 50.108C78.8793 49.908 79.2873 49.808 79.7753 49.808C80.3433 49.808 80.8433 49.948 81.2753 50.228C81.7153 50.5 82.0593 50.876 82.3073 51.356C82.5633 51.828 82.6913 52.372 82.6913 52.988C82.6913 53.588 82.5673 54.128 82.3193 54.608C82.0713 55.088 81.7273 55.464 81.2873 55.736C80.8553 56.008 80.3553 56.144 79.7873 56.144ZM79.4873 54.896C79.8233 54.896 80.1233 54.816 80.3873 54.656C80.6513 54.488 80.8553 54.264 80.9993 53.984C81.1513 53.696 81.2273 53.36 81.2273 52.976C81.2273 52.6 81.1513 52.268 80.9993 51.98C80.8553 51.692 80.6513 51.468 80.3873 51.308C80.1233 51.148 79.8233 51.068 79.4873 51.068C79.1433 51.068 78.8393 51.148 78.5753 51.308C78.3193 51.468 78.1153 51.692 77.9633 51.98C77.8193 52.268 77.7473 52.6 77.7473 52.976C77.7473 53.36 77.8193 53.696 77.9633 53.984C78.1153 54.264 78.3193 54.488 78.5753 54.656C78.8393 54.816 79.1433 54.896 79.4873 54.896ZM86.1052 56.144C85.6092 56.144 85.1972 56.06 84.8692 55.892C84.5412 55.724 84.2972 55.5 84.1372 55.22C83.9772 54.94 83.8972 54.636 83.8972 54.308C83.8972 53.924 83.9932 53.592 84.1852 53.312C84.3852 53.032 84.6772 52.816 85.0612 52.664C85.4452 52.504 85.9172 52.424 86.4772 52.424H88.0012C88.0012 52.104 87.9572 51.84 87.8692 51.632C87.7812 51.416 87.6452 51.256 87.4612 51.152C87.2772 51.048 87.0412 50.996 86.7532 50.996C86.4252 50.996 86.1452 51.072 85.9132 51.224C85.6812 51.368 85.5372 51.592 85.4812 51.896H84.0652C84.1132 51.464 84.2572 51.096 84.4972 50.792C84.7372 50.48 85.0532 50.24 85.4452 50.072C85.8452 49.896 86.2812 49.808 86.7532 49.808C87.3212 49.808 87.8052 49.908 88.2052 50.108C88.6052 50.3 88.9092 50.58 89.1172 50.948C89.3332 51.308 89.4412 51.744 89.4412 52.256V56H88.2172L88.0732 55.028C87.9932 55.188 87.8892 55.336 87.7612 55.472C87.6412 55.608 87.5012 55.728 87.3412 55.832C87.1812 55.928 86.9972 56.004 86.7892 56.06C86.5892 56.116 86.3612 56.144 86.1052 56.144ZM86.4292 55.004C86.6612 55.004 86.8652 54.964 87.0412 54.884C87.2252 54.796 87.3812 54.676 87.5092 54.524C87.6452 54.364 87.7492 54.188 87.8212 53.996C87.8932 53.804 87.9412 53.6 87.9652 53.384V53.36H86.6332C86.3532 53.36 86.1212 53.396 85.9372 53.468C85.7532 53.532 85.6212 53.628 85.5412 53.756C85.4612 53.884 85.4212 54.032 85.4212 54.2C85.4212 54.368 85.4612 54.512 85.5412 54.632C85.6212 54.752 85.7372 54.844 85.8892 54.908C86.0412 54.972 86.2212 55.004 86.4292 55.004ZM93.8478 56.144C93.2558 56.144 92.7238 56.012 92.2518 55.748C91.7878 55.476 91.4238 55.104 91.1598 54.632C90.9038 54.152 90.7758 53.608 90.7758 53C90.7758 52.368 90.9038 51.816 91.1598 51.344C91.4238 50.864 91.7878 50.488 92.2518 50.216C92.7238 49.944 93.2598 49.808 93.8598 49.808C94.6118 49.808 95.2438 50.008 95.7558 50.408C96.2678 50.8 96.5958 51.34 96.7398 52.028H95.2278C95.1478 51.724 94.9798 51.484 94.7238 51.308C94.4758 51.132 94.1798 51.044 93.8358 51.044C93.5398 51.044 93.2678 51.12 93.0198 51.272C92.7798 51.424 92.5878 51.644 92.4438 51.932C92.3078 52.22 92.2398 52.568 92.2398 52.976C92.2398 53.288 92.2798 53.564 92.3598 53.804C92.4398 54.044 92.5518 54.248 92.6958 54.416C92.8478 54.576 93.0198 54.7 93.2118 54.788C93.4038 54.876 93.6118 54.92 93.8358 54.92C94.0678 54.92 94.2758 54.884 94.4598 54.812C94.6518 54.732 94.8118 54.616 94.9398 54.464C95.0758 54.312 95.1718 54.132 95.2278 53.924H96.7398C96.5958 54.596 96.2678 55.136 95.7558 55.544C95.2438 55.944 94.6078 56.144 93.8478 56.144ZM102.028 56L99.3522 52.688L101.752 49.952H103.468L100.48 53.276V52.16L103.828 56H102.028ZM98.1282 56V47.36H99.5682V56H98.1282ZM110.546 56.144C109.97 56.144 109.45 56.012 108.986 55.748C108.53 55.476 108.17 55.104 107.906 54.632C107.65 54.152 107.522 53.604 107.522 52.988C107.522 52.356 107.654 51.804 107.918 51.332C108.182 50.852 108.542 50.48 108.998 50.216C109.462 49.944 109.982 49.808 110.558 49.808C111.134 49.808 111.65 49.944 112.106 50.216C112.57 50.48 112.93 50.848 113.186 51.32C113.45 51.792 113.582 52.344 113.582 52.976C113.582 53.608 113.45 54.16 113.186 54.632C112.922 55.104 112.558 55.476 112.094 55.748C111.638 56.012 111.122 56.144 110.546 56.144ZM110.546 54.908C110.834 54.908 111.094 54.836 111.326 54.692C111.566 54.548 111.758 54.332 111.902 54.044C112.046 53.756 112.118 53.4 112.118 52.976C112.118 52.552 112.046 52.2 111.902 51.92C111.766 51.632 111.578 51.416 111.338 51.272C111.106 51.128 110.846 51.056 110.558 51.056C110.278 51.056 110.018 51.128 109.778 51.272C109.538 51.416 109.346 51.632 109.202 51.92C109.058 52.2 108.986 52.552 108.986 52.976C108.986 53.4 109.058 53.756 109.202 54.044C109.346 54.332 109.534 54.548 109.766 54.692C110.006 54.836 110.266 54.908 110.546 54.908ZM114.992 56V49.952H116.264L116.372 50.96C116.556 50.608 116.82 50.328 117.164 50.12C117.508 49.912 117.916 49.808 118.388 49.808C118.876 49.808 119.292 49.912 119.636 50.12C119.98 50.32 120.244 50.616 120.428 51.008C120.62 51.4 120.716 51.888 120.716 52.472V56H119.276V52.604C119.276 52.1 119.164 51.712 118.94 51.44C118.716 51.168 118.384 51.032 117.944 51.032C117.656 51.032 117.396 51.1 117.164 51.236C116.94 51.372 116.76 51.572 116.624 51.836C116.496 52.092 116.432 52.404 116.432 52.772V56H114.992ZM127.791 56C127.383 56 127.027 55.936 126.723 55.808C126.427 55.68 126.195 55.468 126.027 55.172C125.859 54.876 125.775 54.476 125.775 53.972V51.164H124.743V49.952H125.775L125.943 48.356H127.215V49.952H128.859V51.164H127.215V53.972C127.215 54.276 127.279 54.488 127.407 54.608C127.543 54.72 127.767 54.776 128.079 54.776H128.823V56H127.791ZM130.214 56V49.952H131.498L131.63 51.08C131.774 50.816 131.954 50.592 132.17 50.408C132.386 50.216 132.638 50.068 132.926 49.964C133.222 49.86 133.546 49.808 133.898 49.808V51.332H133.394C133.154 51.332 132.926 51.364 132.71 51.428C132.494 51.484 132.306 51.58 132.146 51.716C131.994 51.844 131.874 52.024 131.786 52.256C131.698 52.48 131.654 52.764 131.654 53.108V56H130.214ZM137 56.144C136.504 56.144 136.092 56.06 135.764 55.892C135.436 55.724 135.192 55.5 135.032 55.22C134.872 54.94 134.792 54.636 134.792 54.308C134.792 53.924 134.888 53.592 135.08 53.312C135.28 53.032 135.572 52.816 135.956 52.664C136.34 52.504 136.812 52.424 137.372 52.424H138.896C138.896 52.104 138.852 51.84 138.764 51.632C138.676 51.416 138.54 51.256 138.356 51.152C138.172 51.048 137.936 50.996 137.648 50.996C137.32 50.996 137.04 51.072 136.808 51.224C136.576 51.368 136.432 51.592 136.376 51.896H134.96C135.008 51.464 135.152 51.096 135.392 50.792C135.632 50.48 135.948 50.24 136.34 50.072C136.74 49.896 137.176 49.808 137.648 49.808C138.216 49.808 138.7 49.908 139.1 50.108C139.5 50.3 139.804 50.58 140.012 50.948C140.228 51.308 140.336 51.744 140.336 52.256V56H139.112L138.968 55.028C138.888 55.188 138.784 55.336 138.656 55.472C138.536 55.608 138.396 55.728 138.236 55.832C138.076 55.928 137.892 56.004 137.684 56.06C137.484 56.116 137.256 56.144 137 56.144ZM137.324 55.004C137.556 55.004 137.76 54.964 137.936 54.884C138.12 54.796 138.276 54.676 138.404 54.524C138.54 54.364 138.644 54.188 138.716 53.996C138.788 53.804 138.836 53.6 138.86 53.384V53.36H137.528C137.248 53.36 137.016 53.396 136.832 53.468C136.648 53.532 136.516 53.628 136.436 53.756C136.356 53.884 136.316 54.032 136.316 54.2C136.316 54.368 136.356 54.512 136.436 54.632C136.516 54.752 136.632 54.844 136.784 54.908C136.936 54.972 137.116 55.004 137.324 55.004ZM144.742 56.144C144.15 56.144 143.618 56.012 143.146 55.748C142.682 55.476 142.318 55.104 142.054 54.632C141.798 54.152 141.67 53.608 141.67 53C141.67 52.368 141.798 51.816 142.054 51.344C142.318 50.864 142.682 50.488 143.146 50.216C143.618 49.944 144.154 49.808 144.754 49.808C145.506 49.808 146.138 50.008 146.65 50.408C147.162 50.8 147.49 51.34 147.634 52.028H146.122C146.042 51.724 145.874 51.484 145.618 51.308C145.37 51.132 145.074 51.044 144.73 51.044C144.434 51.044 144.162 51.12 143.914 51.272C143.674 51.424 143.482 51.644 143.338 51.932C143.202 52.22 143.134 52.568 143.134 52.976C143.134 53.288 143.174 53.564 143.254 53.804C143.334 54.044 143.446 54.248 143.59 54.416C143.742 54.576 143.914 54.7 144.106 54.788C144.298 54.876 144.506 54.92 144.73 54.92C144.962 54.92 145.17 54.884 145.354 54.812C145.546 54.732 145.706 54.616 145.834 54.464C145.97 54.312 146.066 54.132 146.122 53.924H147.634C147.49 54.596 147.162 55.136 146.65 55.544C146.138 55.944 145.502 56.144 144.742 56.144ZM152.923 56L150.247 52.688L152.647 49.952H154.363L151.375 53.276V52.16L154.723 56H152.923ZM149.023 56V47.36H150.463V56H149.023ZM156.315 56.06C156.043 56.06 155.823 55.976 155.655 55.808C155.487 55.64 155.403 55.44 155.403 55.208C155.403 54.96 155.487 54.752 155.655 54.584C155.823 54.416 156.043 54.332 156.315 54.332C156.579 54.332 156.795 54.416 156.963 54.584C157.131 54.752 157.215 54.96 157.215 55.208C157.215 55.44 157.131 55.64 156.963 55.808C156.795 55.976 156.579 56.06 156.315 56.06Z" fill="white"/>
<path d="M1.52 74V67.94L0.32 68.24V67.64L1.8 67H2.37V74H1.52ZM6.22523 74.12C5.74523 74.12 5.32857 74.0333 4.97523 73.86C4.62857 73.6867 4.3519 73.45 4.14523 73.15C3.94523 72.85 3.81857 72.5133 3.76523 72.14H4.58523C4.66523 72.5133 4.84857 72.8167 5.13523 73.05C5.4219 73.2833 5.78857 73.4 6.23523 73.4C6.56857 73.4 6.8519 73.3233 7.08523 73.17C7.32523 73.0167 7.50857 72.8067 7.63523 72.54C7.76857 72.2733 7.83523 71.9767 7.83523 71.65C7.83523 71.31 7.76857 71.01 7.63523 70.75C7.5019 70.49 7.31857 70.29 7.08523 70.15C6.8519 70.0033 6.57857 69.93 6.26523 69.93C5.88523 69.93 5.5619 70.0133 5.29523 70.18C5.02857 70.3467 4.82857 70.56 4.69523 70.82H3.88523L4.46523 67H8.16523V67.73H5.11523L4.72523 69.88C4.8919 69.6867 5.1119 69.53 5.38523 69.41C5.66523 69.2833 5.98857 69.22 6.35523 69.22C6.7019 69.22 7.01523 69.28 7.29523 69.4C7.57523 69.52 7.81523 69.69 8.01523 69.91C8.21523 70.13 8.36857 70.3867 8.47523 70.68C8.58857 70.9733 8.64523 71.2933 8.64523 71.64C8.64523 71.98 8.58857 72.3 8.47523 72.6C8.36857 72.8933 8.2119 73.1567 8.00523 73.39C7.79857 73.6167 7.54523 73.7967 7.24523 73.93C6.94523 74.0567 6.60523 74.12 6.22523 74.12ZM10.6688 74L14.7388 67H15.5788L11.5088 74H10.6688ZM15.0788 74.12C14.7788 74.12 14.5088 74.0533 14.2687 73.92C14.0288 73.78 13.8354 73.5833 13.6888 73.33C13.5488 73.0767 13.4788 72.78 13.4788 72.44C13.4788 72.0933 13.5488 71.7967 13.6888 71.55C13.8354 71.2967 14.0288 71.1033 14.2687 70.97C14.5088 70.83 14.7788 70.76 15.0788 70.76C15.3854 70.76 15.6554 70.83 15.8888 70.97C16.1288 71.1033 16.3188 71.2967 16.4588 71.55C16.5988 71.7967 16.6688 72.0933 16.6688 72.44C16.6688 72.78 16.5988 73.0767 16.4588 73.33C16.3188 73.5833 16.1288 73.78 15.8888 73.92C15.6488 74.0533 15.3788 74.12 15.0788 74.12ZM15.0688 73.47C15.2288 73.47 15.3754 73.4333 15.5088 73.36C15.6421 73.28 15.7488 73.1633 15.8288 73.01C15.9154 72.8567 15.9588 72.6667 15.9588 72.44C15.9588 72.2067 15.9188 72.0133 15.8388 71.86C15.7588 71.7067 15.6521 71.5933 15.5188 71.52C15.3854 71.44 15.2388 71.4 15.0788 71.4C14.9254 71.4 14.7788 71.44 14.6388 71.52C14.5054 71.5933 14.3954 71.7067 14.3088 71.86C14.2288 72.0133 14.1888 72.2067 14.1888 72.44C14.1888 72.6667 14.2288 72.8567 14.3088 73.01C14.3954 73.1633 14.5054 73.28 14.6388 73.36C14.7721 73.4333 14.9154 73.47 15.0688 73.47ZM11.2288 70.25C10.9288 70.25 10.6588 70.1833 10.4188 70.05C10.1788 69.91 9.98542 69.7133 9.83875 69.46C9.69875 69.2067 9.62875 68.91 9.62875 68.57C9.62875 68.2233 9.69875 67.9267 9.83875 67.68C9.98542 67.4267 10.1788 67.2333 10.4188 67.1C10.6654 66.96 10.9388 66.89 11.2388 66.89C11.5388 66.89 11.8088 66.96 12.0488 67.1C12.2888 67.2333 12.4788 67.4267 12.6188 67.68C12.7588 67.9267 12.8288 68.2233 12.8288 68.57C12.8288 68.91 12.7588 69.2067 12.6188 69.46C12.4788 69.7133 12.2854 69.91 12.0388 70.05C11.7988 70.1833 11.5288 70.25 11.2288 70.25ZM11.2288 69.6C11.3888 69.6 11.5354 69.5633 11.6688 69.49C11.8021 69.41 11.9088 69.2933 11.9888 69.14C12.0688 68.9867 12.1088 68.7967 12.1088 68.57C12.1088 68.3367 12.0688 68.1433 11.9888 67.99C11.9088 67.83 11.8021 67.7133 11.6688 67.64C11.5354 67.56 11.3921 67.52 11.2388 67.52C11.0854 67.52 10.9388 67.56 10.7988 67.64C10.6588 67.7133 10.5454 67.83 10.4588 67.99C10.3788 68.1433 10.3388 68.3367 10.3388 68.57C10.3388 68.7967 10.3788 68.9867 10.4588 69.14C10.5454 69.2933 10.6554 69.41 10.7888 69.49C10.9288 69.5633 11.0754 69.6 11.2288 69.6ZM22.0763 74.12C21.6697 74.12 21.3297 74.05 21.0563 73.91C20.783 73.7633 20.5797 73.5733 20.4463 73.34C20.313 73.1 20.2463 72.84 20.2463 72.56C20.2463 72.22 20.333 71.9333 20.5063 71.7C20.6863 71.46 20.9363 71.28 21.2563 71.16C21.583 71.0333 21.9663 70.97 22.4063 70.97H23.7363C23.7363 70.6567 23.6863 70.3967 23.5863 70.19C23.493 69.9767 23.353 69.8167 23.1663 69.71C22.9863 69.6033 22.7597 69.55 22.4863 69.55C22.1663 69.55 21.8897 69.63 21.6563 69.79C21.423 69.95 21.2797 70.1867 21.2263 70.5H20.3663C20.4063 70.14 20.5263 69.84 20.7263 69.6C20.933 69.3533 21.193 69.1667 21.5063 69.04C21.8197 68.9067 22.1463 68.84 22.4863 68.84C22.953 68.84 23.3397 68.9267 23.6463 69.1C23.9597 69.2667 24.193 69.5033 24.3463 69.81C24.4997 70.11 24.5763 70.4667 24.5763 70.88V74H23.8263L23.7763 73.11C23.7097 73.25 23.623 73.3833 23.5163 73.51C23.4163 73.63 23.2963 73.7367 23.1563 73.83C23.0163 73.9167 22.8563 73.9867 22.6763 74.04C22.503 74.0933 22.303 74.12 22.0763 74.12ZM22.2063 73.41C22.4397 73.41 22.6497 73.3633 22.8363 73.27C23.0297 73.17 23.193 73.0367 23.3263 72.87C23.4597 72.6967 23.5597 72.5067 23.6263 72.3C23.6997 72.0933 23.7363 71.8767 23.7363 71.65V71.62H22.4763C22.1497 71.62 21.8863 71.66 21.6863 71.74C21.4863 71.8133 21.343 71.92 21.2563 72.06C21.1697 72.1933 21.1263 72.3467 21.1263 72.52C21.1263 72.7 21.1663 72.8567 21.2463 72.99C21.333 73.1233 21.4563 73.2267 21.6163 73.3C21.783 73.3733 21.9797 73.41 22.2063 73.41ZM28.5158 74.12C28.2291 74.12 27.9691 74.08 27.7358 74C27.5091 73.9133 27.3091 73.8 27.1358 73.66C26.9624 73.52 26.8191 73.3567 26.7058 73.17L26.6358 74H25.8758V66.8H26.7158V69.79C26.8758 69.53 27.1058 69.3067 27.4058 69.12C27.7058 68.9333 28.0758 68.84 28.5158 68.84C29.0024 68.84 29.4291 68.9567 29.7958 69.19C30.1624 69.4167 30.4458 69.73 30.6458 70.13C30.8524 70.5233 30.9558 70.9733 30.9558 71.48C30.9558 71.9867 30.8524 72.44 30.6458 72.84C30.4458 73.24 30.1624 73.5533 29.7958 73.78C29.4291 74.0067 29.0024 74.12 28.5158 74.12ZM28.4158 73.39C28.7424 73.39 29.0324 73.31 29.2858 73.15C29.5391 72.99 29.7358 72.77 29.8758 72.49C30.0224 72.2033 30.0958 71.8667 30.0958 71.48C30.0958 71.1 30.0224 70.7667 29.8758 70.48C29.7358 70.1933 29.5391 69.97 29.2858 69.81C29.0324 69.65 28.7424 69.57 28.4158 69.57C28.0824 69.57 27.7891 69.65 27.5358 69.81C27.2824 69.97 27.0858 70.1933 26.9458 70.48C26.8058 70.7667 26.7358 71.1 26.7358 71.48C26.7358 71.8667 26.8058 72.2033 26.9458 72.49C27.0858 72.77 27.2824 72.99 27.5358 73.15C27.7891 73.31 28.0824 73.39 28.4158 73.39ZM34.3855 74.12C33.9189 74.12 33.4989 74.0133 33.1255 73.8C32.7522 73.58 32.4589 73.2733 32.2455 72.88C32.0322 72.48 31.9255 72.0167 31.9255 71.49C31.9255 70.95 32.0322 70.4833 32.2455 70.09C32.4655 69.69 32.7622 69.3833 33.1355 69.17C33.5155 68.95 33.9389 68.84 34.4055 68.84C34.8855 68.84 35.3089 68.95 35.6755 69.17C36.0489 69.3833 36.3422 69.69 36.5555 70.09C36.7755 70.4833 36.8855 70.9467 36.8855 71.48C36.8855 72.0133 36.7755 72.48 36.5555 72.88C36.3355 73.2733 36.0389 73.58 35.6655 73.8C35.2922 74.0133 34.8655 74.12 34.3855 74.12ZM34.3955 73.4C34.6822 73.4 34.9489 73.33 35.1955 73.19C35.4422 73.0433 35.6422 72.8267 35.7955 72.54C35.9489 72.2533 36.0255 71.9 36.0255 71.48C36.0255 71.0533 35.9489 70.7 35.7955 70.42C35.6489 70.1333 35.4522 69.92 35.2055 69.78C34.9655 69.6333 34.6989 69.56 34.4055 69.56C34.1255 69.56 33.8589 69.6333 33.6055 69.78C33.3589 69.92 33.1589 70.1333 33.0055 70.42C32.8589 70.7 32.7855 71.0533 32.7855 71.48C32.7855 71.9 32.8589 72.2533 33.0055 72.54C33.1589 72.8267 33.3555 73.0433 33.5955 73.19C33.8422 73.33 34.1089 73.4 34.3955 73.4ZM39.2594 74L37.3494 68.96H38.2294L39.7494 73.19L41.2794 68.96H42.1394L40.2294 74H39.2594ZM45.0389 74.12C44.5656 74.12 44.1456 74.01 43.7789 73.79C43.4189 73.57 43.1356 73.2633 42.9289 72.87C42.7222 72.47 42.6189 72.0067 42.6189 71.48C42.6189 70.9467 42.7189 70.4833 42.9189 70.09C43.1256 69.6967 43.4122 69.39 43.7789 69.17C44.1522 68.95 44.5789 68.84 45.0589 68.84C45.5522 68.84 45.9689 68.95 46.3089 69.17C46.6556 69.39 46.9189 69.68 47.0989 70.04C47.2856 70.3933 47.3789 70.7833 47.3789 71.21C47.3789 71.2767 47.3789 71.3467 47.3789 71.42C47.3789 71.4933 47.3756 71.5767 47.3689 71.67H43.2489V71.02H46.5589C46.5389 70.56 46.3856 70.2 46.0989 69.94C45.8189 69.68 45.4656 69.55 45.0389 69.55C44.7522 69.55 44.4856 69.6167 44.2389 69.75C43.9989 69.8767 43.8056 70.0667 43.6589 70.32C43.5122 70.5667 43.4389 70.8767 43.4389 71.25V71.53C43.4389 71.9433 43.5122 72.29 43.6589 72.57C43.8122 72.85 44.0089 73.06 44.2489 73.2C44.4956 73.34 44.7589 73.41 45.0389 73.41C45.3922 73.41 45.6822 73.3333 45.9089 73.18C46.1422 73.02 46.3089 72.8067 46.4089 72.54H47.2389C47.1589 72.84 47.0189 73.11 46.8189 73.35C46.6189 73.59 46.3689 73.78 46.0689 73.92C45.7756 74.0533 45.4322 74.12 45.0389 74.12ZM53.1488 74C52.8488 74 52.5888 73.9533 52.3688 73.86C52.1488 73.7667 51.9788 73.61 51.8588 73.39C51.7454 73.1633 51.6888 72.86 51.6888 72.48V69.67H50.8088V68.96H51.6888L51.7988 67.74H52.5288V68.96H53.9888V69.67H52.5288V72.48C52.5288 72.7933 52.5921 73.0067 52.7188 73.12C52.8454 73.2267 53.0688 73.28 53.3888 73.28H53.9288V74H53.1488ZM56.7248 74.12C56.3181 74.12 55.9781 74.05 55.7048 73.91C55.4314 73.7633 55.2281 73.5733 55.0948 73.34C54.9614 73.1 54.8948 72.84 54.8948 72.56C54.8948 72.22 54.9814 71.9333 55.1548 71.7C55.3348 71.46 55.5848 71.28 55.9048 71.16C56.2314 71.0333 56.6148 70.97 57.0548 70.97H58.3848C58.3848 70.6567 58.3348 70.3967 58.2348 70.19C58.1414 69.9767 58.0014 69.8167 57.8148 69.71C57.6348 69.6033 57.4081 69.55 57.1348 69.55C56.8148 69.55 56.5381 69.63 56.3048 69.79C56.0714 69.95 55.9281 70.1867 55.8748 70.5H55.0148C55.0548 70.14 55.1748 69.84 55.3748 69.6C55.5814 69.3533 55.8414 69.1667 56.1548 69.04C56.4681 68.9067 56.7948 68.84 57.1348 68.84C57.6014 68.84 57.9881 68.9267 58.2948 69.1C58.6081 69.2667 58.8414 69.5033 58.9948 69.81C59.1481 70.11 59.2248 70.4667 59.2248 70.88V74H58.4748L58.4248 73.11C58.3581 73.25 58.2714 73.3833 58.1648 73.51C58.0648 73.63 57.9448 73.7367 57.8048 73.83C57.6648 73.9167 57.5048 73.9867 57.3248 74.04C57.1514 74.0933 56.9514 74.12 56.7248 74.12ZM56.8548 73.41C57.0881 73.41 57.2981 73.3633 57.4848 73.27C57.6781 73.17 57.8414 73.0367 57.9748 72.87C58.1081 72.6967 58.2081 72.5067 58.2748 72.3C58.3481 72.0933 58.3848 71.8767 58.3848 71.65V71.62H57.1248C56.7981 71.62 56.5348 71.66 56.3348 71.74C56.1348 71.8133 55.9914 71.92 55.9048 72.06C55.8181 72.1933 55.7748 72.3467 55.7748 72.52C55.7748 72.7 55.8148 72.8567 55.8948 72.99C55.9814 73.1233 56.1048 73.2267 56.2648 73.3C56.4314 73.3733 56.6281 73.41 56.8548 73.41ZM60.5242 74V68.96H61.2842L61.3442 69.92C61.4576 69.6933 61.6009 69.5 61.7742 69.34C61.9542 69.18 62.1676 69.0567 62.4142 68.97C62.6676 68.8833 62.9542 68.84 63.2742 68.84V69.72H62.9642C62.7509 69.72 62.5476 69.75 62.3542 69.81C62.1609 69.8633 61.9876 69.9533 61.8342 70.08C61.6876 70.2067 61.5709 70.38 61.4842 70.6C61.4042 70.8133 61.3642 71.08 61.3642 71.4V74H60.5242ZM66.0982 76.32C65.6449 76.32 65.2415 76.26 64.8882 76.14C64.5415 76.0267 64.2715 75.85 64.0782 75.61C63.8849 75.37 63.7882 75.0733 63.7882 74.72C63.7882 74.5667 63.8182 74.4033 63.8782 74.23C63.9449 74.0567 64.0549 73.8867 64.2082 73.72C64.3682 73.5533 64.5915 73.4033 64.8782 73.27L65.4582 73.61C65.1049 73.7567 64.8749 73.9233 64.7682 74.11C64.6615 74.3033 64.6082 74.48 64.6082 74.64C64.6082 74.86 64.6715 75.0433 64.7982 75.19C64.9249 75.3367 65.1015 75.4467 65.3282 75.52C65.5549 75.5933 65.8115 75.63 66.0982 75.63C66.3849 75.63 66.6315 75.59 66.8382 75.51C67.0449 75.43 67.2049 75.3167 67.3182 75.17C67.4315 75.0233 67.4882 74.85 67.4882 74.65C67.4882 74.4167 67.4015 74.22 67.2282 74.06C67.0549 73.9067 66.7249 73.8167 66.2382 73.79C65.8449 73.7633 65.5149 73.7267 65.2482 73.68C64.9815 73.6333 64.7615 73.58 64.5882 73.52C64.4149 73.4533 64.2682 73.38 64.1482 73.3C64.0349 73.22 63.9315 73.1367 63.8382 73.05V72.82L64.8082 71.86L65.5382 72.12L64.5382 73.02L64.6682 72.67C64.7415 72.7233 64.8115 72.7733 64.8782 72.82C64.9449 72.8667 65.0349 72.9067 65.1482 72.94C65.2615 72.9733 65.4182 73.0033 65.6182 73.03C65.8249 73.0567 66.0949 73.0833 66.4282 73.11C66.8882 73.1433 67.2549 73.2233 67.5282 73.35C67.8082 73.4767 68.0082 73.6467 68.1282 73.86C68.2549 74.0733 68.3182 74.3267 68.3182 74.62C68.3182 74.9067 68.2382 75.1767 68.0782 75.43C67.9249 75.69 67.6849 75.9033 67.3582 76.07C67.0315 76.2367 66.6115 76.32 66.0982 76.32ZM66.0882 72.42C65.6682 72.42 65.3082 72.34 65.0082 72.18C64.7149 72.02 64.4915 71.8067 64.3382 71.54C64.1849 71.2667 64.1082 70.9633 64.1082 70.63C64.1082 70.2967 64.1849 69.9967 64.3382 69.73C64.4982 69.4633 64.7249 69.25 65.0182 69.09C65.3115 68.9233 65.6682 68.84 66.0882 68.84C66.5082 68.84 66.8649 68.9233 67.1582 69.09C67.4515 69.25 67.6749 69.4633 67.8282 69.73C67.9815 69.9967 68.0582 70.2967 68.0582 70.63C68.0582 70.9633 67.9815 71.2667 67.8282 71.54C67.6749 71.8067 67.4515 72.02 67.1582 72.18C66.8649 72.34 66.5082 72.42 66.0882 72.42ZM66.0882 71.73C66.4482 71.73 66.7315 71.6367 66.9382 71.45C67.1449 71.2633 67.2482 70.99 67.2482 70.63C67.2482 70.2767 67.1449 70.0067 66.9382 69.82C66.7315 69.6333 66.4482 69.54 66.0882 69.54C65.7349 69.54 65.4482 69.6333 65.2282 69.82C65.0149 70.0067 64.9082 70.2767 64.9082 70.63C64.9082 70.99 65.0149 71.2633 65.2282 71.45C65.4415 71.6367 65.7282 71.73 66.0882 71.73ZM66.9082 69.67L66.6582 68.96H68.7182V69.59L66.9082 69.67ZM71.6991 74.12C71.2257 74.12 70.8057 74.01 70.4391 73.79C70.0791 73.57 69.7957 73.2633 69.5891 72.87C69.3824 72.47 69.2791 72.0067 69.2791 71.48C69.2791 70.9467 69.3791 70.4833 69.5791 70.09C69.7857 69.6967 70.0724 69.39 70.4391 69.17C70.8124 68.95 71.2391 68.84 71.7191 68.84C72.2124 68.84 72.6291 68.95 72.9691 69.17C73.3157 69.39 73.5791 69.68 73.7591 70.04C73.9457 70.3933 74.0391 70.7833 74.0391 71.21C74.0391 71.2767 74.0391 71.3467 74.0391 71.42C74.0391 71.4933 74.0357 71.5767 74.0291 71.67H69.9091V71.02H73.2191C73.1991 70.56 73.0457 70.2 72.7591 69.94C72.4791 69.68 72.1257 69.55 71.6991 69.55C71.4124 69.55 71.1457 69.6167 70.8991 69.75C70.6591 69.8767 70.4657 70.0667 70.3191 70.32C70.1724 70.5667 70.0991 70.8767 70.0991 71.25V71.53C70.0991 71.9433 70.1724 72.29 70.3191 72.57C70.4724 72.85 70.6691 73.06 70.9091 73.2C71.1557 73.34 71.4191 73.41 71.6991 73.41C72.0524 73.41 72.3424 73.3333 72.5691 73.18C72.8024 73.02 72.9691 72.8067 73.0691 72.54H73.8991C73.8191 72.84 73.6791 73.11 73.4791 73.35C73.2791 73.59 73.0291 73.78 72.7291 73.92C72.4357 74.0533 72.0924 74.12 71.6991 74.12ZM76.9866 74C76.6866 74 76.4266 73.9533 76.2066 73.86C75.9866 73.7667 75.8166 73.61 75.6966 73.39C75.5833 73.1633 75.5266 72.86 75.5266 72.48V69.67H74.6466V68.96H75.5266L75.6366 67.74H76.3666V68.96H77.8266V69.67H76.3666V72.48C76.3666 72.7933 76.43 73.0067 76.5566 73.12C76.6833 73.2267 76.9066 73.28 77.2266 73.28H77.7666V74H76.9866ZM81.5989 71.4V70.69H85.5589V71.4H81.5989ZM2.34 88.12C1.93333 88.12 1.59333 88.05 1.32 87.91C1.04667 87.7633 0.843333 87.5733 0.71 87.34C0.576667 87.1 0.51 86.84 0.51 86.56C0.51 86.22 0.596667 85.9333 0.77 85.7C0.95 85.46 1.2 85.28 1.52 85.16C1.84667 85.0333 2.23 84.97 2.67 84.97H4C4 84.6567 3.95 84.3967 3.85 84.19C3.75667 83.9767 3.61667 83.8167 3.43 83.71C3.25 83.6033 3.02333 83.55 2.75 83.55C2.43 83.55 2.15333 83.63 1.92 83.79C1.68667 83.95 1.54333 84.1867 1.49 84.5H0.63C0.67 84.14 0.79 83.84 0.99 83.6C1.19667 83.3533 1.45667 83.1667 1.77 83.04C2.08333 82.9067 2.41 82.84 2.75 82.84C3.21667 82.84 3.60333 82.9267 3.91 83.1C4.22333 83.2667 4.45667 83.5033 4.61 83.81C4.76333 84.11 4.84 84.4667 4.84 84.88V88H4.09L4.04 87.11C3.97333 87.25 3.88667 87.3833 3.78 87.51C3.68 87.63 3.56 87.7367 3.42 87.83C3.28 87.9167 3.12 87.9867 2.94 88.04C2.76667 88.0933 2.56667 88.12 2.34 88.12ZM2.47 87.41C2.70333 87.41 2.91333 87.3633 3.1 87.27C3.29333 87.17 3.45667 87.0367 3.59 86.87C3.72333 86.6967 3.82333 86.5067 3.89 86.3C3.96333 86.0933 4 85.8767 4 85.65V85.62H2.74C2.41333 85.62 2.15 85.66 1.95 85.74C1.75 85.8133 1.60667 85.92 1.52 86.06C1.43333 86.1933 1.39 86.3467 1.39 86.52C1.39 86.7 1.43 86.8567 1.51 86.99C1.59667 87.1233 1.72 87.2267 1.88 87.3C2.04667 87.3733 2.24333 87.41 2.47 87.41ZM8.35945 88.12C7.87279 88.12 7.44612 88.0067 7.07945 87.78C6.71279 87.5467 6.42945 87.23 6.22945 86.83C6.02945 86.43 5.92945 85.9767 5.92945 85.47C5.92945 84.9633 6.02945 84.5133 6.22945 84.12C6.42945 83.72 6.71279 83.4067 7.07945 83.18C7.45279 82.9533 7.88279 82.84 8.36945 82.84C8.78279 82.84 9.14279 82.9233 9.44945 83.09C9.76279 83.2567 10.0028 83.49 10.1695 83.79V80.8H11.0095V88H10.2495L10.1795 87.17C10.0728 87.3367 9.93612 87.4933 9.76945 87.64C9.60279 87.78 9.40279 87.8967 9.16945 87.99C8.93612 88.0767 8.66612 88.12 8.35945 88.12ZM8.45945 87.39C8.79279 87.39 9.08612 87.31 9.33945 87.15C9.59279 86.99 9.78945 86.77 9.92945 86.49C10.0695 86.2033 10.1395 85.8667 10.1395 85.48C10.1395 85.1 10.0695 84.7667 9.92945 84.48C9.78945 84.1933 9.59279 83.97 9.33945 83.81C9.08612 83.65 8.79279 83.57 8.45945 83.57C8.13279 83.57 7.84279 83.65 7.58945 83.81C7.33612 83.97 7.13945 84.1933 6.99945 84.48C6.85945 84.7667 6.78945 85.1 6.78945 85.48C6.78945 85.8667 6.85945 86.2033 6.99945 86.49C7.13945 86.77 7.33612 86.99 7.58945 87.15C7.84279 87.31 8.13279 87.39 8.45945 87.39ZM11.439 90.2V89.48H11.829C12.0823 89.48 12.2623 89.4267 12.369 89.32C12.4757 89.22 12.529 89.0467 12.529 88.8V82.96H13.369V88.82C13.369 89.14 13.3157 89.4 13.209 89.6C13.1023 89.8067 12.9423 89.9567 12.729 90.05C12.5223 90.15 12.2657 90.2 11.959 90.2H11.439ZM12.959 81.89C12.7923 81.89 12.6523 81.8367 12.539 81.73C12.4323 81.6167 12.379 81.4767 12.379 81.31C12.379 81.1433 12.4323 81.01 12.539 80.91C12.6523 80.8033 12.7923 80.75 12.959 80.75C13.119 80.75 13.2523 80.8033 13.359 80.91C13.4723 81.01 13.529 81.1433 13.529 81.31C13.529 81.4767 13.4723 81.6167 13.359 81.73C13.2523 81.8367 13.119 81.89 12.959 81.89ZM16.6706 88.12C16.284 88.12 15.944 88.0433 15.6506 87.89C15.364 87.7367 15.1406 87.5 14.9806 87.18C14.8273 86.86 14.7506 86.46 14.7506 85.98V82.96H15.5906V85.89C15.5906 86.39 15.7006 86.7667 15.9206 87.02C16.1406 87.2733 16.4506 87.4 16.8506 87.4C17.1306 87.4 17.384 87.3333 17.6106 87.2C17.8373 87.06 18.014 86.8633 18.1406 86.61C18.274 86.35 18.3406 86.0333 18.3406 85.66V82.96H19.1806V88H18.4206L18.3706 87.12C18.2173 87.4333 17.9906 87.68 17.6906 87.86C17.3906 88.0333 17.0506 88.12 16.6706 88.12ZM22.473 88.12C22.053 88.12 21.6864 88.05 21.373 87.91C21.0664 87.77 20.8197 87.5767 20.633 87.33C20.453 87.0767 20.343 86.78 20.303 86.44H21.163C21.1964 86.6133 21.2664 86.7733 21.373 86.92C21.4797 87.0667 21.623 87.1867 21.803 87.28C21.9897 87.3667 22.2164 87.41 22.483 87.41C22.7164 87.41 22.9097 87.3767 23.063 87.31C23.2164 87.2367 23.3297 87.14 23.403 87.02C23.483 86.9 23.523 86.77 23.523 86.63C23.523 86.4233 23.473 86.2667 23.373 86.16C23.2797 86.0533 23.1397 85.97 22.953 85.91C22.7664 85.8433 22.5397 85.7867 22.273 85.74C22.053 85.7 21.8364 85.6467 21.623 85.58C21.4097 85.5133 21.2197 85.4267 21.053 85.32C20.8864 85.2067 20.753 85.07 20.653 84.91C20.5597 84.75 20.513 84.5533 20.513 84.32C20.513 84.0333 20.5864 83.78 20.733 83.56C20.8797 83.3333 21.0897 83.1567 21.363 83.03C21.643 82.9033 21.9664 82.84 22.333 82.84C22.873 82.84 23.3097 82.97 23.643 83.23C23.9764 83.49 24.173 83.8667 24.233 84.36H23.403C23.3697 84.1067 23.2597 83.91 23.073 83.77C22.893 83.6233 22.643 83.55 22.323 83.55C22.0097 83.55 21.7697 83.6133 21.603 83.74C21.443 83.8667 21.363 84.0333 21.363 84.24C21.363 84.3733 21.4064 84.4933 21.493 84.6C21.5864 84.7 21.7197 84.7867 21.893 84.86C22.073 84.9333 22.293 84.9933 22.553 85.04C22.8864 85.1 23.1897 85.18 23.463 85.28C23.7364 85.38 23.9564 85.53 24.123 85.73C24.2964 85.9233 24.383 86.2 24.383 86.56C24.383 86.8733 24.303 87.1467 24.143 87.38C23.9897 87.6133 23.7697 87.7967 23.483 87.93C23.1964 88.0567 22.8597 88.12 22.473 88.12ZM27.348 88C27.048 88 26.788 87.9533 26.568 87.86C26.348 87.7667 26.178 87.61 26.058 87.39C25.9446 87.1633 25.888 86.86 25.888 86.48V83.67H25.008V82.96H25.888L25.998 81.74H26.728V82.96H28.188V83.67H26.728V86.48C26.728 86.7933 26.7913 87.0067 26.918 87.12C27.0446 87.2267 27.268 87.28 27.588 87.28H28.128V88H27.348ZM31.9402 88V82.96H32.7002L32.7602 83.92C32.8736 83.6933 33.0169 83.5 33.1902 83.34C33.3702 83.18 33.5836 83.0567 33.8302 82.97C34.0836 82.8833 34.3702 82.84 34.6902 82.84V83.72H34.3802C34.1669 83.72 33.9636 83.75 33.7702 83.81C33.5769 83.8633 33.4036 83.9533 33.2502 84.08C33.1036 84.2067 32.9869 84.38 32.9002 84.6C32.8202 84.8133 32.7802 85.08 32.7802 85.4V88H31.9402ZM37.6659 88.12C37.1925 88.12 36.7725 88.01 36.4059 87.79C36.0459 87.57 35.7625 87.2633 35.5559 86.87C35.3492 86.47 35.2459 86.0067 35.2459 85.48C35.2459 84.9467 35.3459 84.4833 35.5459 84.09C35.7525 83.6967 36.0392 83.39 36.4059 83.17C36.7792 82.95 37.2059 82.84 37.6859 82.84C38.1792 82.84 38.5959 82.95 38.9359 83.17C39.2825 83.39 39.5459 83.68 39.7259 84.04C39.9125 84.3933 40.0059 84.7833 40.0059 85.21C40.0059 85.2767 40.0059 85.3467 40.0059 85.42C40.0059 85.4933 40.0025 85.5767 39.9959 85.67H35.8759V85.02H39.1859C39.1659 84.56 39.0125 84.2 38.7259 83.94C38.4459 83.68 38.0925 83.55 37.6659 83.55C37.3792 83.55 37.1125 83.6167 36.8659 83.75C36.6259 83.8767 36.4325 84.0667 36.2859 84.32C36.1392 84.5667 36.0659 84.8767 36.0659 85.25V85.53C36.0659 85.9433 36.1392 86.29 36.2859 86.57C36.4392 86.85 36.6359 87.06 36.8759 87.2C37.1225 87.34 37.3859 87.41 37.6659 87.41C38.0192 87.41 38.3092 87.3333 38.5359 87.18C38.7692 87.02 38.9359 86.8067 39.0359 86.54H39.8659C39.7859 86.84 39.6459 87.11 39.4459 87.35C39.2459 87.59 38.9959 87.78 38.6959 87.92C38.4025 88.0533 38.0592 88.12 37.6659 88.12ZM43.4095 88.12C42.9361 88.12 42.5095 88.01 42.1295 87.79C41.7561 87.57 41.4628 87.2633 41.2495 86.87C41.0361 86.47 40.9295 86.01 40.9295 85.49C40.9295 84.9567 41.0361 84.4933 41.2495 84.1C41.4628 83.7067 41.7561 83.4 42.1295 83.18C42.5095 82.9533 42.9361 82.84 43.4095 82.84C44.0095 82.84 44.5095 82.9967 44.9095 83.31C45.3095 83.6167 45.5628 84.03 45.6695 84.55H44.8095C44.7428 84.2367 44.5795 83.9933 44.3195 83.82C44.0595 83.6467 43.7528 83.56 43.3995 83.56C43.1128 83.56 42.8461 83.6333 42.5995 83.78C42.3528 83.92 42.1561 84.1333 42.0095 84.42C41.8628 84.7067 41.7895 85.06 41.7895 85.48C41.7895 85.7933 41.8328 86.0733 41.9195 86.32C42.0061 86.56 42.1228 86.76 42.2695 86.92C42.4161 87.08 42.5861 87.2033 42.7795 87.29C42.9795 87.37 43.1861 87.41 43.3995 87.41C43.6395 87.41 43.8561 87.3733 44.0495 87.3C44.2428 87.22 44.4061 87.1033 44.5395 86.95C44.6728 86.7967 44.7628 86.6167 44.8095 86.41H45.6695C45.5628 86.9167 45.3061 87.33 44.8995 87.65C44.4995 87.9633 44.0028 88.12 43.4095 88.12ZM49.1121 88.12C48.6454 88.12 48.2254 88.0133 47.8521 87.8C47.4788 87.58 47.1854 87.2733 46.9721 86.88C46.7588 86.48 46.6521 86.0167 46.6521 85.49C46.6521 84.95 46.7588 84.4833 46.9721 84.09C47.1921 83.69 47.4888 83.3833 47.8621 83.17C48.2421 82.95 48.6654 82.84 49.1321 82.84C49.6121 82.84 50.0354 82.95 50.4021 83.17C50.7754 83.3833 51.0688 83.69 51.2821 84.09C51.5021 84.4833 51.6121 84.9467 51.6121 85.48C51.6121 86.0133 51.5021 86.48 51.2821 86.88C51.0621 87.2733 50.7654 87.58 50.3921 87.8C50.0188 88.0133 49.5921 88.12 49.1121 88.12ZM49.1221 87.4C49.4088 87.4 49.6754 87.33 49.9221 87.19C50.1688 87.0433 50.3688 86.8267 50.5221 86.54C50.6754 86.2533 50.7521 85.9 50.7521 85.48C50.7521 85.0533 50.6754 84.7 50.5221 84.42C50.3754 84.1333 50.1788 83.92 49.9321 83.78C49.6921 83.6333 49.4254 83.56 49.1321 83.56C48.8521 83.56 48.5854 83.6333 48.3321 83.78C48.0854 83.92 47.8854 84.1333 47.7321 84.42C47.5854 84.7 47.5121 85.0533 47.5121 85.48C47.5121 85.9 47.5854 86.2533 47.7321 86.54C47.8854 86.8267 48.0821 87.0433 48.3221 87.19C48.5688 87.33 48.8354 87.4 49.1221 87.4ZM52.7898 88V82.96H53.5498L53.5998 83.68C53.7598 83.42 53.9732 83.2167 54.2398 83.07C54.5132 82.9167 54.8098 82.84 55.1298 82.84C55.3898 82.84 55.6232 82.8767 55.8298 82.95C56.0432 83.0167 56.2298 83.1233 56.3898 83.27C56.5498 83.41 56.6798 83.59 56.7798 83.81C56.9532 83.5033 57.1898 83.2667 57.4898 83.1C57.7965 82.9267 58.1232 82.84 58.4698 82.84C58.8565 82.84 59.1932 82.92 59.4798 83.08C59.7732 83.2333 59.9965 83.47 60.1498 83.79C60.3098 84.1033 60.3898 84.5033 60.3898 84.99V88H59.5598V85.08C59.5598 84.5733 59.4565 84.1933 59.2498 83.94C59.0432 83.6867 58.7532 83.56 58.3798 83.56C58.1198 83.56 57.8865 83.63 57.6798 83.77C57.4732 83.9033 57.3098 84.1 57.1898 84.36C57.0698 84.62 57.0098 84.94 57.0098 85.32V88H56.1698V85.08C56.1698 84.5733 56.0665 84.1933 55.8598 83.94C55.6532 83.6867 55.3598 83.56 54.9798 83.56C54.7265 83.56 54.4965 83.63 54.2898 83.77C54.0898 83.9033 53.9298 84.1 53.8098 84.36C53.6898 84.62 53.6298 84.94 53.6298 85.32V88H52.7898ZM61.6961 88V82.96H62.4561L62.5061 83.68C62.6661 83.42 62.8794 83.2167 63.1461 83.07C63.4194 82.9167 63.7161 82.84 64.0361 82.84C64.2961 82.84 64.5294 82.8767 64.7361 82.95C64.9494 83.0167 65.1361 83.1233 65.2961 83.27C65.4561 83.41 65.5861 83.59 65.6861 83.81C65.8594 83.5033 66.0961 83.2667 66.3961 83.1C66.7028 82.9267 67.0294 82.84 67.3761 82.84C67.7628 82.84 68.0994 82.92 68.3861 83.08C68.6794 83.2333 68.9028 83.47 69.0561 83.79C69.2161 84.1033 69.2961 84.5033 69.2961 84.99V88H68.4661V85.08C68.4661 84.5733 68.3628 84.1933 68.1561 83.94C67.9494 83.6867 67.6594 83.56 67.2861 83.56C67.0261 83.56 66.7928 83.63 66.5861 83.77C66.3794 83.9033 66.2161 84.1 66.0961 84.36C65.9761 84.62 65.9161 84.94 65.9161 85.32V88H65.0761V85.08C65.0761 84.5733 64.9728 84.1933 64.7661 83.94C64.5594 83.6867 64.2661 83.56 63.8861 83.56C63.6328 83.56 63.4028 83.63 63.1961 83.77C62.9961 83.9033 62.8361 84.1 62.7161 84.36C62.5961 84.62 62.5361 84.94 62.5361 85.32V88H61.6961ZM72.8123 88.12C72.339 88.12 71.919 88.01 71.5523 87.79C71.1923 87.57 70.909 87.2633 70.7023 86.87C70.4957 86.47 70.3923 86.0067 70.3923 85.48C70.3923 84.9467 70.4923 84.4833 70.6923 84.09C70.899 83.6967 71.1857 83.39 71.5523 83.17C71.9257 82.95 72.3523 82.84 72.8323 82.84C73.3257 82.84 73.7423 82.95 74.0823 83.17C74.429 83.39 74.6923 83.68 74.8723 84.04C75.059 84.3933 75.1523 84.7833 75.1523 85.21C75.1523 85.2767 75.1523 85.3467 75.1523 85.42C75.1523 85.4933 75.149 85.5767 75.1423 85.67H71.0223V85.02H74.3323C74.3123 84.56 74.159 84.2 73.8723 83.94C73.5923 83.68 73.239 83.55 72.8123 83.55C72.5257 83.55 72.259 83.6167 72.0123 83.75C71.7723 83.8767 71.579 84.0667 71.4323 84.32C71.2857 84.5667 71.2123 84.8767 71.2123 85.25V85.53C71.2123 85.9433 71.2857 86.29 71.4323 86.57C71.5857 86.85 71.7823 87.06 72.0223 87.2C72.269 87.34 72.5323 87.41 72.8123 87.41C73.1657 87.41 73.4557 87.3333 73.6823 87.18C73.9157 87.02 74.0823 86.8067 74.1823 86.54H75.0123C74.9323 86.84 74.7923 87.11 74.5923 87.35C74.3923 87.59 74.1423 87.78 73.8423 87.92C73.549 88.0533 73.2057 88.12 72.8123 88.12ZM76.2859 88V82.96H77.0459L77.0859 83.84C77.2459 83.5267 77.4726 83.2833 77.7659 83.11C78.0659 82.93 78.4059 82.84 78.7859 82.84C79.1793 82.84 79.5193 82.92 79.8059 83.08C80.0926 83.2333 80.3159 83.47 80.4759 83.79C80.6359 84.1033 80.7159 84.5033 80.7159 84.99V88H79.8759V85.08C79.8759 84.5733 79.7626 84.1933 79.5359 83.94C79.3159 83.6867 79.0026 83.56 78.5959 83.56C78.3159 83.56 78.0659 83.63 77.8459 83.77C77.6259 83.9033 77.4493 84.1 77.3159 84.36C77.1893 84.6133 77.1259 84.93 77.1259 85.31V88H76.2859ZM84.2481 88.12C83.7615 88.12 83.3348 88.0067 82.9681 87.78C82.6015 87.5467 82.3181 87.23 82.1181 86.83C81.9181 86.43 81.8181 85.9767 81.8181 85.47C81.8181 84.9633 81.9181 84.5133 82.1181 84.12C82.3181 83.72 82.6015 83.4067 82.9681 83.18C83.3415 82.9533 83.7715 82.84 84.2581 82.84C84.6715 82.84 85.0315 82.9233 85.3381 83.09C85.6515 83.2567 85.8915 83.49 86.0581 83.79V80.8H86.8981V88H86.1381L86.0681 87.17C85.9615 87.3367 85.8248 87.4933 85.6581 87.64C85.4915 87.78 85.2915 87.8967 85.0581 87.99C84.8248 88.0767 84.5548 88.12 84.2481 88.12ZM84.3481 87.39C84.6815 87.39 84.9748 87.31 85.2281 87.15C85.4815 86.99 85.6781 86.77 85.8181 86.49C85.9581 86.2033 86.0281 85.8667 86.0281 85.48C86.0281 85.1 85.9581 84.7667 85.8181 84.48C85.6781 84.1933 85.4815 83.97 85.2281 83.81C84.9748 83.65 84.6815 83.57 84.3481 83.57C84.0215 83.57 83.7315 83.65 83.4781 83.81C83.2248 83.97 83.0281 84.1933 82.8881 84.48C82.7481 84.7667 82.6781 85.1 82.6781 85.48C82.6781 85.8667 82.7481 86.2033 82.8881 86.49C83.0281 86.77 83.2248 86.99 83.4781 87.15C83.7315 87.31 84.0215 87.39 84.3481 87.39ZM90.5077 88.12C90.0343 88.12 89.6143 88.01 89.2477 87.79C88.8877 87.57 88.6043 87.2633 88.3977 86.87C88.191 86.47 88.0877 86.0067 88.0877 85.48C88.0877 84.9467 88.1877 84.4833 88.3877 84.09C88.5943 83.6967 88.881 83.39 89.2477 83.17C89.621 82.95 90.0477 82.84 90.5277 82.84C91.021 82.84 91.4377 82.95 91.7777 83.17C92.1243 83.39 92.3877 83.68 92.5677 84.04C92.7543 84.3933 92.8477 84.7833 92.8477 85.21C92.8477 85.2767 92.8477 85.3467 92.8477 85.42C92.8477 85.4933 92.8443 85.5767 92.8377 85.67H88.7177V85.02H92.0277C92.0077 84.56 91.8543 84.2 91.5677 83.94C91.2877 83.68 90.9343 83.55 90.5077 83.55C90.221 83.55 89.9543 83.6167 89.7077 83.75C89.4677 83.8767 89.2743 84.0667 89.1277 84.32C88.981 84.5667 88.9077 84.8767 88.9077 85.25V85.53C88.9077 85.9433 88.981 86.29 89.1277 86.57C89.281 86.85 89.4777 87.06 89.7177 87.2C89.9643 87.34 90.2277 87.41 90.5077 87.41C90.861 87.41 91.151 87.3333 91.3777 87.18C91.611 87.02 91.7777 86.8067 91.8777 86.54H92.7077C92.6277 86.84 92.4877 87.11 92.2877 87.35C92.0877 87.59 91.8377 87.78 91.5377 87.92C91.2443 88.0533 90.901 88.12 90.5077 88.12ZM96.2013 88.12C95.7146 88.12 95.2879 88.0067 94.9213 87.78C94.5546 87.5467 94.2713 87.23 94.0713 86.83C93.8713 86.43 93.7713 85.9767 93.7713 85.47C93.7713 84.9633 93.8713 84.5133 94.0713 84.12C94.2713 83.72 94.5546 83.4067 94.9213 83.18C95.2946 82.9533 95.7246 82.84 96.2113 82.84C96.6246 82.84 96.9846 82.9233 97.2913 83.09C97.6046 83.2567 97.8446 83.49 98.0113 83.79V80.8H98.8513V88H98.0913L98.0213 87.17C97.9146 87.3367 97.7779 87.4933 97.6113 87.64C97.4446 87.78 97.2446 87.8967 97.0113 87.99C96.7779 88.0767 96.5079 88.12 96.2013 88.12ZM96.3013 87.39C96.6346 87.39 96.9279 87.31 97.1813 87.15C97.4346 86.99 97.6313 86.77 97.7713 86.49C97.9113 86.2033 97.9813 85.8667 97.9813 85.48C97.9813 85.1 97.9113 84.7667 97.7713 84.48C97.6313 84.1933 97.4346 83.97 97.1813 83.81C96.9279 83.65 96.6346 83.57 96.3013 83.57C95.9746 83.57 95.6846 83.65 95.4313 83.81C95.1779 83.97 94.9813 84.1933 94.8413 84.48C94.7013 84.7667 94.6313 85.1 94.6313 85.48C94.6313 85.8667 94.7013 86.2033 94.8413 86.49C94.9813 86.77 95.1779 86.99 95.4313 87.15C95.6846 87.31 95.9746 87.39 96.3013 87.39Z" fill="white"/>
</svg>
