<svg width="138" height="143" viewBox="0 0 138 143" fill="none" xmlns="http://www.w3.org/2000/svg">
<g clip-path="url(#clip0_10_2153)">
<rect width="138" height="143" rx="4.14" fill="#EFEFEF" fill-opacity="0.27"/>
<rect x="8.28027" y="7" width="42.5509" height="14" rx="7" fill="#F0FDFA"/>
<path d="M12.7803 17L13.1553 14.9H11.2803L14.6553 11H15.4053L15.0303 13.4H17.2803L13.5303 17H12.7803Z" fill="#00A3A1"/>
<path d="M19.3669 15.5852L20.3751 12.8285H20.9776L21.9818 15.5852H21.4186L20.6743 13.435L19.9261 15.5852H19.3669ZM19.8119 14.959L19.9537 14.5455H21.3556L21.4935 14.959H19.8119ZM22.689 15.5852V12.8285H23.2207V15.5852H22.689ZM25.1937 15.5852L26.2019 12.8285H26.8044L27.8086 15.5852H27.2454L26.5011 13.435L25.7529 15.5852H25.1937ZM25.6387 14.959L25.7805 14.5455H27.1824L27.3203 14.959H25.6387ZM28.5158 15.5852V12.8285H29.0475L30.3155 14.7306V12.8285H30.8471V15.5852H30.3155L29.0475 13.687V15.5852H28.5158ZM31.5447 15.5852L32.5528 12.8285H33.1553L34.1595 15.5852H33.5964L32.8521 13.435L32.1039 15.5852H31.5447ZM31.9897 14.959L32.1314 14.5455H33.5334L33.6712 14.959H31.9897ZM34.8668 15.5852V12.8285H35.3984V15.1717H36.6074V15.5852H34.8668ZM37.7282 15.5852V14.6164L36.7988 12.8285H37.4013L38.0511 14.1911H37.9448L38.5906 12.8285H39.1892L38.2598 14.6164V15.5852H37.7282ZM40.6516 15.6324C40.452 15.6324 40.2735 15.5983 40.116 15.53C39.9611 15.4618 39.8377 15.362 39.7458 15.2308C39.6565 15.0995 39.6106 14.9406 39.608 14.7542H40.1711C40.1737 14.8356 40.1947 14.9091 40.2341 14.9748C40.2735 15.0404 40.3273 15.0929 40.3956 15.1323C40.4665 15.1691 40.5505 15.1874 40.6476 15.1874C40.7316 15.1874 40.8038 15.1743 40.8642 15.1481C40.9272 15.1192 40.9758 15.0798 41.0099 15.0299C41.044 14.98 41.0611 14.921 41.0611 14.8527C41.0611 14.7739 41.0414 14.7083 41.002 14.6558C40.9653 14.6033 40.9128 14.5587 40.8445 14.5219C40.7789 14.4851 40.7014 14.4523 40.6122 14.4235C40.5255 14.3919 40.4336 14.3591 40.3365 14.325C40.1186 14.2541 39.9519 14.1596 39.8364 14.0415C39.7235 13.9233 39.667 13.7671 39.667 13.5728C39.667 13.4074 39.7064 13.2657 39.7852 13.1475C39.8666 13.0294 39.9781 12.9388 40.1199 12.8758C40.2617 12.8128 40.4231 12.7813 40.6043 12.7813C40.7907 12.7813 40.9535 12.8141 41.0926 12.8797C41.2344 12.9427 41.346 13.0346 41.4273 13.1554C41.5114 13.2762 41.5547 13.4179 41.5573 13.5807H40.9902C40.9876 13.5203 40.9692 13.4639 40.9351 13.4114C40.9036 13.3562 40.859 13.3129 40.8012 13.2814C40.7434 13.2473 40.6752 13.2302 40.5964 13.2302C40.5282 13.2276 40.4652 13.2381 40.4074 13.2617C40.3523 13.2854 40.3076 13.3208 40.2735 13.3681C40.242 13.4127 40.2262 13.4691 40.2262 13.5374C40.2262 13.603 40.242 13.6582 40.2735 13.7028C40.3076 13.7474 40.3536 13.7868 40.4113 13.8209C40.4691 13.8524 40.5373 13.8826 40.6161 13.9115C40.6949 13.9378 40.7802 13.9653 40.8721 13.9942C41.0086 14.0415 41.1346 14.0979 41.2501 14.1635C41.3657 14.2265 41.4575 14.3092 41.5258 14.4116C41.5941 14.514 41.6282 14.6492 41.6282 14.8173C41.6282 14.9617 41.5901 15.0955 41.514 15.2189C41.4378 15.3423 41.3276 15.4421 41.1832 15.5182C41.0414 15.5944 40.8642 15.6324 40.6516 15.6324ZM42.4242 15.5852V12.8285H42.9558V15.5852H42.4242ZM44.7912 15.6324C44.5917 15.6324 44.4131 15.5983 44.2556 15.53C44.1007 15.4618 43.9773 15.362 43.8854 15.2308C43.7962 15.0995 43.7502 14.9406 43.7476 14.7542H44.3107C44.3134 14.8356 44.3344 14.9091 44.3738 14.9748C44.4131 15.0404 44.467 15.0929 44.5352 15.1323C44.6061 15.1691 44.6901 15.1874 44.7873 15.1874C44.8713 15.1874 44.9435 15.1743 45.0038 15.1481C45.0669 15.1192 45.1154 15.0798 45.1496 15.0299C45.1837 14.98 45.2007 14.921 45.2007 14.8527C45.2007 14.7739 45.1811 14.7083 45.1417 14.6558C45.1049 14.6033 45.0524 14.5587 44.9842 14.5219C44.9185 14.4851 44.8411 14.4523 44.7518 14.4235C44.6652 14.3919 44.5733 14.3591 44.4761 14.325C44.2582 14.2541 44.0915 14.1596 43.976 14.0415C43.8631 13.9233 43.8067 13.7671 43.8067 13.5728C43.8067 13.4074 43.8461 13.2657 43.9248 13.1475C44.0062 13.0294 44.1178 12.9388 44.2596 12.8758C44.4013 12.8128 44.5628 12.7813 44.7439 12.7813C44.9303 12.7813 45.0931 12.8141 45.2323 12.8797C45.374 12.9427 45.4856 13.0346 45.567 13.1554C45.651 13.2762 45.6943 13.4179 45.6969 13.5807H45.1299C45.1272 13.5203 45.1089 13.4639 45.0747 13.4114C45.0432 13.3562 44.9986 13.3129 44.9408 13.2814C44.8831 13.2473 44.8148 13.2302 44.7361 13.2302C44.6678 13.2276 44.6048 13.2381 44.547 13.2617C44.4919 13.2854 44.4473 13.3208 44.4131 13.3681C44.3816 13.4127 44.3659 13.4691 44.3659 13.5374C44.3659 13.603 44.3816 13.6582 44.4131 13.7028C44.4473 13.7474 44.4932 13.7868 44.551 13.8209C44.6087 13.8524 44.677 13.8826 44.7557 13.9115C44.8345 13.9378 44.9198 13.9653 45.0117 13.9942C45.1482 14.0415 45.2743 14.0979 45.3898 14.1635C45.5053 14.2265 45.5972 14.3092 45.6654 14.4116C45.7337 14.514 45.7678 14.6492 45.7678 14.8173C45.7678 14.9617 45.7298 15.0955 45.6536 15.2189C45.5775 15.3423 45.4672 15.4421 45.3228 15.5182C45.1811 15.5944 45.0038 15.6324 44.7912 15.6324Z" fill="#00A3A1"/>
<path d="M8.99027 34.14V27.14H13.5103V28.11H10.1903V30.12H13.2103V31.07H10.1903V33.17H13.5103V34.14H8.99027ZM14.7315 34.14V26.94H15.9315V34.14H14.7315ZM19.6306 34.26C19.1306 34.26 18.6906 34.1533 18.3106 33.94C17.9306 33.72 17.6339 33.4133 17.4206 33.02C17.2073 32.6267 17.1006 32.1733 17.1006 31.66C17.1006 31.1267 17.2039 30.66 17.4106 30.26C17.6239 29.86 17.9206 29.5467 18.3006 29.32C18.6873 29.0933 19.1339 28.98 19.6406 28.98C20.1339 28.98 20.5639 29.09 20.9306 29.31C21.2973 29.53 21.5806 29.8267 21.7806 30.2C21.9806 30.5667 22.0806 30.98 22.0806 31.44C22.0806 31.5067 22.0806 31.58 22.0806 31.66C22.0806 31.74 22.0739 31.8233 22.0606 31.91H17.9606V31.14H20.8706C20.8573 30.7733 20.7339 30.4867 20.5006 30.28C20.2673 30.0667 19.9773 29.96 19.6306 29.96C19.3839 29.96 19.1573 30.0167 18.9506 30.13C18.7439 30.2433 18.5806 30.4133 18.4606 30.64C18.3406 30.86 18.2806 31.14 18.2806 31.48V31.77C18.2806 32.0833 18.3373 32.3533 18.4506 32.58C18.5706 32.8067 18.7306 32.98 18.9306 33.1C19.1373 33.2133 19.3673 33.27 19.6206 33.27C19.9006 33.27 20.1306 33.21 20.3106 33.09C20.4973 32.97 20.6339 32.81 20.7206 32.61H21.9406C21.8473 32.9233 21.6939 33.2067 21.4806 33.46C21.2673 33.7067 21.0039 33.9033 20.6906 34.05C20.3773 34.19 20.0239 34.26 19.6306 34.26ZM24.3732 34.14L22.5132 29.1H23.7732L25.1032 33L26.4332 29.1H27.6732L25.8132 34.14H24.3732ZM29.9174 34.26C29.504 34.26 29.1607 34.19 28.8874 34.05C28.614 33.91 28.4107 33.7233 28.2774 33.49C28.144 33.2567 28.0774 33.0033 28.0774 32.73C28.0774 32.41 28.1574 32.1333 28.3174 31.9C28.484 31.6667 28.7274 31.4867 29.0474 31.36C29.3674 31.2267 29.7607 31.16 30.2274 31.16H31.4974C31.4974 30.8933 31.4607 30.6733 31.3874 30.5C31.314 30.32 31.2007 30.1867 31.0474 30.1C30.894 30.0133 30.6974 29.97 30.4574 29.97C30.184 29.97 29.9507 30.0333 29.7574 30.16C29.564 30.28 29.444 30.4667 29.3974 30.72H28.2174C28.2574 30.36 28.3774 30.0533 28.5774 29.8C28.7774 29.54 29.0407 29.34 29.3674 29.2C29.7007 29.0533 30.064 28.98 30.4574 28.98C30.9307 28.98 31.334 29.0633 31.6674 29.23C32.0007 29.39 32.254 29.6233 32.4274 29.93C32.6074 30.23 32.6974 30.5933 32.6974 31.02V34.14H31.6774L31.5574 33.33C31.4907 33.4633 31.404 33.5867 31.2974 33.7C31.1974 33.8133 31.0807 33.9133 30.9474 34C30.814 34.08 30.6607 34.1433 30.4874 34.19C30.3207 34.2367 30.1307 34.26 29.9174 34.26ZM30.1874 33.31C30.3807 33.31 30.5507 33.2767 30.6974 33.21C30.8507 33.1367 30.9807 33.0367 31.0874 32.91C31.2007 32.7767 31.2874 32.63 31.3474 32.47C31.4074 32.31 31.4474 32.14 31.4674 31.96V31.94H30.3574C30.124 31.94 29.9307 31.97 29.7774 32.03C29.624 32.0833 29.514 32.1633 29.4474 32.27C29.3807 32.3767 29.3474 32.5 29.3474 32.64C29.3474 32.78 29.3807 32.9 29.4474 33C29.514 33.1 29.6107 33.1767 29.7374 33.23C29.864 33.2833 30.014 33.31 30.1874 33.31ZM36.0914 34.14C35.7514 34.14 35.4548 34.0867 35.2014 33.98C34.9548 33.8733 34.7614 33.6967 34.6214 33.45C34.4814 33.2033 34.4114 32.87 34.4114 32.45V30.11H33.5514V29.1H34.4114L34.5514 27.77H35.6114V29.1H36.9814V30.11H35.6114V32.45C35.6114 32.7033 35.6648 32.88 35.7714 32.98C35.8848 33.0733 36.0714 33.12 36.3314 33.12H36.9514V34.14H36.0914ZM40.3435 34.26C39.8435 34.26 39.4035 34.1533 39.0235 33.94C38.6435 33.72 38.3468 33.4133 38.1335 33.02C37.9201 32.6267 37.8135 32.1733 37.8135 31.66C37.8135 31.1267 37.9168 30.66 38.1235 30.26C38.3368 29.86 38.6335 29.5467 39.0135 29.32C39.4001 29.0933 39.8468 28.98 40.3535 28.98C40.8468 28.98 41.2768 29.09 41.6435 29.31C42.0101 29.53 42.2935 29.8267 42.4935 30.2C42.6935 30.5667 42.7935 30.98 42.7935 31.44C42.7935 31.5067 42.7935 31.58 42.7935 31.66C42.7935 31.74 42.7868 31.8233 42.7735 31.91H38.6735V31.14H41.5835C41.5701 30.7733 41.4468 30.4867 41.2135 30.28C40.9801 30.0667 40.6901 29.96 40.3435 29.96C40.0968 29.96 39.8701 30.0167 39.6635 30.13C39.4568 30.2433 39.2935 30.4133 39.1735 30.64C39.0535 30.86 38.9935 31.14 38.9935 31.48V31.77C38.9935 32.0833 39.0501 32.3533 39.1635 32.58C39.2835 32.8067 39.4435 32.98 39.6435 33.1C39.8501 33.2133 40.0801 33.27 40.3335 33.27C40.6135 33.27 40.8435 33.21 41.0235 33.09C41.2101 32.97 41.3468 32.81 41.4335 32.61H42.6535C42.5601 32.9233 42.4068 33.2067 42.1935 33.46C41.9801 33.7067 41.7168 33.9033 41.4035 34.05C41.0901 34.19 40.7368 34.26 40.3435 34.26ZM46.1414 34.26C45.6748 34.26 45.2581 34.1467 44.8914 33.92C44.5248 33.6933 44.2381 33.38 44.0314 32.98C43.8314 32.58 43.7314 32.1267 43.7314 31.62C43.7314 31.1133 43.8348 30.6633 44.0414 30.27C44.2481 29.87 44.5348 29.5567 44.9014 29.33C45.2748 29.0967 45.6948 28.98 46.1614 28.98C46.5414 28.98 46.8714 29.0533 47.1514 29.2C47.4381 29.34 47.6648 29.54 47.8314 29.8V26.94H49.0314V34.14H47.9514L47.8314 33.41C47.7248 33.5567 47.5948 33.6967 47.4414 33.83C47.2881 33.9567 47.1048 34.06 46.8914 34.14C46.6781 34.22 46.4281 34.26 46.1414 34.26ZM46.3914 33.22C46.6781 33.22 46.9314 33.1533 47.1514 33.02C47.3714 32.88 47.5414 32.69 47.6614 32.45C47.7814 32.21 47.8414 31.9333 47.8414 31.62C47.8414 31.3067 47.7814 31.03 47.6614 30.79C47.5414 30.55 47.3714 30.3633 47.1514 30.23C46.9314 30.0967 46.6781 30.03 46.3914 30.03C46.1181 30.03 45.8714 30.0967 45.6514 30.23C45.4314 30.3633 45.2581 30.55 45.1314 30.79C45.0114 31.03 44.9514 31.3067 44.9514 31.62C44.9514 31.9333 45.0114 32.21 45.1314 32.45C45.2581 32.69 45.4314 32.88 45.6514 33.02C45.8714 33.1533 46.1181 33.22 46.3914 33.22ZM52.8477 34.14V27.14H54.0477V34.14H52.8477ZM55.4151 34.14V29.1H56.4751L56.5651 29.94C56.7185 29.6467 56.9385 29.4133 57.2251 29.24C57.5118 29.0667 57.8518 28.98 58.2451 28.98C58.6518 28.98 58.9985 29.0667 59.2851 29.24C59.5718 29.4067 59.7918 29.6533 59.9451 29.98C60.1051 30.3067 60.1851 30.7133 60.1851 31.2V34.14H58.9851V31.31C58.9851 30.89 58.8918 30.5667 58.7051 30.34C58.5185 30.1133 58.2418 30 57.8751 30C57.6351 30 57.4185 30.0567 57.2251 30.17C57.0385 30.2833 56.8885 30.45 56.7751 30.67C56.6685 30.8833 56.6151 31.1433 56.6151 31.45V34.14H55.4151ZM63.4603 34.26C63.0136 34.26 62.6236 34.19 62.2903 34.05C61.9636 33.9033 61.7036 33.7033 61.5103 33.45C61.3236 33.19 61.2136 32.8933 61.1803 32.56H62.3803C62.4136 32.7 62.4736 32.83 62.5603 32.95C62.6469 33.0633 62.7636 33.1533 62.9103 33.22C63.0636 33.2867 63.2436 33.32 63.4503 33.32C63.6503 33.32 63.8136 33.2933 63.9403 33.24C64.0669 33.18 64.1603 33.1033 64.2203 33.01C64.2803 32.9167 64.3103 32.8167 64.3103 32.71C64.3103 32.55 64.2669 32.4267 64.1803 32.34C64.0936 32.2533 63.9669 32.1867 63.8003 32.14C63.6403 32.0867 63.4469 32.0367 63.2203 31.99C62.9803 31.9433 62.7469 31.8867 62.5203 31.82C62.3003 31.7467 62.1003 31.6567 61.9203 31.55C61.7469 31.4433 61.6069 31.3067 61.5003 31.14C61.4003 30.9733 61.3503 30.77 61.3503 30.53C61.3503 30.2367 61.4269 29.9733 61.5803 29.74C61.7403 29.5067 61.9669 29.3233 62.2603 29.19C62.5603 29.05 62.9169 28.98 63.3303 28.98C63.9169 28.98 64.3836 29.1167 64.7303 29.39C65.0836 29.6567 65.2903 30.0333 65.3503 30.52H64.2103C64.1769 30.3333 64.0836 30.19 63.9303 30.09C63.7769 29.9833 63.5736 29.93 63.3203 29.93C63.0603 29.93 62.8603 29.98 62.7203 30.08C62.5869 30.1733 62.5203 30.3 62.5203 30.46C62.5203 30.56 62.5603 30.6533 62.6403 30.74C62.7269 30.82 62.8503 30.89 63.0103 30.95C63.1703 31.0033 63.3669 31.0567 63.6003 31.11C63.9736 31.1833 64.3036 31.27 64.5903 31.37C64.8769 31.47 65.1036 31.6167 65.2703 31.81C65.4369 32.0033 65.5203 32.2767 65.5203 32.63C65.5269 32.95 65.4436 33.2333 65.2703 33.48C65.1036 33.7267 64.8669 33.92 64.5603 34.06C64.2536 34.1933 63.8869 34.26 63.4603 34.26ZM68.5546 34.26C68.148 34.26 67.798 34.18 67.5046 34.02C67.218 33.8533 66.998 33.6067 66.8446 33.28C66.6913 32.9467 66.6146 32.5367 66.6146 32.05V29.1H67.8146V31.93C67.8146 32.3633 67.9046 32.6933 68.0846 32.92C68.2713 33.14 68.5513 33.25 68.9246 33.25C69.1646 33.25 69.378 33.1933 69.5646 33.08C69.758 32.9667 69.908 32.8033 70.0146 32.59C70.128 32.37 70.1846 32.1033 70.1846 31.79V29.1H71.3846V34.14H70.3246L70.2346 33.3C70.0813 33.5933 69.858 33.8267 69.5646 34C69.278 34.1733 68.9413 34.26 68.5546 34.26ZM72.7198 34.14V26.94H73.9198V34.14H72.7198ZM75.3089 34.14V29.1H76.5089V34.14H75.3089ZM75.9089 28.3C75.6889 28.3 75.5055 28.2333 75.3589 28.1C75.2189 27.96 75.1489 27.79 75.1489 27.59C75.1489 27.3833 75.2189 27.2167 75.3589 27.09C75.5055 26.9567 75.6889 26.89 75.9089 26.89C76.1289 26.89 76.3089 26.9567 76.4489 27.09C76.5955 27.2167 76.6689 27.3833 76.6689 27.59C76.6689 27.79 76.5955 27.96 76.4489 28.1C76.3089 28.2333 76.1289 28.3 75.9089 28.3ZM77.8956 34.14V29.1H78.9556L79.0456 29.94C79.1989 29.6467 79.4189 29.4133 79.7056 29.24C79.9923 29.0667 80.3323 28.98 80.7256 28.98C81.1323 28.98 81.4789 29.0667 81.7656 29.24C82.0523 29.4067 82.2723 29.6533 82.4256 29.98C82.5856 30.3067 82.6656 30.7133 82.6656 31.2V34.14H81.4656V31.31C81.4656 30.89 81.3723 30.5667 81.1856 30.34C80.9989 30.1133 80.7223 30 80.3556 30C80.1156 30 79.8989 30.0567 79.7056 30.17C79.5189 30.2833 79.3689 30.45 79.2556 30.67C79.1489 30.8833 79.0956 31.1433 79.0956 31.45V34.14H77.8956ZM86.4121 34.14V27.14H87.6121V33.2H90.7321V34.14H86.4121ZM93.9958 34.26C93.4958 34.26 93.0558 34.1533 92.6758 33.94C92.2958 33.72 91.9992 33.4133 91.7858 33.02C91.5725 32.6267 91.4658 32.1733 91.4658 31.66C91.4658 31.1267 91.5692 30.66 91.7758 30.26C91.9892 29.86 92.2858 29.5467 92.6658 29.32C93.0525 29.0933 93.4992 28.98 94.0058 28.98C94.4992 28.98 94.9292 29.09 95.2958 29.31C95.6625 29.53 95.9458 29.8267 96.1458 30.2C96.3458 30.5667 96.4458 30.98 96.4458 31.44C96.4458 31.5067 96.4458 31.58 96.4458 31.66C96.4458 31.74 96.4392 31.8233 96.4258 31.91H92.3258V31.14H95.2358C95.2225 30.7733 95.0992 30.4867 94.8658 30.28C94.6325 30.0667 94.3425 29.96 93.9958 29.96C93.7492 29.96 93.5225 30.0167 93.3158 30.13C93.1092 30.2433 92.9458 30.4133 92.8258 30.64C92.7058 30.86 92.6458 31.14 92.6458 31.48V31.77C92.6458 32.0833 92.7025 32.3533 92.8158 32.58C92.9358 32.8067 93.0958 32.98 93.2958 33.1C93.5025 33.2133 93.7325 33.27 93.9858 33.27C94.2658 33.27 94.4958 33.21 94.6758 33.09C94.8625 32.97 94.9992 32.81 95.0858 32.61H96.3058C96.2125 32.9233 96.0592 33.2067 95.8458 33.46C95.6325 33.7067 95.3692 33.9033 95.0558 34.05C94.7425 34.19 94.3892 34.26 93.9958 34.26ZM98.7385 34.14L96.8785 29.1H98.1385L99.4685 33L100.798 29.1H102.038L100.178 34.14H98.7385ZM105.011 34.26C104.511 34.26 104.071 34.1533 103.691 33.94C103.311 33.72 103.015 33.4133 102.801 33.02C102.588 32.6267 102.481 32.1733 102.481 31.66C102.481 31.1267 102.585 30.66 102.791 30.26C103.005 29.86 103.301 29.5467 103.681 29.32C104.068 29.0933 104.515 28.98 105.021 28.98C105.515 28.98 105.945 29.09 106.311 29.31C106.678 29.53 106.961 29.8267 107.161 30.2C107.361 30.5667 107.461 30.98 107.461 31.44C107.461 31.5067 107.461 31.58 107.461 31.66C107.461 31.74 107.455 31.8233 107.441 31.91H103.341V31.14H106.251C106.238 30.7733 106.115 30.4867 105.881 30.28C105.648 30.0667 105.358 29.96 105.011 29.96C104.765 29.96 104.538 30.0167 104.331 30.13C104.125 30.2433 103.961 30.4133 103.841 30.64C103.721 30.86 103.661 31.14 103.661 31.48V31.77C103.661 32.0833 103.718 32.3533 103.831 32.58C103.951 32.8067 104.111 32.98 104.311 33.1C104.518 33.2133 104.748 33.27 105.001 33.27C105.281 33.27 105.511 33.21 105.691 33.09C105.878 32.97 106.015 32.81 106.101 32.61H107.321C107.228 32.9233 107.075 33.2067 106.861 33.46C106.648 33.7067 106.385 33.9033 106.071 34.05C105.758 34.19 105.405 34.26 105.011 34.26ZM108.569 34.14V26.94H109.769V34.14H108.569ZM113.118 34.26C112.672 34.26 112.282 34.19 111.948 34.05C111.622 33.9033 111.362 33.7033 111.168 33.45C110.982 33.19 110.872 32.8933 110.838 32.56H112.038C112.072 32.7 112.132 32.83 112.218 32.95C112.305 33.0633 112.422 33.1533 112.568 33.22C112.722 33.2867 112.902 33.32 113.108 33.32C113.308 33.32 113.472 33.2933 113.598 33.24C113.725 33.18 113.818 33.1033 113.878 33.01C113.938 32.9167 113.968 32.8167 113.968 32.71C113.968 32.55 113.925 32.4267 113.838 32.34C113.752 32.2533 113.625 32.1867 113.458 32.14C113.298 32.0867 113.105 32.0367 112.878 31.99C112.638 31.9433 112.405 31.8867 112.178 31.82C111.958 31.7467 111.758 31.6567 111.578 31.55C111.405 31.4433 111.265 31.3067 111.158 31.14C111.058 30.9733 111.008 30.77 111.008 30.53C111.008 30.2367 111.085 29.9733 111.238 29.74C111.398 29.5067 111.625 29.3233 111.918 29.19C112.218 29.05 112.575 28.98 112.988 28.98C113.575 28.98 114.042 29.1167 114.388 29.39C114.742 29.6567 114.948 30.0333 115.008 30.52H113.868C113.835 30.3333 113.742 30.19 113.588 30.09C113.435 29.9833 113.232 29.93 112.978 29.93C112.718 29.93 112.518 29.98 112.378 30.08C112.245 30.1733 112.178 30.3 112.178 30.46C112.178 30.56 112.218 30.6533 112.298 30.74C112.385 30.82 112.508 30.89 112.668 30.95C112.828 31.0033 113.025 31.0567 113.258 31.11C113.632 31.1833 113.962 31.27 114.248 31.37C114.535 31.47 114.762 31.6167 114.928 31.81C115.095 32.0033 115.178 32.2767 115.178 32.63C115.185 32.95 115.102 33.2333 114.928 33.48C114.762 33.7267 114.525 33.92 114.218 34.06C113.912 34.1933 113.545 34.26 113.118 34.26ZM8.99027 46.14V39.14H11.2503C12.0636 39.14 12.7336 39.2833 13.2603 39.57C13.7936 39.8567 14.1869 40.2633 14.4403 40.79C14.7003 41.31 14.8303 41.93 14.8303 42.65C14.8303 43.3567 14.7003 43.9733 14.4403 44.5C14.1869 45.02 13.7936 45.4233 13.2603 45.71C12.7336 45.9967 12.0636 46.14 11.2503 46.14H8.99027ZM10.1903 45.12H11.1903C11.7969 45.12 12.2736 45.0233 12.6203 44.83C12.9736 44.63 13.2236 44.3467 13.3703 43.98C13.5236 43.6067 13.6003 43.1633 13.6003 42.65C13.6003 42.13 13.5236 41.6867 13.3703 41.32C13.2236 40.9467 12.9736 40.66 12.6203 40.46C12.2736 40.2533 11.7969 40.15 11.1903 40.15H10.1903V45.12ZM18.322 46.26C17.822 46.26 17.382 46.1533 17.002 45.94C16.622 45.72 16.3253 45.4133 16.112 45.02C15.8987 44.6267 15.792 44.1733 15.792 43.66C15.792 43.1267 15.8953 42.66 16.102 42.26C16.3153 41.86 16.612 41.5467 16.992 41.32C17.3787 41.0933 17.8253 40.98 18.332 40.98C18.8253 40.98 19.2553 41.09 19.622 41.31C19.9887 41.53 20.272 41.8267 20.472 42.2C20.672 42.5667 20.772 42.98 20.772 43.44C20.772 43.5067 20.772 43.58 20.772 43.66C20.772 43.74 20.7653 43.8233 20.752 43.91H16.652V43.14H19.562C19.5487 42.7733 19.4253 42.4867 19.192 42.28C18.9587 42.0667 18.6687 41.96 18.322 41.96C18.0753 41.96 17.8487 42.0167 17.642 42.13C17.4353 42.2433 17.272 42.4133 17.152 42.64C17.032 42.86 16.972 43.14 16.972 43.48V43.77C16.972 44.0833 17.0287 44.3533 17.142 44.58C17.262 44.8067 17.422 44.98 17.622 45.1C17.8287 45.2133 18.0587 45.27 18.312 45.27C18.592 45.27 18.822 45.21 19.002 45.09C19.1887 44.97 19.3253 44.81 19.412 44.61H20.632C20.5387 44.9233 20.3853 45.2067 20.172 45.46C19.9587 45.7067 19.6953 45.9033 19.382 46.05C19.0687 46.19 18.7153 46.26 18.322 46.26ZM23.9723 46.14C23.6323 46.14 23.3356 46.0867 23.0823 45.98C22.8356 45.8733 22.6423 45.6967 22.5023 45.45C22.3623 45.2033 22.2923 44.87 22.2923 44.45V42.11H21.4323V41.1H22.2923L22.4323 39.77H23.4923V41.1H24.8623V42.11H23.4923V44.45C23.4923 44.7033 23.5456 44.88 23.6523 44.98C23.7656 45.0733 23.9523 45.12 24.2123 45.12H24.8323V46.14H23.9723ZM28.2243 46.26C27.7243 46.26 27.2843 46.1533 26.9043 45.94C26.5243 45.72 26.2277 45.4133 26.0143 45.02C25.801 44.6267 25.6943 44.1733 25.6943 43.66C25.6943 43.1267 25.7977 42.66 26.0043 42.26C26.2177 41.86 26.5143 41.5467 26.8943 41.32C27.281 41.0933 27.7277 40.98 28.2343 40.98C28.7277 40.98 29.1577 41.09 29.5243 41.31C29.891 41.53 30.1743 41.8267 30.3743 42.2C30.5743 42.5667 30.6743 42.98 30.6743 43.44C30.6743 43.5067 30.6743 43.58 30.6743 43.66C30.6743 43.74 30.6677 43.8233 30.6543 43.91H26.5543V43.14H29.4643C29.451 42.7733 29.3277 42.4867 29.0943 42.28C28.861 42.0667 28.571 41.96 28.2243 41.96C27.9777 41.96 27.751 42.0167 27.5443 42.13C27.3377 42.2433 27.1743 42.4133 27.0543 42.64C26.9343 42.86 26.8743 43.14 26.8743 43.48V43.77C26.8743 44.0833 26.931 44.3533 27.0443 44.58C27.1643 44.8067 27.3243 44.98 27.5243 45.1C27.731 45.2133 27.961 45.27 28.2143 45.27C28.4943 45.27 28.7243 45.21 28.9043 45.09C29.091 44.97 29.2277 44.81 29.3143 44.61H30.5343C30.441 44.9233 30.2877 45.2067 30.0743 45.46C29.861 45.7067 29.5977 45.9033 29.2843 46.05C28.971 46.19 28.6177 46.26 28.2243 46.26ZM34.1723 46.26C33.679 46.26 33.2356 46.15 32.8423 45.93C32.4556 45.7033 32.1523 45.3933 31.9323 45C31.719 44.6 31.6123 44.1467 31.6123 43.64C31.6123 43.1133 31.719 42.6533 31.9323 42.26C32.1523 41.86 32.4556 41.5467 32.8423 41.32C33.2356 41.0933 33.6823 40.98 34.1823 40.98C34.809 40.98 35.3356 41.1467 35.7623 41.48C36.189 41.8067 36.4623 42.2567 36.5823 42.83H35.3223C35.2556 42.5767 35.1156 42.3767 34.9023 42.23C34.6956 42.0833 34.449 42.01 34.1623 42.01C33.9156 42.01 33.689 42.0733 33.4823 42.2C33.2823 42.3267 33.1223 42.51 33.0023 42.75C32.889 42.99 32.8323 43.28 32.8323 43.62C32.8323 43.88 32.8656 44.11 32.9323 44.31C32.999 44.51 33.0923 44.68 33.2123 44.82C33.339 44.9533 33.4823 45.0567 33.6423 45.13C33.8023 45.2033 33.9756 45.24 34.1623 45.24C34.3556 45.24 34.529 45.21 34.6823 45.15C34.8423 45.0833 34.9756 44.9867 35.0823 44.86C35.1956 44.7333 35.2756 44.5833 35.3223 44.41H36.5823C36.4623 44.97 36.189 45.42 35.7623 45.76C35.3356 46.0933 34.8056 46.26 34.1723 46.26ZM39.8512 46.14C39.5112 46.14 39.2145 46.0867 38.9612 45.98C38.7145 45.8733 38.5212 45.6967 38.3812 45.45C38.2412 45.2033 38.1712 44.87 38.1712 44.45V42.11H37.3112V41.1H38.1712L38.3112 39.77H39.3712V41.1H40.7412V42.11H39.3712V44.45C39.3712 44.7033 39.4245 44.88 39.5312 44.98C39.6445 45.0733 39.8312 45.12 40.0912 45.12H40.7112V46.14H39.8512ZM44.1032 46.26C43.6032 46.26 43.1632 46.1533 42.7832 45.94C42.4032 45.72 42.1066 45.4133 41.8932 45.02C41.6799 44.6267 41.5732 44.1733 41.5732 43.66C41.5732 43.1267 41.6766 42.66 41.8832 42.26C42.0966 41.86 42.3932 41.5467 42.7732 41.32C43.1599 41.0933 43.6066 40.98 44.1132 40.98C44.6066 40.98 45.0366 41.09 45.4032 41.31C45.7699 41.53 46.0532 41.8267 46.2532 42.2C46.4532 42.5667 46.5532 42.98 46.5532 43.44C46.5532 43.5067 46.5532 43.58 46.5532 43.66C46.5532 43.74 46.5466 43.8233 46.5332 43.91H42.4332V43.14H45.3432C45.3299 42.7733 45.2066 42.4867 44.9732 42.28C44.7399 42.0667 44.4499 41.96 44.1032 41.96C43.8566 41.96 43.6299 42.0167 43.4232 42.13C43.2166 42.2433 43.0532 42.4133 42.9332 42.64C42.8132 42.86 42.7532 43.14 42.7532 43.48V43.77C42.7532 44.0833 42.8099 44.3533 42.9232 44.58C43.0432 44.8067 43.2032 44.98 43.4032 45.1C43.6099 45.2133 43.8399 45.27 44.0932 45.27C44.3732 45.27 44.6032 45.21 44.7832 45.09C44.9699 44.97 45.1066 44.81 45.1932 44.61H46.4132C46.3199 44.9233 46.1666 45.2067 45.9532 45.46C45.7399 45.7067 45.4766 45.9033 45.1632 46.05C44.8499 46.19 44.4966 46.26 44.1032 46.26ZM49.9012 46.26C49.4345 46.26 49.0179 46.1467 48.6512 45.92C48.2845 45.6933 47.9979 45.38 47.7912 44.98C47.5912 44.58 47.4912 44.1267 47.4912 43.62C47.4912 43.1133 47.5945 42.6633 47.8012 42.27C48.0079 41.87 48.2945 41.5567 48.6612 41.33C49.0345 41.0967 49.4545 40.98 49.9212 40.98C50.3012 40.98 50.6312 41.0533 50.9112 41.2C51.1979 41.34 51.4245 41.54 51.5912 41.8V38.94H52.7912V46.14H51.7112L51.5912 45.41C51.4845 45.5567 51.3545 45.6967 51.2012 45.83C51.0479 45.9567 50.8645 46.06 50.6512 46.14C50.4379 46.22 50.1879 46.26 49.9012 46.26ZM50.1512 45.22C50.4379 45.22 50.6912 45.1533 50.9112 45.02C51.1312 44.88 51.3012 44.69 51.4212 44.45C51.5412 44.21 51.6012 43.9333 51.6012 43.62C51.6012 43.3067 51.5412 43.03 51.4212 42.79C51.3012 42.55 51.1312 42.3633 50.9112 42.23C50.6912 42.0967 50.4379 42.03 50.1512 42.03C49.8779 42.03 49.6312 42.0967 49.4112 42.23C49.1912 42.3633 49.0179 42.55 48.8912 42.79C48.7712 43.03 48.7112 43.3067 48.7112 43.62C48.7112 43.9333 48.7712 44.21 48.8912 44.45C49.0179 44.69 49.1912 44.88 49.4112 45.02C49.6312 45.1533 49.8779 45.22 50.1512 45.22Z" fill="white"/>
<rect x="26" y="54.66" width="86" height="86" rx="43" fill="url(#paint0_radial_10_2153)"/>
<path d="M59.8498 95.6558C59.2619 95.6558 58.7237 95.5482 58.2352 95.3329C57.7549 95.1176 57.374 94.8154 57.0925 94.4263C56.811 94.0371 56.6702 93.5858 56.6702 93.0725C56.6702 92.7164 56.7282 92.3935 56.8441 92.1037C56.9683 91.8139 57.1381 91.5572 57.3533 91.3337C57.5686 91.1101 57.8253 90.9404 58.1234 90.8245C57.7508 90.6506 57.4486 90.4022 57.2167 90.0793C56.9932 89.7563 56.8814 89.392 56.8814 88.9863C56.8814 88.5806 56.9932 88.1997 57.2167 87.8437C57.4403 87.4876 57.7715 87.202 58.2103 86.9867C58.6492 86.7714 59.1956 86.6638 59.8498 86.6638C60.5039 86.6638 61.0504 86.7714 61.4892 86.9867C61.928 87.202 62.2592 87.4876 62.4828 87.8437C62.7064 88.1997 62.8181 88.5806 62.8181 88.9863C62.8181 89.3837 62.7022 89.7481 62.4704 90.0793C62.2468 90.4022 61.9487 90.6506 61.5761 90.8245C61.8742 90.9487 62.1309 91.1225 62.3462 91.3461C62.5697 91.5614 62.7395 91.8139 62.8554 92.1037C62.9796 92.3935 63.0417 92.7164 63.0417 93.0725C63.0417 93.5858 62.8968 94.0371 62.607 94.4263C62.3255 94.8154 61.9446 95.1176 61.4644 95.3329C60.9841 95.5482 60.4459 95.6558 59.8498 95.6558ZM59.8498 94.2524C60.3631 94.2524 60.7481 94.1282 61.0048 93.8798C61.2615 93.6314 61.3898 93.3167 61.3898 92.9359C61.3898 92.5136 61.2532 92.1824 60.98 91.9423C60.715 91.6939 60.3383 91.5697 59.8498 91.5697C59.3695 91.5697 58.9886 91.6939 58.7071 91.9423C58.4339 92.1824 58.2973 92.5136 58.2973 92.9359C58.2973 93.3167 58.4297 93.6314 58.6947 93.8798C58.9597 94.1282 59.3447 94.2524 59.8498 94.2524ZM59.8498 90.3401C60.272 90.3401 60.595 90.2324 60.8185 90.0172C61.0504 89.8019 61.1663 89.5245 61.1663 89.185C61.1663 88.8207 61.0504 88.5392 60.8185 88.3405C60.595 88.1335 60.272 88.03 59.8498 88.03C59.4358 88.03 59.1128 88.1335 58.881 88.3405C58.6492 88.5392 58.5332 88.8248 58.5332 89.1974C58.5332 89.5286 58.6492 89.8019 58.881 90.0172C59.1128 90.2324 59.4358 90.3401 59.8498 90.3401ZM64.3207 95.5068V94.2772C64.8506 93.8549 65.3639 93.4327 65.8607 93.0104C66.3658 92.5881 66.8171 92.17 67.2145 91.756C67.612 91.3337 67.9266 90.9238 68.1584 90.5264C68.3903 90.1289 68.5062 89.7439 68.5062 89.3713C68.5062 89.1395 68.4648 88.9283 68.382 88.7379C68.2992 88.5392 68.1667 88.3819 67.9846 88.2659C67.8107 88.1417 67.5788 88.0796 67.289 88.0796C66.9992 88.0796 66.755 88.1459 66.5563 88.2784C66.3575 88.4108 66.2085 88.5889 66.1091 88.8124C66.0098 89.0277 65.9601 89.272 65.9601 89.5452H64.3331C64.3579 88.9076 64.5028 88.3736 64.7678 87.943C65.0327 87.5125 65.3888 87.1937 65.8359 86.9867C66.283 86.7714 66.784 86.6638 67.3387 86.6638C67.9514 86.6638 68.4689 86.7797 68.8912 87.0115C69.3135 87.2351 69.6323 87.5414 69.8476 87.9306C70.0711 88.3198 70.1829 88.7669 70.1829 89.272C70.1829 89.6528 70.1125 90.0254 69.9718 90.3898C69.8393 90.7541 69.6488 91.1101 69.4004 91.4579C69.1603 91.7974 68.8871 92.1244 68.5807 92.4391C68.2744 92.7537 67.9556 93.0559 67.6244 93.3457C67.2932 93.6272 66.9703 93.8922 66.6556 94.1406H70.394V95.5068H64.3207ZM73.1904 95.5068L78.0715 86.8128H79.6985L74.8174 95.5068H73.1904ZM79.4004 95.6558C78.9947 95.6558 78.6262 95.5689 78.295 95.395C77.9721 95.2129 77.7154 94.9562 77.525 94.625C77.3345 94.2855 77.2393 93.8881 77.2393 93.4327C77.2393 92.969 77.3345 92.5715 77.525 92.2403C77.7154 91.9091 77.9721 91.6566 78.295 91.4827C78.6262 91.3006 78.9947 91.2095 79.4004 91.2095C79.8061 91.2095 80.1704 91.3006 80.4934 91.4827C80.8163 91.6566 81.073 91.9091 81.2634 92.2403C81.4538 92.5715 81.5491 92.969 81.5491 93.4327C81.5491 93.8881 81.4538 94.2855 81.2634 94.625C81.073 94.9562 80.8163 95.2129 80.4934 95.395C80.1704 95.5689 79.8061 95.6558 79.4004 95.6558ZM79.388 94.5008C79.5536 94.5008 79.6985 94.4594 79.8227 94.3766C79.9469 94.2938 80.0462 94.1737 80.1208 94.0164C80.1953 93.8591 80.2325 93.6645 80.2325 93.4327C80.2325 93.1925 80.1953 92.9938 80.1208 92.8365C80.0545 92.6709 79.9552 92.5467 79.8227 92.4639C79.6985 92.3811 79.5536 92.3397 79.388 92.3397C79.2307 92.3397 79.0858 92.3811 78.9533 92.4639C78.8291 92.5467 78.7297 92.6709 78.6552 92.8365C78.5807 92.9938 78.5434 93.1925 78.5434 93.4327C78.5434 93.6645 78.5807 93.8591 78.6552 94.0164C78.7297 94.1737 78.8291 94.2938 78.9533 94.3766C79.0858 94.4594 79.2307 94.5008 79.388 94.5008ZM73.5506 91.1225C73.1531 91.1225 72.7888 91.0315 72.4576 90.8493C72.1347 90.6671 71.8739 90.4105 71.6752 90.0793C71.4847 89.7481 71.3895 89.3548 71.3895 88.8994C71.3895 88.4274 71.4847 88.03 71.6752 87.707C71.8739 87.3758 72.1347 87.1192 72.4576 86.937C72.7888 86.7548 73.1573 86.6638 73.563 86.6638C73.9687 86.6638 74.3289 86.7548 74.6435 86.937C74.9665 87.1192 75.2231 87.3758 75.4136 87.707C75.6123 88.03 75.7117 88.4274 75.7117 88.8994C75.7117 89.3548 75.6123 89.7481 75.4136 90.0793C75.2231 90.4105 74.9665 90.6671 74.6435 90.8493C74.3206 91.0315 73.9563 91.1225 73.5506 91.1225ZM73.5506 89.9675C73.7079 89.9675 73.8487 89.9261 73.9729 89.8433C74.1053 89.7605 74.2088 89.6404 74.2834 89.4831C74.3579 89.3258 74.3951 89.1312 74.3951 88.8994C74.3951 88.651 74.3579 88.4481 74.2834 88.2908C74.2088 88.1335 74.1053 88.0134 73.9729 87.9306C73.8487 87.8478 73.7079 87.8064 73.5506 87.8064C73.3933 87.8064 73.2484 87.8478 73.1159 87.9306C72.9917 88.0134 72.8923 88.1376 72.8178 88.3032C72.7433 88.4605 72.706 88.6592 72.706 88.8994C72.706 89.1312 72.7433 89.3258 72.8178 89.4831C72.8923 89.6404 72.9917 89.7605 73.1159 89.8433C73.2484 89.9261 73.3933 89.9675 73.5506 89.9675Z" fill="black"/>
<path d="M43.2236 106.813V100.513H45.4826C45.9806 100.513 46.3916 100.6 46.7156 100.774C47.0456 100.942 47.2886 101.17 47.4446 101.458C47.6066 101.74 47.6876 102.061 47.6876 102.421C47.6876 102.757 47.6096 103.069 47.4536 103.357C47.2976 103.645 47.0546 103.876 46.7246 104.05C46.3946 104.224 45.9716 104.311 45.4556 104.311H44.3036V106.813H43.2236ZM46.5086 106.813L45.1856 104.032H46.3556L47.7416 106.813H46.5086ZM44.3036 103.51H45.4106C45.8126 103.51 46.1066 103.414 46.2926 103.222C46.4846 103.024 46.5806 102.766 46.5806 102.448C46.5806 102.136 46.4876 101.887 46.3016 101.701C46.1156 101.509 45.8186 101.413 45.4106 101.413H44.3036V103.51ZM49.0117 106.813V100.513H50.0917V106.813H49.0117ZM53.6803 106.921C53.2243 106.921 52.8193 106.84 52.4653 106.678C52.1113 106.516 51.8353 106.285 51.6373 105.985C51.4393 105.685 51.3373 105.328 51.3313 104.914H52.4743C52.4743 105.124 52.5223 105.313 52.6183 105.481C52.7203 105.643 52.8583 105.772 53.0323 105.868C53.2123 105.964 53.4283 106.012 53.6803 106.012C53.8963 106.012 54.0823 105.979 54.2383 105.913C54.4003 105.841 54.5233 105.742 54.6073 105.616C54.6973 105.484 54.7423 105.331 54.7423 105.157C54.7423 104.959 54.6943 104.797 54.5983 104.671C54.5083 104.539 54.3823 104.428 54.2203 104.338C54.0583 104.248 53.8723 104.17 53.6623 104.104C53.4523 104.032 53.2303 103.957 52.9963 103.879C52.4983 103.711 52.1233 103.498 51.8713 103.24C51.6193 102.976 51.4933 102.625 51.4933 102.187C51.4933 101.821 51.5803 101.506 51.7543 101.242C51.9283 100.978 52.1713 100.774 52.4833 100.63C52.8013 100.48 53.1673 100.405 53.5813 100.405C54.0013 100.405 54.3673 100.48 54.6793 100.63C54.9973 100.78 55.2463 100.99 55.4263 101.26C55.6123 101.524 55.7083 101.842 55.7143 102.214H54.5623C54.5563 102.058 54.5143 101.914 54.4363 101.782C54.3583 101.644 54.2443 101.533 54.0943 101.449C53.9503 101.359 53.7733 101.314 53.5633 101.314C53.3833 101.308 53.2213 101.338 53.0773 101.404C52.9393 101.464 52.8283 101.554 52.7443 101.674C52.6663 101.788 52.6273 101.932 52.6273 102.106C52.6273 102.274 52.6633 102.415 52.7353 102.529C52.8133 102.637 52.9243 102.73 53.0683 102.808C53.2123 102.88 53.3803 102.949 53.5723 103.015C53.7643 103.081 53.9743 103.153 54.2023 103.231C54.5143 103.333 54.7963 103.459 55.0483 103.609C55.3063 103.753 55.5103 103.942 55.6603 104.176C55.8103 104.41 55.8853 104.713 55.8853 105.085C55.8853 105.409 55.8013 105.712 55.6333 105.994C55.4653 106.27 55.2193 106.495 54.8953 106.669C54.5713 106.837 54.1663 106.921 53.6803 106.921ZM57.1425 106.813V100.513H58.2225V103.114L60.5985 100.513H61.9395L59.6085 103.015L61.9935 106.813H60.6795L58.8435 103.843L58.2225 104.518V106.813H57.1425ZM67.564 106.921C67.108 106.921 66.703 106.84 66.349 106.678C65.995 106.516 65.719 106.285 65.521 105.985C65.323 105.685 65.221 105.328 65.215 104.914H66.358C66.358 105.124 66.406 105.313 66.502 105.481C66.604 105.643 66.742 105.772 66.916 105.868C67.096 105.964 67.312 106.012 67.564 106.012C67.78 106.012 67.966 105.979 68.122 105.913C68.284 105.841 68.407 105.742 68.491 105.616C68.581 105.484 68.626 105.331 68.626 105.157C68.626 104.959 68.578 104.797 68.482 104.671C68.392 104.539 68.266 104.428 68.104 104.338C67.942 104.248 67.756 104.17 67.546 104.104C67.336 104.032 67.114 103.957 66.88 103.879C66.382 103.711 66.007 103.498 65.755 103.24C65.503 102.976 65.377 102.625 65.377 102.187C65.377 101.821 65.464 101.506 65.638 101.242C65.812 100.978 66.055 100.774 66.367 100.63C66.685 100.48 67.051 100.405 67.465 100.405C67.885 100.405 68.251 100.48 68.563 100.63C68.881 100.78 69.13 100.99 69.31 101.26C69.496 101.524 69.592 101.842 69.598 102.214H68.446C68.44 102.058 68.398 101.914 68.32 101.782C68.242 101.644 68.128 101.533 67.978 101.449C67.834 101.359 67.657 101.314 67.447 101.314C67.267 101.308 67.105 101.338 66.961 101.404C66.823 101.464 66.712 101.554 66.628 101.674C66.55 101.788 66.511 101.932 66.511 102.106C66.511 102.274 66.547 102.415 66.619 102.529C66.697 102.637 66.808 102.73 66.952 102.808C67.096 102.88 67.264 102.949 67.456 103.015C67.648 103.081 67.858 103.153 68.086 103.231C68.398 103.333 68.68 103.459 68.932 103.609C69.19 103.753 69.394 103.942 69.544 104.176C69.694 104.41 69.769 104.713 69.769 105.085C69.769 105.409 69.685 105.712 69.517 105.994C69.349 106.27 69.103 106.495 68.779 106.669C68.455 106.837 68.05 106.921 67.564 106.921ZM73.8252 106.921C73.2012 106.921 72.6612 106.786 72.2052 106.516C71.7552 106.24 71.4072 105.859 71.1612 105.373C70.9212 104.881 70.8012 104.314 70.8012 103.672C70.8012 103.024 70.9212 102.457 71.1612 101.971C71.4072 101.479 71.7552 101.095 72.2052 100.819C72.6612 100.543 73.2012 100.405 73.8252 100.405C74.5752 100.405 75.1872 100.591 75.6612 100.963C76.1352 101.329 76.4352 101.848 76.5612 102.52H75.3732C75.2892 102.166 75.1182 101.887 74.8602 101.683C74.6022 101.479 74.2542 101.377 73.8162 101.377C73.4202 101.377 73.0782 101.47 72.7902 101.656C72.5082 101.836 72.2892 102.1 72.1332 102.448C71.9832 102.79 71.9082 103.198 71.9082 103.672C71.9082 104.146 71.9832 104.554 72.1332 104.896C72.2892 105.232 72.5082 105.493 72.7902 105.679C73.0782 105.859 73.4202 105.949 73.8162 105.949C74.2542 105.949 74.6022 105.856 74.8602 105.67C75.1182 105.478 75.2892 105.214 75.3732 104.878H76.5612C76.4412 105.514 76.1412 106.015 75.6612 106.381C75.1872 106.741 74.5752 106.921 73.8252 106.921ZM80.696 106.921C80.09 106.921 79.553 106.786 79.085 106.516C78.623 106.24 78.26 105.859 77.996 105.373C77.732 104.881 77.6 104.311 77.6 103.663C77.6 103.021 77.732 102.457 77.996 101.971C78.26 101.479 78.623 101.095 79.085 100.819C79.553 100.543 80.09 100.405 80.696 100.405C81.314 100.405 81.857 100.543 82.325 100.819C82.793 101.095 83.156 101.479 83.414 101.971C83.672 102.457 83.801 103.021 83.801 103.663C83.801 104.311 83.672 104.881 83.414 105.373C83.156 105.859 82.793 106.24 82.325 106.516C81.857 106.786 81.314 106.921 80.696 106.921ZM80.705 105.949C81.107 105.949 81.458 105.859 81.758 105.679C82.058 105.493 82.289 105.229 82.451 104.887C82.613 104.545 82.694 104.137 82.694 103.663C82.694 103.189 82.613 102.781 82.451 102.439C82.289 102.097 82.058 101.836 81.758 101.656C81.458 101.47 81.107 101.377 80.705 101.377C80.303 101.377 79.952 101.47 79.652 101.656C79.352 101.836 79.118 102.097 78.95 102.439C78.788 102.781 78.707 103.189 78.707 103.663C78.707 104.137 78.788 104.545 78.95 104.887C79.118 105.229 79.352 105.493 79.652 105.679C79.952 105.859 80.303 105.949 80.705 105.949ZM85.0632 106.813V100.513H87.3222C87.8202 100.513 88.2312 100.6 88.5552 100.774C88.8852 100.942 89.1282 101.17 89.2842 101.458C89.4462 101.74 89.5272 102.061 89.5272 102.421C89.5272 102.757 89.4492 103.069 89.2932 103.357C89.1372 103.645 88.8942 103.876 88.5642 104.05C88.2342 104.224 87.8112 104.311 87.2952 104.311H86.1432V106.813H85.0632ZM88.3482 106.813L87.0252 104.032H88.1952L89.5812 106.813H88.3482ZM86.1432 103.51H87.2502C87.6522 103.51 87.9462 103.414 88.1322 103.222C88.3242 103.024 88.4202 102.766 88.4202 102.448C88.4202 102.136 88.3272 101.887 88.1412 101.701C87.9552 101.509 87.6582 101.413 87.2502 101.413H86.1432V103.51ZM90.8513 106.813V100.513H94.9193V101.386H91.9313V103.195H94.6493V104.05H91.9313V105.94H94.9193V106.813H90.8513Z" fill="#64748B"/>
</g>
<defs>
<radialGradient id="paint0_radial_10_2153" cx="0" cy="0" r="1" gradientUnits="userSpaceOnUse" gradientTransform="translate(69 97.66) scale(43)">
<stop offset="0.79" stop-color="white"/>
<stop offset="0.8" stop-color="white" stop-opacity="0"/>
<stop offset="1" stop-color="white" stop-opacity="0"/>
</radialGradient>
<clipPath id="clip0_10_2153">
<rect width="138" height="143" rx="4.14" fill="white"/>
</clipPath>
</defs>
</svg>
