<svg width="345" height="221" viewBox="0 0 345 221" fill="none" xmlns="http://www.w3.org/2000/svg">
<rect width="32" height="32" rx="16" fill="#90A1B9"/>
<path d="M21.25 13.75L20.3125 11.6875L18.25 10.75L20.3125 9.8125L21.25 7.75L22.1875 9.8125L24.25 10.75L22.1875 11.6875L21.25 13.75ZM21.25 24.25L20.3125 22.1875L18.25 21.25L20.3125 20.3125L21.25 18.25L22.1875 20.3125L24.25 21.25L22.1875 22.1875L21.25 24.25ZM13.75 22L11.875 17.875L7.75 16L11.875 14.125L13.75 10L15.625 14.125L19.75 16L15.625 17.875L13.75 22Z" fill="white"/>
<path d="M43.712 21V11.544H40.432V9.8H49.12V11.544H45.856V21H43.712ZM51.5323 21.192C50.8603 21.192 50.3056 21.0853 49.8682 20.872C49.4309 20.648 49.1056 20.3547 48.8922 19.992C48.6896 19.6187 48.5882 19.208 48.5882 18.76C48.5882 18.2693 48.7109 17.8373 48.9562 17.464C49.2122 17.0907 49.5909 16.7973 50.0923 16.584C50.6043 16.3707 51.2442 16.264 52.0122 16.264H54.0123C54.0123 15.8693 53.9589 15.544 53.8523 15.288C53.7456 15.0213 53.5803 14.824 53.3563 14.696C53.1323 14.568 52.8336 14.504 52.4602 14.504C52.0549 14.504 51.7083 14.5947 51.4203 14.776C51.1429 14.9467 50.9723 15.2133 50.9083 15.576H48.8122C48.8656 15 49.0522 14.504 49.3722 14.088C49.7029 13.6613 50.1349 13.3307 50.6683 13.096C51.2123 12.8613 51.8149 12.744 52.4763 12.744C53.2336 12.744 53.8896 12.872 54.4443 13.128C54.9989 13.384 55.4256 13.752 55.7243 14.232C56.0229 14.712 56.1723 15.304 56.1723 16.008V21H54.3483L54.1083 19.768C53.9909 19.9813 53.8523 20.1733 53.6923 20.344C53.5323 20.5147 53.3456 20.664 53.1323 20.792C52.9189 20.92 52.6789 21.016 52.4123 21.08C52.1456 21.1547 51.8523 21.192 51.5323 21.192ZM52.0443 19.528C52.3216 19.528 52.5669 19.48 52.7803 19.384C53.0043 19.2773 53.1963 19.1387 53.3563 18.968C53.5163 18.7867 53.6389 18.584 53.7243 18.36C53.8203 18.1253 53.8843 17.8747 53.9163 17.608V17.592H52.2682C51.9376 17.592 51.6656 17.6347 51.4523 17.72C51.2496 17.7947 51.1003 17.9067 51.0043 18.056C50.9083 18.2053 50.8602 18.376 50.8602 18.568C50.8602 18.7813 50.9083 18.9573 51.0043 19.096C51.1003 19.2347 51.2389 19.3413 51.4203 19.416C51.6016 19.4907 51.8096 19.528 52.0443 19.528ZM63.0673 21L59.6273 16.584L62.7153 12.936H65.2593L61.2753 17.496V15.784L65.7553 21H63.0673ZM57.7873 21V9.48H59.9473V21H57.7873ZM69.8374 21.192C69.0267 21.192 68.3067 21.0213 67.6774 20.68C67.0587 20.328 66.5734 19.8427 66.2214 19.224C65.88 18.5947 65.7094 17.8693 65.7094 17.048C65.7094 16.2053 65.88 15.464 66.2214 14.824C66.5734 14.1733 67.0587 13.6667 67.6774 13.304C68.296 12.9307 69.016 12.744 69.8374 12.744C70.6374 12.744 71.336 12.92 71.9334 13.272C72.5307 13.624 72.9947 14.0987 73.3254 14.696C73.656 15.2933 73.8214 15.9707 73.8214 16.728C73.8214 16.8347 73.8214 16.9573 73.8214 17.096C73.8214 17.224 73.8107 17.3573 73.7894 17.496H67.2454V16.184H71.6454C71.6134 15.6613 71.4267 15.2507 71.0854 14.952C70.7547 14.6533 70.3387 14.504 69.8374 14.504C69.4747 14.504 69.1387 14.5893 68.8294 14.76C68.52 14.92 68.2747 15.1707 68.0934 15.512C67.9227 15.8533 67.8374 16.2853 67.8374 16.808V17.272C67.8374 17.7093 67.9174 18.0933 68.0774 18.424C68.248 18.744 68.4827 18.9947 68.7814 19.176C69.08 19.3467 69.4267 19.432 69.8214 19.432C70.216 19.432 70.5414 19.3467 70.7974 19.176C71.064 19.0053 71.2614 18.7867 71.3894 18.52H73.5974C73.448 19.0213 73.1974 19.4747 72.8454 19.88C72.4934 20.2853 72.0614 20.6053 71.5494 20.84C71.0374 21.0747 70.4667 21.192 69.8374 21.192ZM85.66 21V9.8H87.82V21H85.66ZM78.604 21V9.8H80.764V21H78.604ZM80.46 16.152V14.408H86.028V16.152H80.46ZM93.4499 21.192C92.6392 21.192 91.9192 21.0213 91.2899 20.68C90.6712 20.328 90.1859 19.8427 89.8339 19.224C89.4925 18.5947 89.3219 17.8693 89.3219 17.048C89.3219 16.2053 89.4925 15.464 89.8339 14.824C90.1859 14.1733 90.6712 13.6667 91.2899 13.304C91.9085 12.9307 92.6285 12.744 93.4499 12.744C94.2499 12.744 94.9485 12.92 95.5459 13.272C96.1432 13.624 96.6072 14.0987 96.9379 14.696C97.2685 15.2933 97.4339 15.9707 97.4339 16.728C97.4339 16.8347 97.4339 16.9573 97.4339 17.096C97.4339 17.224 97.4232 17.3573 97.4019 17.496H90.8579V16.184H95.2579C95.2259 15.6613 95.0392 15.2507 94.6979 14.952C94.3672 14.6533 93.9512 14.504 93.4499 14.504C93.0872 14.504 92.7512 14.5893 92.4419 14.76C92.1325 14.92 91.8872 15.1707 91.7059 15.512C91.5352 15.8533 91.4499 16.2853 91.4499 16.808V17.272C91.4499 17.7093 91.5299 18.0933 91.6899 18.424C91.8605 18.744 92.0952 18.9947 92.3939 19.176C92.6925 19.3467 93.0392 19.432 93.4339 19.432C93.8285 19.432 94.1539 19.3467 94.4099 19.176C94.6765 19.0053 94.8739 18.7867 95.0019 18.52H97.2099C97.0605 19.0213 96.8099 19.4747 96.4579 19.88C96.1059 20.2853 95.6739 20.6053 95.1619 20.84C94.6499 21.0747 94.0792 21.192 93.4499 21.192ZM101.523 21.192C100.851 21.192 100.296 21.0853 99.8589 20.872C99.4215 20.648 99.0962 20.3547 98.8829 19.992C98.6802 19.6187 98.5789 19.208 98.5789 18.76C98.5789 18.2693 98.7015 17.8373 98.9469 17.464C99.2029 17.0907 99.5815 16.7973 100.083 16.584C100.595 16.3707 101.235 16.264 102.003 16.264H104.003C104.003 15.8693 103.95 15.544 103.843 15.288C103.736 15.0213 103.571 14.824 103.347 14.696C103.123 14.568 102.824 14.504 102.451 14.504C102.046 14.504 101.699 14.5947 101.411 14.776C101.134 14.9467 100.963 15.2133 100.899 15.576H98.8029C98.8562 15 99.0429 14.504 99.3629 14.088C99.6935 13.6613 100.126 13.3307 100.659 13.096C101.203 12.8613 101.806 12.744 102.467 12.744C103.224 12.744 103.88 12.872 104.435 13.128C104.99 13.384 105.416 13.752 105.715 14.232C106.014 14.712 106.163 15.304 106.163 16.008V21H104.339L104.099 19.768C103.982 19.9813 103.843 20.1733 103.683 20.344C103.523 20.5147 103.336 20.664 103.123 20.792C102.91 20.92 102.67 21.016 102.403 21.08C102.136 21.1547 101.843 21.192 101.523 21.192ZM102.035 19.528C102.312 19.528 102.558 19.48 102.771 19.384C102.995 19.2773 103.187 19.1387 103.347 18.968C103.507 18.7867 103.63 18.584 103.715 18.36C103.811 18.1253 103.875 17.8747 103.907 17.608V17.592H102.259C101.928 17.592 101.656 17.6347 101.443 17.72C101.24 17.7947 101.091 17.9067 100.995 18.056C100.899 18.2053 100.851 18.376 100.851 18.568C100.851 18.7813 100.899 18.9573 100.995 19.096C101.091 19.2347 101.23 19.3413 101.411 19.416C101.592 19.4907 101.8 19.528 102.035 19.528ZM107.778 21V9.48H109.938V21H107.778ZM115.276 21C114.71 21 114.214 20.9147 113.788 20.744C113.372 20.5627 113.046 20.2693 112.812 19.864C112.577 19.448 112.46 18.8827 112.46 18.168V14.744H111.084V12.936H112.46L112.7 10.744H114.62V12.936H116.748V14.744H114.62V18.2C114.62 18.5627 114.7 18.8133 114.86 18.952C115.02 19.0907 115.292 19.16 115.676 19.16H116.732V21H115.276ZM118.165 21V9.48H120.325V14.136C120.592 13.7093 120.944 13.3733 121.381 13.128C121.829 12.872 122.347 12.744 122.933 12.744C123.605 12.744 124.171 12.888 124.629 13.176C125.088 13.4533 125.435 13.8587 125.669 14.392C125.904 14.9253 126.021 15.5867 126.021 16.376V21H123.877V16.568C123.877 15.928 123.744 15.4373 123.477 15.096C123.211 14.744 122.789 14.568 122.213 14.568C121.861 14.568 121.541 14.6533 121.253 14.824C120.965 14.9947 120.736 15.2453 120.565 15.576C120.405 15.896 120.325 16.28 120.325 16.728V21H118.165ZM131.07 21V9.8H133.23V21H131.07ZM134.981 21V12.936H136.885L137.045 14.248C137.29 13.8 137.637 13.4373 138.085 13.16C138.544 12.8827 139.088 12.744 139.717 12.744C140.389 12.744 140.954 12.8827 141.413 13.16C141.872 13.4373 142.218 13.8427 142.453 14.376C142.698 14.9093 142.821 15.5653 142.821 16.344V21H140.677V16.552C140.677 15.912 140.538 15.4213 140.261 15.08C139.994 14.7387 139.578 14.568 139.013 14.568C138.65 14.568 138.325 14.6533 138.037 14.824C137.76 14.9947 137.541 15.24 137.381 15.56C137.221 15.8693 137.141 16.248 137.141 16.696V21H134.981ZM148.088 21C147.523 21 147.027 20.9147 146.6 20.744C146.184 20.5627 145.859 20.2693 145.624 19.864C145.389 19.448 145.272 18.8827 145.272 18.168V14.744H143.896V12.936H145.272L145.512 10.744H147.432V12.936H149.56V14.744H147.432V18.2C147.432 18.5627 147.512 18.8133 147.672 18.952C147.832 19.0907 148.104 19.16 148.488 19.16H149.544V21H148.088ZM154.647 21.192C153.836 21.192 153.116 21.0213 152.487 20.68C151.868 20.328 151.383 19.8427 151.031 19.224C150.689 18.5947 150.519 17.8693 150.519 17.048C150.519 16.2053 150.689 15.464 151.031 14.824C151.383 14.1733 151.868 13.6667 152.487 13.304C153.105 12.9307 153.825 12.744 154.647 12.744C155.447 12.744 156.145 12.92 156.743 13.272C157.34 13.624 157.804 14.0987 158.135 14.696C158.465 15.2933 158.631 15.9707 158.631 16.728C158.631 16.8347 158.631 16.9573 158.631 17.096C158.631 17.224 158.62 17.3573 158.599 17.496H152.055V16.184H156.455C156.423 15.6613 156.236 15.2507 155.895 14.952C155.564 14.6533 155.148 14.504 154.647 14.504C154.284 14.504 153.948 14.5893 153.639 14.76C153.329 14.92 153.084 15.1707 152.903 15.512C152.732 15.8533 152.647 16.2853 152.647 16.808V17.272C152.647 17.7093 152.727 18.0933 152.887 18.424C153.057 18.744 153.292 18.9947 153.591 19.176C153.889 19.3467 154.236 19.432 154.631 19.432C155.025 19.432 155.351 19.3467 155.607 19.176C155.873 19.0053 156.071 18.7867 156.199 18.52H158.407C158.257 19.0213 158.007 19.4747 157.655 19.88C157.303 20.2853 156.871 20.6053 156.359 20.84C155.847 21.0747 155.276 21.192 154.647 21.192ZM160 21V9.48H162.16V21H160ZM163.865 21V9.48H166.025V21H163.865ZM167.779 21V12.936H169.939V21H167.779ZM168.867 11.832C168.483 11.832 168.163 11.72 167.907 11.496C167.662 11.2613 167.539 10.968 167.539 10.616C167.539 10.264 167.662 9.976 167.907 9.752C168.163 9.51733 168.483 9.4 168.867 9.4C169.262 9.4 169.582 9.51733 169.827 9.752C170.083 9.976 170.211 10.264 170.211 10.616C170.211 10.968 170.083 11.2613 169.827 11.496C169.582 11.72 169.262 11.832 168.867 11.832ZM175.194 24.712C174.426 24.712 173.754 24.616 173.178 24.424C172.602 24.2427 172.154 23.96 171.834 23.576C171.524 23.2027 171.37 22.7387 171.37 22.184C171.37 21.8107 171.466 21.4587 171.658 21.128C171.85 20.7973 172.127 20.4987 172.49 20.232C172.863 19.9547 173.327 19.72 173.882 19.528L174.698 20.584C174.207 20.744 173.85 20.9413 173.626 21.176C173.412 21.4213 173.306 21.6827 173.306 21.96C173.306 22.2053 173.386 22.4133 173.546 22.584C173.716 22.7547 173.94 22.8773 174.218 22.952C174.506 23.0373 174.826 23.08 175.178 23.08C175.519 23.08 175.812 23.0373 176.058 22.952C176.314 22.8667 176.511 22.7387 176.65 22.568C176.799 22.408 176.874 22.216 176.874 21.992C176.874 21.704 176.772 21.4693 176.57 21.288C176.367 21.1067 175.962 20.9947 175.354 20.952C174.81 20.9093 174.324 20.8507 173.898 20.776C173.482 20.6907 173.114 20.5947 172.794 20.488C172.474 20.3707 172.202 20.2427 171.978 20.104C171.764 19.9653 171.588 19.8267 171.45 19.688V19.32L173.162 17.48L174.714 17.976L172.698 19.96L173.306 18.904C173.423 18.968 173.535 19.032 173.642 19.096C173.759 19.1493 173.903 19.2027 174.074 19.256C174.244 19.2987 174.468 19.3413 174.746 19.384C175.023 19.4267 175.375 19.464 175.802 19.496C176.506 19.56 177.082 19.6933 177.53 19.896C177.988 20.0987 178.324 20.3707 178.538 20.712C178.751 21.0427 178.858 21.4533 178.858 21.944C178.858 22.424 178.724 22.872 178.458 23.288C178.202 23.7147 177.802 24.056 177.258 24.312C176.714 24.5787 176.026 24.712 175.194 24.712ZM175.194 18.616C174.522 18.616 173.94 18.488 173.45 18.232C172.97 17.9653 172.596 17.6133 172.33 17.176C172.074 16.728 171.946 16.232 171.946 15.688C171.946 15.144 172.074 14.6533 172.33 14.216C172.596 13.768 172.97 13.4107 173.45 13.144C173.94 12.8773 174.522 12.744 175.194 12.744C175.876 12.744 176.458 12.8773 176.938 13.144C177.428 13.4107 177.802 13.768 178.058 14.216C178.314 14.6533 178.442 15.144 178.442 15.688C178.442 16.232 178.314 16.728 178.058 17.176C177.802 17.6133 177.428 17.9653 176.938 18.232C176.458 18.488 175.876 18.616 175.194 18.616ZM175.194 16.968C175.61 16.968 175.946 16.8613 176.202 16.648C176.458 16.4347 176.586 16.12 176.586 15.704C176.586 15.288 176.458 14.9733 176.202 14.76C175.946 14.536 175.61 14.424 175.194 14.424C174.788 14.424 174.452 14.536 174.186 14.76C173.93 14.9733 173.802 15.288 173.802 15.704C173.802 16.12 173.93 16.4347 174.186 16.648C174.452 16.8613 174.788 16.968 175.194 16.968ZM176.538 14.472L176.186 12.936H179.498V14.216L176.538 14.472ZM184.412 21.192C183.602 21.192 182.882 21.0213 182.252 20.68C181.634 20.328 181.148 19.8427 180.796 19.224C180.455 18.5947 180.284 17.8693 180.284 17.048C180.284 16.2053 180.455 15.464 180.796 14.824C181.148 14.1733 181.634 13.6667 182.252 13.304C182.871 12.9307 183.591 12.744 184.412 12.744C185.212 12.744 185.911 12.92 186.508 13.272C187.106 13.624 187.57 14.0987 187.9 14.696C188.231 15.2933 188.396 15.9707 188.396 16.728C188.396 16.8347 188.396 16.9573 188.396 17.096C188.396 17.224 188.386 17.3573 188.364 17.496H181.82V16.184H186.22C186.188 15.6613 186.002 15.2507 185.66 14.952C185.33 14.6533 184.914 14.504 184.412 14.504C184.05 14.504 183.714 14.5893 183.404 14.76C183.095 14.92 182.85 15.1707 182.668 15.512C182.498 15.8533 182.412 16.2853 182.412 16.808V17.272C182.412 17.7093 182.492 18.0933 182.652 18.424C182.823 18.744 183.058 18.9947 183.356 19.176C183.655 19.3467 184.002 19.432 184.396 19.432C184.791 19.432 185.116 19.3467 185.372 19.176C185.639 19.0053 185.836 18.7867 185.964 18.52H188.172C188.023 19.0213 187.772 19.4747 187.42 19.88C187.068 20.2853 186.636 20.6053 186.124 20.84C185.612 21.0747 185.042 21.192 184.412 21.192ZM189.765 21V12.936H191.669L191.829 14.248C192.075 13.8 192.421 13.4373 192.869 13.16C193.328 12.8827 193.872 12.744 194.501 12.744C195.173 12.744 195.739 12.8827 196.197 13.16C196.656 13.4373 197.003 13.8427 197.237 14.376C197.483 14.9093 197.605 15.5653 197.605 16.344V21H195.461V16.552C195.461 15.912 195.323 15.4213 195.045 15.08C194.779 14.7387 194.363 14.568 193.797 14.568C193.435 14.568 193.109 14.6533 192.821 14.824C192.544 14.9947 192.325 15.24 192.165 15.56C192.005 15.8693 191.925 16.248 191.925 16.696V21H189.765ZM203.144 21.192C202.334 21.192 201.614 21.0107 200.984 20.648C200.355 20.2853 199.864 19.7893 199.512 19.16C199.16 18.5307 198.984 17.8107 198.984 17C198.984 16.168 199.16 15.4373 199.512 14.808C199.864 14.168 200.355 13.6667 200.984 13.304C201.614 12.9307 202.334 12.744 203.144 12.744C204.179 12.744 205.048 13.016 205.752 13.56C206.456 14.104 206.904 14.8507 207.096 15.8H204.808C204.712 15.4267 204.51 15.1333 204.2 14.92C203.902 14.7067 203.544 14.6 203.128 14.6C202.755 14.6 202.419 14.696 202.12 14.888C201.832 15.0693 201.603 15.3413 201.432 15.704C201.272 16.056 201.192 16.4773 201.192 16.968C201.192 17.3413 201.24 17.6773 201.336 17.976C201.432 18.264 201.566 18.5147 201.736 18.728C201.907 18.9307 202.11 19.0853 202.344 19.192C202.59 19.2987 202.851 19.352 203.128 19.352C203.406 19.352 203.656 19.304 203.88 19.208C204.115 19.112 204.312 18.9787 204.472 18.808C204.632 18.6267 204.744 18.408 204.808 18.152H207.096C206.904 19.08 206.451 19.8213 205.736 20.376C205.032 20.92 204.168 21.192 203.144 21.192ZM212.431 21.192C211.62 21.192 210.9 21.0213 210.271 20.68C209.652 20.328 209.167 19.8427 208.815 19.224C208.474 18.5947 208.303 17.8693 208.303 17.048C208.303 16.2053 208.474 15.464 208.815 14.824C209.167 14.1733 209.652 13.6667 210.271 13.304C210.89 12.9307 211.61 12.744 212.431 12.744C213.231 12.744 213.93 12.92 214.527 13.272C215.124 13.624 215.588 14.0987 215.919 14.696C216.25 15.2933 216.415 15.9707 216.415 16.728C216.415 16.8347 216.415 16.9573 216.415 17.096C216.415 17.224 216.404 17.3573 216.383 17.496H209.839V16.184H214.239C214.207 15.6613 214.02 15.2507 213.679 14.952C213.348 14.6533 212.932 14.504 212.431 14.504C212.068 14.504 211.732 14.5893 211.423 14.76C211.114 14.92 210.868 15.1707 210.687 15.512C210.516 15.8533 210.431 16.2853 210.431 16.808V17.272C210.431 17.7093 210.511 18.0933 210.671 18.424C210.842 18.744 211.076 18.9947 211.375 19.176C211.674 19.3467 212.02 19.432 212.415 19.432C212.81 19.432 213.135 19.3467 213.391 19.176C213.658 19.0053 213.855 18.7867 213.983 18.52H216.191C216.042 19.0213 215.791 19.4747 215.439 19.88C215.087 20.2853 214.655 20.6053 214.143 20.84C213.631 21.0747 213.06 21.192 212.431 21.192ZM220.446 21L224.542 9.8H226.99L231.07 21H228.782L225.758 12.264L222.718 21H220.446ZM222.254 18.456L222.83 16.776H228.526L229.086 18.456H222.254ZM235.39 21.192C234.654 21.192 234.014 21.0747 233.47 20.84C232.926 20.6053 232.499 20.28 232.19 19.864C231.88 19.448 231.704 18.9787 231.662 18.456H233.806C233.859 18.6587 233.95 18.8453 234.078 19.016C234.206 19.176 234.376 19.304 234.59 19.4C234.803 19.496 235.059 19.544 235.358 19.544C235.646 19.544 235.88 19.5067 236.062 19.432C236.243 19.3467 236.376 19.2347 236.462 19.096C236.558 18.9573 236.606 18.8133 236.606 18.664C236.606 18.44 236.542 18.2693 236.414 18.152C236.286 18.024 236.099 17.9227 235.854 17.848C235.608 17.7733 235.31 17.6987 234.958 17.624C234.574 17.5493 234.195 17.4587 233.822 17.352C233.459 17.2347 233.134 17.0907 232.846 16.92C232.558 16.7493 232.328 16.5307 232.158 16.264C231.987 15.9973 231.902 15.6667 231.902 15.272C231.902 14.792 232.03 14.3653 232.286 13.992C232.542 13.608 232.915 13.304 233.406 13.08C233.896 12.856 234.488 12.744 235.182 12.744C236.152 12.744 236.92 12.9627 237.486 13.4C238.051 13.8373 238.387 14.44 238.494 15.208H236.462C236.398 14.9627 236.254 14.7707 236.03 14.632C235.816 14.4827 235.528 14.408 235.166 14.408C234.782 14.408 234.488 14.4773 234.286 14.616C234.083 14.7547 233.982 14.936 233.982 15.16C233.982 15.3093 234.046 15.4427 234.174 15.56C234.312 15.6773 234.504 15.7787 234.75 15.864C234.995 15.9387 235.294 16.0133 235.646 16.088C236.264 16.216 236.808 16.3653 237.278 16.536C237.747 16.696 238.115 16.9307 238.382 17.24C238.648 17.5387 238.782 17.976 238.782 18.552C238.782 19.064 238.643 19.5227 238.366 19.928C238.088 20.3227 237.694 20.632 237.182 20.856C236.68 21.08 236.083 21.192 235.39 21.192ZM243.505 21.192C242.769 21.192 242.129 21.0747 241.585 20.84C241.041 20.6053 240.614 20.28 240.305 19.864C239.996 19.448 239.82 18.9787 239.777 18.456H241.921C241.974 18.6587 242.065 18.8453 242.193 19.016C242.321 19.176 242.492 19.304 242.705 19.4C242.918 19.496 243.174 19.544 243.473 19.544C243.761 19.544 243.996 19.5067 244.177 19.432C244.358 19.3467 244.492 19.2347 244.577 19.096C244.673 18.9573 244.721 18.8133 244.721 18.664C244.721 18.44 244.657 18.2693 244.529 18.152C244.401 18.024 244.214 17.9227 243.969 17.848C243.724 17.7733 243.425 17.6987 243.073 17.624C242.689 17.5493 242.31 17.4587 241.937 17.352C241.574 17.2347 241.249 17.0907 240.961 16.92C240.673 16.7493 240.444 16.5307 240.273 16.264C240.102 15.9973 240.017 15.6667 240.017 15.272C240.017 14.792 240.145 14.3653 240.401 13.992C240.657 13.608 241.03 13.304 241.521 13.08C242.012 12.856 242.604 12.744 243.297 12.744C244.268 12.744 245.036 12.9627 245.601 13.4C246.166 13.8373 246.502 14.44 246.609 15.208H244.577C244.513 14.9627 244.369 14.7707 244.145 14.632C243.932 14.4827 243.644 14.408 243.281 14.408C242.897 14.408 242.604 14.4773 242.401 14.616C242.198 14.7547 242.097 14.936 242.097 15.16C242.097 15.3093 242.161 15.4427 242.289 15.56C242.428 15.6773 242.62 15.7787 242.865 15.864C243.11 15.9387 243.409 16.0133 243.761 16.088C244.38 16.216 244.924 16.3653 245.393 16.536C245.862 16.696 246.23 16.9307 246.497 17.24C246.764 17.5387 246.897 17.976 246.897 18.552C246.897 19.064 246.758 19.5227 246.481 19.928C246.204 20.3227 245.809 20.632 245.297 20.856C244.796 21.08 244.198 21.192 243.505 21.192ZM248.373 21V12.936H250.533V21H248.373ZM249.461 11.832C249.077 11.832 248.757 11.72 248.501 11.496C248.255 11.2613 248.133 10.968 248.133 10.616C248.133 10.264 248.255 9.976 248.501 9.752C248.757 9.51733 249.077 9.4 249.461 9.4C249.855 9.4 250.175 9.51733 250.421 9.752C250.677 9.976 250.805 10.264 250.805 10.616C250.805 10.968 250.677 11.2613 250.421 11.496C250.175 11.72 249.855 11.832 249.461 11.832ZM255.611 21.192C254.875 21.192 254.235 21.0747 253.691 20.84C253.147 20.6053 252.721 20.28 252.411 19.864C252.102 19.448 251.926 18.9787 251.883 18.456H254.027C254.081 18.6587 254.171 18.8453 254.299 19.016C254.427 19.176 254.598 19.304 254.811 19.4C255.025 19.496 255.281 19.544 255.579 19.544C255.867 19.544 256.102 19.5067 256.283 19.432C256.465 19.3467 256.598 19.2347 256.683 19.096C256.779 18.9573 256.827 18.8133 256.827 18.664C256.827 18.44 256.763 18.2693 256.635 18.152C256.507 18.024 256.321 17.9227 256.075 17.848C255.83 17.7733 255.531 17.6987 255.179 17.624C254.795 17.5493 254.417 17.4587 254.043 17.352C253.681 17.2347 253.355 17.0907 253.067 16.92C252.779 16.7493 252.55 16.5307 252.379 16.264C252.209 15.9973 252.123 15.6667 252.123 15.272C252.123 14.792 252.251 14.3653 252.507 13.992C252.763 13.608 253.137 13.304 253.627 13.08C254.118 12.856 254.71 12.744 255.403 12.744C256.374 12.744 257.142 12.9627 257.707 13.4C258.273 13.8373 258.609 14.44 258.715 15.208H256.683C256.619 14.9627 256.475 14.7707 256.251 14.632C256.038 14.4827 255.75 14.408 255.387 14.408C255.003 14.408 254.71 14.4773 254.507 14.616C254.305 14.7547 254.203 14.936 254.203 15.16C254.203 15.3093 254.267 15.4427 254.395 15.56C254.534 15.6773 254.726 15.7787 254.971 15.864C255.217 15.9387 255.515 16.0133 255.867 16.088C256.486 16.216 257.03 16.3653 257.499 16.536C257.969 16.696 258.337 16.9307 258.603 17.24C258.87 17.5387 259.003 17.976 259.003 18.552C259.003 19.064 258.865 19.5227 258.587 19.928C258.31 20.3227 257.915 20.632 257.403 20.856C256.902 21.08 256.305 21.192 255.611 21.192ZM263.813 21C263.248 21 262.752 20.9147 262.325 20.744C261.909 20.5627 261.584 20.2693 261.349 19.864C261.114 19.448 260.997 18.8827 260.997 18.168V14.744H259.621V12.936H260.997L261.237 10.744H263.157V12.936H265.285V14.744H263.157V18.2C263.157 18.5627 263.237 18.8133 263.397 18.952C263.557 19.0907 263.829 19.16 264.213 19.16H265.269V21H263.813ZM269.423 21.192C268.751 21.192 268.196 21.0853 267.759 20.872C267.322 20.648 266.996 20.3547 266.783 19.992C266.58 19.6187 266.479 19.208 266.479 18.76C266.479 18.2693 266.602 17.8373 266.847 17.464C267.103 17.0907 267.482 16.7973 267.983 16.584C268.495 16.3707 269.135 16.264 269.903 16.264H271.903C271.903 15.8693 271.85 15.544 271.743 15.288C271.636 15.0213 271.471 14.824 271.247 14.696C271.023 14.568 270.724 14.504 270.351 14.504C269.946 14.504 269.599 14.5947 269.311 14.776C269.034 14.9467 268.863 15.2133 268.799 15.576H266.703C266.756 15 266.943 14.504 267.263 14.088C267.594 13.6613 268.026 13.3307 268.559 13.096C269.103 12.8613 269.706 12.744 270.367 12.744C271.124 12.744 271.78 12.872 272.335 13.128C272.89 13.384 273.316 13.752 273.615 14.232C273.914 14.712 274.063 15.304 274.063 16.008V21H272.239L271.999 19.768C271.882 19.9813 271.743 20.1733 271.583 20.344C271.423 20.5147 271.236 20.664 271.023 20.792C270.81 20.92 270.57 21.016 270.303 21.08C270.036 21.1547 269.743 21.192 269.423 21.192ZM269.935 19.528C270.212 19.528 270.458 19.48 270.671 19.384C270.895 19.2773 271.087 19.1387 271.247 18.968C271.407 18.7867 271.53 18.584 271.615 18.36C271.711 18.1253 271.775 17.8747 271.807 17.608V17.592H270.159C269.828 17.592 269.556 17.6347 269.343 17.72C269.14 17.7947 268.991 17.9067 268.895 18.056C268.799 18.2053 268.751 18.376 268.751 18.568C268.751 18.7813 268.799 18.9573 268.895 19.096C268.991 19.2347 269.13 19.3413 269.311 19.416C269.492 19.4907 269.7 19.528 269.935 19.528ZM275.678 21V12.936H277.582L277.742 14.248C277.987 13.8 278.334 13.4373 278.782 13.16C279.241 12.8827 279.785 12.744 280.414 12.744C281.086 12.744 281.651 12.8827 282.11 13.16C282.569 13.4373 282.915 13.8427 283.15 14.376C283.395 14.9093 283.518 15.5653 283.518 16.344V21H281.374V16.552C281.374 15.912 281.235 15.4213 280.958 15.08C280.691 14.7387 280.275 14.568 279.71 14.568C279.347 14.568 279.022 14.6533 278.734 14.824C278.457 14.9947 278.238 15.24 278.078 15.56C277.918 15.8693 277.838 16.248 277.838 16.696V21H275.678ZM288.785 21C288.22 21 287.724 20.9147 287.297 20.744C286.881 20.5627 286.556 20.2693 286.321 19.864C286.086 19.448 285.969 18.8827 285.969 18.168V14.744H284.593V12.936H285.969L286.209 10.744H288.129V12.936H290.257V14.744H288.129V18.2C288.129 18.5627 288.209 18.8133 288.369 18.952C288.529 19.0907 288.801 19.16 289.185 19.16H290.241V21H288.785Z" fill="#E7F9BD"/>
<path d="M3.94 59.3598L3.7 55.1998H5.52L5.32 59.3598H3.94ZM1 59.3598L0.76 55.1998H2.6L2.38 59.3598H1ZM7.74906 70.2998V56.2998H9.74906V70.2998H7.74906ZM17.6881 70.2998V60.2198H19.4881L19.6081 61.9398C19.9281 61.3398 20.3815 60.8665 20.9681 60.5198C21.5548 60.1598 22.2281 59.9798 22.9881 59.9798C23.7881 59.9798 24.4748 60.1398 25.0481 60.4598C25.6215 60.7798 26.0681 61.2665 26.3881 61.9198C26.7081 62.5598 26.8681 63.3665 26.8681 64.3398V70.2998H24.8681V64.5398C24.8681 63.6065 24.6615 62.8998 24.2481 62.4198C23.8348 61.9398 23.2348 61.6998 22.4481 61.6998C21.9281 61.6998 21.4615 61.8265 21.0481 62.0798C20.6348 62.3198 20.3015 62.6798 20.0481 63.1598C19.8081 63.6398 19.6881 64.2265 19.6881 64.9198V70.2998H17.6881ZM34.0264 70.5398C33.0797 70.5398 32.2264 70.3198 31.4664 69.8798C30.7197 69.4398 30.1264 68.8265 29.6864 68.0398C29.2597 67.2398 29.0464 66.3198 29.0464 65.2798C29.0464 64.2131 29.2664 63.2865 29.7064 62.4998C30.1464 61.6998 30.7464 61.0798 31.5064 60.6398C32.2664 60.1998 33.1197 59.9798 34.0664 59.9798C35.0264 59.9798 35.8797 60.1998 36.6264 60.6398C37.3731 61.0798 37.9597 61.6931 38.3864 62.4798C38.8264 63.2665 39.0464 64.1931 39.0464 65.2598C39.0464 66.3265 38.8264 67.2531 38.3864 68.0398C37.9597 68.8265 37.3664 69.4398 36.6064 69.8798C35.8464 70.3198 34.9864 70.5398 34.0264 70.5398ZM34.0264 68.8198C34.5731 68.8198 35.0664 68.6865 35.5064 68.4198C35.9597 68.1531 36.3197 67.7598 36.5864 67.2398C36.8664 66.7065 37.0064 66.0465 37.0064 65.2598C37.0064 64.4731 36.8731 63.8198 36.6064 63.2998C36.3397 62.7665 35.9797 62.3665 35.5264 62.0998C35.0864 61.8331 34.5997 61.6998 34.0664 61.6998C33.5331 61.6998 33.0397 61.8331 32.5864 62.0998C32.1331 62.3665 31.7664 62.7665 31.4864 63.2998C31.2197 63.8198 31.0864 64.4731 31.0864 65.2598C31.0864 66.0465 31.2197 66.7065 31.4864 67.2398C31.7664 67.7598 32.1264 68.1531 32.5664 68.4198C33.0197 68.6865 33.5064 68.8198 34.0264 68.8198ZM45.1684 70.2998C44.5284 70.2998 43.9751 70.1998 43.5084 69.9998C43.0418 69.7998 42.6818 69.4665 42.4284 68.9998C42.1751 68.5331 42.0484 67.8998 42.0484 67.0998V61.9198H40.3084V60.2198H42.0484L42.2884 57.6998H44.0484V60.2198H46.9084V61.9198H44.0484V67.1198C44.0484 67.6931 44.1684 68.0865 44.4084 68.2998C44.6484 68.4998 45.0618 68.5998 45.6484 68.5998H46.8084V70.2998H45.1684ZM49.2539 70.2998V60.2198H51.2539V70.2998H49.2539ZM50.2739 58.3198C49.8872 58.3198 49.5672 58.1998 49.3139 57.9598C49.0739 57.7198 48.9539 57.4131 48.9539 57.0398C48.9539 56.6798 49.0739 56.3865 49.3139 56.1598C49.5672 55.9198 49.8872 55.7998 50.2739 55.7998C50.6472 55.7998 50.9606 55.9198 51.2139 56.1598C51.4672 56.3865 51.5939 56.6798 51.5939 57.0398C51.5939 57.4131 51.4672 57.7198 51.2139 57.9598C50.9606 58.1998 50.6472 58.3198 50.2739 58.3198ZM58.7739 70.5398C57.8006 70.5398 56.9339 70.3198 56.1739 69.8798C55.4139 69.4265 54.8139 68.8065 54.3739 68.0198C53.9472 67.2331 53.7339 66.3198 53.7339 65.2798C53.7339 64.2265 53.9472 63.3065 54.3739 62.5198C54.8139 61.7198 55.4139 61.0998 56.1739 60.6598C56.9339 60.2065 57.8006 59.9798 58.7739 59.9798C60.0006 59.9798 61.0272 60.2998 61.8539 60.9398C62.6806 61.5798 63.2072 62.4465 63.4339 63.5398H61.3539C61.2206 62.9531 60.9139 62.4998 60.4339 62.1798C59.9672 61.8598 59.4072 61.6998 58.7539 61.6998C58.2206 61.6998 57.7272 61.8398 57.2739 62.1198C56.8206 62.3865 56.4539 62.7865 56.1739 63.3198C55.9072 63.8398 55.7739 64.4865 55.7739 65.2598C55.7739 65.8331 55.8539 66.3465 56.0139 66.7998C56.1739 67.2398 56.3872 67.6131 56.6539 67.9198C56.9339 68.2265 57.2539 68.4598 57.6139 68.6198C57.9739 68.7665 58.3539 68.8398 58.7539 68.8398C59.1939 68.8398 59.5872 68.7731 59.9339 68.6398C60.2939 68.4931 60.5939 68.2798 60.8339 67.9998C61.0872 67.7198 61.2606 67.3865 61.3539 66.9998H63.4339C63.2072 68.0665 62.6806 68.9265 61.8539 69.5798C61.0272 70.2198 60.0006 70.5398 58.7739 70.5398ZM70.3341 70.5398C69.3741 70.5398 68.5207 70.3198 67.7741 69.8798C67.0274 69.4398 66.4407 68.8265 66.0141 68.0398C65.6007 67.2531 65.3941 66.3398 65.3941 65.2998C65.3941 64.2331 65.6007 63.3065 66.0141 62.5198C66.4407 61.7198 67.0274 61.0998 67.7741 60.6598C68.5207 60.2065 69.3874 59.9798 70.3741 59.9798C71.3607 59.9798 72.2074 60.1998 72.9141 60.6398C73.6207 61.0798 74.1674 61.6665 74.5541 62.3998C74.9407 63.1198 75.1341 63.9198 75.1341 64.7998C75.1341 64.9331 75.1274 65.0798 75.1141 65.2398C75.1141 65.3865 75.1074 65.5531 75.0941 65.7398H66.8541V64.3198H73.1341C73.0941 63.4798 72.8141 62.8265 72.2941 62.3598C71.7741 61.8798 71.1274 61.6398 70.3541 61.6398C69.8074 61.6398 69.3074 61.7665 68.8541 62.0198C68.4007 62.2598 68.0341 62.6198 67.7541 63.0998C67.4874 63.5665 67.3541 64.1598 67.3541 64.8798V65.4398C67.3541 66.1865 67.4874 66.8198 67.7541 67.3398C68.0341 67.8465 68.4007 68.2331 68.8541 68.4998C69.3074 68.7531 69.8007 68.8798 70.3341 68.8798C70.9741 68.8798 71.5007 68.7398 71.9141 68.4598C72.3274 68.1798 72.6341 67.7998 72.8341 67.3198H74.8341C74.6607 67.9331 74.3674 68.4865 73.9541 68.9798C73.5407 69.4598 73.0274 69.8398 72.4141 70.1198C71.8141 70.3998 71.1207 70.5398 70.3341 70.5398ZM81.8361 70.5398C80.8761 70.5398 80.0294 70.3131 79.2961 69.8598C78.5628 69.3931 77.9894 68.7665 77.5761 67.9798C77.1761 67.1798 76.9761 66.2731 76.9761 65.2598C76.9761 64.2331 77.1761 63.3265 77.5761 62.5398C77.9894 61.7531 78.5628 61.1331 79.2961 60.6798C80.0428 60.2131 80.8961 59.9798 81.8561 59.9798C82.6428 59.9798 83.3361 60.1398 83.9361 60.4598C84.5361 60.7665 85.0028 61.2065 85.3361 61.7798V55.8998H87.3361V70.2998H85.5361L85.3361 68.7398C85.1361 69.0465 84.8761 69.3398 84.5561 69.6198C84.2361 69.8865 83.8494 70.1065 83.3961 70.2798C82.9428 70.4531 82.4228 70.5398 81.8361 70.5398ZM82.1561 68.7998C82.7828 68.7998 83.3361 68.6531 83.8161 68.3598C84.2961 68.0665 84.6628 67.6531 84.9161 67.1198C85.1828 66.5865 85.3161 65.9665 85.3161 65.2598C85.3161 64.5531 85.1828 63.9398 84.9161 63.4198C84.6628 62.8865 84.2961 62.4731 83.8161 62.1798C83.3361 61.8731 82.7828 61.7198 82.1561 61.7198C81.5561 61.7198 81.0161 61.8731 80.5361 62.1798C80.0561 62.4731 79.6828 62.8865 79.4161 63.4198C79.1494 63.9398 79.0161 64.5531 79.0161 65.2598C79.0161 65.9665 79.1494 66.5865 79.4161 67.1198C79.6828 67.6531 80.0561 68.0665 80.5361 68.3598C81.0161 68.6531 81.5561 68.7998 82.1561 68.7998ZM96.3481 74.6998L98.8081 69.1798H98.2281L94.2481 60.2198H96.4081L99.5681 67.5398L102.748 60.2198H104.848L98.4481 74.6998H96.3481ZM110.296 70.5398C109.349 70.5398 108.496 70.3198 107.736 69.8798C106.989 69.4398 106.396 68.8265 105.956 68.0398C105.529 67.2398 105.316 66.3198 105.316 65.2798C105.316 64.2131 105.536 63.2865 105.976 62.4998C106.416 61.6998 107.016 61.0798 107.776 60.6398C108.536 60.1998 109.389 59.9798 110.336 59.9798C111.296 59.9798 112.149 60.1998 112.896 60.6398C113.643 61.0798 114.229 61.6931 114.656 62.4798C115.096 63.2665 115.316 64.1931 115.316 65.2598C115.316 66.3265 115.096 67.2531 114.656 68.0398C114.229 68.8265 113.636 69.4398 112.876 69.8798C112.116 70.3198 111.256 70.5398 110.296 70.5398ZM110.296 68.8198C110.843 68.8198 111.336 68.6865 111.776 68.4198C112.229 68.1531 112.589 67.7598 112.856 67.2398C113.136 66.7065 113.276 66.0465 113.276 65.2598C113.276 64.4731 113.143 63.8198 112.876 63.2998C112.609 62.7665 112.249 62.3665 111.796 62.0998C111.356 61.8331 110.869 61.6998 110.336 61.6998C109.803 61.6998 109.309 61.8331 108.856 62.0998C108.403 62.3665 108.036 62.7665 107.756 63.2998C107.489 63.8198 107.356 64.4731 107.356 65.2598C107.356 66.0465 107.489 66.7065 107.756 67.2398C108.036 67.7598 108.396 68.1531 108.836 68.4198C109.289 68.6865 109.776 68.8198 110.296 68.8198ZM121.369 70.5398C120.582 70.5398 119.895 70.3798 119.309 70.0598C118.735 69.7398 118.289 69.2598 117.969 68.6198C117.662 67.9798 117.509 67.1731 117.509 66.1998V60.2198H119.509V65.9798C119.509 66.9265 119.715 67.6398 120.129 68.1198C120.542 68.5998 121.135 68.8398 121.909 68.8398C122.429 68.8398 122.895 68.7131 123.309 68.4598C123.735 68.2065 124.069 67.8398 124.309 67.3598C124.549 66.8798 124.669 66.2931 124.669 65.5998V60.2198H126.669V70.2998H124.889L124.749 68.5798C124.442 69.1931 123.995 69.6731 123.409 70.0198C122.822 70.3665 122.142 70.5398 121.369 70.5398ZM129.407 70.2998V60.2198H131.207L131.387 62.1198C131.614 61.6665 131.907 61.2865 132.267 60.9798C132.627 60.6598 133.047 60.4131 133.527 60.2398C134.02 60.0665 134.58 59.9798 135.207 59.9798V62.0998H134.487C134.074 62.0998 133.68 62.1531 133.307 62.2598C132.934 62.3531 132.6 62.5198 132.307 62.7598C132.027 62.9998 131.807 63.3265 131.647 63.7398C131.487 64.1531 131.407 64.6665 131.407 65.2798V70.2998H129.407ZM146.261 74.9398C145.341 74.9398 144.527 74.8198 143.821 74.5798C143.114 74.3531 142.567 73.9998 142.181 73.5198C141.794 73.0398 141.601 72.4531 141.601 71.7598C141.601 71.3998 141.681 71.0331 141.841 70.6598C142.001 70.2998 142.261 69.9531 142.621 69.6198C142.981 69.2865 143.467 68.9865 144.081 68.7198L145.201 69.6198C144.521 69.8731 144.061 70.1731 143.821 70.5198C143.594 70.8798 143.481 71.2265 143.481 71.5598C143.481 71.9598 143.601 72.2931 143.841 72.5598C144.081 72.8265 144.407 73.0265 144.821 73.1598C145.247 73.2931 145.727 73.3598 146.261 73.3598C146.781 73.3598 147.234 73.2865 147.621 73.1398C148.007 72.9931 148.307 72.7865 148.521 72.5198C148.734 72.2531 148.841 71.9398 148.841 71.5798C148.841 71.1531 148.681 70.7931 148.361 70.4998C148.041 70.2198 147.427 70.0531 146.521 69.9998C145.761 69.9465 145.114 69.8731 144.581 69.7798C144.061 69.6865 143.614 69.5731 143.241 69.4398C142.881 69.3065 142.574 69.1598 142.321 68.9998C142.081 68.8398 141.874 68.6731 141.701 68.4998V68.0398L143.701 65.9798L145.321 66.5398L143.141 68.5598L143.561 67.6598C143.707 67.7531 143.847 67.8465 143.981 67.9398C144.114 68.0198 144.294 68.0931 144.521 68.1598C144.747 68.2265 145.054 68.2865 145.441 68.3398C145.827 68.3931 146.334 68.4465 146.961 68.4998C147.867 68.5665 148.594 68.7265 149.141 68.9798C149.701 69.2331 150.107 69.5731 150.361 69.9998C150.614 70.4265 150.741 70.9331 150.741 71.5198C150.741 72.0931 150.581 72.6398 150.261 73.1598C149.954 73.6798 149.467 74.1065 148.801 74.4398C148.147 74.7731 147.301 74.9398 146.261 74.9398ZM146.261 67.1998C145.407 67.1998 144.681 67.0398 144.081 66.7198C143.494 66.3998 143.041 65.9665 142.721 65.4198C142.414 64.8731 142.261 64.2665 142.261 63.5998C142.261 62.9198 142.414 62.3131 142.721 61.7798C143.041 61.2331 143.501 60.7998 144.101 60.4798C144.701 60.1465 145.421 59.9798 146.261 59.9798C147.101 59.9798 147.814 60.1465 148.401 60.4798C149.001 60.7998 149.454 61.2331 149.761 61.7798C150.081 62.3131 150.241 62.9198 150.241 63.5998C150.241 64.2665 150.081 64.8731 149.761 65.4198C149.454 65.9665 149.001 66.3998 148.401 66.7198C147.814 67.0398 147.101 67.1998 146.261 67.1998ZM146.261 65.5998C146.914 65.5998 147.434 65.4331 147.821 65.0998C148.207 64.7531 148.401 64.2531 148.401 63.5998C148.401 62.9465 148.207 62.4531 147.821 62.1198C147.434 61.7731 146.914 61.5998 146.261 61.5998C145.607 61.5998 145.081 61.7731 144.681 62.1198C144.281 62.4531 144.081 62.9465 144.081 63.5998C144.081 64.2531 144.281 64.7531 144.681 65.0998C145.081 65.4331 145.607 65.5998 146.261 65.5998ZM147.901 61.7998L147.421 60.2198H151.561V61.5998L147.901 61.7998ZM153.567 70.2998V55.8998H155.567V70.2998H153.567ZM162.013 70.5398C161.226 70.5398 160.54 70.3798 159.953 70.0598C159.38 69.7398 158.933 69.2598 158.613 68.6198C158.306 67.9798 158.153 67.1731 158.153 66.1998V60.2198H160.153V65.9798C160.153 66.9265 160.36 67.6398 160.773 68.1198C161.186 68.5998 161.78 68.8398 162.553 68.8398C163.073 68.8398 163.54 68.7131 163.953 68.4598C164.38 68.2065 164.713 67.8398 164.953 67.3598C165.193 66.8798 165.313 66.2931 165.313 65.5998V60.2198H167.313V70.2998H165.533L165.393 68.5798C165.086 69.1931 164.64 69.6731 164.053 70.0198C163.466 70.3665 162.786 70.5398 162.013 70.5398ZM174.711 70.5398C173.738 70.5398 172.871 70.3198 172.111 69.8798C171.351 69.4265 170.751 68.8065 170.311 68.0198C169.885 67.2331 169.671 66.3198 169.671 65.2798C169.671 64.2265 169.885 63.3065 170.311 62.5198C170.751 61.7198 171.351 61.0998 172.111 60.6598C172.871 60.2065 173.738 59.9798 174.711 59.9798C175.938 59.9798 176.965 60.2998 177.791 60.9398C178.618 61.5798 179.145 62.4465 179.371 63.5398H177.291C177.158 62.9531 176.851 62.4998 176.371 62.1798C175.905 61.8598 175.345 61.6998 174.691 61.6998C174.158 61.6998 173.665 61.8398 173.211 62.1198C172.758 62.3865 172.391 62.7865 172.111 63.3198C171.845 63.8398 171.711 64.4865 171.711 65.2598C171.711 65.8331 171.791 66.3465 171.951 66.7998C172.111 67.2398 172.325 67.6131 172.591 67.9198C172.871 68.2265 173.191 68.4598 173.551 68.6198C173.911 68.7665 174.291 68.8398 174.691 68.8398C175.131 68.8398 175.525 68.7731 175.871 68.6398C176.231 68.4931 176.531 68.2798 176.771 67.9998C177.025 67.7198 177.198 67.3865 177.291 66.9998H179.371C179.145 68.0665 178.618 68.9265 177.791 69.5798C176.965 70.2198 175.938 70.5398 174.711 70.5398ZM186.312 70.5398C185.365 70.5398 184.512 70.3198 183.752 69.8798C183.005 69.4398 182.412 68.8265 181.972 68.0398C181.545 67.2398 181.332 66.3198 181.332 65.2798C181.332 64.2131 181.552 63.2865 181.992 62.4998C182.432 61.6998 183.032 61.0798 183.792 60.6398C184.552 60.1998 185.405 59.9798 186.352 59.9798C187.312 59.9798 188.165 60.1998 188.912 60.6398C189.658 61.0798 190.245 61.6931 190.672 62.4798C191.112 63.2665 191.332 64.1931 191.332 65.2598C191.332 66.3265 191.112 67.2531 190.672 68.0398C190.245 68.8265 189.652 69.4398 188.892 69.8798C188.132 70.3198 187.272 70.5398 186.312 70.5398ZM186.312 68.8198C186.858 68.8198 187.352 68.6865 187.792 68.4198C188.245 68.1531 188.605 67.7598 188.872 67.2398C189.152 66.7065 189.292 66.0465 189.292 65.2598C189.292 64.4731 189.158 63.8198 188.892 63.2998C188.625 62.7665 188.265 62.3665 187.812 62.0998C187.372 61.8331 186.885 61.6998 186.352 61.6998C185.818 61.6998 185.325 61.8331 184.872 62.0998C184.418 62.3665 184.052 62.7665 183.772 63.2998C183.505 63.8198 183.372 64.4731 183.372 65.2598C183.372 66.0465 183.505 66.7065 183.772 67.2398C184.052 67.7598 184.412 68.1531 184.852 68.4198C185.305 68.6865 185.792 68.8198 186.312 68.8198ZM197.584 70.5398C196.731 70.5398 195.984 70.3998 195.344 70.1198C194.704 69.8398 194.198 69.4465 193.824 68.9398C193.451 68.4331 193.224 67.8398 193.144 67.1598H195.184C195.251 67.4798 195.378 67.7731 195.564 68.0398C195.764 68.3065 196.031 68.5198 196.364 68.6798C196.711 68.8398 197.118 68.9198 197.584 68.9198C198.024 68.9198 198.384 68.8598 198.664 68.7398C198.958 68.6065 199.171 68.4331 199.304 68.2198C199.438 67.9931 199.504 67.7531 199.504 67.4998C199.504 67.1265 199.411 66.8465 199.224 66.6598C199.051 66.4598 198.784 66.3065 198.424 66.1998C198.078 66.0798 197.658 65.9731 197.164 65.8798C196.698 65.7998 196.244 65.6931 195.804 65.5598C195.378 65.4131 194.991 65.2331 194.644 65.0198C194.311 64.8065 194.044 64.5398 193.844 64.2198C193.644 63.8865 193.544 63.4798 193.544 62.9998C193.544 62.4265 193.698 61.9131 194.004 61.4598C194.311 60.9931 194.744 60.6331 195.304 60.3798C195.878 60.1131 196.551 59.9798 197.324 59.9798C198.444 59.9798 199.344 60.2465 200.024 60.7798C200.704 61.3131 201.104 62.0665 201.224 63.0398H199.284C199.231 62.5865 199.031 62.2398 198.684 61.9998C198.338 61.7465 197.878 61.6198 197.304 61.6198C196.731 61.6198 196.291 61.7331 195.984 61.9598C195.678 62.1865 195.524 62.4865 195.524 62.8598C195.524 63.0998 195.611 63.3131 195.784 63.4998C195.958 63.6865 196.211 63.8465 196.544 63.9798C196.891 64.0998 197.311 64.2131 197.804 64.3198C198.511 64.4531 199.144 64.6198 199.704 64.8198C200.264 65.0198 200.711 65.3131 201.044 65.6998C201.378 66.0865 201.544 66.6398 201.544 67.3598C201.558 67.9865 201.398 68.5398 201.064 69.0198C200.744 69.4998 200.284 69.8731 199.684 70.1398C199.098 70.4065 198.398 70.5398 197.584 70.5398ZM208.459 70.5398C207.499 70.5398 206.646 70.3198 205.899 69.8798C205.152 69.4398 204.566 68.8265 204.139 68.0398C203.726 67.2531 203.519 66.3398 203.519 65.2998C203.519 64.2331 203.726 63.3065 204.139 62.5198C204.566 61.7198 205.152 61.0998 205.899 60.6598C206.646 60.2065 207.512 59.9798 208.499 59.9798C209.486 59.9798 210.332 60.1998 211.039 60.6398C211.746 61.0798 212.292 61.6665 212.679 62.3998C213.066 63.1198 213.259 63.9198 213.259 64.7998C213.259 64.9331 213.252 65.0798 213.239 65.2398C213.239 65.3865 213.232 65.5531 213.219 65.7398H204.979V64.3198H211.259C211.219 63.4798 210.939 62.8265 210.419 62.3598C209.899 61.8798 209.252 61.6398 208.479 61.6398C207.932 61.6398 207.432 61.7665 206.979 62.0198C206.526 62.2598 206.159 62.6198 205.879 63.0998C205.612 63.5665 205.479 64.1598 205.479 64.8798V65.4398C205.479 66.1865 205.612 66.8198 205.879 67.3398C206.159 67.8465 206.526 68.2331 206.979 68.4998C207.432 68.7531 207.926 68.8798 208.459 68.8798C209.099 68.8798 209.626 68.7398 210.039 68.4598C210.452 68.1798 210.759 67.7998 210.959 67.3198H212.959C212.786 67.9331 212.492 68.4865 212.079 68.9798C211.666 69.4598 211.152 69.8398 210.539 70.1198C209.939 70.3998 209.246 70.5398 208.459 70.5398ZM220.738 70.2998V60.2198H222.738V70.2998H220.738ZM221.758 58.3198C221.372 58.3198 221.052 58.1998 220.798 57.9598C220.558 57.7198 220.438 57.4131 220.438 57.0398C220.438 56.6798 220.558 56.3865 220.798 56.1598C221.052 55.9198 221.372 55.7998 221.758 55.7998C222.132 55.7998 222.445 55.9198 222.698 56.1598C222.952 56.3865 223.078 56.6798 223.078 57.0398C223.078 57.4131 222.952 57.7198 222.698 57.9598C222.445 58.1998 222.132 58.3198 221.758 58.3198ZM229.498 70.5398C228.645 70.5398 227.898 70.3998 227.258 70.1198C226.618 69.8398 226.112 69.4465 225.738 68.9398C225.365 68.4331 225.138 67.8398 225.058 67.1598H227.098C227.165 67.4798 227.292 67.7731 227.478 68.0398C227.678 68.3065 227.945 68.5198 228.278 68.6798C228.625 68.8398 229.032 68.9198 229.498 68.9198C229.938 68.9198 230.298 68.8598 230.578 68.7398C230.872 68.6065 231.085 68.4331 231.218 68.2198C231.352 67.9931 231.418 67.7531 231.418 67.4998C231.418 67.1265 231.325 66.8465 231.138 66.6598C230.965 66.4598 230.698 66.3065 230.338 66.1998C229.992 66.0798 229.572 65.9731 229.078 65.8798C228.612 65.7998 228.158 65.6931 227.718 65.5598C227.292 65.4131 226.905 65.2331 226.558 65.0198C226.225 64.8065 225.958 64.5398 225.758 64.2198C225.558 63.8865 225.458 63.4798 225.458 62.9998C225.458 62.4265 225.612 61.9131 225.918 61.4598C226.225 60.9931 226.658 60.6331 227.218 60.3798C227.792 60.1131 228.465 59.9798 229.238 59.9798C230.358 59.9798 231.258 60.2465 231.938 60.7798C232.618 61.3131 233.018 62.0665 233.138 63.0398H231.198C231.145 62.5865 230.945 62.2398 230.598 61.9998C230.252 61.7465 229.792 61.6198 229.218 61.6198C228.645 61.6198 228.205 61.7331 227.898 61.9598C227.592 62.1865 227.438 62.4865 227.438 62.8598C227.438 63.0998 227.525 63.3131 227.698 63.4998C227.872 63.6865 228.125 63.8465 228.458 63.9798C228.805 64.0998 229.225 64.2131 229.718 64.3198C230.425 64.4531 231.058 64.6198 231.618 64.8198C232.178 65.0198 232.625 65.3131 232.958 65.6998C233.292 66.0865 233.458 66.6398 233.458 67.3598C233.472 67.9865 233.312 68.5398 232.978 69.0198C232.658 69.4998 232.198 69.8731 231.598 70.1398C231.012 70.4065 230.312 70.5398 229.498 70.5398ZM51.9461 103.54C51.1194 103.54 50.4328 103.4 49.8861 103.12C49.3394 102.84 48.9328 102.466 48.6661 102C48.3994 101.52 48.2661 101.006 48.2661 100.46C48.2661 99.7931 48.4394 99.2265 48.7861 98.7598C49.1328 98.2798 49.6261 97.9131 50.2661 97.6598C50.9061 97.4065 51.6728 97.2798 52.5661 97.2798H55.1861C55.1861 96.6931 55.0994 96.2065 54.9261 95.8198C54.7528 95.4331 54.4928 95.1465 54.1461 94.9598C53.8128 94.7598 53.3861 94.6598 52.8661 94.6598C52.2661 94.6598 51.7528 94.8065 51.3261 95.0998C50.8994 95.3798 50.6328 95.7998 50.5261 96.3598H48.5261C48.6061 95.6531 48.8461 95.0531 49.2461 94.5598C49.6594 94.0531 50.1861 93.6665 50.8261 93.3998C51.4661 93.1198 52.1461 92.9798 52.8661 92.9798C53.8128 92.9798 54.6061 93.1465 55.2461 93.4798C55.8861 93.8131 56.3661 94.2865 56.6861 94.8998C57.0194 95.4998 57.1861 96.2198 57.1861 97.0598V103.3H55.4461L55.2861 101.6C55.1394 101.866 54.9661 102.12 54.7661 102.36C54.5661 102.6 54.3261 102.806 54.0461 102.98C53.7794 103.153 53.4661 103.286 53.1061 103.38C52.7594 103.486 52.3728 103.54 51.9461 103.54ZM52.3261 101.92C52.7528 101.92 53.1394 101.833 53.4861 101.66C53.8328 101.486 54.1261 101.253 54.3661 100.96C54.6194 100.653 54.8061 100.313 54.9261 99.9398C55.0594 99.5531 55.1328 99.1598 55.1461 98.7598V98.6998H52.7661C52.1928 98.6998 51.7261 98.7731 51.3661 98.9198C51.0194 99.0531 50.7661 99.2398 50.6061 99.4798C50.4461 99.7198 50.3661 99.9998 50.3661 100.32C50.3661 100.653 50.4394 100.94 50.5861 101.18C50.7461 101.406 50.9728 101.586 51.2661 101.72C51.5594 101.853 51.9128 101.92 52.3261 101.92ZM60.2789 103.3V91.8598C60.2789 91.1665 60.3922 90.5998 60.6189 90.1598C60.8589 89.7198 61.2056 89.3998 61.6589 89.1998C62.1122 88.9998 62.6589 88.8998 63.2989 88.8998H64.4789V90.5998H63.6189C63.1389 90.5998 62.7922 90.6998 62.5789 90.8998C62.3789 91.0865 62.2789 91.4198 62.2789 91.8998V103.3H60.2789ZM58.7989 94.9198V93.2198H64.6989V94.9198H58.7989ZM70.8911 103.3C70.2511 103.3 69.6978 103.2 69.2311 103C68.7644 102.8 68.4044 102.466 68.1511 102C67.8978 101.533 67.7711 100.9 67.7711 100.1V94.9198H66.0311V93.2198H67.7711L68.0111 90.6998H69.7711V93.2198H72.6311V94.9198H69.7711V100.12C69.7711 100.693 69.8911 101.086 70.1311 101.3C70.3711 101.5 70.7844 101.6 71.3711 101.6H72.5311V103.3H70.8911ZM79.1231 103.54C78.1631 103.54 77.3098 103.32 76.5631 102.88C75.8165 102.44 75.2298 101.826 74.8031 101.04C74.3898 100.253 74.1831 99.3398 74.1831 98.2998C74.1831 97.2331 74.3898 96.3065 74.8031 95.5198C75.2298 94.7198 75.8165 94.0998 76.5631 93.6598C77.3098 93.2065 78.1765 92.9798 79.1631 92.9798C80.1498 92.9798 80.9965 93.1998 81.7031 93.6398C82.4098 94.0798 82.9565 94.6665 83.3431 95.3998C83.7298 96.1198 83.9231 96.9198 83.9231 97.7998C83.9231 97.9331 83.9165 98.0798 83.9031 98.2398C83.9031 98.3865 83.8965 98.5531 83.8831 98.7398H75.6431V97.3198H81.9231C81.8831 96.4798 81.6031 95.8265 81.0831 95.3598C80.5631 94.8798 79.9165 94.6398 79.1431 94.6398C78.5965 94.6398 78.0965 94.7665 77.6431 95.0198C77.1898 95.2598 76.8231 95.6198 76.5431 96.0998C76.2765 96.5665 76.1431 97.1598 76.1431 97.8798V98.4398C76.1431 99.1865 76.2765 99.8198 76.5431 100.34C76.8231 100.846 77.1898 101.233 77.6431 101.5C78.0965 101.753 78.5898 101.88 79.1231 101.88C79.7631 101.88 80.2898 101.74 80.7031 101.46C81.1165 101.18 81.4231 100.8 81.6231 100.32H83.6231C83.4498 100.933 83.1565 101.486 82.7431 101.98C82.3298 102.46 81.8165 102.84 81.2031 103.12C80.6031 103.4 79.9098 103.54 79.1231 103.54ZM86.1452 103.3V93.2198H87.9452L88.1252 95.1198C88.3518 94.6665 88.6452 94.2865 89.0052 93.9798C89.3652 93.6598 89.7852 93.4131 90.2652 93.2398C90.7585 93.0665 91.3185 92.9798 91.9452 92.9798V95.0998H91.2252C90.8118 95.0998 90.4185 95.1531 90.0452 95.2598C89.6718 95.3531 89.3385 95.5198 89.0452 95.7598C88.7652 95.9998 88.5452 96.3265 88.3852 96.7398C88.2252 97.1531 88.1452 97.6665 88.1452 98.2798V103.3H86.1452ZM98.8991 103.3V88.8998H100.899V103.3H98.8991ZM107.345 103.54C106.558 103.54 105.872 103.38 105.285 103.06C104.712 102.74 104.265 102.26 103.945 101.62C103.638 100.98 103.485 100.173 103.485 99.1998V93.2198H105.485V98.9798C105.485 99.9265 105.692 100.64 106.105 101.12C106.518 101.6 107.112 101.84 107.885 101.84C108.405 101.84 108.872 101.713 109.285 101.46C109.712 101.206 110.045 100.84 110.285 100.36C110.525 99.8798 110.645 99.2931 110.645 98.5998V93.2198H112.645V103.3H110.865L110.725 101.58C110.418 102.193 109.972 102.673 109.385 103.02C108.798 103.366 108.118 103.54 107.345 103.54ZM115.383 103.3V93.2198H117.183L117.303 94.9398C117.623 94.3398 118.077 93.8665 118.663 93.5198C119.25 93.1598 119.923 92.9798 120.683 92.9798C121.483 92.9798 122.17 93.1398 122.743 93.4598C123.317 93.7798 123.763 94.2665 124.083 94.9198C124.403 95.5598 124.563 96.3665 124.563 97.3398V103.3H122.563V97.5398C122.563 96.6065 122.357 95.8998 121.943 95.4198C121.53 94.9398 120.93 94.6998 120.143 94.6998C119.623 94.6998 119.157 94.8265 118.743 95.0798C118.33 95.3198 117.997 95.6798 117.743 96.1598C117.503 96.6398 117.383 97.2265 117.383 97.9198V103.3H115.383ZM131.782 103.54C130.808 103.54 129.942 103.32 129.182 102.88C128.422 102.426 127.822 101.806 127.382 101.02C126.955 100.233 126.742 99.3198 126.742 98.2798C126.742 97.2265 126.955 96.3065 127.382 95.5198C127.822 94.7198 128.422 94.0998 129.182 93.6598C129.942 93.2065 130.808 92.9798 131.782 92.9798C133.008 92.9798 134.035 93.2998 134.862 93.9398C135.688 94.5798 136.215 95.4465 136.442 96.5398H134.362C134.228 95.9531 133.922 95.4998 133.442 95.1798C132.975 94.8598 132.415 94.6998 131.762 94.6998C131.228 94.6998 130.735 94.8398 130.282 95.1198C129.828 95.3865 129.462 95.7865 129.182 96.3198C128.915 96.8398 128.782 97.4865 128.782 98.2598C128.782 98.8331 128.862 99.3465 129.022 99.7998C129.182 100.24 129.395 100.613 129.662 100.92C129.942 101.226 130.262 101.46 130.622 101.62C130.982 101.766 131.362 101.84 131.762 101.84C132.202 101.84 132.595 101.773 132.942 101.64C133.302 101.493 133.602 101.28 133.842 101C134.095 100.72 134.268 100.386 134.362 99.9998H136.442C136.215 101.066 135.688 101.926 134.862 102.58C134.035 103.22 133.008 103.54 131.782 103.54ZM138.782 103.3V88.8998H140.782V94.8598C141.115 94.2731 141.575 93.8131 142.162 93.4798C142.762 93.1465 143.422 92.9798 144.142 92.9798C144.942 92.9798 145.629 93.1465 146.202 93.4798C146.775 93.7998 147.215 94.2865 147.522 94.9398C147.829 95.5798 147.982 96.3865 147.982 97.3598V103.3H146.002V97.5598C146.002 96.6265 145.802 95.9198 145.402 95.4398C145.002 94.9465 144.409 94.6998 143.622 94.6998C143.089 94.6998 142.609 94.8265 142.182 95.0798C141.755 95.3331 141.415 95.7065 141.162 96.1998C140.909 96.6798 140.782 97.2665 140.782 97.9598V103.3H138.782ZM151.34 103.4C150.953 103.4 150.633 103.28 150.38 103.04C150.14 102.786 150.02 102.486 150.02 102.14C150.02 101.78 150.14 101.48 150.38 101.24C150.633 100.986 150.953 100.86 151.34 100.86C151.726 100.86 152.04 100.986 152.28 101.24C152.52 101.48 152.64 101.78 152.64 102.14C152.64 102.486 152.52 102.786 152.28 103.04C152.04 103.28 151.726 103.4 151.34 103.4ZM162.914 103.3L159.114 89.2998H161.254L164.094 100.96L167.354 89.2998H169.574L172.734 101L175.614 89.2998H177.754L173.894 103.3H171.554L168.414 92.1598L165.194 103.3H162.914ZM183.166 103.54C182.206 103.54 181.353 103.32 180.606 102.88C179.859 102.44 179.273 101.826 178.846 101.04C178.433 100.253 178.226 99.3398 178.226 98.2998C178.226 97.2331 178.433 96.3065 178.846 95.5198C179.273 94.7198 179.859 94.0998 180.606 93.6598C181.353 93.2065 182.219 92.9798 183.206 92.9798C184.193 92.9798 185.039 93.1998 185.746 93.6398C186.453 94.0798 186.999 94.6665 187.386 95.3998C187.773 96.1198 187.966 96.9198 187.966 97.7998C187.966 97.9331 187.959 98.0798 187.946 98.2398C187.946 98.3865 187.939 98.5531 187.926 98.7398H179.686V97.3198H185.966C185.926 96.4798 185.646 95.8265 185.126 95.3598C184.606 94.8798 183.959 94.6398 183.186 94.6398C182.639 94.6398 182.139 94.7665 181.686 95.0198C181.233 95.2598 180.866 95.6198 180.586 96.0998C180.319 96.5665 180.186 97.1598 180.186 97.8798V98.4398C180.186 99.1865 180.319 99.8198 180.586 100.34C180.866 100.846 181.233 101.233 181.686 101.5C182.139 101.753 182.633 101.88 183.166 101.88C183.806 101.88 184.333 101.74 184.746 101.46C185.159 101.18 185.466 100.8 185.666 100.32H187.666C187.493 100.933 187.199 101.486 186.786 101.98C186.373 102.46 185.859 102.84 185.246 103.12C184.646 103.4 183.953 103.54 183.166 103.54ZM199.205 103.54C198.352 103.54 197.605 103.4 196.965 103.12C196.325 102.84 195.819 102.446 195.445 101.94C195.072 101.433 194.845 100.84 194.765 100.16H196.805C196.872 100.48 196.999 100.773 197.185 101.04C197.385 101.306 197.652 101.52 197.985 101.68C198.332 101.84 198.739 101.92 199.205 101.92C199.645 101.92 200.005 101.86 200.285 101.74C200.579 101.606 200.792 101.433 200.925 101.22C201.059 100.993 201.125 100.753 201.125 100.5C201.125 100.126 201.032 99.8465 200.845 99.6598C200.672 99.4598 200.405 99.3065 200.045 99.1998C199.699 99.0798 199.279 98.9731 198.785 98.8798C198.319 98.7998 197.865 98.6931 197.425 98.5598C196.999 98.4131 196.612 98.2331 196.265 98.0198C195.932 97.8065 195.665 97.5398 195.465 97.2198C195.265 96.8865 195.165 96.4798 195.165 95.9998C195.165 95.4265 195.319 94.9131 195.625 94.4598C195.932 93.9931 196.365 93.6331 196.925 93.3798C197.499 93.1131 198.172 92.9798 198.945 92.9798C200.065 92.9798 200.965 93.2465 201.645 93.7798C202.325 94.3131 202.725 95.0665 202.845 96.0398H200.905C200.852 95.5865 200.652 95.2398 200.305 94.9998C199.959 94.7465 199.499 94.6198 198.925 94.6198C198.352 94.6198 197.912 94.7331 197.605 94.9598C197.299 95.1865 197.145 95.4865 197.145 95.8598C197.145 96.0998 197.232 96.3131 197.405 96.4998C197.579 96.6865 197.832 96.8465 198.165 96.9798C198.512 97.0998 198.932 97.2131 199.425 97.3198C200.132 97.4531 200.765 97.6198 201.325 97.8198C201.885 98.0198 202.332 98.3131 202.665 98.6998C202.999 99.0865 203.165 99.6398 203.165 100.36C203.179 100.986 203.019 101.54 202.685 102.02C202.365 102.5 201.905 102.873 201.305 103.14C200.719 103.406 200.019 103.54 199.205 103.54ZM205.52 103.3V88.8998H207.52V94.8598C207.853 94.2731 208.313 93.8131 208.9 93.4798C209.5 93.1465 210.16 92.9798 210.88 92.9798C211.68 92.9798 212.367 93.1465 212.94 93.4798C213.513 93.7998 213.953 94.2865 214.26 94.9398C214.567 95.5798 214.72 96.3865 214.72 97.3598V103.3H212.74V97.5598C212.74 96.6265 212.54 95.9198 212.14 95.4398C211.74 94.9465 211.147 94.6998 210.36 94.6998C209.827 94.6998 209.347 94.8265 208.92 95.0798C208.493 95.3331 208.153 95.7065 207.9 96.1998C207.647 96.6798 207.52 97.2665 207.52 97.9598V103.3H205.52ZM221.878 103.54C220.931 103.54 220.078 103.32 219.318 102.88C218.571 102.44 217.978 101.826 217.538 101.04C217.111 100.24 216.898 99.3198 216.898 98.2798C216.898 97.2131 217.118 96.2865 217.558 95.4998C217.998 94.6998 218.598 94.0798 219.358 93.6398C220.118 93.1998 220.971 92.9798 221.918 92.9798C222.878 92.9798 223.731 93.1998 224.478 93.6398C225.225 94.0798 225.811 94.6931 226.238 95.4798C226.678 96.2665 226.898 97.1931 226.898 98.2598C226.898 99.3265 226.678 100.253 226.238 101.04C225.811 101.826 225.218 102.44 224.458 102.88C223.698 103.32 222.838 103.54 221.878 103.54ZM221.878 101.82C222.425 101.82 222.918 101.686 223.358 101.42C223.811 101.153 224.171 100.76 224.438 100.24C224.718 99.7065 224.858 99.0465 224.858 98.2598C224.858 97.4731 224.725 96.8198 224.458 96.2998C224.191 95.7665 223.831 95.3665 223.378 95.0998C222.938 94.8331 222.451 94.6998 221.918 94.6998C221.385 94.6998 220.891 94.8331 220.438 95.0998C219.985 95.3665 219.618 95.7665 219.338 96.2998C219.071 96.8198 218.938 97.4731 218.938 98.2598C218.938 99.0465 219.071 99.7065 219.338 100.24C219.618 100.76 219.978 101.153 220.418 101.42C220.871 101.686 221.358 101.82 221.878 101.82ZM232.951 103.54C232.164 103.54 231.477 103.38 230.891 103.06C230.317 102.74 229.871 102.26 229.551 101.62C229.244 100.98 229.091 100.173 229.091 99.1998V93.2198H231.091V98.9798C231.091 99.9265 231.297 100.64 231.711 101.12C232.124 101.6 232.717 101.84 233.491 101.84C234.011 101.84 234.477 101.713 234.891 101.46C235.317 101.206 235.651 100.84 235.891 100.36C236.131 99.8798 236.251 99.2931 236.251 98.5998V93.2198H238.251V103.3H236.471L236.331 101.58C236.024 102.193 235.577 102.673 234.991 103.02C234.404 103.366 233.724 103.54 232.951 103.54ZM240.989 103.3V88.8998H242.989V103.3H240.989ZM250.215 103.54C249.255 103.54 248.408 103.313 247.675 102.86C246.942 102.393 246.368 101.766 245.955 100.98C245.555 100.18 245.355 99.2731 245.355 98.2598C245.355 97.2331 245.555 96.3265 245.955 95.5398C246.368 94.7531 246.942 94.1331 247.675 93.6798C248.422 93.2131 249.275 92.9798 250.235 92.9798C251.022 92.9798 251.715 93.1398 252.315 93.4598C252.915 93.7665 253.382 94.2065 253.715 94.7798V88.8998H255.715V103.3H253.915L253.715 101.74C253.515 102.046 253.255 102.34 252.935 102.62C252.615 102.886 252.228 103.106 251.775 103.28C251.322 103.453 250.802 103.54 250.215 103.54ZM250.535 101.8C251.162 101.8 251.715 101.653 252.195 101.36C252.675 101.066 253.042 100.653 253.295 100.12C253.562 99.5865 253.695 98.9665 253.695 98.2598C253.695 97.5531 253.562 96.9398 253.295 96.4198C253.042 95.8865 252.675 95.4731 252.195 95.1798C251.715 94.8731 251.162 94.7198 250.535 94.7198C249.935 94.7198 249.395 94.8731 248.915 95.1798C248.435 95.4731 248.062 95.8865 247.795 96.4198C247.528 96.9398 247.395 97.5531 247.395 98.2598C247.395 98.9665 247.528 99.5865 247.795 100.12C248.062 100.653 248.435 101.066 248.915 101.36C249.395 101.653 249.935 101.8 250.535 101.8ZM268.047 103.54C267.087 103.54 266.24 103.313 265.507 102.86C264.774 102.393 264.2 101.766 263.787 100.98C263.387 100.18 263.187 99.2731 263.187 98.2598C263.187 97.2331 263.387 96.3265 263.787 95.5398C264.2 94.7531 264.774 94.1331 265.507 93.6798C266.254 93.2131 267.107 92.9798 268.067 92.9798C268.854 92.9798 269.547 93.1398 270.147 93.4598C270.747 93.7665 271.214 94.2065 271.547 94.7798V88.8998H273.547V103.3H271.747L271.547 101.74C271.347 102.046 271.087 102.34 270.767 102.62C270.447 102.886 270.06 103.106 269.607 103.28C269.154 103.453 268.634 103.54 268.047 103.54ZM268.367 101.8C268.994 101.8 269.547 101.653 270.027 101.36C270.507 101.066 270.874 100.653 271.127 100.12C271.394 99.5865 271.527 98.9665 271.527 98.2598C271.527 97.5531 271.394 96.9398 271.127 96.4198C270.874 95.8865 270.507 95.4731 270.027 95.1798C269.547 94.8731 268.994 94.7198 268.367 94.7198C267.767 94.7198 267.227 94.8731 266.747 95.1798C266.267 95.4731 265.894 95.8865 265.627 96.4198C265.36 96.9398 265.227 97.5531 265.227 98.2598C265.227 98.9665 265.36 99.5865 265.627 100.12C265.894 100.653 266.267 101.066 266.747 101.36C267.227 101.653 267.767 101.8 268.367 101.8ZM280.882 103.54C279.935 103.54 279.082 103.32 278.322 102.88C277.575 102.44 276.982 101.826 276.542 101.04C276.115 100.24 275.902 99.3198 275.902 98.2798C275.902 97.2131 276.122 96.2865 276.562 95.4998C277.002 94.6998 277.602 94.0798 278.362 93.6398C279.122 93.1998 279.975 92.9798 280.922 92.9798C281.882 92.9798 282.735 93.1998 283.482 93.6398C284.229 94.0798 284.815 94.6931 285.242 95.4798C285.682 96.2665 285.902 97.1931 285.902 98.2598C285.902 99.3265 285.682 100.253 285.242 101.04C284.815 101.826 284.222 102.44 283.462 102.88C282.702 103.32 281.842 103.54 280.882 103.54ZM280.882 101.82C281.429 101.82 281.922 101.686 282.362 101.42C282.815 101.153 283.175 100.76 283.442 100.24C283.722 99.7065 283.862 99.0465 283.862 98.2598C283.862 97.4731 283.729 96.8198 283.462 96.2998C283.195 95.7665 282.835 95.3665 282.382 95.0998C281.942 94.8331 281.455 94.6998 280.922 94.6998C280.389 94.6998 279.895 94.8331 279.442 95.0998C278.989 95.3665 278.622 95.7665 278.342 96.2998C278.075 96.8198 277.942 97.4731 277.942 98.2598C277.942 99.0465 278.075 99.7065 278.342 100.24C278.622 100.76 278.982 101.153 279.422 101.42C279.875 101.686 280.362 101.82 280.882 101.82ZM296.712 103.54C295.885 103.54 295.198 103.4 294.652 103.12C294.105 102.84 293.698 102.466 293.432 102C293.165 101.52 293.032 101.006 293.032 100.46C293.032 99.7931 293.205 99.2265 293.552 98.7598C293.898 98.2798 294.392 97.9131 295.032 97.6598C295.672 97.4065 296.438 97.2798 297.332 97.2798H299.952C299.952 96.6931 299.865 96.2065 299.692 95.8198C299.518 95.4331 299.258 95.1465 298.912 94.9598C298.578 94.7598 298.152 94.6598 297.632 94.6598C297.032 94.6598 296.518 94.8065 296.092 95.0998C295.665 95.3798 295.398 95.7998 295.292 96.3598H293.292C293.372 95.6531 293.612 95.0531 294.012 94.5598C294.425 94.0531 294.952 93.6665 295.592 93.3998C296.232 93.1198 296.912 92.9798 297.632 92.9798C298.578 92.9798 299.372 93.1465 300.012 93.4798C300.652 93.8131 301.132 94.2865 301.452 94.8998C301.785 95.4998 301.952 96.2198 301.952 97.0598V103.3H300.212L300.052 101.6C299.905 101.866 299.732 102.12 299.532 102.36C299.332 102.6 299.092 102.806 298.812 102.98C298.545 103.153 298.232 103.286 297.872 103.38C297.525 103.486 297.138 103.54 296.712 103.54ZM297.092 101.92C297.518 101.92 297.905 101.833 298.252 101.66C298.598 101.486 298.892 101.253 299.132 100.96C299.385 100.653 299.572 100.313 299.692 99.9398C299.825 99.5531 299.898 99.1598 299.912 98.7598V98.6998H297.532C296.958 98.6998 296.492 98.7731 296.132 98.9198C295.785 99.0531 295.532 99.2398 295.372 99.4798C295.212 99.7198 295.132 99.9998 295.132 100.32C295.132 100.653 295.205 100.94 295.352 101.18C295.512 101.406 295.738 101.586 296.032 101.72C296.325 101.853 296.678 101.92 297.092 101.92ZM311.322 103.3V91.5598L308.882 92.1798V90.6798L312.062 89.2998H313.362V103.3H311.322ZM321.104 103.54C320.118 103.54 319.271 103.366 318.564 103.02C317.858 102.66 317.298 102.18 316.884 101.58C316.471 100.966 316.218 100.28 316.124 99.5198H318.084C318.218 100.2 318.551 100.76 319.084 101.2C319.618 101.626 320.291 101.84 321.104 101.84C321.718 101.84 322.244 101.693 322.684 101.4C323.124 101.106 323.464 100.713 323.704 100.22C323.944 99.7265 324.064 99.1798 324.064 98.5798C324.064 97.9398 323.938 97.3865 323.684 96.9198C323.444 96.4398 323.104 96.0665 322.664 95.7998C322.238 95.5331 321.738 95.3998 321.164 95.3998C320.471 95.3998 319.871 95.5598 319.364 95.8798C318.871 96.1865 318.511 96.5798 318.284 97.0598H316.344L317.504 89.2998H325.044V91.0398H319.044L318.304 94.9598C318.624 94.5998 319.051 94.3065 319.584 94.0798C320.131 93.8531 320.751 93.7398 321.444 93.7398C322.151 93.7398 322.784 93.8665 323.344 94.1198C323.904 94.3598 324.378 94.6998 324.764 95.1398C325.164 95.5798 325.464 96.0931 325.664 96.6798C325.878 97.2665 325.984 97.8865 325.984 98.5398C325.984 99.2465 325.871 99.8998 325.644 100.5C325.418 101.1 325.091 101.633 324.664 102.1C324.251 102.553 323.738 102.906 323.124 103.16C322.524 103.413 321.851 103.54 321.104 103.54ZM328.589 98.2398V96.5598H336.669V98.2398H328.589ZM1.36 135.3V125.22H3.16L3.3 126.64C3.62 126.12 4.04667 125.713 4.58 125.42C5.11333 125.126 5.71333 124.98 6.38 124.98C6.88667 124.98 7.34667 125.053 7.76 125.2C8.17333 125.333 8.54 125.54 8.86 125.82C9.18 126.1 9.44 126.446 9.64 126.86C10 126.273 10.48 125.813 11.08 125.48C11.6933 125.146 12.34 124.98 13.02 124.98C13.8333 124.98 14.5333 125.146 15.12 125.48C15.7067 125.8 16.1533 126.286 16.46 126.94C16.7667 127.58 16.92 128.38 16.92 129.34V135.3H14.94V129.54C14.94 128.606 14.7467 127.9 14.36 127.42C13.9867 126.94 13.4333 126.7 12.7 126.7C12.2067 126.7 11.7667 126.826 11.38 127.08C10.9933 127.333 10.6867 127.7 10.46 128.18C10.2467 128.66 10.14 129.246 10.14 129.94V135.3H8.14V129.54C8.14 128.606 7.94667 127.9 7.56 127.42C7.18667 126.94 6.63333 126.7 5.9 126.7C5.43333 126.7 5.00667 126.826 4.62 127.08C4.23333 127.333 3.92667 127.7 3.7 128.18C3.47333 128.66 3.36 129.246 3.36 129.94V135.3H1.36ZM19.6445 135.3V125.22H21.6445V135.3H19.6445ZM20.6645 123.32C20.2779 123.32 19.9579 123.2 19.7045 122.96C19.4645 122.72 19.3445 122.413 19.3445 122.04C19.3445 121.68 19.4645 121.386 19.7045 121.16C19.9579 120.92 20.2779 120.8 20.6645 120.8C21.0379 120.8 21.3512 120.92 21.6045 121.16C21.8579 121.386 21.9845 121.68 21.9845 122.04C21.9845 122.413 21.8579 122.72 21.6045 122.96C21.3512 123.2 21.0379 123.32 20.6645 123.32ZM24.5045 135.3V125.22H26.3045L26.4245 126.94C26.7445 126.34 27.1979 125.866 27.7845 125.52C28.3712 125.16 29.0445 124.98 29.8045 124.98C30.6045 124.98 31.2912 125.14 31.8645 125.46C32.4379 125.78 32.8845 126.266 33.2045 126.92C33.5245 127.56 33.6845 128.366 33.6845 129.34V135.3H31.6845V129.54C31.6845 128.606 31.4779 127.9 31.0645 127.42C30.6512 126.94 30.0512 126.7 29.2645 126.7C28.7445 126.7 28.2779 126.826 27.8645 127.08C27.4512 127.32 27.1179 127.68 26.8645 128.16C26.6245 128.64 26.5045 129.226 26.5045 129.92V135.3H24.5045ZM39.9428 135.54C39.1561 135.54 38.4695 135.38 37.8828 135.06C37.3095 134.74 36.8628 134.26 36.5428 133.62C36.2361 132.98 36.0828 132.173 36.0828 131.2V125.22H38.0828V130.98C38.0828 131.926 38.2895 132.64 38.7028 133.12C39.1161 133.6 39.7095 133.84 40.4828 133.84C41.0028 133.84 41.4695 133.713 41.8828 133.46C42.3095 133.206 42.6428 132.84 42.8828 132.36C43.1228 131.88 43.2428 131.293 43.2428 130.6V125.22H45.2428V135.3H43.4628L43.3228 133.58C43.0161 134.193 42.5695 134.673 41.9828 135.02C41.3961 135.366 40.7161 135.54 39.9428 135.54ZM52.1411 135.3C51.5011 135.3 50.9478 135.2 50.4811 135C50.0144 134.8 49.6544 134.466 49.4011 134C49.1478 133.533 49.0211 132.9 49.0211 132.1V126.92H47.2811V125.22H49.0211L49.2611 122.7H51.0211V125.22H53.8811V126.92H51.0211V132.12C51.0211 132.693 51.1411 133.086 51.3811 133.3C51.6211 133.5 52.0344 133.6 52.6211 133.6H53.7811V135.3H52.1411ZM60.3731 135.54C59.4131 135.54 58.5598 135.32 57.8131 134.88C57.0665 134.44 56.4798 133.826 56.0531 133.04C55.6398 132.253 55.4331 131.34 55.4331 130.3C55.4331 129.233 55.6398 128.306 56.0531 127.52C56.4798 126.72 57.0665 126.1 57.8131 125.66C58.5598 125.206 59.4265 124.98 60.4131 124.98C61.3998 124.98 62.2465 125.2 62.9531 125.64C63.6598 126.08 64.2065 126.666 64.5931 127.4C64.9798 128.12 65.1731 128.92 65.1731 129.8C65.1731 129.933 65.1665 130.08 65.1531 130.24C65.1531 130.386 65.1465 130.553 65.1331 130.74H56.8931V129.32H63.1731C63.1331 128.48 62.8531 127.826 62.3331 127.36C61.8131 126.88 61.1665 126.64 60.3931 126.64C59.8465 126.64 59.3465 126.766 58.8931 127.02C58.4398 127.26 58.0731 127.62 57.7931 128.1C57.5265 128.566 57.3931 129.16 57.3931 129.88V130.44C57.3931 131.186 57.5265 131.82 57.7931 132.34C58.0731 132.846 58.4398 133.233 58.8931 133.5C59.3465 133.753 59.8398 133.88 60.3731 133.88C61.0131 133.88 61.5398 133.74 61.9531 133.46C62.3665 133.18 62.6731 132.8 62.8731 132.32H64.8731C64.6998 132.933 64.4065 133.486 63.9931 133.98C63.5798 134.46 63.0665 134.84 62.4531 135.12C61.8531 135.4 61.1598 135.54 60.3731 135.54ZM74.5523 135.3L71.5923 125.22H73.5723L75.7723 133.62L75.3923 133.6L77.8323 125.22H80.0723L82.5123 133.6L82.1323 133.62L84.3123 125.22H86.3323L83.3723 135.3H81.3123L78.7523 126.56H79.1523L76.5923 135.3H74.5523ZM91.0672 135.54C90.2405 135.54 89.5539 135.4 89.0072 135.12C88.4605 134.84 88.0539 134.466 87.7872 134C87.5205 133.52 87.3872 133.006 87.3872 132.46C87.3872 131.793 87.5605 131.226 87.9072 130.76C88.2539 130.28 88.7472 129.913 89.3872 129.66C90.0272 129.406 90.7939 129.28 91.6872 129.28H94.3072C94.3072 128.693 94.2205 128.206 94.0472 127.82C93.8739 127.433 93.6139 127.146 93.2672 126.96C92.9339 126.76 92.5072 126.66 91.9872 126.66C91.3872 126.66 90.8739 126.806 90.4472 127.1C90.0205 127.38 89.7539 127.8 89.6472 128.36H87.6472C87.7272 127.653 87.9672 127.053 88.3672 126.56C88.7805 126.053 89.3072 125.666 89.9472 125.4C90.5872 125.12 91.2672 124.98 91.9872 124.98C92.9339 124.98 93.7272 125.146 94.3672 125.48C95.0072 125.813 95.4872 126.286 95.8072 126.9C96.1405 127.5 96.3072 128.22 96.3072 129.06V135.3H94.5672L94.4072 133.6C94.2605 133.866 94.0872 134.12 93.8872 134.36C93.6872 134.6 93.4472 134.806 93.1672 134.98C92.9005 135.153 92.5872 135.286 92.2272 135.38C91.8805 135.486 91.4939 135.54 91.0672 135.54ZM91.4472 133.92C91.8739 133.92 92.2605 133.833 92.6072 133.66C92.9539 133.486 93.2472 133.253 93.4872 132.96C93.7405 132.653 93.9272 132.313 94.0472 131.94C94.1805 131.553 94.2539 131.16 94.2672 130.76V130.7H91.8872C91.3139 130.7 90.8472 130.773 90.4872 130.92C90.1405 131.053 89.8872 131.24 89.7272 131.48C89.5672 131.72 89.4872 132 89.4872 132.32C89.4872 132.653 89.5605 132.94 89.7072 133.18C89.8672 133.406 90.0939 133.586 90.3872 133.72C90.6805 133.853 91.0339 133.92 91.4472 133.92ZM98.86 135.3V120.9H100.86V135.3H98.86ZM109.946 135.3L105.306 129.78L109.506 125.22H111.926L106.926 130.56V129.06L112.466 135.3H109.946ZM103.606 135.3V120.9H105.606V135.3H103.606ZM123.43 135.3C122.79 135.3 122.237 135.2 121.77 135C121.303 134.8 120.943 134.466 120.69 134C120.437 133.533 120.31 132.9 120.31 132.1V126.92H118.57V125.22H120.31L120.55 122.7H122.31V125.22H125.17V126.92H122.31V132.12C122.31 132.693 122.43 133.086 122.67 133.3C122.91 133.5 123.323 133.6 123.91 133.6H125.07V135.3H123.43ZM131.702 135.54C130.756 135.54 129.902 135.32 129.142 134.88C128.396 134.44 127.802 133.826 127.362 133.04C126.936 132.24 126.722 131.32 126.722 130.28C126.722 129.213 126.942 128.286 127.382 127.5C127.822 126.7 128.422 126.08 129.182 125.64C129.942 125.2 130.796 124.98 131.742 124.98C132.702 124.98 133.556 125.2 134.302 125.64C135.049 126.08 135.636 126.693 136.062 127.48C136.502 128.266 136.722 129.193 136.722 130.26C136.722 131.326 136.502 132.253 136.062 133.04C135.636 133.826 135.042 134.44 134.282 134.88C133.522 135.32 132.662 135.54 131.702 135.54ZM131.702 133.82C132.249 133.82 132.742 133.686 133.182 133.42C133.636 133.153 133.996 132.76 134.262 132.24C134.542 131.706 134.682 131.046 134.682 130.26C134.682 129.473 134.549 128.82 134.282 128.3C134.016 127.766 133.656 127.366 133.202 127.1C132.762 126.833 132.276 126.7 131.742 126.7C131.209 126.7 130.716 126.833 130.262 127.1C129.809 127.366 129.442 127.766 129.162 128.3C128.896 128.82 128.762 129.473 128.762 130.26C128.762 131.046 128.896 131.706 129.162 132.24C129.442 132.76 129.802 133.153 130.242 133.42C130.696 133.686 131.182 133.82 131.702 133.82ZM150.532 135.3L145.892 129.78L150.092 125.22H152.512L147.512 130.56V129.06L153.052 135.3H150.532ZM144.192 135.3V120.9H146.192V135.3H144.192ZM158.537 135.54C157.577 135.54 156.724 135.32 155.977 134.88C155.231 134.44 154.644 133.826 154.217 133.04C153.804 132.253 153.597 131.34 153.597 130.3C153.597 129.233 153.804 128.306 154.217 127.52C154.644 126.72 155.231 126.1 155.977 125.66C156.724 125.206 157.591 124.98 158.577 124.98C159.564 124.98 160.411 125.2 161.117 125.64C161.824 126.08 162.371 126.666 162.757 127.4C163.144 128.12 163.337 128.92 163.337 129.8C163.337 129.933 163.331 130.08 163.317 130.24C163.317 130.386 163.311 130.553 163.297 130.74H155.057V129.32H161.337C161.297 128.48 161.017 127.826 160.497 127.36C159.977 126.88 159.331 126.64 158.557 126.64C158.011 126.64 157.511 126.766 157.057 127.02C156.604 127.26 156.237 127.62 155.957 128.1C155.691 128.566 155.557 129.16 155.557 129.88V130.44C155.557 131.186 155.691 131.82 155.957 132.34C156.237 132.846 156.604 133.233 157.057 133.5C157.511 133.753 158.004 133.88 158.537 133.88C159.177 133.88 159.704 133.74 160.117 133.46C160.531 133.18 160.837 132.8 161.037 132.32H163.037C162.864 132.933 162.571 133.486 162.157 133.98C161.744 134.46 161.231 134.84 160.617 135.12C160.017 135.4 159.324 135.54 158.537 135.54ZM170.119 135.54C169.159 135.54 168.306 135.32 167.559 134.88C166.813 134.44 166.226 133.826 165.799 133.04C165.386 132.253 165.179 131.34 165.179 130.3C165.179 129.233 165.386 128.306 165.799 127.52C166.226 126.72 166.813 126.1 167.559 125.66C168.306 125.206 169.173 124.98 170.159 124.98C171.146 124.98 171.993 125.2 172.699 125.64C173.406 126.08 173.953 126.666 174.339 127.4C174.726 128.12 174.919 128.92 174.919 129.8C174.919 129.933 174.913 130.08 174.899 130.24C174.899 130.386 174.893 130.553 174.879 130.74H166.639V129.32H172.919C172.879 128.48 172.599 127.826 172.079 127.36C171.559 126.88 170.913 126.64 170.139 126.64C169.593 126.64 169.093 126.766 168.639 127.02C168.186 127.26 167.819 127.62 167.539 128.1C167.273 128.566 167.139 129.16 167.139 129.88V130.44C167.139 131.186 167.273 131.82 167.539 132.34C167.819 132.846 168.186 133.233 168.639 133.5C169.093 133.753 169.586 133.88 170.119 133.88C170.759 133.88 171.286 133.74 171.699 133.46C172.113 133.18 172.419 132.8 172.619 132.32H174.619C174.446 132.933 174.153 133.486 173.739 133.98C173.326 134.46 172.813 134.84 172.199 135.12C171.599 135.4 170.906 135.54 170.119 135.54ZM177.141 139.7V125.22H178.941L179.141 126.78C179.355 126.473 179.621 126.186 179.941 125.92C180.261 125.64 180.641 125.413 181.081 125.24C181.535 125.066 182.061 124.98 182.661 124.98C183.621 124.98 184.461 125.213 185.181 125.68C185.915 126.146 186.481 126.78 186.881 127.58C187.295 128.366 187.501 129.266 187.501 130.28C187.501 131.293 187.295 132.2 186.881 133C186.468 133.786 185.895 134.406 185.161 134.86C184.441 135.313 183.601 135.54 182.641 135.54C181.855 135.54 181.161 135.386 180.561 135.08C179.961 134.76 179.488 134.32 179.141 133.76V139.7H177.141ZM182.321 133.8C182.935 133.8 183.475 133.653 183.941 133.36C184.421 133.066 184.795 132.653 185.061 132.12C185.341 131.586 185.481 130.966 185.481 130.26C185.481 129.553 185.341 128.94 185.061 128.42C184.795 127.886 184.421 127.473 183.941 127.18C183.475 126.873 182.935 126.72 182.321 126.72C181.695 126.72 181.141 126.873 180.661 127.18C180.195 127.473 179.828 127.886 179.561 128.42C179.295 128.94 179.161 129.553 179.161 130.26C179.161 130.966 179.295 131.586 179.561 132.12C179.828 132.653 180.195 133.066 180.661 133.36C181.141 133.653 181.695 133.8 182.321 133.8ZM196.114 139.7L198.574 134.18H197.994L194.014 125.22H196.174L199.334 132.54L202.514 125.22H204.614L198.214 139.7H196.114ZM210.062 135.54C209.115 135.54 208.262 135.32 207.502 134.88C206.755 134.44 206.162 133.826 205.722 133.04C205.295 132.24 205.082 131.32 205.082 130.28C205.082 129.213 205.302 128.286 205.742 127.5C206.182 126.7 206.782 126.08 207.542 125.64C208.302 125.2 209.155 124.98 210.102 124.98C211.062 124.98 211.915 125.2 212.662 125.64C213.408 126.08 213.995 126.693 214.422 127.48C214.862 128.266 215.082 129.193 215.082 130.26C215.082 131.326 214.862 132.253 214.422 133.04C213.995 133.826 213.402 134.44 212.642 134.88C211.882 135.32 211.022 135.54 210.062 135.54ZM210.062 133.82C210.608 133.82 211.102 133.686 211.542 133.42C211.995 133.153 212.355 132.76 212.622 132.24C212.902 131.706 213.042 131.046 213.042 130.26C213.042 129.473 212.908 128.82 212.642 128.3C212.375 127.766 212.015 127.366 211.562 127.1C211.122 126.833 210.635 126.7 210.102 126.7C209.568 126.7 209.075 126.833 208.622 127.1C208.168 127.366 207.802 127.766 207.522 128.3C207.255 128.82 207.122 129.473 207.122 130.26C207.122 131.046 207.255 131.706 207.522 132.24C207.802 132.76 208.162 133.153 208.602 133.42C209.055 133.686 209.542 133.82 210.062 133.82ZM221.134 135.54C220.348 135.54 219.661 135.38 219.074 135.06C218.501 134.74 218.054 134.26 217.734 133.62C217.428 132.98 217.274 132.173 217.274 131.2V125.22H219.274V130.98C219.274 131.926 219.481 132.64 219.894 133.12C220.308 133.6 220.901 133.84 221.674 133.84C222.194 133.84 222.661 133.713 223.074 133.46C223.501 133.206 223.834 132.84 224.074 132.36C224.314 131.88 224.434 131.293 224.434 130.6V125.22H226.434V135.3H224.654L224.514 133.58C224.208 134.193 223.761 134.673 223.174 135.02C222.588 135.366 221.908 135.54 221.134 135.54ZM238.89 135.54C237.943 135.54 237.09 135.32 236.33 134.88C235.583 134.44 234.99 133.826 234.55 133.04C234.123 132.24 233.91 131.32 233.91 130.28C233.91 129.213 234.13 128.286 234.57 127.5C235.01 126.7 235.61 126.08 236.37 125.64C237.13 125.2 237.983 124.98 238.93 124.98C239.89 124.98 240.743 125.2 241.49 125.64C242.236 126.08 242.823 126.693 243.25 127.48C243.69 128.266 243.91 129.193 243.91 130.26C243.91 131.326 243.69 132.253 243.25 133.04C242.823 133.826 242.23 134.44 241.47 134.88C240.71 135.32 239.85 135.54 238.89 135.54ZM238.89 133.82C239.436 133.82 239.93 133.686 240.37 133.42C240.823 133.153 241.183 132.76 241.45 132.24C241.73 131.706 241.87 131.046 241.87 130.26C241.87 129.473 241.736 128.82 241.47 128.3C241.203 127.766 240.843 127.366 240.39 127.1C239.95 126.833 239.463 126.7 238.93 126.7C238.396 126.7 237.903 126.833 237.45 127.1C236.996 127.366 236.63 127.766 236.35 128.3C236.083 128.82 235.95 129.473 235.95 130.26C235.95 131.046 236.083 131.706 236.35 132.24C236.63 132.76 236.99 133.153 237.43 133.42C237.883 133.686 238.37 133.82 238.89 133.82ZM246.262 135.3V125.22H248.062L248.182 126.94C248.502 126.34 248.956 125.866 249.542 125.52C250.129 125.16 250.802 124.98 251.562 124.98C252.362 124.98 253.049 125.14 253.622 125.46C254.196 125.78 254.642 126.266 254.962 126.92C255.282 127.56 255.442 128.366 255.442 129.34V135.3H253.442V129.54C253.442 128.606 253.236 127.9 252.822 127.42C252.409 126.94 251.809 126.7 251.022 126.7C250.502 126.7 250.036 126.826 249.622 127.08C249.209 127.32 248.876 127.68 248.622 128.16C248.382 128.64 248.262 129.226 248.262 129.92V135.3H246.262ZM267.278 135.3C266.638 135.3 266.084 135.2 265.618 135C265.151 134.8 264.791 134.466 264.538 134C264.284 133.533 264.158 132.9 264.158 132.1V126.92H262.418V125.22H264.158L264.398 122.7H266.158V125.22H269.018V126.92H266.158V132.12C266.158 132.693 266.278 133.086 266.518 133.3C266.758 133.5 267.171 133.6 267.758 133.6H268.918V135.3H267.278ZM271.223 135.3V125.22H273.023L273.203 127.12C273.43 126.666 273.723 126.286 274.083 125.98C274.443 125.66 274.863 125.413 275.343 125.24C275.837 125.066 276.397 124.98 277.023 124.98V127.1H276.303C275.89 127.1 275.497 127.153 275.123 127.26C274.75 127.353 274.417 127.52 274.123 127.76C273.843 128 273.623 128.326 273.463 128.74C273.303 129.153 273.223 129.666 273.223 130.28V135.3H271.223ZM282.2 135.54C281.373 135.54 280.687 135.4 280.14 135.12C279.593 134.84 279.187 134.466 278.92 134C278.653 133.52 278.52 133.006 278.52 132.46C278.52 131.793 278.693 131.226 279.04 130.76C279.387 130.28 279.88 129.913 280.52 129.66C281.16 129.406 281.927 129.28 282.82 129.28H285.44C285.44 128.693 285.353 128.206 285.18 127.82C285.007 127.433 284.747 127.146 284.4 126.96C284.067 126.76 283.64 126.66 283.12 126.66C282.52 126.66 282.007 126.806 281.58 127.1C281.153 127.38 280.887 127.8 280.78 128.36H278.78C278.86 127.653 279.1 127.053 279.5 126.56C279.913 126.053 280.44 125.666 281.08 125.4C281.72 125.12 282.4 124.98 283.12 124.98C284.067 124.98 284.86 125.146 285.5 125.48C286.14 125.813 286.62 126.286 286.94 126.9C287.273 127.5 287.44 128.22 287.44 129.06V135.3H285.7L285.54 133.6C285.393 133.866 285.22 134.12 285.02 134.36C284.82 134.6 284.58 134.806 284.3 134.98C284.033 135.153 283.72 135.286 283.36 135.38C283.013 135.486 282.627 135.54 282.2 135.54ZM282.58 133.92C283.007 133.92 283.393 133.833 283.74 133.66C284.087 133.486 284.38 133.253 284.62 132.96C284.873 132.653 285.06 132.313 285.18 131.94C285.313 131.553 285.387 131.16 285.4 130.76V130.7H283.02C282.447 130.7 281.98 130.773 281.62 130.92C281.273 131.053 281.02 131.24 280.86 131.48C280.7 131.72 280.62 132 280.62 132.32C280.62 132.653 280.693 132.94 280.84 133.18C281 133.406 281.227 133.586 281.52 133.72C281.813 133.853 282.167 133.92 282.58 133.92ZM294.653 135.54C293.679 135.54 292.813 135.32 292.053 134.88C291.293 134.426 290.693 133.806 290.253 133.02C289.826 132.233 289.613 131.32 289.613 130.28C289.613 129.226 289.826 128.306 290.253 127.52C290.693 126.72 291.293 126.1 292.053 125.66C292.813 125.206 293.679 124.98 294.653 124.98C295.879 124.98 296.906 125.3 297.733 125.94C298.559 126.58 299.086 127.446 299.313 128.54H297.233C297.099 127.953 296.793 127.5 296.313 127.18C295.846 126.86 295.286 126.7 294.633 126.7C294.099 126.7 293.606 126.84 293.153 127.12C292.699 127.386 292.333 127.786 292.053 128.32C291.786 128.84 291.653 129.486 291.653 130.26C291.653 130.833 291.733 131.346 291.893 131.8C292.053 132.24 292.266 132.613 292.533 132.92C292.813 133.226 293.133 133.46 293.493 133.62C293.853 133.766 294.233 133.84 294.633 133.84C295.073 133.84 295.466 133.773 295.813 133.64C296.173 133.493 296.473 133.28 296.713 133C296.966 132.72 297.139 132.386 297.233 132H299.313C299.086 133.066 298.559 133.926 297.733 134.58C296.906 135.22 295.879 135.54 294.653 135.54ZM307.993 135.3L303.353 129.78L307.553 125.22H309.973L304.973 130.56V129.06L310.513 135.3H307.993ZM301.653 135.3V120.9H303.653V135.3H301.653ZM313 135.4C312.613 135.4 312.293 135.28 312.04 135.04C311.8 134.786 311.68 134.486 311.68 134.14C311.68 133.78 311.8 133.48 312.04 133.24C312.293 132.986 312.613 132.86 313 132.86C313.387 132.86 313.7 132.986 313.94 133.24C314.18 133.48 314.3 133.78 314.3 134.14C314.3 134.486 314.18 134.786 313.94 135.04C313.7 135.28 313.387 135.4 313 135.4Z" fill="white"/>
<path d="M245.43 70.2998C244.724 70.2998 244.104 70.1931 243.57 69.9798C243.05 69.7531 242.644 69.3865 242.35 68.8798C242.057 68.3598 241.91 67.6531 241.91 66.7598V62.4798H240.19V60.2198H241.91L242.21 57.4798H244.61V60.2198H247.27V62.4798H244.61V66.7998C244.61 67.2531 244.71 67.5665 244.91 67.7398C245.11 67.9131 245.45 67.9998 245.93 67.9998H247.25V70.2998H245.43ZM249.543 70.2998V60.2198H251.943L252.203 62.0798C252.443 61.6398 252.743 61.2665 253.103 60.9598C253.476 60.6531 253.896 60.4131 254.363 60.2398C254.843 60.0665 255.369 59.9798 255.943 59.9798V62.8398H255.023C254.623 62.8398 254.249 62.8865 253.903 62.9798C253.569 63.0731 253.276 63.2265 253.023 63.4398C252.769 63.6398 252.576 63.9198 252.443 64.2798C252.309 64.6398 252.243 65.0931 252.243 65.6398V70.2998H249.543ZM262.41 70.5398C261.397 70.5398 260.497 70.3265 259.71 69.8998C258.937 69.4598 258.33 68.8531 257.89 68.0798C257.463 67.2931 257.25 66.3865 257.25 65.3598C257.25 64.3065 257.463 63.3798 257.89 62.5798C258.33 61.7665 258.937 61.1331 259.71 60.6798C260.483 60.2131 261.383 59.9798 262.41 59.9798C263.41 59.9798 264.283 60.1998 265.03 60.6398C265.777 61.0798 266.357 61.6731 266.77 62.4198C267.183 63.1665 267.39 64.0131 267.39 64.9598C267.39 65.0931 267.39 65.2465 267.39 65.4198C267.39 65.5798 267.377 65.7465 267.35 65.9198H259.17V64.2798H264.67C264.63 63.6265 264.397 63.1131 263.97 62.7398C263.557 62.3665 263.037 62.1798 262.41 62.1798C261.957 62.1798 261.537 62.2865 261.15 62.4998C260.763 62.6998 260.457 63.0131 260.23 63.4398C260.017 63.8665 259.91 64.4065 259.91 65.0598V65.6398C259.91 66.1865 260.01 66.6665 260.21 67.0798C260.423 67.4798 260.717 67.7931 261.09 68.0198C261.463 68.2331 261.897 68.3398 262.39 68.3398C262.883 68.3398 263.29 68.2331 263.61 68.0198C263.943 67.8065 264.19 67.5331 264.35 67.1998H267.11C266.923 67.8265 266.61 68.3931 266.17 68.8998C265.73 69.4065 265.19 69.8065 264.55 70.0998C263.91 70.3931 263.197 70.5398 262.41 70.5398ZM269.601 70.2998V60.2198H271.981L272.181 61.8598C272.488 61.2998 272.921 60.8465 273.481 60.4998C274.055 60.1531 274.735 59.9798 275.521 59.9798C276.361 59.9798 277.068 60.1531 277.641 60.4998C278.215 60.8465 278.648 61.3531 278.941 62.0198C279.248 62.6865 279.401 63.5065 279.401 64.4798V70.2998H276.721V64.7398C276.721 63.9398 276.548 63.3265 276.201 62.8998C275.868 62.4731 275.348 62.2598 274.641 62.2598C274.188 62.2598 273.781 62.3665 273.421 62.5798C273.075 62.7931 272.801 63.0998 272.601 63.4998C272.401 63.8865 272.301 64.3598 272.301 64.9198V70.2998H269.601ZM286.425 70.5398C285.505 70.5398 284.678 70.3131 283.945 69.8598C283.225 69.4065 282.658 68.7798 282.245 67.9798C281.832 67.1798 281.625 66.2798 281.625 65.2798C281.625 64.2531 281.832 63.3465 282.245 62.5598C282.672 61.7598 283.252 61.1331 283.985 60.6798C284.732 60.2131 285.565 59.9798 286.485 59.9798C287.205 59.9798 287.838 60.1131 288.385 60.3798C288.932 60.6465 289.372 61.0265 289.705 61.5198V55.8998H292.405V70.2998H290.005L289.705 68.9198C289.505 69.1998 289.252 69.4665 288.945 69.7198C288.652 69.9731 288.298 70.1731 287.885 70.3198C287.472 70.4665 286.985 70.5398 286.425 70.5398ZM287.065 68.1798C287.598 68.1798 288.065 68.0598 288.465 67.8198C288.878 67.5665 289.198 67.2198 289.425 66.7798C289.652 66.3398 289.765 65.8331 289.765 65.2598C289.765 64.6865 289.652 64.1798 289.425 63.7398C289.198 63.2998 288.878 62.9598 288.465 62.7198C288.065 62.4665 287.598 62.3398 287.065 62.3398C286.558 62.3398 286.098 62.4665 285.685 62.7198C285.272 62.9598 284.945 63.2998 284.705 63.7398C284.478 64.1798 284.365 64.6798 284.365 65.2398C284.365 65.8265 284.478 66.3398 284.705 66.7798C284.945 67.2198 285.265 67.5665 285.665 67.8198C286.078 68.0598 286.545 68.1798 287.065 68.1798ZM295.11 70.2998V60.2198H297.81V70.2998H295.11ZM296.47 58.8398C295.99 58.8398 295.59 58.6998 295.27 58.4198C294.964 58.1265 294.81 57.7598 294.81 57.3198C294.81 56.8798 294.964 56.5198 295.27 56.2398C295.59 55.9465 295.99 55.7998 296.47 55.7998C296.964 55.7998 297.364 55.9465 297.67 56.2398C297.99 56.5198 298.15 56.8798 298.15 57.3198C298.15 57.7598 297.99 58.1265 297.67 58.4198C297.364 58.6998 296.964 58.8398 296.47 58.8398ZM300.539 70.2998V60.2198H302.919L303.119 61.8598C303.425 61.2998 303.859 60.8465 304.419 60.4998C304.992 60.1531 305.672 59.9798 306.459 59.9798C307.299 59.9798 308.005 60.1531 308.579 60.4998C309.152 60.8465 309.585 61.3531 309.879 62.0198C310.185 62.6865 310.339 63.5065 310.339 64.4798V70.2998H307.659V64.7398C307.659 63.9398 307.485 63.3265 307.139 62.8998C306.805 62.4731 306.285 62.2598 305.579 62.2598C305.125 62.2598 304.719 62.3665 304.359 62.5798C304.012 62.7931 303.739 63.0998 303.539 63.4998C303.339 63.8865 303.239 64.3598 303.239 64.9198V70.2998H300.539ZM317.223 74.9398C316.263 74.9398 315.423 74.8198 314.703 74.5798C313.983 74.3531 313.423 73.9998 313.023 73.5198C312.636 73.0531 312.443 72.4731 312.443 71.7798C312.443 71.3131 312.563 70.8731 312.803 70.4598C313.043 70.0465 313.389 69.6731 313.843 69.3398C314.309 68.9931 314.889 68.6998 315.583 68.4598L316.603 69.7798C315.989 69.9798 315.543 70.2265 315.263 70.5198C314.996 70.8265 314.863 71.1531 314.863 71.4998C314.863 71.8065 314.963 72.0665 315.163 72.2798C315.376 72.4931 315.656 72.6465 316.003 72.7398C316.363 72.8465 316.763 72.8998 317.203 72.8998C317.629 72.8998 317.996 72.8465 318.303 72.7398C318.623 72.6331 318.869 72.4731 319.043 72.2598C319.229 72.0598 319.323 71.8198 319.323 71.5398C319.323 71.1798 319.196 70.8865 318.943 70.6598C318.689 70.4331 318.183 70.2931 317.423 70.2398C316.743 70.1865 316.136 70.1131 315.603 70.0198C315.083 69.9131 314.623 69.7931 314.223 69.6598C313.823 69.5131 313.483 69.3531 313.203 69.1798C312.936 69.0065 312.716 68.8331 312.543 68.6598V68.1998L314.683 65.8998L316.623 66.5198L314.103 68.9998L314.863 67.6798C315.009 67.7598 315.149 67.8398 315.283 67.9198C315.429 67.9865 315.609 68.0531 315.823 68.1198C316.036 68.1731 316.316 68.2265 316.663 68.2798C317.009 68.3331 317.449 68.3798 317.983 68.4198C318.863 68.4998 319.583 68.6665 320.143 68.9198C320.716 69.1731 321.136 69.5131 321.403 69.9398C321.669 70.3531 321.803 70.8665 321.803 71.4798C321.803 72.0798 321.636 72.6398 321.303 73.1598C320.983 73.6931 320.483 74.1198 319.803 74.4398C319.123 74.7731 318.263 74.9398 317.223 74.9398ZM317.223 67.3198C316.383 67.3198 315.656 67.1598 315.043 66.8398C314.443 66.5065 313.976 66.0665 313.643 65.5198C313.323 64.9598 313.163 64.3398 313.163 63.6598C313.163 62.9798 313.323 62.3665 313.643 61.8198C313.976 61.2598 314.443 60.8131 315.043 60.4798C315.656 60.1465 316.383 59.9798 317.223 59.9798C318.076 59.9798 318.803 60.1465 319.403 60.4798C320.016 60.8131 320.483 61.2598 320.803 61.8198C321.123 62.3665 321.283 62.9798 321.283 63.6598C321.283 64.3398 321.123 64.9598 320.803 65.5198C320.483 66.0665 320.016 66.5065 319.403 66.8398C318.803 67.1598 318.076 67.3198 317.223 67.3198ZM317.223 65.2598C317.743 65.2598 318.163 65.1265 318.483 64.8598C318.803 64.5931 318.963 64.1998 318.963 63.6798C318.963 63.1598 318.803 62.7665 318.483 62.4998C318.163 62.2198 317.743 62.0798 317.223 62.0798C316.716 62.0798 316.296 62.2198 315.963 62.4998C315.643 62.7665 315.483 63.1598 315.483 63.6798C315.483 64.1998 315.643 64.5931 315.963 64.8598C316.296 65.1265 316.716 65.2598 317.223 65.2598ZM318.903 62.1398L318.463 60.2198H322.603V61.8198L318.903 62.1398ZM1.32 103.3V88.8998H4.02V94.7198C4.35333 94.1865 4.79333 93.7665 5.34 93.4598C5.9 93.1398 6.54667 92.9798 7.28 92.9798C8.12 92.9798 8.82667 93.1598 9.4 93.5198C9.97333 93.8665 10.4067 94.3731 10.7 95.0398C10.9933 95.7065 11.14 96.5331 11.14 97.5198V103.3H8.46V97.7598C8.46 96.9598 8.29333 96.3465 7.96 95.9198C7.62667 95.4798 7.1 95.2598 6.38 95.2598C5.94 95.2598 5.54 95.3665 5.18 95.5798C4.82 95.7931 4.53333 96.1065 4.32 96.5198C4.12 96.9198 4.02 97.3998 4.02 97.9598V103.3H1.32ZM13.7433 103.3V93.2198H16.4433V103.3H13.7433ZM15.1033 91.8398C14.6233 91.8398 14.2233 91.6998 13.9033 91.4198C13.5966 91.1265 13.4433 90.7598 13.4433 90.3198C13.4433 89.8798 13.5966 89.5198 13.9033 89.2398C14.2233 88.9465 14.6233 88.7998 15.1033 88.7998C15.5966 88.7998 15.9966 88.9465 16.3033 89.2398C16.6233 89.5198 16.7833 89.8798 16.7833 90.3198C16.7833 90.7598 16.6233 91.1265 16.3033 91.4198C15.9966 91.6998 15.5966 91.8398 15.1033 91.8398ZM23.5116 107.94C22.5516 107.94 21.7116 107.82 20.9916 107.58C20.2716 107.353 19.7116 107 19.3116 106.52C18.9249 106.053 18.7316 105.473 18.7316 104.78C18.7316 104.313 18.8516 103.873 19.0916 103.46C19.3316 103.046 19.6782 102.673 20.1316 102.34C20.5982 101.993 21.1782 101.7 21.8716 101.46L22.8916 102.78C22.2782 102.98 21.8316 103.226 21.5516 103.52C21.2849 103.826 21.1516 104.153 21.1516 104.5C21.1516 104.806 21.2516 105.066 21.4516 105.28C21.6649 105.493 21.9449 105.646 22.2916 105.74C22.6516 105.846 23.0516 105.9 23.4916 105.9C23.9182 105.9 24.2849 105.846 24.5916 105.74C24.9116 105.633 25.1582 105.473 25.3316 105.26C25.5182 105.06 25.6116 104.82 25.6116 104.54C25.6116 104.18 25.4849 103.886 25.2316 103.66C24.9782 103.433 24.4716 103.293 23.7116 103.24C23.0316 103.186 22.4249 103.113 21.8916 103.02C21.3716 102.913 20.9116 102.793 20.5116 102.66C20.1116 102.513 19.7716 102.353 19.4916 102.18C19.2249 102.006 19.0049 101.833 18.8316 101.66V101.2L20.9716 98.8998L22.9116 99.5198L20.3916 102L21.1516 100.68C21.2982 100.76 21.4382 100.84 21.5716 100.92C21.7182 100.986 21.8982 101.053 22.1116 101.12C22.3249 101.173 22.6049 101.226 22.9516 101.28C23.2982 101.333 23.7382 101.38 24.2716 101.42C25.1516 101.5 25.8716 101.666 26.4316 101.92C27.0049 102.173 27.4249 102.513 27.6916 102.94C27.9582 103.353 28.0916 103.866 28.0916 104.48C28.0916 105.08 27.9249 105.64 27.5916 106.16C27.2716 106.693 26.7716 107.12 26.0916 107.44C25.4116 107.773 24.5516 107.94 23.5116 107.94ZM23.5116 100.32C22.6716 100.32 21.9449 100.16 21.3316 99.8398C20.7316 99.5065 20.2649 99.0665 19.9316 98.5198C19.6116 97.9598 19.4516 97.3398 19.4516 96.6598C19.4516 95.9798 19.6116 95.3665 19.9316 94.8198C20.2649 94.2598 20.7316 93.8131 21.3316 93.4798C21.9449 93.1465 22.6716 92.9798 23.5116 92.9798C24.3649 92.9798 25.0916 93.1465 25.6916 93.4798C26.3049 93.8131 26.7716 94.2598 27.0916 94.8198C27.4116 95.3665 27.5716 95.9798 27.5716 96.6598C27.5716 97.3398 27.4116 97.9598 27.0916 98.5198C26.7716 99.0665 26.3049 99.5065 25.6916 99.8398C25.0916 100.16 24.3649 100.32 23.5116 100.32ZM23.5116 98.2598C24.0316 98.2598 24.4516 98.1265 24.7716 97.8598C25.0916 97.5931 25.2516 97.1998 25.2516 96.6798C25.2516 96.1598 25.0916 95.7665 24.7716 95.4998C24.4516 95.2198 24.0316 95.0798 23.5116 95.0798C23.0049 95.0798 22.5849 95.2198 22.2516 95.4998C21.9316 95.7665 21.7716 96.1598 21.7716 96.6798C21.7716 97.1998 21.9316 97.5931 22.2516 97.8598C22.5849 98.1265 23.0049 98.2598 23.5116 98.2598ZM25.1916 95.1398L24.7516 93.2198H28.8916V94.8198L25.1916 95.1398ZM31.0856 103.3V88.8998H33.7856V94.7198C34.119 94.1865 34.559 93.7665 35.1056 93.4598C35.6656 93.1398 36.3123 92.9798 37.0456 92.9798C37.8856 92.9798 38.5923 93.1598 39.1656 93.5198C39.739 93.8665 40.1723 94.3731 40.4656 95.0398C40.759 95.7065 40.9056 96.5331 40.9056 97.5198V103.3H38.2256V97.7598C38.2256 96.9598 38.059 96.3465 37.7256 95.9198C37.3923 95.4798 36.8656 95.2598 36.1456 95.2598C35.7056 95.2598 35.3056 95.3665 34.9456 95.5798C34.5856 95.7931 34.299 96.1065 34.0856 96.5198C33.8856 96.9198 33.7856 97.3998 33.7856 97.9598V103.3H31.0856Z" fill="#E7F9BD"/>
<rect y="170.05" width="166" height="48" rx="16" fill="white"/>
<path d="M25 204.8L27.8 190.7L26 191.4V194.8H24V190.1L29.05 187.95C29.2833 187.85 29.5292 187.792 29.7875 187.775C30.0458 187.759 30.2917 187.792 30.525 187.875C30.7583 187.959 30.9792 188.075 31.1875 188.225C31.3958 188.375 31.5667 188.567 31.7 188.8L32.7 190.4C33.1333 191.1 33.7208 191.675 34.4625 192.125C35.2042 192.575 36.05 192.8 37 192.8V194.8C35.8333 194.8 34.7917 194.559 33.875 194.075C32.9583 193.592 32.175 192.975 31.525 192.225L30.9 195.3L33 197.3V204.8H31V198.3L28.9 196.7L27.1 204.8H25ZM31.5 187.3C30.95 187.3 30.4792 187.104 30.0875 186.713C29.6958 186.321 29.5 185.85 29.5 185.3C29.5 184.75 29.6958 184.279 30.0875 183.888C30.4792 183.496 30.95 183.3 31.5 183.3C32.05 183.3 32.5208 183.496 32.9125 183.888C33.3042 184.279 33.5 184.75 33.5 185.3C33.5 185.85 33.3042 186.321 32.9125 186.713C32.5208 187.104 32.05 187.3 31.5 187.3Z" fill="#416CA9"/>
<path d="M47.8159 199.05V190.33L45.8319 190.858V189.13L48.7439 187.85H50.0559V199.05H47.8159ZM56.2681 199.242C55.4574 199.242 54.7534 199.098 54.1561 198.81C53.5694 198.522 53.1107 198.128 52.7801 197.626C52.4494 197.125 52.2574 196.554 52.2041 195.914H54.3161C54.3907 196.33 54.6041 196.682 54.9561 196.97C55.3081 197.258 55.7507 197.402 56.2841 197.402C56.6681 197.402 57.0041 197.306 57.2921 197.114C57.5801 196.922 57.8041 196.666 57.9641 196.346C58.1241 196.016 58.2041 195.642 58.2041 195.226C58.2041 194.8 58.1187 194.432 57.9481 194.122C57.7881 193.813 57.5641 193.573 57.2761 193.402C56.9987 193.232 56.6787 193.146 56.3161 193.146C55.8574 193.146 55.4627 193.258 55.1321 193.482C54.8121 193.696 54.5827 193.957 54.4441 194.266H52.3481L53.2761 187.85H59.5641V189.738H54.8761L54.4121 192.234C54.6467 191.989 54.9614 191.792 55.3561 191.642C55.7507 191.482 56.1934 191.402 56.6841 191.402C57.2921 191.402 57.8201 191.509 58.2681 191.722C58.7161 191.925 59.0894 192.208 59.3881 192.57C59.6867 192.922 59.9107 193.328 60.0601 193.786C60.2094 194.234 60.2841 194.709 60.2841 195.21C60.2841 195.797 60.1827 196.336 59.9801 196.826C59.7881 197.317 59.5107 197.744 59.1481 198.106C58.7961 198.469 58.3747 198.752 57.8841 198.954C57.4041 199.146 56.8654 199.242 56.2681 199.242ZM62.3492 195.242V193.434H69.1012V195.242H62.3492ZM71.3919 199.05V190.986H73.2959L73.4719 192.058C73.7279 191.674 74.0639 191.37 74.4799 191.146C74.9066 190.912 75.3919 190.794 75.9359 190.794C76.3413 190.794 76.7039 190.848 77.0239 190.954C77.3439 191.061 77.6266 191.216 77.8719 191.418C78.1279 191.621 78.3359 191.877 78.4959 192.186C78.7946 191.749 79.1839 191.408 79.6639 191.162C80.1439 190.917 80.6666 190.794 81.2319 190.794C81.9359 190.794 82.5226 190.938 82.9919 191.226C83.4613 191.504 83.8133 191.909 84.0479 192.442C84.2933 192.976 84.4159 193.632 84.4159 194.41V199.05H82.2719V194.602C82.2719 193.962 82.1439 193.472 81.8879 193.13C81.6426 192.789 81.2586 192.618 80.7359 192.618C80.3946 192.618 80.0906 192.704 79.8239 192.874C79.5573 193.045 79.3493 193.29 79.1999 193.61C79.0613 193.93 78.9919 194.314 78.9919 194.762V199.05H76.8319V194.602C76.8319 193.962 76.7039 193.472 76.4479 193.13C76.1919 192.789 75.7973 192.618 75.2639 192.618C74.9333 192.618 74.6346 192.704 74.3679 192.874C74.1119 193.045 73.9093 193.29 73.7599 193.61C73.6213 193.93 73.5519 194.314 73.5519 194.762V199.05H71.3919ZM86.5024 199.05V190.986H88.6624V199.05H86.5024ZM87.5904 189.882C87.2064 189.882 86.8864 189.77 86.6304 189.546C86.3851 189.312 86.2624 189.018 86.2624 188.666C86.2624 188.314 86.3851 188.026 86.6304 187.802C86.8864 187.568 87.2064 187.45 87.5904 187.45C87.9851 187.45 88.3051 187.568 88.5504 187.802C88.8064 188.026 88.9344 188.314 88.9344 188.666C88.9344 189.018 88.8064 189.312 88.5504 189.546C88.3051 189.77 87.9851 189.882 87.5904 189.882ZM90.8451 199.05V190.986H92.7491L92.9091 192.298C93.1544 191.85 93.5011 191.488 93.9491 191.21C94.4077 190.933 94.9517 190.794 95.5811 190.794C96.2531 190.794 96.8184 190.933 97.2771 191.21C97.7357 191.488 98.0824 191.893 98.3171 192.426C98.5624 192.96 98.6851 193.616 98.6851 194.394V199.05H96.5411V194.602C96.5411 193.962 96.4024 193.472 96.1251 193.13C95.8584 192.789 95.4424 192.618 94.8771 192.618C94.5144 192.618 94.1891 192.704 93.9011 192.874C93.6237 193.045 93.4051 193.29 93.2451 193.61C93.0851 193.92 93.0051 194.298 93.0051 194.746V199.05H90.8451ZM106.79 199.05L103.846 187.85H106.15L108.102 196.602L110.406 187.85H112.79L115.03 196.602L116.998 187.85H119.318L116.294 199.05H113.718L111.574 190.89L109.35 199.05H106.79ZM122.549 199.242C121.877 199.242 121.323 199.136 120.885 198.922C120.448 198.698 120.123 198.405 119.909 198.042C119.707 197.669 119.605 197.258 119.605 196.81C119.605 196.32 119.728 195.888 119.973 195.514C120.229 195.141 120.608 194.848 121.109 194.634C121.621 194.421 122.261 194.314 123.029 194.314H125.029C125.029 193.92 124.976 193.594 124.869 193.338C124.763 193.072 124.597 192.874 124.373 192.746C124.149 192.618 123.851 192.554 123.477 192.554C123.072 192.554 122.725 192.645 122.437 192.826C122.16 192.997 121.989 193.264 121.925 193.626H119.829C119.883 193.05 120.069 192.554 120.389 192.138C120.72 191.712 121.152 191.381 121.685 191.146C122.229 190.912 122.832 190.794 123.493 190.794C124.251 190.794 124.907 190.922 125.461 191.178C126.016 191.434 126.443 191.802 126.741 192.282C127.04 192.762 127.189 193.354 127.189 194.058V199.05H125.365L125.125 197.818C125.008 198.032 124.869 198.224 124.709 198.394C124.549 198.565 124.363 198.714 124.149 198.842C123.936 198.97 123.696 199.066 123.429 199.13C123.163 199.205 122.869 199.242 122.549 199.242ZM123.061 197.578C123.339 197.578 123.584 197.53 123.797 197.434C124.021 197.328 124.213 197.189 124.373 197.018C124.533 196.837 124.656 196.634 124.741 196.41C124.837 196.176 124.901 195.925 124.933 195.658V195.642H123.285C122.955 195.642 122.683 195.685 122.469 195.77C122.267 195.845 122.117 195.957 122.021 196.106C121.925 196.256 121.877 196.426 121.877 196.618C121.877 196.832 121.925 197.008 122.021 197.146C122.117 197.285 122.256 197.392 122.437 197.466C122.619 197.541 122.827 197.578 123.061 197.578ZM129.204 199.05V187.53H131.364V199.05H129.204ZM138.75 199.05L135.31 194.634L138.398 190.986H140.942L136.958 195.546V193.834L141.438 199.05H138.75ZM133.47 199.05V187.53H135.63V199.05H133.47Z" fill="black"/>
</svg>
