<svg width="288" height="136" viewBox="0 0 288 136" fill="none" xmlns="http://www.w3.org/2000/svg">
<rect width="288" height="136" rx="24" fill="#434343" fill-opacity="0.2"/>
<path d="M24.8608 27.2727H26.7955L29.3864 33.5966H29.4886L32.0795 27.2727H34.0142V36H32.4972V30.0043H32.4162L30.0043 35.9744H28.8707L26.4588 29.9915H26.3778V36H24.8608V27.2727ZM42.4372 27.2727H44.0182V32.9744C44.0182 33.5994 43.8705 34.1491 43.575 34.6236C43.2824 35.098 42.8705 35.4687 42.3392 35.7358C41.808 36 41.1872 36.1321 40.477 36.1321C39.7639 36.1321 39.1418 36 38.6105 35.7358C38.0793 35.4687 37.6673 35.098 37.3747 34.6236C37.0821 34.1491 36.9358 33.5994 36.9358 32.9744V27.2727H38.5168V32.8423C38.5168 33.206 38.5963 33.5298 38.7554 33.8139C38.9173 34.098 39.1446 34.321 39.4372 34.483C39.7298 34.642 40.0764 34.7216 40.477 34.7216C40.8776 34.7216 41.2241 34.642 41.5168 34.483C41.8122 34.321 42.0395 34.098 42.1986 33.8139C42.3577 33.5298 42.4372 33.206 42.4372 32.8423V27.2727ZM51.6795 29.6719C51.6397 29.2997 51.4721 29.0099 51.1766 28.8026C50.884 28.5952 50.5033 28.4915 50.0346 28.4915C49.705 28.4915 49.4224 28.5412 49.1866 28.6406C48.9508 28.7401 48.7704 28.875 48.6454 29.0455C48.5204 29.2159 48.4565 29.4105 48.4536 29.6293C48.4536 29.8111 48.4948 29.9687 48.5772 30.1023C48.6624 30.2358 48.7775 30.3494 48.9224 30.4432C49.0673 30.5341 49.2278 30.6108 49.4039 30.6733C49.58 30.7358 49.7576 30.7884 49.9366 30.831L50.7548 31.0355C51.0843 31.1122 51.4011 31.2159 51.705 31.3466C52.0119 31.4773 52.286 31.642 52.5275 31.8409C52.7718 32.0398 52.965 32.2798 53.107 32.5611C53.2491 32.8423 53.3201 33.1719 53.3201 33.5497C53.3201 34.0611 53.1894 34.5114 52.9281 34.9006C52.6667 35.2869 52.2888 35.5895 51.7945 35.8082C51.3031 36.0241 50.7079 36.1321 50.009 36.1321C49.33 36.1321 48.7406 36.027 48.2406 35.8168C47.7434 35.6065 47.3542 35.2997 47.0729 34.8963C46.7945 34.4929 46.644 34.0014 46.6212 33.4219H48.1766C48.1994 33.7259 48.2931 33.9787 48.4579 34.1804C48.6227 34.3821 48.8371 34.5327 49.1013 34.6321C49.3684 34.7315 49.6667 34.7812 49.9962 34.7812C50.34 34.7812 50.6411 34.7301 50.8996 34.6278C51.161 34.5227 51.3656 34.3778 51.5133 34.1932C51.661 34.0057 51.7363 33.7869 51.7391 33.5369C51.7363 33.3097 51.6695 33.1222 51.5388 32.9744C51.4082 32.8239 51.2249 32.6989 50.9891 32.5994C50.7562 32.4972 50.4835 32.4062 50.171 32.3267L49.1781 32.071C48.4593 31.8864 47.8911 31.6065 47.4735 31.2315C47.0587 30.8537 46.8513 30.3523 46.8513 29.7273C46.8513 29.2131 46.9906 28.7628 47.269 28.3764C47.5502 27.9901 47.9323 27.6903 48.4153 27.4773C48.8982 27.2614 49.4451 27.1534 50.0559 27.1534C50.6752 27.1534 51.2178 27.2614 51.6837 27.4773C52.1525 27.6903 52.5204 27.9872 52.7874 28.3679C53.0545 28.7457 53.1923 29.1804 53.2008 29.6719H51.6795ZM63.3997 30.2173H61.806C61.7605 29.956 61.6767 29.7244 61.5545 29.5227C61.4324 29.3182 61.2804 29.1449 61.0986 29.0028C60.9168 28.8608 60.7094 28.7543 60.4764 28.6832C60.2463 28.6094 59.9977 28.5724 59.7307 28.5724C59.2563 28.5724 58.8358 28.6918 58.4693 28.9304C58.1028 29.1662 57.8159 29.5128 57.6085 29.9702C57.4011 30.4247 57.2974 30.9801 57.2974 31.6364C57.2974 32.304 57.4011 32.8665 57.6085 33.3239C57.8188 33.7784 58.1057 34.1222 58.4693 34.3551C58.8358 34.5852 59.2548 34.7003 59.7264 34.7003C59.9878 34.7003 60.2321 34.6662 60.4594 34.598C60.6895 34.527 60.8955 34.4233 61.0773 34.2869C61.2619 34.1506 61.4168 33.983 61.5418 33.7841C61.6696 33.5852 61.7577 33.358 61.806 33.1023L63.3997 33.1108C63.3401 33.5256 63.2108 33.9148 63.0119 34.2784C62.8159 34.642 62.5588 34.9631 62.2406 35.2415C61.9224 35.517 61.5503 35.733 61.1241 35.8892C60.698 36.0426 60.225 36.1193 59.7051 36.1193C58.9381 36.1193 58.2534 35.9418 57.6511 35.5866C57.0489 35.2315 56.5744 34.7188 56.2278 34.0483C55.8813 33.3778 55.708 32.5739 55.708 31.6364C55.708 30.696 55.8827 29.892 56.2321 29.2244C56.5815 28.554 57.0574 28.0412 57.6597 27.6861C58.2619 27.331 58.9438 27.1534 59.7051 27.1534C60.1909 27.1534 60.6426 27.2216 61.0602 27.358C61.4778 27.4943 61.85 27.6946 62.1767 27.9588C62.5034 28.2202 62.7719 28.5412 62.9821 28.9219C63.1952 29.2997 63.3344 29.7315 63.3997 30.2173ZM66.0475 36V27.2727H67.6285V34.6747H71.4722V36H66.0475ZM74.0444 36V27.2727H79.7205V28.598H75.6254V30.9673H79.4265V32.2926H75.6254V34.6747H79.7546V36H74.0444ZM86.71 27.2727H88.6447L91.2356 33.5966H91.3379L93.9288 27.2727H95.8634V36H94.3464V30.0043H94.2654L91.8535 35.9744H90.72L88.308 29.9915H88.2271V36H86.71V27.2727ZM99.9058 36H98.2183L101.291 27.2727H103.242L106.319 36H104.632L102.301 29.0625H102.232L99.9058 36ZM99.9611 32.5781H104.563V33.848H99.9611V32.5781ZM110.25 27.2727V36H108.669V27.2727H110.25ZM120.333 27.2727V36H118.927L114.815 30.0554H114.743V36H113.162V27.2727H114.576L118.684 33.2216H118.761V27.2727H120.333ZM122.873 28.598V27.2727H129.836V28.598H127.138V36H125.57V28.598H122.873ZM132.378 36V27.2727H138.054V28.598H133.959V30.9673H137.76V32.2926H133.959V34.6747H138.088V36H132.378ZM148.039 27.2727V36H146.633L142.52 30.0554H142.448V36H140.867V27.2727H142.282L146.39 33.2216H146.466V27.2727H148.039ZM152.082 36H150.395L153.467 27.2727H155.419L158.496 36H156.808L154.477 29.0625H154.409L152.082 36ZM152.138 32.5781H156.74V33.848H152.138V32.5781ZM168.017 27.2727V36H166.611L162.499 30.0554H162.426V36H160.845V27.2727H162.26L166.368 33.2216H166.445V27.2727H168.017ZM178.41 30.2173H176.816C176.771 29.956 176.687 29.7244 176.565 29.5227C176.443 29.3182 176.291 29.1449 176.109 29.0028C175.927 28.8608 175.72 28.7543 175.487 28.6832C175.256 28.6094 175.008 28.5724 174.741 28.5724C174.266 28.5724 173.846 28.6918 173.479 28.9304C173.113 29.1662 172.826 29.5128 172.619 29.9702C172.411 30.4247 172.308 30.9801 172.308 31.6364C172.308 32.304 172.411 32.8665 172.619 33.3239C172.829 33.7784 173.116 34.1222 173.479 34.3551C173.846 34.5852 174.265 34.7003 174.737 34.7003C174.998 34.7003 175.242 34.6662 175.47 34.598C175.7 34.527 175.906 34.4233 176.087 34.2869C176.272 34.1506 176.427 33.983 176.552 33.7841C176.68 33.5852 176.768 33.358 176.816 33.1023L178.41 33.1108C178.35 33.5256 178.221 33.9148 178.022 34.2784C177.826 34.642 177.569 34.9631 177.251 35.2415C176.933 35.517 176.56 35.733 176.134 35.8892C175.708 36.0426 175.235 36.1193 174.715 36.1193C173.948 36.1193 173.264 35.9418 172.661 35.5866C172.059 35.2315 171.585 34.7188 171.238 34.0483C170.891 33.3778 170.718 32.5739 170.718 31.6364C170.718 30.696 170.893 29.892 171.242 29.2244C171.592 28.554 172.068 28.0412 172.67 27.6861C173.272 27.331 173.954 27.1534 174.715 27.1534C175.201 27.1534 175.653 27.2216 176.07 27.358C176.488 27.4943 176.86 27.6946 177.187 27.9588C177.514 28.2202 177.782 28.5412 177.992 28.9219C178.205 29.2997 178.345 29.7315 178.41 30.2173ZM181.058 36V27.2727H186.734V28.598H182.639V30.9673H186.44V32.2926H182.639V34.6747H186.768V36H181.058Z" fill="white"/>
<path d="M34.836 47.576C36.552 47.576 38.091 47.978 39.453 48.782C40.815 49.586 41.892 50.705 42.684 52.139C43.476 53.573 43.872 55.232 43.872 57.116V64.64C43.872 66.68 43.476 68.441 42.684 69.923C41.892 71.405 40.776 72.545 39.336 73.343C37.896 74.141 36.204 74.54 34.26 74.54C33 74.54 31.803 74.351 30.669 73.973C29.535 73.595 28.488 72.968 27.528 72.092L31.02 68.6C31.452 69.032 31.953 69.368 32.523 69.608C33.093 69.848 33.672 69.968 34.26 69.968C35.196 69.968 36.009 69.749 36.699 69.311C37.389 68.873 37.923 68.303 38.301 67.601C38.679 66.899 38.868 66.152 38.868 65.36V61.508L39.696 62.408C38.964 63.164 38.106 63.743 37.122 64.145C36.138 64.547 35.124 64.748 34.08 64.748C32.448 64.748 31.011 64.382 29.769 63.65C28.527 62.918 27.555 61.916 26.853 60.644C26.151 59.372 25.8 57.92 25.8 56.288C25.8 54.656 26.214 53.183 27.042 51.869C27.87 50.555 28.968 49.511 30.336 48.737C31.704 47.963 33.204 47.576 34.836 47.576ZM34.836 52.256C34.092 52.256 33.411 52.436 32.793 52.796C32.175 53.156 31.683 53.642 31.317 54.254C30.951 54.866 30.768 55.544 30.768 56.288C30.768 57.032 30.948 57.713 31.308 58.331C31.668 58.949 32.154 59.441 32.766 59.807C33.378 60.173 34.056 60.356 34.8 60.356C35.544 60.356 36.225 60.173 36.843 59.807C37.461 59.441 37.953 58.949 38.319 58.331C38.685 57.713 38.868 57.032 38.868 56.288C38.868 55.568 38.688 54.902 38.328 54.29C37.968 53.678 37.482 53.186 36.87 52.814C36.258 52.442 35.58 52.256 34.836 52.256ZM57.588 74.54C55.836 74.54 54.279 74.183 52.917 73.469C51.555 72.755 50.487 71.771 49.713 70.517C48.939 69.263 48.552 67.832 48.552 66.224C48.552 64.856 48.861 63.566 49.479 62.354C50.097 61.142 50.988 60.152 52.152 59.384L52.044 60.896C51.168 60.044 50.481 59.144 49.983 58.196C49.485 57.248 49.236 56.18 49.236 54.992C49.236 53.492 49.593 52.184 50.307 51.068C51.021 49.952 52.005 49.085 53.259 48.467C54.513 47.849 55.956 47.54 57.588 47.54C59.22 47.54 60.663 47.849 61.917 48.467C63.171 49.085 64.155 49.952 64.869 51.068C65.583 52.184 65.94 53.492 65.94 54.992C65.94 56.18 65.706 57.245 65.238 58.187C64.77 59.129 64.056 60.044 63.096 60.932V59.42C64.236 60.14 65.115 61.112 65.733 62.336C66.351 63.56 66.66 64.856 66.66 66.224C66.66 67.832 66.27 69.263 65.49 70.517C64.71 71.771 63.636 72.755 62.268 73.469C60.9 74.183 59.34 74.54 57.588 74.54ZM57.588 69.932C58.74 69.932 59.676 69.62 60.396 68.996C61.116 68.372 61.476 67.448 61.476 66.224C61.476 65.012 61.116 64.085 60.396 63.443C59.676 62.801 58.74 62.48 57.588 62.48C56.436 62.48 55.506 62.801 54.798 63.443C54.09 64.085 53.736 65.012 53.736 66.224C53.736 67.448 54.09 68.372 54.798 68.996C55.506 69.62 56.436 69.932 57.588 69.932ZM57.588 57.836C58.524 57.836 59.286 57.605 59.874 57.143C60.462 56.681 60.756 55.964 60.756 54.992C60.756 54.02 60.462 53.297 59.874 52.823C59.286 52.349 58.524 52.112 57.588 52.112C56.652 52.112 55.89 52.349 55.302 52.823C54.714 53.297 54.42 54.02 54.42 54.992C54.42 55.964 54.714 56.681 55.302 57.143C55.89 57.605 56.652 57.836 57.588 57.836ZM72.132 74V69.104H77.028V74H72.132ZM82.14 73.964V69.716L93.012 60.068C93.828 59.348 94.404 58.67 94.74 58.034C95.076 57.398 95.244 56.804 95.244 56.252C95.244 55.46 95.082 54.755 94.758 54.137C94.434 53.519 93.978 53.033 93.39 52.679C92.802 52.325 92.112 52.148 91.32 52.148C90.492 52.148 89.763 52.337 89.133 52.715C88.503 53.093 88.014 53.591 87.666 54.209C87.318 54.827 87.156 55.496 87.18 56.216H82.14C82.14 54.44 82.53 52.904 83.31 51.608C84.09 50.312 85.176 49.31 86.568 48.602C87.96 47.894 89.58 47.54 91.428 47.54C93.12 47.54 94.635 47.909 95.973 48.647C97.311 49.385 98.364 50.414 99.132 51.734C99.9 53.054 100.284 54.584 100.284 56.324C100.284 57.608 100.104 58.673 99.744 59.519C99.384 60.365 98.85 61.145 98.142 61.859C97.434 62.573 96.564 63.38 95.532 64.28L88.512 70.436L88.116 69.356H100.284V73.964H82.14ZM108.564 74L105.324 70.76L128.004 48.08L131.244 51.356L108.564 74ZM125.844 74.54C124.656 74.54 123.573 74.249 122.595 73.667C121.617 73.085 120.834 72.305 120.246 71.327C119.658 70.349 119.364 69.26 119.364 68.06C119.364 66.884 119.664 65.804 120.264 64.82C120.864 63.836 121.656 63.05 122.64 62.462C123.624 61.874 124.692 61.58 125.844 61.58C127.032 61.58 128.118 61.871 129.102 62.453C130.086 63.035 130.869 63.815 131.451 64.793C132.033 65.771 132.324 66.86 132.324 68.06C132.324 69.26 132.033 70.349 131.451 71.327C130.869 72.305 130.086 73.085 129.102 73.667C128.118 74.249 127.032 74.54 125.844 74.54ZM125.841 70.4C126.263 70.4 126.651 70.292 127.005 70.076C127.359 69.86 127.644 69.5753 127.86 69.222C128.076 68.8686 128.184 68.4816 128.184 68.061C128.184 67.6403 128.076 67.253 127.86 66.899C127.644 66.545 127.359 66.26 127.006 66.044C126.653 65.828 126.266 65.72 125.845 65.72C125.424 65.72 125.037 65.828 124.683 66.044C124.329 66.26 124.044 66.5447 123.828 66.898C123.612 67.2514 123.504 67.6384 123.504 68.059C123.504 68.4797 123.612 68.867 123.828 69.221C124.044 69.575 124.328 69.86 124.68 70.076C125.032 70.292 125.419 70.4 125.841 70.4ZM110.724 60.5C109.536 60.5 108.45 60.209 107.466 59.627C106.482 59.045 105.699 58.265 105.117 57.287C104.535 56.309 104.244 55.22 104.244 54.02C104.244 52.844 104.544 51.764 105.144 50.78C105.744 49.796 106.536 49.01 107.52 48.422C108.504 47.834 109.572 47.54 110.724 47.54C111.912 47.54 112.995 47.831 113.973 48.413C114.951 48.995 115.734 49.775 116.322 50.753C116.91 51.731 117.204 52.82 117.204 54.02C117.204 55.22 116.91 56.309 116.322 57.287C115.734 58.265 114.951 59.045 113.973 59.627C112.995 60.209 111.912 60.5 110.724 60.5ZM110.721 56.36C111.143 56.36 111.531 56.252 111.885 56.036C112.239 55.82 112.524 55.5353 112.74 55.182C112.956 54.8286 113.064 54.4416 113.064 54.021C113.064 53.6003 112.956 53.213 112.74 52.859C112.524 52.505 112.239 52.22 111.886 52.004C111.533 51.788 111.146 51.68 110.725 51.68C110.304 51.68 109.917 51.788 109.563 52.004C109.209 52.22 108.924 52.5047 108.708 52.858C108.492 53.2114 108.384 53.5984 108.384 54.019C108.384 54.4397 108.492 54.827 108.708 55.181C108.924 55.535 109.208 55.82 109.56 56.036C109.912 56.252 110.299 56.36 110.721 56.36Z" fill="white"/>
<g clip-path="url(#clip0_22_1047)">
<rect x="150.48" y="57" width="113.52" height="6" rx="3" fill="white"/>
<rect x="150.48" y="57" width="111.47" height="6" fill="#E88F4A"/>
</g>
<path d="M25.0568 92V83.2727H26.1136V91.0625H30.1705V92H25.0568ZM34.4148 92.1364C33.7841 92.1364 33.2401 91.9972 32.7827 91.7188C32.3281 91.4375 31.9773 91.0455 31.7301 90.5426C31.4858 90.0369 31.3636 89.4489 31.3636 88.7784C31.3636 88.108 31.4858 87.517 31.7301 87.0057C31.9773 86.4915 32.321 86.0909 32.7614 85.804C33.2045 85.5142 33.7216 85.3693 34.3125 85.3693C34.6534 85.3693 34.9901 85.4261 35.3224 85.5398C35.6548 85.6534 35.9574 85.8381 36.2301 86.0938C36.5028 86.3466 36.7202 86.6818 36.8821 87.0994C37.044 87.517 37.125 88.0312 37.125 88.642V89.0682H32.0795V88.1989H36.1023C36.1023 87.8295 36.0284 87.5 35.8807 87.2102C35.7358 86.9205 35.5284 86.6918 35.2585 86.5241C34.9915 86.3565 34.6761 86.2727 34.3125 86.2727C33.9119 86.2727 33.5653 86.3722 33.2727 86.571C32.983 86.767 32.7599 87.0227 32.6037 87.3381C32.4474 87.6534 32.3693 87.9915 32.3693 88.3523V88.9318C32.3693 89.4261 32.4545 89.8452 32.625 90.1889C32.7983 90.5298 33.0384 90.7898 33.3452 90.9688C33.652 91.1449 34.0085 91.233 34.4148 91.233C34.679 91.233 34.9176 91.196 35.1307 91.1222C35.3466 91.0455 35.5327 90.9318 35.6889 90.7812C35.8452 90.6278 35.9659 90.4375 36.0511 90.2102L37.0227 90.483C36.9205 90.8125 36.7486 91.1023 36.5071 91.3523C36.2656 91.5994 35.9673 91.7926 35.6122 91.9318C35.2571 92.0682 34.858 92.1364 34.4148 92.1364ZM40.581 92.1534C40.1662 92.1534 39.7898 92.0753 39.4517 91.919C39.1136 91.7599 38.8452 91.5312 38.6463 91.233C38.4474 90.9318 38.348 90.5682 38.348 90.142C38.348 89.767 38.4219 89.4631 38.5696 89.2301C38.7173 88.9943 38.9148 88.8097 39.1619 88.6761C39.4091 88.5426 39.6818 88.4432 39.9801 88.3778C40.2813 88.3097 40.5838 88.2557 40.8878 88.2159C41.2855 88.1648 41.608 88.1264 41.8551 88.1009C42.1051 88.0724 42.2869 88.0256 42.4006 87.9602C42.517 87.8949 42.5753 87.7812 42.5753 87.6193V87.5852C42.5753 87.1648 42.4602 86.8381 42.2301 86.6051C42.0028 86.3722 41.6577 86.2557 41.1946 86.2557C40.7145 86.2557 40.3381 86.3608 40.0653 86.571C39.7926 86.7812 39.6009 87.0057 39.4901 87.2443L38.5355 86.9034C38.706 86.5057 38.9332 86.196 39.2173 85.9744C39.5043 85.75 39.8168 85.5937 40.1548 85.5057C40.4957 85.4148 40.831 85.3693 41.1605 85.3693C41.3707 85.3693 41.6122 85.3949 41.8849 85.446C42.1605 85.4943 42.4261 85.5952 42.6818 85.7486C42.9403 85.902 43.1548 86.1335 43.3253 86.4432C43.4957 86.7528 43.581 87.1676 43.581 87.6875V92H42.5753V91.1136H42.5241C42.456 91.2557 42.3423 91.4077 42.1832 91.5696C42.0241 91.7315 41.8125 91.8693 41.5483 91.983C41.2841 92.0966 40.9616 92.1534 40.581 92.1534ZM40.7344 91.25C41.1321 91.25 41.4673 91.1719 41.7401 91.0156C42.0156 90.8594 42.223 90.6577 42.3622 90.4105C42.5043 90.1634 42.5753 89.9034 42.5753 89.6307V88.7102C42.5327 88.7614 42.4389 88.8082 42.294 88.8509C42.152 88.8906 41.9872 88.9261 41.7997 88.9574C41.6151 88.9858 41.4347 89.0114 41.2585 89.0341C41.0852 89.054 40.9446 89.071 40.8366 89.0852C40.5753 89.1193 40.331 89.1747 40.1037 89.2514C39.8793 89.3253 39.6974 89.4375 39.5582 89.5881C39.4219 89.7358 39.3537 89.9375 39.3537 90.1932C39.3537 90.5426 39.483 90.8068 39.7415 90.9858C40.0028 91.1619 40.3338 91.25 40.7344 91.25ZM46.4222 88.0625V92H45.4165V85.4545H46.3881V86.4773H46.4734C46.6268 86.1449 46.8597 85.8778 47.1722 85.6761C47.4847 85.4716 47.8881 85.3693 48.3825 85.3693C48.8256 85.3693 49.2134 85.4602 49.5458 85.642C49.8782 85.821 50.1367 86.0938 50.3214 86.4602C50.506 86.8239 50.5984 87.2841 50.5984 87.8409V92H49.5927V87.9091C49.5927 87.3949 49.4592 86.9943 49.1921 86.7074C48.9251 86.4176 48.5586 86.2727 48.0927 86.2727C47.7717 86.2727 47.4847 86.3423 47.2319 86.4815C46.9819 86.6207 46.7844 86.8239 46.6396 87.0909C46.4947 87.358 46.4222 87.6818 46.4222 88.0625ZM55.8111 92V85.4545H56.7827V86.4773H56.8679C57.0043 86.1278 57.2244 85.8565 57.5284 85.6634C57.8324 85.4673 58.1974 85.3693 58.6236 85.3693C59.0554 85.3693 59.4148 85.4673 59.7017 85.6634C59.9915 85.8565 60.2173 86.1278 60.3793 86.4773H60.4474C60.6151 86.1392 60.8665 85.8707 61.2017 85.6719C61.5369 85.4702 61.9389 85.3693 62.4077 85.3693C62.9929 85.3693 63.4716 85.5526 63.8438 85.919C64.2159 86.2827 64.402 86.8494 64.402 87.6193V92H63.3963V87.6193C63.3963 87.1364 63.2642 86.7912 63 86.5838C62.7358 86.3764 62.4247 86.2727 62.0668 86.2727C61.6065 86.2727 61.25 86.4119 60.9972 86.6903C60.7443 86.9659 60.6179 87.3153 60.6179 87.7386V92H59.5952V87.517C59.5952 87.1449 59.4744 86.8452 59.233 86.6179C58.9915 86.3878 58.6804 86.2727 58.2997 86.2727C58.0384 86.2727 57.794 86.3423 57.5668 86.4815C57.3423 86.6207 57.1605 86.8139 57.0213 87.0611C56.8849 87.3054 56.8168 87.5881 56.8168 87.9091V92H55.8111ZM68.1669 92.1534C67.7521 92.1534 67.3757 92.0753 67.0376 91.919C66.6996 91.7599 66.4311 91.5312 66.2322 91.233C66.0334 90.9318 65.9339 90.5682 65.9339 90.142C65.9339 89.767 66.0078 89.4631 66.1555 89.2301C66.3033 88.9943 66.5007 88.8097 66.7479 88.6761C66.995 88.5426 67.2678 88.4432 67.5661 88.3778C67.8672 88.3097 68.1697 88.2557 68.4737 88.2159C68.8714 88.1648 69.1939 88.1264 69.4411 88.1009C69.6911 88.0724 69.8729 88.0256 69.9865 87.9602C70.103 87.8949 70.1612 87.7812 70.1612 87.6193V87.5852C70.1612 87.1648 70.0462 86.8381 69.8161 86.6051C69.5888 86.3722 69.2436 86.2557 68.7805 86.2557C68.3004 86.2557 67.924 86.3608 67.6513 86.571C67.3786 86.7812 67.1868 87.0057 67.076 87.2443L66.1214 86.9034C66.2919 86.5057 66.5192 86.196 66.8033 85.9744C67.0902 85.75 67.4027 85.5937 67.7408 85.5057C68.0817 85.4148 68.4169 85.3693 68.7464 85.3693C68.9567 85.3693 69.1982 85.3949 69.4709 85.446C69.7464 85.4943 70.0121 85.5952 70.2678 85.7486C70.5263 85.902 70.7408 86.1335 70.9112 86.4432C71.0817 86.7528 71.1669 87.1676 71.1669 87.6875V92H70.1612V91.1136H70.1101C70.0419 91.2557 69.9283 91.4077 69.7692 91.5696C69.6101 91.7315 69.3984 91.8693 69.1342 91.983C68.87 92.0966 68.5476 92.1534 68.1669 92.1534ZM68.3203 91.25C68.718 91.25 69.0533 91.1719 69.326 91.0156C69.6016 90.8594 69.8089 90.6577 69.9482 90.4105C70.0902 90.1634 70.1612 89.9034 70.1612 89.6307V88.7102C70.1186 88.7614 70.0249 88.8082 69.88 88.8509C69.7379 88.8906 69.5732 88.9261 69.3857 88.9574C69.201 88.9858 69.0206 89.0114 68.8445 89.0341C68.6712 89.054 68.5305 89.071 68.4226 89.0852C68.1612 89.1193 67.9169 89.1747 67.6896 89.2514C67.4652 89.3253 67.2834 89.4375 67.1442 89.5881C67.0078 89.7358 66.9396 89.9375 66.9396 90.1932C66.9396 90.5426 67.0689 90.8068 67.3274 90.9858C67.5888 91.1619 67.9197 91.25 68.3203 91.25ZM77.6388 86.9205L76.7354 87.1761C76.6786 87.0256 76.5948 86.8793 76.484 86.7372C76.3761 86.5923 76.2283 86.473 76.0408 86.3793C75.8533 86.2855 75.6133 86.2386 75.3207 86.2386C74.9201 86.2386 74.5863 86.331 74.3192 86.5156C74.055 86.6974 73.9229 86.929 73.9229 87.2102C73.9229 87.4602 74.0138 87.6577 74.1957 87.8026C74.3775 87.9474 74.6616 88.0682 75.0479 88.1648L76.0195 88.4034C76.6048 88.5455 77.0408 88.7628 77.3278 89.0554C77.6147 89.3452 77.7582 89.7187 77.7582 90.1761C77.7582 90.5511 77.6502 90.8864 77.4343 91.1818C77.2212 91.4773 76.9229 91.7102 76.5394 91.8807C76.1559 92.0511 75.7099 92.1364 75.2013 92.1364C74.5337 92.1364 73.9812 91.9915 73.5437 91.7017C73.1062 91.4119 72.8292 90.9886 72.7127 90.4318L73.6673 90.1932C73.7582 90.5455 73.93 90.8097 74.1829 90.9858C74.4386 91.1619 74.7724 91.25 75.1843 91.25C75.6531 91.25 76.0252 91.1506 76.3008 90.9517C76.5792 90.75 76.7184 90.5085 76.7184 90.2273C76.7184 90 76.6388 89.8097 76.4798 89.6562C76.3207 89.5 76.0763 89.3835 75.7468 89.3068L74.6559 89.0511C74.0565 88.9091 73.6161 88.6889 73.3349 88.3906C73.0565 88.0895 72.9173 87.7131 72.9173 87.2614C72.9173 86.892 73.021 86.5653 73.2283 86.2812C73.4386 85.9972 73.7241 85.7741 74.0849 85.6122C74.4485 85.4503 74.8604 85.3693 75.3207 85.3693C75.9684 85.3693 76.4769 85.5114 76.8462 85.7955C77.2184 86.0795 77.4826 86.4545 77.6388 86.9205ZM83.9084 86.9205L83.005 87.1761C82.9482 87.0256 82.8643 86.8793 82.7536 86.7372C82.6456 86.5923 82.4979 86.473 82.3104 86.3793C82.1229 86.2855 81.8828 86.2386 81.5902 86.2386C81.1896 86.2386 80.8558 86.331 80.5888 86.5156C80.3246 86.6974 80.1925 86.929 80.1925 87.2102C80.1925 87.4602 80.2834 87.6577 80.4652 87.8026C80.647 87.9474 80.9311 88.0682 81.3175 88.1648L82.2891 88.4034C82.8743 88.5455 83.3104 88.7628 83.5973 89.0554C83.8842 89.3452 84.0277 89.7187 84.0277 90.1761C84.0277 90.5511 83.9197 90.8864 83.7038 91.1818C83.4908 91.4773 83.1925 91.7102 82.8089 91.8807C82.4254 92.0511 81.9794 92.1364 81.4709 92.1364C80.8033 92.1364 80.2507 91.9915 79.8132 91.7017C79.3757 91.4119 79.0987 90.9886 78.9822 90.4318L79.9368 90.1932C80.0277 90.5455 80.1996 90.8097 80.4524 90.9858C80.7081 91.1619 81.0419 91.25 81.4538 91.25C81.9226 91.25 82.2947 91.1506 82.5703 90.9517C82.8487 90.75 82.9879 90.5085 82.9879 90.2273C82.9879 90 82.9084 89.8097 82.7493 89.6562C82.5902 89.5 82.3459 89.3835 82.0163 89.3068L80.9254 89.0511C80.326 88.9091 79.8857 88.6889 79.6044 88.3906C79.326 88.0895 79.1868 87.7131 79.1868 87.2614C79.1868 86.892 79.2905 86.5653 79.4979 86.2812C79.7081 85.9972 79.9936 85.7741 80.3544 85.6122C80.718 85.4503 81.13 85.3693 81.5902 85.3693C82.2379 85.3693 82.7464 85.5114 83.1158 85.7955C83.4879 86.0795 83.7521 86.4545 83.9084 86.9205ZM88.9165 94.4545V85.4545H89.8881V86.4943H90.0075C90.0813 86.3807 90.1836 86.2358 90.3143 86.0597C90.4478 85.8807 90.6381 85.7216 90.8853 85.5824C91.1353 85.4403 91.4734 85.3693 91.8995 85.3693C92.4506 85.3693 92.9364 85.5071 93.3569 85.7827C93.7773 86.0582 94.1055 86.4489 94.3413 86.9545C94.5771 87.4602 94.695 88.0568 94.695 88.7443C94.695 89.4375 94.5771 90.0384 94.3413 90.5469C94.1055 91.0526 93.7788 91.4446 93.3612 91.723C92.9435 91.9986 92.462 92.1364 91.9165 92.1364C91.4961 92.1364 91.1594 92.0668 90.9066 91.9276C90.6538 91.7855 90.4592 91.625 90.3228 91.446C90.1864 91.2642 90.0813 91.1136 90.0075 90.9943H89.9222V94.4545H88.9165ZM89.9052 88.7273C89.9052 89.2216 89.9776 89.6577 90.1225 90.0355C90.2674 90.4105 90.479 90.7045 90.7575 90.9176C91.0359 91.1278 91.3768 91.233 91.7802 91.233C92.2006 91.233 92.5515 91.1222 92.8327 90.9006C93.1168 90.6761 93.3299 90.375 93.4719 89.9972C93.6168 89.6165 93.6893 89.1932 93.6893 88.7273C93.6893 88.267 93.6183 87.8523 93.4762 87.483C93.337 87.1108 93.1254 86.8168 92.8413 86.6009C92.56 86.3821 92.2063 86.2727 91.7802 86.2727C91.3711 86.2727 91.0273 86.3764 90.7489 86.5838C90.4705 86.7884 90.2603 87.0753 90.1183 87.4446C89.9762 87.8111 89.9052 88.2386 89.9052 88.7273ZM96.229 92V85.4545H97.2006V86.4432H97.2688C97.3881 86.1193 97.604 85.8565 97.9165 85.6548C98.229 85.4531 98.5813 85.3523 98.9734 85.3523C99.0472 85.3523 99.1396 85.3537 99.2504 85.3565C99.3612 85.3594 99.445 85.3636 99.5018 85.3693V86.392C99.4677 86.3835 99.3896 86.3707 99.2674 86.3537C99.1481 86.3338 99.0217 86.3239 98.8881 86.3239C98.57 86.3239 98.2859 86.3906 98.0359 86.5241C97.7887 86.6548 97.5927 86.8366 97.4478 87.0696C97.3058 87.2997 97.2347 87.5625 97.2347 87.858V92H96.229ZM103.239 92.1364C102.608 92.1364 102.064 91.9972 101.607 91.7188C101.152 91.4375 100.801 91.0455 100.554 90.5426C100.31 90.0369 100.188 89.4489 100.188 88.7784C100.188 88.108 100.31 87.517 100.554 87.0057C100.801 86.4915 101.145 86.0909 101.586 85.804C102.029 85.5142 102.546 85.3693 103.137 85.3693C103.478 85.3693 103.814 85.4261 104.147 85.5398C104.479 85.6534 104.782 85.8381 105.054 86.0938C105.327 86.3466 105.544 86.6818 105.706 87.0994C105.868 87.517 105.949 88.0312 105.949 88.642V89.0682H100.904V88.1989H104.926C104.926 87.8295 104.853 87.5 104.705 87.2102C104.56 86.9205 104.353 86.6918 104.083 86.5241C103.816 86.3565 103.5 86.2727 103.137 86.2727C102.736 86.2727 102.39 86.3722 102.097 86.571C101.807 86.767 101.584 87.0227 101.428 87.3381C101.272 87.6534 101.194 87.9915 101.194 88.3523V88.9318C101.194 89.4261 101.279 89.8452 101.449 90.1889C101.623 90.5298 101.863 90.7898 102.169 90.9688C102.476 91.1449 102.833 91.233 103.239 91.233C103.503 91.233 103.742 91.196 103.955 91.1222C104.171 91.0455 104.357 90.9318 104.513 90.7812C104.669 90.6278 104.79 90.4375 104.875 90.2102L105.847 90.483C105.745 90.8125 105.573 91.1023 105.331 91.3523C105.09 91.5994 104.792 91.7926 104.436 91.9318C104.081 92.0682 103.682 92.1364 103.239 92.1364ZM112.115 86.9205L111.212 87.1761C111.155 87.0256 111.071 86.8793 110.961 86.7372C110.853 86.5923 110.705 86.473 110.517 86.3793C110.33 86.2855 110.09 86.2386 109.797 86.2386C109.397 86.2386 109.063 86.331 108.796 86.5156C108.532 86.6974 108.4 86.929 108.4 87.2102C108.4 87.4602 108.49 87.6577 108.672 87.8026C108.854 87.9474 109.138 88.0682 109.525 88.1648L110.496 88.4034C111.081 88.5455 111.517 88.7628 111.804 89.0554C112.091 89.3452 112.235 89.7187 112.235 90.1761C112.235 90.5511 112.127 90.8864 111.911 91.1818C111.698 91.4773 111.4 91.7102 111.016 91.8807C110.632 92.0511 110.186 92.1364 109.678 92.1364C109.01 92.1364 108.458 91.9915 108.02 91.7017C107.583 91.4119 107.306 90.9886 107.189 90.4318L108.144 90.1932C108.235 90.5455 108.407 90.8097 108.659 90.9858C108.915 91.1619 109.249 91.25 109.661 91.25C110.13 91.25 110.502 91.1506 110.777 90.9517C111.056 90.75 111.195 90.5085 111.195 90.2273C111.195 90 111.115 89.8097 110.956 89.6562C110.797 89.5 110.553 89.3835 110.223 89.3068L109.132 89.0511C108.533 88.9091 108.093 88.6889 107.811 88.3906C107.533 88.0895 107.394 87.7131 107.394 87.2614C107.394 86.892 107.498 86.5653 107.705 86.2812C107.915 85.9972 108.201 85.7741 108.561 85.6122C108.925 85.4503 109.337 85.3693 109.797 85.3693C110.445 85.3693 110.953 85.5114 111.323 85.7955C111.695 86.0795 111.959 86.4545 112.115 86.9205ZM116.493 92.1364C115.862 92.1364 115.318 91.9972 114.861 91.7188C114.406 91.4375 114.055 91.0455 113.808 90.5426C113.564 90.0369 113.442 89.4489 113.442 88.7784C113.442 88.108 113.564 87.517 113.808 87.0057C114.055 86.4915 114.399 86.0909 114.839 85.804C115.283 85.5142 115.8 85.3693 116.391 85.3693C116.732 85.3693 117.068 85.4261 117.401 85.5398C117.733 85.6534 118.036 85.8381 118.308 86.0938C118.581 86.3466 118.798 86.6818 118.96 87.0994C119.122 87.517 119.203 88.0312 119.203 88.642V89.0682H114.158V88.1989H118.18C118.18 87.8295 118.107 87.5 117.959 87.2102C117.814 86.9205 117.607 86.6918 117.337 86.5241C117.07 86.3565 116.754 86.2727 116.391 86.2727C115.99 86.2727 115.643 86.3722 115.351 86.571C115.061 86.767 114.838 87.0227 114.682 87.3381C114.526 87.6534 114.447 87.9915 114.447 88.3523V88.9318C114.447 89.4261 114.533 89.8452 114.703 90.1889C114.876 90.5298 115.116 90.7898 115.423 90.9688C115.73 91.1449 116.087 91.233 116.493 91.233C116.757 91.233 116.996 91.196 117.209 91.1222C117.425 91.0455 117.611 90.9318 117.767 90.7812C117.923 90.6278 118.044 90.4375 118.129 90.2102L119.101 90.483C118.999 90.8125 118.827 91.1023 118.585 91.3523C118.344 91.5994 118.045 91.7926 117.69 91.9318C117.335 92.0682 116.936 92.1364 116.493 92.1364ZM120.733 92V85.4545H121.705V86.4432H121.773C121.892 86.1193 122.108 85.8565 122.42 85.6548C122.733 85.4531 123.085 85.3523 123.477 85.3523C123.551 85.3523 123.643 85.3537 123.754 85.3565C123.865 85.3594 123.949 85.3636 124.006 85.3693V86.392C123.972 86.3835 123.893 86.3707 123.771 86.3537C123.652 86.3338 123.526 86.3239 123.392 86.3239C123.074 86.3239 122.79 86.3906 122.54 86.5241C122.293 86.6548 122.097 86.8366 121.952 87.0696C121.81 87.2997 121.739 87.5625 121.739 87.858V92H120.733ZM130.749 85.4545L128.329 92H127.306L124.886 85.4545H125.977L127.783 90.6705H127.852L129.658 85.4545H130.749ZM134.587 92.1364C133.956 92.1364 133.412 91.9972 132.955 91.7188C132.5 91.4375 132.149 91.0455 131.902 90.5426C131.658 90.0369 131.536 89.4489 131.536 88.7784C131.536 88.108 131.658 87.517 131.902 87.0057C132.149 86.4915 132.493 86.0909 132.933 85.804C133.376 85.5142 133.893 85.3693 134.484 85.3693C134.825 85.3693 135.162 85.4261 135.494 85.5398C135.827 85.6534 136.129 85.8381 136.402 86.0938C136.675 86.3466 136.892 86.6818 137.054 87.0994C137.216 87.517 137.297 88.0312 137.297 88.642V89.0682H132.251V88.1989H136.274C136.274 87.8295 136.2 87.5 136.053 87.2102C135.908 86.9205 135.7 86.6918 135.43 86.5241C135.163 86.3565 134.848 86.2727 134.484 86.2727C134.084 86.2727 133.737 86.3722 133.445 86.571C133.155 86.767 132.932 87.0227 132.776 87.3381C132.619 87.6534 132.541 87.9915 132.541 88.3523V88.9318C132.541 89.4261 132.626 89.8452 132.797 90.1889C132.97 90.5298 133.21 90.7898 133.517 90.9688C133.824 91.1449 134.18 91.233 134.587 91.233C134.851 91.233 135.089 91.196 135.303 91.1222C135.518 91.0455 135.705 90.9318 135.861 90.7812C136.017 90.6278 136.138 90.4375 136.223 90.2102L137.195 90.483C137.092 90.8125 136.92 91.1023 136.679 91.3523C136.438 91.5994 136.139 91.7926 135.784 91.9318C135.429 92.0682 135.03 92.1364 134.587 92.1364ZM141.298 92.1364C140.753 92.1364 140.271 91.9986 139.854 91.723C139.436 91.4446 139.109 91.0526 138.874 90.5469C138.638 90.0384 138.52 89.4375 138.52 88.7443C138.52 88.0568 138.638 87.4602 138.874 86.9545C139.109 86.4489 139.438 86.0582 139.858 85.7827C140.278 85.5071 140.764 85.3693 141.315 85.3693C141.741 85.3693 142.078 85.4403 142.325 85.5824C142.575 85.7216 142.766 85.8807 142.896 86.0597C143.03 86.2358 143.134 86.3807 143.207 86.4943H143.293V83.2727H144.298V92H143.327V90.9943H143.207C143.134 91.1136 143.028 91.2642 142.892 91.446C142.756 91.625 142.561 91.7855 142.308 91.9276C142.055 92.0668 141.719 92.1364 141.298 92.1364ZM141.435 91.233C141.838 91.233 142.179 91.1278 142.457 90.9176C142.736 90.7045 142.947 90.4105 143.092 90.0355C143.237 89.6577 143.31 89.2216 143.31 88.7273C143.31 88.2386 143.239 87.8111 143.097 87.4446C142.955 87.0753 142.744 86.7884 142.466 86.5838C142.188 86.3764 141.844 86.2727 141.435 86.2727C141.009 86.2727 140.653 86.3821 140.369 86.6009C140.088 86.8168 139.876 87.1108 139.734 87.483C139.595 87.8523 139.526 88.267 139.526 88.7273C139.526 89.1932 139.597 89.6165 139.739 89.9972C139.884 90.375 140.097 90.6761 140.378 90.9006C140.662 91.1222 141.014 91.233 141.435 91.233ZM155.007 85.4545L152.587 92H151.564L149.143 85.4545H150.234L152.041 90.6705H152.109L153.916 85.4545H155.007ZM156.335 92V85.4545H157.34V92H156.335ZM156.846 84.3636C156.65 84.3636 156.481 84.2969 156.339 84.1634C156.2 84.0298 156.13 83.8693 156.13 83.6818C156.13 83.4943 156.2 83.3338 156.339 83.2003C156.481 83.0668 156.65 83 156.846 83C157.042 83 157.21 83.0668 157.349 83.2003C157.491 83.3338 157.562 83.4943 157.562 83.6818C157.562 83.8693 157.491 84.0298 157.349 84.1634C157.21 84.2969 157.042 84.3636 156.846 84.3636ZM161.108 92.1534C160.694 92.1534 160.317 92.0753 159.979 91.919C159.641 91.7599 159.373 91.5312 159.174 91.233C158.975 90.9318 158.875 90.5682 158.875 90.142C158.875 89.767 158.949 89.4631 159.097 89.2301C159.245 88.9943 159.442 88.8097 159.689 88.6761C159.936 88.5426 160.209 88.4432 160.507 88.3778C160.809 88.3097 161.111 88.2557 161.415 88.2159C161.813 88.1648 162.135 88.1264 162.382 88.1009C162.632 88.0724 162.814 88.0256 162.928 87.9602C163.044 87.8949 163.103 87.7812 163.103 87.6193V87.5852C163.103 87.1648 162.988 86.8381 162.757 86.6051C162.53 86.3722 162.185 86.2557 161.722 86.2557C161.242 86.2557 160.865 86.3608 160.593 86.571C160.32 86.7812 160.128 87.0057 160.017 87.2443L159.063 86.9034C159.233 86.5057 159.461 86.196 159.745 85.9744C160.032 85.75 160.344 85.5937 160.682 85.5057C161.023 85.4148 161.358 85.3693 161.688 85.3693C161.898 85.3693 162.14 85.3949 162.412 85.446C162.688 85.4943 162.953 85.5952 163.209 85.7486C163.468 85.902 163.682 86.1335 163.853 86.4432C164.023 86.7528 164.108 87.1676 164.108 87.6875V92H163.103V91.1136H163.051C162.983 91.2557 162.87 91.4077 162.711 91.5696C162.551 91.7315 162.34 91.8693 162.076 91.983C161.811 92.0966 161.489 92.1534 161.108 92.1534ZM161.262 91.25C161.659 91.25 161.995 91.1719 162.267 91.0156C162.543 90.8594 162.75 90.6577 162.89 90.4105C163.032 90.1634 163.103 89.9034 163.103 89.6307V88.7102C163.06 88.7614 162.966 88.8082 162.821 88.8509C162.679 88.8906 162.515 88.9261 162.327 88.9574C162.142 88.9858 161.962 89.0114 161.786 89.0341C161.613 89.054 161.472 89.071 161.364 89.0852C161.103 89.1193 160.858 89.1747 160.631 89.2514C160.407 89.3253 160.225 89.4375 160.086 89.5881C159.949 89.7358 159.881 89.9375 159.881 90.1932C159.881 90.5426 160.01 90.8068 160.269 90.9858C160.53 91.1619 160.861 91.25 161.262 91.25ZM169.813 92H168.705L171.91 83.2727H173.001L176.205 92H175.097L172.489 84.6534H172.421L169.813 92ZM170.222 88.5909H174.688V89.5284H170.222V88.5909ZM178.621 83.2727V92H177.565V83.2727H178.621ZM184.354 87.7898V88.7273H180.536V87.7898H184.354ZM188.783 92.1364C188.192 92.1364 187.673 91.9957 187.227 91.7145C186.784 91.4332 186.438 91.0398 186.188 90.5341C185.94 90.0284 185.817 89.4375 185.817 88.7614C185.817 88.0795 185.94 87.4844 186.188 86.9759C186.438 86.4673 186.784 86.0724 187.227 85.7912C187.673 85.5099 188.192 85.3693 188.783 85.3693C189.374 85.3693 189.891 85.5099 190.334 85.7912C190.78 86.0724 191.126 86.4673 191.374 86.9759C191.624 87.4844 191.749 88.0795 191.749 88.7614C191.749 89.4375 191.624 90.0284 191.374 90.5341C191.126 91.0398 190.78 91.4332 190.334 91.7145C189.891 91.9957 189.374 92.1364 188.783 92.1364ZM188.783 91.233C189.232 91.233 189.601 91.1179 189.891 90.8878C190.18 90.6577 190.395 90.3551 190.534 89.9801C190.673 89.6051 190.743 89.1989 190.743 88.7614C190.743 88.3239 190.673 87.9162 190.534 87.5384C190.395 87.1605 190.18 86.8551 189.891 86.6222C189.601 86.3892 189.232 86.2727 188.783 86.2727C188.334 86.2727 187.964 86.3892 187.675 86.6222C187.385 86.8551 187.17 87.1605 187.031 87.5384C186.892 87.9162 186.822 88.3239 186.822 88.7614C186.822 89.1989 186.892 89.6051 187.031 89.9801C187.17 90.3551 187.385 90.6577 187.675 90.8878C187.964 91.1179 188.334 91.233 188.783 91.233ZM193.284 94.4545V85.4545H194.255V86.4943H194.375C194.449 86.3807 194.551 86.2358 194.681 86.0597C194.815 85.8807 195.005 85.7216 195.252 85.5824C195.502 85.4403 195.841 85.3693 196.267 85.3693C196.818 85.3693 197.304 85.5071 197.724 85.7827C198.145 86.0582 198.473 86.4489 198.708 86.9545C198.944 87.4602 199.062 88.0568 199.062 88.7443C199.062 89.4375 198.944 90.0384 198.708 90.5469C198.473 91.0526 198.146 91.4446 197.728 91.723C197.311 91.9986 196.829 92.1364 196.284 92.1364C195.863 92.1364 195.527 92.0668 195.274 91.9276C195.021 91.7855 194.826 91.625 194.69 91.446C194.554 91.2642 194.449 91.1136 194.375 90.9943H194.289V94.4545H193.284ZM194.272 88.7273C194.272 89.2216 194.345 89.6577 194.49 90.0355C194.635 90.4105 194.846 90.7045 195.125 90.9176C195.403 91.1278 195.744 91.233 196.147 91.233C196.568 91.233 196.919 91.1222 197.2 90.9006C197.484 90.6761 197.697 90.375 197.839 89.9972C197.984 89.6165 198.056 89.1932 198.056 88.7273C198.056 88.267 197.985 87.8523 197.843 87.483C197.704 87.1108 197.493 86.8168 197.208 86.6009C196.927 86.3821 196.574 86.2727 196.147 86.2727C195.738 86.2727 195.395 86.3764 195.116 86.5838C194.838 86.7884 194.627 87.0753 194.485 87.4446C194.343 87.8111 194.272 88.2386 194.272 88.7273ZM203.443 85.4545V86.3068H200.051V85.4545H203.443ZM201.039 83.8864H202.045V90.125C202.045 90.4091 202.086 90.6222 202.169 90.7642C202.254 90.9034 202.362 90.9972 202.493 91.0455C202.626 91.0909 202.767 91.1136 202.914 91.1136C203.025 91.1136 203.116 91.108 203.187 91.0966C203.258 91.0824 203.315 91.071 203.358 91.0625L203.562 91.9659C203.494 91.9915 203.399 92.017 203.277 92.0426C203.154 92.071 203 92.0852 202.812 92.0852C202.528 92.0852 202.25 92.0241 201.977 91.902C201.707 91.7798 201.483 91.5938 201.304 91.3438C201.127 91.0938 201.039 90.7784 201.039 90.3977V83.8864ZM204.956 92V85.4545H205.961V92H204.956ZM205.467 84.3636C205.271 84.3636 205.102 84.2969 204.96 84.1634C204.821 84.0298 204.751 83.8693 204.751 83.6818C204.751 83.4943 204.821 83.3338 204.96 83.2003C205.102 83.0668 205.271 83 205.467 83C205.663 83 205.831 83.0668 205.97 83.2003C206.112 83.3338 206.183 83.4943 206.183 83.6818C206.183 83.8693 206.112 84.0298 205.97 84.1634C205.831 84.2969 205.663 84.3636 205.467 84.3636ZM207.803 92V85.4545H208.775V86.4773H208.86C208.996 86.1278 209.217 85.8565 209.521 85.6634C209.825 85.4673 210.19 85.3693 210.616 85.3693C211.048 85.3693 211.407 85.4673 211.694 85.6634C211.984 85.8565 212.21 86.1278 212.371 86.4773H212.44C212.607 86.1392 212.859 85.8707 213.194 85.6719C213.529 85.4702 213.931 85.3693 214.4 85.3693C214.985 85.3693 215.464 85.5526 215.836 85.919C216.208 86.2827 216.394 86.8494 216.394 87.6193V92H215.388V87.6193C215.388 87.1364 215.256 86.7912 214.992 86.5838C214.728 86.3764 214.417 86.2727 214.059 86.2727C213.599 86.2727 213.242 86.4119 212.989 86.6903C212.737 86.9659 212.61 87.3153 212.61 87.7386V92H211.587V87.517C211.587 87.1449 211.467 86.8452 211.225 86.6179C210.984 86.3878 210.673 86.2727 210.292 86.2727C210.031 86.2727 209.786 86.3423 209.559 86.4815C209.335 86.6207 209.153 86.8139 209.013 87.0611C208.877 87.3054 208.809 87.5881 208.809 87.9091V92H207.803ZM218.233 92V85.4545H219.239V92H218.233ZM218.744 84.3636C218.548 84.3636 218.379 84.2969 218.237 84.1634C218.098 84.0298 218.028 83.8693 218.028 83.6818C218.028 83.4943 218.098 83.3338 218.237 83.2003C218.379 83.0668 218.548 83 218.744 83C218.94 83 219.108 83.0668 219.247 83.2003C219.389 83.3338 219.46 83.4943 219.46 83.6818C219.46 83.8693 219.389 84.0298 219.247 84.1634C219.108 84.2969 218.94 84.3636 218.744 84.3636ZM220.893 92V91.233L224.609 86.4602V86.392H221.012V85.4545H225.904V86.2557L222.291 90.9943V91.0625H226.024V92H220.893ZM230.13 92.1364C229.499 92.1364 228.955 91.9972 228.498 91.7188C228.043 91.4375 227.692 91.0455 227.445 90.5426C227.201 90.0369 227.078 89.4489 227.078 88.7784C227.078 88.108 227.201 87.517 227.445 87.0057C227.692 86.4915 228.036 86.0909 228.476 85.804C228.919 85.5142 229.436 85.3693 230.027 85.3693C230.368 85.3693 230.705 85.4261 231.037 85.5398C231.37 85.6534 231.672 85.8381 231.945 86.0938C232.218 86.3466 232.435 86.6818 232.597 87.0994C232.759 87.517 232.84 88.0312 232.84 88.642V89.0682H227.794V88.1989H231.817C231.817 87.8295 231.743 87.5 231.596 87.2102C231.451 86.9205 231.243 86.6918 230.973 86.5241C230.706 86.3565 230.391 86.2727 230.027 86.2727C229.627 86.2727 229.28 86.3722 228.988 86.571C228.698 86.767 228.475 87.0227 228.319 87.3381C228.162 87.6534 228.084 87.9915 228.084 88.3523V88.9318C228.084 89.4261 228.169 89.8452 228.34 90.1889C228.513 90.5298 228.753 90.7898 229.06 90.9688C229.367 91.1449 229.723 91.233 230.13 91.233C230.394 91.233 230.632 91.196 230.846 91.1222C231.061 91.0455 231.248 90.9318 231.404 90.7812C231.56 90.6278 231.681 90.4375 231.766 90.2102L232.738 90.483C232.635 90.8125 232.463 91.1023 232.222 91.3523C231.98 91.5994 231.682 91.7926 231.327 91.9318C230.972 92.0682 230.573 92.1364 230.13 92.1364ZM236.841 92.1364C236.296 92.1364 235.814 91.9986 235.397 91.723C234.979 91.4446 234.652 91.0526 234.417 90.5469C234.181 90.0384 234.063 89.4375 234.063 88.7443C234.063 88.0568 234.181 87.4602 234.417 86.9545C234.652 86.4489 234.98 86.0582 235.401 85.7827C235.821 85.5071 236.307 85.3693 236.858 85.3693C237.284 85.3693 237.621 85.4403 237.868 85.5824C238.118 85.7216 238.309 85.8807 238.439 86.0597C238.573 86.2358 238.676 86.3807 238.75 86.4943H238.836V83.2727H239.841V92H238.87V90.9943H238.75C238.676 91.1136 238.571 91.2642 238.435 91.446C238.299 91.625 238.104 91.7855 237.851 91.9276C237.598 92.0668 237.262 92.1364 236.841 92.1364ZM236.978 91.233C237.381 91.233 237.722 91.1278 238 90.9176C238.279 90.7045 238.49 90.4105 238.635 90.0355C238.78 89.6577 238.853 89.2216 238.853 88.7273C238.853 88.2386 238.782 87.8111 238.64 87.4446C238.498 87.0753 238.287 86.7884 238.009 86.5838C237.73 86.3764 237.387 86.2727 236.978 86.2727C236.551 86.2727 236.196 86.3821 235.912 86.6009C235.631 86.8168 235.419 87.1108 235.277 87.483C235.138 87.8523 235.069 88.267 235.069 88.7273C235.069 89.1932 235.14 89.6165 235.282 89.9972C235.426 90.375 235.64 90.6761 235.921 90.9006C236.205 91.1222 236.557 91.233 236.978 91.233ZM24.9205 110.455V101.455H25.892V102.494H26.0114C26.0852 102.381 26.1875 102.236 26.3182 102.06C26.4517 101.881 26.642 101.722 26.8892 101.582C27.1392 101.44 27.4773 101.369 27.9034 101.369C28.4545 101.369 28.9403 101.507 29.3608 101.783C29.7813 102.058 30.1094 102.449 30.3452 102.955C30.581 103.46 30.6989 104.057 30.6989 104.744C30.6989 105.438 30.581 106.038 30.3452 106.547C30.1094 107.053 29.7827 107.445 29.3651 107.723C28.9474 107.999 28.4659 108.136 27.9205 108.136C27.5 108.136 27.1634 108.067 26.9105 107.928C26.6577 107.786 26.4631 107.625 26.3267 107.446C26.1903 107.264 26.0852 107.114 26.0114 106.994H25.9261V110.455H24.9205ZM25.9091 104.727C25.9091 105.222 25.9815 105.658 26.1264 106.036C26.2713 106.411 26.483 106.705 26.7614 106.918C27.0398 107.128 27.3807 107.233 27.7841 107.233C28.2045 107.233 28.5554 107.122 28.8366 106.901C29.1207 106.676 29.3338 106.375 29.4759 105.997C29.6207 105.616 29.6932 105.193 29.6932 104.727C29.6932 104.267 29.6222 103.852 29.4801 103.483C29.3409 103.111 29.1293 102.817 28.8452 102.601C28.5639 102.382 28.2102 102.273 27.7841 102.273C27.375 102.273 27.0313 102.376 26.7528 102.584C26.4744 102.788 26.2642 103.075 26.1222 103.445C25.9801 103.811 25.9091 104.239 25.9091 104.727ZM32.233 108V101.455H33.2045V102.443H33.2727C33.392 102.119 33.608 101.857 33.9205 101.655C34.233 101.453 34.5852 101.352 34.9773 101.352C35.0511 101.352 35.1435 101.354 35.2543 101.357C35.3651 101.359 35.4489 101.364 35.5057 101.369V102.392C35.4716 102.384 35.3935 102.371 35.2713 102.354C35.152 102.334 35.0256 102.324 34.892 102.324C34.5739 102.324 34.2898 102.391 34.0398 102.524C33.7926 102.655 33.5966 102.837 33.4517 103.07C33.3097 103.3 33.2386 103.562 33.2386 103.858V108H32.233ZM39.1577 108.136C38.5668 108.136 38.0483 107.996 37.6023 107.714C37.1591 107.433 36.8125 107.04 36.5625 106.534C36.3153 106.028 36.1918 105.437 36.1918 104.761C36.1918 104.08 36.3153 103.484 36.5625 102.976C36.8125 102.467 37.1591 102.072 37.6023 101.791C38.0483 101.51 38.5668 101.369 39.1577 101.369C39.7486 101.369 40.2656 101.51 40.7088 101.791C41.1548 102.072 41.5014 102.467 41.7486 102.976C41.9986 103.484 42.1236 104.08 42.1236 104.761C42.1236 105.437 41.9986 106.028 41.7486 106.534C41.5014 107.04 41.1548 107.433 40.7088 107.714C40.2656 107.996 39.7486 108.136 39.1577 108.136ZM39.1577 107.233C39.6065 107.233 39.9759 107.118 40.2656 106.888C40.5554 106.658 40.7699 106.355 40.9091 105.98C41.0483 105.605 41.1179 105.199 41.1179 104.761C41.1179 104.324 41.0483 103.916 40.9091 103.538C40.7699 103.161 40.5554 102.855 40.2656 102.622C39.9759 102.389 39.6065 102.273 39.1577 102.273C38.7088 102.273 38.3395 102.389 38.0497 102.622C37.7599 102.855 37.5455 103.161 37.4062 103.538C37.267 103.916 37.1974 104.324 37.1974 104.761C37.1974 105.199 37.267 105.605 37.4062 105.98C37.5455 106.355 37.7599 106.658 38.0497 106.888C38.3395 107.118 38.7088 107.233 39.1577 107.233ZM46.5053 101.455V102.307H43.1133V101.455H46.5053ZM44.1019 99.8864H45.1076V106.125C45.1076 106.409 45.1488 106.622 45.2312 106.764C45.3164 106.903 45.4244 106.997 45.555 107.045C45.6886 107.091 45.8292 107.114 45.9769 107.114C46.0877 107.114 46.1786 107.108 46.2496 107.097C46.3207 107.082 46.3775 107.071 46.4201 107.062L46.6246 107.966C46.5565 107.991 46.4613 108.017 46.3391 108.043C46.217 108.071 46.0621 108.085 45.8746 108.085C45.5906 108.085 45.3121 108.024 45.0394 107.902C44.7695 107.78 44.5451 107.594 44.3661 107.344C44.19 107.094 44.1019 106.778 44.1019 106.398V99.8864ZM50.6921 108.136C50.0614 108.136 49.5174 107.997 49.06 107.719C48.6055 107.438 48.2546 107.045 48.0075 106.543C47.7631 106.037 47.641 105.449 47.641 104.778C47.641 104.108 47.7631 103.517 48.0075 103.006C48.2546 102.491 48.5984 102.091 49.0387 101.804C49.4819 101.514 49.9989 101.369 50.5898 101.369C50.9308 101.369 51.2674 101.426 51.5998 101.54C51.9322 101.653 52.2347 101.838 52.5075 102.094C52.7802 102.347 52.9975 102.682 53.1594 103.099C53.3214 103.517 53.4023 104.031 53.4023 104.642V105.068H48.3569V104.199H52.3796C52.3796 103.83 52.3058 103.5 52.158 103.21C52.0131 102.92 51.8058 102.692 51.5359 102.524C51.2688 102.357 50.9535 102.273 50.5898 102.273C50.1893 102.273 49.8427 102.372 49.5501 102.571C49.2603 102.767 49.0373 103.023 48.881 103.338C48.7248 103.653 48.6467 103.991 48.6467 104.352V104.932C48.6467 105.426 48.7319 105.845 48.9023 106.189C49.0756 106.53 49.3157 106.79 49.6225 106.969C49.9293 107.145 50.2859 107.233 50.6921 107.233C50.9563 107.233 51.195 107.196 51.408 107.122C51.6239 107.045 51.81 106.932 51.9663 106.781C52.1225 106.628 52.2433 106.437 52.3285 106.21L53.3001 106.483C53.1978 106.812 53.0259 107.102 52.7844 107.352C52.543 107.599 52.2447 107.793 51.8896 107.932C51.5344 108.068 51.1353 108.136 50.6921 108.136ZM54.9322 108V101.455H55.9379V108H54.9322ZM55.4435 100.364C55.2475 100.364 55.0785 100.297 54.9364 100.163C54.7972 100.03 54.7276 99.8693 54.7276 99.6818C54.7276 99.4943 54.7972 99.3338 54.9364 99.2003C55.0785 99.0668 55.2475 99 55.4435 99C55.6396 99 55.8072 99.0668 55.9464 99.2003C56.0884 99.3338 56.1594 99.4943 56.1594 99.6818C56.1594 99.8693 56.0884 100.03 55.9464 100.163C55.8072 100.297 55.6396 100.364 55.4435 100.364ZM58.7855 104.062V108H57.7798V101.455H58.7514V102.477H58.8366C58.9901 102.145 59.223 101.878 59.5355 101.676C59.848 101.472 60.2514 101.369 60.7457 101.369C61.1889 101.369 61.5767 101.46 61.9091 101.642C62.2415 101.821 62.5 102.094 62.6847 102.46C62.8693 102.824 62.9616 103.284 62.9616 103.841V108H61.956V103.909C61.956 103.395 61.8224 102.994 61.5554 102.707C61.2884 102.418 60.9219 102.273 60.456 102.273C60.1349 102.273 59.848 102.342 59.5952 102.482C59.3452 102.621 59.1477 102.824 59.0028 103.091C58.858 103.358 58.7855 103.682 58.7855 104.062ZM68.1744 110.455V101.455H69.146V102.494H69.2653C69.3391 102.381 69.4414 102.236 69.5721 102.06C69.7056 101.881 69.896 101.722 70.1431 101.582C70.3931 101.44 70.7312 101.369 71.1573 101.369C71.7085 101.369 72.1942 101.507 72.6147 101.783C73.0352 102.058 73.3633 102.449 73.5991 102.955C73.8349 103.46 73.9528 104.057 73.9528 104.744C73.9528 105.438 73.8349 106.038 73.5991 106.547C73.3633 107.053 73.0366 107.445 72.619 107.723C72.2013 107.999 71.7198 108.136 71.1744 108.136C70.7539 108.136 70.4173 108.067 70.1644 107.928C69.9116 107.786 69.717 107.625 69.5806 107.446C69.4442 107.264 69.3391 107.114 69.2653 106.994H69.18V110.455H68.1744ZM69.163 104.727C69.163 105.222 69.2354 105.658 69.3803 106.036C69.5252 106.411 69.7369 106.705 70.0153 106.918C70.2937 107.128 70.6346 107.233 71.038 107.233C71.4585 107.233 71.8093 107.122 72.0906 106.901C72.3746 106.676 72.5877 106.375 72.7298 105.997C72.8746 105.616 72.9471 105.193 72.9471 104.727C72.9471 104.267 72.8761 103.852 72.734 103.483C72.5948 103.111 72.3832 102.817 72.0991 102.601C71.8178 102.382 71.4641 102.273 71.038 102.273C70.6289 102.273 70.2852 102.376 70.0067 102.584C69.7283 102.788 69.5181 103.075 69.3761 103.445C69.234 103.811 69.163 104.239 69.163 104.727ZM77.413 108.153C76.9982 108.153 76.6218 108.075 76.2837 107.919C75.9457 107.76 75.6772 107.531 75.4783 107.233C75.2795 106.932 75.18 106.568 75.18 106.142C75.18 105.767 75.2539 105.463 75.4016 105.23C75.5494 104.994 75.7468 104.81 75.994 104.676C76.2411 104.543 76.5138 104.443 76.8121 104.378C77.1133 104.31 77.4158 104.256 77.7198 104.216C78.1175 104.165 78.44 104.126 78.6871 104.101C78.9371 104.072 79.119 104.026 79.2326 103.96C79.3491 103.895 79.4073 103.781 79.4073 103.619V103.585C79.4073 103.165 79.2923 102.838 79.0621 102.605C78.8349 102.372 78.4897 102.256 78.0266 102.256C77.5465 102.256 77.1701 102.361 76.8974 102.571C76.6246 102.781 76.4329 103.006 76.3221 103.244L75.3675 102.903C75.538 102.506 75.7653 102.196 76.0494 101.974C76.3363 101.75 76.6488 101.594 76.9869 101.506C77.3278 101.415 77.663 101.369 77.9925 101.369C78.2028 101.369 78.4442 101.395 78.717 101.446C78.9925 101.494 79.2582 101.595 79.5138 101.749C79.7724 101.902 79.9869 102.134 80.1573 102.443C80.3278 102.753 80.413 103.168 80.413 103.688V108H79.4073V107.114H79.3562C79.288 107.256 79.1744 107.408 79.0153 107.57C78.8562 107.732 78.6445 107.869 78.3803 107.983C78.1161 108.097 77.7937 108.153 77.413 108.153ZM77.5664 107.25C77.9641 107.25 78.2994 107.172 78.5721 107.016C78.8477 106.859 79.055 106.658 79.1942 106.411C79.3363 106.163 79.4073 105.903 79.4073 105.631V104.71C79.3647 104.761 79.271 104.808 79.1261 104.851C78.984 104.891 78.8192 104.926 78.6317 104.957C78.4471 104.986 78.2667 105.011 78.0906 105.034C77.9173 105.054 77.7766 105.071 77.6687 105.085C77.4073 105.119 77.163 105.175 76.9357 105.251C76.7113 105.325 76.5295 105.437 76.3903 105.588C76.2539 105.736 76.1857 105.937 76.1857 106.193C76.1857 106.543 76.315 106.807 76.5735 106.986C76.8349 107.162 77.1658 107.25 77.5664 107.25ZM84.9077 108.136C84.294 108.136 83.7656 107.991 83.3224 107.702C82.8793 107.412 82.5384 107.013 82.2997 106.504C82.0611 105.996 81.9418 105.415 81.9418 104.761C81.9418 104.097 82.0639 103.51 82.3082 103.001C82.5554 102.49 82.8991 102.091 83.3395 101.804C83.7827 101.514 84.2997 101.369 84.8906 101.369C85.3509 101.369 85.7656 101.455 86.1349 101.625C86.5043 101.795 86.8068 102.034 87.0426 102.341C87.2784 102.648 87.4247 103.006 87.4815 103.415H86.4759C86.3991 103.116 86.2287 102.852 85.9645 102.622C85.7031 102.389 85.3509 102.273 84.9077 102.273C84.5156 102.273 84.1719 102.375 83.8764 102.58C83.5838 102.781 83.3551 103.067 83.1903 103.436C83.0284 103.803 82.9474 104.233 82.9474 104.727C82.9474 105.233 83.027 105.673 83.1861 106.048C83.348 106.423 83.5753 106.714 83.8679 106.922C84.1634 107.129 84.5099 107.233 84.9077 107.233C85.169 107.233 85.4062 107.188 85.6193 107.097C85.8324 107.006 86.0128 106.875 86.1605 106.705C86.3082 106.534 86.4134 106.33 86.4759 106.091H87.4815C87.4247 106.477 87.2841 106.825 87.0597 107.135C86.8381 107.442 86.544 107.686 86.1776 107.868C85.8139 108.047 85.3906 108.136 84.9077 108.136ZM88.9517 108V101.455H89.9574V108H88.9517ZM89.4631 100.364C89.267 100.364 89.098 100.297 88.956 100.163C88.8168 100.03 88.7472 99.8693 88.7472 99.6818C88.7472 99.4943 88.8168 99.3338 88.956 99.2003C89.098 99.0668 89.267 99 89.4631 99C89.6591 99 89.8267 99.0668 89.9659 99.2003C90.108 99.3338 90.179 99.4943 90.179 99.6818C90.179 99.8693 90.108 100.03 89.9659 100.163C89.8267 100.297 89.6591 100.364 89.4631 100.364ZM92.805 104.062V108H91.7994V101.455H92.771V102.477H92.8562C93.0096 102.145 93.2425 101.878 93.555 101.676C93.8675 101.472 94.271 101.369 94.7653 101.369C95.2085 101.369 95.5962 101.46 95.9286 101.642C96.261 101.821 96.5195 102.094 96.7042 102.46C96.8888 102.824 96.9812 103.284 96.9812 103.841V108H95.9755V103.909C95.9755 103.395 95.842 102.994 95.5749 102.707C95.3079 102.418 94.9414 102.273 94.4755 102.273C94.1545 102.273 93.8675 102.342 93.6147 102.482C93.3647 102.621 93.1673 102.824 93.0224 103.091C92.8775 103.358 92.805 103.682 92.805 104.062ZM101.461 110.591C100.975 110.591 100.558 110.528 100.208 110.403C99.8587 110.281 99.5675 110.119 99.3345 109.918C99.1044 109.719 98.9212 109.506 98.7848 109.278L99.5859 108.716C99.6768 108.835 99.7919 108.972 99.9311 109.125C100.07 109.281 100.261 109.416 100.502 109.53C100.746 109.646 101.066 109.705 101.461 109.705C101.989 109.705 102.425 109.577 102.769 109.321C103.113 109.065 103.285 108.665 103.285 108.119V106.79H103.2C103.126 106.909 103.021 107.057 102.884 107.233C102.751 107.406 102.558 107.561 102.305 107.697C102.055 107.831 101.717 107.898 101.29 107.898C100.762 107.898 100.288 107.773 99.8672 107.523C99.4496 107.273 99.1186 106.909 98.8743 106.432C98.6328 105.955 98.5121 105.375 98.5121 104.693C98.5121 104.023 98.63 103.439 98.8658 102.942C99.1016 102.442 99.4297 102.055 99.8501 101.783C100.271 101.507 100.756 101.369 101.308 101.369C101.734 101.369 102.072 101.44 102.322 101.582C102.575 101.722 102.768 101.881 102.901 102.06C103.038 102.236 103.143 102.381 103.217 102.494H103.319V101.455H104.29V108.188C104.29 108.75 104.163 109.207 103.907 109.56C103.654 109.915 103.313 110.175 102.884 110.339C102.458 110.507 101.984 110.591 101.461 110.591ZM101.427 106.994C101.83 106.994 102.171 106.902 102.45 106.717C102.728 106.533 102.94 106.267 103.085 105.92C103.229 105.574 103.302 105.159 103.302 104.676C103.302 104.205 103.231 103.788 103.089 103.428C102.947 103.067 102.737 102.784 102.458 102.58C102.18 102.375 101.836 102.273 101.427 102.273C101.001 102.273 100.646 102.381 100.362 102.597C100.08 102.812 99.8686 103.102 99.7266 103.466C99.5874 103.83 99.5178 104.233 99.5178 104.676C99.5178 105.131 99.5888 105.533 99.7308 105.882C99.8757 106.229 100.089 106.501 100.37 106.7C100.654 106.896 101.006 106.994 101.427 106.994ZM106.864 108.068C106.654 108.068 106.474 107.993 106.323 107.842C106.173 107.692 106.097 107.511 106.097 107.301C106.097 107.091 106.173 106.911 106.323 106.76C106.474 106.609 106.654 106.534 106.864 106.534C107.075 106.534 107.255 106.609 107.406 106.76C107.556 106.911 107.631 107.091 107.631 107.301C107.631 107.44 107.596 107.568 107.525 107.685C107.457 107.801 107.364 107.895 107.248 107.966C107.134 108.034 107.006 108.068 106.864 108.068Z" fill="white"/>
<defs>
<clipPath id="clip0_22_1047">
<rect x="150.48" y="57" width="113.52" height="6" rx="3" fill="white"/>
</clipPath>
</defs>
</svg>
