<svg width="429" height="168" viewBox="0 0 429 168" fill="none" xmlns="http://www.w3.org/2000/svg">
<path d="M38.0795 33.3999V13.7799L33.6155 14.9679V11.0799L40.1675 8.1999H43.1195V33.3999H38.0795ZM57.3848 33.8319C55.1048 33.8319 53.1368 33.2799 51.4808 32.1759C49.8248 31.0719 48.5528 29.5479 47.6648 27.6039C46.8008 25.6359 46.3688 23.3679 46.3688 20.7999C46.3688 18.2319 46.8008 15.9759 47.6648 14.0319C48.5528 12.0639 49.8128 10.5279 51.4448 9.4239C53.1008 8.3199 55.0808 7.7679 57.3848 7.7679C59.6888 7.7679 61.6568 8.3199 63.2888 9.4239C64.9448 10.5279 66.2048 12.0639 67.0688 14.0319C67.9568 15.9759 68.4008 18.2319 68.4008 20.7999C68.4008 23.3679 67.9568 25.6359 67.0688 27.6039C66.2048 29.5479 64.9448 31.0719 63.2888 32.1759C61.6568 33.2799 59.6888 33.8319 57.3848 33.8319ZM57.3848 29.4759C58.5848 29.4759 59.6408 29.1279 60.5528 28.4319C61.4648 27.7119 62.1728 26.7039 62.6768 25.4079C63.2048 24.1119 63.4688 22.5759 63.4688 20.7999C63.4688 18.9999 63.2048 17.4639 62.6768 16.1919C62.1728 14.8959 61.4648 13.8999 60.5528 13.2039C59.6408 12.5079 58.5848 12.1599 57.3848 12.1599C56.1848 12.1599 55.1288 12.5079 54.2168 13.2039C53.3048 13.8999 52.5848 14.8959 52.0568 16.1919C51.5528 17.4639 51.3008 18.9999 51.3008 20.7999C51.3008 22.5759 51.5528 24.1119 52.0568 25.4079C52.5848 26.7039 53.3048 27.7119 54.2168 28.4319C55.1288 29.1279 56.1848 29.4759 57.3848 29.4759ZM70.8198 33.3999V29.8359C72.3558 28.6119 73.8438 27.3879 75.2838 26.1639C76.7478 24.9399 78.0558 23.7279 79.2078 22.5279C80.3598 21.3039 81.2718 20.1159 81.9438 18.9639C82.6158 17.8119 82.9518 16.6959 82.9518 15.6159C82.9518 14.9439 82.8318 14.3319 82.5918 13.7799C82.3518 13.2039 81.9678 12.7479 81.4398 12.4119C80.9358 12.0519 80.2638 11.8719 79.4238 11.8719C78.5838 11.8719 77.8758 12.0639 77.2998 12.4479C76.7238 12.8319 76.2918 13.3479 76.0038 13.9959C75.7158 14.6199 75.5718 15.3279 75.5718 16.1199H70.8558C70.9278 14.2719 71.3478 12.7239 72.1158 11.4759C72.8838 10.2279 73.9158 9.3039 75.2118 8.7039C76.5078 8.0799 77.9598 7.7679 79.5678 7.7679C81.3438 7.7679 82.8438 8.1039 84.0678 8.7759C85.2918 9.4239 86.2158 10.3119 86.8398 11.4399C87.4878 12.5679 87.8118 13.8639 87.8118 15.3279C87.8118 16.4319 87.6078 17.5119 87.1998 18.5679C86.8158 19.6239 86.2638 20.6559 85.5438 21.6639C84.8478 22.6479 84.0558 23.5959 83.1678 24.5079C82.2798 25.4199 81.3558 26.2959 80.3958 27.1359C79.4358 27.9519 78.4998 28.7199 77.5878 29.4399H88.4238V33.3999H70.8198Z" fill="#1E293B"/>
<path d="M96.0759 34.8V26.3328H97.3527L97.4367 27.5424C97.7055 27.1056 98.0639 26.764 98.5119 26.5176C98.9711 26.26 99.4695 26.1312 100.007 26.1312C100.444 26.1312 100.836 26.1928 101.183 26.316C101.542 26.428 101.855 26.6072 102.124 26.8536C102.393 27.0888 102.611 27.3912 102.779 27.7608C103.07 27.2456 103.468 26.848 103.972 26.568C104.487 26.2768 105.036 26.1312 105.618 26.1312C106.268 26.1312 106.834 26.2656 107.315 26.5344C107.808 26.792 108.183 27.1896 108.441 27.7272C108.71 28.2536 108.844 28.9256 108.844 29.7432V34.8H107.45V29.8944C107.45 29.0432 107.276 28.4048 106.929 27.9792C106.582 27.5536 106.094 27.3408 105.467 27.3408C105.03 27.3408 104.638 27.4584 104.291 27.6936C103.944 27.9176 103.67 28.248 103.468 28.6848C103.266 29.1216 103.166 29.6592 103.166 30.2976V34.8H101.754V29.8944C101.754 29.0432 101.581 28.4048 101.234 27.9792C100.886 27.5536 100.394 27.3408 99.7551 27.3408C99.3295 27.3408 98.9431 27.4584 98.5959 27.6936C98.2599 27.9176 97.9911 28.248 97.7895 28.6848C97.5879 29.1216 97.4871 29.6592 97.4871 30.2976V34.8H96.0759ZM113.482 38.6976C112.72 38.6976 112.042 38.5968 111.449 38.3952C110.866 38.2048 110.413 37.908 110.088 37.5048C109.763 37.1016 109.601 36.6032 109.601 36.0096C109.601 35.752 109.651 35.4776 109.752 35.1864C109.864 34.8952 110.049 34.6096 110.306 34.3296C110.575 34.0496 110.95 33.7976 111.432 33.5736L112.406 34.1448C111.813 34.3912 111.426 34.6712 111.247 34.9848C111.068 35.3096 110.978 35.6064 110.978 35.8752C110.978 36.2448 111.085 36.5528 111.298 36.7992C111.51 37.0456 111.807 37.2304 112.188 37.3536C112.569 37.4768 113 37.5384 113.482 37.5384C113.963 37.5384 114.378 37.4712 114.725 37.3368C115.072 37.2024 115.341 37.012 115.531 36.7656C115.722 36.5192 115.817 36.228 115.817 35.892C115.817 35.5 115.671 35.1696 115.38 34.9008C115.089 34.6432 114.534 34.492 113.717 34.4472C113.056 34.4024 112.502 34.3408 112.054 34.2624C111.606 34.184 111.236 34.0944 110.945 33.9936C110.654 33.8816 110.407 33.7584 110.206 33.624C110.015 33.4896 109.842 33.3496 109.685 33.204V32.8176L111.314 31.2048L112.541 31.6416L110.861 33.1536L111.079 32.5656C111.202 32.6552 111.32 32.7392 111.432 32.8176C111.544 32.896 111.695 32.9632 111.886 33.0192C112.076 33.0752 112.339 33.1256 112.675 33.1704C113.022 33.2152 113.476 33.26 114.036 33.3048C114.809 33.3608 115.425 33.4952 115.884 33.708C116.354 33.9208 116.69 34.2064 116.892 34.5648C117.105 34.9232 117.211 35.3488 117.211 35.8416C117.211 36.3232 117.077 36.7768 116.808 37.2024C116.55 37.6392 116.147 37.9976 115.598 38.2776C115.05 38.5576 114.344 38.6976 113.482 38.6976ZM113.465 32.1456C112.759 32.1456 112.154 32.0112 111.65 31.7424C111.158 31.4736 110.782 31.1152 110.525 30.6672C110.267 30.208 110.138 29.6984 110.138 29.1384C110.138 28.5784 110.267 28.0744 110.525 27.6264C110.794 27.1784 111.174 26.82 111.667 26.5512C112.16 26.2712 112.759 26.1312 113.465 26.1312C114.17 26.1312 114.77 26.2712 115.262 26.5512C115.755 26.82 116.13 27.1784 116.388 27.6264C116.646 28.0744 116.774 28.5784 116.774 29.1384C116.774 29.6984 116.646 30.208 116.388 30.6672C116.13 31.1152 115.755 31.4736 115.262 31.7424C114.77 32.0112 114.17 32.1456 113.465 32.1456ZM113.465 30.9864C114.07 30.9864 114.546 30.8296 114.893 30.516C115.24 30.2024 115.414 29.7432 115.414 29.1384C115.414 28.5448 115.24 28.0912 114.893 27.7776C114.546 27.464 114.07 27.3072 113.465 27.3072C112.871 27.3072 112.39 27.464 112.02 27.7776C111.662 28.0912 111.482 28.5448 111.482 29.1384C111.482 29.7432 111.662 30.2024 112.02 30.516C112.378 30.8296 112.86 30.9864 113.465 30.9864ZM114.842 27.5256L114.422 26.3328H117.883V27.3912L114.842 27.5256ZM117.901 36.396L122.118 21.9648H123.512L119.295 36.396H117.901ZM127.227 35.0016C126.41 35.0016 125.693 34.8112 125.077 34.4304C124.461 34.0384 123.985 33.5064 123.649 32.8344C123.313 32.1624 123.145 31.4008 123.145 30.5496C123.145 29.6984 123.313 28.9424 123.649 28.2816C123.985 27.6096 124.461 27.0832 125.077 26.7024C125.704 26.3216 126.427 26.1312 127.244 26.1312C127.939 26.1312 128.543 26.2712 129.059 26.5512C129.585 26.8312 129.988 27.2232 130.268 27.7272V22.704H131.679V34.8H130.403L130.285 33.4056C130.106 33.6856 129.876 33.9488 129.596 34.1952C129.316 34.4304 128.98 34.6264 128.588 34.7832C128.196 34.9288 127.743 35.0016 127.227 35.0016ZM127.395 33.7752C127.955 33.7752 128.448 33.6408 128.874 33.372C129.299 33.1032 129.63 32.7336 129.865 32.2632C130.1 31.7816 130.218 31.216 130.218 30.5664C130.218 29.928 130.1 29.368 129.865 28.8864C129.63 28.4048 129.299 28.0296 128.874 27.7608C128.448 27.492 127.955 27.3576 127.395 27.3576C126.847 27.3576 126.359 27.492 125.934 27.7608C125.508 28.0296 125.178 28.4048 124.943 28.8864C124.707 29.368 124.59 29.928 124.59 30.5664C124.59 31.216 124.707 31.7816 124.943 32.2632C125.178 32.7336 125.508 33.1032 125.934 33.372C126.359 33.6408 126.847 33.7752 127.395 33.7752ZM133.215 34.8V23.04H134.626V33.6744H140.103V34.8H133.215Z" fill="#64748B"/>
<rect x="322.996" y="14.3999" width="81.836" height="28.8" rx="14.4" fill="#D1FAE5"/>
<path d="M340.762 31.5999V30.4332H342.279L339.246 27.429L336.912 29.7624L332.596 25.4165L333.412 24.5999L336.912 28.0999L339.246 25.7665L343.096 29.6165V28.0999H344.262V31.5999H340.762Z" fill="#059669"/>
<path d="M355.744 34.3728C355.005 34.3728 354.357 34.2432 353.8 33.984C353.244 33.7152 352.812 33.3408 352.504 32.8608C352.197 32.3808 352.044 31.8192 352.044 31.176H353.556C353.565 31.5408 353.652 31.8768 353.815 32.184C353.988 32.4816 354.232 32.7216 354.549 32.904C354.876 33.0768 355.274 33.1632 355.744 33.1632C356.148 33.1632 356.493 33.096 356.781 32.9616C357.079 32.8272 357.304 32.6448 357.458 32.4144C357.612 32.1744 357.688 31.9008 357.688 31.5936C357.688 31.2384 357.607 30.9456 357.444 30.7152C357.28 30.4848 357.06 30.2976 356.781 30.1536C356.512 30 356.196 29.8656 355.831 29.7504C355.476 29.6352 355.101 29.5104 354.708 29.376C353.911 29.1168 353.316 28.7808 352.922 28.368C352.538 27.9552 352.346 27.4176 352.346 26.7552C352.346 26.1888 352.48 25.6992 352.749 25.2864C353.018 24.864 353.392 24.5376 353.872 24.3072C354.362 24.0672 354.938 23.9472 355.6 23.9472C356.253 23.9472 356.824 24.0672 357.314 24.3072C357.804 24.5472 358.188 24.8784 358.466 25.3008C358.744 25.7232 358.884 26.2176 358.884 26.784H357.357C357.357 26.5248 357.29 26.2704 357.156 26.0208C357.021 25.7712 356.82 25.5696 356.551 25.416C356.282 25.2528 355.951 25.1712 355.557 25.1712C355.231 25.1616 354.938 25.2144 354.679 25.3296C354.42 25.4448 354.218 25.6128 354.074 25.8336C353.93 26.0544 353.858 26.3184 353.858 26.6256C353.858 26.9328 353.92 27.1824 354.045 27.3744C354.18 27.5568 354.372 27.7152 354.621 27.8496C354.871 27.984 355.159 28.1088 355.485 28.224C355.821 28.3296 356.191 28.4496 356.594 28.584C357.093 28.7472 357.535 28.9488 357.919 29.1888C358.312 29.4192 358.62 29.7216 358.84 30.096C359.071 30.4608 359.186 30.9312 359.186 31.5072C359.186 32.0064 359.056 32.472 358.797 32.904C358.538 33.336 358.154 33.6912 357.645 33.9696C357.136 34.2384 356.503 34.3728 355.744 34.3728ZM363.821 34.2C363.361 34.2 362.962 34.128 362.626 33.984C362.29 33.84 362.031 33.6 361.849 33.264C361.666 32.928 361.575 32.472 361.575 31.896V28.1664H360.322V26.9424H361.575L361.748 25.128H363.015V26.9424H365.074V28.1664H363.015V31.9104C363.015 32.3232 363.101 32.6064 363.274 32.76C363.447 32.904 363.745 32.976 364.167 32.976H365.002V34.2H363.821ZM369.067 34.3728C368.472 34.3728 367.977 34.272 367.584 34.0704C367.19 33.8688 366.897 33.6 366.705 33.264C366.513 32.9184 366.417 32.5488 366.417 32.1552C366.417 31.6752 366.542 31.2672 366.792 30.9312C367.041 30.5856 367.397 30.3216 367.857 30.1392C368.318 29.9568 368.87 29.8656 369.513 29.8656H371.4C371.4 29.4432 371.337 29.0928 371.213 28.8144C371.088 28.536 370.901 28.3296 370.651 28.1952C370.411 28.0512 370.104 27.9792 369.729 27.9792C369.297 27.9792 368.928 28.0848 368.621 28.296C368.313 28.4976 368.121 28.8 368.045 29.2032H366.605C366.662 28.6944 366.835 28.2624 367.123 27.9072C367.421 27.5424 367.8 27.264 368.261 27.072C368.721 26.8704 369.211 26.7696 369.729 26.7696C370.411 26.7696 370.982 26.8896 371.443 27.1296C371.904 27.3696 372.249 27.7104 372.48 28.152C372.72 28.584 372.84 29.1024 372.84 29.7072V34.2H371.587L371.472 32.976C371.366 33.168 371.241 33.3504 371.097 33.5232C370.953 33.696 370.781 33.8448 370.579 33.9696C370.387 34.0944 370.161 34.1904 369.902 34.2576C369.653 34.3344 369.374 34.3728 369.067 34.3728ZM369.341 33.2064C369.648 33.2064 369.926 33.144 370.176 33.0192C370.425 32.8944 370.637 32.7264 370.809 32.5152C370.992 32.2944 371.126 32.0496 371.213 31.7808C371.309 31.5024 371.361 31.2192 371.371 30.9312V30.888H369.657C369.245 30.888 368.909 30.9408 368.649 31.0464C368.4 31.1424 368.217 31.2768 368.102 31.4496C367.987 31.6224 367.929 31.824 367.929 32.0544C367.929 32.2944 367.982 32.5008 368.088 32.6736C368.203 32.8368 368.366 32.9664 368.577 33.0624C368.789 33.1584 369.043 33.2064 369.341 33.2064ZM378.638 34.3728C378.244 34.3728 377.884 34.3152 377.558 34.2C377.241 34.0944 376.963 33.9456 376.723 33.7536C376.483 33.5616 376.281 33.3408 376.118 33.0912L375.974 34.2H374.678V23.832H376.118V28.08C376.348 27.7152 376.67 27.408 377.083 27.1584C377.505 26.8992 378.023 26.7696 378.638 26.7696C379.329 26.7696 379.939 26.9376 380.467 27.2736C380.995 27.6 381.403 28.0512 381.691 28.6272C381.988 29.1936 382.137 29.8464 382.137 30.5856C382.137 31.3056 381.988 31.9536 381.691 32.5296C381.403 33.1056 380.995 33.5568 380.467 33.8832C379.939 34.2096 379.329 34.3728 378.638 34.3728ZM378.407 33.12C378.849 33.12 379.238 33.0144 379.574 32.8032C379.919 32.592 380.188 32.2944 380.38 31.9104C380.582 31.5264 380.683 31.08 380.683 30.5712C380.683 30.0624 380.582 29.6208 380.38 29.2464C380.188 28.8624 379.919 28.5648 379.574 28.3536C379.238 28.1328 378.849 28.0224 378.407 28.0224C377.956 28.0224 377.558 28.1328 377.212 28.3536C376.876 28.5648 376.612 28.8624 376.42 29.2464C376.228 29.6208 376.132 30.0624 376.132 30.5712C376.132 31.08 376.228 31.5264 376.42 31.9104C376.612 32.2944 376.876 32.592 377.212 32.8032C377.558 33.0144 377.956 33.12 378.407 33.12ZM383.818 34.2V23.832H385.258V34.2H383.818ZM390.519 34.3728C389.828 34.3728 389.213 34.2144 388.676 33.8976C388.138 33.5808 387.716 33.1392 387.408 32.5728C387.111 32.0064 386.962 31.3488 386.962 30.6C386.962 29.832 387.111 29.1648 387.408 28.5984C387.716 28.0224 388.138 27.576 388.676 27.2592C389.213 26.9328 389.837 26.7696 390.548 26.7696C391.258 26.7696 391.868 26.928 392.376 27.2448C392.885 27.5616 393.279 27.984 393.557 28.512C393.836 29.0304 393.975 29.6064 393.975 30.24C393.975 30.336 393.97 30.4416 393.96 30.5568C393.96 30.6624 393.956 30.7824 393.946 30.9168H388.013V29.8944H392.535C392.506 29.2896 392.304 28.8192 391.93 28.4832C391.556 28.1376 391.09 27.9648 390.533 27.9648C390.14 27.9648 389.78 28.056 389.453 28.2384C389.127 28.4112 388.863 28.6704 388.661 29.016C388.469 29.352 388.373 29.7792 388.373 30.2976V30.7008C388.373 31.2384 388.469 31.6944 388.661 32.0688C388.863 32.4336 389.127 32.712 389.453 32.904C389.78 33.0864 390.135 33.1776 390.519 33.1776C390.98 33.1776 391.359 33.0768 391.656 32.8752C391.954 32.6736 392.175 32.4 392.319 32.0544H393.759C393.634 32.496 393.423 32.8944 393.125 33.2496C392.828 33.5952 392.458 33.8688 392.016 34.0704C391.584 34.272 391.085 34.3728 390.519 34.3728Z" fill="#059669"/>
<g clip-path="url(#clip0_148_560)">
<path opacity="0.2" d="M366.431 69.6897C373.266 64.1476 379.944 62.2036 386.538 63.5833C393.191 64.9754 400.008 69.8008 406.96 78.3479C413.897 86.8748 420.876 98.9924 427.883 114.747L446.62 166.752C451.152 179.331 441.474 192.488 428.117 191.907L2.66943 173.424C-12.7534 172.754 -20.84 154.808 -11.1255 142.811L3.63721 124.579C6.16837 121.453 9.59746 119.198 13.4702 118.415C39.1835 113.218 64.9167 117.333 90.7124 130.827C105.023 138.313 119.4 140.209 133.789 136.446C148.145 132.69 162.402 123.331 176.569 108.509C190.499 93.9356 204.215 87.7755 217.762 89.5471C231.367 91.3264 245.186 101.149 259.181 119.451C273.352 137.983 287.867 145.835 302.655 141.967C317.249 138.15 331.531 123.01 345.621 97.2131C352.622 84.3936 359.569 75.2539 366.431 69.6897Z" fill="url(#paint0_linear_148_560)" stroke="#FE7B02" stroke-width="2.4"/>
</g>
<defs>
<linearGradient id="paint0_linear_148_560" x1="6.83592" y1="60.0531" x2="6.83592" y2="160.988" gradientUnits="userSpaceOnUse">
<stop stop-color="#F47551"/>
<stop offset="1" stop-color="white" stop-opacity="0"/>
</linearGradient>
<clipPath id="clip0_148_560">
<rect y="59.6001" width="429" height="108" rx="24" fill="white"/>
</clipPath>
</defs>
</svg>
