<svg width="29" height="29" viewBox="0 0 29 29" fill="none" xmlns="http://www.w3.org/2000/svg">
<path d="M16.1697 26.4C15.6097 26.4 15.0849 26.28 14.5953 26.04C14.1057 25.8 13.6905 25.46 13.3497 25.02L6.80971 16.71L7.37971 16.11C7.77971 15.69 8.25971 15.44 8.81971 15.36C9.37971 15.28 9.89971 15.39 10.3797 15.69L12.5997 17.04V4.79997C12.5997 4.45997 12.7149 4.17517 12.9453 3.94557C13.1757 3.71597 13.4605 3.60077 13.7997 3.59997C14.1389 3.59917 14.4289 3.71437 14.6697 3.94557C14.9105 4.17677 15.0305 4.46157 15.0297 4.79997V21.36L12.1197 19.56L15.2397 23.55C15.3597 23.71 15.4997 23.8252 15.6597 23.8956C15.8197 23.966 15.9897 24.0008 16.1697 24H22.7997C23.4597 24 24.0249 23.7652 24.4953 23.2956C24.9657 22.826 25.2005 22.2608 25.1997 21.6V13.2C25.1997 12.86 25.3149 12.5752 25.5453 12.3456C25.7757 12.116 26.0605 12.0008 26.3997 12C26.7389 11.9992 27.0241 12.1144 27.2553 12.3456C27.4865 12.5768 27.6013 12.8616 27.5997 13.2V21.6C27.5997 22.92 27.1297 24.05 26.1897 24.99C25.2497 25.93 24.1197 26.4 22.7997 26.4H16.1697ZM16.7997 15.6V9.59997C16.7997 9.25997 16.9149 8.97517 17.1453 8.74557C17.3757 8.51597 17.6605 8.40077 17.9997 8.39997C18.3389 8.39917 18.6241 8.51437 18.8553 8.74557C19.0865 8.97677 19.2013 9.26157 19.1997 9.59997V15.6H16.7997ZM20.9997 15.6V10.8C20.9997 10.46 21.1149 10.1752 21.3453 9.94557C21.5757 9.71597 21.8605 9.60077 22.1997 9.59997C22.5389 9.59917 22.8241 9.71437 23.0553 9.94557C23.2865 10.1768 23.4013 10.4616 23.3997 10.8V15.6H20.9997ZM2.42971 10.8C1.60971 9.99997 1.19971 9.01997 1.19971 7.85997C1.19971 7.01997 1.44971 6.26477 1.94971 5.59437C2.44971 4.92397 2.96971 4.26917 3.50971 3.62997L5.39971 1.46997L7.28971 3.65997C7.82971 4.29997 8.34971 4.94997 8.84971 5.60997C9.34971 6.26997 9.59971 7.01997 9.59971 7.85997C9.59971 9.01997 9.18971 9.99997 8.36971 10.8C7.54971 11.6 6.55971 12 5.39971 12C4.23971 12 3.24971 11.6 2.42971 10.8ZM6.67531 9.08997C7.02491 8.74997 7.19971 8.33997 7.19971 7.85997C7.19971 7.31997 7.01491 6.85517 6.64531 6.46557C6.27571 6.07597 5.91011 5.68077 5.54851 5.27997L5.39971 5.12997L5.24971 5.27997C4.88971 5.67997 4.52451 6.07517 4.15411 6.46557C3.78371 6.85597 3.59891 7.32077 3.59971 7.85997C3.59971 8.33997 3.77491 8.74997 4.12531 9.08997C4.47571 9.42997 4.90051 9.59997 5.39971 9.59997C5.89891 9.59997 6.32411 9.42997 6.67531 9.08997Z" fill="#212121"/>
</svg>
