<svg width="35" height="35" viewBox="0 0 35 35" fill="none" xmlns="http://www.w3.org/2000/svg">
<path d="M17.3994 26.1001C17.3994 27.5501 17.7619 28.8841 18.3709 30.0731L17.3994 30.9576L15.2969 29.0436C7.82941 22.2721 2.89941 17.7916 2.89941 12.3251C2.89941 7.8446 6.40841 4.3501 10.8744 4.3501C13.3974 4.3501 15.8189 5.5246 17.3994 7.3661C18.9799 5.5246 21.4014 4.3501 23.9244 4.3501C28.3904 4.3501 31.8994 7.8446 31.8994 12.3251C31.8994 14.3986 31.1744 16.3271 29.8984 18.2846C28.7529 17.7336 27.4624 17.4001 26.0994 17.4001C21.2999 17.4001 17.3994 21.3006 17.3994 26.1001ZM27.5494 20.3001H24.6494V24.6501H20.2994V27.5501H24.6494V31.9001H27.5494V27.5501H31.8994V24.6501H27.5494V20.3001Z" fill="#212121"/>
</svg>
