<svg width="38" height="38" viewBox="0 0 38 38" fill="none" xmlns="http://www.w3.org/2000/svg">
<g clip-path="url(#clip0_36_660)">
<path d="M4.46686 23.9407C4.55172 21.0879 2.99978 20.0137 1.10723 19.304C0.47832 21.7447 2.21393 23.7756 4.46686 23.9407ZM4.89524 11.2026C6.10191 8.61891 5.10216 7.01118 3.63974 5.61211C2.10466 7.60696 2.89399 10.1575 4.89524 11.2026ZM5.57588 18.395C5.49276 15.5439 7.04296 14.4651 8.93667 13.7583C9.56326 16.1978 7.82881 18.2281 5.57588 18.395ZM5.57588 22.7921C5.49276 19.9411 7.04296 18.8652 8.93667 18.1566C9.56326 20.5956 7.82881 22.6265 5.57588 22.7921ZM5.57588 13.9995C5.49276 11.1474 7.04296 10.0686 8.93667 9.36001C9.56326 11.8018 7.82881 13.8316 5.57588 13.9995ZM4.46686 19.5441C4.55172 16.6931 2.99978 15.6143 1.10723 14.9075C0.47832 17.347 2.21393 19.3779 4.46686 19.5441ZM4.46686 15.1487C4.55172 12.2959 2.99978 11.2177 1.10723 10.508C0.47832 12.951 2.21393 14.979 4.46686 15.1487ZM25.8388 36.659H10.5456L18.1931 23.4088L25.8388 36.659ZM13.5838 34.9042H22.8012L18.1925 26.9207L13.5838 34.9042ZM2.23428 27.6328L34.6337 18.8187L34.1525 17.0383L1.75068 25.8536L2.23428 27.6328ZM25.0966 0.368652C25.0966 0.368652 25.3337 5.04248 29.4304 4.64607C29.4304 4.64607 29.8925 0.741234 25.0966 0.368652ZM29.3856 15.5701C29.1656 15.8796 28.8745 16.1317 28.5368 16.3053C28.199 16.4788 27.8246 16.5688 27.4448 16.5675C26.7921 16.5675 26.1527 16.2606 25.7214 15.8305C24.8391 14.8679 23.6952 12.7161 23.6952 12.7161C23.0541 11.4147 22.7106 10.408 22.7106 9.39023C22.7106 7.22217 24.4653 5.34183 26.6392 5.34183C27.6666 5.34112 28.6531 5.74399 29.3862 6.46364C30.1187 5.74374 31.105 5.34081 32.132 5.34183C34.3053 5.34183 36.0601 7.22217 36.0601 9.39023C36.0601 10.408 35.716 11.4147 35.0755 12.7161C35.0755 12.7161 33.9316 14.8674 33.0492 15.8305C32.618 16.2606 31.9786 16.5675 31.3253 16.5675C30.9456 16.5687 30.5713 16.4787 30.2337 16.3051C29.896 16.1316 29.6056 15.8795 29.3856 15.5701Z" fill="#212121"/>
</g>
<defs>
<clipPath id="clip0_36_660">
<rect width="37.2" height="37.2" fill="white"/>
</clipPath>
</defs>
</svg>
