<svg width="35" height="35" viewBox="0 0 35 35" fill="none" xmlns="http://www.w3.org/2000/svg">
<path d="M17.3999 26.1001C17.3999 27.5501 17.7624 28.8841 18.3714 30.0731L17.3999 30.9576L15.2974 29.0436C7.8299 22.2721 2.8999 17.7916 2.8999 12.3251C2.8999 7.8446 6.4089 4.3501 10.8749 4.3501C13.3979 4.3501 15.8194 5.5246 17.3999 7.3661C18.9804 5.5246 21.4019 4.3501 23.9249 4.3501C28.3909 4.3501 31.8999 7.8446 31.8999 12.3251C31.8999 14.3986 31.1749 16.3271 29.8989 18.2846C28.7534 17.7336 27.4629 17.4001 26.0999 17.4001C21.3004 17.4001 17.3999 21.3006 17.3999 26.1001ZM27.5499 20.3001H24.6499V24.6501H20.2999V27.5501H24.6499V31.9001H27.5499V27.5501H31.8999V24.6501H27.5499V20.3001Z" fill="#212121"/>
</svg>
