<svg width="20" height="15" viewBox="0 0 20 15" fill="none" xmlns="http://www.w3.org/2000/svg">
<path d="M19.6947 0.292786C19.5072 0.105315 19.2529 0 18.9877 0C18.7225 0 18.4682 0.105315 18.2807 0.292786L6.30071 12.2728L1.69471 7.66879C1.50611 7.48663 1.25351 7.38583 0.991311 7.38811C0.729114 7.39039 0.478301 7.49556 0.292893 7.68097C0.107485 7.86638 0.00231622 8.11719 3.78026e-05 8.37938C-0.00224062 8.64158 0.0985538 8.89418 0.280712 9.08279L5.59271 14.3948C5.78024 14.5823 6.03455 14.6876 6.29971 14.6876C6.56488 14.6876 6.81918 14.5823 7.00671 14.3948L19.6947 1.70679C19.8822 1.51926 19.9875 1.26495 19.9875 0.999787C19.9875 0.734622 19.8822 0.480314 19.6947 0.292786Z" fill="#212121"/>
</svg>
