<svg width="297" height="196" viewBox="0 0 297 196" fill="none" xmlns="http://www.w3.org/2000/svg">
<rect width="292.671" height="195.896" rx="22.2609" fill="#9A9A9A" fill-opacity="0.34"/>
<path d="M21.8784 39.1304V20.4312H28.8772C30.3909 20.4312 31.6464 20.6895 32.6437 21.2059C33.641 21.7224 34.3801 22.4169 34.8609 23.2895C35.3417 24.1622 35.5821 25.1594 35.5821 26.2814C35.5821 27.3143 35.3506 28.2671 34.8876 29.1397C34.4246 30.0123 33.6944 30.7247 32.6971 31.2767C31.6999 31.811 30.4265 32.0781 28.8772 32.0781H25.4846V39.1304H21.8784ZM25.4846 29.1664H28.6635C29.821 29.1664 30.6491 28.9082 31.1478 28.3917C31.6642 27.8575 31.9225 27.154 31.9225 26.2814C31.9225 25.3553 31.6642 24.643 31.1478 24.1444C30.6491 23.6279 29.821 23.3697 28.6635 23.3697H25.4846V29.1664ZM40.7878 39.1304V20.4312H47.76C49.2737 20.4312 50.5203 20.6895 51.4998 21.2059C52.4793 21.7224 53.2094 22.4169 53.6903 23.2895C54.1711 24.1444 54.4115 25.0971 54.4115 26.1478C54.4115 27.1451 54.18 28.0801 53.717 28.9527C53.2539 29.8075 52.5238 30.5021 51.5265 31.0363C50.547 31.5528 49.2826 31.811 47.7332 31.811H44.3941V39.1304H40.7878ZM50.4847 39.1304L46.638 30.9028H50.5381L54.5985 39.1304H50.4847ZM44.3941 29.1931H47.5462C48.6326 29.1931 49.434 28.926 49.9504 28.3917C50.4669 27.8575 50.7251 27.154 50.7251 26.2814C50.7251 25.4088 50.4669 24.7231 49.9504 24.2245C49.4518 23.708 48.6504 23.4498 47.5462 23.4498H44.3941V29.1931ZM68.7691 39.4509C66.9526 39.4509 65.3499 39.0413 63.9608 38.2221C62.5717 37.4029 61.4854 36.2721 60.7018 34.8296C59.9182 33.3693 59.5264 31.6863 59.5264 29.7808C59.5264 27.8753 59.9182 26.2013 60.7018 24.7588C61.4854 23.2984 62.5717 22.1587 63.9608 21.3395C65.3499 20.5203 66.9526 20.1107 68.7691 20.1107C70.6034 20.1107 72.2151 20.5203 73.6042 21.3395C74.9933 22.1587 76.0707 23.2984 76.8365 24.7588C77.6201 26.2013 78.0118 27.8753 78.0118 29.7808C78.0118 31.6863 77.6201 33.3693 76.8365 34.8296C76.0707 36.2721 74.9933 37.4029 73.6042 38.2221C72.2151 39.0413 70.6034 39.4509 68.7691 39.4509ZM68.7691 36.2186C69.9089 36.2186 70.8884 35.9604 71.7076 35.444C72.5446 34.9097 73.1946 34.1617 73.6576 33.2001C74.1206 32.2384 74.3522 31.0986 74.3522 29.7808C74.3522 28.4452 74.1206 27.3054 73.6576 26.3615C73.1946 25.3999 72.5446 24.6608 71.7076 24.1444C70.8884 23.6279 69.9089 23.3697 68.7691 23.3697C67.6472 23.3697 66.6677 23.6279 65.8307 24.1444C64.9937 24.6608 64.3437 25.3999 63.8806 26.3615C63.4176 27.3054 63.1861 28.4452 63.1861 29.7808C63.1861 31.0986 63.4176 32.2384 63.8806 33.2001C64.3437 34.1617 64.9937 34.9097 65.8307 35.444C66.6677 35.9604 67.6472 36.2186 68.7691 36.2186ZM87.3176 39.1304V23.343H81.8414V20.4312H96.3466V23.343H90.8971V39.1304H87.3176ZM101.403 39.1304V20.4312H113.691V23.343H105.01V28.2314H112.89V31.0363H105.01V36.2186H113.691V39.1304H101.403ZM119.478 39.1304V20.4312H123.084V39.1304H119.478ZM129.257 39.1304V20.4312H132.863L141.465 33.3336V20.4312H145.071V39.1304H141.465L132.863 26.2547V39.1304H129.257Z" fill="white"/>
<path d="M31.3259 97.3058C29.545 97.3058 28.0016 96.9971 26.6956 96.3798C25.4134 95.7387 24.4042 94.872 23.6681 93.7797C22.932 92.6637 22.4928 91.4052 22.3503 90.0043H26.5175C26.7312 91.049 27.2655 91.9276 28.1203 92.6399C28.9751 93.3286 30.0436 93.6729 31.3259 93.6729C32.2994 93.6729 33.1305 93.4473 33.8191 92.9961C34.5077 92.5212 35.042 91.892 35.4219 91.1084C35.8255 90.3011 36.0274 89.3988 36.0274 88.4015C36.0274 87.3804 35.8255 86.49 35.4219 85.7302C35.042 84.9703 34.5077 84.3886 33.8191 83.9849C33.1305 83.5575 32.335 83.3438 31.4327 83.3438C30.3167 83.3438 29.355 83.605 28.5477 84.1274C27.7641 84.626 27.1943 85.2553 26.8381 86.0151H22.7065L24.7723 71.9462H38.5206V75.6861H27.9778L26.8381 81.8479C27.3842 81.2543 28.1084 80.7794 29.0107 80.4232C29.913 80.0433 30.946 79.8533 32.1095 79.8533C33.4154 79.8533 34.5671 80.0789 35.5643 80.53C36.5616 80.9812 37.4046 81.5986 38.0932 82.3821C38.7818 83.1657 39.2923 84.0799 39.6247 85.1247C39.9809 86.1457 40.159 87.2261 40.159 88.3659C40.159 89.6481 39.9453 90.8353 39.5179 91.9276C39.0905 92.9961 38.485 93.934 37.7014 94.7414C36.9415 95.5487 36.0155 96.1779 34.9232 96.6291C33.8547 97.0802 32.6556 97.3058 31.3259 97.3058ZM42.725 96.8784V93.7797C44.3159 92.5212 45.8356 91.2627 47.284 90.0043C48.7325 88.7458 50.0384 87.4992 51.2019 86.2644C52.3654 85.0297 53.2796 83.8187 53.9445 82.6315C54.6093 81.4442 54.9418 80.3045 54.9418 79.2122C54.9418 78.4998 54.8112 77.835 54.55 77.2176C54.2888 76.6002 53.8732 76.1016 53.3034 75.7217C52.7572 75.3418 52.0211 75.1518 51.0951 75.1518C50.1928 75.1518 49.4211 75.3536 48.78 75.7573C48.1626 76.161 47.6996 76.7071 47.3909 77.3957C47.0822 78.0606 46.9279 78.8204 46.9279 79.6752H42.7962C42.8437 77.8706 43.2355 76.3628 43.9716 75.1518C44.7077 73.9408 45.705 73.0385 46.9635 72.4449C48.2219 71.8275 49.6348 71.5188 51.2019 71.5188C52.8878 71.5188 54.3244 71.8275 55.5116 72.4449C56.6989 73.0623 57.6131 73.9289 58.2542 75.045C58.8953 76.161 59.2159 77.4788 59.2159 78.9985C59.2159 80.1145 59.0021 81.2186 58.5747 82.3109C58.1711 83.3794 57.6012 84.4242 56.8651 85.4452C56.129 86.4425 55.2979 87.4161 54.3719 88.3659C53.4696 89.2919 52.5317 90.1823 51.5581 91.0372C50.5846 91.8682 49.6466 92.6399 48.7443 93.3523H59.8926V96.8784H42.725ZM70.3924 105.142C68.7065 105.142 67.2224 104.928 65.9402 104.501C64.6817 104.097 63.6963 103.468 62.984 102.613C62.2953 101.782 61.951 100.737 61.951 99.4785C61.951 98.7424 62.1291 98.0182 62.4853 97.3058C62.8652 96.6172 63.4232 95.9761 64.1593 95.3825C64.9192 94.7651 65.8808 94.2309 67.0443 93.7797L68.9321 95.8455C67.7923 96.2492 66.9968 96.7359 66.5457 97.3058C66.0945 97.8757 65.869 98.4575 65.869 99.0511C65.869 99.6684 66.0589 100.179 66.4388 100.583C66.8425 101.01 67.3768 101.331 68.0416 101.544C68.7302 101.758 69.5019 101.865 70.3568 101.865C71.1878 101.865 71.912 101.746 72.5294 101.509C73.1468 101.295 73.6217 100.986 73.9541 100.583C74.3103 100.179 74.4884 99.6922 74.4884 99.1223C74.4884 98.41 74.239 97.8282 73.7404 97.3771C73.2418 96.9497 72.2563 96.6885 70.7842 96.5935C69.5257 96.4985 68.4215 96.3679 67.4717 96.2017C66.5219 96.0117 65.7027 95.798 65.0141 95.5606C64.3493 95.3231 63.7794 95.0619 63.3045 94.777C62.8296 94.4683 62.4378 94.1596 62.1291 93.8509V93.0317L65.869 89.1138L69.0389 90.1467L64.8361 94.2427L65.9402 92.1769C66.1776 92.3431 66.4151 92.4975 66.6525 92.6399C66.9137 92.7824 67.2343 92.913 67.6142 93.0317C68.0179 93.1267 68.5403 93.2217 69.1814 93.3167C69.8225 93.4117 70.6536 93.5066 71.6746 93.6016C73.2655 93.7203 74.5596 94.0053 75.5569 94.4564C76.5542 94.9076 77.2903 95.5131 77.7652 96.2729C78.2401 97.0328 78.4775 97.9469 78.4775 99.0155C78.4775 100.06 78.1807 101.046 77.5871 101.972C77.0172 102.898 76.1386 103.658 74.9514 104.251C73.7641 104.845 72.2445 105.142 70.3924 105.142ZM70.3924 91.5002C68.8964 91.5002 67.6023 91.2153 66.5101 90.6454C65.4416 90.0518 64.6224 89.2682 64.0525 88.2946C63.4826 87.2973 63.1977 86.2051 63.1977 85.0178C63.1977 83.8068 63.4826 82.7146 64.0525 81.741C64.6224 80.7675 65.4416 79.9839 66.5101 79.3903C67.6023 78.7967 68.8964 78.4998 70.3924 78.4998C71.8883 78.4998 73.1705 78.7967 74.239 79.3903C75.3076 79.9839 76.1268 80.7675 76.6966 81.741C77.2665 82.7146 77.5515 83.8068 77.5515 85.0178C77.5515 86.2051 77.2665 87.2973 76.6966 88.2946C76.1268 89.2682 75.3076 90.0518 74.239 90.6454C73.1705 91.2153 71.8883 91.5002 70.3924 91.5002ZM70.3924 88.1878C71.4134 88.1878 72.2326 87.9147 72.85 87.3686C73.4673 86.8224 73.776 86.0389 73.776 85.0178C73.776 83.9968 73.4673 83.2251 72.85 82.7027C72.2326 82.1566 71.4134 81.8835 70.3924 81.8835C69.3713 81.8835 68.5403 82.1566 67.8992 82.7027C67.258 83.2251 66.9375 83.9968 66.9375 85.0178C66.9375 86.0389 67.258 86.8224 67.8992 87.3686C68.5403 87.9147 69.3713 88.1878 70.3924 88.1878ZM73.3486 82.0616L72.5294 78.9273H79.9022V81.5986L73.3486 82.0616Z" fill="white"/>
<path d="M97.7407 99.1025L104.446 75.5149H107.571L100.866 99.1025H97.7407ZM117.939 96.2175L124.911 80.2698H115.508V77.5184H128.197V79.8157L121.278 96.2175H117.939ZM138.223 96.5381C136.531 96.5381 135.08 96.1374 133.869 95.336C132.658 94.5168 131.723 93.3859 131.064 91.9434C130.423 90.4831 130.102 88.7913 130.102 86.868C130.102 84.9446 130.423 83.2617 131.064 81.8192C131.723 80.3589 132.658 79.228 133.869 78.4266C135.08 77.6074 136.531 77.1978 138.223 77.1978C139.897 77.1978 141.331 77.6074 142.524 78.4266C143.735 79.228 144.661 80.3589 145.302 81.8192C145.961 83.2617 146.29 84.9446 146.29 86.868C146.29 88.7913 145.961 90.4831 145.302 91.9434C144.661 93.3859 143.735 94.5168 142.524 95.336C141.331 96.1374 139.897 96.5381 138.223 96.5381ZM138.196 93.6531C139.14 93.6531 139.977 93.3859 140.707 92.8517C141.438 92.2996 141.999 91.516 142.39 90.5009C142.8 89.4858 143.005 88.2748 143.005 86.868C143.005 85.4611 142.8 84.2501 142.39 83.235C141.999 82.2199 141.438 81.4452 140.707 80.911C139.977 80.3589 139.14 80.0828 138.196 80.0828C137.253 80.0828 136.416 80.3589 135.685 80.911C134.955 81.4452 134.385 82.2199 133.976 83.235C133.584 84.2501 133.388 85.4611 133.388 86.868C133.388 88.2748 133.584 89.4858 133.976 90.5009C134.385 91.516 134.955 92.2996 135.685 92.8517C136.416 93.3859 137.253 93.6531 138.196 93.6531ZM154.979 102.415C153.714 102.415 152.601 102.255 151.64 101.934C150.696 101.631 149.957 101.159 149.422 100.518C148.906 99.895 148.648 99.1114 148.648 98.1676C148.648 97.6155 148.781 97.0723 149.048 96.5381C149.333 96.0216 149.752 95.5408 150.304 95.0956C150.874 94.6326 151.595 94.2319 152.468 93.8935L153.883 95.4429C153.029 95.7456 152.432 96.1107 152.094 96.5381C151.755 96.9655 151.586 97.4018 151.586 97.847C151.586 98.3101 151.729 98.6929 152.013 98.9957C152.316 99.3162 152.717 99.5567 153.216 99.7169C153.732 99.8772 154.311 99.9574 154.952 99.9574C155.575 99.9574 156.118 99.8683 156.581 99.6902C157.044 99.5299 157.401 99.2984 157.65 98.9957C157.917 98.6929 158.051 98.3279 158.051 97.9005C158.051 97.3662 157.864 96.9299 157.49 96.5915C157.116 96.271 156.377 96.0751 155.272 96.0038C154.329 95.9326 153.501 95.8346 152.788 95.71C152.076 95.5675 151.461 95.4072 150.945 95.2291C150.446 95.0511 150.019 94.8552 149.663 94.6415C149.307 94.4099 149.013 94.1784 148.781 93.9469V93.3325L151.586 90.3941L153.964 91.1688L150.811 94.2408L151.64 92.6914C151.818 92.8161 151.996 92.9318 152.174 93.0387C152.37 93.1455 152.61 93.2435 152.895 93.3325C153.198 93.4038 153.59 93.475 154.07 93.5462C154.551 93.6175 155.175 93.6887 155.94 93.7599C157.133 93.849 158.104 94.0627 158.852 94.401C159.6 94.7394 160.152 95.1935 160.508 95.7634C160.864 96.3333 161.043 97.0189 161.043 97.8203C161.043 98.6039 160.82 99.343 160.375 100.037C159.947 100.732 159.288 101.302 158.398 101.747C157.507 102.192 156.368 102.415 154.979 102.415ZM154.979 92.1839C153.857 92.1839 152.886 91.9702 152.067 91.5427C151.266 91.0975 150.651 90.5098 150.224 89.7797C149.796 89.0317 149.583 88.2125 149.583 87.3221C149.583 86.4138 149.796 85.5946 150.224 84.8645C150.651 84.1343 151.266 83.5466 152.067 83.1014C152.886 82.6562 153.857 82.4336 154.979 82.4336C156.101 82.4336 157.062 82.6562 157.864 83.1014C158.665 83.5466 159.279 84.1343 159.707 84.8645C160.134 85.5946 160.348 86.4138 160.348 87.3221C160.348 88.2125 160.134 89.0317 159.707 89.7797C159.279 90.5098 158.665 91.0975 157.864 91.5427C157.062 91.9702 156.101 92.1839 154.979 92.1839ZM154.979 89.6995C155.744 89.6995 156.359 89.4947 156.822 89.0851C157.285 88.6755 157.516 88.0879 157.516 87.3221C157.516 86.5563 157.285 85.9775 156.822 85.5857C156.359 85.1761 155.744 84.9713 154.979 84.9713C154.213 84.9713 153.59 85.1761 153.109 85.5857C152.628 85.9775 152.387 86.5563 152.387 87.3221C152.387 88.0879 152.628 88.6755 153.109 89.0851C153.59 89.4947 154.213 89.6995 154.979 89.6995ZM157.196 85.1049L156.581 82.7542H162.111V84.7576L157.196 85.1049Z" fill="white"/>
<mask id="path-5-inside-1_2620_1041" fill="white">
<path d="M11.1309 133.565C11.1309 128.648 15.1175 124.661 20.0352 124.661H256C260.918 124.661 264.905 128.648 264.905 133.565C264.905 138.483 260.918 142.47 256 142.47H20.0352C15.1175 142.47 11.1309 138.483 11.1309 133.565Z"/>
</mask>
<path d="M11.1309 133.565C11.1309 128.648 15.1175 124.661 20.0352 124.661H256C260.918 124.661 264.905 128.648 264.905 133.565C264.905 138.483 260.918 142.47 256 142.47H20.0352C15.1175 142.47 11.1309 138.483 11.1309 133.565Z" fill="white" fill-opacity="0.5"/>
<path d="M11.1309 133.565M264.905 133.565M264.905 133.565M11.1309 133.565M20.0352 124.661V127.44H256V124.661V121.882H20.0352V124.661ZM264.905 133.565M256 142.47V139.691H20.0352V142.47V145.248H256V142.47ZM11.1309 133.565M20.0352 142.47V139.691C16.6521 139.691 13.9095 136.949 13.9095 133.565H11.1309H8.3522C8.3522 140.018 13.5829 145.248 20.0352 145.248V142.47ZM264.905 133.565H262.126C262.126 136.949 259.384 139.691 256 139.691V142.47V145.248C262.453 145.248 267.683 140.018 267.683 133.565H264.905ZM256 124.661V127.44C259.384 127.44 262.126 130.182 262.126 133.565H264.905H267.683C267.683 127.113 262.453 121.882 256 121.882V124.661ZM20.0352 124.661V121.882C13.5829 121.882 8.3522 127.113 8.3522 133.565H11.1309H13.9095C13.9095 130.182 16.6521 127.44 20.0352 127.44V124.661Z" fill="white" fill-opacity="0.5" mask="url(#path-5-inside-1_2620_1041)"/>
<path d="M13.9092 132.997C13.9092 129.928 16.3973 127.439 19.4665 127.439H181.892C184.961 127.439 187.449 129.928 187.449 132.997C187.449 136.066 184.961 138.554 181.892 138.554H19.4665C16.3973 138.554 13.9092 136.066 13.9092 132.997Z" fill="#5D5589"/>
<path d="M19.7235 179.374V164.335L16.4111 165.19V162.705L21.0058 160.675H23.0092V179.374H19.7235ZM33.2311 179.695C31.9667 179.695 30.827 179.472 29.8119 179.027C28.7968 178.564 27.9865 177.923 27.381 177.104C26.7933 176.267 26.4995 175.287 26.4995 174.165C26.4995 173.417 26.633 172.723 26.9002 172.082C27.1673 171.44 27.5502 170.888 28.0488 170.425C28.5475 169.945 29.1262 169.588 29.7852 169.357C28.9125 168.965 28.218 168.422 27.7015 167.727C27.2029 167.015 26.9536 166.223 26.9536 165.35C26.9536 164.442 27.194 163.614 27.6748 162.866C28.1557 162.118 28.8591 161.512 29.7852 161.049C30.729 160.586 31.8777 160.355 33.2311 160.355C34.5846 160.355 35.7244 160.586 36.6504 161.049C37.5765 161.512 38.2799 162.118 38.7607 162.866C39.2416 163.614 39.482 164.442 39.482 165.35C39.482 166.205 39.2238 166.997 38.7073 167.727C38.2087 168.44 37.523 168.983 36.6504 169.357C37.3271 169.588 37.9059 169.945 38.3868 170.425C38.8854 170.906 39.2683 171.467 39.5354 172.108C39.8204 172.732 39.9628 173.417 39.9628 174.165C39.9628 175.287 39.6601 176.267 39.0546 177.104C38.4491 177.923 37.6388 178.564 36.6237 179.027C35.6264 179.472 34.4956 179.695 33.2311 179.695ZM33.2311 176.997C34.4065 176.997 35.2881 176.712 35.8757 176.142C36.4812 175.554 36.784 174.815 36.784 173.925C36.784 172.928 36.4634 172.162 35.8223 171.627C35.199 171.075 34.3353 170.799 33.2311 170.799C32.127 170.799 31.2455 171.075 30.5866 171.627C29.9454 172.162 29.6249 172.928 29.6249 173.925C29.6249 174.815 29.9276 175.554 30.5331 176.142C31.1564 176.712 32.0558 176.997 33.2311 176.997ZM33.2311 168.368C34.1928 168.368 34.9408 168.119 35.475 167.621C36.0271 167.104 36.3031 166.463 36.3031 165.697C36.3031 164.825 36.0271 164.157 35.475 163.694C34.9408 163.213 34.1928 162.972 33.2311 162.972C32.2695 162.972 31.5126 163.213 30.9605 163.694C30.4263 164.157 30.1591 164.825 30.1591 165.697C30.1591 166.481 30.4263 167.122 30.9605 167.621C31.5126 168.119 32.2695 168.368 33.2311 168.368ZM49.0186 185.572C47.7541 185.572 46.6411 185.411 45.6794 185.091C44.7356 184.788 43.9965 184.316 43.4622 183.675C42.9458 183.052 42.6876 182.268 42.6876 181.324C42.6876 180.772 42.8211 180.229 43.0883 179.695C43.3732 179.178 43.7917 178.698 44.3438 178.252C44.9137 177.789 45.6349 177.389 46.5075 177.05L47.9233 178.6C47.0685 178.902 46.4719 179.267 46.1335 179.695C45.7952 180.122 45.626 180.559 45.626 181.004C45.626 181.467 45.7685 181.85 46.0534 182.152C46.3562 182.473 46.7569 182.713 47.2555 182.874C47.7719 183.034 48.3507 183.114 48.9918 183.114C49.6152 183.114 50.1583 183.025 50.6213 182.847C51.0844 182.687 51.4405 182.455 51.6899 182.152C51.957 181.85 52.0906 181.485 52.0906 181.057C52.0906 180.523 51.9036 180.087 51.5296 179.748C51.1556 179.428 50.4165 179.232 49.3124 179.161C48.3685 179.089 47.5404 178.991 46.8281 178.867C46.1157 178.724 45.5013 178.564 44.9849 178.386C44.4862 178.208 44.0588 178.012 43.7027 177.798C43.3465 177.567 43.0526 177.335 42.8211 177.104V176.489L45.626 173.551L48.0035 174.326L44.8513 177.398L45.6794 175.848C45.8575 175.973 46.0356 176.089 46.2137 176.195C46.4096 176.302 46.65 176.4 46.9349 176.489C47.2377 176.56 47.6295 176.632 48.1103 176.703C48.5911 176.774 49.2145 176.845 49.9802 176.917C51.1734 177.006 52.144 177.219 52.892 177.558C53.6399 177.896 54.192 178.35 54.5482 178.92C54.9043 179.49 55.0824 180.176 55.0824 180.977C55.0824 181.761 54.8598 182.5 54.4146 183.194C53.9872 183.889 53.3283 184.459 52.4378 184.904C51.5474 185.349 50.4076 185.572 49.0186 185.572ZM49.0186 175.341C47.8966 175.341 46.926 175.127 46.1068 174.699C45.3054 174.254 44.691 173.667 44.2636 172.936C43.8362 172.188 43.6225 171.369 43.6225 170.479C43.6225 169.571 43.8362 168.751 44.2636 168.021C44.691 167.291 45.3054 166.703 46.1068 166.258C46.926 165.813 47.8966 165.59 49.0186 165.59C50.1405 165.59 51.1022 165.813 51.9036 166.258C52.705 166.703 53.3194 167.291 53.7468 168.021C54.1742 168.751 54.3879 169.571 54.3879 170.479C54.3879 171.369 54.1742 172.188 53.7468 172.936C53.3194 173.667 52.705 174.254 51.9036 174.699C51.1022 175.127 50.1405 175.341 49.0186 175.341ZM49.0186 172.856C49.7843 172.856 50.3987 172.651 50.8618 172.242C51.3248 171.832 51.5563 171.245 51.5563 170.479C51.5563 169.713 51.3248 169.134 50.8618 168.742C50.3987 168.333 49.7843 168.128 49.0186 168.128C48.2528 168.128 47.6295 168.333 47.1486 168.742C46.6678 169.134 46.4274 169.713 46.4274 170.479C46.4274 171.245 46.6678 171.832 47.1486 172.242C47.6295 172.651 48.2528 172.856 49.0186 172.856ZM51.2357 168.262L50.6213 165.911H56.1509V167.914L51.2357 168.262ZM65.5032 179.374V165.911H68.3615L68.6554 168.422C68.9759 167.834 69.3766 167.336 69.8574 166.926C70.3383 166.499 70.8993 166.169 71.5404 165.938C72.1993 165.706 72.9205 165.59 73.7041 165.59V168.983H72.5822C72.0479 168.983 71.5404 169.054 71.0595 169.197C70.5787 169.321 70.1602 169.535 69.804 169.838C69.4657 170.123 69.1985 170.523 69.0026 171.04C68.8067 171.538 68.7088 172.171 68.7088 172.936V179.374H65.5032ZM82.1379 179.695C80.8023 179.695 79.6269 179.41 78.6118 178.84C77.5967 178.252 76.8042 177.433 76.2344 176.382C75.6645 175.332 75.3795 174.121 75.3795 172.749C75.3795 171.325 75.6556 170.078 76.2076 169.01C76.7775 167.941 77.57 167.104 78.5851 166.499C79.618 165.893 80.8112 165.59 82.1646 165.59C83.4825 165.59 84.6312 165.884 85.6106 166.472C86.5901 167.06 87.347 167.852 87.8812 168.849C88.4155 169.829 88.6826 170.933 88.6826 172.162C88.6826 172.34 88.6826 172.536 88.6826 172.749C88.6826 172.963 88.6648 173.186 88.6292 173.417H77.6769V171.36H85.4504C85.4147 170.381 85.0853 169.615 84.462 169.063C83.8387 168.493 83.064 168.208 82.1379 168.208C81.479 168.208 80.8735 168.36 80.3214 168.662C79.7694 168.965 79.3331 169.419 79.0125 170.025C78.692 170.612 78.5317 171.36 78.5317 172.269V173.043C78.5317 173.88 78.683 174.602 78.9858 175.207C79.3064 175.813 79.7338 176.276 80.268 176.596C80.8201 176.899 81.4345 177.05 82.1112 177.05C82.8592 177.05 83.4736 176.89 83.9544 176.569C84.4531 176.249 84.8181 175.821 85.0497 175.287H88.3086C88.0593 176.124 87.6497 176.881 87.0798 177.558C86.51 178.217 85.8065 178.742 84.9695 179.134C84.1325 179.508 83.1886 179.695 82.1379 179.695ZM91.6424 179.374V165.911H94.4739L94.7411 167.754C95.1685 167.077 95.7294 166.552 96.424 166.178C97.1363 165.786 97.9466 165.59 98.8549 165.59C99.5316 165.59 100.137 165.679 100.671 165.857C101.223 166.036 101.704 166.303 102.114 166.659C102.541 167.015 102.889 167.46 103.156 167.995C103.654 167.247 104.304 166.659 105.106 166.231C105.907 165.804 106.78 165.59 107.724 165.59C108.846 165.59 109.798 165.822 110.582 166.285C111.365 166.73 111.962 167.398 112.372 168.288C112.781 169.161 112.986 170.238 112.986 171.521V179.374H109.807V171.841C109.807 170.701 109.576 169.829 109.113 169.223C108.65 168.618 107.964 168.315 107.056 168.315C106.432 168.315 105.88 168.466 105.4 168.769C104.937 169.072 104.571 169.517 104.304 170.105C104.037 170.675 103.904 171.378 103.904 172.215V179.374H100.725V171.841C100.725 170.701 100.493 169.829 100.03 169.223C99.5672 168.618 98.8727 168.315 97.9466 168.315C97.3589 168.315 96.8247 168.466 96.3438 168.769C95.8808 169.072 95.5157 169.517 95.2486 170.105C94.9815 170.675 94.8479 171.378 94.8479 172.215V179.374H91.6424ZM120.861 179.695C119.756 179.695 118.839 179.508 118.109 179.134C117.379 178.76 116.836 178.261 116.48 177.638C116.123 177.015 115.945 176.338 115.945 175.608C115.945 174.753 116.159 174.014 116.586 173.391C117.032 172.767 117.682 172.286 118.537 171.948C119.391 171.592 120.442 171.414 121.689 171.414H125.081C125.081 170.701 124.983 170.114 124.787 169.651C124.592 169.17 124.289 168.814 123.879 168.582C123.47 168.351 122.944 168.235 122.303 168.235C121.573 168.235 120.95 168.404 120.433 168.742C119.917 169.063 119.596 169.562 119.472 170.238H116.319C116.426 169.277 116.747 168.458 117.281 167.781C117.815 167.086 118.519 166.552 119.391 166.178C120.282 165.786 121.252 165.59 122.303 165.59C123.568 165.59 124.645 165.813 125.535 166.258C126.426 166.686 127.103 167.309 127.566 168.128C128.046 168.929 128.287 169.9 128.287 171.04V179.374H125.562L125.242 177.211C125.063 177.567 124.832 177.896 124.547 178.199C124.28 178.502 123.968 178.769 123.612 179C123.256 179.214 122.846 179.383 122.383 179.508C121.938 179.632 121.43 179.695 120.861 179.695ZM121.582 177.157C122.098 177.157 122.552 177.068 122.944 176.89C123.354 176.694 123.701 176.427 123.986 176.089C124.289 175.732 124.52 175.341 124.681 174.913C124.841 174.486 124.948 174.032 125.001 173.551V173.497H122.036C121.413 173.497 120.896 173.578 120.487 173.738C120.077 173.88 119.783 174.094 119.605 174.379C119.427 174.664 119.338 174.993 119.338 175.367C119.338 175.741 119.427 176.062 119.605 176.329C119.783 176.596 120.041 176.801 120.38 176.943C120.718 177.086 121.119 177.157 121.582 177.157ZM131.845 179.374V165.911H135.051V179.374H131.845ZM133.448 163.774C132.861 163.774 132.371 163.596 131.979 163.24C131.605 162.866 131.418 162.411 131.418 161.877C131.418 161.325 131.605 160.88 131.979 160.542C132.371 160.185 132.861 160.007 133.448 160.007C134.036 160.007 134.517 160.185 134.891 160.542C135.283 160.88 135.478 161.325 135.478 161.877C135.478 162.411 135.283 162.866 134.891 163.24C134.517 163.596 134.036 163.774 133.448 163.774ZM138.755 179.374V165.911H141.587L141.827 168.155C142.237 167.371 142.825 166.748 143.59 166.285C144.356 165.822 145.264 165.59 146.315 165.59C147.402 165.59 148.328 165.822 149.093 166.285C149.859 166.73 150.447 167.389 150.856 168.262C151.284 169.134 151.498 170.221 151.498 171.521V179.374H148.292V171.814C148.292 170.693 148.043 169.829 147.544 169.223C147.045 168.618 146.306 168.315 145.327 168.315C144.686 168.315 144.107 168.466 143.59 168.769C143.092 169.072 142.691 169.517 142.388 170.105C142.103 170.675 141.961 171.369 141.961 172.188V179.374H138.755ZM155.011 179.374V165.911H158.216V179.374H155.011ZM156.613 163.774C156.026 163.774 155.536 163.596 155.144 163.24C154.77 162.866 154.583 162.411 154.583 161.877C154.583 161.325 154.77 160.88 155.144 160.542C155.536 160.185 156.026 160.007 156.613 160.007C157.201 160.007 157.682 160.185 158.056 160.542C158.448 160.88 158.644 161.325 158.644 161.877C158.644 162.411 158.448 162.866 158.056 163.24C157.682 163.596 157.201 163.774 156.613 163.774ZM161.921 179.374V165.911H164.752L164.993 168.155C165.402 167.371 165.99 166.748 166.756 166.285C167.521 165.822 168.43 165.59 169.48 165.59C170.567 165.59 171.493 165.822 172.259 166.285C173.024 166.73 173.612 167.389 174.022 168.262C174.449 169.134 174.663 170.221 174.663 171.521V179.374H171.457V171.814C171.457 170.693 171.208 169.829 170.709 169.223C170.211 168.618 169.472 168.315 168.492 168.315C167.851 168.315 167.272 168.466 166.756 168.769C166.257 169.072 165.856 169.517 165.554 170.105C165.269 170.675 165.126 171.369 165.126 172.188V179.374H161.921ZM183.706 185.572C182.441 185.572 181.328 185.411 180.366 185.091C179.423 184.788 178.683 184.316 178.149 183.675C177.633 183.052 177.375 182.268 177.375 181.324C177.375 180.772 177.508 180.229 177.775 179.695C178.06 179.178 178.479 178.698 179.031 178.252C179.601 177.789 180.322 177.389 181.194 177.05L182.61 178.6C181.755 178.902 181.159 179.267 180.821 179.695C180.482 180.122 180.313 180.559 180.313 181.004C180.313 181.467 180.455 181.85 180.74 182.152C181.043 182.473 181.444 182.713 181.942 182.874C182.459 183.034 183.038 183.114 183.679 183.114C184.302 183.114 184.845 183.025 185.308 182.847C185.771 182.687 186.128 182.455 186.377 182.152C186.644 181.85 186.778 181.485 186.778 181.057C186.778 180.523 186.591 180.087 186.217 179.748C185.843 179.428 185.104 179.232 183.999 179.161C183.056 179.089 182.227 178.991 181.515 178.867C180.803 178.724 180.188 178.564 179.672 178.386C179.173 178.208 178.746 178.012 178.39 177.798C178.033 177.567 177.74 177.335 177.508 177.104V176.489L180.313 173.551L182.69 174.326L179.538 177.398L180.366 175.848C180.544 175.973 180.723 176.089 180.901 176.195C181.097 176.302 181.337 176.4 181.622 176.489C181.925 176.56 182.316 176.632 182.797 176.703C183.278 176.774 183.901 176.845 184.667 176.917C185.86 177.006 186.831 177.219 187.579 177.558C188.327 177.896 188.879 178.35 189.235 178.92C189.591 179.49 189.769 180.176 189.769 180.977C189.769 181.761 189.547 182.5 189.102 183.194C188.674 183.889 188.015 184.459 187.125 184.904C186.234 185.349 185.095 185.572 183.706 185.572ZM183.706 175.341C182.584 175.341 181.613 175.127 180.794 174.699C179.992 174.254 179.378 173.667 178.951 172.936C178.523 172.188 178.309 171.369 178.309 170.479C178.309 169.571 178.523 168.751 178.951 168.021C179.378 167.291 179.992 166.703 180.794 166.258C181.613 165.813 182.584 165.59 183.706 165.59C184.827 165.59 185.789 165.813 186.591 166.258C187.392 166.703 188.006 167.291 188.434 168.021C188.861 168.751 189.075 169.571 189.075 170.479C189.075 171.369 188.861 172.188 188.434 172.936C188.006 173.667 187.392 174.254 186.591 174.699C185.789 175.127 184.827 175.341 183.706 175.341ZM183.706 172.856C184.471 172.856 185.086 172.651 185.549 172.242C186.012 171.832 186.243 171.245 186.243 170.479C186.243 169.713 186.012 169.134 185.549 168.742C185.086 168.333 184.471 168.128 183.706 168.128C182.94 168.128 182.316 168.333 181.836 168.742C181.355 169.134 181.114 169.713 181.114 170.479C181.114 171.245 181.355 171.832 181.836 172.242C182.316 172.651 182.94 172.856 183.706 172.856ZM185.923 168.262L185.308 165.911H190.838V167.914L185.923 168.262Z" fill="white"/>
</svg>
