<svg width="298" height="200" viewBox="0 0 298 200" fill="none" xmlns="http://www.w3.org/2000/svg">
<rect width="297.66" height="199.235" rx="22.6403" fill="#9A9A9A" fill-opacity="0.34"/>
<path d="M22.2516 43.3762V24.3584H34.6403V27.3197H25.9193V32.4002H32.9016V35.2801H25.9193V43.3762H22.2516ZM35.8678 43.3762L42.8229 24.3584H46.9797L53.9076 43.3762H50.0226L44.8877 28.5423L39.7257 43.3762H35.8678ZM38.9379 39.0565L39.9159 36.2038H49.5879L50.5387 39.0565H38.9379ZM60.6849 43.3762V27.3197H55.1154V24.3584H69.8678V27.3197H64.3255V43.3762H60.6849ZM80.6953 43.7022C79.3187 43.7022 78.0871 43.4668 77.0004 42.9959C75.9318 42.5249 75.0805 41.8367 74.4466 40.9311C73.8307 40.0255 73.5138 38.9297 73.4957 37.6437H77.3807C77.3989 38.2052 77.5438 38.7123 77.8154 39.1651C78.0871 39.6179 78.4584 39.9802 78.9293 40.2519C79.4184 40.5054 79.998 40.6322 80.6681 40.6322C81.2477 40.6322 81.7458 40.5417 82.1624 40.3605C82.5971 40.1613 82.9321 39.8896 83.1676 39.5455C83.4031 39.2014 83.5208 38.7938 83.5208 38.3229C83.5208 37.7795 83.3849 37.3267 83.1133 36.9645C82.8597 36.6022 82.4974 36.2943 82.0265 36.0408C81.5737 35.7872 81.0394 35.5608 80.4236 35.3616C79.8259 35.1442 79.192 34.9178 78.5218 34.6823C77.0185 34.1933 75.8684 33.5413 75.0714 32.7262C74.2926 31.9112 73.9032 30.8335 73.9032 29.4932C73.9032 28.3521 74.1749 27.3741 74.7182 26.559C75.2797 25.744 76.0495 25.1191 77.0276 24.6844C78.0056 24.2497 79.1195 24.0324 80.3693 24.0324C81.6552 24.0324 82.7782 24.2588 83.7381 24.7116C84.7162 25.1463 85.486 25.7802 86.0474 26.6133C86.627 27.4465 86.9259 28.4246 86.944 29.5475H83.0318C83.0136 29.1309 82.8869 28.7415 82.6514 28.3793C82.4341 27.9989 82.1261 27.7001 81.7277 27.4827C81.3292 27.2473 80.8583 27.1295 80.3149 27.1295C79.844 27.1114 79.4093 27.1839 79.0108 27.3469C78.6305 27.5099 78.3226 27.7544 78.0871 28.0804C77.8698 28.3883 77.7611 28.7778 77.7611 29.2487C77.7611 29.7015 77.8698 30.0818 78.0871 30.3897C78.3226 30.6977 78.6395 30.9693 79.038 31.2048C79.4365 31.4221 79.9074 31.6304 80.4508 31.8297C80.9941 32.0108 81.5828 32.201 82.2167 32.4002C83.1585 32.7262 84.0279 33.1156 84.8249 33.5684C85.6218 34.0031 86.2557 34.5737 86.7267 35.2801C87.1976 35.9864 87.433 36.9192 87.433 38.0784C87.433 39.0746 87.1704 39.9983 86.6451 40.8496C86.1199 41.7008 85.3592 42.3891 84.363 42.9144C83.3849 43.4396 82.1624 43.7022 80.6953 43.7022Z" fill="white"/>
<path d="M34.3287 100.902V96.084H21.7588V92.6065L33.7129 75.5447H38.6394V92.2804H42.0808V96.084H38.6394V100.902H34.3287ZM26.4318 92.2804H34.5823V80.3264L26.4318 92.2804ZM55.306 101.337C53.0118 101.337 51.0436 100.793 49.4014 99.7064C47.7593 98.5956 46.4914 97.0621 45.5979 95.1059C44.7285 93.1257 44.2938 90.8315 44.2938 88.2233C44.2938 85.6151 44.7285 83.333 45.5979 81.3769C46.4914 79.3966 47.7593 77.8631 49.4014 76.7764C51.0436 75.6655 53.0118 75.11 55.306 75.11C57.5761 75.11 59.5201 75.6655 61.1382 76.7764C62.7803 77.8631 64.0361 79.3966 64.9055 81.3769C65.799 83.333 66.2458 85.6151 66.2458 88.2233C66.2458 90.8315 65.799 93.1257 64.9055 95.1059C64.0361 97.0621 62.7803 98.5956 61.1382 99.7064C59.5201 100.793 57.5761 101.337 55.306 101.337ZM55.2698 97.4243C56.5497 97.4243 57.6848 97.0621 58.6749 96.3376C59.665 95.5889 60.4257 94.5263 60.957 93.1498C61.5125 91.7733 61.7902 90.1311 61.7902 88.2233C61.7902 86.3155 61.5125 84.6733 60.957 83.2968C60.4257 81.9202 59.665 80.8697 58.6749 80.1452C57.6848 79.3966 56.5497 79.0223 55.2698 79.0223C53.9899 79.0223 52.8548 79.3966 51.8647 80.1452C50.8746 80.8697 50.1018 81.9202 49.5463 83.2968C49.015 84.6733 48.7494 86.3155 48.7494 88.2233C48.7494 90.1311 49.015 91.7733 49.5463 93.1498C50.1018 94.5263 50.8746 95.5889 51.8647 96.3376C52.8548 97.0621 53.9899 97.4243 55.2698 97.4243ZM77.3536 109.306C75.639 109.306 74.1297 109.089 72.8256 108.654C71.5457 108.243 70.5434 107.603 69.819 106.734C69.1186 105.889 68.7684 104.826 68.7684 103.546C68.7684 102.798 68.9496 102.061 69.3118 101.337C69.6982 100.636 70.2657 99.9842 71.0144 99.3804C71.7871 98.7525 72.7652 98.2092 73.9485 97.7503L75.8684 99.8513C74.7093 100.262 73.9002 100.757 73.4414 101.337C72.9826 101.916 72.7531 102.508 72.7531 103.112C72.7531 103.739 72.9463 104.259 73.3327 104.669C73.7433 105.104 74.2866 105.43 74.9628 105.647C75.6632 105.865 76.448 105.973 77.3174 105.973C78.1627 105.973 78.8992 105.853 79.5271 105.611C80.155 105.394 80.638 105.08 80.9761 104.669C81.3383 104.259 81.5195 103.764 81.5195 103.184C81.5195 102.46 81.2659 101.868 80.7587 101.409C80.2516 100.974 79.2494 100.709 77.7521 100.612C76.4722 100.515 75.3492 100.383 74.3832 100.214C73.4172 100.02 72.5841 99.803 71.8837 99.5615C71.2076 99.3201 70.628 99.0544 70.145 98.7646C69.662 98.4507 69.2635 98.1367 68.9496 97.8228V96.9896L72.7531 93.0049L75.9771 94.0554L71.7026 98.2212L72.8256 96.1202C73.0671 96.2893 73.3086 96.4462 73.5501 96.5911C73.8157 96.736 74.1417 96.8689 74.5281 96.9896C74.9387 97.0862 75.47 97.1828 76.122 97.2794C76.774 97.376 77.6193 97.4726 78.6577 97.5692C80.2757 97.69 81.5919 97.9797 82.6062 98.4386C83.6205 98.8974 84.3691 99.5133 84.8521 100.286C85.3351 101.059 85.5766 101.989 85.5766 103.075C85.5766 104.138 85.2747 105.14 84.671 106.082C84.0914 107.024 83.1979 107.797 81.9904 108.4C80.7829 109.004 79.2373 109.306 77.3536 109.306ZM77.3536 95.432C75.8322 95.432 74.5161 95.1422 73.4052 94.5626C72.3184 93.9588 71.4853 93.1619 70.9057 92.1718C70.3261 91.1575 70.0363 90.0466 70.0363 88.8391C70.0363 87.6075 70.3261 86.4966 70.9057 85.5065C71.4853 84.5163 72.3184 83.7194 73.4052 83.1156C74.5161 82.5119 75.8322 82.21 77.3536 82.21C78.8751 82.21 80.1792 82.5119 81.2659 83.1156C82.3526 83.7194 83.1858 84.5163 83.7654 85.5065C84.345 86.4966 84.6348 87.6075 84.6348 88.8391C84.6348 90.0466 84.345 91.1575 83.7654 92.1718C83.1858 93.1619 82.3526 93.9588 81.2659 94.5626C80.1792 95.1422 78.8751 95.432 77.3536 95.432ZM77.3536 92.0631C78.3921 92.0631 79.2252 91.7854 79.8531 91.2299C80.481 90.6745 80.795 89.8775 80.795 88.8391C80.795 87.8007 80.481 87.0158 79.8531 86.4845C79.2252 85.9291 78.3921 85.6514 77.3536 85.6514C76.3152 85.6514 75.47 85.9291 74.8179 86.4845C74.1659 87.0158 73.8399 87.8007 73.8399 88.8391C73.8399 89.8775 74.1659 90.6745 74.8179 91.2299C75.47 91.7854 76.3152 92.0631 77.3536 92.0631ZM80.3603 85.8325L79.5271 82.6447H87.0256V85.3616L80.3603 85.8325Z" fill="white"/>
<path d="M102.33 105.055L109.122 80.7936H112.681L105.889 105.055H102.33ZM128.36 102.284C126.984 102.284 125.788 102.039 124.774 101.55C123.778 101.061 122.999 100.391 122.438 99.5398C121.876 98.6885 121.55 97.7195 121.459 96.6328H125.046C125.172 97.3391 125.535 97.9368 126.132 98.4259C126.73 98.9149 127.482 99.1594 128.387 99.1594C129.039 99.1594 129.61 98.9964 130.099 98.6704C130.588 98.3444 130.968 97.9097 131.24 97.3663C131.512 96.8048 131.648 96.1709 131.648 95.4645C131.648 94.74 131.503 94.1152 131.213 93.5899C130.941 93.0647 130.561 92.6571 130.072 92.3673C129.601 92.0775 129.058 91.9326 128.442 91.9326C127.663 91.9326 126.993 92.1228 126.431 92.5032C125.888 92.8654 125.498 93.3092 125.263 93.8344H121.704L123.28 82.9399H133.957V86.1458H125.997L125.209 90.384C125.607 89.9675 126.141 89.6324 126.812 89.3788C127.482 89.1071 128.233 88.9713 129.067 88.9713C130.099 88.9713 130.996 89.1524 131.756 89.5147C132.517 89.8588 133.151 90.3388 133.658 90.9546C134.165 91.5523 134.546 92.2405 134.799 93.0194C135.053 93.7801 135.179 94.5861 135.179 95.4374C135.179 96.4335 135.007 97.3482 134.663 98.1814C134.337 99.0145 133.866 99.739 133.251 100.355C132.653 100.971 131.937 101.451 131.104 101.795C130.289 102.121 129.374 102.284 128.36 102.284ZM145.261 102.284C143.884 102.284 142.689 102.039 141.675 101.55C140.678 101.061 139.9 100.391 139.338 99.5398C138.777 98.6885 138.451 97.7195 138.36 96.6328H141.946C142.073 97.3391 142.435 97.9368 143.033 98.4259C143.631 98.9149 144.382 99.1594 145.288 99.1594C145.94 99.1594 146.511 98.9964 147 98.6704C147.489 98.3444 147.869 97.9097 148.141 97.3663C148.412 96.8048 148.548 96.1709 148.548 95.4645C148.548 94.74 148.403 94.1152 148.114 93.5899C147.842 93.0647 147.461 92.6571 146.972 92.3673C146.502 92.0775 145.958 91.9326 145.342 91.9326C144.564 91.9326 143.893 92.1228 143.332 92.5032C142.789 92.8654 142.399 93.3092 142.164 93.8344H138.605L140.18 82.9399H150.858V86.1458H142.897L142.109 90.384C142.508 89.9675 143.042 89.6324 143.712 89.3788C144.382 89.1071 145.134 88.9713 145.967 88.9713C147 88.9713 147.896 89.1524 148.657 89.5147C149.418 89.8588 150.052 90.3388 150.559 90.9546C151.066 91.5523 151.446 92.2405 151.7 93.0194C151.953 93.7801 152.08 94.5861 152.08 95.4374C152.08 96.4335 151.908 97.3482 151.564 98.1814C151.238 99.0145 150.767 99.739 150.151 100.355C149.553 100.971 148.838 101.451 148.005 101.795C147.19 102.121 146.275 102.284 145.261 102.284ZM160.838 108.261C159.534 108.261 158.393 108.098 157.415 107.772C156.437 107.464 155.676 106.984 155.133 106.332C154.608 105.698 154.345 104.91 154.345 103.968C154.345 103.334 154.508 102.737 154.834 102.175C155.16 101.614 155.631 101.106 156.247 100.654C156.881 100.183 157.669 99.7843 158.611 99.4583L159.996 101.251C159.163 101.523 158.556 101.858 158.176 102.257C157.814 102.673 157.633 103.117 157.633 103.588C157.633 104.004 157.768 104.358 158.04 104.647C158.33 104.937 158.71 105.146 159.181 105.272C159.67 105.417 160.214 105.49 160.811 105.49C161.391 105.49 161.889 105.417 162.306 105.272C162.74 105.127 163.075 104.91 163.311 104.62C163.564 104.349 163.691 104.023 163.691 103.642C163.691 103.153 163.519 102.755 163.175 102.447C162.831 102.139 162.143 101.949 161.11 101.876C160.186 101.804 159.362 101.704 158.638 101.577C157.931 101.433 157.307 101.269 156.763 101.088C156.22 100.889 155.758 100.672 155.378 100.436C155.015 100.201 154.717 99.9654 154.481 99.73V99.1051L157.388 95.9807L160.023 96.8229L156.6 100.192L157.633 98.3987C157.832 98.5074 158.022 98.6161 158.203 98.7247C158.402 98.8153 158.647 98.9059 158.937 98.9964C159.226 99.0689 159.607 99.1413 160.078 99.2138C160.549 99.2862 161.146 99.3496 161.871 99.4039C163.066 99.5126 164.044 99.739 164.805 100.083C165.584 100.427 166.154 100.889 166.517 101.469C166.879 102.03 167.06 102.728 167.06 103.561C167.06 104.376 166.834 105.136 166.381 105.843C165.946 106.567 165.267 107.147 164.343 107.582C163.419 108.034 162.251 108.261 160.838 108.261ZM160.838 97.9097C159.697 97.9097 158.71 97.6923 157.877 97.2576C157.062 96.8048 156.428 96.2071 155.975 95.4645C155.541 94.7038 155.323 93.8616 155.323 92.9379C155.323 92.0141 155.541 91.181 155.975 90.4384C156.428 89.6777 157.062 89.0709 157.877 88.6181C158.71 88.1653 159.697 87.9389 160.838 87.9389C161.998 87.9389 162.985 88.1653 163.8 88.6181C164.633 89.0709 165.267 89.6777 165.702 90.4384C166.136 91.181 166.354 92.0141 166.354 92.9379C166.354 93.8616 166.136 94.7038 165.702 95.4645C165.267 96.2071 164.633 96.8048 163.8 97.2576C162.985 97.6923 161.998 97.9097 160.838 97.9097ZM160.838 95.1113C161.545 95.1113 162.115 94.9302 162.55 94.568C162.985 94.2057 163.202 93.6714 163.202 92.965C163.202 92.2587 162.985 91.7244 162.55 91.3621C162.115 90.9817 161.545 90.7916 160.838 90.7916C160.15 90.7916 159.58 90.9817 159.127 91.3621C158.692 91.7244 158.475 92.2587 158.475 92.965C158.475 93.6714 158.692 94.2057 159.127 94.568C159.58 94.9302 160.15 95.1113 160.838 95.1113ZM163.121 90.8731L162.523 88.2649H168.147V90.4384L163.121 90.8731Z" fill="white"/>
<mask id="path-5-inside-1_2620_1053" fill="white">
<path d="M11.3203 135.841C11.3203 130.84 15.3749 126.785 20.3764 126.785H260.364C265.365 126.785 269.42 130.84 269.42 135.841C269.42 140.843 265.365 144.897 260.364 144.897H20.3764C15.3749 144.897 11.3203 140.843 11.3203 135.841Z"/>
</mask>
<path d="M11.3203 135.841C11.3203 130.84 15.3749 126.785 20.3764 126.785H260.364C265.365 126.785 269.42 130.84 269.42 135.841C269.42 140.843 265.365 144.897 260.364 144.897H20.3764C15.3749 144.897 11.3203 140.843 11.3203 135.841Z" fill="white" fill-opacity="0.5"/>
<path d="M11.3203 135.841M269.42 135.841M269.42 135.841M11.3203 135.841M20.3764 126.785V129.611H260.364V126.785V123.959H20.3764V126.785ZM269.42 135.841M260.364 144.897V142.071H20.3764V144.897V147.723H260.364V144.897ZM11.3203 135.841M20.3764 144.897V142.071C16.9356 142.071 14.1463 139.282 14.1463 135.841H11.3203H8.49429C8.49429 142.404 13.8141 147.723 20.3764 147.723V144.897ZM269.42 135.841H266.594C266.594 139.282 263.804 142.071 260.364 142.071V144.897V147.723C266.926 147.723 272.246 142.404 272.246 135.841H269.42ZM260.364 126.785V129.611C263.804 129.611 266.594 132.4 266.594 135.841H269.42H272.246C272.246 129.279 266.926 123.959 260.364 123.959V126.785ZM20.3764 126.785V123.959C13.8141 123.959 8.49429 129.279 8.49429 135.841H11.3203H14.1463C14.1463 132.4 16.9356 129.611 20.3764 129.611V126.785Z" fill="white" fill-opacity="0.5" mask="url(#path-5-inside-1_2620_1053)"/>
<path d="M14.1465 135.263C14.1465 132.142 16.677 129.611 19.7985 129.611H184.992C188.114 129.611 190.644 132.142 190.644 135.263C190.644 138.385 188.114 140.915 184.992 140.915H19.7985C16.677 140.915 14.1465 138.385 14.1465 135.263Z" fill="#558FE6"/>
<path d="M20.0588 181.954V166.658L16.6899 167.528V165.001L21.3628 162.936H23.4005V181.954H20.0588ZM33.9053 182.28C32.5469 182.28 31.3696 182.045 30.3734 181.574C29.3953 181.085 28.6256 180.424 28.0641 179.59C27.5026 178.739 27.1675 177.779 27.0588 176.711H30.2375C30.4006 177.508 30.8081 178.178 31.4601 178.721C32.1122 179.246 32.9272 179.509 33.9053 179.509C34.6479 179.509 35.2818 179.337 35.8071 178.993C36.3323 178.631 36.7398 178.151 37.0296 177.553C37.3375 176.937 37.4915 176.249 37.4915 175.488C37.4915 174.709 37.3375 174.03 37.0296 173.45C36.7398 172.871 36.3323 172.427 35.8071 172.119C35.2818 171.793 34.675 171.63 33.9868 171.63C33.1355 171.63 32.402 171.829 31.7861 172.228C31.1884 172.608 30.7537 173.088 30.4821 173.668H27.3305L28.9063 162.936H39.3933V165.789H31.3514L30.4821 170.489C30.8986 170.036 31.4511 169.674 32.1393 169.402C32.8276 169.113 33.6155 168.968 34.503 168.968C35.4991 168.968 36.3776 169.14 37.1383 169.484C37.899 169.828 38.542 170.299 39.0673 170.897C39.5925 171.494 39.9819 172.192 40.2355 172.989C40.5072 173.767 40.643 174.591 40.643 175.461C40.643 176.439 40.48 177.345 40.154 178.178C39.828 178.993 39.3661 179.708 38.7684 180.324C38.1888 180.94 37.4824 181.42 36.6493 181.764C35.8342 182.108 34.9196 182.28 33.9053 182.28ZM49.4021 188.257C48.1161 188.257 46.9841 188.094 46.006 187.768C45.0461 187.46 44.2944 186.98 43.751 186.328C43.2258 185.694 42.9632 184.897 42.9632 183.937C42.9632 183.376 43.099 182.823 43.3707 182.28C43.6605 181.755 44.0861 181.266 44.6476 180.813C45.2272 180.342 45.9607 179.935 46.8482 179.59L48.2882 181.166C47.4188 181.474 46.812 181.845 46.4679 182.28C46.1237 182.715 45.9517 183.159 45.9517 183.611C45.9517 184.082 46.0966 184.472 46.3864 184.78C46.6943 185.106 47.1018 185.35 47.6089 185.513C48.1342 185.676 48.7228 185.758 49.3749 185.758C50.0088 185.758 50.5612 185.667 51.0322 185.486C51.5031 185.323 51.8653 185.088 52.1189 184.78C52.3906 184.472 52.5264 184.1 52.5264 183.666C52.5264 183.122 52.3362 182.679 51.9559 182.334C51.5755 182.008 50.8239 181.809 49.7009 181.737C48.741 181.664 47.8987 181.565 47.1743 181.438C46.4498 181.293 45.8249 181.13 45.2996 180.949C44.7925 180.768 44.3578 180.569 43.9956 180.351C43.6333 180.116 43.3345 179.88 43.099 179.645V179.02L45.9517 176.031L48.3697 176.819L45.1638 179.944L46.006 178.368C46.1871 178.495 46.3683 178.612 46.5494 178.721C46.7486 178.83 46.9931 178.929 47.2829 179.02C47.5908 179.092 47.9893 179.165 48.4783 179.237C48.9674 179.31 49.6013 179.382 50.3801 179.455C51.5936 179.545 52.5808 179.763 53.3415 180.107C54.1022 180.451 54.6637 180.913 55.0259 181.492C55.3882 182.072 55.5693 182.769 55.5693 183.584C55.5693 184.381 55.3429 185.133 54.8901 185.839C54.4554 186.546 53.7852 187.125 52.8796 187.578C51.974 188.031 50.8148 188.257 49.4021 188.257ZM49.4021 177.852C48.261 177.852 47.2739 177.634 46.4407 177.2C45.6257 176.747 45.0008 176.149 44.5661 175.407C44.1314 174.646 43.914 173.813 43.914 172.907C43.914 171.983 44.1314 171.15 44.5661 170.408C45.0008 169.665 45.6257 169.067 46.4407 168.614C47.2739 168.162 48.261 167.935 49.4021 167.935C50.5431 167.935 51.5212 168.162 52.3362 168.614C53.1513 169.067 53.7762 169.665 54.2109 170.408C54.6455 171.15 54.8629 171.983 54.8629 172.907C54.8629 173.813 54.6455 174.646 54.2109 175.407C53.7762 176.149 53.1513 176.747 52.3362 177.2C51.5212 177.634 50.5431 177.852 49.4021 177.852ZM49.4021 175.325C50.1809 175.325 50.8058 175.117 51.2767 174.7C51.7476 174.284 51.9831 173.686 51.9831 172.907C51.9831 172.128 51.7476 171.54 51.2767 171.141C50.8058 170.725 50.1809 170.516 49.4021 170.516C48.6232 170.516 47.9893 170.725 47.5003 171.141C47.0112 171.54 46.7667 172.128 46.7667 172.907C46.7667 173.686 47.0112 174.284 47.5003 174.7C47.9893 175.117 48.6232 175.325 49.4021 175.325ZM51.657 170.652L51.0322 168.261H56.656V170.299L51.657 170.652ZM66.1677 181.954V168.261H69.0747L69.3736 170.815C69.6996 170.217 70.1071 169.71 70.5961 169.294C71.0852 168.859 71.6557 168.524 72.3077 168.288C72.9779 168.053 73.7114 167.935 74.5084 167.935V171.386H73.3673C72.8239 171.386 72.3077 171.458 71.8187 171.603C71.3297 171.73 70.904 171.947 70.5418 172.255C70.1977 172.545 69.926 172.952 69.7267 173.478C69.5275 173.985 69.4279 174.628 69.4279 175.407V181.954H66.1677ZM83.0859 182.28C81.7275 182.28 80.5321 181.99 79.4997 181.411C78.4673 180.813 77.6613 179.98 77.0817 178.911C76.5021 177.843 76.2123 176.611 76.2123 175.216C76.2123 173.767 76.4931 172.5 77.0546 171.413C77.6341 170.326 78.4401 169.475 79.4725 168.859C80.523 168.243 81.7366 167.935 83.1131 167.935C84.4534 167.935 85.6216 168.234 86.6178 168.832C87.614 169.429 88.3838 170.235 88.9271 171.25C89.4705 172.246 89.7422 173.369 89.7422 174.619C89.7422 174.8 89.7422 174.999 89.7422 175.216C89.7422 175.434 89.7241 175.66 89.6878 175.896H78.5488V173.804H86.4548C86.4186 172.807 86.0835 172.029 85.4496 171.467C84.8156 170.888 84.0278 170.598 83.0859 170.598C82.4158 170.598 81.8 170.752 81.2385 171.06C80.677 171.368 80.2333 171.829 79.9072 172.445C79.5812 173.043 79.4182 173.804 79.4182 174.727V175.515C79.4182 176.366 79.5722 177.1 79.8801 177.716C80.2061 178.332 80.6408 178.803 81.1841 179.129C81.7456 179.437 82.3705 179.59 83.0588 179.59C83.8195 179.59 84.4443 179.427 84.9334 179.101C85.4405 178.775 85.8118 178.341 86.0473 177.797H89.3618C89.1082 178.649 88.6917 179.418 88.1121 180.107C87.5325 180.777 86.8171 181.311 85.9658 181.71C85.1145 182.09 84.1546 182.28 83.0859 182.28ZM92.7523 181.954V168.261H95.6322L95.9039 170.136C96.3386 169.448 96.9091 168.913 97.6155 168.533C98.34 168.134 99.1641 167.935 100.088 167.935C100.776 167.935 101.392 168.026 101.935 168.207C102.497 168.388 102.986 168.66 103.402 169.022C103.837 169.384 104.19 169.837 104.462 170.38C104.969 169.62 105.63 169.022 106.445 168.587C107.26 168.153 108.148 167.935 109.108 167.935C110.249 167.935 111.218 168.171 112.015 168.642C112.812 169.094 113.418 169.774 113.835 170.679C114.252 171.567 114.46 172.663 114.46 173.967V181.954H111.227V174.293C111.227 173.133 110.991 172.246 110.52 171.63C110.05 171.014 109.352 170.706 108.428 170.706C107.795 170.706 107.233 170.86 106.744 171.168C106.273 171.476 105.902 171.929 105.63 172.527C105.358 173.106 105.223 173.822 105.223 174.673V181.954H101.99V174.293C101.99 173.133 101.754 172.246 101.283 171.63C100.812 171.014 100.106 170.706 99.1641 170.706C98.5664 170.706 98.023 170.86 97.534 171.168C97.0631 171.476 96.6918 171.929 96.4201 172.527C96.1484 173.106 96.0125 173.822 96.0125 174.673V181.954H92.7523ZM122.469 182.28C121.346 182.28 120.413 182.09 119.67 181.71C118.928 181.329 118.375 180.822 118.013 180.188C117.651 179.554 117.47 178.866 117.47 178.123C117.47 177.254 117.687 176.502 118.122 175.868C118.574 175.234 119.236 174.745 120.105 174.401C120.974 174.039 122.043 173.858 123.311 173.858H126.761C126.761 173.133 126.662 172.536 126.462 172.065C126.263 171.576 125.955 171.214 125.539 170.978C125.122 170.743 124.588 170.625 123.936 170.625C123.193 170.625 122.559 170.797 122.034 171.141C121.509 171.467 121.183 171.974 121.056 172.663H117.85C117.959 171.684 118.285 170.851 118.828 170.163C119.371 169.457 120.087 168.913 120.974 168.533C121.88 168.134 122.867 167.935 123.936 167.935C125.222 167.935 126.317 168.162 127.223 168.614C128.129 169.049 128.817 169.683 129.288 170.516C129.777 171.331 130.021 172.318 130.021 173.478V181.954H127.25L126.924 179.753C126.743 180.116 126.508 180.451 126.218 180.759C125.946 181.067 125.629 181.338 125.267 181.574C124.905 181.791 124.488 181.963 124.017 182.09C123.564 182.217 123.048 182.28 122.469 182.28ZM123.202 179.699C123.727 179.699 124.189 179.609 124.588 179.427C125.004 179.228 125.357 178.957 125.647 178.612C125.955 178.25 126.191 177.852 126.354 177.417C126.517 176.982 126.625 176.52 126.68 176.031V175.977H123.664C123.03 175.977 122.505 176.059 122.088 176.222C121.672 176.366 121.373 176.584 121.192 176.874C121.011 177.163 120.92 177.498 120.92 177.879C120.92 178.259 121.011 178.585 121.192 178.857C121.373 179.129 121.635 179.337 121.98 179.482C122.324 179.627 122.731 179.699 123.202 179.699ZM133.641 181.954V168.261H136.901V181.954H133.641ZM135.271 166.088C134.673 166.088 134.175 165.907 133.777 165.544C133.396 165.164 133.206 164.702 133.206 164.159C133.206 163.597 133.396 163.145 133.777 162.8C134.175 162.438 134.673 162.257 135.271 162.257C135.869 162.257 136.358 162.438 136.738 162.8C137.136 163.145 137.336 163.597 137.336 164.159C137.336 164.702 137.136 165.164 136.738 165.544C136.358 165.907 135.869 166.088 135.271 166.088ZM140.668 181.954V168.261H143.548L143.793 170.543C144.209 169.746 144.807 169.113 145.586 168.642C146.365 168.171 147.288 167.935 148.357 167.935C149.462 167.935 150.404 168.171 151.183 168.642C151.961 169.094 152.559 169.765 152.976 170.652C153.41 171.54 153.628 172.644 153.628 173.967V181.954H150.368V174.265C150.368 173.124 150.114 172.246 149.607 171.63C149.1 171.014 148.348 170.706 147.352 170.706C146.7 170.706 146.111 170.86 145.586 171.168C145.079 171.476 144.671 171.929 144.363 172.527C144.074 173.106 143.929 173.813 143.929 174.646V181.954H140.668ZM157.201 181.954V168.261H160.461V181.954H157.201ZM158.831 166.088C158.233 166.088 157.735 165.907 157.337 165.544C156.956 165.164 156.766 164.702 156.766 164.159C156.766 163.597 156.956 163.145 157.337 162.8C157.735 162.438 158.233 162.257 158.831 162.257C159.429 162.257 159.918 162.438 160.298 162.8C160.696 163.145 160.896 163.597 160.896 164.159C160.896 164.702 160.696 165.164 160.298 165.544C159.918 165.907 159.429 166.088 158.831 166.088ZM164.228 181.954V168.261H167.108L167.353 170.543C167.769 169.746 168.367 169.113 169.146 168.642C169.925 168.171 170.848 167.935 171.917 167.935C173.022 167.935 173.964 168.171 174.743 168.642C175.521 169.094 176.119 169.765 176.536 170.652C176.97 171.54 177.188 172.644 177.188 173.967V181.954H173.928V174.265C173.928 173.124 173.674 172.246 173.167 171.63C172.66 171.014 171.908 170.706 170.912 170.706C170.26 170.706 169.671 170.86 169.146 171.168C168.639 171.476 168.231 171.929 167.923 172.527C167.634 173.106 167.489 173.813 167.489 174.646V181.954H164.228ZM186.385 188.257C185.099 188.257 183.967 188.094 182.989 187.768C182.029 187.46 181.277 186.98 180.734 186.328C180.208 185.694 179.946 184.897 179.946 183.937C179.946 183.376 180.082 182.823 180.353 182.28C180.643 181.755 181.069 181.266 181.63 180.813C182.21 180.342 182.943 179.935 183.831 179.59L185.271 181.166C184.401 181.474 183.795 181.845 183.45 182.28C183.106 182.715 182.934 183.159 182.934 183.611C182.934 184.082 183.079 184.472 183.369 184.78C183.677 185.106 184.084 185.35 184.592 185.513C185.117 185.676 185.705 185.758 186.358 185.758C186.991 185.758 187.544 185.667 188.015 185.486C188.486 185.323 188.848 185.088 189.102 184.78C189.373 184.472 189.509 184.1 189.509 183.666C189.509 183.122 189.319 182.679 188.938 182.334C188.558 182.008 187.806 181.809 186.684 181.737C185.724 181.664 184.881 181.565 184.157 181.438C183.432 181.293 182.808 181.13 182.282 180.949C181.775 180.768 181.34 180.569 180.978 180.351C180.616 180.116 180.317 179.88 180.082 179.645V179.02L182.934 176.031L185.352 176.819L182.146 179.944L182.989 178.368C183.17 178.495 183.351 178.612 183.532 178.721C183.731 178.83 183.976 178.929 184.266 179.02C184.573 179.092 184.972 179.165 185.461 179.237C185.95 179.31 186.584 179.382 187.363 179.455C188.576 179.545 189.563 179.763 190.324 180.107C191.085 180.451 191.646 180.913 192.009 181.492C192.371 182.072 192.552 182.769 192.552 183.584C192.552 184.381 192.325 185.133 191.873 185.839C191.438 186.546 190.768 187.125 189.862 187.578C188.957 188.031 187.797 188.257 186.385 188.257ZM186.385 177.852C185.244 177.852 184.256 177.634 183.423 177.2C182.608 176.747 181.983 176.149 181.549 175.407C181.114 174.646 180.897 173.813 180.897 172.907C180.897 171.983 181.114 171.15 181.549 170.408C181.983 169.665 182.608 169.067 183.423 168.614C184.256 168.162 185.244 167.935 186.385 167.935C187.526 167.935 188.504 168.162 189.319 168.614C190.134 169.067 190.759 169.665 191.193 170.408C191.628 171.15 191.846 171.983 191.846 172.907C191.846 173.813 191.628 174.646 191.193 175.407C190.759 176.149 190.134 176.747 189.319 177.2C188.504 177.634 187.526 177.852 186.385 177.852ZM186.385 175.325C187.163 175.325 187.788 175.117 188.259 174.7C188.73 174.284 188.966 173.686 188.966 172.907C188.966 172.128 188.73 171.54 188.259 171.141C187.788 170.725 187.163 170.516 186.385 170.516C185.606 170.516 184.972 170.725 184.483 171.141C183.994 171.54 183.749 172.128 183.749 172.907C183.749 173.686 183.994 174.284 184.483 174.7C184.972 175.117 185.606 175.325 186.385 175.325ZM188.64 170.652L188.015 168.261H193.639V170.299L188.64 170.652Z" fill="white"/>
</svg>
