<svg width="308" height="207" viewBox="0 0 308 207" fill="none" xmlns="http://www.w3.org/2000/svg">
<rect width="307.875" height="206.072" rx="23.4173" fill="#9A9A9A" fill-opacity="0.34"/>
<path d="M31.8388 45.4134C29.8717 45.4134 28.1763 44.9919 26.7525 44.1488C25.3475 43.2871 24.2609 42.0975 23.4928 40.5801C22.7435 39.0439 22.3688 37.2735 22.3688 35.269C22.3688 33.2645 22.7435 31.4941 23.4928 29.958C24.2609 28.4218 25.3475 27.2228 26.7525 26.3611C28.1763 25.4993 29.8717 25.0684 31.8388 25.0684C34.218 25.0684 36.1663 25.6586 37.6837 26.8388C39.2011 28.019 40.1472 29.6863 40.5219 31.8407H36.3911C36.1475 30.7916 35.6324 29.9767 34.8455 29.396C34.0774 28.7965 33.0658 28.4967 31.8107 28.4967C30.6492 28.4967 29.6469 28.7777 28.8039 29.3398C27.9796 29.883 27.3426 30.6605 26.893 31.6721C26.4434 32.665 26.2186 33.864 26.2186 35.269C26.2186 36.6553 26.4434 37.8543 26.893 38.8659C27.3426 39.8775 27.9796 40.655 28.8039 41.1983C29.6469 41.7416 30.6492 42.0132 31.8107 42.0132C33.0658 42.0132 34.0774 41.7416 34.8455 41.1983C35.6136 40.6363 36.1194 39.8588 36.363 38.8659H40.5219C40.1472 40.9079 39.2011 42.5096 37.6837 43.6711C36.1663 44.8326 34.218 45.4134 31.8388 45.4134ZM44.1788 45.0762L51.3725 25.4057H55.672L62.8376 45.0762H58.8192L53.5082 29.7332L48.1691 45.0762H44.1788ZM47.3541 40.6082L48.3658 37.6576H58.3696L59.3532 40.6082H47.3541ZM67.3527 45.0762V25.4057H74.687C76.2794 25.4057 77.5907 25.6773 78.6211 26.2206C79.6514 26.7639 80.4195 27.4945 80.9253 28.4124C81.4312 29.3117 81.6841 30.3139 81.6841 31.4192C81.6841 32.4683 81.4405 33.4518 80.9534 34.3698C80.4664 35.269 79.6983 35.9996 78.6492 36.5616C77.6188 37.1049 76.2887 37.3766 74.6589 37.3766H71.1463V45.0762H67.3527ZM77.5533 45.0762L73.5067 36.4211H77.6095L81.8808 45.0762H77.5533ZM71.1463 34.6227H74.4622C75.6049 34.6227 76.448 34.3417 76.9912 33.7797C77.5345 33.2177 77.8062 32.4777 77.8062 31.5597C77.8062 30.6418 77.5345 29.9205 76.9912 29.396C76.4667 28.8527 75.6237 28.581 74.4622 28.581H71.1463V34.6227ZM87.0105 45.0762V25.4057H95.0754C96.443 25.4057 97.5951 25.6211 98.5318 26.052C99.4685 26.4828 100.171 27.0823 100.639 27.8504C101.126 28.5998 101.37 29.4709 101.37 30.4638C101.37 31.4567 101.155 32.2903 100.724 32.9648C100.293 33.6392 99.7214 34.1637 99.0095 34.5384C98.3164 34.8943 97.5483 35.1004 96.7053 35.1566L97.1549 34.8475C98.0541 34.885 98.8503 35.1285 99.5434 35.5781C100.255 36.009 100.808 36.5897 101.201 37.3204C101.614 38.051 101.82 38.8472 101.82 39.7089C101.82 40.758 101.567 41.6853 101.061 42.4909C100.555 43.2965 99.8244 43.9334 98.869 44.4018C97.9136 44.8514 96.7427 45.0762 95.3564 45.0762H87.0105ZM90.8041 41.9851H94.7382C95.7686 41.9851 96.5648 41.7509 97.1268 41.2826C97.6888 40.8142 97.9698 40.1398 97.9698 39.2593C97.9698 38.3788 97.6794 37.695 97.0987 37.208C96.5179 36.7022 95.7124 36.4492 94.682 36.4492H90.8041V41.9851ZM90.8041 33.6111H94.4572C95.4501 33.6111 96.1995 33.3863 96.7053 32.9367C97.2298 32.487 97.4921 31.8501 97.4921 31.0258C97.4921 30.2202 97.2298 29.5927 96.7053 29.1431C96.1995 28.6747 95.4407 28.4405 94.4291 28.4405H90.8041V33.6111ZM113.633 45.4134C112.209 45.4134 110.935 45.1698 109.811 44.6828C108.706 44.1957 107.825 43.4838 107.17 42.5471C106.533 41.6104 106.205 40.477 106.186 39.1469H110.204C110.223 39.7277 110.373 40.2522 110.654 40.7206C110.935 41.1889 111.319 41.5636 111.806 41.8446C112.312 42.1069 112.911 42.238 113.605 42.238C114.204 42.238 114.719 42.1443 115.15 41.957C115.6 41.7509 115.946 41.4699 116.19 41.114C116.433 40.758 116.555 40.3365 116.555 39.8494C116.555 39.2874 116.415 38.8191 116.134 38.4444C115.871 38.0697 115.497 37.7512 115.01 37.489C114.541 37.2267 113.989 36.9925 113.352 36.7865C112.733 36.5616 112.078 36.3275 111.385 36.0839C109.83 35.5781 108.64 34.9037 107.816 34.0607C107.01 33.2177 106.608 32.103 106.608 30.7167C106.608 29.5365 106.889 28.5248 107.451 27.6818C108.031 26.8388 108.827 26.1925 109.839 25.7429C110.851 25.2933 112.003 25.0684 113.295 25.0684C114.626 25.0684 115.787 25.3026 116.78 25.771C117.792 26.2206 118.588 26.8763 119.169 27.738C119.768 28.5998 120.077 29.6114 120.096 30.7729H116.049C116.031 30.342 115.899 29.9392 115.656 29.5646C115.431 29.1712 115.113 28.862 114.701 28.6372C114.288 28.3937 113.801 28.2719 113.239 28.2719C112.752 28.2532 112.303 28.3281 111.89 28.4967C111.497 28.6653 111.179 28.9182 110.935 29.2555C110.71 29.5739 110.598 29.9767 110.598 30.4638C110.598 30.9321 110.71 31.3255 110.935 31.644C111.179 31.9625 111.506 32.2435 111.919 32.487C112.331 32.7118 112.818 32.9273 113.38 33.1334C113.942 33.3207 114.551 33.5174 115.206 33.7235C116.181 34.0607 117.08 34.4635 117.904 34.9318C118.728 35.3814 119.384 35.9715 119.871 36.7022C120.358 37.4328 120.602 38.3976 120.602 39.5965C120.602 40.6269 120.33 41.5823 119.787 42.4628C119.243 43.3433 118.457 44.0552 117.426 44.5985C116.415 45.1417 115.15 45.4134 113.633 45.4134Z" fill="white"/>
<path d="M26.7958 105.321V84.2265L22.1498 85.4255V81.941L28.5942 79.0934H31.4043V105.321H26.7958ZM45.6814 105.77C43.7331 105.77 42.0846 105.408 40.7357 104.684C39.4119 103.959 38.3503 102.998 37.551 101.799C36.7517 100.575 36.1647 99.2136 35.79 97.7149C35.4153 96.2162 35.228 94.68 35.228 93.1063C35.228 90.1839 35.6401 87.6486 36.4644 85.5004C37.2887 83.3273 38.4627 81.6412 39.9864 80.4423C41.535 79.2433 43.3959 78.6438 45.569 78.6438C47.3675 78.6438 48.8787 78.9935 50.1026 79.6929C51.3516 80.3673 52.3257 81.2666 53.0251 82.3906C53.7245 83.5146 54.1491 84.7386 54.299 86.0624H50.1026C49.8778 84.8884 49.3658 83.9892 48.5665 83.3648C47.7921 82.7153 46.7805 82.3906 45.5316 82.3906C44.4075 82.3906 43.4084 82.7403 42.5342 83.4397C41.6599 84.1391 40.973 85.1882 40.4734 86.587C39.9739 87.9858 39.6866 89.7592 39.6117 91.9074C39.6117 91.9573 39.6117 92.0073 39.6117 92.0573C39.6117 92.0822 39.6117 92.1197 39.6117 92.1697C40.0113 91.4453 40.5484 90.8083 41.2228 90.2588C41.8972 89.6843 42.6715 89.2347 43.5458 88.91C44.445 88.5852 45.4067 88.4229 46.4308 88.4229C47.9045 88.4229 49.2659 88.7726 50.5148 89.472C51.7887 90.1464 52.8128 91.1206 53.5871 92.3945C54.3864 93.6684 54.7861 95.1671 54.7861 96.8906C54.7861 98.4642 54.4114 99.9255 53.6621 101.274C52.9127 102.623 51.8511 103.71 50.4773 104.534C49.1035 105.358 47.5049 105.77 45.6814 105.77ZM45.4192 101.911C46.3933 101.911 47.2551 101.699 48.0044 101.274C48.7538 100.85 49.3408 100.275 49.7654 99.5508C50.215 98.8264 50.4398 98.0021 50.4398 97.0779C50.4398 96.1038 50.215 95.2545 49.7654 94.5301C49.3408 93.8057 48.7413 93.2437 47.967 92.8441C47.2176 92.4444 46.3559 92.2446 45.3817 92.2446C44.4325 92.2446 43.5708 92.4569 42.7964 92.8815C42.0471 93.2812 41.4476 93.8432 40.998 94.5676C40.5484 95.292 40.3236 96.1162 40.3236 97.0404C40.3236 97.9896 40.5484 98.8264 40.998 99.5508C41.4476 100.275 42.0471 100.85 42.7964 101.274C43.5708 101.699 44.445 101.911 45.4192 101.911ZM69.4438 105.77C67.0708 105.77 65.0351 105.208 63.3366 104.084C61.638 102.935 60.3267 101.349 59.4024 99.326C58.5032 97.2777 58.0536 94.9048 58.0536 92.2071C58.0536 89.5095 58.5032 87.149 59.4024 85.1257C60.3267 83.0775 61.638 81.4914 63.3366 80.3673C65.0351 79.2183 67.0708 78.6438 69.4438 78.6438C71.7918 78.6438 73.8025 79.2183 75.4761 80.3673C77.1746 81.4914 78.4735 83.0775 79.3727 85.1257C80.2969 87.149 80.759 89.5095 80.759 92.2071C80.759 94.9048 80.2969 97.2777 79.3727 99.326C78.4735 101.349 77.1746 102.935 75.4761 104.084C73.8025 105.208 71.7918 105.77 69.4438 105.77ZM69.4063 101.724C70.7302 101.724 71.9042 101.349 72.9283 100.6C73.9524 99.8255 74.7392 98.7265 75.2887 97.3027C75.8632 95.879 76.1505 94.1804 76.1505 92.2071C76.1505 90.2338 75.8632 88.5353 75.2887 87.1115C74.7392 85.6878 73.9524 84.6012 72.9283 83.8518C71.9042 83.0775 70.7302 82.6903 69.4063 82.6903C68.0825 82.6903 66.9085 83.0775 65.8844 83.8518C64.8602 84.6012 64.0609 85.6878 63.4864 87.1115C62.9369 88.5353 62.6621 90.2338 62.6621 92.2071C62.6621 94.1804 62.9369 95.879 63.4864 97.3027C64.0609 98.7265 64.8602 99.8255 65.8844 100.6C66.9085 101.349 68.0825 101.724 69.4063 101.724ZM92.248 114.013C90.4746 114.013 88.9134 113.788 87.5646 113.339C86.2407 112.914 85.2041 112.252 84.4548 111.353C83.7304 110.479 83.3682 109.38 83.3682 108.056C83.3682 107.282 83.5556 106.52 83.9302 105.77C84.3299 105.046 84.9169 104.372 85.6912 103.747C86.4905 103.098 87.5021 102.536 88.7261 102.061L90.7119 104.234C89.5129 104.659 88.6761 105.171 88.2015 105.77C87.727 106.37 87.4897 106.982 87.4897 107.606C87.4897 108.256 87.6895 108.793 88.0891 109.217C88.5138 109.667 89.0758 110.004 89.7752 110.229C90.4996 110.454 91.3114 110.566 92.2106 110.566C93.0848 110.566 93.8467 110.441 94.4961 110.192C95.1455 109.967 95.6451 109.642 95.9948 109.217C96.3695 108.793 96.5568 108.281 96.5568 107.681C96.5568 106.932 96.2946 106.32 95.77 105.845C95.2455 105.396 94.2089 105.121 92.6602 105.021C91.3363 104.921 90.1748 104.784 89.1757 104.609C88.1766 104.409 87.3148 104.184 86.5904 103.934C85.891 103.685 85.2916 103.41 84.792 103.11C84.2924 102.785 83.8803 102.461 83.5556 102.136V101.274L87.4897 97.1529L90.8243 98.2394L86.4031 102.548L87.5646 100.375C87.8144 100.55 88.0642 100.712 88.3139 100.862C88.5887 101.012 88.9259 101.149 89.3256 101.274C89.7502 101.374 90.2997 101.474 90.9741 101.574C91.6486 101.674 92.5228 101.774 93.5969 101.874C95.2704 101.999 96.6318 102.298 97.6809 102.773C98.73 103.248 99.5043 103.885 100.004 104.684C100.503 105.483 100.753 106.445 100.753 107.569C100.753 108.668 100.441 109.705 99.8165 110.679C99.217 111.653 98.2928 112.452 97.0439 113.077C95.795 113.701 94.1964 114.013 92.248 114.013ZM92.248 99.6632C90.6744 99.6632 89.3131 99.3634 88.1641 98.764C87.04 98.1395 86.1783 97.3152 85.5788 96.2911C84.9793 95.242 84.6796 94.093 84.6796 92.8441C84.6796 91.5702 84.9793 90.4212 85.5788 89.397C86.1783 88.3729 87.04 87.5486 88.1641 86.9242C89.3131 86.2997 90.6744 85.9875 92.248 85.9875C93.8217 85.9875 95.1705 86.2997 96.2946 86.9242C97.4186 87.5486 98.2803 88.3729 98.8798 89.397C99.4793 90.4212 99.779 91.5702 99.779 92.8441C99.779 94.093 99.4793 95.242 98.8798 96.2911C98.2803 97.3152 97.4186 98.1395 96.2946 98.764C95.1705 99.3634 93.8217 99.6632 92.248 99.6632ZM92.248 96.1787C93.3221 96.1787 94.1839 95.8914 94.8333 95.3169C95.4828 94.7424 95.8075 93.9181 95.8075 92.8441C95.8075 91.77 95.4828 90.9582 94.8333 90.4087C94.1839 89.8342 93.3221 89.5469 92.248 89.5469C91.174 89.5469 90.2997 89.8342 89.6253 90.4087C88.9509 90.9582 88.6137 91.77 88.6137 92.8441C88.6137 93.9181 88.9509 94.7424 89.6253 95.3169C90.2997 95.8914 91.174 96.1787 92.248 96.1787ZM95.3579 89.7343L94.4961 86.4371H102.252V89.2472L95.3579 89.7343Z" fill="white"/>
<path d="M105.937 109.892L112.963 84.7982H116.644L109.619 109.892H105.937ZM127.016 106.689L134.238 90.2498H124.712V87.0182H138.116V89.6878L130.95 106.689H127.016ZM147.268 107.026C145.844 107.026 144.608 106.773 143.559 106.267C142.528 105.761 141.723 105.068 141.142 104.188C140.561 103.307 140.224 102.305 140.13 101.181H143.84C143.971 101.912 144.346 102.53 144.964 103.036C145.582 103.541 146.359 103.794 147.296 103.794C147.971 103.794 148.561 103.626 149.066 103.289C149.572 102.951 149.966 102.502 150.247 101.94C150.528 101.359 150.668 100.703 150.668 99.9726C150.668 99.2233 150.518 98.577 150.219 98.0337C149.938 97.4904 149.544 97.0689 149.038 96.7692C148.551 96.4694 147.989 96.3195 147.352 96.3195C146.547 96.3195 145.854 96.5163 145.273 96.9097C144.711 97.2843 144.308 97.7433 144.065 98.2866H140.383L142.013 87.0182H153.057V90.3341H144.823L144.008 94.7178C144.42 94.2869 144.973 93.9404 145.666 93.6781C146.359 93.3971 147.137 93.2566 147.999 93.2566C149.066 93.2566 149.994 93.4439 150.781 93.8186C151.567 94.1745 152.223 94.671 152.748 95.3079C153.272 95.9261 153.666 96.638 153.928 97.4436C154.19 98.2304 154.321 99.0641 154.321 99.9445C154.321 100.975 154.143 101.921 153.787 102.783C153.45 103.644 152.963 104.394 152.326 105.031C151.708 105.668 150.968 106.164 150.106 106.52C149.263 106.857 148.317 107.026 147.268 107.026ZM163.38 113.208C162.031 113.208 160.851 113.039 159.84 112.702C158.828 112.384 158.041 111.887 157.479 111.213C156.936 110.557 156.664 109.742 156.664 108.768C156.664 108.112 156.833 107.494 157.17 106.914C157.507 106.333 157.994 105.808 158.631 105.34C159.287 104.853 160.102 104.441 161.076 104.103L162.509 105.958C161.647 106.239 161.02 106.586 160.626 106.998C160.252 107.429 160.064 107.888 160.064 108.375C160.064 108.806 160.205 109.171 160.486 109.471C160.786 109.77 161.179 109.986 161.666 110.117C162.172 110.267 162.734 110.342 163.352 110.342C163.952 110.342 164.467 110.267 164.898 110.117C165.347 109.967 165.694 109.742 165.937 109.443C166.2 109.162 166.331 108.824 166.331 108.431C166.331 107.925 166.153 107.513 165.797 107.195C165.441 106.876 164.729 106.679 163.661 106.604C162.706 106.529 161.853 106.426 161.104 106.295C160.374 106.145 159.727 105.977 159.165 105.789C158.603 105.583 158.125 105.359 157.732 105.115C157.357 104.872 157.048 104.628 156.805 104.384V103.738L159.811 100.507L162.537 101.378L158.997 104.862L160.064 103.008C160.27 103.12 160.467 103.232 160.655 103.345C160.861 103.438 161.113 103.532 161.413 103.626C161.713 103.701 162.106 103.776 162.593 103.851C163.081 103.925 163.699 103.991 164.448 104.047C165.685 104.16 166.696 104.394 167.483 104.75C168.289 105.106 168.879 105.583 169.253 106.183C169.628 106.764 169.815 107.485 169.815 108.347C169.815 109.19 169.581 109.977 169.113 110.707C168.663 111.456 167.961 112.056 167.005 112.506C166.05 112.974 164.842 113.208 163.38 113.208ZM163.38 102.502C162.2 102.502 161.179 102.277 160.317 101.827C159.474 101.359 158.819 100.741 158.35 99.9726C157.901 99.1858 157.676 98.3147 157.676 97.3593C157.676 96.4039 157.901 95.5421 158.35 94.774C158.819 93.9872 159.474 93.3596 160.317 92.8913C161.179 92.4229 162.2 92.1887 163.38 92.1887C164.579 92.1887 165.6 92.4229 166.443 92.8913C167.305 93.3596 167.961 93.9872 168.41 94.774C168.86 95.5421 169.085 96.4039 169.085 97.3593C169.085 98.3147 168.86 99.1858 168.41 99.9726C167.961 100.741 167.305 101.359 166.443 101.827C165.6 102.277 164.579 102.502 163.38 102.502ZM163.38 99.6073C164.111 99.6073 164.701 99.42 165.151 99.0453C165.6 98.6706 165.825 98.118 165.825 97.3874C165.825 96.6568 165.6 96.1041 165.151 95.7294C164.701 95.336 164.111 95.1393 163.38 95.1393C162.668 95.1393 162.078 95.336 161.61 95.7294C161.16 96.1041 160.936 96.6568 160.936 97.3874C160.936 98.118 161.16 98.6706 161.61 99.0453C162.078 99.42 162.668 99.6073 163.38 99.6073ZM165.741 95.2236L165.123 92.5259H170.939V94.774L165.741 95.2236Z" fill="white"/>
<mask id="path-5-inside-1_2620_1065" fill="white">
<path d="M11.709 140.504C11.709 135.331 15.9027 131.137 21.0759 131.137H269.299C274.472 131.137 278.666 135.331 278.666 140.504C278.666 145.677 274.472 149.871 269.299 149.871H21.0759C15.9027 149.871 11.709 145.677 11.709 140.504Z"/>
</mask>
<path d="M11.709 140.504C11.709 135.331 15.9027 131.137 21.0759 131.137H269.299C274.472 131.137 278.666 135.331 278.666 140.504C278.666 145.677 274.472 149.871 269.299 149.871H21.0759C15.9027 149.871 11.709 145.677 11.709 140.504Z" fill="white" fill-opacity="0.5"/>
<path d="M11.709 140.504M278.666 140.504M278.666 140.504M11.709 140.504M21.0759 131.137V134.06H269.299V131.137V128.214H21.0759V131.137ZM278.666 140.504M269.299 149.871V146.948H21.0759V149.871V152.794H269.299V149.871ZM11.709 140.504M21.0759 149.871V146.948C17.517 146.948 14.632 144.063 14.632 140.504H11.709H8.78598C8.78598 147.291 14.2884 152.794 21.0759 152.794V149.871ZM278.666 140.504H275.743C275.743 144.063 272.858 146.948 269.299 146.948V149.871V152.794C276.087 152.794 281.589 147.291 281.589 140.504H278.666ZM269.299 131.137V134.06C272.858 134.06 275.743 136.945 275.743 140.504H278.666H281.589C281.589 133.716 276.087 128.214 269.299 128.214V131.137ZM21.0759 131.137V128.214C14.2884 128.214 8.78598 133.716 8.78598 140.504H11.709H14.632C14.632 136.945 17.517 134.06 21.0759 134.06V131.137Z" fill="white" fill-opacity="0.5" mask="url(#path-5-inside-1_2620_1065)"/>
<path d="M14.6328 139.906C14.6328 136.677 17.2502 134.06 20.4788 134.06H191.342C194.571 134.06 197.188 136.677 197.188 139.906C197.188 143.135 194.571 145.752 191.342 145.752H20.4788C17.2502 145.752 14.6328 143.135 14.6328 139.906Z" fill="#69A38D"/>
<path d="M27.3519 188.238V184.5H17.6009V181.802L26.8742 168.567H30.6959V181.55H33.3654V184.5H30.6959V188.238H27.3519ZM21.2259 181.55H27.5486V172.276L21.2259 181.55ZM44.1475 188.575C42.3678 188.575 40.841 188.153 39.5671 187.31C38.2932 186.448 37.3097 185.259 36.6165 183.741C35.9421 182.205 35.6049 180.426 35.6049 178.402C35.6049 176.379 35.9421 174.609 36.6165 173.091C37.3097 171.555 38.2932 170.365 39.5671 169.522C40.841 168.661 42.3678 168.23 44.1475 168.23C45.9085 168.23 47.4166 168.661 48.6718 169.522C49.9457 170.365 50.9198 171.555 51.5942 173.091C52.2874 174.609 52.634 176.379 52.634 178.402C52.634 180.426 52.2874 182.205 51.5942 183.741C50.9198 185.259 49.9457 186.448 48.6718 187.31C47.4166 188.153 45.9085 188.575 44.1475 188.575ZM44.1194 185.54C45.1123 185.54 45.9928 185.259 46.7609 184.697C47.529 184.116 48.1191 183.292 48.5313 182.224C48.9621 181.156 49.1776 179.882 49.1776 178.402C49.1776 176.922 48.9621 175.648 48.5313 174.581C48.1191 173.513 47.529 172.698 46.7609 172.136C45.9928 171.555 45.1123 171.265 44.1194 171.265C43.1266 171.265 42.2461 171.555 41.478 172.136C40.7099 172.698 40.1104 173.513 39.6795 174.581C39.2674 175.648 39.0613 176.922 39.0613 178.402C39.0613 179.882 39.2674 181.156 39.6795 182.224C40.1104 183.292 40.7099 184.116 41.478 184.697C42.2461 185.259 43.1266 185.54 44.1194 185.54ZM61.7735 194.757C60.4434 194.757 59.2725 194.588 58.2609 194.251C57.268 193.933 56.4906 193.436 55.9286 192.762C55.3853 192.106 55.1136 191.282 55.1136 190.289C55.1136 189.708 55.2541 189.137 55.5351 188.575C55.8349 188.031 56.2751 187.526 56.8559 187.057C57.4554 186.57 58.2141 186.149 59.132 185.793L60.6214 187.423C59.7222 187.741 59.0946 188.125 58.7386 188.575C58.3827 189.024 58.2047 189.483 58.2047 189.952C58.2047 190.439 58.3546 190.842 58.6543 191.16C58.9728 191.497 59.3943 191.75 59.9189 191.919C60.4621 192.087 61.071 192.172 61.7454 192.172C62.4011 192.172 62.9725 192.078 63.4596 191.891C63.9466 191.722 64.3213 191.479 64.5836 191.16C64.8646 190.842 65.0051 190.458 65.0051 190.008C65.0051 189.446 64.8084 188.987 64.415 188.631C64.0216 188.294 63.2441 188.088 62.0826 188.013C61.0897 187.938 60.2186 187.835 59.4693 187.704C58.7199 187.554 58.0736 187.385 57.5303 187.198C57.0058 187.01 56.5561 186.804 56.1815 186.58C55.8068 186.336 55.4977 186.093 55.2541 185.849V185.203L58.2047 182.112L60.7057 182.927L57.3898 186.158L58.2609 184.528C58.4483 184.659 58.6356 184.781 58.8229 184.894C59.029 185.006 59.2819 185.109 59.5817 185.203C59.9001 185.278 60.3123 185.353 60.8181 185.427C61.3239 185.502 61.9796 185.577 62.7851 185.652C64.0403 185.746 65.0613 185.971 65.8481 186.327C66.6349 186.683 67.2157 187.16 67.5904 187.76C67.965 188.359 68.1524 189.081 68.1524 189.924C68.1524 190.748 67.9182 191.525 67.4499 192.256C67.0003 192.987 66.3071 193.586 65.3704 194.054C64.4337 194.523 63.2348 194.757 61.7735 194.757ZM61.7735 183.994C60.5933 183.994 59.5723 183.77 58.7105 183.32C57.8675 182.852 57.2212 182.233 56.7716 181.465C56.322 180.678 56.0972 179.817 56.0972 178.88C56.0972 177.925 56.322 177.063 56.7716 176.295C57.2212 175.527 57.8675 174.908 58.7105 174.44C59.5723 173.972 60.5933 173.738 61.7735 173.738C62.9537 173.738 63.9654 173.972 64.8084 174.44C65.6514 174.908 66.2977 175.527 66.7473 176.295C67.197 177.063 67.4218 177.925 67.4218 178.88C67.4218 179.817 67.197 180.678 66.7473 181.465C66.2977 182.233 65.6514 182.852 64.8084 183.32C63.9654 183.77 62.9537 183.994 61.7735 183.994ZM61.7735 181.381C62.5791 181.381 63.2254 181.166 63.7125 180.735C64.1995 180.304 64.4431 179.686 64.4431 178.88C64.4431 178.074 64.1995 177.466 63.7125 177.053C63.2254 176.623 62.5791 176.407 61.7735 176.407C60.968 176.407 60.3123 176.623 59.8065 177.053C59.3006 177.466 59.0477 178.074 59.0477 178.88C59.0477 179.686 59.3006 180.304 59.8065 180.735C60.3123 181.166 60.968 181.381 61.7735 181.381ZM64.1059 176.548L63.4596 174.075H69.2764V176.182L64.1059 176.548ZM79.1145 188.238V174.075H82.1213L82.4304 176.716C82.7676 176.098 83.1891 175.573 83.6949 175.143C84.2008 174.693 84.7909 174.346 85.4653 174.103C86.1584 173.859 86.9172 173.738 87.7414 173.738V177.306H86.5612C85.9992 177.306 85.4653 177.381 84.9595 177.531C84.4537 177.662 84.0134 177.887 83.6387 178.206C83.2828 178.505 83.0018 178.927 82.7957 179.47C82.5896 179.995 82.4866 180.66 82.4866 181.465V188.238H79.1145ZM96.6134 188.575C95.2083 188.575 93.9719 188.275 92.9041 187.676C91.8363 187.057 91.0026 186.196 90.4031 185.09C89.8036 183.985 89.5039 182.711 89.5039 181.269C89.5039 179.77 89.7943 178.458 90.375 177.334C90.9745 176.21 91.8082 175.33 92.876 174.693C93.9625 174.056 95.2177 173.738 96.6415 173.738C98.0278 173.738 99.2361 174.047 100.266 174.665C101.297 175.283 102.093 176.117 102.655 177.166C103.217 178.196 103.498 179.358 103.498 180.65C103.498 180.838 103.498 181.044 103.498 181.269C103.498 181.493 103.479 181.728 103.442 181.971H91.9206V179.807H100.098C100.06 178.777 99.7138 177.971 99.0581 177.391C98.4025 176.791 97.5875 176.491 96.6134 176.491C95.9202 176.491 95.2833 176.651 94.7025 176.969C94.1218 177.288 93.6628 177.765 93.3256 178.402C92.9884 179.021 92.8198 179.807 92.8198 180.763V181.578C92.8198 182.458 92.979 183.217 93.2975 183.854C93.6347 184.491 94.0843 184.978 94.6463 185.315C95.2271 185.634 95.8734 185.793 96.5853 185.793C97.3721 185.793 98.0184 185.624 98.5242 185.287C99.0488 184.95 99.4328 184.5 99.6764 183.938H103.105C102.842 184.819 102.411 185.615 101.812 186.327C101.213 187.02 100.473 187.572 99.5921 187.985C98.7116 188.378 97.7187 188.575 96.6134 188.575ZM106.612 188.238V174.075H109.59L109.871 176.014C110.321 175.302 110.911 174.749 111.642 174.356C112.391 173.944 113.243 173.738 114.199 173.738C114.911 173.738 115.548 173.831 116.11 174.019C116.69 174.206 117.196 174.487 117.627 174.862C118.077 175.236 118.442 175.705 118.723 176.267C119.247 175.48 119.931 174.862 120.774 174.412C121.617 173.962 122.535 173.738 123.528 173.738C124.708 173.738 125.711 173.981 126.535 174.468C127.359 174.937 127.987 175.639 128.418 176.576C128.849 177.494 129.064 178.627 129.064 179.976V188.238H125.72V180.313C125.72 179.114 125.476 178.196 124.989 177.559C124.502 176.922 123.781 176.604 122.826 176.604C122.17 176.604 121.589 176.763 121.083 177.082C120.596 177.4 120.212 177.868 119.931 178.487C119.65 179.086 119.51 179.826 119.51 180.707V188.238H116.166V180.313C116.166 179.114 115.922 178.196 115.435 177.559C114.948 176.922 114.217 176.604 113.243 176.604C112.625 176.604 112.063 176.763 111.557 177.082C111.07 177.4 110.686 177.868 110.405 178.487C110.124 179.086 109.984 179.826 109.984 180.707V188.238H106.612ZM137.348 188.575C136.186 188.575 135.221 188.378 134.453 187.985C133.685 187.591 133.114 187.067 132.739 186.411C132.364 185.755 132.177 185.043 132.177 184.275C132.177 183.376 132.402 182.599 132.851 181.943C133.32 181.287 134.004 180.781 134.903 180.426C135.802 180.051 136.907 179.864 138.219 179.864H141.788C141.788 179.114 141.684 178.496 141.478 178.009C141.272 177.503 140.954 177.128 140.523 176.885C140.092 176.641 139.539 176.52 138.865 176.52C138.097 176.52 137.441 176.698 136.898 177.053C136.355 177.391 136.017 177.915 135.886 178.627H132.57C132.683 177.615 133.02 176.754 133.582 176.042C134.144 175.311 134.884 174.749 135.802 174.356C136.739 173.944 137.76 173.738 138.865 173.738C140.195 173.738 141.329 173.972 142.265 174.44C143.202 174.89 143.914 175.545 144.401 176.407C144.907 177.25 145.16 178.271 145.16 179.47V188.238H142.293L141.956 185.961C141.769 186.336 141.525 186.683 141.225 187.001C140.944 187.32 140.617 187.601 140.242 187.844C139.867 188.069 139.436 188.247 138.949 188.378C138.481 188.509 137.947 188.575 137.348 188.575ZM138.106 185.905C138.65 185.905 139.127 185.812 139.539 185.624C139.97 185.418 140.336 185.137 140.635 184.781C140.954 184.406 141.197 183.994 141.366 183.545C141.535 183.095 141.647 182.617 141.703 182.112V182.055H138.584C137.928 182.055 137.385 182.14 136.954 182.308C136.523 182.458 136.214 182.683 136.027 182.983C135.84 183.282 135.746 183.629 135.746 184.022C135.746 184.416 135.84 184.753 136.027 185.034C136.214 185.315 136.486 185.531 136.842 185.68C137.198 185.83 137.619 185.905 138.106 185.905ZM148.903 188.238V174.075H152.275V188.238H148.903ZM150.589 171.827C149.971 171.827 149.456 171.639 149.044 171.265C148.65 170.871 148.454 170.394 148.454 169.832C148.454 169.251 148.65 168.782 149.044 168.427C149.456 168.052 149.971 167.865 150.589 167.865C151.207 167.865 151.713 168.052 152.107 168.427C152.519 168.782 152.725 169.251 152.725 169.832C152.725 170.394 152.519 170.871 152.107 171.265C151.713 171.639 151.207 171.827 150.589 171.827ZM156.172 188.238V174.075H159.151L159.404 176.435C159.834 175.611 160.453 174.955 161.258 174.468C162.064 173.981 163.019 173.738 164.125 173.738C165.267 173.738 166.241 173.981 167.047 174.468C167.853 174.937 168.471 175.63 168.902 176.548C169.351 177.466 169.576 178.608 169.576 179.976V188.238H166.204V180.285C166.204 179.105 165.942 178.196 165.417 177.559C164.893 176.922 164.115 176.604 163.085 176.604C162.41 176.604 161.802 176.763 161.258 177.082C160.734 177.4 160.312 177.868 159.994 178.487C159.694 179.086 159.544 179.817 159.544 180.678V188.238H156.172ZM173.272 188.238V174.075H176.644V188.238H173.272ZM174.958 171.827C174.34 171.827 173.824 171.639 173.412 171.265C173.019 170.871 172.822 170.394 172.822 169.832C172.822 169.251 173.019 168.782 173.412 168.427C173.824 168.052 174.34 167.865 174.958 167.865C175.576 167.865 176.082 168.052 176.475 168.427C176.887 168.782 177.093 169.251 177.093 169.832C177.093 170.394 176.887 170.871 176.475 171.265C176.082 171.639 175.576 171.827 174.958 171.827ZM180.541 188.238V174.075H183.519L183.772 176.435C184.203 175.611 184.821 174.955 185.627 174.468C186.432 173.981 187.388 173.738 188.493 173.738C189.636 173.738 190.61 173.981 191.416 174.468C192.221 174.937 192.839 175.63 193.27 176.548C193.72 177.466 193.945 178.608 193.945 179.976V188.238H190.573V180.285C190.573 179.105 190.31 178.196 189.786 177.559C189.261 176.922 188.484 176.604 187.453 176.604C186.779 176.604 186.17 176.763 185.627 177.082C185.102 177.4 184.681 177.868 184.362 178.487C184.063 179.086 183.913 179.817 183.913 180.678V188.238H180.541ZM203.457 194.757C202.127 194.757 200.956 194.588 199.945 194.251C198.952 193.933 198.174 193.436 197.612 192.762C197.069 192.106 196.797 191.282 196.797 190.289C196.797 189.708 196.938 189.137 197.219 188.575C197.519 188.031 197.959 187.526 198.54 187.057C199.139 186.57 199.898 186.149 200.816 185.793L202.305 187.423C201.406 187.741 200.778 188.125 200.422 188.575C200.066 189.024 199.888 189.483 199.888 189.952C199.888 190.439 200.038 190.842 200.338 191.16C200.656 191.497 201.078 191.75 201.603 191.919C202.146 192.087 202.755 192.172 203.429 192.172C204.085 192.172 204.656 192.078 205.143 191.891C205.63 191.722 206.005 191.479 206.267 191.16C206.548 190.842 206.689 190.458 206.689 190.008C206.689 189.446 206.492 188.987 206.099 188.631C205.705 188.294 204.928 188.088 203.766 188.013C202.773 187.938 201.902 187.835 201.153 187.704C200.404 187.554 199.757 187.385 199.214 187.198C198.689 187.01 198.24 186.804 197.865 186.58C197.49 186.336 197.181 186.093 196.938 185.849V185.203L199.888 182.112L202.389 182.927L199.073 186.158L199.945 184.528C200.132 184.659 200.319 184.781 200.507 184.894C200.713 185.006 200.966 185.109 201.265 185.203C201.584 185.278 201.996 185.353 202.502 185.427C203.008 185.502 203.663 185.577 204.469 185.652C205.724 185.746 206.745 185.971 207.532 186.327C208.319 186.683 208.899 187.16 209.274 187.76C209.649 188.359 209.836 189.081 209.836 189.924C209.836 190.748 209.602 191.525 209.134 192.256C208.684 192.987 207.991 193.586 207.054 194.054C206.117 194.523 204.918 194.757 203.457 194.757ZM203.457 183.994C202.277 183.994 201.256 183.77 200.394 183.32C199.551 182.852 198.905 182.233 198.455 181.465C198.006 180.678 197.781 179.817 197.781 178.88C197.781 177.925 198.006 177.063 198.455 176.295C198.905 175.527 199.551 174.908 200.394 174.44C201.256 173.972 202.277 173.738 203.457 173.738C204.637 173.738 205.649 173.972 206.492 174.44C207.335 174.908 207.981 175.527 208.431 176.295C208.881 177.063 209.105 177.925 209.105 178.88C209.105 179.817 208.881 180.678 208.431 181.465C207.981 182.233 207.335 182.852 206.492 183.32C205.649 183.77 204.637 183.994 203.457 183.994ZM203.457 181.381C204.263 181.381 204.909 181.166 205.396 180.735C205.883 180.304 206.127 179.686 206.127 178.88C206.127 178.074 205.883 177.466 205.396 177.053C204.909 176.623 204.263 176.407 203.457 176.407C202.652 176.407 201.996 176.623 201.49 177.053C200.984 177.466 200.731 178.074 200.731 178.88C200.731 179.686 200.984 180.304 201.49 180.735C201.996 181.166 202.652 181.381 203.457 181.381ZM205.79 176.548L205.143 174.075H210.96V176.182L205.79 176.548Z" fill="white"/>
</svg>
