<svg width="284" height="404" viewBox="0 0 284 404" fill="none" xmlns="http://www.w3.org/2000/svg">
<path d="M1.50001 162V76.2L235.5 19" stroke="#CACACA" stroke-width="3" stroke-dasharray="6 6"/>
<path d="M249.5 29C241.768 29 235.5 22.732 235.5 15C235.5 7.26801 241.768 1 249.5 1C257.232 1 263.5 7.26801 263.5 15C263.5 22.732 257.232 29 249.5 29Z" fill="white" fill-opacity="0.1" stroke="#CACACA" stroke-width="2"/>
<path d="M268.5 371C260.768 371 254.5 364.508 254.5 356.5C254.5 348.492 260.768 342 268.5 342C276.232 342 282.5 348.492 282.5 356.5C282.5 364.508 276.232 371 268.5 371Z" fill="white" fill-opacity="0.1" stroke="#CACACA" stroke-width="2"/>
<path d="M14.5009 261.726L33.0809 346.539L254.195 357.355" stroke="#CACACA" stroke-width="3" stroke-dasharray="6 6"/>
</svg>
