<svg width="109" height="205" viewBox="0 0 109 205" fill="none" xmlns="http://www.w3.org/2000/svg">
<path d="M1.15707 99.7713V46.3713L76.1572 15.2715" stroke="#CACACA" stroke-width="2.31374" stroke-dasharray="4.63 4.63"/>
<path d="M86.9545 22.3664C80.9912 22.3664 76.157 17.5322 76.157 11.5689C76.157 5.60567 80.9912 0.771484 86.9545 0.771484C92.9178 0.771484 97.752 5.60567 97.752 11.5689C97.752 17.5322 92.9178 22.3664 86.9545 22.3664Z" fill="white" fill-opacity="0.1" stroke="#CACACA" stroke-width="1.54249"/>
<path d="M96.9545 203.366C90.9912 203.366 86.157 198.532 86.157 192.569C86.157 186.606 90.9912 181.771 96.9545 181.771C102.918 181.771 107.752 186.606 107.752 192.569C107.752 198.532 102.918 203.366 96.9545 203.366Z" fill="white" fill-opacity="0.1" stroke="#CACACA" stroke-width="1.54249"/>
<path d="M12.1575 143.254L20.7521 182.486L85.6572 191.271" stroke="#CACACA" stroke-width="2.31374" stroke-dasharray="4.63 4.63"/>
</svg>
