<svg width="200" height="60" viewBox="0 0 200 60" fill="none" xmlns="http://www.w3.org/2000/svg">
<rect width="200" height="60" rx="12" fill="url(#paint0_linear_2632_1107)" fill-opacity="0.2"/>
<path d="M26.4776 39.9791L28.2836 35.0791H28.9066L30.7056 39.9791H30.0826L28.5916 35.8141L27.0936 39.9791H26.4776ZM27.3036 38.7191L27.4716 38.2431H29.6906L29.8586 38.7191H27.3036ZM31.406 41.5191V36.4511H31.938L31.987 37.0251C32.0617 36.9131 32.1573 36.8081 32.274 36.7101C32.3907 36.6075 32.5307 36.5258 32.694 36.4651C32.8573 36.3998 33.044 36.3671 33.254 36.3671C33.5993 36.3671 33.898 36.4488 34.15 36.6121C34.4067 36.7755 34.605 36.9971 34.745 37.2771C34.8897 37.5525 34.962 37.8675 34.962 38.2221C34.962 38.5768 34.8897 38.8941 34.745 39.1741C34.605 39.4495 34.4067 39.6665 34.15 39.8251C33.8933 39.9838 33.5923 40.0631 33.247 40.0631C32.9623 40.0631 32.7103 40.0048 32.491 39.8881C32.2763 39.7715 32.1107 39.6081 31.994 39.3981V41.5191H31.406ZM33.184 39.5521C33.4127 39.5521 33.6157 39.4961 33.793 39.3841C33.9703 39.2721 34.108 39.1181 34.206 38.9221C34.3087 38.7215 34.36 38.4858 34.36 38.2151C34.36 37.9491 34.3087 37.7158 34.206 37.5151C34.108 37.3145 33.9703 37.1581 33.793 37.0461C33.6157 36.9341 33.4127 36.8781 33.184 36.8781C32.9507 36.8781 32.7453 36.9341 32.568 37.0461C32.3907 37.1581 32.253 37.3145 32.155 37.5151C32.057 37.7158 32.008 37.9491 32.008 38.2151C32.008 38.4858 32.057 38.7215 32.155 38.9221C32.253 39.1181 32.3907 39.2721 32.568 39.3841C32.7453 39.4961 32.9507 39.5521 33.184 39.5521ZM35.7879 41.5191V36.4511H36.3199L36.3689 37.0251C36.4435 36.9131 36.5392 36.8081 36.6559 36.7101C36.7725 36.6075 36.9125 36.5258 37.0759 36.4651C37.2392 36.3998 37.4259 36.3671 37.6359 36.3671C37.9812 36.3671 38.2799 36.4488 38.5319 36.6121C38.7885 36.7755 38.9869 36.9971 39.1269 37.2771C39.2715 37.5525 39.3439 37.8675 39.3439 38.2221C39.3439 38.5768 39.2715 38.8941 39.1269 39.1741C38.9869 39.4495 38.7885 39.6665 38.5319 39.8251C38.2752 39.9838 37.9742 40.0631 37.6289 40.0631C37.3442 40.0631 37.0922 40.0048 36.8729 39.8881C36.6582 39.7715 36.4925 39.6081 36.3759 39.3981V41.5191H35.7879ZM37.5659 39.5521C37.7945 39.5521 37.9975 39.4961 38.1749 39.3841C38.3522 39.2721 38.4899 39.1181 38.5879 38.9221C38.6905 38.7215 38.7419 38.4858 38.7419 38.2151C38.7419 37.9491 38.6905 37.7158 38.5879 37.5151C38.4899 37.3145 38.3522 37.1581 38.1749 37.0461C37.9975 36.9341 37.7945 36.8781 37.5659 36.8781C37.3325 36.8781 37.1272 36.9341 36.9499 37.0461C36.7725 37.1581 36.6349 37.3145 36.5369 37.5151C36.4389 37.7158 36.3899 37.9491 36.3899 38.2151C36.3899 38.4858 36.4389 38.7215 36.5369 38.9221C36.6349 39.1181 36.7725 39.2721 36.9499 39.3841C37.1272 39.4961 37.3325 39.5521 37.5659 39.5521ZM41.7167 40.0631C41.3854 40.0631 41.0914 39.9861 40.8347 39.8321C40.5827 39.6781 40.3844 39.4635 40.2397 39.1881C40.095 38.9081 40.0227 38.5838 40.0227 38.2151C40.0227 37.8418 40.0927 37.5175 40.2327 37.2421C40.3774 36.9668 40.578 36.7521 40.8347 36.5981C41.096 36.4441 41.3947 36.3671 41.7307 36.3671C42.076 36.3671 42.3677 36.4441 42.6057 36.5981C42.8484 36.7521 43.0327 36.9551 43.1587 37.2071C43.2894 37.4545 43.3547 37.7275 43.3547 38.0261C43.3547 38.0728 43.3547 38.1218 43.3547 38.1731C43.3547 38.2245 43.3524 38.2828 43.3477 38.3481H40.4637V37.8931H42.7807C42.7667 37.5711 42.6594 37.3191 42.4587 37.1371C42.2627 36.9551 42.0154 36.8641 41.7167 36.8641C41.516 36.8641 41.3294 36.9108 41.1567 37.0041C40.9887 37.0928 40.8534 37.2258 40.7507 37.4031C40.648 37.5758 40.5967 37.7928 40.5967 38.0541V38.2501C40.5967 38.5395 40.648 38.7821 40.7507 38.9781C40.858 39.1741 40.9957 39.3211 41.1637 39.4191C41.3364 39.5171 41.5207 39.5661 41.7167 39.5661C41.964 39.5661 42.167 39.5125 42.3257 39.4051C42.489 39.2931 42.6057 39.1438 42.6757 38.9571H43.2567C43.2007 39.1671 43.1027 39.3561 42.9627 39.5241C42.8227 39.6921 42.6477 39.8251 42.4377 39.9231C42.2324 40.0165 41.992 40.0631 41.7167 40.0631ZM44.1482 39.9791V36.4511H44.6802L44.7082 37.0671C44.8202 36.8478 44.9789 36.6775 45.1842 36.5561C45.3942 36.4301 45.6322 36.3671 45.8982 36.3671C46.1735 36.3671 46.4115 36.4231 46.6122 36.5351C46.8129 36.6425 46.9692 36.8081 47.0812 37.0321C47.1932 37.2515 47.2492 37.5315 47.2492 37.8721V39.9791H46.6612V37.9351C46.6612 37.5805 46.5819 37.3145 46.4232 37.1371C46.2692 36.9598 46.0499 36.8711 45.7652 36.8711C45.5692 36.8711 45.3942 36.9201 45.2402 37.0181C45.0862 37.1115 44.9625 37.2491 44.8692 37.4311C44.7805 37.6085 44.7362 37.8301 44.7362 38.0961V39.9791H44.1482ZM49.7217 40.0631C49.3811 40.0631 49.0824 39.9838 48.8257 39.8251C48.5691 39.6618 48.3707 39.4401 48.2307 39.1601C48.0907 38.8801 48.0207 38.5628 48.0207 38.2081C48.0207 37.8535 48.0907 37.5385 48.2307 37.2631C48.3707 36.9831 48.5691 36.7638 48.8257 36.6051C49.0871 36.4465 49.3881 36.3671 49.7287 36.3671C50.0181 36.3671 50.2701 36.4255 50.4847 36.5421C50.7041 36.6588 50.8721 36.8221 50.9887 37.0321V34.9391H51.5767V39.9791H51.0447L50.9957 39.3981C50.9211 39.5148 50.8254 39.6245 50.7087 39.7271C50.5921 39.8251 50.4521 39.9068 50.2887 39.9721C50.1254 40.0328 49.9364 40.0631 49.7217 40.0631ZM49.7917 39.5521C50.0251 39.5521 50.2304 39.4961 50.4077 39.3841C50.5851 39.2721 50.7227 39.1181 50.8207 38.9221C50.9187 38.7215 50.9677 38.4858 50.9677 38.2151C50.9677 37.9491 50.9187 37.7158 50.8207 37.5151C50.7227 37.3145 50.5851 37.1581 50.4077 37.0461C50.2304 36.9341 50.0251 36.8781 49.7917 36.8781C49.5631 36.8781 49.3601 36.9341 49.1827 37.0461C49.0054 37.1581 48.8677 37.3145 48.7697 37.5151C48.6717 37.7158 48.6227 37.9491 48.6227 38.2151C48.6227 38.4858 48.6717 38.7215 48.7697 38.9221C48.8677 39.1181 49.0054 39.2721 49.1827 39.3841C49.3601 39.4961 49.5631 39.5521 49.7917 39.5521ZM54.1034 40.0631C53.7721 40.0631 53.4781 39.9861 53.2214 39.8321C52.9694 39.6781 52.7711 39.4635 52.6264 39.1881C52.4817 38.9081 52.4094 38.5838 52.4094 38.2151C52.4094 37.8418 52.4794 37.5175 52.6194 37.2421C52.7641 36.9668 52.9647 36.7521 53.2214 36.5981C53.4827 36.4441 53.7814 36.3671 54.1174 36.3671C54.4627 36.3671 54.7544 36.4441 54.9924 36.5981C55.2351 36.7521 55.4194 36.9551 55.5454 37.2071C55.6761 37.4545 55.7414 37.7275 55.7414 38.0261C55.7414 38.0728 55.7414 38.1218 55.7414 38.1731C55.7414 38.2245 55.7391 38.2828 55.7344 38.3481H52.8504V37.8931H55.1674C55.1534 37.5711 55.0461 37.3191 54.8454 37.1371C54.6494 36.9551 54.4021 36.8641 54.1034 36.8641C53.9027 36.8641 53.7161 36.9108 53.5434 37.0041C53.3754 37.0928 53.2401 37.2258 53.1374 37.4031C53.0347 37.5758 52.9834 37.7928 52.9834 38.0541V38.2501C52.9834 38.5395 53.0347 38.7821 53.1374 38.9781C53.2447 39.1741 53.3824 39.3211 53.5504 39.4191C53.7231 39.5171 53.9074 39.5661 54.1034 39.5661C54.3507 39.5661 54.5537 39.5125 54.7124 39.4051C54.8757 39.2931 54.9924 39.1438 55.0624 38.9571H55.6434C55.5874 39.1671 55.4894 39.3561 55.3494 39.5241C55.2094 39.6921 55.0344 39.8251 54.8244 39.9231C54.6191 40.0165 54.3787 40.0631 54.1034 40.0631ZM58.1239 40.0631C57.7926 40.0631 57.4939 39.9861 57.2279 39.8321C56.9666 39.6781 56.7613 39.4635 56.6119 39.1881C56.4626 38.9081 56.3879 38.5861 56.3879 38.2221C56.3879 37.8488 56.4626 37.5245 56.6119 37.2491C56.7613 36.9738 56.9666 36.7591 57.2279 36.6051C57.4939 36.4465 57.7926 36.3671 58.1239 36.3671C58.5439 36.3671 58.8939 36.4768 59.1739 36.6961C59.4539 36.9108 59.6313 37.2001 59.7059 37.5641H59.1039C59.0573 37.3448 58.9429 37.1745 58.7609 37.0531C58.5789 36.9318 58.3643 36.8711 58.1169 36.8711C57.9163 36.8711 57.7296 36.9225 57.5569 37.0251C57.3843 37.1231 57.2466 37.2725 57.1439 37.4731C57.0413 37.6738 56.9899 37.9211 56.9899 38.2151C56.9899 38.4345 57.0203 38.6305 57.0809 38.8031C57.1416 38.9711 57.2233 39.1111 57.3259 39.2231C57.4286 39.3351 57.5476 39.4215 57.6829 39.4821C57.8229 39.5381 57.9676 39.5661 58.1169 39.5661C58.2849 39.5661 58.4366 39.5405 58.5719 39.4891C58.7073 39.4331 58.8216 39.3515 58.9149 39.2441C59.0083 39.1368 59.0713 39.0108 59.1039 38.8661H59.7059C59.6313 39.2208 59.4516 39.5101 59.1669 39.7341C58.8869 39.9535 58.5393 40.0631 58.1239 40.0631ZM61.8311 39.9791C61.6211 39.9791 61.4391 39.9465 61.2851 39.8811C61.1311 39.8158 61.0121 39.7061 60.9281 39.5521C60.8487 39.3935 60.8091 39.1811 60.8091 38.9151V36.9481H60.1931V36.4511H60.8091L60.8861 35.5971H61.3971V36.4511H62.4191V36.9481H61.3971V38.9151C61.3971 39.1345 61.4414 39.2838 61.5301 39.3631C61.6187 39.4378 61.7751 39.4751 61.9991 39.4751H62.3771V39.9791H61.8311ZM64.6656 40.0631C64.3389 40.0631 64.0449 39.9885 63.7836 39.8391C63.5223 39.6851 63.3169 39.4705 63.1676 39.1951C63.0183 38.9151 62.9436 38.5908 62.9436 38.2221C62.9436 37.8441 63.0183 37.5175 63.1676 37.2421C63.3216 36.9621 63.5293 36.7475 63.7906 36.5981C64.0566 36.4441 64.3529 36.3671 64.6796 36.3671C65.0156 36.3671 65.3119 36.4441 65.5686 36.5981C65.8299 36.7475 66.0353 36.9621 66.1846 37.2421C66.3386 37.5175 66.4156 37.8418 66.4156 38.2151C66.4156 38.5885 66.3386 38.9151 66.1846 39.1951C66.0306 39.4705 65.8229 39.6851 65.5616 39.8391C65.3003 39.9885 65.0016 40.0631 64.6656 40.0631ZM64.6726 39.5591C64.8733 39.5591 65.0599 39.5101 65.2326 39.4121C65.4053 39.3095 65.5453 39.1578 65.6526 38.9571C65.7599 38.7565 65.8136 38.5091 65.8136 38.2151C65.8136 37.9165 65.7599 37.6691 65.6526 37.4731C65.5499 37.2725 65.4123 37.1231 65.2396 37.0251C65.0716 36.9225 64.8849 36.8711 64.6796 36.8711C64.4836 36.8711 64.2969 36.9225 64.1196 37.0251C63.9469 37.1231 63.8069 37.2725 63.6996 37.4731C63.5969 37.6691 63.5456 37.9165 63.5456 38.2151C63.5456 38.5091 63.5969 38.7565 63.6996 38.9571C63.8069 39.1578 63.9446 39.3095 64.1126 39.4121C64.2853 39.5101 64.4719 39.5591 64.6726 39.5591ZM67.24 39.9791V36.4511H67.772L67.807 36.9551C67.919 36.7731 68.0683 36.6308 68.255 36.5281C68.4463 36.4208 68.654 36.3671 68.878 36.3671C69.06 36.3671 69.2233 36.3928 69.368 36.4441C69.5173 36.4908 69.648 36.5655 69.76 36.6681C69.872 36.7661 69.963 36.8921 70.033 37.0461C70.1543 36.8315 70.32 36.6658 70.53 36.5491C70.7447 36.4278 70.9733 36.3671 71.216 36.3671C71.4867 36.3671 71.7223 36.4231 71.923 36.5351C72.1283 36.6425 72.2847 36.8081 72.392 37.0321C72.504 37.2515 72.56 37.5315 72.56 37.8721V39.9791H71.979V37.9351C71.979 37.5805 71.9067 37.3145 71.762 37.1371C71.6173 36.9598 71.4143 36.8711 71.153 36.8711C70.971 36.8711 70.8077 36.9201 70.663 37.0181C70.5183 37.1115 70.404 37.2491 70.32 37.4311C70.236 37.6131 70.194 37.8371 70.194 38.1031V39.9791H69.606V37.9351C69.606 37.5805 69.5337 37.3145 69.389 37.1371C69.2443 36.9598 69.039 36.8711 68.773 36.8711C68.5957 36.8711 68.4347 36.9201 68.29 37.0181C68.15 37.1115 68.038 37.2491 67.954 37.4311C67.87 37.6131 67.828 37.8371 67.828 38.1031V39.9791H67.24ZM73.7568 41.5191L74.6178 39.5871H74.4148L73.0288 36.4511H73.6658L74.8138 39.1461L76.0178 36.4511H76.6268L74.3728 41.5191H73.7568Z" fill="white"/>
<path d="M26.7926 50.0043V45.1043H27.3806V49.5353H29.6626V50.0043H26.7926ZM31.597 50.0883C31.3123 50.0883 31.0743 50.0393 30.883 49.9413C30.6917 49.8386 30.5493 49.7056 30.456 49.5423C30.3627 49.3743 30.316 49.1923 30.316 48.9963C30.316 48.7583 30.3767 48.5576 30.498 48.3943C30.624 48.2263 30.799 48.1003 31.023 48.0163C31.2517 47.9276 31.52 47.8833 31.828 47.8833H32.759C32.759 47.6639 32.724 47.4819 32.654 47.3373C32.5887 47.1879 32.4907 47.0759 32.36 47.0013C32.234 46.9266 32.0753 46.8893 31.884 46.8893C31.66 46.8893 31.4663 46.9453 31.303 47.0573C31.1397 47.1693 31.0393 47.3349 31.002 47.5543H30.4C30.428 47.3023 30.512 47.0923 30.652 46.9243C30.7967 46.7516 30.9787 46.6209 31.198 46.5323C31.4173 46.4389 31.646 46.3923 31.884 46.3923C32.2107 46.3923 32.4813 46.4529 32.696 46.5743C32.9153 46.6909 33.0787 46.8566 33.186 47.0713C33.2933 47.2813 33.347 47.5309 33.347 47.8203V50.0043H32.822L32.787 49.3813C32.7403 49.4793 32.6797 49.5726 32.605 49.6613C32.535 49.7453 32.451 49.8199 32.353 49.8853C32.255 49.9459 32.143 49.9949 32.017 50.0323C31.8957 50.0696 31.7557 50.0883 31.597 50.0883ZM31.688 49.5913C31.8513 49.5913 31.9983 49.5586 32.129 49.4933C32.2643 49.4233 32.3787 49.3299 32.472 49.2133C32.5653 49.0919 32.6353 48.9589 32.682 48.8143C32.7333 48.6696 32.759 48.5179 32.759 48.3593V48.3383H31.877C31.6483 48.3383 31.464 48.3663 31.324 48.4223C31.184 48.4736 31.0837 48.5483 31.023 48.6463C30.9623 48.7396 30.932 48.8469 30.932 48.9683C30.932 49.0943 30.96 49.2039 31.016 49.2973C31.0767 49.3906 31.163 49.4629 31.275 49.5143C31.3917 49.5656 31.5293 49.5913 31.688 49.5913ZM34.2566 51.5443V46.4763H34.7886L34.8376 47.0503C34.9123 46.9383 35.0079 46.8333 35.1246 46.7353C35.2413 46.6326 35.3813 46.5509 35.5446 46.4903C35.7079 46.4249 35.8946 46.3923 36.1046 46.3923C36.4499 46.3923 36.7486 46.4739 37.0006 46.6373C37.2573 46.8006 37.4556 47.0223 37.5956 47.3023C37.7403 47.5776 37.8126 47.8926 37.8126 48.2473C37.8126 48.6019 37.7403 48.9193 37.5956 49.1993C37.4556 49.4746 37.2573 49.6916 37.0006 49.8503C36.7439 50.0089 36.4429 50.0883 36.0976 50.0883C35.8129 50.0883 35.5609 50.0299 35.3416 49.9133C35.1269 49.7966 34.9613 49.6333 34.8446 49.4233V51.5443H34.2566ZM36.0346 49.5773C36.2633 49.5773 36.4663 49.5213 36.6436 49.4093C36.8209 49.2973 36.9586 49.1433 37.0566 48.9473C37.1593 48.7466 37.2106 48.5109 37.2106 48.2403C37.2106 47.9743 37.1593 47.7409 37.0566 47.5403C36.9586 47.3396 36.8209 47.1833 36.6436 47.0713C36.4663 46.9593 36.2633 46.9033 36.0346 46.9033C35.8013 46.9033 35.5959 46.9593 35.4186 47.0713C35.2413 47.1833 35.1036 47.3396 35.0056 47.5403C34.9076 47.7409 34.8586 47.9743 34.8586 48.2403C34.8586 48.5109 34.9076 48.7466 35.0056 48.9473C35.1036 49.1433 35.2413 49.2973 35.4186 49.4093C35.5959 49.5213 35.8013 49.5773 36.0346 49.5773ZM39.7864 50.0883C39.5018 50.0883 39.2638 50.0393 39.0724 49.9413C38.8811 49.8386 38.7388 49.7056 38.6454 49.5423C38.5521 49.3743 38.5054 49.1923 38.5054 48.9963C38.5054 48.7583 38.5661 48.5576 38.6874 48.3943C38.8134 48.2263 38.9884 48.1003 39.2124 48.0163C39.4411 47.9276 39.7094 47.8833 40.0174 47.8833H40.9484C40.9484 47.6639 40.9134 47.4819 40.8434 47.3373C40.7781 47.1879 40.6801 47.0759 40.5494 47.0013C40.4234 46.9266 40.2648 46.8893 40.0734 46.8893C39.8494 46.8893 39.6558 46.9453 39.4924 47.0573C39.3291 47.1693 39.2288 47.3349 39.1914 47.5543H38.5894C38.6174 47.3023 38.7014 47.0923 38.8414 46.9243C38.9861 46.7516 39.1681 46.6209 39.3874 46.5323C39.6068 46.4389 39.8354 46.3923 40.0734 46.3923C40.4001 46.3923 40.6708 46.4529 40.8854 46.5743C41.1048 46.6909 41.2681 46.8566 41.3754 47.0713C41.4828 47.2813 41.5364 47.5309 41.5364 47.8203V50.0043H41.0114L40.9764 49.3813C40.9298 49.4793 40.8691 49.5726 40.7944 49.6613C40.7244 49.7453 40.6404 49.8199 40.5424 49.8853C40.4444 49.9459 40.3324 49.9949 40.2064 50.0323C40.0851 50.0696 39.9451 50.0883 39.7864 50.0883ZM39.8774 49.5913C40.0408 49.5913 40.1878 49.5586 40.3184 49.4933C40.4538 49.4233 40.5681 49.3299 40.6614 49.2133C40.7548 49.0919 40.8248 48.9589 40.8714 48.8143C40.9228 48.6696 40.9484 48.5179 40.9484 48.3593V48.3383H40.0664C39.8378 48.3383 39.6534 48.3663 39.5134 48.4223C39.3734 48.4736 39.2731 48.5483 39.2124 48.6463C39.1518 48.7396 39.1214 48.8469 39.1214 48.9683C39.1214 49.0943 39.1494 49.2039 39.2054 49.2973C39.2661 49.3906 39.3524 49.4629 39.4644 49.5143C39.5811 49.5656 39.7188 49.5913 39.8774 49.5913ZM42.4461 50.0043V46.4763H42.9781L43.0201 47.1483C43.0994 46.9896 43.1997 46.8543 43.3211 46.7423C43.4471 46.6303 43.5964 46.5439 43.7691 46.4833C43.9464 46.4226 44.1471 46.3923 44.3711 46.3923V47.0083H44.1541C44.0047 47.0083 43.8624 47.0293 43.7271 47.0713C43.5917 47.1086 43.4704 47.1716 43.3631 47.2603C43.2604 47.3489 43.1787 47.4703 43.1181 47.6243C43.0621 47.7736 43.0341 47.9603 43.0341 48.1843V50.0043H42.4461ZM46.482 50.0883C46.1553 50.0883 45.8613 50.0136 45.6 49.8643C45.3387 49.7103 45.1333 49.4956 44.984 49.2203C44.8347 48.9403 44.76 48.6159 44.76 48.2473C44.76 47.8693 44.8347 47.5426 44.984 47.2673C45.138 46.9873 45.3457 46.7726 45.607 46.6233C45.873 46.4693 46.1693 46.3923 46.496 46.3923C46.832 46.3923 47.1283 46.4693 47.385 46.6233C47.6463 46.7726 47.8517 46.9873 48.001 47.2673C48.155 47.5426 48.232 47.8669 48.232 48.2403C48.232 48.6136 48.155 48.9403 48.001 49.2203C47.847 49.4956 47.6393 49.7103 47.378 49.8643C47.1167 50.0136 46.818 50.0883 46.482 50.0883ZM46.489 49.5843C46.6897 49.5843 46.8763 49.5353 47.049 49.4373C47.2217 49.3346 47.3617 49.1829 47.469 48.9823C47.5763 48.7816 47.63 48.5343 47.63 48.2403C47.63 47.9416 47.5763 47.6943 47.469 47.4983C47.3663 47.2976 47.2287 47.1483 47.056 47.0503C46.888 46.9476 46.7013 46.8963 46.496 46.8963C46.3 46.8963 46.1133 46.9476 45.936 47.0503C45.7633 47.1483 45.6233 47.2976 45.516 47.4983C45.4133 47.6943 45.362 47.9416 45.362 48.2403C45.362 48.5343 45.4133 48.7816 45.516 48.9823C45.6233 49.1829 45.761 49.3346 45.929 49.4373C46.1017 49.5353 46.2883 49.5843 46.489 49.5843ZM50.3864 50.0883C50.0924 50.0883 49.8357 50.0393 49.6164 49.9413C49.4017 49.8433 49.2291 49.7079 49.0984 49.5353C48.9724 49.3579 48.8954 49.1503 48.8674 48.9123H49.4694C49.4927 49.0336 49.5417 49.1456 49.6164 49.2483C49.6911 49.3509 49.7914 49.4349 49.9174 49.5003C50.0481 49.5609 50.2067 49.5913 50.3934 49.5913C50.5567 49.5913 50.6921 49.5679 50.7994 49.5213C50.9067 49.4699 50.9861 49.4023 51.0374 49.3183C51.0934 49.2343 51.1214 49.1433 51.1214 49.0453C51.1214 48.9006 51.0864 48.7909 51.0164 48.7163C50.9511 48.6416 50.8531 48.5833 50.7224 48.5413C50.5917 48.4946 50.4331 48.4549 50.2464 48.4223C50.0924 48.3943 49.9407 48.3569 49.7914 48.3103C49.6421 48.2636 49.5091 48.2029 49.3924 48.1283C49.2757 48.0489 49.1824 47.9533 49.1124 47.8413C49.0471 47.7293 49.0144 47.5916 49.0144 47.4283C49.0144 47.2276 49.0657 47.0503 49.1684 46.8963C49.2711 46.7376 49.4181 46.6139 49.6094 46.5253C49.8054 46.4366 50.0317 46.3923 50.2884 46.3923C50.6664 46.3923 50.9721 46.4833 51.2054 46.6653C51.4387 46.8473 51.5764 47.1109 51.6184 47.4563H51.0374C51.0141 47.2789 50.9371 47.1413 50.8064 47.0433C50.6804 46.9406 50.5054 46.8893 50.2814 46.8893C50.0621 46.8893 49.8941 46.9336 49.7774 47.0223C49.6654 47.1109 49.6094 47.2276 49.6094 47.3723C49.6094 47.4656 49.6397 47.5496 49.7004 47.6243C49.7657 47.6943 49.8591 47.7549 49.9804 47.8063C50.1064 47.8576 50.2604 47.8996 50.4424 47.9323C50.6757 47.9743 50.8881 48.0303 51.0794 48.1003C51.2707 48.1703 51.4247 48.2753 51.5414 48.4153C51.6627 48.5506 51.7234 48.7443 51.7234 48.9963C51.7234 49.2156 51.6674 49.4069 51.5554 49.5703C51.4481 49.7336 51.2941 49.8619 51.0934 49.9553C50.8927 50.0439 50.6571 50.0883 50.3864 50.0883ZM54.1591 50.0883C53.8277 50.0883 53.5291 50.0113 53.2631 49.8573C53.0017 49.7033 52.7964 49.4886 52.6471 49.2133C52.4977 48.9333 52.4231 48.6113 52.4231 48.2473C52.4231 47.8739 52.4977 47.5496 52.6471 47.2743C52.7964 46.9989 53.0017 46.7843 53.2631 46.6303C53.5291 46.4716 53.8277 46.3923 54.1591 46.3923C54.5791 46.3923 54.9291 46.5019 55.2091 46.7213C55.4891 46.9359 55.6664 47.2253 55.7411 47.5893H55.1391C55.0924 47.3699 54.9781 47.1996 54.7961 47.0783C54.6141 46.9569 54.3994 46.8963 54.1521 46.8963C53.9514 46.8963 53.7647 46.9476 53.5921 47.0503C53.4194 47.1483 53.2817 47.2976 53.1791 47.4983C53.0764 47.6989 53.0251 47.9463 53.0251 48.2403C53.0251 48.4596 53.0554 48.6556 53.1161 48.8283C53.1767 48.9963 53.2584 49.1363 53.3611 49.2483C53.4637 49.3603 53.5827 49.4466 53.7181 49.5073C53.8581 49.5633 54.0027 49.5913 54.1521 49.5913C54.3201 49.5913 54.4717 49.5656 54.6071 49.5143C54.7424 49.4583 54.8567 49.3766 54.9501 49.2693C55.0434 49.1619 55.1064 49.0359 55.1391 48.8913H55.7411C55.6664 49.2459 55.4867 49.5353 55.2021 49.7593C54.9221 49.9786 54.5744 50.0883 54.1591 50.0883ZM58.1509 50.0883C57.8243 50.0883 57.5303 50.0136 57.2689 49.8643C57.0076 49.7103 56.8023 49.4956 56.6529 49.2203C56.5036 48.9403 56.4289 48.6159 56.4289 48.2473C56.4289 47.8693 56.5036 47.5426 56.6529 47.2673C56.8069 46.9873 57.0146 46.7726 57.2759 46.6233C57.5419 46.4693 57.8383 46.3923 58.1649 46.3923C58.5009 46.3923 58.7973 46.4693 59.0539 46.6233C59.3153 46.7726 59.5206 46.9873 59.6699 47.2673C59.8239 47.5426 59.9009 47.8669 59.9009 48.2403C59.9009 48.6136 59.8239 48.9403 59.6699 49.2203C59.5159 49.4956 59.3083 49.7103 59.0469 49.8643C58.7856 50.0136 58.4869 50.0883 58.1509 50.0883ZM58.1579 49.5843C58.3586 49.5843 58.5453 49.5353 58.7179 49.4373C58.8906 49.3346 59.0306 49.1829 59.1379 48.9823C59.2453 48.7816 59.2989 48.5343 59.2989 48.2403C59.2989 47.9416 59.2453 47.6943 59.1379 47.4983C59.0353 47.2976 58.8976 47.1483 58.7249 47.0503C58.5569 46.9476 58.3703 46.8963 58.1649 46.8963C57.9689 46.8963 57.7823 46.9476 57.6049 47.0503C57.4323 47.1483 57.2923 47.2976 57.1849 47.4983C57.0823 47.6943 57.0309 47.9416 57.0309 48.2403C57.0309 48.5343 57.0823 48.7816 57.1849 48.9823C57.2923 49.1829 57.4299 49.3346 57.5979 49.4373C57.7706 49.5353 57.9573 49.5843 58.1579 49.5843ZM60.7254 51.5443V46.4763H61.2574L61.3064 47.0503C61.381 46.9383 61.4767 46.8333 61.5934 46.7353C61.71 46.6326 61.85 46.5509 62.0134 46.4903C62.1767 46.4249 62.3634 46.3923 62.5734 46.3923C62.9187 46.3923 63.2174 46.4739 63.4694 46.6373C63.726 46.8006 63.9244 47.0223 64.0644 47.3023C64.209 47.5776 64.2814 47.8926 64.2814 48.2473C64.2814 48.6019 64.209 48.9193 64.0644 49.1993C63.9244 49.4746 63.726 49.6916 63.4694 49.8503C63.2127 50.0089 62.9117 50.0883 62.5664 50.0883C62.2817 50.0883 62.0297 50.0299 61.8104 49.9133C61.5957 49.7966 61.43 49.6333 61.3134 49.4233V51.5443H60.7254ZM62.5034 49.5773C62.732 49.5773 62.935 49.5213 63.1124 49.4093C63.2897 49.2973 63.4274 49.1433 63.5254 48.9473C63.628 48.7466 63.6794 48.5109 63.6794 48.2403C63.6794 47.9743 63.628 47.7409 63.5254 47.5403C63.4274 47.3396 63.2897 47.1833 63.1124 47.0713C62.935 46.9593 62.732 46.9033 62.5034 46.9033C62.27 46.9033 62.0647 46.9593 61.8874 47.0713C61.71 47.1833 61.5724 47.3396 61.4744 47.5403C61.3764 47.7409 61.3274 47.9743 61.3274 48.2403C61.3274 48.5109 61.3764 48.7466 61.4744 48.9473C61.5724 49.1433 61.71 49.2973 61.8874 49.4093C62.0647 49.5213 62.27 49.5773 62.5034 49.5773ZM65.1632 50.0043V46.4763H65.7512V50.0043H65.1632ZM65.4572 45.7273C65.3405 45.7273 65.2425 45.6899 65.1632 45.6153C65.0885 45.5359 65.0512 45.4379 65.0512 45.3213C65.0512 45.2046 65.0885 45.1113 65.1632 45.0413C65.2425 44.9666 65.3405 44.9293 65.4572 44.9293C65.5692 44.9293 65.6649 44.9666 65.7442 45.0413C65.8235 45.1113 65.8632 45.2046 65.8632 45.3213C65.8632 45.4379 65.8235 45.5359 65.7442 45.6153C65.6649 45.6899 65.5692 45.7273 65.4572 45.7273ZM68.3778 50.0883C68.0465 50.0883 67.7478 50.0113 67.4818 49.8573C67.2205 49.7033 67.0152 49.4886 66.8658 49.2133C66.7165 48.9333 66.6418 48.6113 66.6418 48.2473C66.6418 47.8739 66.7165 47.5496 66.8658 47.2743C67.0152 46.9989 67.2205 46.7843 67.4818 46.6303C67.7478 46.4716 68.0465 46.3923 68.3778 46.3923C68.7978 46.3923 69.1478 46.5019 69.4278 46.7213C69.7078 46.9359 69.8852 47.2253 69.9598 47.5893H69.3578C69.3112 47.3699 69.1968 47.1996 69.0148 47.0783C68.8328 46.9569 68.6182 46.8963 68.3708 46.8963C68.1702 46.8963 67.9835 46.9476 67.8108 47.0503C67.6382 47.1483 67.5005 47.2976 67.3978 47.4983C67.2952 47.6989 67.2438 47.9463 67.2438 48.2403C67.2438 48.4596 67.2742 48.6556 67.3348 48.8283C67.3955 48.9963 67.4772 49.1363 67.5798 49.2483C67.6825 49.3603 67.8015 49.4466 67.9368 49.5073C68.0768 49.5633 68.2215 49.5913 68.3708 49.5913C68.5388 49.5913 68.6905 49.5656 68.8258 49.5143C68.9612 49.4583 69.0755 49.3766 69.1688 49.2693C69.2622 49.1619 69.3252 49.0359 69.3578 48.8913H69.9598C69.8852 49.2459 69.7055 49.5353 69.4208 49.7593C69.1408 49.9786 68.7932 50.0883 68.3778 50.0883ZM72.6891 50.0043V45.1043H74.2851C74.6724 45.1043 74.9897 45.1696 75.2371 45.3003C75.4891 45.4263 75.6734 45.5966 75.7901 45.8113C75.9114 46.0259 75.9721 46.2709 75.9721 46.5463C75.9721 46.8123 75.9114 47.0549 75.7901 47.2743C75.6734 47.4889 75.4914 47.6616 75.2441 47.7923C74.9967 47.9229 74.6771 47.9883 74.2851 47.9883H73.2771V50.0043H72.6891ZM73.2771 47.4913H74.2781C74.6701 47.4913 74.9501 47.4049 75.1181 47.2323C75.2861 47.0596 75.3701 46.8309 75.3701 46.5463C75.3701 46.2429 75.2861 46.0096 75.1181 45.8463C74.9501 45.6783 74.6701 45.5943 74.2781 45.5943H73.2771V47.4913ZM76.7146 50.0043V46.4763H77.2466L77.2886 47.1483C77.3679 46.9896 77.4683 46.8543 77.5896 46.7423C77.7156 46.6303 77.8649 46.5439 78.0376 46.4833C78.2149 46.4226 78.4156 46.3923 78.6396 46.3923V47.0083H78.4226C78.2733 47.0083 78.1309 47.0293 77.9956 47.0713C77.8603 47.1086 77.7389 47.1716 77.6316 47.2603C77.5289 47.3489 77.4473 47.4703 77.3866 47.6243C77.3306 47.7736 77.3026 47.9603 77.3026 48.1843V50.0043H76.7146ZM80.7505 50.0883C80.4239 50.0883 80.1299 50.0136 79.8685 49.8643C79.6072 49.7103 79.4019 49.4956 79.2525 49.2203C79.1032 48.9403 79.0285 48.6159 79.0285 48.2473C79.0285 47.8693 79.1032 47.5426 79.2525 47.2673C79.4065 46.9873 79.6142 46.7726 79.8755 46.6233C80.1415 46.4693 80.4379 46.3923 80.7645 46.3923C81.1005 46.3923 81.3969 46.4693 81.6535 46.6233C81.9149 46.7726 82.1202 46.9873 82.2695 47.2673C82.4235 47.5426 82.5005 47.8669 82.5005 48.2403C82.5005 48.6136 82.4235 48.9403 82.2695 49.2203C82.1155 49.4956 81.9079 49.7103 81.6465 49.8643C81.3852 50.0136 81.0865 50.0883 80.7505 50.0883ZM80.7575 49.5843C80.9582 49.5843 81.1449 49.5353 81.3175 49.4373C81.4902 49.3346 81.6302 49.1829 81.7375 48.9823C81.8449 48.7816 81.8985 48.5343 81.8985 48.2403C81.8985 47.9416 81.8449 47.6943 81.7375 47.4983C81.6349 47.2976 81.4972 47.1483 81.3245 47.0503C81.1565 46.9476 80.9699 46.8963 80.7645 46.8963C80.5685 46.8963 80.3819 46.9476 80.2045 47.0503C80.0319 47.1483 79.8919 47.2976 79.7845 47.4983C79.6819 47.6943 79.6305 47.9416 79.6305 48.2403C79.6305 48.5343 79.6819 48.7816 79.7845 48.9823C79.8919 49.1829 80.0295 49.3346 80.1975 49.4373C80.3702 49.5353 80.5569 49.5843 80.7575 49.5843ZM84.914 50.0883C84.5826 50.0883 84.284 50.0113 84.018 49.8573C83.7566 49.7033 83.5513 49.4886 83.402 49.2133C83.2526 48.9333 83.178 48.6113 83.178 48.2473C83.178 47.8739 83.2526 47.5496 83.402 47.2743C83.5513 46.9989 83.7566 46.7843 84.018 46.6303C84.284 46.4716 84.5826 46.3923 84.914 46.3923C85.334 46.3923 85.684 46.5019 85.964 46.7213C86.244 46.9359 86.4213 47.2253 86.496 47.5893H85.894C85.8473 47.3699 85.733 47.1996 85.551 47.0783C85.369 46.9569 85.1543 46.8963 84.907 46.8963C84.7063 46.8963 84.5196 46.9476 84.347 47.0503C84.1743 47.1483 84.0366 47.2976 83.934 47.4983C83.8313 47.6989 83.78 47.9463 83.78 48.2403C83.78 48.4596 83.8103 48.6556 83.871 48.8283C83.9316 48.9963 84.0133 49.1363 84.116 49.2483C84.2186 49.3603 84.3376 49.4466 84.473 49.5073C84.613 49.5633 84.7576 49.5913 84.907 49.5913C85.075 49.5913 85.2266 49.5656 85.362 49.5143C85.4973 49.4583 85.6116 49.3766 85.705 49.2693C85.7983 49.1619 85.8613 49.0359 85.894 48.8913H86.496C86.4213 49.2459 86.2416 49.5353 85.957 49.7593C85.677 49.9786 85.3293 50.0883 84.914 50.0883ZM88.8778 50.0883C88.5465 50.0883 88.2525 50.0113 87.9958 49.8573C87.7438 49.7033 87.5455 49.4886 87.4008 49.2133C87.2562 48.9333 87.1838 48.6089 87.1838 48.2403C87.1838 47.8669 87.2538 47.5426 87.3938 47.2673C87.5385 46.9919 87.7392 46.7773 87.9958 46.6233C88.2572 46.4693 88.5558 46.3923 88.8918 46.3923C89.2372 46.3923 89.5288 46.4693 89.7668 46.6233C90.0095 46.7773 90.1938 46.9803 90.3198 47.2323C90.4505 47.4796 90.5158 47.7526 90.5158 48.0513C90.5158 48.0979 90.5158 48.1469 90.5158 48.1983C90.5158 48.2496 90.5135 48.3079 90.5088 48.3733H87.6248V47.9183H89.9418C89.9278 47.5963 89.8205 47.3443 89.6198 47.1623C89.4238 46.9803 89.1765 46.8893 88.8778 46.8893C88.6772 46.8893 88.4905 46.9359 88.3178 47.0293C88.1498 47.1179 88.0145 47.2509 87.9118 47.4283C87.8092 47.6009 87.7578 47.8179 87.7578 48.0793V48.2753C87.7578 48.5646 87.8092 48.8073 87.9118 49.0033C88.0192 49.1993 88.1568 49.3463 88.3248 49.4443C88.4975 49.5423 88.6818 49.5913 88.8778 49.5913C89.1252 49.5913 89.3282 49.5376 89.4868 49.4303C89.6502 49.3183 89.7668 49.1689 89.8368 48.9823H90.4178C90.3618 49.1923 90.2638 49.3813 90.1238 49.5493C89.9838 49.7173 89.8088 49.8503 89.5988 49.9483C89.3935 50.0416 89.1532 50.0883 88.8778 50.0883ZM92.8633 50.0883C92.5227 50.0883 92.224 50.0089 91.9673 49.8503C91.7107 49.6869 91.5123 49.4653 91.3723 49.1853C91.2323 48.9053 91.1623 48.5879 91.1623 48.2333C91.1623 47.8786 91.2323 47.5636 91.3723 47.2883C91.5123 47.0083 91.7107 46.7889 91.9673 46.6303C92.2287 46.4716 92.5297 46.3923 92.8703 46.3923C93.1597 46.3923 93.4117 46.4506 93.6263 46.5673C93.8457 46.6839 94.0137 46.8473 94.1303 47.0573V44.9643H94.7183V50.0043H94.1863L94.1373 49.4233C94.0627 49.5399 93.967 49.6496 93.8503 49.7523C93.7337 49.8503 93.5937 49.9319 93.4303 49.9973C93.267 50.0579 93.078 50.0883 92.8633 50.0883ZM92.9333 49.5773C93.1667 49.5773 93.372 49.5213 93.5493 49.4093C93.7267 49.2973 93.8643 49.1433 93.9623 48.9473C94.0603 48.7466 94.1093 48.5109 94.1093 48.2403C94.1093 47.9743 94.0603 47.7409 93.9623 47.5403C93.8643 47.3396 93.7267 47.1833 93.5493 47.0713C93.372 46.9593 93.1667 46.9033 92.9333 46.9033C92.7047 46.9033 92.5017 46.9593 92.3243 47.0713C92.147 47.1833 92.0093 47.3396 91.9113 47.5403C91.8133 47.7409 91.7643 47.9743 91.7643 48.2403C91.7643 48.5109 91.8133 48.7466 91.9113 48.9473C92.0093 49.1433 92.147 49.2973 92.3243 49.4093C92.5017 49.5213 92.7047 49.5773 92.9333 49.5773ZM96.979 50.0883C96.7083 50.0883 96.4703 50.0346 96.265 49.9273C96.0643 49.8199 95.908 49.6543 95.796 49.4303C95.6887 49.2063 95.635 48.9263 95.635 48.5903V46.4763H96.223V48.5273C96.223 48.8773 96.3 49.1409 96.454 49.3183C96.608 49.4956 96.825 49.5843 97.105 49.5843C97.301 49.5843 97.4783 49.5376 97.637 49.4443C97.7957 49.3463 97.9193 49.2086 98.008 49.0313C98.1013 48.8493 98.148 48.6276 98.148 48.3663V46.4763H98.736V50.0043H98.204L98.169 49.3883C98.0617 49.6076 97.903 49.7803 97.693 49.9063C97.483 50.0276 97.245 50.0883 96.979 50.0883ZM99.7107 50.0043V46.4763H100.243L100.285 47.1483C100.364 46.9896 100.464 46.8543 100.586 46.7423C100.712 46.6303 100.861 46.5439 101.034 46.4833C101.211 46.4226 101.412 46.3923 101.636 46.3923V47.0083H101.419C101.269 47.0083 101.127 47.0293 100.992 47.0713C100.856 47.1086 100.735 47.1716 100.628 47.2603C100.525 47.3489 100.443 47.4703 100.383 47.6243C100.327 47.7736 100.299 47.9603 100.299 48.1843V50.0043H99.7107ZM103.719 50.0883C103.387 50.0883 103.093 50.0113 102.837 49.8573C102.585 49.7033 102.386 49.4886 102.242 49.2133C102.097 48.9333 102.025 48.6089 102.025 48.2403C102.025 47.8669 102.095 47.5426 102.235 47.2673C102.379 46.9919 102.58 46.7773 102.837 46.6233C103.098 46.4693 103.397 46.3923 103.733 46.3923C104.078 46.3923 104.37 46.4693 104.608 46.6233C104.85 46.7773 105.035 46.9803 105.161 47.2323C105.291 47.4796 105.357 47.7526 105.357 48.0513C105.357 48.0979 105.357 48.1469 105.357 48.1983C105.357 48.2496 105.354 48.3079 105.35 48.3733H102.466V47.9183H104.783C104.769 47.5963 104.661 47.3443 104.461 47.1623C104.265 46.9803 104.017 46.8893 103.719 46.8893C103.518 46.8893 103.331 46.9359 103.159 47.0293C102.991 47.1179 102.855 47.2509 102.753 47.4283C102.65 47.6009 102.599 47.8179 102.599 48.0793V48.2753C102.599 48.5646 102.65 48.8073 102.753 49.0033C102.86 49.1993 102.998 49.3463 103.166 49.4443C103.338 49.5423 103.523 49.5913 103.719 49.5913C103.966 49.5913 104.169 49.5376 104.328 49.4303C104.491 49.3183 104.608 49.1689 104.678 48.9823H105.259C105.203 49.1923 105.105 49.3813 104.965 49.5493C104.825 49.7173 104.65 49.8503 104.44 49.9483C104.234 50.0416 103.994 50.0883 103.719 50.0883Z" fill="#D5D5D5"/>
<path d="M152.246 39.3964V34.4964H153.24L154.808 37.6604L156.362 34.4964H157.363V39.3964H156.523V35.9384L155.137 38.7104H154.479L153.086 35.9454V39.3964H152.246ZM159.505 39.4804C159.216 39.4804 158.976 39.4314 158.784 39.3334C158.593 39.2354 158.451 39.1047 158.357 38.9414C158.264 38.778 158.217 38.6007 158.217 38.4094C158.217 38.1854 158.273 37.9917 158.385 37.8284C158.502 37.665 158.672 37.539 158.896 37.4504C159.12 37.357 159.396 37.3104 159.722 37.3104H160.611C160.611 37.1237 160.586 36.9697 160.534 36.8484C160.483 36.7224 160.404 36.629 160.296 36.5684C160.189 36.5077 160.051 36.4774 159.883 36.4774C159.692 36.4774 159.529 36.5217 159.393 36.6104C159.258 36.6944 159.174 36.825 159.141 37.0024H158.315C158.343 36.7504 158.427 36.5357 158.567 36.3584C158.707 36.1764 158.892 36.0364 159.12 35.9384C159.354 35.8357 159.608 35.7844 159.883 35.7844C160.215 35.7844 160.497 35.8427 160.73 35.9594C160.964 36.0714 161.141 36.2347 161.262 36.4494C161.388 36.6594 161.451 36.9137 161.451 37.2124V39.3964H160.737L160.653 38.8294C160.607 38.9227 160.546 39.009 160.471 39.0884C160.401 39.1677 160.32 39.2377 160.226 39.2984C160.133 39.3544 160.026 39.3987 159.904 39.4314C159.788 39.464 159.655 39.4804 159.505 39.4804ZM159.694 38.8154C159.83 38.8154 159.949 38.792 160.051 38.7454C160.159 38.694 160.25 38.624 160.324 38.5354C160.404 38.442 160.464 38.3394 160.506 38.2274C160.548 38.1154 160.576 37.9964 160.59 37.8704V37.8564H159.813C159.65 37.8564 159.515 37.8774 159.407 37.9194C159.3 37.9567 159.223 38.0127 159.176 38.0874C159.13 38.162 159.106 38.2484 159.106 38.3464C159.106 38.4444 159.13 38.5284 159.176 38.5984C159.223 38.6684 159.291 38.722 159.379 38.7594C159.468 38.7967 159.573 38.8154 159.694 38.8154ZM162.349 39.3964V35.8684H163.098L163.175 36.5264C163.259 36.3724 163.364 36.2417 163.49 36.1344C163.616 36.0224 163.763 35.936 163.931 35.8754C164.104 35.8147 164.293 35.7844 164.498 35.7844V36.6734H164.204C164.064 36.6734 163.931 36.692 163.805 36.7294C163.679 36.762 163.569 36.818 163.476 36.8974C163.387 36.972 163.317 37.077 163.266 37.2124C163.215 37.343 163.189 37.5087 163.189 37.7094V39.3964H162.349ZM166.749 39.3964V38.7874C167.062 38.54 167.36 38.2927 167.645 38.0454C167.93 37.798 168.186 37.553 168.415 37.3104C168.644 37.0677 168.823 36.8297 168.954 36.5964C169.085 36.363 169.15 36.139 169.15 35.9244C169.15 35.7844 169.124 35.6537 169.073 35.5324C169.022 35.411 168.94 35.313 168.828 35.2384C168.721 35.1637 168.576 35.1264 168.394 35.1264C168.217 35.1264 168.065 35.166 167.939 35.2454C167.818 35.3247 167.727 35.432 167.666 35.5674C167.605 35.698 167.575 35.8474 167.575 36.0154H166.763C166.772 35.6607 166.849 35.3644 166.994 35.1264C167.139 34.8884 167.335 34.711 167.582 34.5944C167.829 34.473 168.107 34.4124 168.415 34.4124C168.746 34.4124 169.029 34.473 169.262 34.5944C169.495 34.7157 169.675 34.886 169.801 35.1054C169.927 35.3247 169.99 35.5837 169.99 35.8824C169.99 36.1017 169.948 36.3187 169.864 36.5334C169.785 36.7434 169.673 36.9487 169.528 37.1494C169.383 37.3454 169.22 37.5367 169.038 37.7234C168.861 37.9054 168.676 38.0804 168.485 38.2484C168.294 38.4117 168.109 38.5634 167.932 38.7034H170.123V39.3964H166.749ZM172.82 39.4804C172.377 39.4804 171.996 39.3754 171.679 39.1654C171.362 38.9507 171.117 38.6544 170.944 38.2764C170.776 37.8937 170.692 37.4504 170.692 36.9464C170.692 36.4424 170.776 36.0014 170.944 35.6234C171.117 35.2407 171.362 34.9444 171.679 34.7344C171.996 34.5197 172.377 34.4124 172.82 34.4124C173.259 34.4124 173.634 34.5197 173.947 34.7344C174.264 34.9444 174.507 35.2407 174.675 35.6234C174.848 36.0014 174.934 36.4424 174.934 36.9464C174.934 37.4504 174.848 37.8937 174.675 38.2764C174.507 38.6544 174.264 38.9507 173.947 39.1654C173.634 39.3754 173.259 39.4804 172.82 39.4804ZM172.813 38.7244C173.06 38.7244 173.28 38.6544 173.471 38.5144C173.662 38.3697 173.809 38.1644 173.912 37.8984C174.019 37.6324 174.073 37.315 174.073 36.9464C174.073 36.5777 174.019 36.2604 173.912 35.9944C173.809 35.7284 173.662 35.5254 173.471 35.3854C173.28 35.2407 173.06 35.1684 172.813 35.1684C172.566 35.1684 172.346 35.2407 172.155 35.3854C171.964 35.5254 171.814 35.7284 171.707 35.9944C171.604 36.2604 171.553 36.5777 171.553 36.9464C171.553 37.315 171.604 37.6324 171.707 37.8984C171.814 38.1644 171.964 38.3697 172.155 38.5144C172.346 38.6544 172.566 38.7244 172.813 38.7244ZM175.595 39.3964V38.7874C175.907 38.54 176.206 38.2927 176.491 38.0454C176.775 37.798 177.032 37.553 177.261 37.3104C177.489 37.0677 177.669 36.8297 177.8 36.5964C177.93 36.363 177.996 36.139 177.996 35.9244C177.996 35.7844 177.97 35.6537 177.919 35.5324C177.867 35.411 177.786 35.313 177.674 35.2384C177.566 35.1637 177.422 35.1264 177.24 35.1264C177.062 35.1264 176.911 35.166 176.785 35.2454C176.663 35.3247 176.572 35.432 176.512 35.5674C176.451 35.698 176.421 35.8474 176.421 36.0154H175.609C175.618 35.6607 175.695 35.3644 175.84 35.1264C175.984 34.8884 176.18 34.711 176.428 34.5944C176.675 34.473 176.953 34.4124 177.261 34.4124C177.592 34.4124 177.874 34.473 178.108 34.5944C178.341 34.7157 178.521 34.886 178.647 35.1054C178.773 35.3247 178.836 35.5837 178.836 35.8824C178.836 36.1017 178.794 36.3187 178.71 36.5334C178.63 36.7434 178.518 36.9487 178.374 37.1494C178.229 37.3454 178.066 37.5367 177.884 37.7234C177.706 37.9054 177.522 38.0804 177.331 38.2484C177.139 38.4117 176.955 38.5634 176.778 38.7034H178.969V39.3964H175.595ZM181.343 39.4804C181.026 39.4804 180.736 39.4244 180.475 39.3124C180.214 39.1957 180.004 39.0207 179.845 38.7874C179.691 38.5494 179.609 38.2507 179.6 37.8914H180.426C180.431 38.0547 180.468 38.204 180.538 38.3394C180.613 38.47 180.718 38.575 180.853 38.6544C180.988 38.729 181.152 38.7664 181.343 38.7664C181.525 38.7664 181.679 38.7314 181.805 38.6614C181.936 38.5914 182.034 38.4957 182.099 38.3744C182.164 38.253 182.197 38.1177 182.197 37.9684C182.197 37.7864 182.153 37.637 182.064 37.5204C181.975 37.399 181.854 37.308 181.7 37.2474C181.546 37.1867 181.371 37.1564 181.175 37.1564H180.811V36.4634H181.175C181.432 36.4634 181.642 36.405 181.805 36.2884C181.968 36.167 182.05 35.992 182.05 35.7634C182.05 35.572 181.987 35.418 181.861 35.3014C181.74 35.1847 181.565 35.1264 181.336 35.1264C181.098 35.1264 180.909 35.1964 180.769 35.3364C180.634 35.4764 180.559 35.649 180.545 35.8544H179.719C179.733 35.5604 179.808 35.306 179.943 35.0914C180.083 34.872 180.272 34.704 180.51 34.5874C180.748 34.4707 181.026 34.4124 181.343 34.4124C181.674 34.4124 181.954 34.4707 182.183 34.5874C182.412 34.704 182.584 34.8604 182.701 35.0564C182.822 35.2524 182.883 35.467 182.883 35.7004C182.883 35.8824 182.848 36.048 182.778 36.1974C182.708 36.3467 182.612 36.4727 182.491 36.5754C182.374 36.6734 182.237 36.7457 182.078 36.7924C182.26 36.8297 182.421 36.902 182.561 37.0094C182.706 37.1167 182.818 37.2544 182.897 37.4224C182.981 37.5857 183.023 37.777 183.023 37.9964C183.023 38.2624 182.958 38.5097 182.827 38.7384C182.701 38.9624 182.512 39.142 182.26 39.2774C182.013 39.4127 181.707 39.4804 181.343 39.4804Z" fill="#191B25"/>
<path d="M123.106 47.1868V42.9868H124.612C124.944 42.9868 125.218 43.0448 125.434 43.1608C125.654 43.2728 125.816 43.4248 125.92 43.6168C126.028 43.8048 126.082 44.0188 126.082 44.2588C126.082 44.4828 126.03 44.6908 125.926 44.8828C125.822 45.0748 125.66 45.2288 125.44 45.3448C125.22 45.4608 124.938 45.5188 124.594 45.5188H123.826V47.1868H123.106ZM125.296 47.1868L124.414 45.3328H125.194L126.118 47.1868H125.296ZM123.826 44.9848H124.564C124.832 44.9848 125.028 44.9208 125.152 44.7928C125.28 44.6608 125.344 44.4888 125.344 44.2768C125.344 44.0688 125.282 43.9028 125.158 43.7788C125.034 43.6508 124.836 43.5868 124.564 43.5868H123.826V44.9848ZM128.289 47.2588C127.989 47.2588 127.725 47.1948 127.497 47.0668C127.269 46.9348 127.091 46.7508 126.963 46.5148C126.835 46.2788 126.771 46.0068 126.771 45.6988C126.771 45.3788 126.833 45.0988 126.957 44.8588C127.085 44.6188 127.263 44.4308 127.491 44.2948C127.723 44.1588 127.991 44.0908 128.295 44.0908C128.591 44.0908 128.849 44.1568 129.069 44.2888C129.289 44.4208 129.459 44.5988 129.579 44.8228C129.699 45.0428 129.759 45.2908 129.759 45.5668C129.759 45.6068 129.759 45.6508 129.759 45.6988C129.759 45.7468 129.755 45.7968 129.747 45.8488H127.287V45.3868H129.033C129.025 45.1668 128.951 44.9948 128.811 44.8708C128.671 44.7428 128.497 44.6788 128.289 44.6788C128.141 44.6788 128.005 44.7128 127.881 44.7808C127.757 44.8488 127.659 44.9508 127.587 45.0868C127.515 45.2188 127.479 45.3868 127.479 45.5908V45.7648C127.479 45.9528 127.513 46.1148 127.581 46.2508C127.653 46.3868 127.749 46.4908 127.869 46.5628C127.993 46.6308 128.131 46.6648 128.283 46.6648C128.451 46.6648 128.589 46.6288 128.697 46.5568C128.809 46.4848 128.891 46.3888 128.943 46.2688H129.675C129.619 46.4568 129.527 46.6268 129.399 46.7788C129.271 46.9268 129.113 47.0448 128.925 47.1328C128.737 47.2168 128.525 47.2588 128.289 47.2588ZM132.109 47.2588C131.813 47.2588 131.547 47.1928 131.311 47.0608C131.079 46.9248 130.897 46.7388 130.765 46.5028C130.637 46.2628 130.573 45.9908 130.573 45.6868C130.573 45.3708 130.637 45.0948 130.765 44.8588C130.897 44.6188 131.079 44.4308 131.311 44.2948C131.547 44.1588 131.815 44.0908 132.115 44.0908C132.491 44.0908 132.807 44.1908 133.063 44.3908C133.319 44.5868 133.483 44.8568 133.555 45.2008H132.799C132.759 45.0488 132.675 44.9288 132.547 44.8408C132.423 44.7528 132.275 44.7088 132.103 44.7088C131.955 44.7088 131.819 44.7468 131.695 44.8228C131.575 44.8988 131.479 45.0088 131.407 45.1528C131.339 45.2968 131.305 45.4708 131.305 45.6748C131.305 45.8308 131.325 45.9688 131.365 46.0888C131.405 46.2088 131.461 46.3108 131.533 46.3948C131.609 46.4748 131.695 46.5368 131.791 46.5808C131.887 46.6248 131.991 46.6468 132.103 46.6468C132.219 46.6468 132.323 46.6288 132.415 46.5928C132.511 46.5528 132.591 46.4948 132.655 46.4188C132.723 46.3428 132.771 46.2528 132.799 46.1488H133.555C133.483 46.4848 133.319 46.7548 133.063 46.9588C132.807 47.1588 132.489 47.2588 132.109 47.2588ZM135.911 47.2588C135.623 47.2588 135.363 47.1928 135.131 47.0608C134.903 46.9248 134.723 46.7388 134.591 46.5028C134.463 46.2628 134.399 45.9888 134.399 45.6808C134.399 45.3648 134.465 45.0888 134.597 44.8528C134.729 44.6128 134.909 44.4268 135.137 44.2948C135.369 44.1588 135.629 44.0908 135.917 44.0908C136.205 44.0908 136.463 44.1588 136.691 44.2948C136.923 44.4268 137.103 44.6108 137.231 44.8468C137.363 45.0828 137.429 45.3588 137.429 45.6748C137.429 45.9908 137.363 46.2668 137.231 46.5028C137.099 46.7388 136.917 46.9248 136.685 47.0608C136.457 47.1928 136.199 47.2588 135.911 47.2588ZM135.911 46.6408C136.055 46.6408 136.185 46.6048 136.301 46.5328C136.421 46.4608 136.517 46.3528 136.589 46.2088C136.661 46.0648 136.697 45.8868 136.697 45.6748C136.697 45.4628 136.661 45.2868 136.589 45.1468C136.521 45.0028 136.427 44.8948 136.307 44.8228C136.191 44.7508 136.061 44.7148 135.917 44.7148C135.777 44.7148 135.647 44.7508 135.527 44.8228C135.407 44.8948 135.311 45.0028 135.239 45.1468C135.167 45.2868 135.131 45.4628 135.131 45.6748C135.131 45.8868 135.167 46.0648 135.239 46.2088C135.311 46.3528 135.405 46.4608 135.521 46.5328C135.641 46.6048 135.771 46.6408 135.911 46.6408ZM139.067 47.1868L137.951 44.1628H138.707L139.505 46.5028L140.303 44.1628H141.047L139.931 47.1868H139.067ZM143.082 47.2588C142.782 47.2588 142.518 47.1948 142.29 47.0668C142.062 46.9348 141.884 46.7508 141.756 46.5148C141.628 46.2788 141.564 46.0068 141.564 45.6988C141.564 45.3788 141.626 45.0988 141.75 44.8588C141.878 44.6188 142.056 44.4308 142.284 44.2948C142.516 44.1588 142.784 44.0908 143.088 44.0908C143.384 44.0908 143.642 44.1568 143.862 44.2888C144.082 44.4208 144.252 44.5988 144.372 44.8228C144.492 45.0428 144.552 45.2908 144.552 45.5668C144.552 45.6068 144.552 45.6508 144.552 45.6988C144.552 45.7468 144.548 45.7968 144.54 45.8488H142.08V45.3868H143.826C143.818 45.1668 143.744 44.9948 143.604 44.8708C143.464 44.7428 143.29 44.6788 143.082 44.6788C142.934 44.6788 142.798 44.7128 142.674 44.7808C142.55 44.8488 142.452 44.9508 142.38 45.0868C142.308 45.2188 142.272 45.3868 142.272 45.5908V45.7648C142.272 45.9528 142.306 46.1148 142.374 46.2508C142.446 46.3868 142.542 46.4908 142.662 46.5628C142.786 46.6308 142.924 46.6648 143.076 46.6648C143.244 46.6648 143.382 46.6288 143.49 46.5568C143.602 46.4848 143.684 46.3888 143.736 46.2688H144.468C144.412 46.4568 144.32 46.6268 144.192 46.7788C144.064 46.9268 143.906 47.0448 143.718 47.1328C143.53 47.2168 143.318 47.2588 143.082 47.2588ZM145.468 47.1868V44.1628H146.11L146.176 44.7268C146.248 44.5948 146.338 44.4828 146.446 44.3908C146.554 44.2948 146.68 44.2208 146.824 44.1688C146.972 44.1168 147.134 44.0908 147.31 44.0908V44.8528H147.058C146.938 44.8528 146.824 44.8688 146.716 44.9008C146.608 44.9288 146.514 44.9768 146.434 45.0448C146.358 45.1088 146.298 45.1988 146.254 45.3148C146.21 45.4268 146.188 45.5688 146.188 45.7408V47.1868H145.468ZM148.471 48.5068L149.209 46.8508H149.029L147.823 44.1628H148.609L149.509 46.2148L150.361 44.1628H151.123L149.233 48.5068H148.471ZM155.502 47.2588C155.086 47.2588 154.726 47.1688 154.422 46.9888C154.122 46.8048 153.89 46.5508 153.726 46.2268C153.566 45.8988 153.486 45.5208 153.486 45.0928C153.486 44.6608 153.566 44.2828 153.726 43.9588C153.89 43.6308 154.122 43.3748 154.422 43.1908C154.726 43.0068 155.086 42.9148 155.502 42.9148C156.002 42.9148 156.41 43.0388 156.726 43.2868C157.042 43.5308 157.242 43.8768 157.326 44.3248H156.534C156.478 44.0888 156.364 43.9028 156.192 43.7668C156.02 43.6308 155.788 43.5628 155.496 43.5628C155.232 43.5628 155.004 43.6248 154.812 43.7488C154.624 43.8688 154.478 44.0448 154.374 44.2768C154.274 44.5048 154.224 44.7768 154.224 45.0928C154.224 45.4088 154.274 45.6808 154.374 45.9088C154.478 46.1328 154.624 46.3068 154.812 46.4308C155.004 46.5508 155.232 46.6108 155.496 46.6108C155.788 46.6108 156.02 46.5488 156.192 46.4248C156.364 46.2968 156.478 46.1208 156.534 45.8968H157.326C157.246 46.3208 157.046 46.6548 156.726 46.8988C156.41 47.1388 156.002 47.2588 155.502 47.2588ZM159.668 47.2588C159.38 47.2588 159.12 47.1928 158.888 47.0608C158.66 46.9248 158.48 46.7388 158.348 46.5028C158.22 46.2628 158.156 45.9888 158.156 45.6808C158.156 45.3648 158.222 45.0888 158.354 44.8528C158.486 44.6128 158.666 44.4268 158.894 44.2948C159.126 44.1588 159.386 44.0908 159.674 44.0908C159.962 44.0908 160.22 44.1588 160.448 44.2948C160.68 44.4268 160.86 44.6108 160.988 44.8468C161.12 45.0828 161.186 45.3588 161.186 45.6748C161.186 45.9908 161.12 46.2668 160.988 46.5028C160.856 46.7388 160.674 46.9248 160.442 47.0608C160.214 47.1928 159.956 47.2588 159.668 47.2588ZM159.668 46.6408C159.812 46.6408 159.942 46.6048 160.058 46.5328C160.178 46.4608 160.274 46.3528 160.346 46.2088C160.418 46.0648 160.454 45.8868 160.454 45.6748C160.454 45.4628 160.418 45.2868 160.346 45.1468C160.278 45.0028 160.184 44.8948 160.064 44.8228C159.948 44.7508 159.818 44.7148 159.674 44.7148C159.534 44.7148 159.404 44.7508 159.284 44.8228C159.164 44.8948 159.068 45.0028 158.996 45.1468C158.924 45.2868 158.888 45.4628 158.888 45.6748C158.888 45.8868 158.924 46.0648 158.996 46.2088C159.068 46.3528 159.162 46.4608 159.278 46.5328C159.398 46.6048 159.528 46.6408 159.668 46.6408ZM162.142 47.1868V44.1628H162.778L162.838 44.5768C162.934 44.4248 163.06 44.3068 163.216 44.2228C163.376 44.1348 163.558 44.0908 163.762 44.0908C163.914 44.0908 164.05 44.1108 164.17 44.1508C164.294 44.1908 164.402 44.2508 164.494 44.3308C164.59 44.4108 164.668 44.5108 164.728 44.6308C164.84 44.4628 164.986 44.3308 165.166 44.2348C165.346 44.1388 165.542 44.0908 165.754 44.0908C166.006 44.0908 166.22 44.1428 166.396 44.2468C166.572 44.3468 166.706 44.4968 166.798 44.6968C166.89 44.8928 166.936 45.1348 166.936 45.4228V47.1868H166.222V45.4948C166.222 45.2388 166.17 45.0428 166.066 44.9068C165.962 44.7708 165.808 44.7028 165.604 44.7028C165.464 44.7028 165.34 44.7368 165.232 44.8048C165.128 44.8728 165.046 44.9728 164.986 45.1048C164.926 45.2328 164.896 45.3908 164.896 45.5788V47.1868H164.182V45.4948C164.182 45.2388 164.13 45.0428 164.026 44.9068C163.922 44.7708 163.766 44.7028 163.558 44.7028C163.426 44.7028 163.306 44.7368 163.198 44.8048C163.094 44.8728 163.012 44.9728 162.952 45.1048C162.892 45.2328 162.862 45.3908 162.862 45.5788V47.1868H162.142ZM167.948 48.5068V44.1628H168.59L168.668 44.6008C168.732 44.5128 168.808 44.4308 168.896 44.3548C168.988 44.2748 169.098 44.2108 169.226 44.1628C169.358 44.1148 169.508 44.0908 169.676 44.0908C169.96 44.0908 170.21 44.1608 170.426 44.3008C170.646 44.4408 170.818 44.6308 170.942 44.8708C171.066 45.1068 171.128 45.3768 171.128 45.6808C171.128 45.9848 171.064 46.2568 170.936 46.4968C170.812 46.7328 170.64 46.9188 170.42 47.0548C170.204 47.1908 169.956 47.2588 169.676 47.2588C169.448 47.2588 169.248 47.2168 169.076 47.1328C168.908 47.0448 168.772 46.9208 168.668 46.7608V48.5068H167.948ZM169.526 46.6348C169.694 46.6348 169.844 46.5948 169.976 46.5148C170.108 46.4348 170.21 46.3228 170.282 46.1788C170.358 46.0348 170.396 45.8688 170.396 45.6808C170.396 45.4888 170.358 45.3208 170.282 45.1768C170.21 45.0328 170.108 44.9208 169.976 44.8408C169.844 44.7608 169.694 44.7208 169.526 44.7208C169.354 44.7208 169.202 44.7608 169.07 44.8408C168.942 44.9208 168.84 45.0328 168.764 45.1768C168.692 45.3208 168.656 45.4868 168.656 45.6748C168.656 45.8668 168.692 46.0348 168.764 46.1788C168.84 46.3188 168.942 46.4308 169.07 46.5148C169.202 46.5948 169.354 46.6348 169.526 46.6348ZM172.079 47.1868V42.8668H172.799V47.1868H172.079ZM175.27 47.2588C174.97 47.2588 174.706 47.1948 174.478 47.0668C174.25 46.9348 174.072 46.7508 173.944 46.5148C173.816 46.2788 173.752 46.0068 173.752 45.6988C173.752 45.3788 173.814 45.0988 173.938 44.8588C174.066 44.6188 174.244 44.4308 174.472 44.2948C174.704 44.1588 174.972 44.0908 175.276 44.0908C175.572 44.0908 175.83 44.1568 176.05 44.2888C176.27 44.4208 176.44 44.5988 176.56 44.8228C176.68 45.0428 176.74 45.2908 176.74 45.5668C176.74 45.6068 176.74 45.6508 176.74 45.6988C176.74 45.7468 176.736 45.7968 176.728 45.8488H174.268V45.3868H176.014C176.006 45.1668 175.932 44.9948 175.792 44.8708C175.652 44.7428 175.478 44.6788 175.27 44.6788C175.122 44.6788 174.986 44.7128 174.862 44.7808C174.738 44.8488 174.64 44.9508 174.568 45.0868C174.496 45.2188 174.46 45.3868 174.46 45.5908V45.7648C174.46 45.9528 174.494 46.1148 174.562 46.2508C174.634 46.3868 174.73 46.4908 174.85 46.5628C174.974 46.6308 175.112 46.6648 175.264 46.6648C175.432 46.6648 175.57 46.6288 175.678 46.5568C175.79 46.4848 175.872 46.3888 175.924 46.2688H176.656C176.6 46.4568 176.508 46.6268 176.38 46.7788C176.252 46.9268 176.094 47.0448 175.906 47.1328C175.718 47.2168 175.506 47.2588 175.27 47.2588ZM178.912 47.1868C178.708 47.1868 178.53 47.1548 178.378 47.0908C178.23 47.0268 178.114 46.9208 178.03 46.7728C177.946 46.6248 177.904 46.4248 177.904 46.1728V44.7688H177.388V44.1628H177.904L177.988 43.3648H178.624V44.1628H179.446V44.7688H178.624V46.1728C178.624 46.3248 178.656 46.4308 178.72 46.4908C178.788 46.5468 178.9 46.5748 179.056 46.5748H179.428V47.1868H178.912ZM181.714 47.2588C181.414 47.2588 181.15 47.1948 180.922 47.0668C180.694 46.9348 180.516 46.7508 180.388 46.5148C180.26 46.2788 180.196 46.0068 180.196 45.6988C180.196 45.3788 180.258 45.0988 180.382 44.8588C180.51 44.6188 180.688 44.4308 180.916 44.2948C181.148 44.1588 181.416 44.0908 181.72 44.0908C182.016 44.0908 182.274 44.1568 182.494 44.2888C182.714 44.4208 182.884 44.5988 183.004 44.8228C183.124 45.0428 183.184 45.2908 183.184 45.5668C183.184 45.6068 183.184 45.6508 183.184 45.6988C183.184 45.7468 183.18 45.7968 183.172 45.8488H180.712V45.3868H182.458C182.45 45.1668 182.376 44.9948 182.236 44.8708C182.096 44.7428 181.922 44.6788 181.714 44.6788C181.566 44.6788 181.43 44.7128 181.306 44.7808C181.182 44.8488 181.084 44.9508 181.012 45.0868C180.94 45.2188 180.904 45.3868 180.904 45.5908V45.7648C180.904 45.9528 180.938 46.1148 181.006 46.2508C181.078 46.3868 181.174 46.4908 181.294 46.5628C181.418 46.6308 181.556 46.6648 181.708 46.6648C181.876 46.6648 182.014 46.6288 182.122 46.5568C182.234 46.4848 182.316 46.3888 182.368 46.2688H183.1C183.044 46.4568 182.952 46.6268 182.824 46.7788C182.696 46.9268 182.538 47.0448 182.35 47.1328C182.162 47.2168 181.95 47.2588 181.714 47.2588Z" fill="white"/>
<path d="M18.527 24.5448C18.1117 24.5448 17.7578 24.3986 17.4655 24.1063C17.1732 23.814 17.0271 23.4602 17.0271 23.0448V20.5449H19.9117V17.7948C19.3027 17.8448 18.7004 17.7702 18.1049 17.5708C17.5094 17.3715 16.995 17.05 16.5617 16.6064V15.3525H15.277L12.2578 12.3333C12.845 11.6885 13.5418 11.2221 14.3482 10.9343C15.1546 10.6465 15.9757 10.5026 16.8116 10.5026C17.3578 10.5026 17.8882 10.5648 18.403 10.6891C18.9177 10.8135 19.4206 11.0186 19.9117 11.3045V9.69873H30.9116V22.0448C30.9116 22.7435 30.6696 23.3349 30.1856 23.8188C29.7017 24.3028 29.1103 24.5448 28.4116 24.5448H18.527ZM21.4116 20.5449H27.4116V22.0448C27.4116 22.3282 27.5075 22.5657 27.6991 22.7573C27.8908 22.949 28.1283 23.0448 28.4116 23.0448C28.695 23.0448 28.9325 22.949 29.1241 22.7573C29.3158 22.5657 29.4116 22.3282 29.4116 22.0448V11.1987H21.4116V12.2987L27.1616 18.0487V19.1025H26.1078L23.1616 16.1564L22.7789 16.5391C22.5648 16.7532 22.3462 16.9391 22.1232 17.0968C21.9001 17.2545 21.6629 17.3833 21.4116 17.4833V20.5449ZM15.9155 13.8526H18.0616V15.9064C18.3321 16.0782 18.595 16.1955 18.8501 16.2583C19.1052 16.3212 19.3591 16.3526 19.6116 16.3526C20.0334 16.3526 20.4145 16.2846 20.7549 16.1487C21.0953 16.0128 21.4219 15.7885 21.7347 15.4756L22.1078 15.1026L20.5347 13.5295C20.0257 13.0205 19.4552 12.6388 18.8232 12.3843C18.1911 12.1298 17.5206 12.0025 16.8116 12.0025C16.4014 12.0025 16.0062 12.0468 15.626 12.1352C15.2459 12.2237 14.8898 12.3436 14.5578 12.4949L15.9155 13.8526ZM25.9117 22.0448H18.527V23.0448H26.1386C26.0565 22.9012 25.9982 22.7445 25.9636 22.5746C25.929 22.4048 25.9117 22.2282 25.9117 22.0448ZM18.527 23.0448C18.527 22.9012 18.527 22.7445 18.527 22.5746C18.527 22.4048 18.527 22.2282 18.527 22.0448C18.527 22.2115 18.527 22.3782 18.527 22.5448C18.527 22.7115 18.527 22.8782 18.527 23.0448Z" fill="#2B54A8"/>
<path d="M39.3369 20.2761C38.7158 20.2761 38.1642 20.1658 37.6821 19.9452C37.1999 19.7245 36.824 19.4099 36.5543 19.0013C36.2846 18.5927 36.1457 18.1064 36.1376 17.5426H37.6943C37.6943 17.8286 37.7597 18.086 37.8905 18.3148C38.0294 18.5355 38.2173 18.7112 38.4543 18.8419C38.6995 18.9727 38.9937 19.0381 39.3369 19.0381C39.6311 19.0381 39.8844 18.9931 40.0969 18.9032C40.3176 18.8052 40.4851 18.6703 40.5995 18.4987C40.7221 18.3189 40.7834 18.1105 40.7834 17.8735C40.7834 17.6039 40.718 17.3832 40.5872 17.2116C40.4646 17.0318 40.293 16.8806 40.0724 16.7581C39.8517 16.6355 39.5984 16.5292 39.3124 16.4394C39.0264 16.3413 38.724 16.2391 38.4053 16.1329C37.727 15.9041 37.2163 15.614 36.873 15.2626C36.5298 14.903 36.3582 14.4249 36.3582 13.8284C36.3582 13.3299 36.4767 12.9009 36.7137 12.5413C36.9507 12.1817 37.2816 11.9039 37.7066 11.7077C38.1397 11.5034 38.6382 11.4013 39.2021 11.4013C39.7741 11.4013 40.2726 11.5034 40.6976 11.7077C41.1307 11.912 41.4698 12.1981 41.715 12.5658C41.9683 12.9254 42.0991 13.3585 42.1072 13.8652H40.5382C40.53 13.6527 40.4728 13.4566 40.3666 13.2768C40.2603 13.0888 40.1051 12.9376 39.9008 12.8232C39.7046 12.7006 39.4636 12.6394 39.1776 12.6394C38.9324 12.6312 38.7117 12.672 38.5156 12.7619C38.3277 12.8437 38.1765 12.9662 38.0621 13.1297C37.9558 13.2849 37.9027 13.4811 37.9027 13.7181C37.9027 13.9469 37.9517 14.1389 38.0498 14.2942C38.156 14.4413 38.3072 14.568 38.5034 14.6742C38.6995 14.7723 38.9283 14.8662 39.1898 14.9561C39.4513 15.046 39.7373 15.1441 40.0479 15.2503C40.4728 15.3892 40.8569 15.5609 41.2001 15.7652C41.5515 15.9613 41.8294 16.2187 42.0337 16.5374C42.238 16.8561 42.3401 17.2688 42.3401 17.7755C42.3401 18.2168 42.2257 18.6295 41.9969 19.0135C41.7681 19.3895 41.433 19.6959 40.9917 19.9329C40.5505 20.1617 39.9988 20.2761 39.3369 20.2761ZM46.0136 20.2761C45.5151 20.2761 45.0861 20.1781 44.7265 19.9819C44.3751 19.7776 44.1055 19.4753 43.9175 19.0748C43.7295 18.6662 43.6356 18.1637 43.6356 17.5671V13.951H45.1065V17.42C45.1065 17.9512 45.2168 18.3557 45.4375 18.6335C45.6663 18.9032 46.0095 19.0381 46.4672 19.0381C46.7614 19.0381 47.0229 18.9686 47.2517 18.8297C47.4887 18.6907 47.6725 18.4905 47.8033 18.229C47.9422 17.9594 48.0117 17.6325 48.0117 17.2484V13.951H49.4827V20.129H48.1833L48.073 19.0994C47.885 19.4589 47.6113 19.7449 47.2517 19.9574C46.9003 20.1699 46.4876 20.2761 46.0136 20.2761ZM51.1193 20.129V13.951H52.4309L52.5658 15.1032C52.7128 14.8335 52.8967 14.6047 53.1174 14.4168C53.338 14.2206 53.5954 14.0695 53.8896 13.9632C54.192 13.857 54.523 13.8039 54.8825 13.8039V15.3606H54.3677C54.1225 15.3606 53.8896 15.3933 53.669 15.4587C53.4483 15.5159 53.2563 15.614 53.0928 15.7529C52.9376 15.8837 52.815 16.0675 52.7251 16.3045C52.6352 16.5333 52.5903 16.8234 52.5903 17.1748V20.129H51.1193ZM58.4465 22.9729C57.8662 22.9729 57.3555 22.8994 56.9142 22.7523C56.4811 22.6133 56.1419 22.3968 55.8968 22.1026C55.6598 21.8166 55.5413 21.457 55.5413 21.0239C55.5413 20.7705 55.6026 20.5213 55.7252 20.2761C55.8559 20.0391 56.048 19.8185 56.3013 19.6142C56.5628 19.4017 56.8938 19.2178 57.2942 19.0626L57.9439 19.7735C57.5516 19.9125 57.2779 20.08 57.1226 20.2761C56.9673 20.4723 56.8897 20.6725 56.8897 20.8768C56.8897 21.0892 56.9551 21.2649 57.0858 21.4039C57.2247 21.551 57.4086 21.6613 57.6374 21.7348C57.8744 21.8084 58.14 21.8452 58.4342 21.8452C58.7202 21.8452 58.9695 21.8043 59.1819 21.7226C59.3944 21.649 59.5579 21.5428 59.6723 21.4039C59.7948 21.2649 59.8561 21.0974 59.8561 20.9013C59.8561 20.6561 59.7703 20.4559 59.5987 20.3006C59.4271 20.1535 59.088 20.0637 58.5813 20.031C58.1482 19.9983 57.7682 19.9533 57.4413 19.8961C57.1144 19.8307 56.8325 19.7572 56.5955 19.6755C56.3667 19.5938 56.1705 19.5039 56.0071 19.4058C55.8437 19.2996 55.7088 19.1933 55.6026 19.0871V18.8052L56.8897 17.4568L57.9807 17.8123L56.5342 19.2219L56.9142 18.511C56.9959 18.5682 57.0776 18.6213 57.1594 18.6703C57.2493 18.7194 57.3596 18.7643 57.4903 18.8052C57.6293 18.8378 57.809 18.8705 58.0297 18.9032C58.2503 18.9359 58.5364 18.9686 58.8878 19.0013C59.4353 19.0421 59.8807 19.1402 60.2239 19.2955C60.5671 19.4507 60.8204 19.6591 60.9839 19.9206C61.1473 20.1821 61.229 20.4968 61.229 20.8645C61.229 21.2241 61.1269 21.5632 60.9226 21.8819C60.7265 22.2006 60.4241 22.4621 60.0155 22.6664C59.6069 22.8707 59.0839 22.9729 58.4465 22.9729ZM58.4465 18.2781C57.9316 18.2781 57.4862 18.18 57.1103 17.9839C56.7426 17.7796 56.4607 17.5099 56.2645 17.1748C56.0684 16.8316 55.9703 16.4557 55.9703 16.0471C55.9703 15.6303 56.0684 15.2544 56.2645 14.9194C56.4607 14.5843 56.7426 14.3146 57.1103 14.1103C57.4862 13.906 57.9316 13.8039 58.4465 13.8039C58.9613 13.8039 59.4026 13.906 59.7703 14.1103C60.1381 14.3146 60.42 14.5843 60.6161 14.9194C60.8123 15.2544 60.9103 15.6303 60.9103 16.0471C60.9103 16.4557 60.8123 16.8316 60.6161 17.1748C60.42 17.5099 60.1381 17.7796 59.7703 17.9839C59.4026 18.18 58.9613 18.2781 58.4465 18.2781ZM58.4465 17.1381C58.7979 17.1381 59.0798 17.0441 59.2923 16.8561C59.5047 16.6682 59.611 16.3985 59.611 16.0471C59.611 15.6957 59.5047 15.4301 59.2923 15.2503C59.0798 15.0624 58.7979 14.9684 58.4465 14.9684C58.0951 14.9684 57.809 15.0624 57.5884 15.2503C57.3678 15.4301 57.2574 15.6957 57.2574 16.0471C57.2574 16.3985 57.3678 16.6682 57.5884 16.8561C57.809 17.0441 58.0951 17.1381 58.4465 17.1381ZM59.4639 15.0297L59.1819 13.951H61.7194V14.8703L59.4639 15.0297ZM63.0795 20.129V13.951H64.5505V20.129H63.0795ZM63.815 12.9703C63.5453 12.9703 63.3206 12.8886 63.1408 12.7252C62.9692 12.5535 62.8834 12.3452 62.8834 12.1C62.8834 11.8467 62.9692 11.6424 63.1408 11.4871C63.3206 11.3237 63.5453 11.2419 63.815 11.2419C64.0847 11.2419 64.3053 11.3237 64.477 11.4871C64.6567 11.6424 64.7466 11.8467 64.7466 12.1C64.7466 12.3452 64.6567 12.5535 64.477 12.7252C64.3053 12.8886 64.0847 12.9703 63.815 12.9703ZM69.18 20.2761C68.5753 20.2761 68.0319 20.1413 67.5497 19.8716C67.0757 19.5938 66.7039 19.2138 66.4342 18.7316C66.1727 18.2413 66.042 17.6856 66.042 17.0645C66.042 16.4189 66.1727 15.855 66.4342 15.3729C66.7039 14.8826 67.0757 14.4985 67.5497 14.2206C68.0319 13.9428 68.5794 13.8039 69.1923 13.8039C69.9605 13.8039 70.606 14.0082 71.1291 14.4168C71.6521 14.8172 71.9871 15.3688 72.1342 16.0716H70.5897C70.508 15.7611 70.3364 15.5159 70.0749 15.3361C69.8215 15.1563 69.5192 15.0664 69.1678 15.0664C68.8654 15.0664 68.5876 15.1441 68.3342 15.2994C68.0891 15.4546 67.8929 15.6794 67.7458 15.9735C67.6069 16.2677 67.5374 16.6232 67.5374 17.04C67.5374 17.3587 67.5783 17.6406 67.66 17.8858C67.7417 18.131 67.8562 18.3394 68.0033 18.511C68.1585 18.6744 68.3342 18.8011 68.5303 18.891C68.7265 18.9809 68.939 19.0258 69.1678 19.0258C69.4048 19.0258 69.6172 18.989 69.8052 18.9155C70.0013 18.8338 70.1648 18.7153 70.2955 18.56C70.4344 18.4047 70.5325 18.2209 70.5897 18.0084H72.1342C71.9871 18.6948 71.6521 19.2464 71.1291 19.6632C70.606 20.0718 69.9564 20.2761 69.18 20.2761ZM75.6119 20.2761C75.1052 20.2761 74.6843 20.1903 74.3493 20.0187C74.0142 19.8471 73.765 19.6183 73.6015 19.3323C73.4381 19.0462 73.3564 18.7357 73.3564 18.4006C73.3564 18.0084 73.4544 17.6692 73.6506 17.3832C73.8549 17.0972 74.1532 16.8766 74.5454 16.7213C74.9377 16.5578 75.4198 16.4761 75.9919 16.4761H77.5486C77.5486 16.1492 77.5037 15.8796 77.4138 15.6671C77.3239 15.4464 77.185 15.283 76.997 15.1768C76.8091 15.0705 76.568 15.0174 76.2738 15.0174C75.9388 15.0174 75.6527 15.095 75.4157 15.2503C75.1788 15.3974 75.0317 15.6262 74.9744 15.9368H73.528C73.577 15.4955 73.7241 15.1196 73.9693 14.809C74.2144 14.4903 74.5372 14.2452 74.9377 14.0735C75.3463 13.8938 75.7917 13.8039 76.2738 13.8039C76.854 13.8039 77.3484 13.906 77.757 14.1103C78.1656 14.3064 78.4762 14.5925 78.6886 14.9684C78.9093 15.3361 79.0196 15.7815 79.0196 16.3045V20.129H77.7693L77.6222 19.1361C77.5405 19.2996 77.4342 19.4507 77.3035 19.5897C77.1809 19.7286 77.0379 19.8512 76.8745 19.9574C76.711 20.0555 76.5231 20.1331 76.3106 20.1903C76.1063 20.2475 75.8734 20.2761 75.6119 20.2761ZM75.9428 19.1116C76.1798 19.1116 76.3882 19.0707 76.568 18.989C76.756 18.8991 76.9153 18.7766 77.0461 18.6213C77.185 18.4578 77.2912 18.2781 77.3648 18.0819C77.4383 17.8858 77.4874 17.6774 77.5119 17.4568V17.4323H76.1512C75.8652 17.4323 75.6282 17.469 75.4403 17.5426C75.2523 17.608 75.1175 17.706 75.0357 17.8368C74.954 17.9675 74.9132 18.1187 74.9132 18.2903C74.9132 18.4619 74.954 18.609 75.0357 18.7316C75.1175 18.8542 75.236 18.9482 75.3912 19.0135C75.5465 19.0789 75.7304 19.1116 75.9428 19.1116ZM80.5913 20.129V11.3032H82.0623V20.129H80.5913ZM92.1635 20.129V11.5484H93.6345V20.129H92.1635ZM86.7454 20.129V11.5484H88.2164V20.129H86.7454ZM87.9958 16.3535V15.1523H92.4454V16.3535H87.9958ZM95.3886 20.129V13.951H96.8596V20.129H95.3886ZM96.1241 12.9703C95.8544 12.9703 95.6297 12.8886 95.4499 12.7252C95.2783 12.5535 95.1925 12.3452 95.1925 12.1C95.1925 11.8467 95.2783 11.6424 95.4499 11.4871C95.6297 11.3237 95.8544 11.2419 96.1241 11.2419C96.3938 11.2419 96.6144 11.3237 96.786 11.4871C96.9658 11.6424 97.0557 11.8467 97.0557 12.1C97.0557 12.3452 96.9658 12.5535 96.786 12.7252C96.6144 12.8886 96.3938 12.9703 96.1241 12.9703ZM101.023 20.2761C100.476 20.2761 99.9977 20.1903 99.5891 20.0187C99.1887 19.8389 98.87 19.5938 98.633 19.2832C98.4042 18.9645 98.2693 18.6009 98.2285 18.1923H99.6994C99.7403 18.3639 99.8139 18.5232 99.9201 18.6703C100.026 18.8092 100.169 18.9196 100.349 19.0013C100.537 19.083 100.758 19.1239 101.011 19.1239C101.256 19.1239 101.456 19.0912 101.612 19.0258C101.767 18.9523 101.881 18.8583 101.955 18.7439C102.028 18.6295 102.065 18.5069 102.065 18.3761C102.065 18.18 102.012 18.0288 101.906 17.9226C101.8 17.8163 101.644 17.7346 101.44 17.6774C101.244 17.612 101.007 17.5507 100.729 17.4935C100.435 17.4363 100.149 17.3669 99.8711 17.2852C99.6014 17.1953 99.3562 17.0849 99.1356 16.9542C98.9231 16.8234 98.7515 16.6559 98.6207 16.4516C98.4982 16.2473 98.4369 15.9981 98.4369 15.7039C98.4369 15.3443 98.5308 15.0215 98.7188 14.7355C98.9149 14.4495 99.1928 14.2247 99.5523 14.0613C99.9201 13.8897 100.357 13.8039 100.864 13.8039C101.583 13.8039 102.155 13.9714 102.58 14.3064C103.013 14.6333 103.267 15.095 103.34 15.6916H101.943C101.902 15.4628 101.787 15.2871 101.599 15.1645C101.411 15.0338 101.162 14.9684 100.852 14.9684C100.533 14.9684 100.288 15.0297 100.116 15.1523C99.9528 15.2667 99.8711 15.4219 99.8711 15.6181C99.8711 15.7406 99.9201 15.855 100.018 15.9613C100.124 16.0594 100.276 16.1452 100.472 16.2187C100.668 16.2841 100.909 16.3495 101.195 16.4148C101.653 16.5047 102.057 16.611 102.408 16.7335C102.76 16.8561 103.038 17.0359 103.242 17.2729C103.446 17.5099 103.548 17.8449 103.548 18.2781C103.557 18.6703 103.454 19.0176 103.242 19.32C103.038 19.6224 102.748 19.8594 102.372 20.031C101.996 20.1944 101.546 20.2761 101.023 20.2761ZM107.445 20.129C107.028 20.129 106.664 20.0637 106.354 19.9329C106.051 19.8021 105.814 19.5856 105.643 19.2832C105.471 18.9809 105.385 18.5723 105.385 18.0574V15.189H104.331V13.951H105.385L105.557 12.3206H106.856V13.951H108.536V15.189H106.856V18.0574C106.856 18.368 106.922 18.5845 107.053 18.7071C107.191 18.8215 107.42 18.8787 107.739 18.8787H108.499V20.129H107.445ZM112.645 20.2761C112.056 20.2761 111.525 20.1413 111.051 19.8716C110.585 19.5938 110.218 19.2138 109.948 18.7316C109.686 18.2413 109.556 17.6815 109.556 17.0523C109.556 16.4067 109.691 15.8428 109.96 15.3606C110.23 14.8703 110.598 14.4903 111.063 14.2206C111.537 13.9428 112.069 13.8039 112.657 13.8039C113.245 13.8039 113.772 13.9428 114.238 14.2206C114.712 14.4903 115.08 14.8662 115.342 15.3484C115.611 15.8305 115.746 16.3944 115.746 17.04C115.746 17.6856 115.611 18.2495 115.342 18.7316C115.072 19.2138 114.7 19.5938 114.226 19.8716C113.76 20.1413 113.233 20.2761 112.645 20.2761ZM112.645 19.0135C112.939 19.0135 113.205 18.94 113.442 18.7929C113.687 18.6458 113.883 18.4252 114.03 18.131C114.177 17.8368 114.251 17.4731 114.251 17.04C114.251 16.6069 114.177 16.2473 114.03 15.9613C113.891 15.6671 113.699 15.4464 113.454 15.2994C113.217 15.1523 112.951 15.0787 112.657 15.0787C112.371 15.0787 112.105 15.1523 111.86 15.2994C111.615 15.4464 111.419 15.6671 111.272 15.9613C111.125 16.2473 111.051 16.6069 111.051 17.04C111.051 17.4731 111.125 17.8368 111.272 18.131C111.419 18.4252 111.611 18.6458 111.848 18.7929C112.093 18.94 112.359 19.0135 112.645 19.0135ZM117.186 20.129V13.951H118.498L118.632 15.1032C118.78 14.8335 118.963 14.6047 119.184 14.4168C119.405 14.2206 119.662 14.0695 119.956 13.9632C120.259 13.857 120.59 13.8039 120.949 13.8039V15.3606H120.434C120.189 15.3606 119.956 15.3933 119.736 15.4587C119.515 15.5159 119.323 15.614 119.16 15.7529C119.004 15.8837 118.882 16.0675 118.792 16.3045C118.702 16.5333 118.657 16.8234 118.657 17.1748V20.129H117.186ZM122.806 22.8258L124.314 19.4426H123.946L121.482 13.951H123.088L124.926 18.1432L126.667 13.951H128.224L124.363 22.8258H122.806Z" fill="white"/>
<defs>
<linearGradient id="paint0_linear_2632_1107" x1="135.088" y1="45.8824" x2="211.49" y2="-2.33398" gradientUnits="userSpaceOnUse">
<stop stop-color="#EEEEEE"/>
<stop offset="1" stop-color="#234867"/>
</linearGradient>
</defs>
</svg>
