<svg width="200" height="60" viewBox="0 0 200 60" fill="none" xmlns="http://www.w3.org/2000/svg">
<rect width="200" height="60" rx="12" fill="url(#paint0_linear_2632_1158)" fill-opacity="0.2"/>
<path d="M24.6691 17.8663C23.9719 17.8663 23.3687 17.7154 22.8592 17.4138C22.3565 17.1054 21.9677 16.6798 21.6928 16.1368C21.4247 15.5872 21.2906 14.9537 21.2906 14.2365C21.2906 13.5125 21.4247 12.8791 21.6928 12.3361C21.9677 11.7864 22.3565 11.3574 22.8592 11.0491C23.3687 10.7407 23.9719 10.5865 24.6691 10.5865C25.507 10.5865 26.1907 10.7943 26.7203 11.2099C27.2498 11.6188 27.585 12.1987 27.7258 12.9494H26.3985C26.3047 12.5539 26.1136 12.2422 25.8254 12.0143C25.5372 11.7864 25.1484 11.6725 24.659 11.6725C24.2166 11.6725 23.8345 11.7764 23.5128 11.9842C23.1977 12.1853 22.9531 12.4802 22.7788 12.869C22.6112 13.2511 22.5274 13.7069 22.5274 14.2365C22.5274 14.766 22.6112 15.2218 22.7788 15.6039C22.9531 15.9793 23.1977 16.2709 23.5128 16.4787C23.8345 16.6798 24.2166 16.7803 24.659 16.7803C25.1484 16.7803 25.5372 16.6764 25.8254 16.4686C26.1136 16.2541 26.3047 15.9592 26.3985 15.5838H27.7258C27.5917 16.2944 27.2565 16.8541 26.7203 17.263C26.1907 17.6652 25.507 17.8663 24.6691 17.8663ZM30.5554 17.8663C30.1398 17.8663 29.7946 17.7959 29.5198 17.6551C29.2449 17.5143 29.0405 17.3267 28.9064 17.092C28.7724 16.8574 28.7053 16.6027 28.7053 16.3279C28.7053 16.0061 28.7858 15.7279 28.9466 15.4933C29.1142 15.2587 29.3589 15.0777 29.6806 14.9504C30.0024 14.8163 30.3979 14.7493 30.8671 14.7493H32.1441C32.1441 14.4811 32.1072 14.2599 32.0335 14.0856C31.9597 13.9046 31.8458 13.7706 31.6916 13.6834C31.5374 13.5963 31.3397 13.5527 31.0984 13.5527C30.8235 13.5527 30.5889 13.6164 30.3945 13.7438C30.2001 13.8644 30.0795 14.0521 30.0326 14.3068H28.8461C28.8863 13.9449 29.007 13.6365 29.2081 13.3818C29.4092 13.1204 29.6739 12.9193 30.0024 12.7785C30.3376 12.631 30.7029 12.5573 31.0984 12.5573C31.5743 12.5573 31.9799 12.6411 32.315 12.8087C32.6502 12.9695 32.9049 13.2042 33.0792 13.5125C33.2602 13.8142 33.3507 14.1795 33.3507 14.6085V17.7456H32.3251L32.2044 16.9312C32.1374 17.0652 32.0502 17.1892 31.943 17.3032C31.8424 17.4171 31.7251 17.5177 31.5911 17.6048C31.457 17.6853 31.3028 17.749 31.1285 17.7959C30.961 17.8428 30.7699 17.8663 30.5554 17.8663ZM30.8269 16.9111C31.0213 16.9111 31.1922 16.8775 31.3397 16.8105C31.4939 16.7368 31.6246 16.6362 31.7318 16.5089C31.8458 16.3748 31.9329 16.2273 31.9933 16.0664C32.0536 15.9056 32.0938 15.7346 32.1139 15.5536V15.5335H30.9978C30.7632 15.5335 30.5688 15.5637 30.4147 15.624C30.2605 15.6777 30.1499 15.7581 30.0828 15.8653C30.0158 15.9726 29.9823 16.0966 29.9823 16.2374C29.9823 16.3781 30.0158 16.4988 30.0828 16.5994C30.1499 16.6999 30.2471 16.777 30.3744 16.8306C30.5018 16.8842 30.6526 16.9111 30.8269 16.9111ZM34.6399 17.7456V12.678H35.7158L35.8264 13.6231C35.947 13.4019 36.0978 13.2142 36.2788 13.06C36.4598 12.8992 36.671 12.7752 36.9123 12.688C37.1603 12.6009 37.4318 12.5573 37.7267 12.5573V13.8343H37.3044C37.1033 13.8343 36.9123 13.8611 36.7313 13.9147C36.5503 13.9616 36.3928 14.0421 36.2587 14.156C36.1314 14.2633 36.0308 14.4141 35.9571 14.6085C35.8833 14.7962 35.8465 15.0341 35.8465 15.3224V17.7456H34.6399ZM40.7806 17.8663C40.3114 17.8663 39.8924 17.7523 39.5237 17.5244C39.1551 17.2965 38.8668 16.9814 38.659 16.5792C38.4579 16.177 38.3574 15.7212 38.3574 15.2118C38.3574 14.7023 38.4613 14.2499 38.6691 13.8544C38.8769 13.4522 39.1651 13.1371 39.5338 12.9092C39.9092 12.6746 40.3315 12.5573 40.8007 12.5573C41.1828 12.5573 41.5146 12.631 41.7961 12.7785C42.0844 12.9193 42.3123 13.1204 42.4799 13.3818V10.5061H43.6864V17.7456H42.6005L42.4799 17.0116C42.3726 17.1591 42.2419 17.2998 42.0877 17.4339C41.9335 17.5613 41.7492 17.6652 41.5347 17.7456C41.3202 17.826 41.0688 17.8663 40.7806 17.8663ZM41.032 16.8206C41.3202 16.8206 41.5749 16.7535 41.7961 16.6195C42.0173 16.4787 42.1883 16.2877 42.3089 16.0463C42.4296 15.805 42.4899 15.5268 42.4899 15.2118C42.4899 14.8967 42.4296 14.6185 42.3089 14.3772C42.1883 14.1359 42.0173 13.9482 41.7961 13.8142C41.5749 13.6801 41.3202 13.6131 41.032 13.6131C40.7571 13.6131 40.5091 13.6801 40.2879 13.8142C40.0667 13.9482 39.8924 14.1359 39.765 14.3772C39.6444 14.6185 39.5841 14.8967 39.5841 15.2118C39.5841 15.5268 39.6444 15.805 39.765 16.0463C39.8924 16.2877 40.0667 16.4787 40.2879 16.6195C40.5091 16.7535 40.7571 16.8206 41.032 16.8206ZM45.0789 17.7456V12.678H46.2855V17.7456H45.0789ZM45.6822 11.8736C45.461 11.8736 45.2766 11.8065 45.1292 11.6725C44.9884 11.5317 44.918 11.3608 44.918 11.1597C44.918 10.9519 44.9884 10.7843 45.1292 10.6569C45.2766 10.5229 45.461 10.4558 45.6822 10.4558C45.9034 10.4558 46.0844 10.5229 46.2251 10.6569C46.3726 10.7843 46.4463 10.9519 46.4463 11.1597C46.4463 11.3608 46.3726 11.5317 46.2251 11.6725C46.0844 11.8065 45.9034 11.8736 45.6822 11.8736ZM50.0427 17.8663C49.5601 17.8663 49.1243 17.7557 48.7356 17.5345C48.3535 17.3065 48.0518 16.9948 47.8306 16.5994C47.6161 16.1972 47.5089 15.738 47.5089 15.2218C47.5089 14.6923 47.6195 14.2298 47.8407 13.8343C48.0619 13.4321 48.3635 13.1204 48.7456 12.8992C49.1344 12.6713 49.5701 12.5573 50.0527 12.5573C50.5354 12.5573 50.9677 12.6713 51.3498 12.8992C51.7386 13.1204 52.0403 13.4287 52.2548 13.8242C52.476 14.2197 52.5866 14.6822 52.5866 15.2118C52.5866 15.7413 52.476 16.2039 52.2548 16.5994C52.0336 16.9948 51.7286 17.3065 51.3398 17.5345C50.9577 17.7557 50.5253 17.8663 50.0427 17.8663ZM50.0427 16.8306C50.284 16.8306 50.5019 16.7703 50.6963 16.6496C50.8974 16.529 51.0582 16.348 51.1789 16.1067C51.2995 15.8653 51.3599 15.5671 51.3599 15.2118C51.3599 14.8565 51.2995 14.5616 51.1789 14.327C51.0649 14.0856 50.9074 13.9046 50.7063 13.784C50.5119 13.6633 50.2941 13.603 50.0527 13.603C49.8181 13.603 49.6003 13.6633 49.3992 13.784C49.1981 13.9046 49.0372 14.0856 48.9165 14.327C48.7959 14.5616 48.7356 14.8565 48.7356 15.2118C48.7356 15.5671 48.7959 15.8653 48.9165 16.1067C49.0372 16.348 49.1947 16.529 49.3891 16.6496C49.5902 16.7703 49.8081 16.8306 50.0427 16.8306ZM54.9098 17.7456L53.0396 12.678H54.3065L55.6438 16.5994L56.9811 12.678H58.2279L56.3577 17.7456H54.9098ZM60.4843 17.8663C60.0687 17.8663 59.7235 17.7959 59.4487 17.6551C59.1739 17.5143 58.9694 17.3267 58.8354 17.092C58.7013 16.8574 58.6343 16.6027 58.6343 16.3279C58.6343 16.0061 58.7147 15.7279 58.8756 15.4933C59.0432 15.2587 59.2878 15.0777 59.6096 14.9504C59.9313 14.8163 60.3268 14.7493 60.796 14.7493H62.073C62.073 14.4811 62.0361 14.2599 61.9624 14.0856C61.8887 13.9046 61.7747 13.7706 61.6205 13.6834C61.4664 13.5963 61.2686 13.5527 61.0273 13.5527C60.7525 13.5527 60.5179 13.6164 60.3235 13.7438C60.1291 13.8644 60.0084 14.0521 59.9615 14.3068H58.775C58.8152 13.9449 58.9359 13.6365 59.137 13.3818C59.3381 13.1204 59.6029 12.9193 59.9313 12.7785C60.2665 12.631 60.6318 12.5573 61.0273 12.5573C61.5032 12.5573 61.9088 12.6411 62.244 12.8087C62.5791 12.9695 62.8338 13.2042 63.0081 13.5125C63.1891 13.8142 63.2796 14.1795 63.2796 14.6085V17.7456H62.254L62.1333 16.9312C62.0663 17.0652 61.9792 17.1892 61.8719 17.3032C61.7714 17.4171 61.6541 17.5177 61.52 17.6048C61.3859 17.6853 61.2318 17.749 61.0575 17.7959C60.8899 17.8428 60.6989 17.8663 60.4843 17.8663ZM60.7558 16.9111C60.9502 16.9111 61.1212 16.8775 61.2686 16.8105C61.4228 16.7368 61.5535 16.6362 61.6608 16.5089C61.7747 16.3748 61.8619 16.2273 61.9222 16.0664C61.9825 15.9056 62.0227 15.7346 62.0429 15.5536V15.5335H60.9268C60.6921 15.5335 60.4978 15.5637 60.3436 15.624C60.1894 15.6777 60.0788 15.7581 60.0118 15.8653C59.9447 15.9726 59.9112 16.0966 59.9112 16.2374C59.9112 16.3781 59.9447 16.4988 60.0118 16.5994C60.0788 16.6999 60.176 16.777 60.3034 16.8306C60.4307 16.8842 60.5815 16.9111 60.7558 16.9111ZM66.5898 17.8663C66.1407 17.8663 65.7486 17.7959 65.4134 17.6551C65.085 17.5076 64.8235 17.3065 64.6292 17.0518C64.4415 16.7904 64.3309 16.4921 64.2973 16.1569H65.5039C65.5374 16.2977 65.5978 16.4284 65.6849 16.5491C65.7721 16.663 65.8894 16.7535 66.0368 16.8206C66.191 16.8876 66.372 16.9211 66.5798 16.9211C66.7809 16.9211 66.9451 16.8943 67.0725 16.8407C67.1998 16.7803 67.2937 16.7033 67.354 16.6094C67.4143 16.5156 67.4445 16.415 67.4445 16.3078C67.4445 16.1469 67.4009 16.0229 67.3138 15.9357C67.2267 15.8486 67.0993 15.7816 66.9317 15.7346C66.7708 15.681 66.5764 15.6307 66.3485 15.5838C66.1072 15.5369 65.8726 15.4799 65.6447 15.4129C65.4235 15.3391 65.2224 15.2486 65.0414 15.1414C64.8671 15.0341 64.7263 14.8967 64.6191 14.7291C64.5185 14.5616 64.4683 14.3571 64.4683 14.1158C64.4683 13.8209 64.5454 13.5561 64.6995 13.3215C64.8604 13.0869 65.0883 12.9025 65.3833 12.7684C65.6849 12.6277 66.0435 12.5573 66.4591 12.5573C67.049 12.5573 67.5182 12.6947 67.8668 12.9695C68.2221 13.2377 68.4299 13.6164 68.4902 14.1057H67.344C67.3104 13.9181 67.2166 13.7739 67.0624 13.6734C66.9083 13.5661 66.7038 13.5125 66.4491 13.5125C66.1877 13.5125 65.9866 13.5628 65.8458 13.6633C65.7117 13.7572 65.6447 13.8845 65.6447 14.0454C65.6447 14.146 65.6849 14.2398 65.7653 14.327C65.8525 14.4074 65.9765 14.4778 66.1374 14.5381C66.2983 14.5917 66.496 14.6454 66.7306 14.699C67.106 14.7727 67.4378 14.8599 67.726 14.9604C68.0143 15.061 68.2422 15.2084 68.4098 15.4028C68.5774 15.5972 68.6612 15.872 68.6612 16.2273C68.6679 16.5491 68.5841 16.834 68.4098 17.082C68.2422 17.33 68.0042 17.5244 67.6959 17.6652C67.3875 17.7992 67.0189 17.8663 66.5898 17.8663ZM72.235 17.8663C71.739 17.8663 71.2932 17.7557 70.8977 17.5345C70.5089 17.3065 70.2039 16.9948 69.9827 16.5994C69.7682 16.1972 69.661 15.7413 69.661 15.2319C69.661 14.7023 69.7682 14.2398 69.9827 13.8443C70.2039 13.4421 70.5089 13.1271 70.8977 12.8992C71.2932 12.6713 71.7423 12.5573 72.2451 12.5573C72.8752 12.5573 73.4047 12.7249 73.8337 13.06C74.2628 13.3885 74.5376 13.841 74.6582 14.4174H73.3913C73.3243 14.1627 73.1835 13.9616 72.969 13.8142C72.7612 13.6667 72.5132 13.5929 72.225 13.5929C71.977 13.5929 71.749 13.6566 71.5412 13.784C71.3401 13.9114 71.1793 14.0957 71.0586 14.337C70.9447 14.5783 70.8877 14.8699 70.8877 15.2118C70.8877 15.4732 70.9212 15.7045 70.9882 15.9056C71.0553 16.1067 71.1491 16.2776 71.2698 16.4184C71.3971 16.5524 71.5412 16.6563 71.7021 16.7301C71.863 16.8038 72.0373 16.8407 72.225 16.8407C72.4194 16.8407 72.5936 16.8105 72.7478 16.7502C72.9087 16.6831 73.0428 16.5859 73.15 16.4586C73.264 16.3312 73.3444 16.1804 73.3913 16.0061H74.6582C74.5376 16.5692 74.2628 17.0217 73.8337 17.3635C73.4047 17.6987 72.8718 17.8663 72.235 17.8663ZM77.7019 17.8663C77.293 17.8663 76.9411 17.7858 76.6461 17.6249C76.3579 17.4574 76.1367 17.2093 75.9825 16.8809C75.8283 16.5457 75.7512 16.1335 75.7512 15.6441V12.678H76.9578V15.5235C76.9578 15.9592 77.0483 16.291 77.2293 16.5189C77.417 16.7401 77.6985 16.8507 78.0739 16.8507C78.3152 16.8507 78.5297 16.7937 78.7174 16.6798C78.9118 16.5658 79.0626 16.4016 79.1699 16.1871C79.2839 15.9659 79.3408 15.6978 79.3408 15.3827V12.678H80.5474V17.7456H79.4816L79.3911 16.901C79.2369 17.1959 79.0124 17.4306 78.7174 17.6048C78.4292 17.7791 78.0907 17.8663 77.7019 17.8663ZM81.8899 17.7456V10.5061H83.0965V17.7456H81.8899ZM86.1321 17.8663C85.7165 17.8663 85.3713 17.7959 85.0965 17.6551C84.8216 17.5143 84.6172 17.3267 84.4831 17.092C84.349 16.8574 84.282 16.6027 84.282 16.3279C84.282 16.0061 84.3624 15.7279 84.5233 15.4933C84.6909 15.2587 84.9356 15.0777 85.2573 14.9504C85.5791 14.8163 85.9746 14.7493 86.4438 14.7493H87.7208C87.7208 14.4811 87.6839 14.2599 87.6102 14.0856C87.5364 13.9046 87.4225 13.7706 87.2683 13.6834C87.1141 13.5963 86.9164 13.5527 86.6751 13.5527C86.4002 13.5527 86.1656 13.6164 85.9712 13.7438C85.7768 13.8644 85.6562 14.0521 85.6093 14.3068H84.4228C84.463 13.9449 84.5837 13.6365 84.7848 13.3818C84.9858 13.1204 85.2506 12.9193 85.5791 12.7785C85.9142 12.631 86.2796 12.5573 86.6751 12.5573C87.151 12.5573 87.5565 12.6411 87.8917 12.8087C88.2269 12.9695 88.4816 13.2042 88.6559 13.5125C88.8369 13.8142 88.9274 14.1795 88.9274 14.6085V17.7456H87.9018L87.7811 16.9312C87.7141 17.0652 87.6269 17.1892 87.5197 17.3032C87.4191 17.4171 87.3018 17.5177 87.1678 17.6048C87.0337 17.6853 86.8795 17.749 86.7052 17.7959C86.5376 17.8428 86.3466 17.8663 86.1321 17.8663ZM86.4036 16.9111C86.598 16.9111 86.7689 16.8775 86.9164 16.8105C87.0706 16.7368 87.2013 16.6362 87.3085 16.5089C87.4225 16.3748 87.5096 16.2273 87.5699 16.0664C87.6303 15.9056 87.6705 15.7346 87.6906 15.5536V15.5335H86.5745C86.3399 15.5335 86.1455 15.5637 85.9913 15.624C85.8372 15.6777 85.7266 15.7581 85.6595 15.8653C85.5925 15.9726 85.559 16.0966 85.559 16.2374C85.559 16.3781 85.5925 16.4988 85.6595 16.5994C85.7266 16.6999 85.8238 16.777 85.9511 16.8306C86.0785 16.8842 86.2293 16.9111 86.4036 16.9111ZM90.2166 17.7456V12.678H91.2924L91.403 13.6231C91.5237 13.4019 91.6745 13.2142 91.8555 13.06C92.0365 12.8992 92.2477 12.7752 92.489 12.688C92.737 12.6009 93.0085 12.5573 93.3034 12.5573V13.8343H92.8811C92.68 13.8343 92.489 13.8611 92.308 13.9147C92.127 13.9616 91.9695 14.0421 91.8354 14.156C91.708 14.2633 91.6075 14.4141 91.5338 14.6085C91.46 14.7962 91.4232 15.0341 91.4232 15.3224V17.7456H90.2166Z" fill="white"/>
<path d="M21.2052 24.3915V20.8723H22.3414C22.6162 20.8723 22.8408 20.9192 23.0151 21.013C23.1893 21.1035 23.3184 21.2259 23.4022 21.38C23.486 21.5342 23.5279 21.7085 23.5279 21.9029C23.5279 22.0906 23.4843 22.2632 23.3971 22.4207C23.3134 22.5783 23.1826 22.7039 23.005 22.7978C22.8274 22.8916 22.5995 22.9386 22.3213 22.9386H21.6275V24.3915H21.2052ZM23.0653 24.3915L22.2911 22.8179H22.7637L23.563 24.3915H23.0653ZM21.6275 22.6067H22.3112C22.5793 22.6067 22.7754 22.5414 22.8994 22.4107C23.0268 22.28 23.0905 22.1124 23.0905 21.9079C23.0905 21.7001 23.0285 21.5359 22.9045 21.4152C22.7838 21.2912 22.5844 21.2292 22.3062 21.2292H21.6275V22.6067ZM25.1239 24.4518C24.886 24.4518 24.6748 24.3965 24.4905 24.2859C24.3095 24.1753 24.1671 24.0211 24.0632 23.8234C23.9593 23.6223 23.9073 23.3893 23.9073 23.1246C23.9073 22.8564 23.9576 22.6235 24.0581 22.4258C24.162 22.228 24.3062 22.0738 24.4905 21.9632C24.6782 21.8526 24.8927 21.7973 25.134 21.7973C25.382 21.7973 25.5915 21.8526 25.7624 21.9632C25.9367 22.0738 26.0691 22.2196 26.1596 22.4006C26.2534 22.5783 26.3004 22.7743 26.3004 22.9888C26.3004 23.0223 26.3004 23.0575 26.3004 23.0944C26.3004 23.1313 26.2987 23.1732 26.2953 23.2201H24.224V22.8933H25.8881C25.8781 22.662 25.801 22.4811 25.6569 22.3503C25.5161 22.2196 25.3385 22.1543 25.1239 22.1543C24.9798 22.1543 24.8458 22.1878 24.7218 22.2548C24.6011 22.3185 24.5039 22.414 24.4302 22.5414C24.3564 22.6654 24.3196 22.8212 24.3196 23.0089V23.1497C24.3196 23.3575 24.3564 23.5318 24.4302 23.6726C24.5072 23.8133 24.6061 23.9189 24.7268 23.9893C24.8508 24.0597 24.9832 24.0949 25.1239 24.0949C25.3016 24.0949 25.4474 24.0563 25.5613 23.9792C25.6786 23.8988 25.7624 23.7915 25.8127 23.6575H26.23C26.1898 23.8083 26.1194 23.944 26.0188 24.0647C25.9183 24.1854 25.7926 24.2809 25.6418 24.3513C25.4943 24.4183 25.3217 24.4518 25.1239 24.4518ZM27.6948 24.4518C27.4903 24.4518 27.3194 24.4166 27.182 24.3462C27.0446 24.2725 26.9423 24.177 26.8753 24.0597C26.8083 23.939 26.7748 23.8083 26.7748 23.6675C26.7748 23.4966 26.8183 23.3525 26.9055 23.2352C26.996 23.1145 27.1216 23.024 27.2825 22.9637C27.4468 22.9 27.6395 22.8682 27.8607 22.8682H28.5293C28.5293 22.7106 28.5042 22.5799 28.4539 22.476C28.407 22.3688 28.3366 22.2883 28.2428 22.2347C28.1523 22.1811 28.0383 22.1543 27.9009 22.1543C27.74 22.1543 27.6009 22.1945 27.4836 22.2749C27.3663 22.3554 27.2943 22.4744 27.2674 22.6319H26.8351C26.8552 22.4509 26.9155 22.3001 27.0161 22.1794C27.12 22.0554 27.2507 21.9616 27.4082 21.8979C27.5657 21.8308 27.73 21.7973 27.9009 21.7973C28.1355 21.7973 28.3299 21.8409 28.4841 21.928C28.6416 22.0118 28.7589 22.1308 28.836 22.285C28.9131 22.4358 28.9516 22.6151 28.9516 22.8229V24.3915H28.5746L28.5494 23.944C28.5159 24.0144 28.4723 24.0815 28.4187 24.1451C28.3684 24.2055 28.3081 24.2591 28.2377 24.306C28.1674 24.3496 28.0869 24.3848 27.9964 24.4116C27.9093 24.4384 27.8087 24.4518 27.6948 24.4518ZM27.7601 24.0949C27.8774 24.0949 27.983 24.0714 28.0769 24.0245C28.1741 23.9742 28.2562 23.9072 28.3232 23.8234C28.3902 23.7362 28.4405 23.6407 28.474 23.5368C28.5109 23.4329 28.5293 23.324 28.5293 23.21V23.195H27.8959C27.7316 23.195 27.5993 23.2151 27.4987 23.2553C27.3982 23.2921 27.3261 23.3458 27.2825 23.4162C27.239 23.4832 27.2172 23.5603 27.2172 23.6474C27.2172 23.7379 27.2373 23.8167 27.2775 23.8837C27.3211 23.9507 27.3831 24.0027 27.4635 24.0396C27.5473 24.0764 27.6462 24.0949 27.7601 24.0949ZM29.6049 24.3915V20.7717H30.0272V24.3915H29.6049ZM30.7344 23.0843V22.7274H32.7252V23.0843H30.7344ZM34.4397 24.3915C34.2888 24.3915 34.1581 24.368 34.0475 24.3211C33.9369 24.2742 33.8515 24.1954 33.7911 24.0848C33.7341 23.9709 33.7057 23.8184 33.7057 23.6273V22.2146H33.2632V21.8577H33.7057L33.761 21.2443H34.128V21.8577H34.862V22.2146H34.128V23.6273C34.128 23.7848 34.1598 23.8921 34.2235 23.9491C34.2872 24.0027 34.3994 24.0295 34.5603 24.0295H34.8318V24.3915H34.4397ZM35.4532 24.3915V21.8577H35.8755V24.3915H35.4532ZM35.6643 21.3197C35.5806 21.3197 35.5102 21.2929 35.4532 21.2393C35.3996 21.1823 35.3728 21.1119 35.3728 21.0281C35.3728 20.9443 35.3996 20.8773 35.4532 20.827C35.5102 20.7734 35.5806 20.7466 35.6643 20.7466C35.7448 20.7466 35.8135 20.7734 35.8705 20.827C35.9275 20.8773 35.9559 20.9443 35.9559 21.0281C35.9559 21.1119 35.9275 21.1823 35.8705 21.2393C35.8135 21.2929 35.7448 21.3197 35.6643 21.3197ZM36.6207 24.3915V21.8577H37.0028L37.028 22.2196C37.1084 22.0889 37.2157 21.9867 37.3497 21.913C37.4871 21.8359 37.6363 21.7973 37.7972 21.7973C37.9279 21.7973 38.0452 21.8158 38.1491 21.8526C38.2563 21.8861 38.3502 21.9398 38.4306 22.0135C38.5111 22.0839 38.5764 22.1744 38.6267 22.285C38.7138 22.1308 38.8328 22.0118 38.9836 21.928C39.1378 21.8409 39.302 21.7973 39.4763 21.7973C39.6707 21.7973 39.84 21.8375 39.9841 21.918C40.1316 21.9951 40.2438 22.1141 40.3209 22.2749C40.4014 22.4325 40.4416 22.6336 40.4416 22.8782V24.3915H40.0243V22.9235C40.0243 22.6687 39.9724 22.4777 39.8685 22.3503C39.7646 22.223 39.6188 22.1593 39.4311 22.1593C39.3004 22.1593 39.1831 22.1945 39.0792 22.2649C38.9753 22.3319 38.8931 22.4308 38.8328 22.5615C38.7725 22.6922 38.7423 22.8531 38.7423 23.0441V24.3915H38.32V22.9235C38.32 22.6687 38.2681 22.4777 38.1642 22.3503C38.0603 22.223 37.9128 22.1593 37.7217 22.1593C37.5944 22.1593 37.4788 22.1945 37.3749 22.2649C37.2743 22.3319 37.1939 22.4308 37.1335 22.5615C37.0732 22.6922 37.043 22.8531 37.043 23.0441V24.3915H36.6207ZM42.2094 24.4518C41.9714 24.4518 41.7602 24.3965 41.5759 24.2859C41.3949 24.1753 41.2525 24.0211 41.1486 23.8234C41.0447 23.6223 40.9927 23.3893 40.9927 23.1246C40.9927 22.8564 41.043 22.6235 41.1435 22.4258C41.2474 22.228 41.3916 22.0738 41.5759 21.9632C41.7636 21.8526 41.9781 21.7973 42.2194 21.7973C42.4674 21.7973 42.6769 21.8526 42.8478 21.9632C43.0221 22.0738 43.1545 22.2196 43.245 22.4006C43.3389 22.5783 43.3858 22.7743 43.3858 22.9888C43.3858 23.0223 43.3858 23.0575 43.3858 23.0944C43.3858 23.1313 43.3841 23.1732 43.3808 23.2201H41.3094V22.8933H42.9735C42.9635 22.662 42.8864 22.4811 42.7423 22.3503C42.6015 22.2196 42.4239 22.1543 42.2094 22.1543C42.0652 22.1543 41.9312 22.1878 41.8072 22.2548C41.6865 22.3185 41.5893 22.414 41.5156 22.5414C41.4418 22.6654 41.405 22.8212 41.405 23.0089V23.1497C41.405 23.3575 41.4418 23.5318 41.5156 23.6726C41.5927 23.8133 41.6915 23.9189 41.8122 23.9893C41.9362 24.0597 42.0686 24.0949 42.2094 24.0949C42.387 24.0949 42.5328 24.0563 42.6467 23.9792C42.7641 23.8988 42.8478 23.7915 42.8981 23.6575H43.3154C43.2752 23.8083 43.2048 23.944 43.1042 24.0647C43.0037 24.1854 42.878 24.2809 42.7272 24.3513C42.5797 24.4183 42.4071 24.4518 42.2094 24.4518ZM46.2865 24.3915C46.1357 24.3915 46.005 24.368 45.8944 24.3211C45.7838 24.2742 45.6983 24.1954 45.638 24.0848C45.581 23.9709 45.5525 23.8184 45.5525 23.6273V22.2146H45.1101V21.8577H45.5525L45.6078 21.2443H45.9748V21.8577H46.7088V22.2146H45.9748V23.6273C45.9748 23.7848 46.0067 23.8921 46.0703 23.9491C46.134 24.0027 46.2463 24.0295 46.4072 24.0295H46.6787V24.3915H46.2865ZM48.3022 24.4518C48.0642 24.4518 47.8531 24.3965 47.6687 24.2859C47.4877 24.1753 47.3453 24.0211 47.2414 23.8234C47.1375 23.6223 47.0855 23.3893 47.0855 23.1246C47.0855 22.8564 47.1358 22.6235 47.2364 22.4258C47.3403 22.228 47.4844 22.0738 47.6687 21.9632C47.8564 21.8526 48.0709 21.7973 48.3122 21.7973C48.5602 21.7973 48.7697 21.8526 48.9407 21.9632C49.1149 22.0738 49.2473 22.2196 49.3378 22.4006C49.4317 22.5783 49.4786 22.7743 49.4786 22.9888C49.4786 23.0223 49.4786 23.0575 49.4786 23.0944C49.4786 23.1313 49.4769 23.1732 49.4736 23.2201H47.4023V22.8933H49.0663C49.0563 22.662 48.9792 22.4811 48.8351 22.3503C48.6943 22.2196 48.5167 22.1543 48.3022 22.1543C48.1581 22.1543 48.024 22.1878 47.9 22.2548C47.7793 22.3185 47.6821 22.414 47.6084 22.5414C47.5347 22.6654 47.4978 22.8212 47.4978 23.0089V23.1497C47.4978 23.3575 47.5347 23.5318 47.6084 23.6726C47.6855 23.8133 47.7843 23.9189 47.905 23.9893C48.029 24.0597 48.1614 24.0949 48.3022 24.0949C48.4798 24.0949 48.6256 24.0563 48.7396 23.9792C48.8569 23.8988 48.9407 23.7915 48.9909 23.6575H49.4082C49.368 23.8083 49.2976 23.944 49.1971 24.0647C49.0965 24.1854 48.9708 24.2809 48.82 24.3513C48.6725 24.4183 48.4999 24.4518 48.3022 24.4518ZM50.0485 24.3915V20.7717H50.4708V24.3915H50.0485ZM52.279 24.4518C52.041 24.4518 51.8298 24.3965 51.6455 24.2859C51.4645 24.1753 51.3221 24.0211 51.2182 23.8234C51.1143 23.6223 51.0623 23.3893 51.0623 23.1246C51.0623 22.8564 51.1126 22.6235 51.2131 22.4258C51.317 22.228 51.4612 22.0738 51.6455 21.9632C51.8332 21.8526 52.0477 21.7973 52.289 21.7973C52.537 21.7973 52.7465 21.8526 52.9174 21.9632C53.0917 22.0738 53.2241 22.2196 53.3146 22.4006C53.4084 22.5783 53.4554 22.7743 53.4554 22.9888C53.4554 23.0223 53.4554 23.0575 53.4554 23.0944C53.4554 23.1313 53.4537 23.1732 53.4503 23.2201H51.379V22.8933H53.0431C53.0331 22.662 52.956 22.4811 52.8119 22.3503C52.6711 22.2196 52.4935 22.1543 52.279 22.1543C52.1348 22.1543 52.0008 22.1878 51.8768 22.2548C51.7561 22.3185 51.6589 22.414 51.5852 22.5414C51.5114 22.6654 51.4746 22.8212 51.4746 23.0089V23.1497C51.4746 23.3575 51.5114 23.5318 51.5852 23.6726C51.6623 23.8133 51.7611 23.9189 51.8818 23.9893C52.0058 24.0597 52.1382 24.0949 52.279 24.0949C52.4566 24.0949 52.6024 24.0563 52.7163 23.9792C52.8336 23.8988 52.9174 23.7915 52.9677 23.6575H53.385C53.3448 23.8083 53.2744 23.944 53.1738 24.0647C53.0733 24.1854 52.9476 24.2809 52.7968 24.3513C52.6493 24.4183 52.4767 24.4518 52.279 24.4518ZM54.0253 24.3915V21.8577H54.4074L54.4325 22.2196C54.5129 22.0889 54.6202 21.9867 54.7543 21.913C54.8917 21.8359 55.0408 21.7973 55.2017 21.7973C55.3324 21.7973 55.4497 21.8158 55.5536 21.8526C55.6609 21.8861 55.7547 21.9398 55.8352 22.0135C55.9156 22.0839 55.9809 22.1744 56.0312 22.285C56.1184 22.1308 56.2373 22.0118 56.3882 21.928C56.5423 21.8409 56.7066 21.7973 56.8809 21.7973C57.0753 21.7973 57.2445 21.8375 57.3886 21.918C57.5361 21.9951 57.6484 22.1141 57.7255 22.2749C57.8059 22.4325 57.8461 22.6336 57.8461 22.8782V24.3915H57.4288V22.9235C57.4288 22.6687 57.3769 22.4777 57.273 22.3503C57.1691 22.223 57.0233 22.1593 56.8356 22.1593C56.7049 22.1593 56.5876 22.1945 56.4837 22.2649C56.3798 22.3319 56.2977 22.4308 56.2373 22.5615C56.177 22.6922 56.1469 22.8531 56.1469 23.0441V24.3915H55.7245V22.9235C55.7245 22.6687 55.6726 22.4777 55.5687 22.3503C55.4648 22.223 55.3173 22.1593 55.1263 22.1593C54.9989 22.1593 54.8833 22.1945 54.7794 22.2649C54.6788 22.3319 54.5984 22.4308 54.5381 22.5615C54.4777 22.6922 54.4476 22.8531 54.4476 23.0441V24.3915H54.0253ZM59.6139 24.4518C59.3759 24.4518 59.1648 24.3965 58.9804 24.2859C58.7995 24.1753 58.657 24.0211 58.5531 23.8234C58.4492 23.6223 58.3973 23.3893 58.3973 23.1246C58.3973 22.8564 58.4475 22.6235 58.5481 22.4258C58.652 22.228 58.7961 22.0738 58.9804 21.9632C59.1681 21.8526 59.3826 21.7973 59.624 21.7973C59.872 21.7973 60.0814 21.8526 60.2524 21.9632C60.4267 22.0738 60.5591 22.2196 60.6495 22.4006C60.7434 22.5783 60.7903 22.7743 60.7903 22.9888C60.7903 23.0223 60.7903 23.0575 60.7903 23.0944C60.7903 23.1313 60.7886 23.1732 60.7853 23.2201H58.714V22.8933H60.3781C60.368 22.662 60.2909 22.4811 60.1468 22.3503C60.006 22.2196 59.8284 22.1543 59.6139 22.1543C59.4698 22.1543 59.3357 22.1878 59.2117 22.2548C59.091 22.3185 58.9938 22.414 58.9201 22.5414C58.8464 22.6654 58.8095 22.8212 58.8095 23.0089V23.1497C58.8095 23.3575 58.8464 23.5318 58.9201 23.6726C58.9972 23.8133 59.0961 23.9189 59.2167 23.9893C59.3407 24.0597 59.4731 24.0949 59.6139 24.0949C59.7915 24.0949 59.9373 24.0563 60.0513 23.9792C60.1686 23.8988 60.2524 23.7915 60.3027 23.6575H60.7199C60.6797 23.8083 60.6093 23.944 60.5088 24.0647C60.4082 24.1854 60.2825 24.2809 60.1317 24.3513C59.9843 24.4183 59.8116 24.4518 59.6139 24.4518ZM62.2722 24.3915C62.1214 24.3915 61.9907 24.368 61.88 24.3211C61.7694 24.2742 61.684 24.1954 61.6236 24.0848C61.5667 23.9709 61.5382 23.8184 61.5382 23.6273V22.2146H61.0958V21.8577H61.5382L61.5935 21.2443H61.9605V21.8577H62.6945V22.2146H61.9605V23.6273C61.9605 23.7848 61.9923 23.8921 62.056 23.9491C62.1197 24.0027 62.232 24.0295 62.3928 24.0295H62.6643V24.3915H62.2722ZM63.2455 24.3915V21.8577H63.6276L63.6578 22.3403C63.7147 22.2263 63.7868 22.1291 63.8739 22.0487C63.9644 21.9683 64.0717 21.9063 64.1957 21.8627C64.3231 21.8191 64.4672 21.7973 64.628 21.7973V22.2397H64.4722C64.3649 22.2397 64.2627 22.2548 64.1655 22.285C64.0683 22.3118 63.9812 22.357 63.9041 22.4207C63.8304 22.4844 63.7717 22.5715 63.7281 22.6822C63.6879 22.7894 63.6678 22.9235 63.6678 23.0843V24.3915H63.2455ZM65.3828 25.4975L66.0011 24.1099H65.8553L64.8599 21.8577H65.3174L66.1419 23.7932L67.0066 21.8577H67.444L65.8252 25.4975H65.3828Z" fill="#4EBDBB"/>
<path d="M154.543 19L158.293 10.4246H153.236V8.94514H160.059V10.1804L156.339 19H154.543ZM161.086 19V17.7503C161.728 17.2428 162.341 16.7353 162.925 16.2277C163.509 15.7202 164.036 15.2175 164.505 14.7195C164.974 14.2215 165.343 13.7332 165.611 13.2544C165.879 12.7756 166.013 12.3159 166.013 11.8754C166.013 11.5881 165.961 11.32 165.855 11.071C165.75 10.822 165.582 10.6209 165.353 10.4677C165.132 10.3145 164.835 10.2379 164.462 10.2379C164.098 10.2379 163.787 10.3193 163.528 10.4821C163.279 10.6449 163.093 10.8651 162.968 11.1428C162.844 11.411 162.781 11.7174 162.781 12.0621H161.115C161.134 11.3344 161.292 10.7263 161.589 10.2379C161.886 9.74953 162.288 9.38563 162.796 9.14623C163.303 8.89726 163.873 8.77277 164.505 8.77277C165.185 8.77277 165.764 8.89726 166.243 9.14623C166.722 9.39521 167.091 9.74474 167.349 10.1948C167.608 10.6449 167.737 11.1764 167.737 11.7892C167.737 12.2393 167.651 12.6846 167.478 13.1251C167.316 13.556 167.086 13.9774 166.789 14.3891C166.492 14.7913 166.157 15.1839 165.784 15.567C165.42 15.9404 165.041 16.2996 164.649 16.6443C164.256 16.9795 163.878 17.2907 163.514 17.578H168.01V19H161.086Z" fill="white"/>
<path d="M175.317 19.9241V15.9021H176.891C177.174 15.9021 177.41 15.9462 177.598 16.0343C177.789 16.1224 177.933 16.2449 178.029 16.402C178.124 16.5552 178.172 16.7333 178.172 16.9363C178.172 17.1394 178.128 17.3098 178.04 17.4477C177.952 17.5856 177.835 17.6909 177.69 17.7637C177.548 17.8365 177.393 17.8805 177.224 17.8959L177.31 17.8327C177.49 17.8365 177.651 17.8844 177.793 17.9763C177.939 18.0682 178.053 18.1889 178.138 18.3383C178.222 18.4838 178.264 18.6466 178.264 18.8267C178.264 19.0373 178.212 19.2269 178.109 19.3955C178.009 19.5602 177.862 19.6904 177.667 19.7862C177.471 19.8781 177.232 19.9241 176.948 19.9241H175.317ZM176.006 19.361H176.845C177.071 19.361 177.247 19.3074 177.374 19.2001C177.5 19.0929 177.563 18.9435 177.563 18.752C177.563 18.5604 177.498 18.4091 177.368 18.2981C177.238 18.1831 177.059 18.1257 176.833 18.1257H176.006V19.361ZM176.006 17.6028H176.793C177.015 17.6028 177.184 17.553 177.299 17.4534C177.414 17.35 177.471 17.2083 177.471 17.0283C177.471 16.8521 177.414 16.7142 177.299 16.6146C177.184 16.5112 177.013 16.4595 176.787 16.4595H176.006V17.6028ZM178.924 19.9241V15.9021H180.372C180.694 15.9021 180.96 15.9577 181.171 16.0688C181.382 16.176 181.539 16.3216 181.642 16.5054C181.746 16.6893 181.797 16.9 181.797 17.1374C181.797 17.3596 181.747 17.5645 181.648 17.7522C181.548 17.9361 181.393 18.0855 181.182 18.2004C180.972 18.3115 180.702 18.367 180.372 18.367H179.614V19.9241H178.924ZM179.614 17.8039H180.332C180.604 17.8039 180.799 17.7446 180.918 17.6258C181.037 17.5032 181.096 17.3405 181.096 17.1374C181.096 16.9268 181.037 16.7621 180.918 16.6433C180.799 16.5246 180.604 16.4652 180.332 16.4652H179.614V17.8039ZM182.392 19.9241V15.9021H183.208L184.495 18.4992L185.77 15.9021H186.592V19.9241H185.903V17.0857L184.765 19.361H184.225L183.082 17.0915V19.9241H182.392Z" fill="white"/>
<path d="M13.2875 17.2369L12.745 16.6976C11.9304 15.8801 11.2568 15.1777 10.7241 14.5902C10.1915 14.0028 9.76937 13.4799 9.45783 13.0217C9.1463 12.5635 8.92863 12.1456 8.80483 11.7679C8.68104 11.3902 8.61914 11.0069 8.61914 10.6181C8.61914 9.84662 8.85429 9.2008 9.32459 8.68059C9.79488 8.16037 10.3787 7.90027 11.0761 7.90027C11.5052 7.90027 11.9106 8.01125 12.2924 8.2332C12.6742 8.45516 13.0059 8.77346 13.2875 9.1881C13.5691 8.77346 13.9008 8.45516 14.2826 8.2332C14.6643 8.01125 15.0698 7.90027 15.4988 7.90027C16.1962 7.90027 16.7801 8.16037 17.2504 8.68059C17.7206 9.2008 17.9558 9.84662 17.9558 10.6181C17.9558 11.0069 17.8939 11.3902 17.7701 11.7679C17.6463 12.1456 17.4286 12.5635 17.1171 13.0217C16.8056 13.4799 16.3843 14.0028 15.8532 14.5902C15.3221 15.1777 14.6476 15.8801 13.8299 16.6976L13.2875 17.2369ZM13.2875 16.1352C14.0737 15.3526 14.7207 14.6819 15.2285 14.123C15.7363 13.5641 16.1376 13.0785 16.4325 12.6663C16.7273 12.2541 16.9321 11.8881 17.0467 11.5682C17.1614 11.2484 17.2187 10.9316 17.2187 10.6181C17.2187 10.0745 17.0549 9.62152 16.7273 9.25915C16.3997 8.89678 15.9902 8.71559 15.4988 8.71559C15.1107 8.71559 14.7521 8.83737 14.4229 9.08093C14.0937 9.32448 13.8331 9.66334 13.6409 10.0975H12.934C12.7387 9.65986 12.4773 9.32013 12.1497 9.07831C11.8221 8.8365 11.4642 8.71559 11.0761 8.71559C10.5879 8.71559 10.1792 8.89678 9.85 9.25915C9.52082 9.62152 9.35623 10.0745 9.35623 10.6181C9.35623 10.9316 9.41356 11.2484 9.52822 11.5682C9.64288 11.8881 9.84763 12.2541 10.1425 12.6663C10.4373 13.0785 10.8386 13.5632 11.3464 14.1204C11.8542 14.6775 12.5012 15.3491 13.2875 16.1352Z" fill="#F43F5E"/>
<rect x="9" y="33" width="84.5885" height="20.1097" rx="6.70324" fill="#CFCFCF"/>
<path d="M16.2131 45.4636V40.4362H18.0157C18.4132 40.4362 18.7411 40.5056 18.9997 40.6445C19.263 40.7785 19.4569 40.9605 19.5814 41.1903C19.7107 41.4153 19.7753 41.6715 19.7753 41.9588C19.7753 42.2269 19.7131 42.4759 19.5886 42.7057C19.4641 42.9355 19.2702 43.1199 19.0069 43.2587C18.7435 43.3976 18.406 43.467 17.9942 43.467H17.0749V45.4636H16.2131ZM18.8345 45.4636L17.7787 43.2444H18.7124L19.8184 45.4636H18.8345ZM17.0749 42.8278H17.9583C18.2791 42.8278 18.5137 42.7512 18.6621 42.598C18.8153 42.44 18.892 42.2341 18.892 41.9803C18.892 41.7314 18.8177 41.5327 18.6693 41.3842C18.5209 41.231 18.2839 41.1544 17.9583 41.1544H17.0749V42.8278ZM22.4507 45.5498C22.0916 45.5498 21.7756 45.4732 21.5027 45.32C21.2298 45.162 21.0167 44.9417 20.8635 44.6592C20.7103 44.3767 20.6337 44.0512 20.6337 43.6825C20.6337 43.2994 20.7079 42.9643 20.8563 42.677C21.0095 42.3897 21.2226 42.1647 21.4955 42.0019C21.7732 41.8391 22.094 41.7577 22.4579 41.7577C22.8122 41.7577 23.1211 41.8367 23.3844 41.9947C23.6477 42.1527 23.8512 42.3658 23.9949 42.6339C24.1385 42.8972 24.2103 43.1941 24.2103 43.5245C24.2103 43.5724 24.2103 43.625 24.2103 43.6825C24.2103 43.7399 24.2055 43.7998 24.196 43.862H21.2513V43.309H23.3413C23.3317 43.0457 23.2432 42.8398 23.0756 42.6914C22.908 42.5381 22.6997 42.4615 22.4507 42.4615C22.2736 42.4615 22.1108 42.5022 21.9624 42.5836C21.8139 42.665 21.6966 42.7871 21.6104 42.9499C21.5242 43.1079 21.4812 43.309 21.4812 43.5532V43.7615C21.4812 43.9865 21.5219 44.1804 21.6033 44.3432C21.6894 44.506 21.8043 44.6305 21.948 44.7167C22.0964 44.7981 22.2616 44.8388 22.4435 44.8388C22.6446 44.8388 22.8098 44.7957 22.9391 44.7095C23.0732 44.6233 23.1713 44.5084 23.2336 44.3648H24.1098C24.0428 44.5898 23.9326 44.7933 23.7794 44.9752C23.6262 45.1524 23.4371 45.2936 23.212 45.399C22.987 45.4995 22.7332 45.5498 22.4507 45.5498ZM26.7848 45.5498C26.464 45.5498 26.1839 45.4995 25.9445 45.399C25.7099 45.2936 25.5232 45.15 25.3843 44.9681C25.2503 44.7813 25.1713 44.5683 25.1473 44.3289H26.0092C26.0331 44.4294 26.0762 44.5228 26.1384 44.609C26.2007 44.6904 26.2845 44.755 26.3898 44.8029C26.4999 44.8508 26.6292 44.8747 26.7777 44.8747C26.9213 44.8747 27.0386 44.8555 27.1296 44.8172C27.2205 44.7741 27.2876 44.7191 27.3307 44.6521C27.3738 44.585 27.3953 44.5132 27.3953 44.4366C27.3953 44.3217 27.3642 44.2331 27.3019 44.1709C27.2397 44.1086 27.1487 44.0607 27.029 44.0272C26.9141 43.9889 26.7753 43.953 26.6125 43.9195C26.4401 43.886 26.2725 43.8453 26.1097 43.7974C25.9517 43.7447 25.8081 43.6801 25.6788 43.6035C25.5543 43.5269 25.4538 43.4287 25.3772 43.309C25.3053 43.1893 25.2694 43.0433 25.2694 42.8709C25.2694 42.6602 25.3245 42.4711 25.4346 42.3035C25.5495 42.1359 25.7123 42.0043 25.923 41.9085C26.1384 41.808 26.3946 41.7577 26.6915 41.7577C27.1128 41.7577 27.448 41.8558 27.697 42.0522C27.9507 42.2437 28.0991 42.5142 28.1422 42.8637H27.3235C27.2995 42.7297 27.2325 42.6267 27.1224 42.5549C27.0123 42.4783 26.8662 42.44 26.6843 42.44C26.4976 42.44 26.3539 42.4759 26.2534 42.5477C26.1576 42.6147 26.1097 42.7057 26.1097 42.8206C26.1097 42.8925 26.1384 42.9595 26.1959 43.0217C26.2582 43.0792 26.3467 43.1295 26.4616 43.1726C26.5766 43.2109 26.7178 43.2492 26.8854 43.2875C27.1535 43.3401 27.3905 43.4024 27.5964 43.4742C27.8023 43.546 27.9651 43.6514 28.0848 43.7902C28.2045 43.9291 28.2643 44.1254 28.2643 44.3791C28.2691 44.609 28.2093 44.8125 28.0848 44.9896C27.9651 45.1668 27.7951 45.3056 27.5749 45.4062C27.3546 45.5019 27.0913 45.5498 26.7848 45.5498ZM30.8824 45.4636C30.6382 45.4636 30.4251 45.4253 30.2432 45.3487C30.066 45.2721 29.9272 45.1452 29.8266 44.9681C29.7261 44.7909 29.6758 44.5515 29.6758 44.2499V42.5693H29.0581V41.8439H29.6758L29.7763 40.8887H30.5376V41.8439H31.5216V42.5693H30.5376V44.2499C30.5376 44.4318 30.5759 44.5587 30.6526 44.6305C30.7339 44.6975 30.868 44.7311 31.0547 44.7311H31.5V45.4636H30.8824ZM32.7035 45.4636V41.8439H33.5653V45.4636H32.7035ZM33.1344 41.2693C32.9764 41.2693 32.8447 41.2214 32.7394 41.1257C32.6389 41.0251 32.5886 40.903 32.5886 40.7594C32.5886 40.611 32.6389 40.4913 32.7394 40.4003C32.8447 40.3045 32.9764 40.2566 33.1344 40.2566C33.2924 40.2566 33.4217 40.3045 33.5222 40.4003C33.6276 40.4913 33.6803 40.611 33.6803 40.7594C33.6803 40.903 33.6276 41.0251 33.5222 41.1257C33.4217 41.2214 33.2924 41.2693 33.1344 41.2693ZM34.8964 45.4636V41.8439H35.6577L35.7224 42.4472C35.8325 42.2365 35.9905 42.0689 36.1964 41.9444C36.4023 41.8199 36.6465 41.7577 36.929 41.7577C37.221 41.7577 37.47 41.8199 37.6759 41.9444C37.8818 42.0641 38.0398 42.2413 38.1499 42.4759C38.2648 42.7105 38.3223 43.0026 38.3223 43.3521V45.4636H37.4604V43.4311C37.4604 43.1295 37.3934 42.8972 37.2593 42.7344C37.1253 42.5717 36.9266 42.4903 36.6632 42.4903C36.4909 42.4903 36.3353 42.531 36.1964 42.6124C36.0623 42.6937 35.9546 42.8134 35.8732 42.9715C35.7966 43.1247 35.7583 43.3114 35.7583 43.5317V45.4636H34.8964ZM41.0887 47.1299C40.7487 47.1299 40.4495 47.0868 40.1909 47.0006C39.9372 46.9192 39.7385 46.7923 39.5948 46.6199C39.456 46.4524 39.3865 46.2417 39.3865 45.9879C39.3865 45.8395 39.4224 45.6934 39.4943 45.5498C39.5709 45.411 39.6834 45.2817 39.8318 45.162C39.985 45.0375 40.179 44.9298 40.4136 44.8388L40.7942 45.2553C40.5644 45.3367 40.404 45.4349 40.313 45.5498C40.222 45.6647 40.1766 45.782 40.1766 45.9017C40.1766 46.0262 40.2149 46.1292 40.2915 46.2106C40.3729 46.2967 40.4806 46.3614 40.6147 46.4045C40.7535 46.4476 40.9091 46.4691 41.0815 46.4691C41.2491 46.4691 41.3951 46.4452 41.5196 46.3973C41.6441 46.3542 41.7399 46.292 41.8069 46.2106C41.8787 46.1292 41.9146 46.031 41.9146 45.9161C41.9146 45.7725 41.8643 45.6551 41.7638 45.5642C41.6632 45.478 41.4645 45.4253 41.1677 45.4062C40.9139 45.387 40.6913 45.3607 40.4998 45.3272C40.3082 45.2889 40.143 45.2458 40.0042 45.1979C39.8701 45.15 39.7552 45.0973 39.6595 45.0399C39.5637 44.9776 39.4847 44.9154 39.4224 44.8531V44.688L40.1766 43.8979L40.8158 44.1062L39.9683 44.9322L40.1909 44.5156C40.2388 44.5491 40.2867 44.5802 40.3346 44.609C40.3872 44.6377 40.4519 44.664 40.5285 44.688C40.6099 44.7071 40.7152 44.7263 40.8445 44.7454C40.9738 44.7646 41.1413 44.7837 41.3472 44.8029C41.668 44.8268 41.929 44.8843 42.1301 44.9752C42.3312 45.0662 42.4796 45.1883 42.5754 45.3415C42.6711 45.4947 42.719 45.6791 42.719 45.8945C42.719 46.1052 42.6592 46.3039 42.5395 46.4907C42.4245 46.6774 42.2474 46.8306 42.008 46.9503C41.7686 47.07 41.4621 47.1299 41.0887 47.1299ZM41.0887 44.3791C40.787 44.3791 40.5261 44.3217 40.3058 44.2068C40.0904 44.0871 39.9252 43.9291 39.8103 43.7328C39.6954 43.5317 39.6379 43.3114 39.6379 43.072C39.6379 42.8278 39.6954 42.6076 39.8103 42.4113C39.9252 42.2149 40.0904 42.0569 40.3058 41.9372C40.5261 41.8175 40.787 41.7577 41.0887 41.7577C41.3903 41.7577 41.6489 41.8175 41.8643 41.9372C42.0798 42.0569 42.245 42.2149 42.3599 42.4113C42.4748 42.6076 42.5323 42.8278 42.5323 43.072C42.5323 43.3114 42.4748 43.5317 42.3599 43.7328C42.245 43.9291 42.0798 44.0871 41.8643 44.2068C41.6489 44.3217 41.3903 44.3791 41.0887 44.3791ZM41.0887 43.7112C41.2946 43.7112 41.4598 43.6561 41.5842 43.546C41.7087 43.4359 41.771 43.2779 41.771 43.072C41.771 42.8661 41.7087 42.7105 41.5842 42.6052C41.4598 42.495 41.2946 42.44 41.0887 42.44C40.8828 42.44 40.7152 42.495 40.5859 42.6052C40.4567 42.7105 40.392 42.8661 40.392 43.072C40.392 43.2779 40.4567 43.4359 40.5859 43.546C40.7152 43.6561 40.8828 43.7112 41.0887 43.7112ZM41.6848 42.4759L41.5196 41.8439H43.0063V42.3825L41.6848 42.4759Z" fill="#434656"/>
<path d="M78.4066 46.455C77.9584 46.455 77.5792 46.3717 77.269 46.205C76.9644 46.0384 76.7202 45.8172 76.5364 45.5414C76.3525 45.2599 76.2175 44.9468 76.1313 44.602C76.0451 44.2573 76.002 43.9039 76.002 43.5419C76.002 42.8697 76.0968 42.2865 76.2865 41.7924C76.4761 41.2925 76.7461 40.9047 77.0966 40.6289C77.4528 40.3531 77.8809 40.2152 78.3807 40.2152C78.7944 40.2152 79.142 40.2957 79.4236 40.4565C79.7108 40.6117 79.9349 40.8185 80.0958 41.0771C80.2567 41.3356 80.3544 41.6172 80.3888 41.9217H79.4236C79.3719 41.6516 79.2541 41.4448 79.0702 41.3011C78.8921 41.1518 78.6594 41.0771 78.3721 41.0771C78.1136 41.0771 77.8837 41.1575 77.6826 41.3184C77.4815 41.4793 77.3235 41.7206 77.2086 42.0423C77.0937 42.3641 77.0276 42.772 77.0104 43.2662C77.0104 43.2776 77.0104 43.2891 77.0104 43.3006C77.0104 43.3064 77.0104 43.315 77.0104 43.3265C77.1023 43.1599 77.2259 43.0133 77.381 42.8869C77.5361 42.7548 77.7142 42.6514 77.9153 42.5767C78.1222 42.502 78.3434 42.4646 78.579 42.4646C78.918 42.4646 79.2311 42.5451 79.5184 42.706C79.8114 42.8611 80.047 43.0852 80.2251 43.3782C80.4089 43.6712 80.5009 44.016 80.5009 44.4124C80.5009 44.7744 80.4147 45.1105 80.2423 45.4208C80.07 45.731 79.8258 45.981 79.5098 46.1706C79.1937 46.3602 78.826 46.455 78.4066 46.455ZM78.3463 45.5673C78.5703 45.5673 78.7686 45.5184 78.9409 45.4208C79.1133 45.3231 79.2483 45.1909 79.346 45.0243C79.4494 44.8577 79.5011 44.6681 79.5011 44.4555C79.5011 44.2314 79.4494 44.0361 79.346 43.8694C79.2483 43.7028 79.1104 43.5735 78.9323 43.4816C78.7599 43.3897 78.5617 43.3437 78.3376 43.3437C78.1193 43.3437 77.9211 43.3926 77.743 43.4902C77.5706 43.5822 77.4327 43.7114 77.3293 43.8781C77.2259 44.0447 77.1742 44.2343 77.1742 44.4469C77.1742 44.6652 77.2259 44.8577 77.3293 45.0243C77.4327 45.1909 77.5706 45.3231 77.743 45.4208C77.9211 45.5184 78.1222 45.5673 78.3463 45.5673ZM84.3776 46.3516V45.2053H81.387V44.3779L84.231 40.3186H85.4032V44.3004H86.2219V45.2053H85.4032V46.3516H84.3776ZM82.4987 44.3004H84.4379V41.4563L82.4987 44.3004Z" fill="#191B25"/>
<rect x="102.525" y="33" width="84.5885" height="20.1097" rx="6.70324" fill="#CFCFCF"/>
<path d="M112.913 45.7031V40.6757H113.775V45.7031H112.913ZM109.738 45.7031V40.6757H110.6V45.7031H109.738ZM110.471 43.4911V42.7872H113.078V43.4911H110.471ZM115.13 45.7031V40.6757H116.933C117.331 40.6757 117.659 40.7451 117.917 40.884C118.18 41.018 118.374 41.2 118.499 41.4298C118.628 41.6548 118.693 41.911 118.693 42.1983C118.693 42.4664 118.631 42.7154 118.506 42.9452C118.382 43.175 118.188 43.3594 117.924 43.4982C117.661 43.6371 117.323 43.7065 116.912 43.7065H115.992V45.7031H115.13ZM117.752 45.7031L116.696 43.4839H117.63L118.736 45.7031H117.752ZM115.992 43.0673H116.876C117.197 43.0673 117.431 42.9907 117.58 42.8375C117.733 42.6795 117.809 42.4736 117.809 42.2198C117.809 41.9709 117.735 41.7722 117.587 41.6237C117.438 41.4705 117.201 41.3939 116.876 41.3939H115.992V43.0673ZM121.195 45.7031L119.349 40.6757H120.276L121.719 44.8197L123.184 40.6757H124.097L122.244 45.7031H121.195Z" fill="#434656"/>
<path d="M159.58 46.455C159.172 46.455 158.805 46.3832 158.477 46.2395C158.15 46.0901 157.888 45.8833 157.693 45.619C157.503 45.3489 157.409 45.0329 157.409 44.671C157.409 44.4296 157.452 44.2056 157.538 43.9987C157.624 43.7919 157.748 43.6138 157.908 43.4644C158.069 43.3092 158.256 43.1943 158.469 43.1196C158.187 42.9932 157.963 42.818 157.796 42.5939C157.635 42.3641 157.555 42.1084 157.555 41.8269C157.555 41.5338 157.633 41.2667 157.788 41.0254C157.943 40.784 158.17 40.5887 158.469 40.4393C158.773 40.2899 159.144 40.2152 159.58 40.2152C160.017 40.2152 160.385 40.2899 160.684 40.4393C160.982 40.5887 161.209 40.784 161.364 41.0254C161.52 41.2667 161.597 41.5338 161.597 41.8269C161.597 42.1027 161.514 42.3583 161.347 42.5939C161.186 42.8237 160.965 42.999 160.684 43.1196C160.902 43.1943 161.089 43.3092 161.244 43.4644C161.405 43.6195 161.528 43.8005 161.614 44.0073C161.706 44.2084 161.752 44.4296 161.752 44.671C161.752 45.0329 161.655 45.3489 161.459 45.619C161.264 45.8833 161.002 46.0901 160.675 46.2395C160.353 46.3832 159.988 46.455 159.58 46.455ZM159.58 45.5845C159.96 45.5845 160.244 45.4926 160.434 45.3087C160.629 45.1191 160.727 44.8807 160.727 44.5934C160.727 44.2716 160.623 44.0246 160.416 43.8522C160.215 43.6741 159.937 43.585 159.58 43.585C159.224 43.585 158.94 43.6741 158.727 43.8522C158.52 44.0246 158.417 44.2716 158.417 44.5934C158.417 44.8807 158.515 45.1191 158.71 45.3087C158.911 45.4926 159.201 45.5845 159.58 45.5845ZM159.58 42.8008C159.891 42.8008 160.132 42.7203 160.304 42.5594C160.482 42.3928 160.572 42.186 160.572 41.9389C160.572 41.6574 160.482 41.4419 160.304 41.2925C160.132 41.1374 159.891 41.0598 159.58 41.0598C159.27 41.0598 159.026 41.1374 158.848 41.2925C158.675 41.4419 158.589 41.6574 158.589 41.9389C158.589 42.1917 158.675 42.3986 158.848 42.5594C159.026 42.7203 159.27 42.8008 159.58 42.8008ZM162.651 46.3516V45.6018C163.036 45.2972 163.403 44.9927 163.754 44.6882C164.104 44.3837 164.42 44.082 164.702 43.7833C164.983 43.4845 165.205 43.1915 165.365 42.9042C165.526 42.6169 165.607 42.3411 165.607 42.0768C165.607 41.9044 165.575 41.7436 165.512 41.5942C165.449 41.4448 165.348 41.3241 165.21 41.2322C165.078 41.1403 164.9 41.0943 164.676 41.0943C164.458 41.0943 164.271 41.1431 164.116 41.2408C163.966 41.3385 163.854 41.4706 163.78 41.6373C163.705 41.7981 163.668 41.982 163.668 42.1888H162.668C162.679 41.7522 162.774 41.3873 162.952 41.0943C163.13 40.8013 163.372 40.5829 163.676 40.4393C163.981 40.2899 164.323 40.2152 164.702 40.2152C165.11 40.2152 165.457 40.2899 165.745 40.4393C166.032 40.5887 166.253 40.7984 166.408 41.0684C166.563 41.3385 166.641 41.6574 166.641 42.0251C166.641 42.2951 166.589 42.5623 166.486 42.8266C166.388 43.0852 166.25 43.338 166.072 43.585C165.894 43.8264 165.693 44.0619 165.469 44.2918C165.25 44.5158 165.024 44.7313 164.788 44.9381C164.552 45.1392 164.325 45.326 164.107 45.4983H166.805V46.3516H162.651ZM167.737 46.3516V42.0079H168.65L168.736 42.6025C168.874 42.3842 169.055 42.2147 169.279 42.094C169.509 41.9676 169.771 41.9044 170.064 41.9044C170.282 41.9044 170.477 41.9332 170.65 41.9906C170.828 42.0481 170.983 42.1343 171.115 42.2492C171.253 42.3641 171.365 42.5077 171.451 42.6801C171.612 42.4388 171.822 42.2492 172.08 42.1113C172.339 41.9734 172.621 41.9044 172.925 41.9044C173.287 41.9044 173.594 41.9791 173.847 42.1285C174.1 42.2722 174.293 42.4876 174.425 42.7749C174.557 43.0564 174.623 43.4041 174.623 43.8177V46.3516H173.597V43.9212C173.597 43.5534 173.523 43.2719 173.373 43.0765C173.224 42.8812 173.003 42.7835 172.71 42.7835C172.508 42.7835 172.33 42.8324 172.175 42.93C172.026 43.0277 171.908 43.1714 171.822 43.361C171.736 43.5448 171.693 43.7718 171.693 44.0418V46.3516H170.667V43.9212C170.667 43.5534 170.592 43.2719 170.443 43.0765C170.294 42.8812 170.069 42.7835 169.771 42.7835C169.581 42.7835 169.409 42.8324 169.254 42.93C169.104 43.0277 168.986 43.1714 168.9 43.361C168.814 43.5448 168.771 43.7718 168.771 44.0418V46.3516H167.737ZM177.448 46.455C177.063 46.455 176.727 46.3947 176.439 46.274C176.158 46.1476 175.934 45.9752 175.767 45.7569C175.606 45.5328 175.512 45.2771 175.483 44.9898H176.517C176.546 45.1105 176.598 45.2225 176.672 45.326C176.747 45.4236 176.847 45.5012 176.974 45.5587C177.106 45.6161 177.261 45.6448 177.439 45.6448C177.612 45.6448 177.752 45.6219 177.862 45.5759C177.971 45.5242 178.051 45.4581 178.103 45.3777C178.155 45.2972 178.18 45.2111 178.18 45.1191C178.18 44.9812 178.143 44.8749 178.068 44.8002C177.994 44.7255 177.885 44.6681 177.741 44.6279C177.603 44.5819 177.436 44.5388 177.241 44.4986C177.034 44.4584 176.833 44.4095 176.638 44.3521C176.448 44.2889 176.276 44.2113 176.121 44.1194C175.971 44.0275 175.851 43.9097 175.759 43.766C175.672 43.6224 175.629 43.4471 175.629 43.2403C175.629 42.9875 175.695 42.7605 175.828 42.5594C175.965 42.3583 176.161 42.2003 176.414 42.0854C176.672 41.9648 176.98 41.9044 177.336 41.9044C177.841 41.9044 178.244 42.0222 178.542 42.2578C178.847 42.4876 179.025 42.8123 179.077 43.2317H178.094C178.066 43.0708 177.985 42.9473 177.853 42.8611C177.721 42.7692 177.546 42.7232 177.327 42.7232C177.103 42.7232 176.931 42.7663 176.81 42.8525C176.695 42.9329 176.638 43.0421 176.638 43.18C176.638 43.2662 176.672 43.3466 176.741 43.4213C176.816 43.4902 176.922 43.5506 177.06 43.6023C177.198 43.6482 177.367 43.6942 177.569 43.7402C177.89 43.8034 178.175 43.8781 178.422 43.9643C178.669 44.0504 178.864 44.1768 179.008 44.3435C179.151 44.5101 179.223 44.7457 179.223 45.0502C179.229 45.326 179.157 45.5702 179.008 45.7827C178.864 45.9953 178.66 46.162 178.396 46.2826C178.132 46.3975 177.816 46.455 177.448 46.455Z" fill="#191B25"/>
<defs>
<linearGradient id="paint0_linear_2632_1158" x1="84.8276" y1="44.8" x2="206.696" y2="-17.5499" gradientUnits="userSpaceOnUse">
<stop offset="0.109529" stop-color="#EDEDED"/>
<stop offset="1" stop-color="#204462"/>
</linearGradient>
</defs>
</svg>
