<svg width="200" height="60" viewBox="0 0 200 60" fill="none" xmlns="http://www.w3.org/2000/svg">
<rect width="200" height="60" rx="12" fill="url(#paint0_linear_2632_1125)" fill-opacity="0.2"/>
<path d="M13.2268 12.434V9.67885H14.9311V9.95042H13.5574V10.9108H14.813V11.1784H13.5574V12.1624H14.9311V12.434H13.2268ZM15.6491 12.434V10.4503H15.9482L15.964 10.7966C16.0269 10.6733 16.1161 10.5775 16.2316 10.5093C16.3497 10.4385 16.4835 10.4031 16.6331 10.4031C16.7879 10.4031 16.9217 10.4345 17.0345 10.4975C17.1473 10.5579 17.2352 10.651 17.2982 10.777C17.3612 10.9003 17.3927 11.0577 17.3927 11.2493V12.434H17.0621V11.2847C17.0621 11.0853 17.0175 10.9357 16.9282 10.836C16.8417 10.7363 16.7183 10.6864 16.5583 10.6864C16.4481 10.6864 16.3497 10.714 16.2631 10.7691C16.1765 10.8216 16.107 10.899 16.0545 11.0013C16.0046 11.101 15.9797 11.2256 15.9797 11.3752V12.434H15.6491ZM18.9994 12.4812C18.8078 12.4812 18.6399 12.4366 18.4956 12.3474C18.3513 12.2555 18.2398 12.1309 18.161 11.9735C18.0823 11.816 18.043 11.6376 18.043 11.4382C18.043 11.2388 18.0823 11.0617 18.161 10.9068C18.2398 10.7494 18.3513 10.6261 18.4956 10.5369C18.6425 10.4477 18.8118 10.4031 19.0033 10.4031C19.166 10.4031 19.3077 10.4358 19.4284 10.5014C19.5517 10.567 19.6462 10.6589 19.7118 10.777V9.60013H20.0424V12.434H19.7433L19.7157 12.1073C19.6737 12.1729 19.6199 12.2345 19.5543 12.2923C19.4887 12.3474 19.41 12.3933 19.3182 12.43C19.2263 12.4641 19.1201 12.4812 18.9994 12.4812ZM19.0387 12.1939C19.1699 12.1939 19.2854 12.1624 19.3851 12.0994C19.4848 12.0364 19.5622 11.9498 19.6173 11.8396C19.6724 11.7268 19.7 11.5943 19.7 11.4421C19.7 11.2926 19.6724 11.1614 19.6173 11.0485C19.5622 10.9357 19.4848 10.8478 19.3851 10.7848C19.2854 10.7219 19.1699 10.6904 19.0387 10.6904C18.9102 10.6904 18.796 10.7219 18.6963 10.7848C18.5966 10.8478 18.5192 10.9357 18.4641 11.0485C18.409 11.1614 18.3814 11.2926 18.3814 11.4421C18.3814 11.5943 18.409 11.7268 18.4641 11.8396C18.5192 11.9498 18.5966 12.0364 18.6963 12.0994C18.796 12.1624 18.9102 12.1939 19.0387 12.1939ZM21.6953 12.4812C21.5116 12.4812 21.3463 12.4392 21.1993 12.3552C21.0524 12.2687 20.937 12.148 20.853 11.9931C20.769 11.8357 20.727 11.6533 20.727 11.4461C20.727 11.2335 20.769 11.0498 20.853 10.895C20.9396 10.7376 21.0563 10.6169 21.2033 10.5329C21.3528 10.4463 21.5195 10.4031 21.7031 10.4031C21.8921 10.4031 22.0587 10.4463 22.203 10.5329C22.3499 10.6169 22.4654 10.7376 22.5493 10.895C22.6359 11.0498 22.6792 11.2322 22.6792 11.4421C22.6792 11.652 22.6359 11.8357 22.5493 11.9931C22.4628 12.148 22.346 12.2687 22.1991 12.3552C22.0521 12.4392 21.8842 12.4812 21.6953 12.4812ZM21.6992 12.1978C21.812 12.1978 21.917 12.1703 22.0141 12.1152C22.1112 12.0574 22.1899 11.9722 22.2502 11.8593C22.3106 11.7465 22.3407 11.6074 22.3407 11.4421C22.3407 11.2742 22.3106 11.1351 22.2502 11.0249C22.1925 10.9121 22.1151 10.8281 22.018 10.773C21.9235 10.7153 21.8186 10.6864 21.7031 10.6864C21.5929 10.6864 21.488 10.7153 21.3883 10.773C21.2912 10.8281 21.2125 10.9121 21.1521 11.0249C21.0944 11.1351 21.0655 11.2742 21.0655 11.4421C21.0655 11.6074 21.0944 11.7465 21.1521 11.8593C21.2125 11.9722 21.2899 12.0574 21.3843 12.1152C21.4814 12.1703 21.5864 12.1978 21.6992 12.1978ZM24.2527 12.4812C24.0664 12.4812 23.8985 12.4379 23.7489 12.3513C23.602 12.2647 23.4865 12.144 23.4025 11.9892C23.3186 11.8318 23.2766 11.6507 23.2766 11.4461C23.2766 11.2361 23.3186 11.0538 23.4025 10.899C23.4865 10.7442 23.602 10.6235 23.7489 10.5369C23.8985 10.4477 24.0664 10.4031 24.2527 10.4031C24.4888 10.4031 24.6856 10.4647 24.8431 10.588C25.0005 10.7087 25.1002 10.8714 25.1422 11.0761H24.8037C24.7775 10.9528 24.7132 10.857 24.6109 10.7888C24.5085 10.7205 24.3878 10.6864 24.2488 10.6864C24.1359 10.6864 24.031 10.7153 23.9339 10.773C23.8368 10.8281 23.7594 10.9121 23.7017 11.0249C23.6439 11.1377 23.6151 11.2768 23.6151 11.4421C23.6151 11.5654 23.6321 11.6756 23.6662 11.7727C23.7004 11.8672 23.7463 11.9459 23.804 12.0089C23.8617 12.0719 23.9286 12.1204 24.0047 12.1545C24.0834 12.186 24.1648 12.2017 24.2488 12.2017C24.3432 12.2017 24.4285 12.1873 24.5046 12.1584C24.5807 12.127 24.645 12.081 24.6974 12.0207C24.7499 11.9603 24.7853 11.8895 24.8037 11.8082H25.1422C25.1002 12.0076 24.9992 12.1703 24.8391 12.2962C24.6817 12.4195 24.4862 12.4812 24.2527 12.4812ZM25.8281 12.434V10.4503H26.1272L26.1508 10.8281C26.1954 10.7389 26.2518 10.6628 26.3201 10.5998C26.3909 10.5369 26.4749 10.4883 26.572 10.4542C26.6717 10.4201 26.7845 10.4031 26.9104 10.4031V10.7494H26.7884C26.7045 10.7494 26.6244 10.7612 26.5483 10.7848C26.4723 10.8058 26.404 10.8412 26.3437 10.8911C26.286 10.941 26.24 11.0092 26.2059 11.0958C26.1744 11.1797 26.1587 11.2847 26.1587 11.4106V12.434H25.8281ZM27.5328 12.434V10.4503H27.8634V12.434H27.5328ZM27.6981 10.0291C27.6325 10.0291 27.5774 10.0082 27.5328 9.96617C27.4908 9.92156 27.4698 9.86646 27.4698 9.80086C27.4698 9.73526 27.4908 9.68279 27.5328 9.64343C27.5774 9.60144 27.6325 9.58045 27.6981 9.58045C27.7611 9.58045 27.8149 9.60144 27.8595 9.64343C27.9041 9.68279 27.9264 9.73526 27.9264 9.80086C27.9264 9.86646 27.9041 9.92156 27.8595 9.96617C27.8149 10.0082 27.7611 10.0291 27.6981 10.0291ZM28.6633 12.434V10.4503H28.9624L28.9782 10.7966C29.0411 10.6733 29.1304 10.5775 29.2458 10.5093C29.3639 10.4385 29.4977 10.4031 29.6473 10.4031C29.8021 10.4031 29.9359 10.4345 30.0487 10.4975C30.1616 10.5579 30.2495 10.651 30.3124 10.777C30.3754 10.9003 30.4069 11.0577 30.4069 11.2493V12.434H30.0763V11.2847C30.0763 11.0853 30.0317 10.9357 29.9425 10.836C29.8559 10.7363 29.7325 10.6864 29.5725 10.6864C29.4623 10.6864 29.3639 10.714 29.2773 10.7691C29.1907 10.8216 29.1212 10.899 29.0687 11.0013C29.0188 11.101 28.9939 11.2256 28.9939 11.3752V12.434H28.6633ZM32.0097 12.4812C31.8234 12.4812 31.658 12.4379 31.5137 12.3513C31.372 12.2647 31.2605 12.144 31.1792 11.9892C31.0978 11.8318 31.0572 11.6494 31.0572 11.4421C31.0572 11.2322 31.0965 11.0498 31.1752 10.895C31.2566 10.7402 31.3694 10.6195 31.5137 10.5329C31.6607 10.4463 31.8286 10.4031 32.0175 10.4031C32.2117 10.4031 32.3757 10.4463 32.5095 10.5329C32.646 10.6195 32.7496 10.7337 32.8204 10.8754C32.8939 11.0144 32.9306 11.1679 32.9306 11.3359C32.9306 11.3621 32.9306 11.3896 32.9306 11.4185C32.9306 11.4474 32.9293 11.4802 32.9267 11.5169H31.3051V11.2611H32.6079C32.6 11.08 32.5397 10.9383 32.4269 10.836C32.3166 10.7337 32.1776 10.6825 32.0097 10.6825C31.8968 10.6825 31.7919 10.7087 31.6948 10.7612C31.6003 10.8111 31.5242 10.8859 31.4665 10.9856C31.4088 11.0826 31.3799 11.2047 31.3799 11.3516V11.4618C31.3799 11.6245 31.4088 11.7609 31.4665 11.8711C31.5269 11.9813 31.6043 12.064 31.6987 12.1191C31.7958 12.1742 31.8994 12.2017 32.0097 12.2017C32.1487 12.2017 32.2629 12.1716 32.3521 12.1112C32.4439 12.0482 32.5095 11.9643 32.5489 11.8593H32.8755C32.8441 11.9774 32.789 12.0837 32.7102 12.1781C32.6315 12.2726 32.5331 12.3474 32.415 12.4025C32.2996 12.455 32.1645 12.4812 32.0097 12.4812ZM35.7526 12.4812C35.5506 12.4812 35.3748 12.4445 35.2252 12.371C35.0756 12.2975 34.9602 12.1952 34.8788 12.064C34.7975 11.9328 34.7568 11.7806 34.7568 11.6074H35.1032C35.1032 11.715 35.1281 11.8147 35.178 11.9066C35.2278 11.9958 35.3 12.0679 35.3944 12.123C35.4915 12.1755 35.6109 12.2017 35.7526 12.2017C35.8759 12.2017 35.9809 12.1821 36.0675 12.1427C36.1567 12.1007 36.2236 12.0443 36.2682 11.9735C36.3154 11.9026 36.3391 11.8226 36.3391 11.7334C36.3391 11.6258 36.3154 11.5392 36.2682 11.4736C36.2236 11.4054 36.1619 11.3503 36.0832 11.3083C36.0045 11.2663 35.9127 11.2296 35.8077 11.1981C35.7054 11.164 35.5978 11.1286 35.485 11.0918C35.2672 11.0184 35.1071 10.9265 35.0048 10.8163C34.9025 10.7061 34.8513 10.5631 34.8513 10.3873C34.8513 10.2377 34.8854 10.1065 34.9536 9.99372C35.0245 9.88089 35.1242 9.79299 35.2528 9.73002C35.3839 9.66442 35.5388 9.63162 35.7172 9.63162C35.893 9.63162 36.0452 9.66442 36.1737 9.73002C36.3049 9.79561 36.4073 9.88614 36.4807 10.0016C36.5542 10.1144 36.5909 10.2456 36.5909 10.3952H36.2446C36.2446 10.3191 36.2249 10.2443 36.1856 10.1708C36.1462 10.0974 36.0858 10.037 36.0045 9.98978C35.9258 9.93993 35.8261 9.915 35.7054 9.915C35.6057 9.91238 35.5165 9.92943 35.4377 9.96617C35.3616 10.0003 35.3013 10.0501 35.2567 10.1157C35.2147 10.1813 35.1937 10.2614 35.1937 10.3558C35.1937 10.445 35.2121 10.5172 35.2488 10.5723C35.2882 10.6274 35.3433 10.6746 35.4141 10.714C35.4876 10.7507 35.5729 10.7848 35.67 10.8163C35.767 10.8478 35.8746 10.8832 35.9927 10.9226C36.1265 10.9672 36.2446 11.0223 36.3469 11.0879C36.4519 11.1509 36.5332 11.2322 36.5909 11.3319C36.6513 11.4316 36.6815 11.5589 36.6815 11.7137C36.6815 11.8449 36.6461 11.9695 36.5752 12.0876C36.507 12.2031 36.4047 12.2975 36.2682 12.371C36.1318 12.4445 35.9599 12.4812 35.7526 12.4812ZM38.1341 12.434C38.016 12.434 37.9137 12.4156 37.8271 12.3789C37.7405 12.3421 37.6736 12.2805 37.6264 12.1939C37.5818 12.1047 37.5595 11.9853 37.5595 11.8357V10.7297H37.2131V10.4503H37.5595L37.6028 9.9701H37.8901V10.4503H38.4647V10.7297H37.8901V11.8357C37.8901 11.959 37.915 12.043 37.9649 12.0876C38.0147 12.1296 38.1026 12.1506 38.2286 12.1506H38.4411V12.434H38.1341ZM39.7581 12.4812C39.598 12.4812 39.4642 12.4536 39.3566 12.3985C39.249 12.3408 39.169 12.266 39.1165 12.1742C39.064 12.0797 39.0378 11.9774 39.0378 11.8672C39.0378 11.7334 39.0719 11.6205 39.1401 11.5287C39.211 11.4342 39.3094 11.3634 39.4353 11.3162C39.5639 11.2663 39.7148 11.2414 39.888 11.2414H40.4114C40.4114 11.1181 40.3917 11.0157 40.3524 10.9344C40.3156 10.8504 40.2605 10.7875 40.1871 10.7455C40.1162 10.7035 40.027 10.6825 39.9194 10.6825C39.7935 10.6825 39.6846 10.714 39.5928 10.777C39.5009 10.8399 39.4445 10.9331 39.4235 11.0564H39.085C39.1008 10.9147 39.148 10.7966 39.2267 10.7022C39.3081 10.6051 39.4104 10.5316 39.5337 10.4818C39.657 10.4293 39.7856 10.4031 39.9194 10.4031C40.1031 10.4031 40.2553 10.4372 40.376 10.5054C40.4993 10.571 40.5912 10.6641 40.6515 10.7848C40.7119 10.9029 40.742 11.0433 40.742 11.206V12.434H40.4468L40.4272 12.0837C40.4009 12.1388 40.3668 12.1912 40.3248 12.2411C40.2855 12.2883 40.2382 12.3303 40.1831 12.3671C40.128 12.4012 40.0651 12.4287 39.9942 12.4497C39.926 12.4707 39.8473 12.4812 39.7581 12.4812ZM39.8092 12.2017C39.9011 12.2017 39.9837 12.1834 40.0572 12.1466C40.1333 12.1073 40.1976 12.0548 40.2501 11.9892C40.3025 11.921 40.3419 11.8462 40.3681 11.7649C40.397 11.6835 40.4114 11.5982 40.4114 11.509V11.4972H39.9155C39.7869 11.4972 39.6833 11.513 39.6046 11.5445C39.5258 11.5733 39.4694 11.6153 39.4353 11.6704C39.4012 11.7229 39.3842 11.7832 39.3842 11.8515C39.3842 11.9223 39.3999 11.984 39.4314 12.0364C39.4655 12.0889 39.514 12.1296 39.577 12.1584C39.6426 12.1873 39.72 12.2017 39.8092 12.2017ZM42.1954 12.434C42.0774 12.434 41.975 12.4156 41.8885 12.3789C41.8019 12.3421 41.735 12.2805 41.6877 12.1939C41.6431 12.1047 41.6208 11.9853 41.6208 11.8357V10.7297H41.2745V10.4503H41.6208L41.6641 9.9701H41.9514V10.4503H42.5261V10.7297H41.9514V11.8357C41.9514 11.959 41.9764 12.043 42.0262 12.0876C42.0761 12.1296 42.164 12.1506 42.2899 12.1506H42.5024V12.434H42.1954ZM43.8942 12.4812C43.742 12.4812 43.6082 12.451 43.4927 12.3907C43.3799 12.3303 43.292 12.2372 43.229 12.1112C43.1687 11.9853 43.1385 11.8278 43.1385 11.6389V10.4503H43.4691V11.6035C43.4691 11.8003 43.5124 11.9485 43.599 12.0482C43.6856 12.148 43.8076 12.1978 43.965 12.1978C44.0752 12.1978 44.1749 12.1716 44.2642 12.1191C44.3534 12.064 44.4229 11.9866 44.4728 11.8869C44.5252 11.7845 44.5515 11.6599 44.5515 11.513V10.4503H44.8821V12.434H44.583L44.5633 12.0876C44.5029 12.2109 44.4137 12.308 44.2956 12.3789C44.1776 12.4471 44.0437 12.4812 43.8942 12.4812ZM46.3944 12.4812C46.2291 12.4812 46.0848 12.4536 45.9615 12.3985C45.8408 12.3434 45.7437 12.2673 45.6702 12.1703C45.5994 12.0705 45.5561 11.9538 45.5403 11.82H45.8788C45.8919 11.8882 45.9195 11.9512 45.9615 12.0089C46.0034 12.0666 46.0599 12.1138 46.1307 12.1506C46.2042 12.1847 46.2934 12.2017 46.3983 12.2017C46.4902 12.2017 46.5663 12.1886 46.6266 12.1624C46.687 12.1335 46.7316 12.0955 46.7604 12.0482C46.7919 12.001 46.8077 11.9498 46.8077 11.8947C46.8077 11.8134 46.788 11.7517 46.7486 11.7098C46.7119 11.6678 46.6568 11.635 46.5833 11.6114C46.5099 11.5851 46.4207 11.5628 46.3157 11.5445C46.2291 11.5287 46.1438 11.5077 46.0599 11.4815C45.9759 11.4552 45.9011 11.4211 45.8355 11.3791C45.7699 11.3345 45.7174 11.2807 45.6781 11.2178C45.6413 11.1548 45.623 11.0774 45.623 10.9856C45.623 10.8727 45.6518 10.773 45.7096 10.6864C45.7673 10.5972 45.85 10.5277 45.9575 10.4778C46.0677 10.428 46.195 10.4031 46.3393 10.4031C46.5518 10.4031 46.7237 10.4542 46.8549 10.5565C46.9861 10.6589 47.0635 10.8071 47.0871 11.0013H46.7604C46.7473 10.9016 46.704 10.8242 46.6306 10.7691C46.5597 10.7114 46.4613 10.6825 46.3354 10.6825C46.2121 10.6825 46.1176 10.7074 46.052 10.7573C45.989 10.8071 45.9575 10.8727 45.9575 10.9541C45.9575 11.0066 45.9746 11.0538 46.0087 11.0958C46.0454 11.1351 46.0979 11.1692 46.1661 11.1981C46.237 11.227 46.3236 11.2506 46.4259 11.2689C46.5571 11.2926 46.6765 11.324 46.7841 11.3634C46.8916 11.4028 46.9782 11.4618 47.0438 11.5405C47.1121 11.6166 47.1462 11.7255 47.1462 11.8672C47.1462 11.9905 47.1147 12.0981 47.0517 12.1899C46.9914 12.2818 46.9048 12.3539 46.7919 12.4064C46.6791 12.4563 46.5466 12.4812 46.3944 12.4812Z" fill="#32FFFB"/>
<path d="M14.7736 20.6682V15.9216H13.152V15.158H17.3319V15.9216H15.7104V20.6682H14.7736ZM18.0791 20.6682V15.0006H19.0237V17.3149C19.1549 17.0997 19.3333 16.9291 19.559 16.8032C19.7846 16.672 20.0391 16.6064 20.3225 16.6064C20.6479 16.6064 20.9234 16.6746 21.1491 16.8111C21.3747 16.9423 21.5453 17.139 21.6607 17.4014C21.7814 17.6586 21.8418 17.9813 21.8418 18.3697V20.6682H20.905V18.4563C20.905 18.1151 20.8316 17.8554 20.6846 17.677C20.5429 17.4985 20.3252 17.4093 20.0313 17.4093C19.8424 17.4093 19.6718 17.4565 19.5196 17.551C19.3674 17.6402 19.2467 17.7714 19.1575 17.9446C19.0683 18.1125 19.0237 18.3198 19.0237 18.5665V20.6682H18.0791ZM23.1947 22.4L24.1629 20.2274H23.9267L22.3445 16.7009H23.3757L24.5565 19.393L25.6743 16.7009H26.674L24.1944 22.4H23.1947ZM27.3576 20.6682V16.7009H28.1999L28.2865 17.4408C28.3809 17.2676 28.499 17.1207 28.6407 17C28.7824 16.874 28.9477 16.7769 29.1366 16.7087C29.3308 16.6405 29.5433 16.6064 29.7742 16.6064V17.6061H29.4436C29.2862 17.6061 29.1366 17.6271 28.9949 17.6691C28.8532 17.7058 28.7299 17.7688 28.6249 17.858C28.5252 17.942 28.4465 18.06 28.3888 18.2122C28.3311 18.3592 28.3022 18.5455 28.3022 18.7711V20.6682H27.3576ZM32.2516 20.7627C31.8738 20.7627 31.5327 20.6761 31.2283 20.5029C30.9292 20.3245 30.693 20.0805 30.5198 19.7708C30.3519 19.456 30.2679 19.0965 30.2679 18.6924C30.2679 18.2778 30.3545 17.9157 30.5277 17.6061C30.7009 17.2912 30.937 17.0472 31.2361 16.874C31.5405 16.6956 31.8816 16.6064 32.2595 16.6064C32.6373 16.6064 32.9758 16.6956 33.2749 16.874C33.5793 17.0472 33.8155 17.2886 33.9834 17.5982C34.1566 17.9079 34.2432 18.27 34.2432 18.6845C34.2432 19.0991 34.1566 19.4612 33.9834 19.7708C33.8102 20.0805 33.5714 20.3245 33.2671 20.5029C32.9679 20.6761 32.6294 20.7627 32.2516 20.7627ZM32.2516 19.9519C32.4405 19.9519 32.6111 19.9047 32.7633 19.8102C32.9207 19.7157 33.0467 19.574 33.1411 19.3851C33.2356 19.1962 33.2828 18.9627 33.2828 18.6845C33.2828 18.4064 33.2356 18.1755 33.1411 17.9918C33.0519 17.8029 32.9286 17.6612 32.7711 17.5667C32.619 17.4723 32.4484 17.4251 32.2595 17.4251C32.0758 17.4251 31.9052 17.4723 31.7478 17.5667C31.5904 17.6612 31.4644 17.8029 31.37 17.9918C31.2755 18.1755 31.2283 18.4064 31.2283 18.6845C31.2283 18.9627 31.2755 19.1962 31.37 19.3851C31.4644 19.574 31.5878 19.7157 31.7399 19.8102C31.8974 19.9047 32.0679 19.9519 32.2516 19.9519ZM35.2072 20.6682V16.7009H36.1518V20.6682H35.2072ZM35.6795 16.0711C35.5063 16.0711 35.362 16.0186 35.2466 15.9137C35.1364 15.8035 35.0812 15.6697 35.0812 15.5122C35.0812 15.3495 35.1364 15.2183 35.2466 15.1186C35.362 15.0137 35.5063 14.9612 35.6795 14.9612C35.8527 14.9612 35.9944 15.0137 36.1046 15.1186C36.22 15.2183 36.2778 15.3495 36.2778 15.5122C36.2778 15.6697 36.22 15.8035 36.1046 15.9137C35.9944 16.0186 35.8527 16.0711 35.6795 16.0711ZM39.0067 20.7627C38.6393 20.7627 38.3113 20.6735 38.0227 20.495C37.7341 20.3166 37.5084 20.07 37.3457 19.7551C37.1883 19.4402 37.1096 19.0834 37.1096 18.6845C37.1096 18.2857 37.1909 17.9315 37.3536 17.6218C37.5163 17.307 37.7419 17.0603 38.0306 16.8819C38.3244 16.6982 38.6551 16.6064 39.0224 16.6064C39.3215 16.6064 39.5813 16.6641 39.8017 16.7796C40.0274 16.8898 40.2058 17.0472 40.337 17.2519V15.0006H41.2816V20.6682H40.4315L40.337 20.0936C40.253 20.209 40.1507 20.3192 40.03 20.4242C39.9093 20.5239 39.765 20.6052 39.597 20.6682C39.4291 20.7312 39.2323 20.7627 39.0067 20.7627ZM39.2035 19.944C39.4291 19.944 39.6285 19.8915 39.8017 19.7866C39.9749 19.6764 40.1087 19.5268 40.2032 19.3379C40.2976 19.149 40.3449 18.9312 40.3449 18.6845C40.3449 18.4379 40.2976 18.2201 40.2032 18.0312C40.1087 17.8423 39.9749 17.6953 39.8017 17.5904C39.6285 17.4854 39.4291 17.4329 39.2035 17.4329C38.9883 17.4329 38.7941 17.4854 38.621 17.5904C38.4478 17.6953 38.3113 17.8423 38.2116 18.0312C38.1172 18.2201 38.0699 18.4379 38.0699 18.6845C38.0699 18.9312 38.1172 19.149 38.2116 19.3379C38.3113 19.5268 38.4478 19.6764 38.621 19.7866C38.7941 19.8915 38.9883 19.944 39.2035 19.944ZM46.7338 20.7627C46.188 20.7627 45.7157 20.6446 45.3169 20.4084C44.9233 20.167 44.6189 19.8338 44.4037 19.4087C44.1938 18.9784 44.0889 18.4825 44.0889 17.921C44.0889 17.3542 44.1938 16.8583 44.4037 16.4332C44.6189 16.0029 44.9233 15.667 45.3169 15.4256C45.7157 15.1842 46.188 15.0635 46.7338 15.0635C47.3897 15.0635 47.925 15.2262 48.3396 15.5516C48.7542 15.8717 49.0166 16.3256 49.1268 16.9134H48.0877C48.0142 16.6038 47.8647 16.3597 47.639 16.1813C47.4134 16.0029 47.109 15.9137 46.7259 15.9137C46.3795 15.9137 46.0804 15.995 45.8285 16.1577C45.5819 16.3151 45.3903 16.546 45.2539 16.8504C45.1227 17.1495 45.0571 17.5064 45.0571 17.921C45.0571 18.3356 45.1227 18.6924 45.2539 18.9915C45.3903 19.2854 45.5819 19.5137 45.8285 19.6764C46.0804 19.8338 46.3795 19.9125 46.7259 19.9125C47.109 19.9125 47.4134 19.8312 47.639 19.6685C47.8647 19.5006 48.0142 19.2697 48.0877 18.9758H49.1268C49.0218 19.5321 48.7594 19.9703 48.3396 20.2904C47.925 20.6052 47.3897 20.7627 46.7338 20.7627ZM51.8695 20.7627C51.4916 20.7627 51.1505 20.6761 50.8461 20.5029C50.547 20.3245 50.3109 20.0805 50.1377 19.7708C49.9698 19.456 49.8858 19.0965 49.8858 18.6924C49.8858 18.2778 49.9724 17.9157 50.1456 17.6061C50.3187 17.2912 50.5549 17.0472 50.854 16.874C51.1584 16.6956 51.4995 16.6064 51.8773 16.6064C52.2552 16.6064 52.5937 16.6956 52.8928 16.874C53.1972 17.0472 53.4333 17.2886 53.6012 17.5982C53.7744 17.9079 53.861 18.27 53.861 18.6845C53.861 19.0991 53.7744 19.4612 53.6012 19.7708C53.4281 20.0805 53.1893 20.3245 52.8849 20.5029C52.5858 20.6761 52.2473 20.7627 51.8695 20.7627ZM51.8695 19.9519C52.0584 19.9519 52.2289 19.9047 52.3811 19.8102C52.5386 19.7157 52.6645 19.574 52.759 19.3851C52.8534 19.1962 52.9007 18.9627 52.9007 18.6845C52.9007 18.4064 52.8534 18.1755 52.759 17.9918C52.6698 17.8029 52.5464 17.6612 52.389 17.5667C52.2368 17.4723 52.0663 17.4251 51.8773 17.4251C51.6937 17.4251 51.5231 17.4723 51.3657 17.5667C51.2082 17.6612 51.0823 17.8029 50.9878 17.9918C50.8934 18.1755 50.8461 18.4064 50.8461 18.6845C50.8461 18.9627 50.8934 19.1962 50.9878 19.3851C51.0823 19.574 51.2056 19.7157 51.3578 19.8102C51.5152 19.9047 51.6858 19.9519 51.8695 19.9519ZM54.7857 20.6682V16.7009H55.628L55.7146 17.4408C55.809 17.2676 55.9271 17.1207 56.0688 17C56.2105 16.874 56.3758 16.7769 56.5647 16.7087C56.7589 16.6405 56.9714 16.6064 57.2023 16.6064V17.6061H56.8717C56.7143 17.6061 56.5647 17.6271 56.423 17.6691C56.2813 17.7058 56.158 17.7688 56.0531 17.858C55.9533 17.942 55.8746 18.06 55.8169 18.2122C55.7592 18.3592 55.7303 18.5455 55.7303 18.7711V20.6682H54.7857ZM59.6876 20.7627C59.294 20.7627 58.9476 20.6787 58.6485 20.5108C58.3494 20.3376 58.1159 20.0962 57.9479 19.7866C57.78 19.477 57.696 19.1201 57.696 18.716C57.696 18.2962 57.7774 17.9288 57.9401 17.614C58.108 17.2991 58.3415 17.0525 58.6406 16.874C58.945 16.6956 59.2966 16.6064 59.6955 16.6064C60.0838 16.6064 60.4223 16.693 60.7109 16.8662C60.9995 17.0393 61.2226 17.2729 61.38 17.5667C61.5374 17.8554 61.6162 18.1807 61.6162 18.5428C61.6162 18.5953 61.6162 18.653 61.6162 18.716C61.6162 18.779 61.6109 18.8446 61.6004 18.9128H58.373V18.3067H60.6637C60.6532 18.0181 60.5561 17.7924 60.3724 17.6297C60.1888 17.4618 59.9605 17.3778 59.6876 17.3778C59.4934 17.3778 59.315 17.4224 59.1523 17.5116C58.9896 17.6009 58.861 17.7347 58.7666 17.9131C58.6721 18.0863 58.6249 18.3067 58.6249 18.5743V18.8026C58.6249 19.0493 58.6695 19.2618 58.7587 19.4402C58.8532 19.6186 58.9791 19.7551 59.1366 19.8496C59.2992 19.9388 59.4803 19.9834 59.6797 19.9834C59.9001 19.9834 60.0812 19.9361 60.2229 19.8417C60.3698 19.7472 60.4774 19.6213 60.5456 19.4638H61.506C61.4325 19.7105 61.3118 19.9335 61.1439 20.1329C60.9759 20.3271 60.7686 20.4819 60.522 20.5974C60.2753 20.7076 59.9972 20.7627 59.6876 20.7627Z" fill="white"/>
<rect x="157" y="9" width="37" height="6.18494" rx="2" fill="#0F5AFF" fill-opacity="0.54"/>
<path d="M161.743 13.2774C161.572 13.2774 161.421 13.2471 161.288 13.1863C161.155 13.1256 161.052 13.039 160.977 12.9266C160.903 12.8141 160.865 12.6803 160.863 12.5251H161.291C161.291 12.6038 161.309 12.6747 161.345 12.7376C161.383 12.7984 161.435 12.8467 161.5 12.8827C161.568 12.9187 161.649 12.9367 161.743 12.9367C161.824 12.9367 161.894 12.9243 161.952 12.8996C162.013 12.8726 162.059 12.8355 162.091 12.7882C162.124 12.7388 162.141 12.6814 162.141 12.6162C162.141 12.542 162.123 12.4813 162.087 12.434C162.054 12.3845 162.006 12.3429 161.946 12.3092C161.885 12.2755 161.815 12.2462 161.737 12.2215C161.658 12.1945 161.575 12.1664 161.487 12.1371C161.3 12.0742 161.16 11.9943 161.065 11.8976C160.971 11.7987 160.923 11.6671 160.923 11.5029C160.923 11.3657 160.956 11.2476 161.021 11.1487C161.087 11.0497 161.178 10.9732 161.295 10.9193C161.414 10.863 161.551 10.8349 161.706 10.8349C161.864 10.8349 162.001 10.863 162.118 10.9193C162.237 10.9755 162.33 11.0542 162.398 11.1554C162.467 11.2544 162.503 11.3736 162.506 11.513H162.074C162.072 11.4546 162.056 11.4006 162.027 11.3511C161.997 11.2994 161.955 11.2578 161.898 11.2263C161.844 11.1925 161.778 11.1757 161.699 11.1757C161.632 11.1734 161.571 11.1847 161.517 11.2094C161.466 11.2319 161.424 11.2656 161.392 11.3106C161.363 11.3533 161.349 11.4073 161.349 11.4725C161.349 11.5355 161.362 11.5884 161.389 11.6311C161.418 11.6716 161.46 11.7064 161.514 11.7357C161.568 11.7627 161.631 11.7885 161.703 11.8133C161.775 11.838 161.853 11.865 161.939 11.8942C162.056 11.9325 162.162 11.9797 162.256 12.0359C162.353 12.0899 162.429 12.1608 162.485 12.2485C162.542 12.3362 162.57 12.4498 162.57 12.5892C162.57 12.7107 162.538 12.8242 162.475 12.9299C162.412 13.0334 162.32 13.1177 162.199 13.183C162.077 13.2459 161.925 13.2774 161.743 13.2774ZM163.666 13.2369V11.2027H162.971V10.8754H164.762V11.2027H164.067V13.2369H163.666ZM164.873 13.2369L165.736 10.8754H166.188L167.052 13.2369H166.624L165.959 11.3477L165.294 13.2369H164.873ZM165.257 12.6803L165.365 12.3598H166.529L166.637 12.6803H165.257ZM167.562 13.2369V10.8754H167.967L169.104 12.5825V10.8754H169.509V13.2369H169.104L167.967 11.5333V13.2369H167.562ZM170.169 13.2369V10.8754H170.932C171.206 10.8754 171.432 10.9238 171.61 11.0205C171.79 11.1172 171.923 11.2544 172.008 11.4321C172.096 11.6075 172.14 11.8167 172.14 12.0596C172.14 12.298 172.096 12.506 172.008 12.6837C171.923 12.8591 171.79 12.9952 171.61 13.0919C171.432 13.1886 171.206 13.2369 170.932 13.2369H170.169ZM170.574 12.8928H170.912C171.116 12.8928 171.277 12.8602 171.394 12.795C171.513 12.7275 171.598 12.6319 171.647 12.5082C171.699 12.3823 171.725 12.2327 171.725 12.0596C171.725 11.8841 171.699 11.7346 171.647 11.6109C171.598 11.4849 171.513 11.3882 171.394 11.3207C171.277 11.251 171.116 11.2161 170.912 11.2161H170.574V12.8928ZM172.41 13.2369L173.274 10.8754H173.726L174.59 13.2369H174.161L173.497 11.3477L172.832 13.2369H172.41ZM172.795 12.6803L172.903 12.3598H174.067L174.175 12.6803H172.795ZM175.1 13.2369V10.8754H175.947C176.134 10.8754 176.288 10.908 176.409 10.9732C176.533 11.0362 176.624 11.1217 176.682 11.2296C176.743 11.3354 176.774 11.4557 176.774 11.5906C176.774 11.7166 176.744 11.8335 176.686 11.9415C176.627 12.0494 176.536 12.136 176.413 12.2012C176.289 12.2665 176.13 12.2991 175.937 12.2991H175.505V13.2369H175.1ZM176.332 13.2369L175.836 12.1945H176.274L176.794 13.2369H176.332ZM175.505 11.9988H175.92C176.071 11.9988 176.181 11.9628 176.251 11.8909C176.323 11.8167 176.359 11.7199 176.359 11.6007C176.359 11.4838 176.324 11.3905 176.254 11.3207C176.184 11.2488 176.073 11.2128 175.92 11.2128H175.505V11.9988ZM177.378 13.2369V10.8754H178.14C178.415 10.8754 178.641 10.9238 178.818 11.0205C178.998 11.1172 179.131 11.2544 179.216 11.4321C179.304 11.6075 179.348 11.8167 179.348 12.0596C179.348 12.298 179.304 12.506 179.216 12.6837C179.131 12.8591 178.998 12.9952 178.818 13.0919C178.641 13.1886 178.415 13.2369 178.14 13.2369H177.378ZM177.783 12.8928H178.12C178.325 12.8928 178.485 12.8602 178.602 12.795C178.722 12.7275 178.806 12.6319 178.855 12.5082C178.907 12.3823 178.933 12.2327 178.933 12.0596C178.933 11.8841 178.907 11.7346 178.855 11.6109C178.806 11.4849 178.722 11.3882 178.602 11.3207C178.485 11.251 178.325 11.2161 178.12 11.2161H177.783V12.8928ZM180.938 13.2369V10.8754H181.788C181.977 10.8754 182.133 10.908 182.257 10.9732C182.381 11.0362 182.473 11.1217 182.534 11.2296C182.594 11.3376 182.625 11.4613 182.625 11.6007C182.625 11.7312 182.596 11.8515 182.537 11.9617C182.479 12.0697 182.388 12.1574 182.264 12.2249C182.14 12.2901 181.982 12.3227 181.788 12.3227H181.343V13.2369H180.938ZM181.343 11.9921H181.765C181.924 11.9921 182.039 11.9572 182.109 11.8875C182.178 11.8155 182.213 11.7199 182.213 11.6007C182.213 11.477 182.178 11.3803 182.109 11.3106C182.039 11.2409 181.924 11.206 181.765 11.206H181.343V11.9921ZM182.744 13.2369L183.608 10.8754H184.06L184.923 13.2369H184.495L183.83 11.3477L183.166 13.2369H182.744ZM183.129 12.6803L183.237 12.3598H184.401L184.509 12.6803H183.129ZM185.434 13.2369V10.8754H185.839L186.976 12.5825V10.8754H187.38V13.2369H186.976L185.839 11.5333V13.2369H185.434ZM188.041 13.2369V10.8754H189.566V11.2027H188.446V11.8807H189.465V12.2012H188.446V12.9097H189.566V13.2369H188.041ZM190.177 13.2369V10.8754H190.582V12.9198H191.634V13.2369H190.177Z" fill="white"/>
<rect x="7" y="30" width="56" height="20.8211" rx="3.1682" fill="#CFCFCF"/>
<path d="M10.8043 35.1682V33.5285H10.2441V33.2647H11.6881V33.5285H11.1279V35.1682H10.8043ZM12.6883 35.2008C12.5505 35.2008 12.4282 35.1764 12.3212 35.1274C12.2143 35.0785 12.1309 35.0087 12.071 34.918C12.0112 34.8274 11.9804 34.7195 11.9786 34.5944H12.3239C12.3239 34.6579 12.3384 34.715 12.3674 34.7658C12.3983 34.8147 12.44 34.8537 12.4925 34.8827C12.5469 34.9117 12.6122 34.9262 12.6883 34.9262C12.7536 34.9262 12.8098 34.9162 12.8569 34.8963C12.9059 34.8745 12.943 34.8446 12.9684 34.8065C12.9956 34.7667 13.0092 34.7204 13.0092 34.6679C13.0092 34.608 12.9947 34.5591 12.9657 34.521C12.9385 34.4811 12.9004 34.4476 12.8515 34.4204C12.8025 34.3932 12.7463 34.3696 12.6829 34.3497C12.6194 34.328 12.5524 34.3053 12.4816 34.2817C12.3312 34.231 12.2179 34.1666 12.1417 34.0887C12.0656 34.0089 12.0275 33.9028 12.0275 33.7705C12.0275 33.6599 12.0538 33.5647 12.1064 33.485C12.159 33.4052 12.2324 33.3436 12.3266 33.3001C12.4227 33.2547 12.5333 33.2321 12.6584 33.2321C12.7853 33.2321 12.8959 33.2547 12.9902 33.3001C13.0862 33.3454 13.1615 33.4088 13.2159 33.4904C13.2721 33.5702 13.3011 33.6663 13.3029 33.7787H12.9548C12.953 33.7315 12.9403 33.688 12.9167 33.6481C12.8932 33.6064 12.8587 33.5729 12.8134 33.5475C12.7699 33.5203 12.7164 33.5067 12.653 33.5067C12.5986 33.5049 12.5496 33.514 12.5061 33.5339C12.4644 33.552 12.4309 33.5792 12.4055 33.6155C12.3819 33.6499 12.3702 33.6934 12.3702 33.746C12.3702 33.7968 12.381 33.8394 12.4028 33.8738C12.4264 33.9065 12.4599 33.9346 12.5034 33.9581C12.5469 33.9799 12.5977 34.0007 12.6557 34.0207C12.7137 34.0406 12.7771 34.0624 12.846 34.0859C12.9403 34.1168 13.0255 34.1548 13.1016 34.2001C13.1796 34.2437 13.2412 34.3008 13.2866 34.3715C13.3319 34.4422 13.3545 34.5337 13.3545 34.6461C13.3545 34.744 13.3292 34.8356 13.2784 34.9208C13.2276 35.0041 13.1533 35.0721 13.0554 35.1247C12.9575 35.1755 12.8352 35.2008 12.6883 35.2008ZM14.9926 35.1682V33.2647H15.3189V35.1682H14.9926ZM13.7906 35.1682V33.2647H14.117V35.1682H13.7906ZM14.068 34.3307V34.0642H15.0551V34.3307H14.068Z" fill="#434656"/>
<path d="M10.5209 42.9583V42.5275C10.8001 42.3121 11.0653 42.0948 11.3166 41.8754C11.5679 41.6561 11.7912 41.4387 11.9866 41.2233C12.186 41.004 12.3416 40.7906 12.4533 40.5832C12.5649 40.3718 12.6208 40.1704 12.6208 39.979C12.6208 39.8434 12.5968 39.7178 12.549 39.6021C12.5011 39.4864 12.4253 39.3927 12.3216 39.3209C12.218 39.2451 12.0764 39.2073 11.8969 39.2073C11.7254 39.2073 11.5818 39.2451 11.4662 39.3209C11.3545 39.3967 11.2687 39.4984 11.2089 39.626C11.1531 39.7497 11.1252 39.8873 11.1252 40.0388H10.5449C10.5489 39.7517 10.6107 39.5084 10.7303 39.309C10.85 39.1095 11.0115 38.958 11.2149 38.8543C11.4223 38.7506 11.6536 38.6988 11.9089 38.6988C12.1761 38.6988 12.4074 38.7486 12.6028 38.8483C12.7983 38.944 12.9498 39.0856 13.0575 39.2731C13.1652 39.4565 13.219 39.6819 13.219 39.9491C13.219 40.1405 13.1811 40.332 13.1053 40.5234C13.0296 40.7108 12.9259 40.8943 12.7943 41.0738C12.6666 41.2533 12.5231 41.4267 12.3635 41.5943C12.204 41.7578 12.0385 41.9133 11.867 42.0609C11.6995 42.2085 11.5379 42.3421 11.3824 42.4617H13.3506V42.9583H10.5209ZM14.2668 42.9882C14.1512 42.9882 14.0555 42.9523 13.9797 42.8805C13.9079 42.8047 13.872 42.715 13.872 42.6113C13.872 42.5036 13.9079 42.4138 13.9797 42.3421C14.0555 42.2663 14.1512 42.2284 14.2668 42.2284C14.3825 42.2284 14.4762 42.2663 14.548 42.3421C14.6198 42.4138 14.6557 42.5036 14.6557 42.6113C14.6557 42.715 14.6198 42.8047 14.548 42.8805C14.4762 42.9523 14.3825 42.9882 14.2668 42.9882ZM17.2452 42.9583V42.1028H15.1453V41.6361L17.1494 38.7705H17.8374V41.5823H18.4357V42.1028H17.8374V42.9583H17.2452ZM15.7974 41.5823H17.281V39.4286L15.7974 41.5823ZM20.5002 43.03C20.205 43.03 19.9518 42.9782 19.7404 42.8745C19.529 42.7668 19.3615 42.6232 19.2379 42.4438C19.1142 42.2603 19.0385 42.0549 19.0105 41.8276H19.5968C19.6367 42.031 19.7364 42.1985 19.8959 42.3301C20.0555 42.4577 20.2569 42.5215 20.5002 42.5215C20.6836 42.5215 20.8412 42.4777 20.9728 42.3899C21.1044 42.3022 21.2061 42.1845 21.2779 42.037C21.3497 41.8894 21.3856 41.7259 21.3856 41.5464C21.3856 41.355 21.3477 41.1894 21.2719 41.0499C21.2001 40.9063 21.0984 40.7946 20.9668 40.7148C20.8392 40.6351 20.6896 40.5952 20.5181 40.5952C20.3107 40.5952 20.1312 40.643 19.9797 40.7388C19.8321 40.8305 19.7244 40.9482 19.6566 41.0917H19.0763L19.4233 38.7705H21.6787V39.291H19.884L19.6626 40.4636C19.7583 40.3559 19.886 40.2681 20.0455 40.2003C20.209 40.1325 20.3945 40.0986 20.6019 40.0986C20.8132 40.0986 21.0027 40.1365 21.1702 40.2123C21.3377 40.2841 21.4793 40.3858 21.595 40.5174C21.7146 40.649 21.8043 40.8026 21.8642 40.9781C21.928 41.1535 21.9599 41.339 21.9599 41.5344C21.9599 41.7458 21.926 41.9412 21.8582 42.1207C21.7904 42.3002 21.6927 42.4597 21.565 42.5993C21.4414 42.7349 21.2879 42.8406 21.1044 42.9164C20.9249 42.9922 20.7235 43.03 20.5002 43.03Z" fill="#191B25"/>
<path d="M23.7685 43.0275V41.6569H23.9751L23.9887 41.8527C24.0322 41.782 24.0903 41.7267 24.1628 41.6869C24.2371 41.6452 24.3178 41.6243 24.4048 41.6243C24.4755 41.6243 24.5389 41.6343 24.5951 41.6542C24.6532 41.6724 24.7039 41.7014 24.7474 41.7412C24.7909 41.7793 24.8263 41.8283 24.8535 41.8881C24.9006 41.8047 24.965 41.7403 25.0465 41.695C25.1299 41.6479 25.2188 41.6243 25.313 41.6243C25.4182 41.6243 25.5097 41.6461 25.5877 41.6896C25.6674 41.7313 25.7282 41.7956 25.7699 41.8826C25.8134 41.9678 25.8351 42.0766 25.8351 42.209V43.0275H25.6094V42.2334C25.6094 42.0957 25.5813 41.9923 25.5251 41.9234C25.4689 41.8545 25.3901 41.8201 25.2886 41.8201C25.2179 41.8201 25.1544 41.8391 25.0982 41.8772C25.042 41.9135 24.9976 41.9669 24.965 42.0376C24.9323 42.1083 24.916 42.1954 24.916 42.2987V43.0275H24.6876V42.2334C24.6876 42.0957 24.6595 41.9923 24.6033 41.9234C24.5471 41.8545 24.4673 41.8201 24.364 41.8201C24.2951 41.8201 24.2326 41.8391 24.1764 41.8772C24.122 41.9135 24.0785 41.9669 24.0458 42.0376C24.0132 42.1083 23.9969 42.1954 23.9969 42.2987V43.0275H23.7685ZM26.2039 43.0275V41.124H26.4324V43.0275H26.2039ZM27.5265 43.0601C27.396 43.0601 27.2773 43.0338 27.1703 42.9812C27.0652 42.9287 26.9809 42.8489 26.9174 42.7419C26.854 42.6332 26.8222 42.4945 26.8222 42.3259V41.124H27.0507V42.3286C27.0507 42.4519 27.0706 42.5525 27.1105 42.6304C27.1522 42.7084 27.2093 42.7655 27.2818 42.8018C27.3543 42.838 27.4377 42.8562 27.532 42.8562C27.6281 42.8562 27.7115 42.838 27.7822 42.8018C27.8529 42.7655 27.9081 42.7084 27.948 42.6304C27.9879 42.5525 28.0079 42.4519 28.0079 42.3286V41.124H28.2363V42.3259C28.2363 42.4945 28.2045 42.6332 28.1411 42.7419C28.0776 42.8489 27.9924 42.9287 27.8855 42.9812C27.7785 43.0338 27.6589 43.0601 27.5265 43.0601ZM28.413 43.2858L29.0956 40.9499H29.3213L28.6387 43.2858H28.413ZM29.7597 43.0275V41.124H29.9882V42.8453H30.8746V43.0275H29.7597Z" fill="#434656"/>
<g clip-path="url(#clip0_2632_1125)">
<rect x="10.168" y="46.8608" width="49.6636" height="0.792051" rx="0.396025" fill="#E2E8F0"/>
<rect x="10.168" y="46.8605" width="32.2791" height="0.792051" fill="#003EC7"/>
</g>
<rect x="70.584" y="30" width="58.8318" height="20.8211" rx="3.1682" fill="#CFCFCF"/>
<path d="M73.945 35.1682V33.2647H75.1605V33.5285H74.2713V34.0859H74.9974V34.3443H74.2713V35.1682H73.945ZM75.5589 35.1682V33.2647H76.2415C76.3919 33.2647 76.5161 33.291 76.614 33.3436C76.7137 33.3943 76.7871 33.4632 76.8343 33.5502C76.8832 33.6354 76.9077 33.7324 76.9077 33.8412C76.9077 33.9427 76.8841 34.037 76.837 34.124C76.7898 34.211 76.7164 34.2808 76.6167 34.3334C76.517 34.386 76.3892 34.4122 76.2333 34.4122H75.8852V35.1682H75.5589ZM76.5515 35.1682L76.1517 34.328H76.5052L76.924 35.1682H76.5515ZM75.8852 34.1702H76.2197C76.3412 34.1702 76.43 34.1412 76.4862 34.0832C76.5442 34.0234 76.5732 33.9454 76.5732 33.8494C76.5732 33.7551 76.5451 33.6799 76.4889 33.6237C76.4327 33.5656 76.343 33.5366 76.2197 33.5366H75.8852V34.1702ZM77.364 35.1682V33.2647H78.5931V33.5285H77.6903V34.0751H78.5115V34.3334H77.6903V34.9044H78.5931V35.1682H77.364ZM79.0549 35.1682V33.2647H80.284V33.5285H79.3812V34.0751H80.2024V34.3334H79.3812V34.9044H80.284V35.1682H79.0549ZM81.9717 35.1682V33.5285H81.4116V33.2647H82.8555V33.5285H82.2953V35.1682H81.9717ZM83.9488 35.1682V34.8065H83.0052V34.5455L83.9025 33.2647H84.2724V34.521H84.5307V34.8065H84.2724V35.1682H83.9488ZM83.356 34.521H83.9678V33.6237L83.356 34.521Z" fill="#434656"/>
<path d="M74.6673 42.9584V39.4467L73.9374 39.6321V39.1835L74.8886 38.7707H75.2775V42.9584H74.6673ZM76.361 42.9883C76.2454 42.9883 76.1497 42.9524 76.0739 42.8806C76.0021 42.8048 75.9662 42.7151 75.9662 42.6114C75.9662 42.5037 76.0021 42.414 76.0739 42.3422C76.1497 42.2664 76.2454 42.2285 76.361 42.2285C76.4767 42.2285 76.5704 42.2664 76.6422 42.3422C76.714 42.414 76.7499 42.5037 76.7499 42.6114C76.7499 42.7151 76.714 42.8048 76.6422 42.8806C76.5704 42.9524 76.4767 42.9883 76.361 42.9883ZM77.7578 42.9584V39.4467L77.0279 39.6321V39.1835L77.9792 38.7707H78.368V42.9584H77.7578ZM79.1584 42.9584V42.5276C79.4376 42.3123 79.7029 42.0949 79.9541 41.8756C80.2054 41.6562 80.4287 41.4388 80.6241 41.2235C80.8236 41.0041 80.9791 40.7907 81.0908 40.5833C81.2024 40.372 81.2583 40.1706 81.2583 39.9791C81.2583 39.8435 81.2344 39.7179 81.1865 39.6022C81.1386 39.4866 81.0629 39.3928 80.9592 39.321C80.8555 39.2453 80.7139 39.2074 80.5344 39.2074C80.3629 39.2074 80.2193 39.2453 80.1037 39.321C79.992 39.3968 79.9063 39.4985 79.8464 39.6262C79.7906 39.7498 79.7627 39.8874 79.7627 40.0389H79.1824C79.1864 39.7518 79.2482 39.5085 79.3678 39.3091C79.4875 39.1097 79.649 38.9581 79.8524 38.8544C80.0598 38.7507 80.2911 38.6989 80.5464 38.6989C80.8136 38.6989 81.0449 38.7487 81.2403 38.8484C81.4358 38.9442 81.5873 39.0857 81.695 39.2732C81.8027 39.4566 81.8565 39.682 81.8565 39.9492C81.8565 40.1406 81.8186 40.3321 81.7429 40.5235C81.6671 40.711 81.5634 40.8944 81.4318 41.0739C81.3042 41.2534 81.1606 41.4269 81.001 41.5944C80.8415 41.7579 80.676 41.9134 80.5045 42.061C80.337 42.2086 80.1755 42.3422 80.0199 42.4618H81.9881V42.9584H79.1584Z" fill="#191B25"/>
<path d="M84.5107 43.0275V41.6569H84.7173L84.7282 41.8962C84.7717 41.811 84.8334 41.7449 84.9131 41.6977C84.9947 41.6488 85.0872 41.6243 85.1905 41.6243C85.2974 41.6243 85.3899 41.6461 85.4679 41.6896C85.5458 41.7313 85.6065 41.7956 85.65 41.8826C85.6936 41.9678 85.7153 42.0766 85.7153 42.209V43.0275H85.4869V42.2334C85.4869 42.0957 85.4561 41.9923 85.3944 41.9234C85.3346 41.8545 85.2494 41.8201 85.1388 41.8201C85.0627 41.8201 84.9947 41.8391 84.9349 41.8772C84.875 41.9135 84.827 41.9669 84.7908 42.0376C84.7563 42.1065 84.7391 42.1926 84.7391 42.296V43.0275H84.5107ZM86.6133 43.6583C86.49 43.6583 86.3803 43.642 86.2842 43.6094C86.19 43.5786 86.1165 43.5305 86.064 43.4653C86.0114 43.4 85.9851 43.3193 85.9851 43.2233C85.9851 43.1816 85.9933 43.1371 86.0096 43.09C86.0277 43.0429 86.0576 42.9966 86.0993 42.9513C86.1428 42.906 86.2036 42.8652 86.2815 42.829L86.4392 42.9214C86.3432 42.9613 86.2806 43.0066 86.2516 43.0574C86.2226 43.11 86.2081 43.158 86.2081 43.2015C86.2081 43.2613 86.2253 43.3112 86.2598 43.3511C86.2942 43.3909 86.3422 43.4209 86.4039 43.4408C86.4655 43.4607 86.5353 43.4707 86.6133 43.4707C86.6912 43.4707 86.7583 43.4598 86.8145 43.4381C86.8707 43.4163 86.9142 43.3855 86.945 43.3456C86.9758 43.3057 86.9913 43.2586 86.9913 43.2042C86.9913 43.1408 86.9677 43.0873 86.9206 43.0438C86.8734 43.0021 86.7837 42.9776 86.6513 42.9704C86.5444 42.9631 86.4546 42.9531 86.3821 42.9404C86.3096 42.9278 86.2498 42.9133 86.2027 42.8969C86.1555 42.8788 86.1156 42.8589 86.083 42.8371C86.0522 42.8154 86.0241 42.7927 85.9987 42.7691V42.7066L86.2625 42.4455L86.461 42.5162L86.1891 42.761L86.2244 42.6658C86.2444 42.6803 86.2634 42.6939 86.2815 42.7066C86.2996 42.7193 86.3241 42.7302 86.3549 42.7392C86.3858 42.7483 86.4284 42.7564 86.4827 42.7637C86.5389 42.7709 86.6124 42.7782 86.703 42.7854C86.8281 42.7945 86.9278 42.8163 87.0021 42.8507C87.0783 42.8852 87.1327 42.9314 87.1653 42.9894C87.1997 43.0474 87.217 43.1163 87.217 43.1961C87.217 43.274 87.1952 43.3474 87.1517 43.4163C87.11 43.487 87.0447 43.545 86.9559 43.5904C86.8671 43.6357 86.7529 43.6583 86.6133 43.6583ZM86.6106 42.5978C86.4963 42.5978 86.3984 42.5761 86.3169 42.5326C86.2371 42.489 86.1764 42.431 86.1347 42.3585C86.093 42.2842 86.0721 42.2017 86.0721 42.1111C86.0721 42.0204 86.093 41.9388 86.1347 41.8663C86.1782 41.7938 86.2398 41.7358 86.3196 41.6923C86.3994 41.647 86.4963 41.6243 86.6106 41.6243C86.7248 41.6243 86.8218 41.647 86.9015 41.6923C86.9813 41.7358 87.042 41.7938 87.0837 41.8663C87.1254 41.9388 87.1463 42.0204 87.1463 42.1111C87.1463 42.2017 87.1254 42.2842 87.0837 42.3585C87.042 42.431 86.9813 42.489 86.9015 42.5326C86.8218 42.5761 86.7248 42.5978 86.6106 42.5978ZM86.6106 42.4102C86.7084 42.4102 86.7855 42.3848 86.8417 42.334C86.8979 42.2833 86.926 42.209 86.926 42.1111C86.926 42.015 86.8979 41.9416 86.8417 41.8908C86.7855 41.84 86.7084 41.8147 86.6106 41.8147C86.5145 41.8147 86.4365 41.84 86.3767 41.8908C86.3187 41.9416 86.2897 42.015 86.2897 42.1111C86.2897 42.209 86.3187 42.2833 86.3767 42.334C86.4347 42.3848 86.5127 42.4102 86.6106 42.4102ZM86.8335 41.85L86.7656 41.6569H87.3257V41.8283L86.8335 41.85ZM87.4742 43.2858L88.1568 40.9499H88.3825L87.6999 43.2858H87.4742ZM89.1296 43.0601C88.9972 43.0601 88.8812 43.0293 88.7815 42.9676C88.6818 42.9042 88.6047 42.8181 88.5503 42.7093C88.496 42.6005 88.4688 42.4773 88.4688 42.3395C88.4688 42.2017 88.496 42.0793 88.5503 41.9724C88.6047 41.8636 88.6818 41.7784 88.7815 41.7168C88.883 41.6551 88.9999 41.6243 89.1323 41.6243C89.2447 41.6243 89.3426 41.647 89.426 41.6923C89.5112 41.7376 89.5764 41.8011 89.6217 41.8826V41.0696H89.8502V43.0275H89.6435L89.6245 42.8018C89.5955 42.8471 89.5583 42.8897 89.513 42.9296C89.4677 42.9676 89.4133 42.9994 89.3498 43.0247C89.2864 43.0483 89.2129 43.0601 89.1296 43.0601ZM89.1567 42.8616C89.2474 42.8616 89.3272 42.8398 89.396 42.7963C89.4649 42.7528 89.5184 42.693 89.5565 42.6169C89.5946 42.5389 89.6136 42.4473 89.6136 42.3422C89.6136 42.2389 89.5946 42.1482 89.5565 42.0703C89.5184 41.9923 89.4649 41.9316 89.396 41.8881C89.3272 41.8446 89.2474 41.8228 89.1567 41.8228C89.0679 41.8228 88.9891 41.8446 88.9202 41.8881C88.8513 41.9316 88.7978 41.9923 88.7597 42.0703C88.7217 42.1482 88.7026 42.2389 88.7026 42.3422C88.7026 42.4473 88.7217 42.5389 88.7597 42.6169C88.7978 42.693 88.8513 42.7528 88.9202 42.7963C88.9891 42.8398 89.0679 42.8616 89.1567 42.8616ZM90.2443 43.0275V41.124H90.4728V42.8453H91.3592V43.0275H90.2443Z" fill="#434656"/>
<g clip-path="url(#clip1_2632_1125)">
<rect x="73.752" y="46.8608" width="52.4954" height="0.792051" rx="0.396025" fill="#E2E8F0"/>
<rect x="73.752" y="46.8605" width="23.6229" height="0.792051" fill="#003EC7"/>
</g>
<rect x="134.168" y="30" width="56" height="20.8211" rx="3.1682" fill="#CFCFCF"/>
<path d="M137.529 35.1682V33.2647H138.745V33.5285H137.855V34.0859H138.581V34.3443H137.855V35.1682H137.529ZM139.143 35.1682V33.2647H139.825C139.976 33.2647 140.1 33.291 140.198 33.3436C140.298 33.3943 140.371 33.4632 140.418 33.5502C140.467 33.6354 140.492 33.7324 140.492 33.8412C140.492 33.9427 140.468 34.037 140.421 34.124C140.374 34.211 140.3 34.2808 140.201 34.3334C140.101 34.386 139.973 34.4122 139.817 34.4122H139.469V35.1682H139.143ZM140.135 35.1682L139.736 34.328H140.089L140.508 35.1682H140.135ZM139.469 34.1702H139.804C139.925 34.1702 140.014 34.1412 140.07 34.0832C140.128 34.0234 140.157 33.9454 140.157 33.8494C140.157 33.7551 140.129 33.6799 140.073 33.6237C140.017 33.5656 139.927 33.5366 139.804 33.5366H139.469V34.1702ZM140.948 35.1682V33.2647H142.177V33.5285H141.274V34.0751H142.096V34.3334H141.274V34.9044H142.177V35.1682H140.948ZM142.639 35.1682V33.2647H143.868V33.5285H142.965V34.0751H143.786V34.3334H142.965V34.9044H143.868V35.1682H142.639ZM145.556 35.1682V33.5285H144.996V33.2647H146.439V33.5285H145.879V35.1682H145.556ZM147.407 35.2008C147.284 35.2008 147.172 35.1791 147.07 35.1356C146.969 35.0903 146.887 35.0223 146.825 34.9316C146.766 34.8392 146.734 34.7232 146.73 34.5836H147.051C147.053 34.647 147.067 34.705 147.095 34.7576C147.124 34.8084 147.164 34.8491 147.217 34.88C147.27 34.909 147.333 34.9235 147.407 34.9235C147.478 34.9235 147.538 34.9099 147.587 34.8827C147.638 34.8555 147.676 34.8183 147.701 34.7712C147.726 34.7241 147.739 34.6715 147.739 34.6135C147.739 34.5428 147.722 34.4848 147.687 34.4394C147.653 34.3923 147.606 34.357 147.546 34.3334C147.486 34.3098 147.418 34.298 147.342 34.298H147.201V34.0288H147.342C147.442 34.0288 147.523 34.0062 147.587 33.9608C147.65 33.9137 147.682 33.8457 147.682 33.7569C147.682 33.6826 147.658 33.6227 147.609 33.5774C147.561 33.5321 147.493 33.5094 147.405 33.5094C147.312 33.5094 147.239 33.5366 147.184 33.591C147.132 33.6454 147.103 33.7125 147.097 33.7923H146.777C146.782 33.678 146.811 33.5792 146.864 33.4958C146.918 33.4106 146.991 33.3454 147.084 33.3001C147.176 33.2547 147.284 33.2321 147.407 33.2321C147.536 33.2321 147.645 33.2547 147.734 33.3001C147.823 33.3454 147.89 33.4061 147.935 33.4823C147.982 33.5584 148.006 33.6418 148.006 33.7324C148.006 33.8031 147.992 33.8675 147.965 33.9255C147.938 33.9835 147.9 34.0325 147.853 34.0723C147.808 34.1104 147.755 34.1385 147.693 34.1566C147.764 34.1711 147.826 34.1992 147.881 34.2409C147.937 34.2826 147.98 34.3361 148.011 34.4014C148.044 34.4648 148.06 34.5391 148.06 34.6244C148.06 34.7277 148.035 34.8238 147.984 34.9126C147.935 34.9996 147.862 35.0694 147.764 35.122C147.668 35.1746 147.549 35.2008 147.407 35.2008Z" fill="#434656"/>
<path d="M139.101 43.0303C138.834 43.0303 138.588 42.9824 138.365 42.8867C138.146 42.787 137.97 42.6394 137.838 42.444C137.711 42.2446 137.643 41.9953 137.635 41.6962H138.233C138.237 41.8478 138.273 41.9854 138.341 42.109C138.409 42.2326 138.507 42.3323 138.634 42.4081C138.766 42.4799 138.921 42.5158 139.101 42.5158C139.28 42.5158 139.43 42.4819 139.549 42.4141C139.673 42.3463 139.765 42.2546 139.825 42.1389C139.888 42.0232 139.92 41.8936 139.92 41.75C139.92 41.5706 139.876 41.425 139.789 41.3133C139.705 41.2017 139.589 41.1179 139.442 41.0621C139.298 41.0062 139.137 40.9783 138.957 40.9783H138.646V40.4758H138.957C139.208 40.4758 139.408 40.418 139.555 40.3023C139.707 40.1866 139.783 40.0231 139.783 39.8117C139.783 39.6362 139.725 39.4927 139.609 39.381C139.494 39.2693 139.324 39.2135 139.101 39.2135C138.877 39.2135 138.7 39.2773 138.568 39.4049C138.441 39.5325 138.369 39.6941 138.353 39.8895H137.761C137.773 39.6542 137.834 39.4468 137.946 39.2673C138.062 39.0839 138.217 38.9443 138.413 38.8486C138.612 38.7488 138.842 38.699 139.101 38.699C139.38 38.699 139.613 38.7488 139.801 38.8486C139.992 38.9443 140.136 39.0739 140.231 39.2374C140.331 39.4009 140.381 39.5804 140.381 39.7758C140.381 39.9234 140.353 40.061 140.297 40.1886C140.241 40.3123 140.162 40.4199 140.058 40.5117C139.954 40.6034 139.829 40.6692 139.681 40.7091C139.841 40.741 139.984 40.8028 140.112 40.8946C140.239 40.9863 140.339 41.1059 140.411 41.2535C140.483 41.3971 140.519 41.5646 140.519 41.756C140.519 41.9834 140.465 42.1947 140.357 42.3902C140.249 42.5816 140.09 42.7371 139.878 42.8568C139.671 42.9725 139.412 43.0303 139.101 43.0303ZM141.534 42.9884C141.418 42.9884 141.323 42.9525 141.247 42.8807C141.175 42.8049 141.139 42.7152 141.139 42.6115C141.139 42.5038 141.175 42.4141 141.247 42.3423C141.323 42.2665 141.418 42.2286 141.534 42.2286C141.65 42.2286 141.744 42.2665 141.815 42.3423C141.887 42.4141 141.923 42.5038 141.923 42.6115C141.923 42.7152 141.887 42.8049 141.815 42.8807C141.744 42.9525 141.65 42.9884 141.534 42.9884ZM142.526 42.9585V42.5278C142.805 42.3124 143.071 42.095 143.322 41.8757C143.573 41.6563 143.797 41.439 143.992 41.2236C144.191 41.0042 144.347 40.7909 144.459 40.5835C144.57 40.3721 144.626 40.1707 144.626 39.9792C144.626 39.8436 144.602 39.718 144.554 39.6023C144.506 39.4867 144.431 39.393 144.327 39.3212C144.223 39.2454 144.082 39.2075 143.902 39.2075C143.731 39.2075 143.587 39.2454 143.471 39.3212C143.36 39.3969 143.274 39.4986 143.214 39.6263C143.158 39.7499 143.13 39.8875 143.13 40.0391H142.55C142.554 39.7519 142.616 39.5086 142.736 39.3092C142.855 39.1098 143.017 38.9582 143.22 38.8545C143.428 38.7508 143.659 38.699 143.914 38.699C144.181 38.699 144.413 38.7488 144.608 38.8486C144.804 38.9443 144.955 39.0859 145.063 39.2733C145.171 39.4568 145.224 39.6821 145.224 39.9493C145.224 40.1408 145.186 40.3322 145.111 40.5236C145.035 40.7111 144.931 40.8946 144.8 41.074C144.672 41.2535 144.528 41.427 144.369 41.5945C144.209 41.758 144.044 41.9136 143.872 42.0611C143.705 42.2087 143.543 42.3423 143.388 42.462H145.356V42.9585H142.526Z" fill="#191B25"/>
<path d="M147.368 43.6257V41.6569H147.575L147.594 41.8799C147.623 41.8364 147.66 41.7956 147.705 41.7576C147.751 41.7177 147.805 41.6859 147.868 41.6624C147.932 41.637 148.004 41.6243 148.086 41.6243C148.22 41.6243 148.336 41.656 148.434 41.7195C148.534 41.7829 148.611 41.869 148.665 41.9778C148.721 42.0848 148.749 42.2071 148.749 42.3449C148.749 42.4827 148.721 42.606 148.665 42.7147C148.611 42.8217 148.534 42.906 148.434 42.9676C148.334 43.0293 148.217 43.0601 148.083 43.0601C147.973 43.0601 147.875 43.0374 147.79 42.9921C147.706 42.9468 147.642 42.8833 147.597 42.8018V43.6257H147.368ZM148.059 42.8616C148.148 42.8616 148.226 42.8398 148.295 42.7963C148.364 42.7528 148.418 42.693 148.456 42.6169C148.496 42.5389 148.516 42.4473 148.516 42.3422C148.516 42.2389 148.496 42.1482 148.456 42.0703C148.418 41.9923 148.364 41.9316 148.295 41.8881C148.226 41.8446 148.148 41.8228 148.059 41.8228C147.968 41.8228 147.888 41.8446 147.819 41.8881C147.751 41.9316 147.697 41.9923 147.659 42.0703C147.621 42.1482 147.602 42.2389 147.602 42.3422C147.602 42.4473 147.621 42.5389 147.659 42.6169C147.697 42.693 147.751 42.7528 147.819 42.7963C147.888 42.8398 147.968 42.8616 148.059 42.8616ZM149.553 43.6583C149.43 43.6583 149.32 43.642 149.224 43.6094C149.13 43.5786 149.056 43.5305 149.004 43.4653C148.951 43.4 148.925 43.3193 148.925 43.2233C148.925 43.1816 148.933 43.1371 148.949 43.09C148.967 43.0429 148.997 42.9966 149.039 42.9513C149.083 42.906 149.143 42.8652 149.221 42.829L149.379 42.9214C149.283 42.9613 149.22 43.0066 149.191 43.0574C149.162 43.11 149.148 43.158 149.148 43.2015C149.148 43.2613 149.165 43.3112 149.2 43.3511C149.234 43.3909 149.282 43.4209 149.344 43.4408C149.405 43.4607 149.475 43.4707 149.553 43.4707C149.631 43.4707 149.698 43.4598 149.754 43.4381C149.81 43.4163 149.854 43.3855 149.885 43.3456C149.916 43.3057 149.931 43.2586 149.931 43.2042C149.931 43.1408 149.907 43.0873 149.86 43.0438C149.813 43.0021 149.723 42.9776 149.591 42.9704C149.484 42.9631 149.394 42.9531 149.322 42.9404C149.249 42.9278 149.19 42.9133 149.142 42.8969C149.095 42.8788 149.055 42.8589 149.023 42.8371C148.992 42.8154 148.964 42.7927 148.938 42.7691V42.7066L149.202 42.4455L149.401 42.5162L149.129 42.761L149.164 42.6658C149.184 42.6803 149.203 42.6939 149.221 42.7066C149.239 42.7193 149.264 42.7302 149.295 42.7392C149.326 42.7483 149.368 42.7564 149.422 42.7637C149.479 42.7709 149.552 42.7782 149.643 42.7854C149.768 42.7945 149.868 42.8163 149.942 42.8507C150.018 42.8852 150.072 42.9314 150.105 42.9894C150.139 43.0474 150.157 43.1163 150.157 43.1961C150.157 43.274 150.135 43.3474 150.091 43.4163C150.05 43.487 149.984 43.545 149.896 43.5904C149.807 43.6357 149.693 43.6583 149.553 43.6583ZM149.55 42.5978C149.436 42.5978 149.338 42.5761 149.257 42.5326C149.177 42.489 149.116 42.431 149.074 42.3585C149.033 42.2842 149.012 42.2017 149.012 42.1111C149.012 42.0204 149.033 41.9388 149.074 41.8663C149.118 41.7938 149.18 41.7358 149.259 41.6923C149.339 41.647 149.436 41.6243 149.55 41.6243C149.665 41.6243 149.761 41.647 149.841 41.6923C149.921 41.7358 149.982 41.7938 150.023 41.8663C150.065 41.9388 150.086 42.0204 150.086 42.1111C150.086 42.2017 150.065 42.2842 150.023 42.3585C149.982 42.431 149.921 42.489 149.841 42.5326C149.761 42.5761 149.665 42.5978 149.55 42.5978ZM149.55 42.4102C149.648 42.4102 149.725 42.3848 149.781 42.334C149.838 42.2833 149.866 42.209 149.866 42.1111C149.866 42.015 149.838 41.9416 149.781 41.8908C149.725 41.84 149.648 41.8147 149.55 41.8147C149.454 41.8147 149.376 41.84 149.316 41.8908C149.258 41.9416 149.229 42.015 149.229 42.1111C149.229 42.209 149.258 42.2833 149.316 42.334C149.374 42.3848 149.452 42.4102 149.55 42.4102ZM149.773 41.85L149.705 41.6569H150.265V41.8283L149.773 41.85ZM150.414 43.2858L151.097 40.9499H151.322L150.64 43.2858H150.414ZM151.545 43.0275V41.6569H151.752L151.766 41.8527C151.809 41.782 151.867 41.7267 151.94 41.6869C152.014 41.6452 152.095 41.6243 152.182 41.6243C152.252 41.6243 152.316 41.6343 152.372 41.6542C152.43 41.6724 152.481 41.7014 152.524 41.7412C152.568 41.7793 152.603 41.8283 152.63 41.8881C152.677 41.8047 152.742 41.7403 152.823 41.695C152.907 41.6479 152.996 41.6243 153.09 41.6243C153.195 41.6243 153.287 41.6461 153.364 41.6896C153.444 41.7313 153.505 41.7956 153.547 41.8826C153.59 41.9678 153.612 42.0766 153.612 42.209V43.0275H153.386V42.2334C153.386 42.0957 153.358 41.9923 153.302 41.9234C153.246 41.8545 153.167 41.8201 153.065 41.8201C152.995 41.8201 152.931 41.8391 152.875 41.8772C152.819 41.9135 152.774 41.9669 152.742 42.0376C152.709 42.1083 152.693 42.1954 152.693 42.2987V43.0275H152.464V42.2334C152.464 42.0957 152.436 41.9923 152.38 41.9234C152.324 41.8545 152.244 41.8201 152.141 41.8201C152.072 41.8201 152.009 41.8391 151.953 41.8772C151.899 41.9135 151.855 41.9669 151.823 42.0376C151.79 42.1083 151.774 42.1954 151.774 42.2987V43.0275H151.545ZM153.981 43.0275V41.124H154.209V42.8453H155.096V43.0275H153.981Z" fill="#434656"/>
<g clip-path="url(#clip2_2632_1125)">
<rect x="137.336" y="46.8608" width="49.6636" height="0.792051" rx="0.396025" fill="#E2E8F0"/>
<rect x="137.336" y="46.8605" width="27.3129" height="0.792051" fill="#003EC7"/>
</g>
<defs>
<linearGradient id="paint0_linear_2632_1125" x1="-4.26231e-08" y1="30" x2="198.619" y2="7.30402" gradientUnits="userSpaceOnUse">
<stop offset="0.673077" stop-color="#EDEDED"/>
<stop offset="1" stop-color="#305269"/>
</linearGradient>
<clipPath id="clip0_2632_1125">
<rect x="10.168" y="46.8608" width="49.6636" height="0.792051" rx="0.396025" fill="white"/>
</clipPath>
<clipPath id="clip1_2632_1125">
<rect x="73.752" y="46.8608" width="52.4954" height="0.792051" rx="0.396025" fill="white"/>
</clipPath>
<clipPath id="clip2_2632_1125">
<rect x="137.336" y="46.8608" width="49.6636" height="0.792051" rx="0.396025" fill="white"/>
</clipPath>
</defs>
</svg>
