<svg width="442" height="190" viewBox="0 0 442 190" fill="none" xmlns="http://www.w3.org/2000/svg">
<path d="M26.5195 15.1519H424.32" stroke="#F1F5F9" stroke-width="0.441998" stroke-dasharray="1.77 1.77"/>
<path d="M26.5195 50.5115H424.32" stroke="#F1F5F9" stroke-width="0.441998" stroke-dasharray="1.77 1.77"/>
<path d="M26.5195 85.8716H424.32" stroke="#F1F5F9" stroke-width="0.441998" stroke-dasharray="1.77 1.77"/>
<path d="M26.5195 121.231H424.32" stroke="#F1F5F9" stroke-width="0.441998" stroke-dasharray="1.77 1.77"/>
<path d="M26.5195 156.591H424.32" stroke="#F1F5F9" stroke-width="0.441998" stroke-dasharray="1.77 1.77"/>
<path d="M41.1114 165.69H41.5785V168.447C41.5785 168.694 41.5333 168.903 41.4429 169.075C41.3525 169.247 41.225 169.377 41.0605 169.466C40.8961 169.556 40.7021 169.6 40.4785 169.6C40.2676 169.6 40.0799 169.562 39.9154 169.485C39.7509 169.407 39.6215 169.297 39.5274 169.154C39.4332 169.011 39.3861 168.84 39.3861 168.643H39.8457C39.8457 168.753 39.8727 168.848 39.9267 168.93C39.9819 169.01 40.0573 169.073 40.1527 169.118C40.2481 169.163 40.3567 169.186 40.4785 169.186C40.6129 169.186 40.7272 169.157 40.8213 169.101C40.9155 169.044 40.9871 168.962 41.0361 168.852C41.0863 168.742 41.1114 168.607 41.1114 168.447V165.69ZM42.6728 169.547H42.1831L43.5995 165.69H44.0817L45.4981 169.547H45.0084L43.8557 166.3H43.8255L42.6728 169.547ZM42.8537 168.041H44.8276V168.455H42.8537V168.041ZM49.1578 165.69V169.547H48.7057L46.6037 166.519H46.5661V169.547H46.0989V165.69H46.551L48.6605 168.726H48.6982V165.69H49.1578Z" fill="#64748B"/>
<path d="M92.759 169.547V165.69H95.072V166.104H93.2261V167.408H94.8987V167.822H93.2261V169.547H92.759ZM95.872 169.547V165.69H98.2V166.104H96.3391V167.408H98.0795V167.822H96.3391V169.133H98.2302V169.547H95.872ZM99.042 169.547V165.69H100.391C100.659 165.69 100.881 165.736 101.055 165.829C101.23 165.921 101.36 166.045 101.445 166.2C101.531 166.355 101.573 166.526 101.573 166.715C101.573 166.88 101.544 167.017 101.485 167.125C101.427 167.233 101.351 167.319 101.255 167.381C101.161 167.444 101.059 167.491 100.948 167.521V167.558C101.066 167.566 101.185 167.607 101.304 167.683C101.423 167.758 101.523 167.866 101.604 168.007C101.684 168.147 101.724 168.319 101.724 168.523C101.724 168.716 101.68 168.89 101.592 169.044C101.504 169.199 101.366 169.321 101.176 169.412C100.986 169.502 100.74 169.547 100.436 169.547H99.042ZM99.5091 169.133H100.436C100.741 169.133 100.957 169.074 101.086 168.956C101.215 168.837 101.28 168.692 101.28 168.523C101.28 168.392 101.246 168.272 101.18 168.161C101.113 168.049 101.018 167.96 100.895 167.894C100.772 167.826 100.627 167.792 100.458 167.792H99.5091V169.133ZM99.5091 167.385H100.375C100.516 167.385 100.643 167.357 100.756 167.302C100.87 167.247 100.961 167.169 101.027 167.069C101.095 166.968 101.129 166.85 101.129 166.715C101.129 166.545 101.07 166.401 100.952 166.283C100.834 166.164 100.647 166.104 100.391 166.104H99.5091V167.385Z" fill="#64748B"/>
<path d="M144.934 165.69H145.491L146.802 168.892H146.847L148.158 165.69H148.716V169.547H148.279V166.617H148.241L147.036 169.547H146.614L145.408 166.617H145.371V169.547H144.934V165.69ZM149.811 169.547H149.321L150.737 165.69H151.219L152.636 169.547H152.146L150.993 166.3H150.963L149.811 169.547ZM149.991 168.041H151.965V168.455H149.991V168.041ZM153.237 169.547V165.69H154.54C154.841 165.69 155.089 165.741 155.282 165.844C155.476 165.946 155.619 166.086 155.712 166.264C155.805 166.443 155.851 166.645 155.851 166.873C155.851 167.1 155.805 167.302 155.712 167.477C155.619 167.653 155.476 167.791 155.284 167.892C155.092 167.991 154.846 168.041 154.548 168.041H153.493V167.619H154.533C154.739 167.619 154.904 167.589 155.03 167.528C155.157 167.468 155.248 167.383 155.305 167.272C155.363 167.16 155.391 167.027 155.391 166.873C155.391 166.718 155.363 166.583 155.305 166.468C155.247 166.352 155.155 166.263 155.028 166.2C154.901 166.136 154.733 166.104 154.525 166.104H153.704V169.547H153.237ZM155.052 167.815L156.002 169.547H155.459L154.525 167.815H155.052Z" fill="#64748B"/>
<path d="M198.969 169.547H198.479L199.896 165.69H200.378L201.794 169.547H201.305L200.152 166.3H200.122L198.969 169.547ZM199.15 168.041H201.124V168.455H199.15V168.041ZM202.395 169.547V165.69H203.699C204.001 165.69 204.249 165.745 204.441 165.854C204.634 165.962 204.777 166.108 204.87 166.293C204.963 166.477 205.009 166.683 205.009 166.91C205.009 167.138 204.963 167.344 204.87 167.53C204.778 167.716 204.637 167.864 204.444 167.975C204.252 168.084 204.006 168.138 203.706 168.138H202.772V167.724H203.691C203.898 167.724 204.065 167.688 204.19 167.617C204.316 167.545 204.407 167.449 204.463 167.327C204.521 167.204 204.55 167.065 204.55 166.91C204.55 166.756 204.521 166.618 204.463 166.496C204.407 166.374 204.315 166.279 204.188 166.21C204.061 166.139 203.893 166.104 203.683 166.104H202.862V169.547H202.395ZM205.762 169.547V165.69H207.065C207.367 165.69 207.614 165.741 207.807 165.844C208.001 165.946 208.144 166.086 208.237 166.264C208.33 166.443 208.376 166.645 208.376 166.873C208.376 167.1 208.33 167.302 208.237 167.477C208.144 167.653 208.001 167.791 207.809 167.892C207.617 167.991 207.372 168.041 207.073 168.041H206.018V167.619H207.058C207.264 167.619 207.429 167.589 207.555 167.528C207.682 167.468 207.774 167.383 207.83 167.272C207.888 167.16 207.917 167.027 207.917 166.873C207.917 166.718 207.888 166.583 207.83 166.468C207.772 166.352 207.68 166.263 207.553 166.2C207.426 166.136 207.259 166.104 207.05 166.104H206.229V169.547H205.762ZM207.578 167.815L208.527 169.547H207.984L207.05 167.815H207.578Z" fill="#64748B"/>
<path d="M251.364 165.69H251.922L253.232 168.892H253.278L254.589 165.69H255.146V169.547H254.709V166.617H254.671L253.466 169.547H253.044L251.839 166.617H251.801V169.547H251.364V165.69ZM256.241 169.547H255.751L257.168 165.69H257.65L259.066 169.547H258.576L257.424 166.3H257.394L256.241 169.547ZM256.422 168.041H258.396V168.455H256.422V168.041ZM258.942 165.69H259.477L260.547 167.491H260.592L261.662 165.69H262.197L260.803 167.958V169.547H260.336V167.958L258.942 165.69Z" fill="#64748B"/>
<path d="M305.448 165.69H305.915V168.447C305.915 168.694 305.87 168.903 305.779 169.075C305.689 169.247 305.561 169.377 305.397 169.466C305.232 169.556 305.038 169.6 304.815 169.6C304.604 169.6 304.416 169.562 304.252 169.485C304.087 169.407 303.958 169.297 303.864 169.154C303.769 169.011 303.722 168.84 303.722 168.643H304.182C304.182 168.753 304.209 168.848 304.263 168.93C304.318 169.01 304.394 169.073 304.489 169.118C304.584 169.163 304.693 169.186 304.815 169.186C304.949 169.186 305.063 169.157 305.158 169.101C305.252 169.044 305.323 168.962 305.372 168.852C305.423 168.742 305.448 168.607 305.448 168.447V165.69ZM309.382 165.69H309.849V168.244C309.849 168.508 309.787 168.743 309.663 168.95C309.54 169.156 309.366 169.319 309.141 169.438C308.916 169.556 308.653 169.615 308.35 169.615C308.048 169.615 307.784 169.556 307.559 169.438C307.334 169.319 307.16 169.156 307.035 168.95C306.912 168.743 306.851 168.508 306.851 168.244V165.69H307.318V168.206C307.318 168.395 307.359 168.562 307.442 168.709C307.525 168.855 307.643 168.97 307.796 169.054C307.951 169.137 308.135 169.178 308.35 169.178C308.565 169.178 308.749 169.137 308.904 169.054C309.058 168.97 309.176 168.855 309.258 168.709C309.341 168.562 309.382 168.395 309.382 168.206V165.69ZM313.841 165.69V169.547H313.389L311.287 166.519H311.249V169.547H310.782V165.69H311.234L313.344 168.726H313.381V165.69H313.841Z" fill="#64748B"/>
<path d="M359.404 165.69H359.871V168.447C359.871 168.694 359.826 168.903 359.735 169.075C359.645 169.247 359.517 169.377 359.353 169.466C359.188 169.556 358.994 169.6 358.771 169.6C358.56 169.6 358.372 169.562 358.208 169.485C358.043 169.407 357.914 169.297 357.82 169.154C357.726 169.011 357.679 168.84 357.679 168.643H358.138C358.138 168.753 358.165 168.848 358.219 168.93C358.274 169.01 358.35 169.073 358.445 169.118C358.541 169.163 358.649 169.186 358.771 169.186C358.905 169.186 359.02 169.157 359.114 169.101C359.208 169.044 359.28 168.962 359.328 168.852C359.379 168.742 359.404 168.607 359.404 168.447V165.69ZM363.338 165.69H363.806V168.244C363.806 168.508 363.743 168.743 363.619 168.95C363.496 169.156 363.322 169.319 363.097 169.438C362.873 169.556 362.609 169.615 362.306 169.615C362.004 169.615 361.74 169.556 361.515 169.438C361.29 169.319 361.116 169.156 360.992 168.95C360.869 168.743 360.807 168.508 360.807 168.244V165.69H361.274V168.206C361.274 168.395 361.316 168.562 361.398 168.709C361.481 168.855 361.599 168.97 361.753 169.054C361.907 169.137 362.092 169.178 362.306 169.178C362.521 169.178 362.706 169.137 362.86 169.054C363.015 168.97 363.133 168.855 363.214 168.709C363.297 168.562 363.338 168.395 363.338 168.206V165.69ZM364.738 169.547V165.69H365.206V169.133H366.999V169.547H364.738Z" fill="#64748B"/>
<path d="M410.631 169.547H410.141L411.558 165.69H412.04L413.456 169.547H412.967L411.814 166.3H411.784L410.631 169.547ZM410.812 168.041H412.786V168.455H410.812V168.041ZM416.589 165.69H417.056V168.244C417.056 168.508 416.994 168.743 416.869 168.95C416.746 169.156 416.572 169.319 416.347 169.438C416.123 169.556 415.859 169.615 415.556 169.615C415.254 169.615 414.99 169.556 414.765 169.438C414.541 169.319 414.366 169.156 414.242 168.95C414.119 168.743 414.057 168.508 414.057 168.244V165.69H414.524V168.206C414.524 168.395 414.566 168.562 414.649 168.709C414.731 168.855 414.849 168.97 415.003 169.054C415.157 169.137 415.342 169.178 415.556 169.178C415.771 169.178 415.956 169.137 416.11 169.054C416.265 168.97 416.383 168.855 416.464 168.709C416.547 168.562 416.589 168.395 416.589 168.206V165.69ZM420.625 166.895C420.584 166.769 420.529 166.655 420.462 166.554C420.395 166.453 420.315 166.366 420.222 166.295C420.131 166.223 420.026 166.168 419.91 166.131C419.793 166.093 419.665 166.074 419.525 166.074C419.297 166.074 419.089 166.133 418.902 166.251C418.715 166.369 418.566 166.543 418.456 166.773C418.345 167.003 418.29 167.285 418.29 167.619C418.29 167.953 418.346 168.235 418.457 168.464C418.569 168.694 418.721 168.868 418.911 168.986C419.102 169.104 419.317 169.163 419.556 169.163C419.777 169.163 419.971 169.116 420.139 169.022C420.309 168.926 420.441 168.792 420.535 168.619C420.63 168.444 420.678 168.239 420.678 168.003L420.821 168.033H419.661V167.619H421.13V168.033C421.13 168.351 421.062 168.627 420.927 168.862C420.792 169.097 420.607 169.279 420.369 169.408C420.133 169.536 419.862 169.6 419.556 169.6C419.214 169.6 418.914 169.52 418.655 169.359C418.398 169.198 418.197 168.97 418.053 168.673C417.909 168.377 417.838 168.025 417.838 167.619C417.838 167.314 417.879 167.039 417.96 166.796C418.043 166.551 418.16 166.342 418.311 166.17C418.461 165.998 418.64 165.866 418.845 165.775C419.051 165.683 419.278 165.637 419.525 165.637C419.729 165.637 419.918 165.668 420.094 165.729C420.271 165.79 420.429 165.876 420.567 165.988C420.706 166.098 420.823 166.23 420.915 166.385C421.008 166.538 421.072 166.708 421.108 166.895H420.625Z" fill="#64748B"/>
<path d="M414.777 155.889H44.9014V130.766C57.9074 130.612 64.5604 126.181 71.1084 121.816C77.7034 117.419 84.1904 113.093 97.2393 113.093C110.393 113.093 116.942 115.279 123.537 117.477C130.202 119.699 136.913 121.933 150.279 121.933C157.138 121.933 162.28 119.064 166.522 114.822C170.739 110.605 174.097 104.999 177.401 99.4927C180.727 93.9496 183.998 88.5051 188.069 84.4341C192.115 80.3889 196.918 77.7339 203.319 77.7339C216.841 77.7339 223.636 72.0653 230.289 66.521C236.896 61.0154 243.361 55.6343 256.359 55.6343C269.266 55.6343 275.706 63.1124 282.346 70.8589C288.966 78.5823 295.786 86.5737 309.399 86.5737C316.258 86.5737 321.4 83.7037 325.643 79.4614C329.859 75.2451 333.218 69.6399 336.521 64.1333C339.847 58.5903 343.119 53.1457 347.189 49.0747C351.235 45.0295 356.038 42.3735 362.439 42.3735C375.91 42.3735 382.684 37.8597 389.349 33.4165C395.824 29.0994 402.196 24.853 414.777 24.7007V155.889Z" fill="url(#paint0_linear_2620_1420)" stroke="#FF5A1F" stroke-width="1.40465"/>
<path opacity="0.5" d="M256.359 54.9319V156.591" stroke="#FF5A1F" stroke-width="0.883996" stroke-dasharray="2.65 1.77"/>
<path opacity="0.2" d="M256.361 60.2354C259.29 60.2354 261.665 57.8607 261.665 54.9314C261.665 52.0021 259.29 49.6274 256.361 49.6274C253.431 49.6274 251.057 52.0021 251.057 54.9314C251.057 57.8607 253.431 60.2354 256.361 60.2354Z" fill="#FF5A1F"/>
<path d="M256.36 57.1419C257.581 57.1419 258.57 56.1525 258.57 54.9319C258.57 53.7114 257.581 52.7219 256.36 52.7219C255.14 52.7219 254.15 53.7114 254.15 54.9319C254.15 56.1525 255.14 57.1419 256.36 57.1419Z" fill="white" stroke="#FF5A1F" stroke-width="1.32599"/>
<path d="M252.824 41.6719L256.36 45.2079L259.896 41.6719H252.824Z" fill="#1E293B"/>
<path d="M279.344 23.9917H233.376C231.423 23.9917 229.84 25.5748 229.84 27.5277V38.1356C229.84 40.0885 231.423 41.6716 233.376 41.6716H279.344C281.296 41.6716 282.88 40.0885 282.88 38.1356V27.5277C282.88 25.5748 281.296 23.9917 279.344 23.9917Z" fill="#1E293B"/>
<path d="M239.669 38.4222C238.932 38.4222 238.307 38.2868 237.793 38.0162C237.289 37.7455 236.883 37.3815 236.575 36.9242C236.277 36.4668 236.057 35.9582 235.917 35.3982C235.787 34.8288 235.721 34.2548 235.721 33.6762C235.721 32.5748 235.875 31.6228 236.183 30.8202C236.491 30.0175 236.935 29.3968 237.513 28.9581C238.092 28.5102 238.792 28.2862 239.613 28.2862C240.304 28.2862 240.887 28.4215 241.363 28.6921C241.839 28.9535 242.208 29.2988 242.469 29.7282C242.731 30.1575 242.885 30.6195 242.931 31.1141H241.167C241.093 30.7035 240.92 30.3908 240.649 30.1762C240.379 29.9522 240.029 29.8402 239.599 29.8402C239.198 29.8402 238.848 29.9615 238.549 30.2041C238.251 30.4468 238.017 30.8108 237.849 31.2962C237.691 31.7815 237.597 32.3928 237.569 33.1302C237.569 33.1395 237.569 33.1535 237.569 33.1722C237.569 33.1908 237.569 33.2048 237.569 33.2142C237.719 32.9622 237.915 32.7382 238.157 32.5422C238.4 32.3462 238.68 32.1922 238.997 32.0802C239.315 31.9682 239.651 31.9122 240.005 31.9122C240.547 31.9122 241.051 32.0428 241.517 32.3042C241.984 32.5655 242.362 32.9342 242.651 33.4102C242.941 33.8862 243.085 34.4508 243.085 35.1042C243.085 35.6922 242.941 36.2428 242.651 36.7562C242.371 37.2602 241.975 37.6662 241.461 37.9742C240.948 38.2728 240.351 38.4222 239.669 38.4222ZM239.557 36.7982C239.893 36.7982 240.187 36.7282 240.439 36.5882C240.701 36.4482 240.906 36.2568 241.055 36.0142C241.205 35.7622 241.279 35.4775 241.279 35.1602C241.279 34.8242 241.205 34.5348 241.055 34.2922C240.906 34.0495 240.701 33.8582 240.439 33.7182C240.178 33.5782 239.879 33.5082 239.543 33.5082C239.217 33.5082 238.923 33.5782 238.661 33.7182C238.4 33.8582 238.19 34.0542 238.031 34.3062C237.882 34.5488 237.807 34.8288 237.807 35.1462C237.807 35.4728 237.882 35.7622 238.031 36.0142C238.19 36.2568 238.4 36.4482 238.661 36.5882C238.932 36.7282 239.231 36.7982 239.557 36.7982ZM249.341 38.2542V36.4762H244.525V34.9782L249.089 28.4541H251.231V34.8382H252.505V36.4762H251.231V38.2542H249.341ZM246.541 34.8382H249.467V30.5402L246.541 34.8382ZM257.087 38.2542V32.2062H258.515L258.647 33.0102C258.839 32.7222 259.091 32.4942 259.403 32.3262C259.723 32.1502 260.087 32.0622 260.495 32.0622C260.799 32.0622 261.071 32.1021 261.311 32.1821C261.551 32.2622 261.763 32.3782 261.947 32.5302C262.139 32.6822 262.295 32.8742 262.415 33.1062C262.639 32.7782 262.931 32.5222 263.291 32.3382C263.651 32.1542 264.043 32.0622 264.467 32.0622C264.995 32.0622 265.435 32.1702 265.787 32.3862C266.139 32.5942 266.403 32.8982 266.579 33.2982C266.763 33.6982 266.855 34.1902 266.855 34.7742V38.2542H265.247V34.9182C265.247 34.4382 265.151 34.0702 264.959 33.8142C264.775 33.5582 264.487 33.4302 264.095 33.4302C263.839 33.4302 263.611 33.4942 263.411 33.6222C263.211 33.7502 263.055 33.9342 262.943 34.1742C262.839 34.4142 262.787 34.7022 262.787 35.0382V38.2542H261.167V34.9182C261.167 34.4382 261.071 34.0702 260.879 33.8142C260.687 33.5582 260.391 33.4302 259.991 33.4302C259.743 33.4302 259.519 33.4942 259.319 33.6222C259.127 33.7502 258.975 33.9342 258.863 34.1742C258.759 34.4142 258.707 34.7022 258.707 35.0382V38.2542H257.087ZM270.856 38.3982C270.304 38.3982 269.824 38.3102 269.416 38.1342C269.008 37.9582 268.688 37.7142 268.456 37.4022C268.224 37.0902 268.092 36.7382 268.06 36.3462H269.668C269.708 36.4982 269.776 36.6382 269.872 36.7662C269.968 36.8862 270.096 36.9822 270.256 37.0542C270.416 37.1262 270.608 37.1622 270.832 37.1622C271.048 37.1622 271.224 37.1342 271.36 37.0782C271.496 37.0142 271.596 36.9302 271.66 36.8262C271.732 36.7222 271.768 36.6142 271.768 36.5022C271.768 36.3342 271.72 36.2062 271.624 36.1182C271.528 36.0222 271.388 35.9462 271.204 35.8902C271.02 35.8342 270.796 35.7782 270.532 35.7222C270.244 35.6662 269.96 35.5982 269.68 35.5182C269.408 35.4302 269.164 35.3222 268.948 35.1942C268.732 35.0662 268.56 34.9022 268.432 34.7022C268.304 34.5022 268.24 34.2542 268.24 33.9582C268.24 33.5982 268.336 33.2782 268.528 32.9982C268.72 32.7102 269 32.4821 269.368 32.3141C269.736 32.1461 270.18 32.0622 270.7 32.0622C271.428 32.0622 272.004 32.2262 272.428 32.5542C272.852 32.8822 273.104 33.3342 273.184 33.9102H271.66C271.612 33.7262 271.504 33.5822 271.336 33.4782C271.176 33.3662 270.96 33.3102 270.688 33.3102C270.4 33.3102 270.18 33.3622 270.028 33.4662C269.876 33.5702 269.8 33.7062 269.8 33.8742C269.8 33.9862 269.848 34.0862 269.944 34.1742C270.048 34.2622 270.192 34.3382 270.376 34.4022C270.56 34.4582 270.784 34.5142 271.048 34.5702C271.512 34.6662 271.92 34.7782 272.272 34.9062C272.624 35.0262 272.9 35.2022 273.1 35.4342C273.3 35.6582 273.4 35.9862 273.4 36.4182C273.4 36.8022 273.296 37.1462 273.088 37.4502C272.88 37.7462 272.584 37.9782 272.2 38.1462C271.824 38.3142 271.376 38.3982 270.856 38.3982Z" fill="white"/>
<path d="M44.201 131.397C44.9333 131.397 45.527 130.804 45.527 130.071C45.527 129.339 44.9333 128.745 44.201 128.745C43.4687 128.745 42.875 129.339 42.875 130.071C42.875 130.804 43.4687 131.397 44.201 131.397Z" fill="white" stroke="#FF5A1F" stroke-width="0.883996"/>
<path d="M97.2401 113.718C97.9724 113.718 98.566 113.124 98.566 112.392C98.566 111.659 97.9724 111.066 97.2401 111.066C96.5077 111.066 95.9141 111.659 95.9141 112.392C95.9141 113.124 96.5077 113.718 97.2401 113.718Z" fill="white" stroke="#FF5A1F" stroke-width="0.883996"/>
<path d="M150.279 122.557C151.011 122.557 151.605 121.964 151.605 121.231C151.605 120.499 151.011 119.905 150.279 119.905C149.547 119.905 148.953 120.499 148.953 121.231C148.953 121.964 149.547 122.557 150.279 122.557Z" fill="white" stroke="#FF5A1F" stroke-width="0.883996"/>
<path d="M203.32 78.3576C204.052 78.3576 204.646 77.7639 204.646 77.0316C204.646 76.2992 204.052 75.7056 203.32 75.7056C202.588 75.7056 201.994 76.2992 201.994 77.0316C201.994 77.7639 202.588 78.3576 203.32 78.3576Z" fill="white" stroke="#FF5A1F" stroke-width="0.883996"/>
<path d="M309.4 87.1976C310.133 87.1976 310.726 86.604 310.726 85.8716C310.726 85.1393 310.133 84.5457 309.4 84.5457C308.668 84.5457 308.074 85.1393 308.074 85.8716C308.074 86.604 308.668 87.1976 309.4 87.1976Z" fill="white" stroke="#FF5A1F" stroke-width="0.883996"/>
<path d="M362.439 42.9977C363.172 42.9977 363.765 42.404 363.765 41.6717C363.765 40.9394 363.172 40.3457 362.439 40.3457C361.707 40.3457 361.113 40.9394 361.113 41.6717C361.113 42.404 361.707 42.9977 362.439 42.9977Z" fill="white" stroke="#FF5A1F" stroke-width="0.883996"/>
<path d="M415.48 25.318C416.213 25.318 416.806 24.7243 416.806 23.992C416.806 23.2597 416.213 22.666 415.48 22.666C414.748 22.666 414.154 23.2597 414.154 23.992C414.154 24.7243 414.748 25.318 415.48 25.318Z" fill="white" stroke="#FF5A1F" stroke-width="0.883996"/>
<path d="M28.5225 45.1464C27.8847 45.1464 27.4313 44.8618 27.1625 44.2926C26.8936 43.7234 26.9585 43.1939 27.3572 42.7042L33.0226 35.8195V29.6464H31.8303C31.6178 29.6464 31.4396 29.5745 31.2959 29.4307C31.1521 29.2869 31.0803 29.1087 31.0803 28.8961C31.0803 28.6835 31.1521 28.5054 31.2959 28.3619C31.4396 28.2183 31.6178 28.1465 31.8303 28.1465H39.2148C39.4273 28.1465 39.6054 28.2184 39.7492 28.3622C39.8929 28.506 39.9648 28.6842 39.9648 28.8968C39.9648 29.1094 39.8929 29.2875 39.7492 29.4311C39.6054 29.5747 39.4273 29.6464 39.2148 29.6464H38.0225V35.8195L43.6879 42.7042C44.0866 43.1939 44.1515 43.7234 43.8826 44.2926C43.6137 44.8618 43.1604 45.1464 42.5225 45.1464H28.5225ZM28.5225 43.6464H42.5225L36.5225 36.3464V29.6464H34.5225V36.3464L28.5225 43.6464Z" fill="#F97316"/>
<path d="M52.3978 41.4899C51.6383 41.4899 50.939 41.3589 50.2999 41.097C49.6609 40.8299 49.1056 40.4422 48.6342 39.9342C48.1628 39.4261 47.7961 38.808 47.5342 38.0799C47.2723 37.3518 47.1414 36.5242 47.1414 35.597C47.1414 34.3765 47.364 33.3289 47.8092 32.4542C48.2544 31.5741 48.8725 30.8984 49.6635 30.427C50.4544 29.9503 51.3659 29.712 52.3978 29.712C53.7283 29.712 54.789 30.0211 55.5799 30.6391C56.3761 31.2572 56.9183 32.1111 57.2064 33.2006L55.5406 33.4991C55.3102 32.8234 54.9383 32.2839 54.4249 31.8806C53.9116 31.4772 53.2673 31.273 52.4921 31.2677C51.6906 31.2625 51.0228 31.4406 50.4885 31.802C49.9594 32.1634 49.5614 32.6715 49.2942 33.3263C49.0271 33.9758 48.8909 34.7327 48.8856 35.597C48.8804 36.4613 49.0114 37.2182 49.2785 37.8677C49.5456 38.512 49.9464 39.0149 50.4806 39.3763C51.0202 39.7377 51.6906 39.9211 52.4921 39.9263C53.1364 39.9368 53.689 39.8189 54.1499 39.5727C54.6161 39.3213 54.9854 38.9546 55.2578 38.4727C55.5302 37.9908 55.7056 37.3989 55.7842 36.697H53.5842V35.377H57.5285C57.539 35.4713 57.5468 35.597 57.5521 35.7541C57.5573 35.9061 57.5599 36.003 57.5599 36.0449C57.5599 37.0925 57.3583 38.0275 56.9549 38.8499C56.5516 39.6722 55.9649 40.3192 55.1949 40.7906C54.4249 41.2568 53.4925 41.4899 52.3978 41.4899ZM59.2831 41.2542V29.7042H60.9252V41.2542H59.2831ZM66.4826 41.482C65.8959 41.482 65.4035 41.3877 65.0054 41.1992C64.6073 41.0106 64.2826 40.7644 64.0311 40.4606C63.7849 40.1515 63.5964 39.8163 63.4654 39.4549C63.3345 39.0934 63.2454 38.7399 63.1983 38.3942C63.1511 38.0484 63.1276 37.7446 63.1276 37.4827V32.7684H64.7933V36.9406C64.7933 37.2706 64.8195 37.6111 64.8719 37.962C64.9295 38.3077 65.0342 38.6299 65.1861 38.9284C65.3433 39.227 65.5607 39.468 65.8383 39.6513C66.1211 39.8346 66.4878 39.9263 66.9383 39.9263C67.2316 39.9263 67.5092 39.8792 67.7711 39.7849C68.033 39.6853 68.2609 39.5282 68.4547 39.3134C68.6538 39.0987 68.8083 38.8158 68.9183 38.4649C69.0335 38.1139 69.0911 37.687 69.0911 37.1842L70.1126 37.5692C70.1126 38.3392 69.9685 39.0201 69.6804 39.612C69.3923 40.1987 68.9785 40.657 68.439 40.987C67.8995 41.317 67.2473 41.482 66.4826 41.482ZM69.2876 41.2542V38.8027H69.0911V32.7684H70.749V41.2542H69.2876ZM76.5827 41.4899C75.7132 41.4899 74.9746 41.2961 74.367 40.9084C73.7593 40.5208 73.2932 39.9892 72.9684 39.3134C72.6489 38.6377 72.4865 37.8703 72.4812 37.0113C72.4865 36.1365 72.6541 35.3639 72.9841 34.6934C73.3141 34.0177 73.7855 33.4887 74.3984 33.1063C75.0112 32.7239 75.7472 32.5327 76.6062 32.5327C77.5334 32.5327 78.3243 32.7632 78.9791 33.2241C79.6391 33.6851 80.0739 34.3163 80.2834 35.1177L78.6491 35.5892C78.4867 35.1125 78.2196 34.7432 77.8477 34.4813C77.481 34.2141 77.0593 34.0806 76.5827 34.0806C76.0432 34.0806 75.6005 34.2089 75.2548 34.4656C74.9091 34.717 74.6524 35.0627 74.4848 35.5027C74.3172 35.9427 74.2308 36.4456 74.2255 37.0113C74.2308 37.8861 74.4298 38.5932 74.8227 39.1327C75.2208 39.6722 75.8074 39.942 76.5827 39.942C77.1117 39.942 77.5386 39.8215 77.8634 39.5806C78.1934 39.3344 78.4448 38.9834 78.6177 38.5277L80.2834 38.9206C80.0058 39.7482 79.5474 40.3846 78.9084 40.8299C78.2693 41.2699 77.4941 41.4899 76.5827 41.4899ZM85.3388 41.4899C84.4903 41.4899 83.7543 41.2987 83.131 40.9163C82.5077 40.5339 82.0258 40.0075 81.6853 39.337C81.35 38.6613 81.1824 37.8834 81.1824 37.0034C81.1824 36.1182 81.3553 35.3403 81.701 34.6699C82.0467 33.9941 82.5312 33.4703 83.1546 33.0984C83.7779 32.7213 84.506 32.5327 85.3388 32.5327C86.1874 32.5327 86.9234 32.7239 87.5467 33.1063C88.17 33.4887 88.6519 34.0151 88.9924 34.6856C89.3329 35.3561 89.5031 36.1287 89.5031 37.0034C89.5031 37.8887 89.3303 38.6692 88.9846 39.3449C88.6441 40.0153 88.1622 40.5418 87.5388 40.9242C86.9155 41.3013 86.1822 41.4899 85.3388 41.4899ZM85.3388 39.942C86.1508 39.942 86.7558 39.6696 87.1538 39.1249C87.5572 38.5749 87.7588 37.8677 87.7588 37.0034C87.7588 36.1182 87.5546 35.4111 87.146 34.882C86.7427 34.3477 86.1403 34.0806 85.3388 34.0806C84.7888 34.0806 84.3358 34.2063 83.9796 34.4577C83.6234 34.7039 83.3588 35.047 83.186 35.487C83.0131 35.9218 82.9267 36.4272 82.9267 37.0034C82.9267 37.8939 83.131 38.6063 83.5396 39.1406C83.9481 39.6749 84.5479 39.942 85.3388 39.942ZM94.3213 41.482C93.2894 41.482 92.4487 41.2542 91.7991 40.7984C91.1496 40.3427 90.7515 39.7011 90.6049 38.8734L92.2863 38.6142C92.391 39.0542 92.632 39.4025 93.0091 39.6592C93.3915 39.9106 93.8656 40.0363 94.4313 40.0363C94.9446 40.0363 95.3453 39.9315 95.6334 39.722C95.9268 39.5125 96.0734 39.2244 96.0734 38.8577C96.0734 38.643 96.021 38.4701 95.9163 38.3392C95.8168 38.203 95.6046 38.0746 95.2799 37.9542C94.9551 37.8337 94.4601 37.6844 93.7949 37.5063C93.0668 37.3177 92.488 37.1161 92.0584 36.9013C91.6341 36.6813 91.3303 36.4272 91.147 36.1392C90.9689 35.8458 90.8799 35.4922 90.8799 35.0784C90.8799 34.5651 91.016 34.1172 91.2884 33.7349C91.5608 33.3525 91.9432 33.0565 92.4356 32.847C92.9332 32.6375 93.5146 32.5327 94.1799 32.5327C94.8294 32.5327 95.4082 32.6349 95.9163 32.8391C96.4244 33.0434 96.8356 33.3341 97.1499 33.7113C97.4641 34.0832 97.6527 34.5206 97.7156 35.0234L96.0341 35.3299C95.9765 34.9213 95.7853 34.5992 95.4606 34.3634C95.1358 34.1277 94.7141 33.9994 94.1956 33.9784C93.698 33.9575 93.2946 34.0413 92.9856 34.2299C92.6765 34.4132 92.522 34.6672 92.522 34.992C92.522 35.1806 92.5796 35.3403 92.6949 35.4713C92.8153 35.6022 93.0458 35.728 93.3863 35.8484C93.7268 35.9689 94.2296 36.113 94.8949 36.2806C95.6072 36.4639 96.173 36.6682 96.592 36.8934C97.011 37.1134 97.3096 37.378 97.4877 37.687C97.671 37.9908 97.7627 38.3601 97.7627 38.7949C97.7627 39.633 97.4563 40.2903 96.8434 40.767C96.2358 41.2437 95.3951 41.482 94.3213 41.482ZM103.265 41.4899C102.421 41.4899 101.68 41.3065 101.041 40.9399C100.407 40.568 99.9124 40.052 99.5562 39.392C99.2053 38.7268 99.0298 37.9568 99.0298 37.082C99.0298 36.1549 99.2027 35.3508 99.5484 34.6699C99.8993 33.9889 100.386 33.4625 101.01 33.0906C101.633 32.7187 102.359 32.5327 103.186 32.5327C104.051 32.5327 104.786 32.7344 105.394 33.1377C106.002 33.5358 106.455 34.1042 106.753 34.8427C107.057 35.5813 107.178 36.4587 107.115 37.4749H105.473V36.8777C105.462 35.893 105.274 35.1649 104.907 34.6934C104.546 34.222 103.993 33.9863 103.249 33.9863C102.427 33.9863 101.809 34.2456 101.395 34.7642C100.981 35.2827 100.774 36.0318 100.774 37.0113C100.774 37.9437 100.981 38.6665 101.395 39.1799C101.809 39.688 102.406 39.942 103.186 39.942C103.7 39.942 104.142 39.8268 104.514 39.5963C104.891 39.3606 105.185 39.0253 105.394 38.5906L107.005 39.1013C106.675 39.8608 106.175 40.4501 105.504 40.8692C104.834 41.283 104.087 41.4899 103.265 41.4899ZM100.24 37.4749V36.1941H106.298V37.4749H100.24Z" fill="#191B25"/>
<path d="M52.1474 71.5417V58.5947L49.1774 60.4097V57.4837L52.1474 55.7017H54.8534V71.5417H52.1474ZM61.0396 71.5417V58.5947L58.0696 60.4097V57.4837L61.0396 55.7017H63.7456V71.5417H61.0396ZM72.8798 71.8717C71.7578 71.8717 70.7678 71.6334 69.9098 71.1567C69.0518 70.6727 68.3808 70.0017 67.8968 69.1437C67.4202 68.2857 67.1818 67.2957 67.1818 66.1737V61.0697C67.1818 59.9477 67.4202 58.9577 67.8968 58.0997C68.3808 57.2417 69.0518 56.5744 69.9098 56.0977C70.7678 55.6137 71.7578 55.3717 72.8798 55.3717C74.0018 55.3717 74.9882 55.6137 75.8388 56.0977C76.6968 56.5744 77.3678 57.2417 77.8518 58.0997C78.3358 58.9577 78.5778 59.9477 78.5778 61.0697V66.1737C78.5778 67.2957 78.3358 68.2857 77.8518 69.1437C77.3678 70.0017 76.6968 70.6727 75.8388 71.1567C74.9882 71.6334 74.0018 71.8717 72.8798 71.8717ZM72.8798 69.3527C73.4372 69.3527 73.9432 69.2207 74.3978 68.9567C74.8525 68.6854 75.2118 68.3261 75.4758 67.8787C75.7398 67.4241 75.8718 66.9181 75.8718 66.3607V60.8717C75.8718 60.3071 75.7398 59.8011 75.4758 59.3537C75.2118 58.8991 74.8525 58.5397 74.3978 58.2757C73.9432 58.0044 73.4372 57.8687 72.8798 57.8687C72.3225 57.8687 71.8165 58.0044 71.3618 58.2757C70.9072 58.5397 70.5478 58.8991 70.2838 59.3537C70.0198 59.8011 69.8878 60.3071 69.8878 60.8717V66.3607C69.8878 66.9181 70.0198 67.4241 70.2838 67.8787C70.5478 68.3261 70.9072 68.6854 71.3618 68.9567C71.8165 69.2207 72.3225 69.3527 72.8798 69.3527Z" fill="#191B25"/>
<path d="M81.8669 71.5366V63.8223H83.3083V65.0779H83.4037C83.5645 64.6527 83.8273 64.3212 84.1922 64.0835C84.5572 63.8424 84.9941 63.7219 85.5031 63.7219C86.0187 63.7219 86.4506 63.8424 86.7988 64.0835C87.1504 64.3246 87.4099 64.656 87.5773 65.0779H87.6576C87.8418 64.6661 88.1348 64.338 88.5366 64.0935C88.9383 63.8458 89.4171 63.7219 89.9729 63.7219C90.6727 63.7219 91.2436 63.9412 91.6855 64.3798C92.1309 64.8184 92.3535 65.4797 92.3535 66.3636V71.5366H90.8518V66.5043C90.8518 65.9819 90.7095 65.6036 90.4249 65.3692C90.1403 65.1348 89.8005 65.0176 89.4054 65.0176C88.9166 65.0176 88.5366 65.1683 88.2653 65.4697C87.9941 65.7676 87.8585 66.151 87.8585 66.6198V71.5366H86.3619V66.4088C86.3619 65.9903 86.2313 65.6538 85.9701 65.3993C85.709 65.1449 85.3691 65.0176 84.9506 65.0176C84.666 65.0176 84.4032 65.093 84.1621 65.2437C83.9244 65.391 83.7319 65.5969 83.5845 65.8614C83.4406 66.1259 83.3686 66.4323 83.3686 66.7805V71.5366H81.8669ZM97.6006 74.5902C96.9879 74.5902 96.4605 74.5098 96.0186 74.3491C95.5799 74.1884 95.2217 73.9758 94.9438 73.7113C94.6659 73.4468 94.4583 73.1572 94.321 72.8424L95.6117 72.3101C95.7021 72.4574 95.8227 72.6131 95.9734 72.7771C96.1274 72.9445 96.335 73.0868 96.5961 73.204C96.8606 73.3212 97.2005 73.3798 97.6157 73.3798C98.1848 73.3798 98.6553 73.2409 99.0269 72.963C99.3986 72.6884 99.5844 72.2498 99.5844 71.6471V70.1304H99.489C99.3986 70.2944 99.268 70.4769 99.0972 70.6778C98.9298 70.8787 98.6988 71.0528 98.4042 71.2001C98.1095 71.3474 97.7261 71.4211 97.254 71.4211C96.6447 71.4211 96.0956 71.2788 95.6067 70.9942C95.1212 70.7063 94.7362 70.2827 94.4516 69.7236C94.1703 69.1611 94.0297 68.4697 94.0297 67.6493C94.0297 66.829 94.1687 66.1259 94.4466 65.54C94.7278 64.954 95.1129 64.5054 95.6017 64.194C96.0905 63.8793 96.6447 63.7219 97.2641 63.7219C97.7429 63.7219 98.1296 63.8022 98.4242 63.963C98.7189 64.1203 98.9482 64.3045 99.1123 64.5154C99.2797 64.7264 99.4086 64.9122 99.499 65.0729H99.6095V63.8223H101.081V71.7074C101.081 72.3703 100.927 72.9144 100.619 73.3396C100.311 73.7649 99.8941 74.0796 99.3684 74.2838C98.8461 74.4881 98.2568 74.5902 97.6006 74.5902ZM97.5855 70.1756C98.0174 70.1756 98.3824 70.0751 98.6804 69.8742C98.9817 69.67 99.2094 69.3787 99.3634 69.0003C99.5208 68.6187 99.5995 68.1616 99.5995 67.6293C99.5995 67.1103 99.5225 66.6533 99.3684 66.2582C99.2144 65.8631 98.9884 65.555 98.6904 65.3341C98.3924 65.1097 98.0241 64.9976 97.5855 64.9976C97.1335 64.9976 96.7568 65.1147 96.4555 65.3491C96.1542 65.5801 95.9265 65.8949 95.7725 66.2933C95.6218 66.6918 95.5465 67.1371 95.5465 67.6293C95.5465 68.1348 95.6235 68.5785 95.7775 68.9602C95.9315 69.3419 96.1592 69.6399 96.4605 69.8541C96.7652 70.0684 97.1402 70.1756 97.5855 70.1756ZM107.012 60.7688L103.698 73.0835H102.357L105.671 60.7688H107.012ZM111.176 71.6873C110.553 71.6873 109.997 71.5283 109.509 71.2102C109.023 70.8887 108.641 70.4317 108.363 69.8391C108.089 69.2431 107.952 68.5283 107.952 67.6945C107.952 66.8608 108.091 66.1477 108.368 65.555C108.65 64.9624 109.035 64.5087 109.524 64.194C110.012 63.8793 110.567 63.7219 111.186 63.7219C111.665 63.7219 112.05 63.8022 112.341 63.963C112.636 64.1203 112.863 64.3045 113.024 64.5154C113.188 64.7264 113.315 64.9122 113.406 65.0729H113.496V61.2509H114.998V71.5366H113.531V70.3363H113.406C113.315 70.5003 113.185 70.6878 113.014 70.8988C112.847 71.1097 112.616 71.2939 112.321 71.4512C112.026 71.6086 111.645 71.6873 111.176 71.6873ZM111.507 70.4066C111.939 70.4066 112.304 70.2928 112.602 70.0651C112.904 69.8341 113.131 69.5143 113.285 69.1058C113.443 68.6973 113.521 68.2219 113.521 67.6795C113.521 67.1438 113.444 66.675 113.29 66.2732C113.136 65.8714 112.91 65.5584 112.612 65.3341C112.314 65.1097 111.946 64.9976 111.507 64.9976C111.055 64.9976 110.679 65.1147 110.377 65.3491C110.076 65.5835 109.848 65.9033 109.694 66.3084C109.544 66.7135 109.468 67.1705 109.468 67.6795C109.468 68.1951 109.545 68.6588 109.699 69.0707C109.853 69.4825 110.081 69.8089 110.382 70.05C110.687 70.2877 111.062 70.4066 111.507 70.4066ZM117.262 71.5366V61.2509H118.814V70.2007H123.474V71.5366H117.262Z" fill="#434656"/>
<defs>
<linearGradient id="paint0_linear_2620_1420" x1="44.1992" y1="23.9917" x2="44.1992" y2="156.591" gradientUnits="userSpaceOnUse">
<stop stop-color="#FF5A1F" stop-opacity="0.2"/>
<stop offset="1" stop-color="#FF5A1F" stop-opacity="0"/>
</linearGradient>
</defs>
</svg>
