<svg width="30" height="30" viewBox="0 0 30 30" fill="none" xmlns="http://www.w3.org/2000/svg">
<path d="M14.7309 6.13927C14.7323 5.64828 14.6356 5.16195 14.4463 4.70889C14.2571 4.25584 13.9791 3.8452 13.6289 3.50113C13.2786 3.15707 12.863 2.88652 12.4067 2.7054C11.9503 2.52428 11.4623 2.43625 10.9714 2.44648C10.4805 2.45671 9.99665 2.565 9.54822 2.76498C9.09979 2.96496 8.69588 3.25259 8.36025 3.61095C8.02461 3.96932 7.76402 4.39118 7.59381 4.85173C7.42359 5.31227 7.34719 5.80221 7.3691 6.29272C6.64753 6.47825 5.97764 6.82555 5.41016 7.30831C4.84269 7.79107 4.39251 8.39663 4.09372 9.07914C3.79493 9.76164 3.65537 10.5032 3.6856 11.2476C3.71584 11.992 3.91508 12.7198 4.26823 13.3759C3.64729 13.8803 3.15902 14.5288 2.84588 15.265C2.53274 16.0012 2.40422 16.8028 2.4715 17.5999C2.53878 18.3971 2.79982 19.1658 3.23191 19.8391C3.66401 20.5124 4.25407 21.0699 4.95076 21.4632C4.86473 22.1288 4.91607 22.805 5.10162 23.45C5.28716 24.095 5.60297 24.6952 6.02954 25.2134C6.45611 25.7315 6.98439 26.1568 7.58174 26.4628C8.17909 26.7688 8.83283 26.9491 9.5026 26.9926C10.1724 27.036 10.8439 26.9417 11.4758 26.7155C12.1077 26.4892 12.6865 26.1358 13.1765 25.6771C13.6664 25.2184 14.0572 24.6641 14.3245 24.0485C14.5919 23.4329 14.7302 22.769 14.7309 22.0978V6.13927Z" stroke="#2C2A28" stroke-width="2.45516" stroke-linecap="round" stroke-linejoin="round"/>
<path d="M14.7311 6.13927C14.7297 5.64828 14.8264 5.16195 15.0157 4.70889C15.2049 4.25584 15.4829 3.8452 15.8332 3.50113C16.1834 3.15707 16.599 2.88652 17.0554 2.7054C17.5117 2.52428 17.9997 2.43625 18.4906 2.44648C18.9815 2.45671 19.4654 2.565 19.9138 2.76498C20.3622 2.96496 20.7661 3.25259 21.1018 3.61095C21.4374 3.96932 21.698 4.39118 21.8682 4.85173C22.0384 5.31227 22.1148 5.80221 22.0929 6.29272C22.8145 6.47825 23.4844 6.82555 24.0519 7.30831C24.6193 7.79107 25.0695 8.39663 25.3683 9.07914C25.6671 9.76164 25.8067 10.5032 25.7764 11.2476C25.7462 11.992 25.5469 12.7198 25.1938 13.3759C25.8147 13.8803 26.303 14.5288 26.6161 15.265C26.9293 16.0012 27.0578 16.8028 26.9905 17.5999C26.9232 18.3971 26.6622 19.1658 26.2301 19.8391C25.798 20.5124 25.208 21.0699 24.5113 21.4632C24.5973 22.1288 24.5459 22.805 24.3604 23.45C24.1749 24.095 23.859 24.6952 23.4325 25.2134C23.0059 25.7315 22.4776 26.1568 21.8803 26.4628C21.2829 26.7688 20.6292 26.9491 19.9594 26.9926C19.2897 27.036 18.6181 26.9417 17.9862 26.7155C17.3543 26.4892 16.7755 26.1358 16.2855 25.6771C15.7956 25.2184 15.4049 24.6641 15.1375 24.0485C14.8701 23.4329 14.7318 22.769 14.7311 22.0978V6.13927Z" stroke="#2C2A28" stroke-width="2.45516" stroke-linecap="round" stroke-linejoin="round"/>
<path d="M18.4138 15.9595C17.3832 15.597 16.4832 14.9369 15.8277 14.0629C15.1722 13.1889 14.7906 12.1401 14.7311 11.0492C14.6716 12.1401 14.29 13.1889 13.6345 14.0629C12.9789 14.9369 12.079 15.597 11.0483 15.9595" stroke="#2C2A28" stroke-width="2.45516" stroke-linecap="round" stroke-linejoin="round"/>
<path d="M21.6045 7.98077C21.9016 7.4659 22.0696 6.88677 22.0943 6.29285" stroke="#2C2A28" stroke-width="2.45516" stroke-linecap="round" stroke-linejoin="round"/>
<path d="M7.3692 6.29285C7.39348 6.88667 7.56111 7.46579 7.85778 7.98077" stroke="#2C2A28" stroke-width="2.45516" stroke-linecap="round" stroke-linejoin="round"/>
<path d="M4.26849 13.3788C4.49406 13.1951 4.73544 13.0317 4.98981 12.8905" stroke="#2C2A28" stroke-width="2.45516" stroke-linecap="round" stroke-linejoin="round"/>
<path d="M24.4756 12.8905C24.73 13.0317 24.9714 13.1951 25.1969 13.3788" stroke="#2C2A28" stroke-width="2.45516" stroke-linecap="round" stroke-linejoin="round"/>
<path d="M7.36588 22.0977C6.51987 22.0981 5.68811 21.8799 4.95123 21.4642" stroke="#2C2A28" stroke-width="2.45516" stroke-linecap="round" stroke-linejoin="round"/>
<path d="M24.5112 21.4642C23.7744 21.8799 22.9426 22.0981 22.0966 22.0977" stroke="#2C2A28" stroke-width="2.45516" stroke-linecap="round" stroke-linejoin="round"/>
</svg>
