<svg width="29" height="29" viewBox="0 0 29 29" fill="none" xmlns="http://www.w3.org/2000/svg">
<path d="M15.5041 27.4297V20.2741L12.9996 17.8889L11.807 23.1364L3.578 21.4667L4.05505 19.0815L9.77956 20.2741L11.6877 10.614L9.54104 11.4488V15.5037H7.15582V9.89842L11.8666 7.87099C12.5623 7.57284 13.0741 7.37904 13.4021 7.28959C13.7301 7.20015 14.0332 7.15543 14.3115 7.15543C14.7289 7.15543 15.1165 7.26475 15.4743 7.48339C15.832 7.70204 16.1202 7.99025 16.3389 8.34803L17.5315 10.2562C18.0483 11.091 18.749 11.7768 19.6335 12.3134C20.518 12.8501 21.5267 13.1185 22.6597 13.1185V15.5037C21.3478 15.5037 20.1204 15.2304 18.9775 14.6838C17.8346 14.1371 16.8756 13.4166 16.1004 12.5222L15.3848 16.1L17.8893 18.4852V27.4297H15.5041ZM14.4158 5.85847C13.9487 5.39136 13.7152 4.82984 13.7152 4.17391C13.7152 3.51798 13.9487 2.95646 14.4158 2.48935C14.8829 2.02225 15.4444 1.7887 16.1004 1.7887C16.7563 1.7887 17.3178 2.02225 17.7849 2.48935C18.252 2.95646 18.4856 3.51798 18.4856 4.17391C18.4856 4.82984 18.252 5.39136 17.7849 5.85847C17.3178 6.32557 16.7563 6.55912 16.1004 6.55912C15.4444 6.55912 14.8829 6.32557 14.4158 5.85847Z" fill="white"/>
</svg>
