<svg width="41" height="41" viewBox="0 0 41 41" fill="none" xmlns="http://www.w3.org/2000/svg">
<mask id="path-1-inside-1_32_422" fill="white">
<path d="M0 20.2551C0 9.06851 9.06851 0 20.2551 0C31.4416 0 40.5102 9.06851 40.5102 20.2551C40.5102 31.4416 31.4416 40.5102 20.2551 40.5102C9.06851 40.5102 0 31.4416 0 20.2551Z"/>
</mask>
<path d="M0 20.2551C0 9.06851 9.06851 0 20.2551 0C31.4416 0 40.5102 9.06851 40.5102 20.2551C40.5102 31.4416 31.4416 40.5102 20.2551 40.5102C9.06851 40.5102 0 31.4416 0 20.2551Z" fill="white" fill-opacity="0.2"/>
<path d="M0 20.2551M40.5102 20.2551M40.5102 20.2551M0 20.2551M20.2551 0M40.5102 20.2551M20.2551 40.5102M0 20.2551M20.2551 40.5102V39.4974C9.62784 39.4974 1.01275 30.8823 1.01275 20.2551H0H-1.01275C-1.01275 32.001 8.50918 41.5229 20.2551 41.5229V40.5102ZM40.5102 20.2551H39.4974C39.4974 30.8823 30.8823 39.4974 20.2551 39.4974V40.5102V41.5229C32.001 41.5229 41.5229 32.001 41.5229 20.2551H40.5102ZM20.2551 0V1.01275C30.8823 1.01275 39.4974 9.62784 39.4974 20.2551H40.5102H41.5229C41.5229 8.50918 32.001 -1.01275 20.2551 -1.01275V0ZM20.2551 0V-1.01275C8.50918 -1.01275 -1.01275 8.50918 -1.01275 20.2551H0H1.01275C1.01275 9.62784 9.62784 1.01275 20.2551 1.01275V0Z" fill="white" fill-opacity="0.3" mask="url(#path-1-inside-1_32_422)"/>
<g clip-path="url(#clip0_32_422)">
<path d="M27.8506 20.255H25.9669C25.6349 20.2542 25.3119 20.3623 25.0471 20.5626C24.7824 20.7628 24.5906 21.0443 24.5009 21.3639L22.7159 27.7139C22.7044 27.7533 22.6805 27.788 22.6476 27.8126C22.6147 27.8373 22.5747 27.8506 22.5337 27.8506C22.4926 27.8506 22.4526 27.8373 22.4197 27.8126C22.3868 27.788 22.3629 27.7533 22.3514 27.7139L18.1586 12.796C18.147 12.7566 18.1231 12.7219 18.0902 12.6973C18.0573 12.6726 18.0173 12.6593 17.9763 12.6593C17.9352 12.6593 17.8952 12.6726 17.8623 12.6973C17.8295 12.7219 17.8055 12.7566 17.794 12.796L16.009 19.146C15.9197 19.4644 15.729 19.7449 15.4658 19.9451C15.2026 20.1452 14.8813 20.254 14.5506 20.255H12.6593" stroke="white" stroke-width="1.51913" stroke-linecap="round" stroke-linejoin="round"/>
</g>
<defs>
<clipPath id="clip0_32_422">
<rect width="18.2296" height="18.2296" fill="white" transform="translate(11.1403 11.1403)"/>
</clipPath>
</defs>
</svg>
