<svg width="35" height="35" viewBox="0 0 35 35" fill="none" xmlns="http://www.w3.org/2000/svg">
<path d="M17.1861 4.29773C15.4768 6.007 14.5166 8.32526 14.5166 10.7425C14.5166 13.1598 15.4768 15.4781 17.1861 17.1873C18.8954 18.8966 21.2136 19.8568 23.6309 19.8568C26.0482 19.8568 28.3664 18.8966 30.0757 17.1873C30.0757 19.7366 29.3197 22.2287 27.9034 24.3484C26.4871 26.4681 24.474 28.1202 22.1187 29.0958C19.7635 30.0713 17.1718 30.3266 14.6715 29.8292C12.1711 29.3319 9.87443 28.1043 8.07179 26.3016C6.26915 24.499 5.04153 22.2023 4.54418 19.702C4.04684 17.2016 4.30209 14.61 5.27768 12.2547C6.25326 9.89942 7.90535 7.88634 10.025 6.47002C12.1447 5.05369 14.6368 4.29773 17.1861 4.29773Z" stroke="#518C75" stroke-width="2.86435" stroke-linecap="round" stroke-linejoin="round"/>
</svg>
