<svg width="50" height="50" viewBox="0 0 50 50" fill="none" xmlns="http://www.w3.org/2000/svg">
<path d="M0 24.5516C0 10.9921 10.9921 0 24.5516 0C38.1111 0 49.1032 10.9921 49.1032 24.5516C49.1032 38.1111 38.1111 49.1032 24.5516 49.1032C10.9921 49.1032 0 38.1111 0 24.5516Z" fill="#FAF5EE"/>
<path d="M21.4446 32.8371C20.0022 32.8371 18.7785 32.3346 17.7734 31.3295C16.7683 30.3244 16.2657 29.1007 16.2657 27.6582C16.2657 26.9677 16.3962 26.3079 16.657 25.6788C16.9179 25.0496 17.2938 24.4896 17.7849 23.9985L23.9995 17.7839C24.4905 17.2929 25.0506 16.9169 25.6798 16.6561C26.3089 16.3952 26.9687 16.2648 27.6592 16.2648C29.1016 16.2648 30.3254 16.7673 31.3305 17.7724C32.3355 18.7775 32.8381 20.0012 32.8381 21.4436C32.8381 22.1341 32.7077 22.794 32.4468 23.4231C32.1859 24.0522 31.81 24.6123 31.319 25.1033L25.1043 31.318C24.6133 31.809 24.0532 32.185 23.4241 32.4458C22.7949 32.7067 22.1351 32.8371 21.4446 32.8371ZM27.5672 26.2542L30.03 23.8144C30.3369 23.5075 30.5747 23.1469 30.7435 22.7326C30.9123 22.3183 30.9967 21.8886 30.9967 21.4436C30.9967 20.5229 30.6706 19.7365 30.0185 19.0844C29.3663 18.4322 28.5799 18.1061 27.6592 18.1061C27.2142 18.1061 26.7846 18.1905 26.3703 18.3593C25.956 18.5281 25.5954 18.766 25.2885 19.0729L22.8486 21.5357L27.5672 26.2542ZM21.4446 30.9957C21.8896 30.9957 22.3193 30.9113 22.7336 30.7425C23.1479 30.5738 23.5085 30.3359 23.8154 30.029L26.2552 27.5662L21.5367 22.8477L19.0738 25.2875C18.7669 25.5944 18.5291 25.955 18.3603 26.3693C18.1915 26.7836 18.1071 27.2133 18.1071 27.6582C18.1071 28.5789 18.4332 29.3654 19.0853 30.0175C19.7375 30.6697 20.5239 30.9957 21.4446 30.9957Z" fill="#2C2A28"/>
</svg>
