<svg width="20" height="20" viewBox="0 0 20 20" fill="none" xmlns="http://www.w3.org/2000/svg">
<g clip-path="url(#clip0_32_462)">
<path d="M19.4449 11.9587C19.4449 12.3524 19.1257 12.6716 18.732 12.6716H17.3062V14.0973C17.3057 14.6461 16.7112 14.9885 16.2363 14.7136C16.0163 14.5863 15.8807 14.3515 15.8805 14.0973V12.6716H14.4547C13.9059 12.671 13.5636 12.0766 13.8384 11.6016C13.9658 11.3816 14.2006 11.2461 14.4547 11.2458H15.8805V9.82003C15.881 9.27126 16.4755 8.92889 16.9504 9.20377C17.1704 9.33108 17.306 9.56588 17.3062 9.82003V11.2458H18.732C19.1257 11.2458 19.4449 11.565 19.4449 11.9587ZM2.33573 4.82986H3.76149V6.25563C3.76206 6.8044 4.35648 7.14677 4.83146 6.87189C5.05143 6.74458 5.18699 6.50978 5.18725 6.25563V4.82986H6.61301C7.16179 4.8293 7.50416 4.23487 7.22928 3.7599C7.10197 3.53993 6.86718 3.40437 6.61301 3.40411H5.18725V1.97834C5.18669 1.42957 4.59226 1.08719 4.11729 1.36208C3.89731 1.48939 3.76176 1.72419 3.76149 1.97834V3.40411H2.33573C1.78696 3.40467 1.44458 3.9991 1.71947 4.47406C1.84678 4.69404 2.08157 4.8296 2.33573 4.82986ZM13.7418 15.5231H13.0289V14.8102C13.0284 14.2614 12.434 13.9191 11.959 14.1939C11.739 14.3212 11.6034 14.556 11.6032 14.8102V15.5231H10.8903C10.3415 15.5236 9.99916 16.1181 10.274 16.593C10.4013 16.813 10.6361 16.9486 10.8903 16.9488H11.6032V17.6617C11.6037 18.2105 12.1982 18.5529 12.6731 18.278C12.8931 18.1507 13.0287 17.9159 13.0289 17.6617V16.9488H13.7418C14.2906 16.9483 14.633 16.3538 14.3581 15.8789C14.2308 15.6589 13.996 15.5233 13.7418 15.5231ZM16.8883 5.54274L4.47438 17.9567C3.91765 18.513 3.01542 18.513 2.4587 17.9567L0.614126 16.1139C0.0571728 15.5571 0.0571728 14.6541 0.614126 14.0973L13.0289 1.68338C13.5858 1.12644 14.4887 1.12644 15.0455 1.68338L16.8883 3.52618C17.4453 4.083 17.4453 4.98593 16.8883 5.54274ZM15.8805 4.53491L14.0368 2.69122L11.1853 5.54274L13.0289 7.38643L15.8805 4.53491Z" fill="white"/>
</g>
<defs>
<clipPath id="clip0_32_462">
<rect width="19.6413" height="19.6413" fill="white"/>
</clipPath>
</defs>
</svg>
