<svg width="50" height="50" viewBox="0 0 50 50" fill="none" xmlns="http://www.w3.org/2000/svg">
<path d="M0 24.5516C0 10.9921 10.9921 0 24.5516 0C38.1111 0 49.1032 10.9921 49.1032 24.5516C49.1032 38.1111 38.1111 49.1032 24.5516 49.1032C10.9921 49.1032 0 38.1111 0 24.5516Z" fill="#EAE5DF"/>
<path d="M24.5519 32.7829C25.933 32.7829 27.0838 33.7588 28.2347 33.7588C30.9967 33.7588 33.7588 26.3933 33.7588 22.508C33.7274 21.3155 33.2259 20.1837 32.3636 19.3593C31.5013 18.535 30.3481 18.0849 29.1554 18.1072C27.1114 18.1072 25.4726 19.433 24.5519 19.9485C23.6313 19.433 21.9924 18.1072 19.9485 18.1072C18.7551 18.0825 17.6005 18.5317 16.7377 19.3566C15.8748 20.1815 15.3741 21.3147 15.3451 22.508C15.3451 26.3933 18.1071 33.7588 20.8692 33.7588C22.0201 33.7588 23.1709 32.7829 24.5519 32.7829Z" stroke="#2C2A28" stroke-width="1.84137" stroke-linecap="round" stroke-linejoin="round"/>
<path d="M22.7106 15.345C23.6313 15.8053 24.5519 17.1863 24.5519 19.9484" stroke="#2C2A28" stroke-width="1.84137" stroke-linecap="round" stroke-linejoin="round"/>
</svg>
