<svg width="40" height="40" viewBox="0 0 40 40" fill="none" xmlns="http://www.w3.org/2000/svg">
<path d="M13.1667 26.8317L4.55833 23.66C4.07333 23.4817 3.75 23.0183 3.75 22.5C3.75 21.9817 4.07333 21.5183 4.55833 21.3383L13.1667 18.1667L16.3383 9.55833C16.5183 9.07333 16.9817 8.75 17.5 8.75C18.0183 8.75 18.4817 9.07333 18.66 9.55833L21.8317 18.1667L30.44 21.3383C30.9267 21.5183 31.25 21.9817 31.25 22.5C31.25 23.0183 30.9267 23.4817 30.44 23.66L21.8317 26.8317L18.66 35.44C18.4817 35.9267 18.0183 36.25 17.5 36.25C16.9817 36.25 16.5183 35.9267 16.3383 35.44L13.1667 26.8317Z" stroke="white" stroke-width="1.66667" stroke-linecap="round" stroke-linejoin="round"/>
<path d="M27.5 2.5V10" stroke="white" stroke-width="1.66667" stroke-linecap="round" stroke-linejoin="round"/>
<path d="M35 11.25V16.25" stroke="white" stroke-width="1.66667" stroke-linecap="round" stroke-linejoin="round"/>
<path d="M23.75 6.25H31.25" stroke="white" stroke-width="1.66667" stroke-linecap="round" stroke-linejoin="round"/>
<path d="M32.5 13.75H37.5" stroke="white" stroke-width="1.66667" stroke-linecap="round" stroke-linejoin="round"/>
</svg>
