<svg width="40" height="40" viewBox="0 0 40 40" fill="none" xmlns="http://www.w3.org/2000/svg">
<g clip-path="url(#clip0_108_4742)">
<path d="M20 20L5 5" stroke="white" stroke-width="1.66667" stroke-linecap="round" stroke-linejoin="round"/>
<path d="M9.39358 9.39347C14.9019 3.89847 23.7002 3.53514 29.6436 8.5568C35.5869 13.5768 36.6969 22.3135 32.1986 28.6618C27.7002 35.0101 19.0919 36.8585 12.3836 32.9151C5.67525 28.9718 3.10358 20.5518 6.46191 13.5335" stroke="white" stroke-width="1.66667" stroke-linecap="round" stroke-linejoin="round"/>
<path d="M14.6983 14.6964C17.2583 12.1397 21.2783 11.7747 24.2566 13.8297C27.235 15.8847 28.3216 19.7731 26.84 23.0731C25.3583 26.3747 21.7316 28.1481 18.2166 27.2881C14.7016 26.4297 12.3016 23.1847 12.51 19.5714" stroke="white" stroke-width="1.66667" stroke-linecap="round" stroke-linejoin="round"/>
</g>
<defs>
<clipPath id="clip0_108_4742">
<rect width="40" height="40" fill="white" transform="matrix(-1 0 0 1 40 0)"/>
</clipPath>
</defs>
</svg>
