<svg width="60" height="60" viewBox="0 0 60 60" fill="none" xmlns="http://www.w3.org/2000/svg">
<g opacity="0.5">
<path d="M20.5379 52.2371C21.84 52.2143 23.0798 51.6753 23.9844 50.7385C24.8891 49.8017 25.3845 48.5439 25.3618 47.2418L25.1047 32.5131C25.082 31.211 24.5429 29.9712 23.6061 29.0666C22.6694 28.1619 21.4116 27.6665 20.1095 27.6892C19.4584 27.7006 18.8295 27.4528 18.3611 27.0005C17.8927 26.5482 17.6232 25.9283 17.6118 25.2773L17.569 22.8225C17.5462 21.5204 18.0417 20.2626 18.9464 19.3258C19.851 18.389 21.0907 17.8499 22.3928 17.8272C23.0439 17.8158 23.6638 17.5463 24.1161 17.0779C24.5684 16.6095 24.8161 15.9806 24.8048 15.3296L24.7191 10.42C24.7077 9.76895 24.4382 9.14908 23.9698 8.69675C23.5014 8.24442 22.8725 7.99669 22.2215 8.00806C18.3152 8.07624 14.5959 9.69341 11.882 12.5038C9.16802 15.3142 7.68164 19.0876 7.74982 22.9939L8.17831 47.5417C8.20104 48.8438 8.74009 50.0836 9.67689 50.9882C10.6137 51.8929 11.8715 52.3883 13.1736 52.3656L20.5379 52.2371Z" stroke="#013F3F" stroke-width="4.91032" stroke-linecap="round" stroke-linejoin="round"/>
<path d="M47.5406 51.7634C48.8427 51.7407 50.0825 51.2016 50.9871 50.2649C51.8918 49.3281 52.3872 48.0703 52.3645 46.7682L52.1074 32.0394C52.0847 30.7373 51.5456 29.4976 50.6088 28.593C49.672 27.6883 48.4142 27.1928 47.1121 27.2156C46.4611 27.2269 45.8322 26.9792 45.3638 26.5269C44.8954 26.0745 44.6259 25.4547 44.6145 24.8036L44.5717 22.3488C44.5489 21.0467 45.0444 19.7889 45.949 18.8522C46.8537 17.9154 48.0934 17.3763 49.3955 17.3536C50.0466 17.3422 50.6665 17.0727 51.1188 16.6043C51.5711 16.1359 51.8188 15.507 51.8075 14.8559L51.7218 9.94636C51.7104 9.29531 51.4409 8.67544 50.9725 8.22312C50.5041 7.77079 49.8752 7.52306 49.2241 7.53443C45.3178 7.60261 41.5986 9.21977 38.8847 12.0302C36.1707 14.8405 34.6843 18.6139 34.7525 22.5202L35.181 47.0681C35.2037 48.3702 35.7428 49.6099 36.6796 50.5146C37.6164 51.4192 38.8742 51.9147 40.1763 51.892L47.5406 51.7634Z" stroke="#013F3F" stroke-width="4.91032" stroke-linecap="round" stroke-linejoin="round"/>
</g>
</svg>
