<svg width="86" height="18" viewBox="0 0 86 18" fill="none" xmlns="http://www.w3.org/2000/svg">
<path d="M8.253 1.64281C8.28438 1.57941 8.33286 1.52604 8.39296 1.48873C8.45306 1.45141 8.5224 1.43164 8.59314 1.43164C8.66389 1.43164 8.73322 1.45141 8.79332 1.48873C8.85343 1.52604 8.9019 1.57941 8.93329 1.64281L10.5875 4.99339C10.6964 5.21392 10.8573 5.40472 11.0562 5.5494C11.2552 5.69408 11.4862 5.78833 11.7296 5.82405L15.4289 6.36541C15.499 6.37557 15.5649 6.40514 15.619 6.45077C15.6732 6.49641 15.7135 6.55629 15.7354 6.62364C15.7573 6.69099 15.76 6.76313 15.743 6.8319C15.726 6.90067 15.6902 6.96331 15.6395 7.01276L12.9641 9.61789C12.7877 9.78982 12.6557 10.0021 12.5795 10.2363C12.5033 10.4706 12.4851 10.7199 12.5266 10.9627L13.1582 14.6434C13.1706 14.7135 13.163 14.7856 13.1364 14.8516C13.1097 14.9175 13.0651 14.9747 13.0075 15.0165C12.9499 15.0583 12.8818 15.0831 12.8108 15.088C12.7398 15.093 12.6689 15.0778 12.6061 15.0444L9.29921 13.3057C9.08131 13.1913 8.83889 13.1316 8.59279 13.1316C8.34668 13.1316 8.10426 13.1913 7.88636 13.3057L4.58018 15.0444C4.5174 15.0776 4.44656 15.0926 4.37571 15.0876C4.30485 15.0825 4.23683 15.0577 4.17938 15.0159C4.12194 14.9741 4.07737 14.9171 4.05075 14.8512C4.02413 14.7854 4.01652 14.7134 4.02879 14.6434L4.65967 10.9634C4.70134 10.7205 4.68329 10.471 4.60706 10.2366C4.53084 10.0022 4.39873 9.78986 4.22214 9.61789L1.54683 7.01347C1.4957 6.96409 1.45946 6.90133 1.44226 6.83236C1.42505 6.76338 1.42756 6.69096 1.4495 6.62334C1.47144 6.55572 1.51194 6.49563 1.56636 6.4499C1.62079 6.40417 1.68697 6.37465 1.75736 6.3647L5.45596 5.82405C5.69961 5.7886 5.931 5.69448 6.13022 5.54978C6.32943 5.40508 6.4905 5.21414 6.59955 4.99339L8.253 1.64281Z" fill="#014040" stroke="#014040" stroke-width="1.43218" stroke-linecap="round" stroke-linejoin="round"/>
<g clip-path="url(#clip0_120_18)">
<path d="M25.4389 1.64281C25.4703 1.57941 25.5188 1.52604 25.5789 1.48873C25.639 1.45141 25.7083 1.43164 25.7791 1.43164C25.8498 1.43164 25.9192 1.45141 25.9793 1.48873C26.0394 1.52604 26.0878 1.57941 26.1192 1.64281L27.7734 4.99339C27.8824 5.21392 28.0432 5.40472 28.2422 5.5494C28.4411 5.69408 28.6722 5.78833 28.9156 5.82405L32.6149 6.36541C32.685 6.37557 32.7508 6.40514 32.805 6.45077C32.8591 6.49641 32.8995 6.55629 32.9214 6.62364C32.9433 6.69099 32.9459 6.76313 32.9289 6.8319C32.912 6.90067 32.8761 6.96331 32.8254 7.01276L30.1501 9.61789C29.9737 9.78982 29.8417 10.0021 29.7654 10.2363C29.6892 10.4706 29.6711 10.7199 29.7126 10.9627L30.3442 14.6434C30.3565 14.7135 30.349 14.7856 30.3223 14.8516C30.2957 14.9175 30.251 14.9747 30.1934 15.0165C30.1359 15.0583 30.0677 15.0831 29.9968 15.088C29.9258 15.093 29.8548 15.0778 29.792 15.0444L26.4852 13.3057C26.2673 13.1913 26.0248 13.1316 25.7787 13.1316C25.5326 13.1316 25.2902 13.1913 25.0723 13.3057L21.7661 15.0444C21.7033 15.0776 21.6325 15.0926 21.5616 15.0876C21.4908 15.0825 21.4228 15.0577 21.3653 15.0159C21.3079 14.9741 21.2633 14.9171 21.2367 14.8512C21.2101 14.7854 21.2025 14.7134 21.2147 14.6434L21.8456 10.9634C21.8873 10.7205 21.8692 10.471 21.793 10.2366C21.7168 10.0022 21.5847 9.78986 21.4081 9.61789L18.7328 7.01347C18.6816 6.96409 18.6454 6.90133 18.6282 6.83236C18.611 6.76338 18.6135 6.69096 18.6354 6.62334C18.6574 6.55572 18.6979 6.49563 18.7523 6.4499C18.8067 6.40417 18.8729 6.37465 18.9433 6.3647L22.6419 5.82405C22.8856 5.7886 23.1169 5.69448 23.3162 5.54978C23.5154 5.40508 23.6764 5.21414 23.7855 4.99339L25.4389 1.64281Z" fill="#014040" stroke="#014040" stroke-width="1.43218" stroke-linecap="round" stroke-linejoin="round"/>
</g>
<path d="M42.6249 1.64281C42.6563 1.57941 42.7048 1.52604 42.7649 1.48873C42.825 1.45141 42.8943 1.43164 42.9651 1.43164C43.0358 1.43164 43.1052 1.45141 43.1653 1.48873C43.2254 1.52604 43.2739 1.57941 43.3052 1.64281L44.9594 4.99339C45.0684 5.21392 45.2292 5.40472 45.4282 5.5494C45.6271 5.69408 45.8582 5.78833 46.1016 5.82405L49.8009 6.36541C49.871 6.37557 49.9368 6.40514 49.991 6.45077C50.0452 6.49641 50.0855 6.55629 50.1074 6.62364C50.1293 6.69099 50.1319 6.76313 50.1149 6.8319C50.098 6.90067 50.0621 6.96331 50.0114 7.01276L47.3361 9.61789C47.1597 9.78982 47.0277 10.0021 46.9514 10.2363C46.8752 10.4706 46.8571 10.7199 46.8986 10.9627L47.5302 14.6434C47.5425 14.7135 47.535 14.7856 47.5083 14.8516C47.4817 14.9175 47.437 14.9747 47.3795 15.0165C47.3219 15.0583 47.2537 15.0831 47.1828 15.088C47.1118 15.093 47.0409 15.0778 46.9781 15.0444L43.6712 13.3057C43.4533 13.1913 43.2108 13.1316 42.9647 13.1316C42.7186 13.1316 42.4762 13.1913 42.2583 13.3057L38.9521 15.0444C38.8894 15.0776 38.8185 15.0926 38.7477 15.0876C38.6768 15.0825 38.6088 15.0577 38.5513 15.0159C38.4939 14.9741 38.4493 14.9171 38.4227 14.8512C38.3961 14.7854 38.3885 14.7134 38.4007 14.6434L39.0316 10.9634C39.0733 10.7205 39.0552 10.471 38.979 10.2366C38.9028 10.0022 38.7707 9.78986 38.5941 9.61789L35.9188 7.01347C35.8676 6.96409 35.8314 6.90133 35.8142 6.83236C35.797 6.76338 35.7995 6.69096 35.8214 6.62334C35.8434 6.55572 35.8839 6.49563 35.9383 6.4499C35.9927 6.40417 36.0589 6.37465 36.1293 6.3647L39.8279 5.82405C40.0716 5.7886 40.303 5.69448 40.5022 5.54978C40.7014 5.40508 40.8624 5.21414 40.9715 4.99339L42.6249 1.64281Z" fill="#014040" stroke="#014040" stroke-width="1.43218" stroke-linecap="round" stroke-linejoin="round"/>
<g clip-path="url(#clip1_120_18)">
<path d="M59.8114 1.64281C59.8428 1.57941 59.8912 1.52604 59.9513 1.48873C60.0114 1.45141 60.0808 1.43164 60.1515 1.43164C60.2223 1.43164 60.2916 1.45141 60.3517 1.48873C60.4118 1.52604 60.4603 1.57941 60.4917 1.64281L62.1458 4.99339C62.2548 5.21392 62.4157 5.40472 62.6146 5.5494C62.8135 5.69408 63.0446 5.78833 63.288 5.82405L66.9873 6.36541C67.0574 6.37557 67.1233 6.40514 67.1774 6.45077C67.2316 6.49641 67.2719 6.55629 67.2938 6.62364C67.3157 6.69099 67.3183 6.76313 67.3014 6.8319C67.2844 6.90067 67.2485 6.96331 67.1978 7.01276L64.5225 9.61789C64.3461 9.78982 64.2141 10.0021 64.1379 10.2363C64.0617 10.4706 64.0435 10.7199 64.085 10.9627L64.7166 14.6434C64.729 14.7135 64.7214 14.7856 64.6947 14.8516C64.6681 14.9175 64.6234 14.9747 64.5659 15.0165C64.5083 15.0583 64.4402 15.0831 64.3692 15.088C64.2982 15.093 64.2273 15.0778 64.1645 15.0444L60.8576 13.3057C60.6397 13.1913 60.3973 13.1316 60.1512 13.1316C59.9051 13.1316 59.6626 13.1913 59.4447 13.3057L56.1386 15.0444C56.0758 15.0776 56.0049 15.0926 55.9341 15.0876C55.8632 15.0825 55.7952 15.0577 55.7378 15.0159C55.6803 14.9741 55.6357 14.9171 55.6091 14.8512C55.5825 14.7854 55.5749 14.7134 55.5872 14.6434L56.218 10.9634C56.2597 10.7205 56.2417 10.471 56.1654 10.2366C56.0892 10.0022 55.9571 9.78986 55.7805 9.61789L53.1052 7.01347C53.0541 6.96409 53.0178 6.90133 53.0006 6.83236C52.9834 6.76338 52.9859 6.69096 53.0079 6.62334C53.0298 6.55572 53.0703 6.49563 53.1247 6.4499C53.1792 6.40417 53.2454 6.37465 53.3157 6.3647L57.0143 5.82405C57.258 5.7886 57.4894 5.69448 57.6886 5.54978C57.8878 5.40508 58.0489 5.21414 58.1579 4.99339L59.8114 1.64281Z" fill="#014040" stroke="#014040" stroke-width="1.43218" stroke-linecap="round" stroke-linejoin="round"/>
</g>
<g clip-path="url(#clip2_120_18)">
<path d="M76.9973 1.64281C77.0287 1.57941 77.0772 1.52604 77.1373 1.48873C77.1974 1.45141 77.2667 1.43164 77.3375 1.43164C77.4082 1.43164 77.4775 1.45141 77.5376 1.48873C77.5978 1.52604 77.6462 1.57941 77.6776 1.64281L79.3318 4.99339C79.4407 5.21392 79.6016 5.40472 79.8005 5.5494C79.9995 5.69408 80.2306 5.78833 80.4739 5.82405L84.1732 6.36541C84.2433 6.37557 84.3092 6.40514 84.3634 6.45077C84.4175 6.49641 84.4578 6.55629 84.4797 6.62364C84.5017 6.69099 84.5043 6.76313 84.4873 6.8319C84.4704 6.90067 84.4345 6.96331 84.3838 7.01276L81.7085 9.61789C81.532 9.78982 81.4 10.0021 81.3238 10.2363C81.2476 10.4706 81.2295 10.7199 81.2709 10.9627L81.9025 14.6434C81.9149 14.7135 81.9073 14.7856 81.8807 14.8516C81.854 14.9175 81.8094 14.9747 81.7518 15.0165C81.6943 15.0583 81.6261 15.0831 81.5551 15.088C81.4842 15.093 81.4132 15.0778 81.3504 15.0444L78.0435 13.3057C77.8256 13.1913 77.5832 13.1316 77.3371 13.1316C77.091 13.1316 76.8486 13.1913 76.6307 13.3057L73.3245 15.0444C73.2617 15.0776 73.1909 15.0926 73.12 15.0876C73.0492 15.0825 72.9812 15.0577 72.9237 15.0159C72.8663 14.9741 72.8217 14.9171 72.7951 14.8512C72.7684 14.7854 72.7608 14.7134 72.7731 14.6434L73.404 10.9634C73.4457 10.7205 73.4276 10.471 73.3514 10.2366C73.2752 10.0022 73.1431 9.78986 72.9665 9.61789L70.2912 7.01347C70.24 6.96409 70.2038 6.90133 70.1866 6.83236C70.1694 6.76338 70.1719 6.69096 70.1938 6.62334C70.2158 6.55572 70.2563 6.49563 70.3107 6.4499C70.3651 6.40417 70.4313 6.37465 70.5017 6.3647L74.2003 5.82405C74.4439 5.7886 74.6753 5.69448 74.8745 5.54978C75.0738 5.40508 75.2348 5.21414 75.3439 4.99339L76.9973 1.64281Z" fill="#014040" stroke="#014040" stroke-width="1.43218" stroke-linecap="round" stroke-linejoin="round"/>
</g>
<defs>
<clipPath id="clip0_120_18">
<rect width="17.1861" height="17.1861" fill="white" transform="translate(17.1861)"/>
</clipPath>
<clipPath id="clip1_120_18">
<rect width="17.1861" height="17.1861" fill="white" transform="translate(51.5584)"/>
</clipPath>
<clipPath id="clip2_120_18">
<rect width="17.1861" height="17.1861" fill="white" transform="translate(68.7445)"/>
</clipPath>
</defs>
</svg>
