<svg width="34" height="34" viewBox="0 0 34 34" fill="none" xmlns="http://www.w3.org/2000/svg">
<rect x="0.5" y="0.5" width="33" height="33" rx="5.5" stroke="#014343"/>
<circle cx="17" cy="17.583" r="1.75" stroke="#014343" stroke-width="1.5"/>
<path d="M11.1667 17.7955C11.1667 16.008 11.1667 15.1142 11.6037 14.4722C11.7928 14.1942 12.0359 13.9556 12.319 13.7699C12.7392 13.4942 13.2652 13.3957 14.0706 13.3605C14.4549 13.3605 14.7858 13.0746 14.8612 12.7045C14.9743 12.1495 15.4706 11.75 16.0471 11.75H17.9531C18.5296 11.75 19.0259 12.1495 19.139 12.7045C19.2143 13.0746 19.5452 13.3605 19.9296 13.3605C20.735 13.3957 21.261 13.4942 21.6812 13.7699C21.9643 13.9556 22.2073 14.1942 22.3965 14.4722C22.8334 15.1142 22.8334 16.008 22.8334 17.7955C22.8334 19.583 22.8334 20.4767 22.3965 21.1187C22.2073 21.3967 21.9643 21.6353 21.6812 21.821C21.0273 22.25 20.117 22.25 18.2964 22.25H15.7038C13.8832 22.25 12.9729 22.25 12.319 21.821C12.0359 21.6353 11.7928 21.3967 11.6037 21.1187C11.4803 20.9374 11.3917 20.736 11.3282 20.5" stroke="#014343" stroke-linecap="round"/>
<path d="M21.0833 15.833H20.5" stroke="#014343" stroke-width="1.5" stroke-linecap="round"/>
</svg>
