<svg width="34" height="34" viewBox="0 0 34 34" fill="none" xmlns="http://www.w3.org/2000/svg">
<rect x="0.5" y="0.5" width="33" height="33" rx="5.5" stroke="#014343"/>
<path d="M17 15.2503L19.3333 12.917M17 18.4587L18.75 16.7087M20.7917 14.667L19.8437 15.6149M17 21.3753L18.0937 20.2816M21.375 17.0003L19.1875 19.1878" stroke="#014343" stroke-linecap="round"/>
<path d="M16.9999 22.833C19.5772 22.833 21.6666 20.7062 21.6666 18.0828C21.6666 15.4798 20.1771 12.4424 17.8533 11.3562C17.5824 11.2296 17.2912 11.1663 16.9999 11.1663M16.9999 22.833C14.4226 22.833 12.3333 20.7062 12.3333 18.0828C12.3333 17.1576 12.5214 16.1775 12.8683 15.2497M16.9999 22.833V11.1663M16.9999 11.1663C16.7087 11.1663 16.4174 11.2296 16.1465 11.3562C15.2126 11.7928 14.4135 12.5444 13.7916 13.4564" stroke="#014343" stroke-linecap="round"/>
</svg>
