<svg width="34" height="34" viewBox="0 0 34 34" fill="none" xmlns="http://www.w3.org/2000/svg">
<rect x="0.5" y="0.5" width="33" height="33" rx="5.5" stroke="#014343"/>
<path d="M22.25 17.0001H20.8711C20.4872 17.0001 20.2953 17.0001 20.1254 17.0758C19.9554 17.1514 19.827 17.2941 19.5701 17.5796L18.9697 18.2467C18.759 18.4808 18.6536 18.5979 18.52 18.595C18.3864 18.5921 18.2862 18.4707 18.0859 18.2279L16.0278 15.7333C15.8411 15.5069 15.7477 15.3938 15.621 15.3861C15.4943 15.3785 15.388 15.4797 15.1755 15.6821L14.2986 16.5173C14.0483 16.7557 13.9231 16.8749 13.7666 16.9375C13.6102 17.0001 13.4373 17.0001 13.0917 17.0001H11.75" stroke="#014343" stroke-linecap="round"/>
<path d="M15.2278 21.0313L15.5373 20.6387L15.2278 21.0313ZM17.0001 13.2087L16.6398 13.5554C16.7341 13.6533 16.8642 13.7087 17.0001 13.7087C17.136 13.7087 17.2661 13.6533 17.3603 13.5554L17.0001 13.2087ZM18.7724 21.0313L19.082 21.424V21.424L18.7724 21.0313ZM17.0001 21.9501L17.0001 21.4501L17.0001 21.9501ZM11.4967 17.8476C11.6427 18.082 11.951 18.1537 12.1855 18.0078C12.4199 17.8618 12.4916 17.5535 12.3457 17.3191L11.9212 17.5833L11.4967 17.8476ZM13.8532 19.156C13.6577 18.9609 13.3411 18.9613 13.1461 19.1568C12.9511 19.3523 12.9515 19.6689 13.147 19.8639L13.5001 19.51L13.8532 19.156ZM11.1667 15.33H11.6667C11.6667 13.7135 12.3903 12.7273 13.2768 12.3901C14.1662 12.0518 15.4218 12.2899 16.6398 13.5554L17.0001 13.2087L17.3603 12.862C15.9535 11.4003 14.2924 10.9339 12.9213 11.4554C11.5474 11.978 10.6667 13.416 10.6667 15.33H11.1667ZM18.7724 21.0313L19.082 21.424C19.9542 20.7364 21.0018 19.8129 21.8356 18.7798C22.6589 17.7598 23.3334 16.5602 23.3334 15.3299H22.8334H22.3334C22.3334 16.213 21.8356 17.1876 21.0575 18.1517C20.2899 19.1027 19.3069 19.9733 18.4629 20.6387L18.7724 21.0313ZM22.8334 15.3299H23.3334C23.3334 13.416 22.4528 11.978 21.0789 11.4554C19.7078 10.9339 18.0467 11.4003 16.6398 12.8619L17.0001 13.2087L17.3603 13.5554C18.5784 12.2899 19.8339 12.0518 20.7233 12.3901C21.6099 12.7273 22.3334 13.7135 22.3334 15.3299H22.8334ZM15.2278 21.0313L14.9182 21.424C15.6568 22.0062 16.1869 22.4501 17.0001 22.4501L17.0001 21.9501L17.0001 21.4501C16.5997 21.4501 16.3528 21.2815 15.5373 20.6387L15.2278 21.0313ZM18.7724 21.0313L18.4629 20.6387C17.6474 21.2815 17.4005 21.4501 17.0001 21.4501L17.0001 21.9501L17.0001 22.4501C17.8133 22.4501 18.3434 22.0062 19.082 21.424L18.7724 21.0313ZM11.9212 17.5833L12.3457 17.3191C11.9138 16.6255 11.6667 15.9521 11.6667 15.33H11.1667H10.6667C10.6667 16.2093 11.0115 17.0682 11.4967 17.8476L11.9212 17.5833ZM15.2278 21.0313L15.5373 20.6387C15.0037 20.2181 14.4118 19.7132 13.8532 19.156L13.5001 19.51L13.147 19.8639C13.7401 20.4557 14.3632 20.9864 14.9182 21.424L15.2278 21.0313Z" fill="#014343"/>
</svg>
