<svg width="34" height="34" viewBox="0 0 34 34" fill="none" xmlns="http://www.w3.org/2000/svg">
<rect x="0.5" y="0.5" width="33" height="33" rx="5.5" stroke="#014343"/>
<path d="M21.6667 11.167C21.6667 11.167 20.5 13.9019 20.5 16.167C20.5 16.8922 20.7485 17.4991 21.0833 18.1035C21.4687 18.7991 21.9683 19.4914 22.335 20.357C22.626 21.044 22.8333 21.8401 22.8333 22.8337" stroke="#014343" stroke-linecap="round" stroke-linejoin="round"/>
<path d="M12.3334 11.167C12.3334 11.167 13.5001 13.9019 13.5001 16.167C13.5001 16.8922 13.2516 17.4991 12.9168 18.1035C12.5314 18.7991 12.0318 19.4914 11.6651 20.357C11.374 21.044 11.1667 21.8401 11.1667 22.8337" stroke="#014343" stroke-linecap="round" stroke-linejoin="round"/>
<path d="M13.5 17.583H16.4167M20.5 17.583H18.75" stroke="#014343" stroke-linecap="round"/>
<path d="M17 22.833C17.2917 21.958 18.75 20.208 22.25 20.208" stroke="#014343" stroke-linecap="round"/>
<path d="M17 22.833C16.7083 21.958 15.25 20.208 11.75 20.208" stroke="#014343" stroke-linecap="round"/>
</svg>
