<svg width="34" height="34" viewBox="0 0 34 34" fill="none" xmlns="http://www.w3.org/2000/svg">
<rect x="0.5" y="0.5" width="33" height="33" rx="5.5" stroke="#014343"/>
<circle cx="20.7916" cy="12.6253" r="1.45833" stroke="#014343"/>
<path d="M15.25 19.917L14.6662 20.6175C14.2362 21.1336 14.0211 21.3916 13.7272 21.5293C13.4332 21.667 13.0973 21.667 12.4256 21.667H11.75" stroke="#014343" stroke-linecap="round"/>
<path d="M17.9 22.8336C17.9 23.1097 18.1239 23.3336 18.4 23.3336C18.6762 23.3336 18.9 23.1097 18.9 22.8336H18.4H17.9ZM17.3293 19.477L17.6313 19.0785L17.6313 19.0785L17.3293 19.477ZM18.0202 20.0693L18.4117 19.7582L18.4117 19.7582L18.0202 20.0693ZM18.3451 20.723L18.8295 20.5988V20.5988L18.3451 20.723ZM17.9195 16.787C18.1238 16.6012 18.1389 16.285 17.9531 16.0807C17.7674 15.8763 17.4512 15.8613 17.2468 16.047L17.5832 16.417L17.9195 16.787ZM16.3304 17.6796L16.7992 17.8534L16.7992 17.8534L16.3304 17.6796ZM16.371 18.587L15.9196 18.8021L15.9196 18.8021L16.371 18.587ZM18.4 21.6314H17.9V22.8336H18.4H18.9V21.6314H18.4ZM17.3293 19.477L17.0274 19.8755C17.4171 20.1708 17.5398 20.2684 17.6287 20.3803L18.0202 20.0693L18.4117 19.7582C18.2258 19.5243 17.9795 19.3423 17.6313 19.0785L17.3293 19.477ZM18.4 21.6314H18.9C18.9 21.1945 18.9037 20.8882 18.8295 20.5988L18.3451 20.723L17.8608 20.8472C17.8963 20.9857 17.9 21.1424 17.9 21.6314H18.4ZM18.0202 20.0693L17.6287 20.3803C17.7381 20.5179 17.8171 20.677 17.8608 20.8472L18.3451 20.723L18.8295 20.5988C18.7508 20.2923 18.6085 20.0059 18.4117 19.7582L18.0202 20.0693ZM17.5832 16.417L17.2468 16.047C17.0041 16.2677 16.6951 16.5354 16.4561 16.7616C16.3334 16.8778 16.2148 16.9961 16.1174 17.1084C16.03 17.209 15.9196 17.3491 15.8616 17.5057L16.3304 17.6796L16.7992 17.8534C16.7905 17.8768 16.7967 17.8513 16.8727 17.7637C16.9386 17.6878 17.03 17.5953 17.1435 17.4879C17.3768 17.2671 17.6448 17.0367 17.9195 16.787L17.5832 16.417ZM17.3293 19.477L17.6313 19.0785C17.3461 18.8624 17.1558 18.7178 17.0194 18.5964C16.8858 18.4775 16.8419 18.413 16.8224 18.372L16.371 18.587L15.9196 18.8021C16.0223 19.0176 16.1789 19.187 16.3545 19.3433C16.5274 19.4972 16.7552 19.6693 17.0274 19.8756L17.3293 19.477ZM16.3304 17.6796L15.8616 17.5057C15.705 17.9279 15.7259 18.3955 15.9196 18.8021L16.371 18.587L16.8224 18.372C16.7449 18.2094 16.7365 18.0223 16.7992 17.8534L16.3304 17.6796Z" fill="#014343"/>
<path d="M13.4177 15.5802C13.6578 15.4437 13.7419 15.1385 13.6055 14.8984C13.469 14.6583 13.1638 14.5743 12.9237 14.7107L13.1707 15.1454L13.4177 15.5802ZM12.0862 15.1865C11.8462 15.323 11.7621 15.6282 11.8985 15.8683C12.0349 16.1084 12.3402 16.1924 12.5803 16.056L12.3333 15.6213L12.0862 15.1865ZM17.8204 14.2917L17.6301 14.7541L17.6301 14.7541L17.8204 14.2917ZM16.0939 13.8751L16.0576 13.3764H16.0576L16.0939 13.8751ZM22.2499 17.5001C22.5261 17.5001 22.7499 17.2762 22.7499 17.0001C22.7499 16.7239 22.5261 16.5001 22.2499 16.5001V17.0001V17.5001ZM19.198 15.5628L18.7508 15.7864V15.7864L19.198 15.5628ZM15.0753 13.6007C14.8165 13.6971 14.685 13.9851 14.7814 14.2438C14.8778 14.5026 15.1658 14.6342 15.4245 14.5377L15.2499 14.0692L15.0753 13.6007ZM13.1707 15.1454L12.9237 14.7107L12.0862 15.1865L12.3333 15.6213L12.5803 16.056L13.4177 15.5802L13.1707 15.1454ZM17.8204 14.2917L18.0108 13.8294C17.2276 13.507 16.785 13.3235 16.0576 13.3764L16.0939 13.8751L16.1301 14.3737C16.5941 14.34 16.8339 14.4263 17.6301 14.7541L17.8204 14.2917ZM21.5234 17.0001V17.5001H22.2499V17.0001V16.5001H21.5234V17.0001ZM19.198 15.5628L18.7508 15.7864C19.2759 16.8367 20.3493 17.5001 21.5234 17.5001V17.0001V16.5001C20.728 16.5001 20.0009 16.0507 19.6452 15.3392L19.198 15.5628ZM19.198 15.5628L19.6452 15.3392C19.3012 14.6511 18.7152 14.1193 18.0108 13.8294L17.8204 14.2917L17.6301 14.7541C18.1183 14.955 18.5181 15.321 18.7508 15.7864L19.198 15.5628ZM15.2499 14.0692L15.4245 14.5377C15.6837 14.4411 15.9065 14.39 16.1301 14.3737L16.0939 13.8751L16.0576 13.3764C15.7227 13.4007 15.4063 13.4773 15.0753 13.6007L15.2499 14.0692Z" fill="#014343"/>
</svg>
