<svg width="246" height="318" viewBox="0 0 246 318" fill="none" xmlns="http://www.w3.org/2000/svg">
<path d="M0 10C0 4.47715 4.47715 0 10 0H235.5C241.023 0 245.5 4.47715 245.5 10V307.5C245.5 313.023 241.023 317.5 235.5 317.5H10C4.47716 317.5 0 313.023 0 307.5V10Z" fill="#D9D9D9" fill-opacity="0.2"/>
<mask id="mask0_334_364" style="mask-type:alpha" maskUnits="userSpaceOnUse" x="0" y="0" width="246" height="318">
<path d="M0 10C0 4.47715 4.47715 0 10 0H235.5C241.023 0 245.5 4.47715 245.5 10V307.5C245.5 313.023 241.023 317.5 235.5 317.5H10C4.47716 317.5 0 313.023 0 307.5V10Z" fill="#D9D9D9" fill-opacity="0.2"/>
</mask>
<g mask="url(#mask0_334_364)">
<g filter="url(#filter1_f_334_364)">
<path d="M-7 32.5C-7 13.4462 8.44618 -2 27.5 -2C46.5538 -2 62 13.4462 62 32.5C62 51.5538 46.5538 67 27.5 67C8.44618 67 -7 51.5538 -7 32.5Z" fill="#558FE6" fill-opacity="0.2"/>
</g>
<path d="M18.2857 221.93C18.2857 222.192 18.2251 222.431 18.1037 222.646C17.9823 222.857 17.8023 223.026 17.5634 223.151C17.3286 223.276 17.0428 223.339 16.7061 223.339H16.1893V224.66H14.8857V220.503H16.7061C17.215 220.503 17.6046 220.632 17.8747 220.89C18.1487 221.148 18.2857 221.495 18.2857 221.93ZM16.5593 222.311C16.8294 222.311 16.9645 222.184 16.9645 221.93C16.9645 221.675 16.8294 221.548 16.5593 221.548H16.1893V222.311H16.5593ZM21.377 224.66L20.596 223.169H20.5901V224.66H19.2865V220.503H21.2243C21.561 220.503 21.8488 220.563 22.0876 220.685C22.3264 220.802 22.5045 220.964 22.622 221.172C22.7433 221.376 22.804 221.607 22.804 221.865C22.804 222.143 22.7257 222.39 22.5691 222.605C22.4164 222.82 22.1952 222.975 21.9055 223.069L22.8099 224.66H21.377ZM20.5901 222.299H21.1069C21.2322 222.299 21.3261 222.272 21.3888 222.217C21.4514 222.159 21.4827 222.068 21.4827 221.947C21.4827 221.838 21.4495 221.751 21.3829 221.689C21.3203 221.626 21.2283 221.595 21.1069 221.595H20.5901V222.299ZM25.8337 224.701C25.4422 224.701 25.082 224.609 24.7532 224.425C24.4282 224.241 24.1698 223.987 23.978 223.662C23.7862 223.337 23.6903 222.971 23.6903 222.564C23.6903 222.157 23.7862 221.791 23.978 221.466C24.1698 221.141 24.4282 220.888 24.7532 220.708C25.082 220.524 25.4422 220.432 25.8337 220.432C26.2252 220.432 26.5834 220.524 26.9083 220.708C27.2332 220.888 27.4897 221.141 27.6776 221.466C27.8694 221.791 27.9653 222.157 27.9653 222.564C27.9653 222.971 27.8694 223.337 27.6776 223.662C27.4897 223.987 27.2313 224.241 26.9024 224.425C26.5775 224.609 26.2212 224.701 25.8337 224.701ZM25.8337 223.486C26.0921 223.486 26.2917 223.403 26.4327 223.239C26.5736 223.071 26.6441 222.846 26.6441 222.564C26.6441 222.278 26.5736 222.053 26.4327 221.888C26.2917 221.72 26.0921 221.636 25.8337 221.636C25.5714 221.636 25.3698 221.72 25.2288 221.888C25.0879 222.053 25.0174 222.278 25.0174 222.564C25.0174 222.846 25.0879 223.071 25.2288 223.239C25.3698 223.403 25.5714 223.486 25.8337 223.486ZM32.2879 220.503V221.536H31.1839V224.66H29.8802V221.536H28.788V220.503H32.2879ZM34.5324 221.542V222.053H35.8243V223.034H34.5324V223.621H36.0004V224.66H33.2287V220.503H36.0004V221.542H34.5324ZM38.3826 220.503V224.66H37.079V220.503H38.3826ZM43.546 224.66H42.2423L40.8623 222.57V224.66H39.5587V220.503H40.8623L42.2423 222.628V220.503H43.546V224.66Z" fill="#BCBCBC" fill-opacity="0.7"/>
<path d="M19.3336 235.457H16.6872V236.627C16.8003 236.503 16.9586 236.401 17.1622 236.322C17.3657 236.243 17.5863 236.203 17.8238 236.203C18.2479 236.203 18.5985 236.299 18.8756 236.491C19.1583 236.684 19.3647 236.932 19.4948 237.238C19.6249 237.543 19.6899 237.874 19.6899 238.23C19.6899 238.892 19.5033 239.418 19.1301 239.808C18.7568 240.193 18.2309 240.385 17.5524 240.385C17.1 240.385 16.707 240.308 16.3733 240.156C16.0397 239.997 15.7824 239.78 15.6014 239.503C15.4205 239.226 15.3215 238.906 15.3046 238.544H16.7211C16.755 238.719 16.837 238.866 16.9671 238.985C17.0971 239.098 17.2753 239.155 17.5015 239.155C17.7672 239.155 17.9652 239.07 18.0952 238.9C18.2253 238.731 18.2903 238.505 18.2903 238.222C18.2903 237.945 18.2225 237.733 18.0867 237.586C17.951 237.439 17.7531 237.365 17.493 237.365C17.3007 237.365 17.1424 237.413 17.018 237.509C16.8936 237.6 16.8116 237.721 16.772 237.874H15.3724V234.184H19.3336V235.457ZM20.2276 239.223C20.4198 239.07 20.5075 238.999 20.4905 239.011C21.0447 238.553 21.4801 238.177 21.7968 237.882C22.1191 237.588 22.3906 237.28 22.6111 236.958C22.8316 236.636 22.9419 236.322 22.9419 236.016C22.9419 235.785 22.8882 235.604 22.7807 235.474C22.6733 235.343 22.5121 235.278 22.2973 235.278C22.0824 235.278 21.9127 235.36 21.7883 235.524C21.6696 235.683 21.6102 235.909 21.6102 236.203H20.2106C20.2219 235.722 20.3237 235.321 20.516 234.999C20.7139 234.676 20.9712 234.439 21.2879 234.286C21.6102 234.133 21.9664 234.057 22.3566 234.057C23.0296 234.057 23.5357 234.229 23.875 234.574C24.2199 234.919 24.3924 235.369 24.3924 235.923C24.3924 236.528 24.186 237.091 23.7732 237.611C23.3604 238.126 22.8345 238.629 22.1955 239.121H24.4857V240.3H20.2276V239.223ZM26.8547 235.584C27.1883 235.584 27.4795 235.652 27.7284 235.787C27.9828 235.923 28.1779 236.101 28.3136 236.322V235.652H29.7641V240.376C29.7641 240.812 29.6765 241.205 29.5012 241.555C29.3315 241.912 29.0686 242.194 28.7123 242.404C28.3617 242.613 27.9235 242.717 27.3976 242.717C26.6964 242.717 26.128 242.551 25.6926 242.217C25.2572 241.889 25.0084 241.442 24.9462 240.877H26.3797C26.4249 241.058 26.5324 241.199 26.702 241.301C26.8717 241.408 27.0809 241.462 27.3297 241.462C27.6294 241.462 27.8669 241.374 28.0422 241.199C28.2232 241.029 28.3136 240.755 28.3136 240.376V239.706C28.1723 239.927 27.9772 240.108 27.7284 240.249C27.4795 240.385 27.1883 240.453 26.8547 240.453C26.4645 240.453 26.1111 240.354 25.7944 240.156C25.4777 239.952 25.2261 239.667 25.0395 239.299C24.8585 238.926 24.768 238.496 24.768 238.01C24.768 237.523 24.8585 237.096 25.0395 236.729C25.2261 236.361 25.4777 236.079 25.7944 235.881C26.1111 235.683 26.4645 235.584 26.8547 235.584ZM28.3136 238.018C28.3136 237.656 28.2118 237.371 28.0083 237.162C27.8104 236.952 27.5672 236.848 27.2788 236.848C26.9904 236.848 26.7444 236.952 26.5408 237.162C26.3429 237.365 26.244 237.648 26.244 238.01C26.244 238.372 26.3429 238.66 26.5408 238.875C26.7444 239.084 26.9904 239.189 27.2788 239.189C27.5672 239.189 27.8104 239.084 28.0083 238.875C28.2118 238.666 28.3136 238.38 28.3136 238.018Z" fill="#CACACA"/>
<path d="M35.5786 234.144L33.83 241.563H32.7534L34.502 234.144H35.5786ZM40.3616 236.415L38.7238 240.343H37.582L39.2393 236.539H37.2101V235.586H40.3616V236.415ZM40.8128 237.896C40.8128 237.148 40.9563 236.558 41.2434 236.128C41.5349 235.697 42.0025 235.482 42.6463 235.482C43.29 235.482 43.7555 235.697 44.0426 236.128C44.334 236.558 44.4797 237.148 44.4797 237.896C44.4797 238.653 44.334 239.247 44.0426 239.677C43.7555 240.108 43.29 240.323 42.6463 240.323C42.0025 240.323 41.5349 240.108 41.2434 239.677C40.9563 239.247 40.8128 238.653 40.8128 237.896ZM43.3836 237.896C43.3836 237.457 43.3357 237.12 43.24 236.885C43.1443 236.645 42.9464 236.526 42.6463 236.526C42.3461 236.526 42.1482 236.645 42.0525 236.885C41.9568 237.12 41.909 237.457 41.909 237.896C41.909 238.192 41.9264 238.438 41.9612 238.633C41.996 238.825 42.0656 238.981 42.17 239.103C42.2787 239.221 42.4375 239.279 42.6463 239.279C42.8551 239.279 43.0117 239.221 43.1161 239.103C43.2248 238.981 43.2966 238.825 43.3314 238.633C43.3662 238.438 43.3836 238.192 43.3836 237.896ZM46.5634 236.65C46.82 236.65 47.0441 236.702 47.2355 236.806C47.4312 236.911 47.5813 237.048 47.6857 237.217V236.702H48.8014V240.336C48.8014 240.671 48.734 240.974 48.5991 241.243C48.4687 241.517 48.2664 241.735 47.9923 241.896C47.7226 242.057 47.3855 242.137 46.981 242.137C46.4416 242.137 46.0044 242.009 45.6695 241.752C45.3346 241.5 45.1432 241.156 45.0953 240.721H46.198C46.2328 240.86 46.3155 240.969 46.446 241.047C46.5765 241.13 46.7374 241.171 46.9288 241.171C47.1593 241.171 47.342 241.104 47.4769 240.969C47.6161 240.839 47.6857 240.628 47.6857 240.336V239.821C47.5769 239.99 47.4269 240.13 47.2355 240.238C47.0441 240.343 46.82 240.395 46.5634 240.395C46.2633 240.395 45.9914 240.319 45.7478 240.167C45.5042 240.01 45.3106 239.79 45.1671 239.508C45.0279 239.221 44.9583 238.89 44.9583 238.516C44.9583 238.142 45.0279 237.813 45.1671 237.531C45.3106 237.248 45.5042 237.03 45.7478 236.878C45.9914 236.726 46.2633 236.65 46.5634 236.65ZM47.6857 238.522C47.6857 238.244 47.6074 238.024 47.4508 237.863C47.2985 237.702 47.1115 237.622 46.8896 237.622C46.6678 237.622 46.4786 237.702 46.322 237.863C46.1697 238.02 46.0936 238.237 46.0936 238.516C46.0936 238.794 46.1697 239.016 46.322 239.181C46.4786 239.342 46.6678 239.423 46.8896 239.423C47.1115 239.423 47.2985 239.342 47.4508 239.181C47.6074 239.02 47.6857 238.801 47.6857 238.522Z" fill="#BCBCBC" fill-opacity="0.7"/>
<g clip-path="url(#clip0_334_364)">
<mask id="path-7-inside-1_334_364" fill="white">
<path d="M14.592 249.979C14.592 248.898 15.4684 248.021 16.5495 248.021H81.3593C82.4404 248.021 83.3168 248.898 83.3168 249.979C83.3168 251.06 82.4404 251.936 81.3593 251.936H16.5495C15.4684 251.936 14.592 251.06 14.592 249.979Z"/>
</mask>
<path d="M14.592 249.979C14.592 248.898 15.4684 248.021 16.5495 248.021H81.3593C82.4404 248.021 83.3168 248.898 83.3168 249.979C83.3168 251.06 82.4404 251.936 81.3593 251.936H16.5495C15.4684 251.936 14.592 251.06 14.592 249.979Z" fill="white" fill-opacity="0.5"/>
<path d="M15.2446 249.979C15.2446 249.258 15.8289 248.674 16.5496 248.674H63.824C64.5447 248.674 65.1289 249.258 65.1289 249.979C65.1289 250.7 64.5447 251.284 63.824 251.284H16.5496C15.8289 251.284 15.2446 250.7 15.2446 249.979Z" fill="#5D5589"/>
</g>
<path d="M14.592 249.979M83.3168 249.979M83.3168 249.979M14.592 249.979M16.5495 248.021V248.674H81.3593V248.021V247.369H16.5495V248.021ZM83.3168 249.979M81.3593 251.936V251.284H16.5495V251.936V252.589H81.3593V251.936ZM14.592 249.979M16.5495 251.936V251.284C15.8288 251.284 15.2445 250.7 15.2445 249.979H14.592H13.9396C13.9396 251.42 15.1081 252.589 16.5495 252.589V251.936ZM83.3168 249.979H82.6643C82.6643 250.7 82.08 251.284 81.3593 251.284V251.936V252.589C82.8008 252.589 83.9693 251.42 83.9693 249.979H83.3168ZM81.3593 248.021V248.674C82.08 248.674 82.6643 249.258 82.6643 249.979H83.3168H83.9693C83.9693 248.538 82.8008 247.369 81.3593 247.369V248.021ZM16.5495 248.021V247.369C15.1081 247.369 13.9396 248.538 13.9396 249.979H14.592H15.2445C15.2445 249.258 15.8288 248.674 16.5495 248.674V248.021Z" fill="white" fill-opacity="0.5" mask="url(#path-7-inside-1_334_364)"/>
<path d="M14.7506 258.498V257.565H16.3772V261.852H15.332V258.498H14.7506ZM17.7688 259.55C17.4008 259.354 17.2168 259.047 17.2168 258.628C17.2168 258.416 17.2716 258.224 17.3813 258.052C17.4909 257.876 17.6573 257.737 17.8804 257.635C18.1036 257.53 18.3776 257.477 18.7025 257.477C19.0275 257.477 19.2996 257.53 19.5188 257.635C19.7419 257.737 19.9083 257.876 20.0179 258.052C20.1276 258.224 20.1824 258.416 20.1824 258.628C20.1824 258.839 20.1315 259.023 20.0297 259.18C19.9318 259.336 19.7987 259.46 19.6304 259.55C19.8418 259.651 20.0042 259.792 20.1178 259.972C20.2313 260.149 20.2881 260.356 20.2881 260.595C20.2881 260.873 20.2176 261.114 20.0767 261.317C19.9357 261.517 19.7439 261.67 19.5012 261.775C19.2624 261.881 18.9962 261.934 18.7025 261.934C18.4089 261.934 18.1408 261.881 17.898 261.775C17.6592 261.67 17.4694 261.517 17.3284 261.317C17.1875 261.114 17.117 260.873 17.117 260.595C17.117 260.352 17.1738 260.143 17.2873 259.967C17.4008 259.786 17.5614 259.647 17.7688 259.55ZM19.2076 258.78C19.2076 258.62 19.1606 258.496 19.0666 258.41C18.9766 258.32 18.8552 258.275 18.7025 258.275C18.5499 258.275 18.4265 258.32 18.3326 258.41C18.2425 258.5 18.1975 258.626 18.1975 258.786C18.1975 258.939 18.2445 259.06 18.3385 259.15C18.4324 259.236 18.5538 259.279 18.7025 259.279C18.8513 259.279 18.9727 259.234 19.0666 259.144C19.1606 259.054 19.2076 258.933 19.2076 258.78ZM18.7025 259.984C18.5185 259.984 18.3698 260.035 18.2562 260.137C18.1427 260.235 18.0859 260.372 18.0859 260.548C18.0859 260.712 18.1408 260.847 18.2504 260.953C18.3639 261.059 18.5146 261.112 18.7025 261.112C18.8905 261.112 19.0373 261.059 19.143 260.953C19.2526 260.847 19.3074 260.712 19.3074 260.548C19.3074 260.376 19.2506 260.239 19.1371 260.137C19.0275 260.035 18.8826 259.984 18.7025 259.984ZM22.2168 258.528C22.4478 258.528 22.6494 258.575 22.8216 258.669C22.9978 258.763 23.1329 258.886 23.2268 259.039V258.575H24.231V261.846C24.231 262.147 24.1703 262.419 24.0489 262.662C23.9315 262.909 23.7495 263.104 23.5028 263.249C23.2601 263.394 22.9567 263.466 22.5926 263.466C22.1072 263.466 21.7137 263.351 21.4123 263.12C21.1108 262.893 20.9386 262.584 20.8955 262.192H21.8879C21.9192 262.317 21.9936 262.415 22.1111 262.486C22.2285 262.56 22.3734 262.597 22.5456 262.597C22.7531 262.597 22.9175 262.537 23.0389 262.415C23.1642 262.298 23.2268 262.108 23.2268 261.846V261.382C23.1289 261.534 22.9939 261.66 22.8216 261.758C22.6494 261.852 22.4478 261.899 22.2168 261.899C21.9466 261.899 21.702 261.83 21.4827 261.693C21.2635 261.552 21.0893 261.354 20.9601 261.1C20.8348 260.842 20.7722 260.544 20.7722 260.207C20.7722 259.871 20.8348 259.575 20.9601 259.321C21.0893 259.066 21.2635 258.87 21.4827 258.733C21.702 258.596 21.9466 258.528 22.2168 258.528ZM23.2268 260.213C23.2268 259.963 23.1563 259.765 23.0154 259.62C22.8784 259.475 22.71 259.403 22.5104 259.403C22.3107 259.403 22.1404 259.475 21.9995 259.62C21.8625 259.761 21.794 259.957 21.794 260.207C21.794 260.458 21.8625 260.658 21.9995 260.806C22.1404 260.951 22.3107 261.024 22.5104 261.024C22.71 261.024 22.8784 260.951 23.0154 260.806C23.1563 260.661 23.2268 260.464 23.2268 260.213ZM27.2061 259.121C27.3235 258.941 27.4703 258.8 27.6465 258.698C27.8227 258.592 28.0184 258.54 28.2337 258.54V259.602H27.9577C27.7072 259.602 27.5193 259.657 27.394 259.767C27.2687 259.873 27.2061 260.06 27.2061 260.331V261.852H26.2019V258.575H27.2061V259.121ZM31.8025 260.16C31.8025 260.254 31.7967 260.352 31.7849 260.454H29.5123C29.528 260.658 29.5926 260.814 29.7061 260.924C29.8236 261.029 29.9665 261.082 30.1348 261.082C30.3854 261.082 30.5596 260.977 30.6574 260.765H31.7262C31.6714 260.98 31.5716 261.174 31.4267 261.347C31.2858 261.519 31.1076 261.654 30.8923 261.752C30.677 261.85 30.4362 261.899 30.17 261.899C29.849 261.899 29.5632 261.83 29.3127 261.693C29.0621 261.556 28.8664 261.36 28.7254 261.106C28.5845 260.851 28.514 260.554 28.514 260.213C28.514 259.873 28.5825 259.575 28.7196 259.321C28.8605 259.066 29.0562 258.87 29.3068 258.733C29.5574 258.596 29.8451 258.528 30.17 258.528C30.4871 258.528 30.769 258.594 31.0156 258.727C31.2623 258.861 31.4541 259.05 31.5911 259.297C31.7321 259.544 31.8025 259.831 31.8025 260.16ZM30.7749 259.896C30.7749 259.724 30.7162 259.587 30.5987 259.485C30.4813 259.383 30.3345 259.332 30.1583 259.332C29.9899 259.332 29.8471 259.381 29.7296 259.479C29.6161 259.577 29.5456 259.716 29.5182 259.896H30.7749ZM36.5134 258.54C36.9205 258.54 37.2435 258.663 37.4823 258.91C37.7251 259.156 37.8464 259.499 37.8464 259.937V261.852H36.8481V260.072C36.8481 259.861 36.7914 259.698 36.6778 259.585C36.5682 259.467 36.4155 259.409 36.2198 259.409C36.024 259.409 35.8694 259.467 35.7559 259.585C35.6462 259.698 35.5914 259.861 35.5914 260.072V261.852H34.5931V260.072C34.5931 259.861 34.5364 259.698 34.4228 259.585C34.3132 259.467 34.1605 259.409 33.9648 259.409C33.7691 259.409 33.6144 259.467 33.5009 259.585C33.3913 259.698 33.3365 259.861 33.3365 260.072V261.852H32.3323V258.575H33.3365V258.986C33.4382 258.849 33.5714 258.741 33.7358 258.663C33.9002 258.581 34.0862 258.54 34.2937 258.54C34.5403 258.54 34.7595 258.592 34.9514 258.698C35.1471 258.804 35.2998 258.955 35.4094 259.15C35.5229 258.97 35.6776 258.823 35.8733 258.71C36.0691 258.596 36.2824 258.54 36.5134 258.54ZM38.3491 260.207C38.3491 259.871 38.4117 259.575 38.537 259.321C38.6662 259.066 38.8404 258.87 39.0596 258.733C39.2788 258.596 39.5235 258.528 39.7937 258.528C40.0246 258.528 40.2262 258.575 40.3985 258.669C40.5747 258.763 40.7097 258.886 40.8037 259.039V258.575H41.8079V261.852H40.8037V261.388C40.7058 261.54 40.5688 261.664 40.3926 261.758C40.2204 261.852 40.0188 261.899 39.7878 261.899C39.5216 261.899 39.2788 261.83 39.0596 261.693C38.8404 261.552 38.6662 261.354 38.537 261.1C38.4117 260.842 38.3491 260.544 38.3491 260.207ZM40.8037 260.213C40.8037 259.963 40.7332 259.765 40.5923 259.62C40.4553 259.475 40.2869 259.403 40.0873 259.403C39.8876 259.403 39.7173 259.475 39.5764 259.62C39.4394 259.761 39.3708 259.957 39.3708 260.207C39.3708 260.458 39.4394 260.658 39.5764 260.806C39.7173 260.951 39.8876 261.024 40.0873 261.024C40.2869 261.024 40.4553 260.951 40.5923 260.806C40.7332 260.661 40.8037 260.464 40.8037 260.213ZM43.0394 258.234C42.8632 258.234 42.7183 258.183 42.6048 258.082C42.4952 257.976 42.4404 257.847 42.4404 257.694C42.4404 257.537 42.4952 257.408 42.6048 257.306C42.7183 257.201 42.8632 257.148 43.0394 257.148C43.2116 257.148 43.3525 257.201 43.4622 257.306C43.5757 257.408 43.6325 257.537 43.6325 257.694C43.6325 257.847 43.5757 257.976 43.4622 258.082C43.3525 258.183 43.2116 258.234 43.0394 258.234ZM43.5385 258.575V261.852H42.5343V258.575H43.5385ZM46.2628 258.54C46.6465 258.54 46.9518 258.665 47.1789 258.915C47.4099 259.162 47.5254 259.503 47.5254 259.937V261.852H46.5271V260.072C46.5271 259.853 46.4703 259.683 46.3568 259.561C46.2432 259.44 46.0906 259.379 45.8987 259.379C45.7069 259.379 45.5542 259.44 45.4407 259.561C45.3272 259.683 45.2704 259.853 45.2704 260.072V261.852H44.2662V258.575H45.2704V259.009C45.3722 258.864 45.5092 258.751 45.6815 258.669C45.8537 258.583 46.0475 258.54 46.2628 258.54ZM48.7282 258.234C48.552 258.234 48.4072 258.183 48.2936 258.082C48.184 257.976 48.1292 257.847 48.1292 257.694C48.1292 257.537 48.184 257.408 48.2936 257.306C48.4072 257.201 48.552 257.148 48.7282 257.148C48.9004 257.148 49.0414 257.201 49.151 257.306C49.2645 257.408 49.3213 257.537 49.3213 257.694C49.3213 257.847 49.2645 257.976 49.151 258.082C49.0414 258.183 48.9004 258.234 48.7282 258.234ZM49.2273 258.575V261.852H48.2232V258.575H49.2273ZM51.9516 258.54C52.3353 258.54 52.6407 258.665 52.8677 258.915C53.0987 259.162 53.2142 259.503 53.2142 259.937V261.852H52.2159V260.072C52.2159 259.853 52.1591 259.683 52.0456 259.561C51.9321 259.44 51.7794 259.379 51.5876 259.379C51.3957 259.379 51.2431 259.44 51.1295 259.561C51.016 259.683 50.9592 259.853 50.9592 260.072V261.852H49.9551V258.575H50.9592V259.009C51.061 258.864 51.198 258.751 51.3703 258.669C51.5425 258.583 51.7363 258.54 51.9516 258.54ZM55.1569 258.528C55.3879 258.528 55.5895 258.575 55.7618 258.669C55.938 258.763 56.073 258.886 56.167 259.039V258.575H57.1711V261.846C57.1711 262.147 57.1105 262.419 56.9891 262.662C56.8717 262.909 56.6896 263.104 56.443 263.249C56.2003 263.394 55.8968 263.466 55.5328 263.466C55.0473 263.466 54.6539 263.351 54.3524 263.12C54.051 262.893 53.8787 262.584 53.8357 262.192H54.8281C54.8594 262.317 54.9338 262.415 55.0512 262.486C55.1687 262.56 55.3135 262.597 55.4858 262.597C55.6933 262.597 55.8577 262.537 55.9791 262.415C56.1043 262.298 56.167 262.108 56.167 261.846V261.382C56.0691 261.534 55.934 261.66 55.7618 261.758C55.5895 261.852 55.3879 261.899 55.1569 261.899C54.8868 261.899 54.6421 261.83 54.4229 261.693C54.2037 261.552 54.0294 261.354 53.9003 261.1C53.775 260.842 53.7123 260.544 53.7123 260.207C53.7123 259.871 53.775 259.575 53.9003 259.321C54.0294 259.066 54.2037 258.87 54.4229 258.733C54.6421 258.596 54.8868 258.528 55.1569 258.528ZM56.167 260.213C56.167 259.963 56.0965 259.765 55.9556 259.62C55.8186 259.475 55.6502 259.403 55.4506 259.403C55.2509 259.403 55.0806 259.475 54.9397 259.62C54.8026 259.761 54.7341 259.957 54.7341 260.207C54.7341 260.458 54.8026 260.658 54.9397 260.806C55.0806 260.951 55.2509 261.024 55.4506 261.024C55.6502 261.024 55.8186 260.951 55.9556 260.806C56.0965 260.661 56.167 260.464 56.167 260.213Z" fill="#BCBCBC" fill-opacity="0.7"/>
<path d="M91.3228 222.575C91.3228 222.164 91.405 221.798 91.5694 221.477C91.7378 221.156 91.9766 220.908 92.2858 220.732C92.5951 220.551 92.9592 220.461 93.3781 220.461C93.7383 220.461 94.0593 220.53 94.3412 220.667C94.6269 220.8 94.8579 220.99 95.0341 221.237C95.2142 221.483 95.3336 221.771 95.3923 222.1H94.0182C93.9555 221.963 93.8655 221.857 93.7481 221.783C93.6345 221.704 93.5034 221.665 93.3546 221.665C93.1354 221.665 92.9612 221.747 92.832 221.912C92.7067 222.076 92.6441 222.298 92.6441 222.575C92.6441 222.853 92.7067 223.075 92.832 223.239C92.9612 223.403 93.1354 223.486 93.3546 223.486C93.5034 223.486 93.6345 223.448 93.7481 223.374C93.8655 223.296 93.9555 223.188 94.0182 223.051H95.3923C95.3336 223.38 95.2142 223.668 95.0341 223.914C94.8579 224.161 94.6269 224.353 94.3412 224.49C94.0593 224.623 93.7383 224.69 93.3781 224.69C92.9592 224.69 92.5951 224.601 92.2858 224.425C91.9766 224.245 91.7378 223.995 91.5694 223.674C91.405 223.353 91.3228 222.987 91.3228 222.575ZM99.115 224.032H97.7291L97.5236 224.66H96.1553L97.6762 220.503H99.1796L100.695 224.66H99.3205L99.115 224.032ZM98.7979 223.051L98.422 221.894L98.0462 223.051H98.7979ZM103.669 224.66L102.888 223.169H102.882V224.66H101.578V220.503H103.516C103.853 220.503 104.14 220.563 104.379 220.685C104.618 220.802 104.796 220.964 104.914 221.172C105.035 221.376 105.096 221.607 105.096 221.865C105.096 222.143 105.017 222.39 104.861 222.605C104.708 222.82 104.487 222.975 104.197 223.069L105.101 224.66H103.669ZM102.882 222.299H103.398C103.524 222.299 103.618 222.272 103.68 222.217C103.743 222.159 103.774 222.068 103.774 221.947C103.774 221.838 103.741 221.751 103.674 221.689C103.612 221.626 103.52 221.595 103.398 221.595H102.882V222.299ZM108.883 222.528C109.133 222.587 109.327 222.709 109.464 222.893C109.605 223.073 109.676 223.282 109.676 223.521C109.676 223.885 109.554 224.167 109.311 224.367C109.073 224.562 108.728 224.66 108.278 224.66H106.099V220.503H108.219C108.642 220.503 108.975 220.595 109.217 220.779C109.46 220.963 109.582 221.231 109.582 221.583C109.582 221.826 109.517 222.031 109.388 222.2C109.263 222.364 109.094 222.474 108.883 222.528ZM107.403 222.123H107.908C108.025 222.123 108.112 222.1 108.166 222.053C108.225 222.006 108.254 221.933 108.254 221.836C108.254 221.734 108.225 221.659 108.166 221.612C108.112 221.562 108.025 221.536 107.908 221.536H107.403V222.123ZM107.996 223.615C108.113 223.615 108.2 223.593 108.254 223.55C108.313 223.503 108.343 223.429 108.343 223.327C108.343 223.127 108.227 223.028 107.996 223.028H107.403V223.615H107.996ZM112.327 224.701C111.83 224.701 111.419 224.586 111.094 224.355C110.773 224.12 110.599 223.777 110.572 223.327H111.957C111.977 223.566 112.083 223.685 112.275 223.685C112.345 223.685 112.404 223.67 112.451 223.638C112.502 223.603 112.527 223.55 112.527 223.48C112.527 223.382 112.474 223.304 112.369 223.245C112.263 223.182 112.098 223.112 111.875 223.034C111.609 222.94 111.388 222.848 111.212 222.758C111.039 222.667 110.891 222.536 110.765 222.364C110.64 222.192 110.579 221.971 110.583 221.7C110.583 221.43 110.652 221.201 110.789 221.013C110.93 220.822 111.12 220.677 111.359 220.579C111.601 220.481 111.873 220.432 112.175 220.432C112.684 220.432 113.087 220.55 113.384 220.784C113.686 221.019 113.844 221.35 113.86 221.777H112.457C112.453 221.659 112.423 221.575 112.369 221.524C112.314 221.473 112.247 221.448 112.169 221.448C112.114 221.448 112.069 221.468 112.034 221.507C111.999 221.542 111.981 221.593 111.981 221.659C111.981 221.753 112.032 221.832 112.134 221.894C112.239 221.953 112.406 222.025 112.633 222.112C112.895 222.209 113.11 222.303 113.279 222.393C113.451 222.483 113.6 222.609 113.725 222.769C113.85 222.93 113.913 223.131 113.913 223.374C113.913 223.629 113.85 223.858 113.725 224.061C113.6 224.261 113.418 224.417 113.179 224.531C112.94 224.644 112.656 224.701 112.327 224.701Z" fill="#BCBCBC" fill-opacity="0.7"/>
<path d="M91.3753 235.541V234.193H93.7249V240.385H92.215V235.541H91.3753ZM97.5671 235.864C97.5219 235.654 97.4427 235.499 97.3296 235.397C97.2165 235.29 97.0554 235.236 96.8461 235.236C96.5238 235.236 96.292 235.377 96.1506 235.66C96.0092 235.937 95.9357 236.378 95.93 236.983C96.0544 236.785 96.2326 236.63 96.4644 236.517C96.7019 236.404 96.9621 236.347 97.2448 236.347C97.799 236.347 98.2429 236.523 98.5765 236.873C98.9158 237.224 99.0854 237.713 99.0854 238.341C99.0854 238.753 99.0006 239.115 98.831 239.426C98.667 239.737 98.4238 239.98 98.1015 240.156C97.7848 240.331 97.4088 240.419 96.9734 240.419C96.1025 240.419 95.4974 240.147 95.1582 239.604C94.8189 239.056 94.6492 238.27 94.6492 237.246C94.6492 236.172 94.8273 235.375 95.1836 234.854C95.5455 234.328 96.1223 234.065 96.914 234.065C97.3381 234.065 97.6944 234.15 97.9828 234.32C98.2768 234.484 98.4973 234.702 98.6444 234.973C98.797 235.245 98.8875 235.541 98.9158 235.864H97.5671ZM96.897 237.492C96.6539 237.492 96.4503 237.566 96.2863 237.713C96.128 237.854 96.0488 238.058 96.0488 238.324C96.0488 238.595 96.1223 238.807 96.2693 238.96C96.422 239.112 96.6369 239.189 96.914 239.189C97.1628 239.189 97.3579 239.115 97.4993 238.968C97.6463 238.816 97.7198 238.609 97.7198 238.349C97.7198 238.083 97.6491 237.874 97.5077 237.721C97.3664 237.569 97.1628 237.492 96.897 237.492ZM99.6938 237.204C99.6938 236.231 99.8804 235.465 100.254 234.905C100.632 234.345 101.24 234.065 102.077 234.065C102.914 234.065 103.519 234.345 103.893 234.905C104.271 235.465 104.461 236.231 104.461 237.204C104.461 238.188 104.271 238.96 103.893 239.52C103.519 240.079 102.914 240.359 102.077 240.359C101.24 240.359 100.632 240.079 100.254 239.52C99.8804 238.96 99.6938 238.188 99.6938 237.204ZM103.036 237.204C103.036 236.633 102.974 236.195 102.849 235.889C102.725 235.578 102.467 235.423 102.077 235.423C101.687 235.423 101.43 235.578 101.305 235.889C101.181 236.195 101.119 236.633 101.119 237.204C101.119 237.588 101.141 237.908 101.187 238.162C101.232 238.411 101.322 238.615 101.458 238.773C101.599 238.926 101.806 239.002 102.077 239.002C102.349 239.002 102.552 238.926 102.688 238.773C102.829 238.615 102.923 238.411 102.968 238.162C103.013 237.908 103.036 237.588 103.036 237.204ZM106.958 235.584C107.291 235.584 107.582 235.652 107.831 235.787C108.086 235.923 108.281 236.101 108.416 236.322V235.652H109.867V240.376C109.867 240.812 109.779 241.205 109.604 241.555C109.434 241.912 109.171 242.194 108.815 242.404C108.465 242.613 108.026 242.717 107.5 242.717C106.799 242.717 106.231 242.551 105.795 242.217C105.36 241.889 105.111 241.442 105.049 240.877H106.483C106.528 241.058 106.635 241.199 106.805 241.301C106.974 241.408 107.184 241.462 107.433 241.462C107.732 241.462 107.97 241.374 108.145 241.199C108.326 241.029 108.416 240.755 108.416 240.376V239.706C108.275 239.927 108.08 240.108 107.831 240.249C107.582 240.385 107.291 240.453 106.958 240.453C106.567 240.453 106.214 240.354 105.897 240.156C105.581 239.952 105.329 239.667 105.142 239.299C104.961 238.926 104.871 238.496 104.871 238.01C104.871 237.523 104.961 237.096 105.142 236.729C105.329 236.361 105.581 236.079 105.897 235.881C106.214 235.683 106.567 235.584 106.958 235.584ZM108.416 238.018C108.416 237.656 108.315 237.371 108.111 237.162C107.913 236.952 107.67 236.848 107.382 236.848C107.093 236.848 106.847 236.952 106.644 237.162C106.446 237.365 106.347 237.648 106.347 238.01C106.347 238.372 106.446 238.66 106.644 238.875C106.847 239.084 107.093 239.189 107.382 239.189C107.67 239.189 107.913 239.084 108.111 238.875C108.315 238.666 108.416 238.38 108.416 238.018Z" fill="#CACACA"/>
<path d="M115.691 234.144L113.942 241.563H112.865L114.614 234.144H115.691ZM117.394 239.449C117.542 239.331 117.609 239.277 117.596 239.286C118.022 238.933 118.357 238.644 118.601 238.418C118.849 238.192 119.058 237.955 119.227 237.707C119.397 237.459 119.482 237.217 119.482 236.982C119.482 236.804 119.441 236.665 119.358 236.565C119.275 236.465 119.151 236.415 118.986 236.415C118.821 236.415 118.69 236.478 118.594 236.604C118.503 236.726 118.457 236.9 118.457 237.126H117.381C117.39 236.756 117.468 236.447 117.616 236.2C117.768 235.952 117.966 235.769 118.21 235.651C118.457 235.534 118.731 235.475 119.032 235.475C119.549 235.475 119.939 235.608 120.2 235.873C120.465 236.139 120.598 236.484 120.598 236.911C120.598 237.376 120.439 237.809 120.121 238.209C119.804 238.605 119.399 238.992 118.908 239.371H120.669V240.278H117.394V239.449ZM121.161 237.896C121.161 237.148 121.304 236.558 121.591 236.128C121.883 235.697 122.35 235.482 122.994 235.482C123.638 235.482 124.103 235.697 124.39 236.128C124.682 236.558 124.828 237.148 124.828 237.896C124.828 238.653 124.682 239.247 124.39 239.677C124.103 240.108 123.638 240.323 122.994 240.323C122.35 240.323 121.883 240.108 121.591 239.677C121.304 239.247 121.161 238.653 121.161 237.896ZM123.731 237.896C123.731 237.457 123.684 237.12 123.588 236.885C123.492 236.645 123.294 236.526 122.994 236.526C122.694 236.526 122.496 236.645 122.4 236.885C122.305 237.12 122.257 237.457 122.257 237.896C122.257 238.192 122.274 238.438 122.309 238.633C122.344 238.825 122.413 238.981 122.518 239.103C122.627 239.221 122.785 239.279 122.994 239.279C123.203 239.279 123.359 239.221 123.464 239.103C123.573 238.981 123.644 238.825 123.679 238.633C123.714 238.438 123.731 238.192 123.731 237.896ZM125.417 237.896C125.417 237.148 125.561 236.558 125.848 236.128C126.139 235.697 126.607 235.482 127.251 235.482C127.894 235.482 128.36 235.697 128.647 236.128C128.938 236.558 129.084 237.148 129.084 237.896C129.084 238.653 128.938 239.247 128.647 239.677C128.36 240.108 127.894 240.323 127.251 240.323C126.607 240.323 126.139 240.108 125.848 239.677C125.561 239.247 125.417 238.653 125.417 237.896ZM127.988 237.896C127.988 237.457 127.94 237.12 127.844 236.885C127.749 236.645 127.551 236.526 127.251 236.526C126.95 236.526 126.752 236.645 126.657 236.885C126.561 237.12 126.513 237.457 126.513 237.896C126.513 238.192 126.531 238.438 126.565 238.633C126.6 238.825 126.67 238.981 126.774 239.103C126.883 239.221 127.042 239.279 127.251 239.279C127.459 239.279 127.616 239.221 127.72 239.103C127.829 238.981 127.901 238.825 127.936 238.633C127.97 238.438 127.988 238.192 127.988 237.896ZM131.168 236.65C131.424 236.65 131.648 236.702 131.84 236.806C132.035 236.911 132.186 237.048 132.29 237.217V236.702H133.406V240.336C133.406 240.671 133.338 240.974 133.203 241.243C133.073 241.517 132.871 241.735 132.597 241.896C132.327 242.057 131.99 242.137 131.585 242.137C131.046 242.137 130.609 242.009 130.274 241.752C129.939 241.5 129.747 241.156 129.7 240.721H130.802C130.837 240.86 130.92 240.969 131.05 241.047C131.181 241.13 131.342 241.171 131.533 241.171C131.764 241.171 131.946 241.104 132.081 240.969C132.22 240.839 132.29 240.628 132.29 240.336V239.821C132.181 239.99 132.031 240.13 131.84 240.238C131.648 240.343 131.424 240.395 131.168 240.395C130.868 240.395 130.596 240.319 130.352 240.167C130.108 240.01 129.915 239.79 129.771 239.508C129.632 239.221 129.563 238.89 129.563 238.516C129.563 238.142 129.632 237.813 129.771 237.531C129.915 237.248 130.108 237.03 130.352 236.878C130.596 236.726 130.868 236.65 131.168 236.65ZM132.29 238.522C132.29 238.244 132.212 238.024 132.055 237.863C131.903 237.702 131.716 237.622 131.494 237.622C131.272 237.622 131.083 237.702 130.926 237.863C130.774 238.02 130.698 238.237 130.698 238.516C130.698 238.794 130.774 239.016 130.926 239.181C131.083 239.342 131.272 239.423 131.494 239.423C131.716 239.423 131.903 239.342 132.055 239.181C132.212 239.02 132.29 238.801 132.29 238.522Z" fill="#BCBCBC" fill-opacity="0.7"/>
<g clip-path="url(#clip1_334_364)">
<mask id="path-14-inside-2_334_364" fill="white">
<path d="M91.1466 249.979C91.1466 248.898 92.023 248.021 93.1041 248.021H157.924C159.005 248.021 159.882 248.898 159.882 249.979C159.882 251.06 159.005 251.936 157.924 251.936H93.104C92.023 251.936 91.1466 251.06 91.1466 249.979Z"/>
</mask>
<path d="M91.1466 249.979C91.1466 248.898 92.023 248.021 93.1041 248.021H157.924C159.005 248.021 159.882 248.898 159.882 249.979C159.882 251.06 159.005 251.936 157.924 251.936H93.104C92.023 251.936 91.1466 251.06 91.1466 249.979Z" fill="white" fill-opacity="0.5"/>
<path d="M91.7991 249.979C91.7991 249.258 92.3833 248.674 93.104 248.674H144.436C145.157 248.674 145.741 249.258 145.741 249.979C145.741 250.7 145.157 251.284 144.436 251.284H93.104C92.3833 251.284 91.7991 250.7 91.7991 249.979Z" fill="#558FE6"/>
</g>
<path d="M91.1466 249.979M159.882 249.979M159.882 249.979M91.1466 249.979M93.1041 248.021V248.674H157.924V248.021V247.369H93.1041V248.021ZM159.882 249.979M157.924 251.936V251.284H93.104V251.936V252.589H157.924V251.936ZM91.1466 249.979M93.104 251.936V251.284C92.3833 251.284 91.7991 250.7 91.7991 249.979H91.1466H90.4941C90.4941 251.42 91.6626 252.589 93.104 252.589V251.936ZM159.882 249.979H159.229C159.229 250.7 158.645 251.284 157.924 251.284V251.936V252.589C159.366 252.589 160.534 251.42 160.534 249.979H159.882ZM157.924 248.021V248.674C158.645 248.674 159.229 249.258 159.229 249.979H159.882H160.534C160.534 248.538 159.366 247.369 157.924 247.369V248.021ZM93.1041 248.021V247.369C91.6626 247.369 90.4941 248.538 90.4941 249.979H91.1466H91.7991C91.7991 249.258 92.3833 248.674 93.1041 248.674V248.021Z" fill="white" fill-opacity="0.5" mask="url(#path-14-inside-2_334_364)"/>
<path d="M91.4344 261.088V260.278L93.29 257.623H94.4116V260.219H94.8932V261.088H94.4116V261.852H93.4075V261.088H91.4344ZM93.4779 258.727L92.4914 260.219H93.4779V258.727ZM95.385 259.649C95.385 258.976 95.5142 258.446 95.7726 258.058C96.0349 257.67 96.4557 257.477 97.0351 257.477C97.6145 257.477 98.0334 257.67 98.2918 258.058C98.5541 258.446 98.6853 258.976 98.6853 259.649C98.6853 260.331 98.5541 260.865 98.2918 261.253C98.0334 261.64 97.6145 261.834 97.0351 261.834C96.4557 261.834 96.0349 261.64 95.7726 261.253C95.5142 260.865 95.385 260.331 95.385 259.649ZM97.6987 259.649C97.6987 259.254 97.6557 258.951 97.5695 258.739C97.4834 258.524 97.3053 258.416 97.0351 258.416C96.765 258.416 96.5869 258.524 96.5008 258.739C96.4146 258.951 96.3716 259.254 96.3716 259.649C96.3716 259.916 96.3872 260.137 96.4185 260.313C96.4499 260.485 96.5125 260.626 96.6065 260.736C96.7043 260.842 96.8472 260.894 97.0351 260.894C97.2231 260.894 97.364 260.842 97.458 260.736C97.5558 260.626 97.6204 260.485 97.6517 260.313C97.6831 260.137 97.6987 259.916 97.6987 259.649ZM100.561 258.528C100.792 258.528 100.993 258.575 101.165 258.669C101.342 258.763 101.477 258.886 101.571 259.039V258.575H102.575V261.846C102.575 262.147 102.514 262.419 102.393 262.662C102.275 262.909 102.093 263.104 101.847 263.249C101.604 263.394 101.3 263.466 100.936 263.466C100.451 263.466 100.058 263.351 99.7561 263.12C99.4546 262.893 99.2824 262.584 99.2393 262.192H100.232C100.263 262.317 100.337 262.415 100.455 262.486C100.572 262.56 100.717 262.597 100.889 262.597C101.097 262.597 101.261 262.537 101.383 262.415C101.508 262.298 101.571 262.108 101.571 261.846V261.382C101.473 261.534 101.338 261.66 101.165 261.758C100.993 261.852 100.792 261.899 100.561 261.899C100.29 261.899 100.046 261.83 99.8265 261.693C99.6073 261.552 99.4331 261.354 99.3039 261.1C99.1786 260.842 99.116 260.544 99.116 260.207C99.116 259.871 99.1786 259.575 99.3039 259.321C99.4331 259.066 99.6073 258.87 99.8265 258.733C100.046 258.596 100.29 258.528 100.561 258.528ZM101.571 260.213C101.571 259.963 101.5 259.765 101.359 259.62C101.222 259.475 101.054 259.403 100.854 259.403C100.655 259.403 100.484 259.475 100.343 259.62C100.206 259.761 100.138 259.957 100.138 260.207C100.138 260.458 100.206 260.658 100.343 260.806C100.484 260.951 100.655 261.024 100.854 261.024C101.054 261.024 101.222 260.951 101.359 260.806C101.5 260.661 101.571 260.464 101.571 260.213ZM105.55 259.121C105.667 258.941 105.814 258.8 105.99 258.698C106.166 258.592 106.362 258.54 106.578 258.54V259.602H106.302C106.051 259.602 105.863 259.657 105.738 259.767C105.612 259.873 105.55 260.06 105.55 260.331V261.852H104.546V258.575H105.55V259.121ZM110.146 260.16C110.146 260.254 110.14 260.352 110.129 260.454H107.856C107.872 260.658 107.936 260.814 108.05 260.924C108.167 261.029 108.31 261.082 108.479 261.082C108.729 261.082 108.903 260.977 109.001 260.765H110.07C110.015 260.98 109.915 261.174 109.771 261.347C109.63 261.519 109.451 261.654 109.236 261.752C109.021 261.85 108.78 261.899 108.514 261.899C108.193 261.899 107.907 261.83 107.656 261.693C107.406 261.556 107.21 261.36 107.069 261.106C106.928 260.851 106.858 260.554 106.858 260.213C106.858 259.873 106.926 259.575 107.063 259.321C107.204 259.066 107.4 258.87 107.651 258.733C107.901 258.596 108.189 258.528 108.514 258.528C108.831 258.528 109.113 258.594 109.359 258.727C109.606 258.861 109.798 259.05 109.935 259.297C110.076 259.544 110.146 259.831 110.146 260.16ZM109.119 259.896C109.119 259.724 109.06 259.587 108.943 259.485C108.825 259.383 108.678 259.332 108.502 259.332C108.334 259.332 108.191 259.381 108.073 259.479C107.96 259.577 107.889 259.716 107.862 259.896H109.119ZM114.857 258.54C115.264 258.54 115.587 258.663 115.826 258.91C116.069 259.156 116.19 259.499 116.19 259.937V261.852H115.192V260.072C115.192 259.861 115.135 259.698 115.022 259.585C114.912 259.467 114.759 259.409 114.564 259.409C114.368 259.409 114.213 259.467 114.1 259.585C113.99 259.698 113.935 259.861 113.935 260.072V261.852H112.937V260.072C112.937 259.861 112.88 259.698 112.767 259.585C112.657 259.467 112.504 259.409 112.309 259.409C112.113 259.409 111.958 259.467 111.845 259.585C111.735 259.698 111.68 259.861 111.68 260.072V261.852H110.676V258.575H111.68V258.986C111.782 258.849 111.915 258.741 112.08 258.663C112.244 258.581 112.43 258.54 112.637 258.54C112.884 258.54 113.103 258.592 113.295 258.698C113.491 258.804 113.644 258.955 113.753 259.15C113.867 258.97 114.021 258.823 114.217 258.71C114.413 258.596 114.626 258.54 114.857 258.54ZM116.693 260.207C116.693 259.871 116.755 259.575 116.881 259.321C117.01 259.066 117.184 258.87 117.403 258.733C117.623 258.596 117.867 258.528 118.137 258.528C118.368 258.528 118.57 258.575 118.742 258.669C118.918 258.763 119.054 258.886 119.147 259.039V258.575H120.152V261.852H119.147V261.388C119.05 261.54 118.913 261.664 118.736 261.758C118.564 261.852 118.363 261.899 118.132 261.899C117.865 261.899 117.623 261.83 117.403 261.693C117.184 261.552 117.01 261.354 116.881 261.1C116.755 260.842 116.693 260.544 116.693 260.207ZM119.147 260.213C119.147 259.963 119.077 259.765 118.936 259.62C118.799 259.475 118.631 259.403 118.431 259.403C118.231 259.403 118.061 259.475 117.92 259.62C117.783 259.761 117.715 259.957 117.715 260.207C117.715 260.458 117.783 260.658 117.92 260.806C118.061 260.951 118.231 261.024 118.431 261.024C118.631 261.024 118.799 260.951 118.936 260.806C119.077 260.661 119.147 260.464 119.147 260.213ZM121.383 258.234C121.207 258.234 121.062 258.183 120.949 258.082C120.839 257.976 120.784 257.847 120.784 257.694C120.784 257.537 120.839 257.408 120.949 257.306C121.062 257.201 121.207 257.148 121.383 257.148C121.555 257.148 121.696 257.201 121.806 257.306C121.919 257.408 121.976 257.537 121.976 257.694C121.976 257.847 121.919 257.976 121.806 258.082C121.696 258.183 121.555 258.234 121.383 258.234ZM121.882 258.575V261.852H120.878V258.575H121.882ZM124.607 258.54C124.99 258.54 125.296 258.665 125.523 258.915C125.754 259.162 125.869 259.503 125.869 259.937V261.852H124.871V260.072C124.871 259.853 124.814 259.683 124.701 259.561C124.587 259.44 124.434 259.379 124.243 259.379C124.051 259.379 123.898 259.44 123.784 259.561C123.671 259.683 123.614 259.853 123.614 260.072V261.852H122.61V258.575H123.614V259.009C123.716 258.864 123.853 258.751 124.025 258.669C124.198 258.583 124.391 258.54 124.607 258.54ZM127.072 258.234C126.896 258.234 126.751 258.183 126.637 258.082C126.528 257.976 126.473 257.847 126.473 257.694C126.473 257.537 126.528 257.408 126.637 257.306C126.751 257.201 126.896 257.148 127.072 257.148C127.244 257.148 127.385 257.201 127.495 257.306C127.608 257.408 127.665 257.537 127.665 257.694C127.665 257.847 127.608 257.976 127.495 258.082C127.385 258.183 127.244 258.234 127.072 258.234ZM127.571 258.575V261.852H126.567V258.575H127.571ZM130.295 258.54C130.679 258.54 130.984 258.665 131.212 258.915C131.443 259.162 131.558 259.503 131.558 259.937V261.852H130.56V260.072C130.56 259.853 130.503 259.683 130.389 259.561C130.276 259.44 130.123 259.379 129.931 259.379C129.74 259.379 129.587 259.44 129.473 259.561C129.36 259.683 129.303 259.853 129.303 260.072V261.852H128.299V258.575H129.303V259.009C129.405 258.864 129.542 258.751 129.714 258.669C129.886 258.583 130.08 258.54 130.295 258.54ZM133.501 258.528C133.732 258.528 133.933 258.575 134.106 258.669C134.282 258.763 134.417 258.886 134.511 259.039V258.575H135.515V261.846C135.515 262.147 135.454 262.419 135.333 262.662C135.215 262.909 135.033 263.104 134.787 263.249C134.544 263.394 134.241 263.466 133.877 263.466C133.391 263.466 132.998 263.351 132.696 263.12C132.395 262.893 132.223 262.584 132.179 262.192H133.172C133.203 262.317 133.278 262.415 133.395 262.486C133.512 262.56 133.657 262.597 133.83 262.597C134.037 262.597 134.201 262.537 134.323 262.415C134.448 262.298 134.511 262.108 134.511 261.846V261.382C134.413 261.534 134.278 261.66 134.106 261.758C133.933 261.852 133.732 261.899 133.501 261.899C133.231 261.899 132.986 261.83 132.767 261.693C132.547 261.552 132.373 261.354 132.244 261.1C132.119 260.842 132.056 260.544 132.056 260.207C132.056 259.871 132.119 259.575 132.244 259.321C132.373 259.066 132.547 258.87 132.767 258.733C132.986 258.596 133.231 258.528 133.501 258.528ZM134.511 260.213C134.511 259.963 134.44 259.765 134.299 259.62C134.162 259.475 133.994 259.403 133.794 259.403C133.595 259.403 133.424 259.475 133.283 259.62C133.146 259.761 133.078 259.957 133.078 260.207C133.078 260.458 133.146 260.658 133.283 260.806C133.424 260.951 133.595 261.024 133.794 261.024C133.994 261.024 134.162 260.951 134.299 260.806C134.44 260.661 134.511 260.464 134.511 260.213Z" fill="#BCBCBC" fill-opacity="0.7"/>
<path d="M170.941 220.503V221.536H169.309V222.112H170.483V223.092H169.309V224.66H168.005V220.503H170.941ZM174.636 224.032H173.25L173.045 224.66H171.676L173.197 220.503H174.701L176.216 224.66H174.841L174.636 224.032ZM174.319 223.051L173.943 221.894L173.567 223.051H174.319ZM180.364 220.503V221.536H179.26V224.66H177.956V221.536H176.864V220.503H180.364ZM182.931 224.701C182.434 224.701 182.023 224.586 181.698 224.355C181.377 224.12 181.203 223.777 181.176 223.327H182.562C182.581 223.566 182.687 223.685 182.879 223.685C182.949 223.685 183.008 223.67 183.055 223.638C183.106 223.603 183.131 223.55 183.131 223.48C183.131 223.382 183.078 223.304 182.973 223.245C182.867 223.182 182.702 223.112 182.479 223.034C182.213 222.94 181.992 222.848 181.816 222.758C181.643 222.667 181.495 222.536 181.369 222.364C181.244 222.192 181.183 221.971 181.187 221.7C181.187 221.43 181.256 221.201 181.393 221.013C181.534 220.822 181.724 220.677 181.963 220.579C182.205 220.481 182.477 220.432 182.779 220.432C183.288 220.432 183.691 220.55 183.989 220.784C184.29 221.019 184.449 221.35 184.464 221.777H183.061C183.057 221.659 183.027 221.575 182.973 221.524C182.918 221.473 182.851 221.448 182.773 221.448C182.718 221.448 182.673 221.468 182.638 221.507C182.603 221.542 182.585 221.593 182.585 221.659C182.585 221.753 182.636 221.832 182.738 221.894C182.843 221.953 183.01 222.025 183.237 222.112C183.499 222.209 183.714 222.303 183.883 222.393C184.055 222.483 184.204 222.609 184.329 222.769C184.454 222.93 184.517 223.131 184.517 223.374C184.517 223.629 184.454 223.858 184.329 224.061C184.204 224.261 184.022 224.417 183.783 224.531C183.544 224.644 183.26 224.701 182.931 224.701Z" fill="#BCBCBC" fill-opacity="0.7"/>
<path d="M168.127 239.282V238.112L170.807 234.278H172.427V238.027H173.123V239.282H172.427V240.385H170.977V239.282H168.127ZM171.079 235.872L169.653 238.027H171.079V235.872ZM173.621 237.204C173.621 236.231 173.808 235.465 174.181 234.905C174.56 234.345 175.168 234.065 176.005 234.065C176.842 234.065 177.447 234.345 177.82 234.905C178.199 235.465 178.388 236.231 178.388 237.204C178.388 238.188 178.199 238.96 177.82 239.52C177.447 240.079 176.842 240.359 176.005 240.359C175.168 240.359 174.56 240.079 174.181 239.52C173.808 238.96 173.621 238.188 173.621 237.204ZM176.963 237.204C176.963 236.633 176.901 236.195 176.777 235.889C176.652 235.578 176.395 235.423 176.005 235.423C175.614 235.423 175.357 235.578 175.233 235.889C175.108 236.195 175.046 236.633 175.046 237.204C175.046 237.588 175.069 237.908 175.114 238.162C175.159 238.411 175.25 238.615 175.385 238.773C175.527 238.926 175.733 239.002 176.005 239.002C176.276 239.002 176.48 238.926 176.615 238.773C176.757 238.615 176.85 238.411 176.895 238.162C176.941 237.908 176.963 237.588 176.963 237.204ZM180.885 235.584C181.219 235.584 181.51 235.652 181.759 235.787C182.013 235.923 182.208 236.101 182.344 236.322V235.652H183.794V240.376C183.794 240.812 183.707 241.205 183.531 241.555C183.362 241.912 183.099 242.194 182.743 242.404C182.392 242.613 181.954 242.717 181.428 242.717C180.727 242.717 180.158 242.551 179.723 242.217C179.287 241.889 179.039 241.442 178.976 240.877H180.41C180.455 241.058 180.563 241.199 180.732 241.301C180.902 241.408 181.111 241.462 181.36 241.462C181.66 241.462 181.897 241.374 182.072 241.199C182.253 241.029 182.344 240.755 182.344 240.376V239.706C182.202 239.927 182.007 240.108 181.759 240.249C181.51 240.385 181.219 240.453 180.885 240.453C180.495 240.453 180.141 240.354 179.825 240.156C179.508 239.952 179.256 239.667 179.07 239.299C178.889 238.926 178.798 238.496 178.798 238.01C178.798 237.523 178.889 237.096 179.07 236.729C179.256 236.361 179.508 236.079 179.825 235.881C180.141 235.683 180.495 235.584 180.885 235.584ZM182.344 238.018C182.344 237.656 182.242 237.371 182.038 237.162C181.841 236.952 181.597 236.848 181.309 236.848C181.021 236.848 180.775 236.952 180.571 237.162C180.373 237.365 180.274 237.648 180.274 238.01C180.274 238.372 180.373 238.66 180.571 238.875C180.775 239.084 181.021 239.189 181.309 239.189C181.597 239.189 181.841 239.084 182.038 238.875C182.242 238.666 182.344 238.38 182.344 238.018Z" fill="#CACACA"/>
<path d="M189.614 234.144L187.866 241.563H186.789L188.538 234.144H189.614ZM194.711 236.552H192.675V237.452C192.762 237.357 192.884 237.278 193.04 237.217C193.197 237.156 193.367 237.126 193.549 237.126C193.875 237.126 194.145 237.2 194.358 237.348C194.576 237.496 194.735 237.687 194.835 237.922C194.935 238.157 194.985 238.411 194.985 238.685C194.985 239.194 194.841 239.599 194.554 239.899C194.267 240.195 193.862 240.343 193.34 240.343C192.992 240.343 192.69 240.284 192.433 240.167C192.177 240.045 191.979 239.877 191.84 239.664C191.701 239.451 191.624 239.205 191.611 238.927H192.701C192.727 239.062 192.79 239.175 192.89 239.266C192.99 239.353 193.127 239.397 193.301 239.397C193.506 239.397 193.658 239.331 193.758 239.201C193.858 239.07 193.908 238.896 193.908 238.679C193.908 238.466 193.856 238.303 193.751 238.19C193.647 238.076 193.495 238.02 193.295 238.02C193.147 238.02 193.025 238.057 192.929 238.131C192.834 238.2 192.771 238.294 192.74 238.411H191.664V235.573H194.711V236.552ZM198.954 236.552H196.919V237.452C197.006 237.357 197.127 237.278 197.284 237.217C197.441 237.156 197.61 237.126 197.793 237.126C198.119 237.126 198.389 237.2 198.602 237.348C198.819 237.496 198.978 237.687 199.078 237.922C199.178 238.157 199.228 238.411 199.228 238.685C199.228 239.194 199.085 239.599 198.798 239.899C198.511 240.195 198.106 240.343 197.584 240.343C197.236 240.343 196.934 240.284 196.677 240.167C196.421 240.045 196.223 239.877 196.083 239.664C195.944 239.451 195.868 239.205 195.855 238.927H196.945C196.971 239.062 197.034 239.175 197.134 239.266C197.234 239.353 197.371 239.397 197.545 239.397C197.749 239.397 197.902 239.331 198.002 239.201C198.102 239.07 198.152 238.896 198.152 238.679C198.152 238.466 198.1 238.303 197.995 238.19C197.891 238.076 197.739 238.02 197.538 238.02C197.391 238.02 197.269 238.057 197.173 238.131C197.077 238.2 197.014 238.294 196.984 238.411H195.907V235.573H198.954V236.552ZM201.338 236.65C201.595 236.65 201.819 236.702 202.01 236.806C202.206 236.911 202.356 237.048 202.461 237.217V236.702H203.576V240.336C203.576 240.671 203.509 240.974 203.374 241.243C203.244 241.517 203.041 241.735 202.767 241.896C202.498 242.057 202.161 242.137 201.756 242.137C201.217 242.137 200.779 242.009 200.445 241.752C200.11 241.5 199.918 241.156 199.87 240.721H200.973C201.008 240.86 201.09 240.969 201.221 241.047C201.351 241.13 201.512 241.171 201.704 241.171C201.934 241.171 202.117 241.104 202.252 240.969C202.391 240.839 202.461 240.628 202.461 240.336V239.821C202.352 239.99 202.202 240.13 202.01 240.238C201.819 240.343 201.595 240.395 201.338 240.395C201.038 240.395 200.766 240.319 200.523 240.167C200.279 240.01 200.086 239.79 199.942 239.508C199.803 239.221 199.733 238.89 199.733 238.516C199.733 238.142 199.803 237.813 199.942 237.531C200.086 237.248 200.279 237.03 200.523 236.878C200.766 236.726 201.038 236.65 201.338 236.65ZM202.461 238.522C202.461 238.244 202.382 238.024 202.226 237.863C202.074 237.702 201.887 237.622 201.665 237.622C201.443 237.622 201.254 237.702 201.097 237.863C200.945 238.02 200.869 238.237 200.869 238.516C200.869 238.794 200.945 239.016 201.097 239.181C201.254 239.342 201.443 239.423 201.665 239.423C201.887 239.423 202.074 239.342 202.226 239.181C202.382 239.02 202.461 238.801 202.461 238.522Z" fill="#BCBCBC" fill-opacity="0.7"/>
<g clip-path="url(#clip2_334_364)">
<mask id="path-21-inside-3_334_364" fill="white">
<path d="M167.711 249.979C167.711 248.898 168.588 248.021 169.669 248.021H234.479C235.56 248.021 236.436 248.898 236.436 249.979C236.436 251.06 235.56 251.936 234.479 251.936H169.669C168.588 251.936 167.711 251.06 167.711 249.979Z"/>
</mask>
<path d="M167.711 249.979C167.711 248.898 168.588 248.021 169.669 248.021H234.479C235.56 248.021 236.436 248.898 236.436 249.979C236.436 251.06 235.56 251.936 234.479 251.936H169.669C168.588 251.936 167.711 251.06 167.711 249.979Z" fill="white" fill-opacity="0.5"/>
<path d="M168.364 249.979C168.364 249.258 168.948 248.674 169.669 248.674H215.597C216.318 248.674 216.902 249.258 216.902 249.979C216.902 250.7 216.318 251.284 215.597 251.284H169.669C168.948 251.284 168.364 250.7 168.364 249.979Z" fill="#69A38D"/>
</g>
<path d="M167.711 249.979M236.436 249.979M236.436 249.979M167.711 249.979M169.669 248.021V248.674H234.479V248.021V247.369H169.669V248.021ZM236.436 249.979M234.479 251.936V251.284H169.669V251.936V252.589H234.479V251.936ZM167.711 249.979M169.669 251.936V251.284C168.948 251.284 168.364 250.7 168.364 249.979H167.711H167.059C167.059 251.42 168.227 252.589 169.669 252.589V251.936ZM236.436 249.979H235.784C235.784 250.7 235.199 251.284 234.479 251.284V251.936V252.589C235.92 252.589 237.089 251.42 237.089 249.979H236.436ZM234.479 248.021V248.674C235.199 248.674 235.784 249.258 235.784 249.979H236.436H237.089C237.089 248.538 235.92 247.369 234.479 247.369V248.021ZM169.669 248.021V247.369C168.227 247.369 167.059 248.538 167.059 249.979H167.711H168.364C168.364 249.258 168.948 248.674 169.669 248.674V248.021Z" fill="white" fill-opacity="0.5" mask="url(#path-21-inside-3_334_364)"/>
<path d="M167.87 258.498V257.565H169.496V261.852H168.451V258.498H167.87ZM173.202 258.44H171.37V259.25C171.448 259.164 171.558 259.094 171.698 259.039C171.839 258.984 171.992 258.956 172.157 258.956C172.45 258.956 172.693 259.023 172.885 259.156C173.08 259.289 173.223 259.462 173.313 259.673C173.403 259.884 173.448 260.113 173.448 260.36C173.448 260.818 173.319 261.182 173.061 261.452C172.802 261.718 172.438 261.852 171.969 261.852C171.655 261.852 171.383 261.799 171.152 261.693C170.921 261.583 170.743 261.433 170.618 261.241C170.493 261.049 170.424 260.828 170.412 260.577H171.393C171.417 260.699 171.473 260.8 171.563 260.883C171.653 260.961 171.777 261 171.933 261C172.117 261 172.254 260.941 172.344 260.824C172.434 260.706 172.48 260.55 172.48 260.354C172.48 260.162 172.433 260.015 172.339 259.914C172.245 259.812 172.108 259.761 171.928 259.761C171.794 259.761 171.685 259.794 171.599 259.861C171.513 259.923 171.456 260.008 171.428 260.113H170.459V257.559H173.202V258.44ZM175.348 258.528C175.578 258.528 175.78 258.575 175.952 258.669C176.129 258.763 176.264 258.886 176.358 259.039V258.575H177.362V261.846C177.362 262.147 177.301 262.419 177.18 262.662C177.062 262.909 176.88 263.104 176.634 263.249C176.391 263.394 176.087 263.466 175.723 263.466C175.238 263.466 174.844 263.351 174.543 263.12C174.242 262.893 174.069 262.584 174.026 262.192H175.019C175.05 262.317 175.124 262.415 175.242 262.486C175.359 262.56 175.504 262.597 175.676 262.597C175.884 262.597 176.048 262.537 176.17 262.415C176.295 262.298 176.358 262.108 176.358 261.846V261.382C176.26 261.534 176.125 261.66 175.952 261.758C175.78 261.852 175.578 261.899 175.348 261.899C175.077 261.899 174.833 261.83 174.613 261.693C174.394 261.552 174.22 261.354 174.091 261.1C173.966 260.842 173.903 260.544 173.903 260.207C173.903 259.871 173.966 259.575 174.091 259.321C174.22 259.066 174.394 258.87 174.613 258.733C174.833 258.596 175.077 258.528 175.348 258.528ZM176.358 260.213C176.358 259.963 176.287 259.765 176.146 259.62C176.009 259.475 175.841 259.403 175.641 259.403C175.441 259.403 175.271 259.475 175.13 259.62C174.993 259.761 174.925 259.957 174.925 260.207C174.925 260.458 174.993 260.658 175.13 260.806C175.271 260.951 175.441 261.024 175.641 261.024C175.841 261.024 176.009 260.951 176.146 260.806C176.287 260.661 176.358 260.464 176.358 260.213ZM180.337 259.121C180.454 258.941 180.601 258.8 180.777 258.698C180.953 258.592 181.149 258.54 181.364 258.54V259.602H181.088C180.838 259.602 180.65 259.657 180.525 259.767C180.399 259.873 180.337 260.06 180.337 260.331V261.852H179.333V258.575H180.337V259.121ZM184.933 260.16C184.933 260.254 184.927 260.352 184.916 260.454H182.643C182.659 260.658 182.723 260.814 182.837 260.924C182.954 261.029 183.097 261.082 183.266 261.082C183.516 261.082 183.69 260.977 183.788 260.765H184.857C184.802 260.98 184.702 261.174 184.557 261.347C184.417 261.519 184.238 261.654 184.023 261.752C183.808 261.85 183.567 261.899 183.301 261.899C182.98 261.899 182.694 261.83 182.443 261.693C182.193 261.556 181.997 261.36 181.856 261.106C181.715 260.851 181.645 260.554 181.645 260.213C181.645 259.873 181.713 259.575 181.85 259.321C181.991 259.066 182.187 258.87 182.438 258.733C182.688 258.596 182.976 258.528 183.301 258.528C183.618 258.528 183.9 258.594 184.146 258.727C184.393 258.861 184.585 259.05 184.722 259.297C184.863 259.544 184.933 259.831 184.933 260.16ZM183.906 259.896C183.906 259.724 183.847 259.587 183.729 259.485C183.612 259.383 183.465 259.332 183.289 259.332C183.121 259.332 182.978 259.381 182.86 259.479C182.747 259.577 182.676 259.716 182.649 259.896H183.906ZM189.644 258.54C190.051 258.54 190.374 258.663 190.613 258.91C190.856 259.156 190.977 259.499 190.977 259.937V261.852H189.979V260.072C189.979 259.861 189.922 259.698 189.809 259.585C189.699 259.467 189.546 259.409 189.351 259.409C189.155 259.409 189 259.467 188.887 259.585C188.777 259.698 188.722 259.861 188.722 260.072V261.852H187.724V260.072C187.724 259.861 187.667 259.698 187.554 259.585C187.444 259.467 187.291 259.409 187.096 259.409C186.9 259.409 186.745 259.467 186.632 259.585C186.522 259.698 186.467 259.861 186.467 260.072V261.852H185.463V258.575H186.467V258.986C186.569 258.849 186.702 258.741 186.867 258.663C187.031 258.581 187.217 258.54 187.424 258.54C187.671 258.54 187.89 258.592 188.082 258.698C188.278 258.804 188.431 258.955 188.54 259.15C188.654 258.97 188.808 258.823 189.004 258.71C189.2 258.596 189.413 258.54 189.644 258.54ZM191.48 260.207C191.48 259.871 191.542 259.575 191.668 259.321C191.797 259.066 191.971 258.87 192.19 258.733C192.41 258.596 192.654 258.528 192.924 258.528C193.155 258.528 193.357 258.575 193.529 258.669C193.705 258.763 193.84 258.886 193.934 259.039V258.575H194.939V261.852H193.934V261.388C193.837 261.54 193.7 261.664 193.523 261.758C193.351 261.852 193.149 261.899 192.919 261.899C192.652 261.899 192.41 261.83 192.19 261.693C191.971 261.552 191.797 261.354 191.668 261.1C191.542 260.842 191.48 260.544 191.48 260.207ZM193.934 260.213C193.934 259.963 193.864 259.765 193.723 259.62C193.586 259.475 193.418 259.403 193.218 259.403C193.018 259.403 192.848 259.475 192.707 259.62C192.57 259.761 192.502 259.957 192.502 260.207C192.502 260.458 192.57 260.658 192.707 260.806C192.848 260.951 193.018 261.024 193.218 261.024C193.418 261.024 193.586 260.951 193.723 260.806C193.864 260.661 193.934 260.464 193.934 260.213ZM196.17 258.234C195.994 258.234 195.849 258.183 195.736 258.082C195.626 257.976 195.571 257.847 195.571 257.694C195.571 257.537 195.626 257.408 195.736 257.306C195.849 257.201 195.994 257.148 196.17 257.148C196.342 257.148 196.483 257.201 196.593 257.306C196.706 257.408 196.763 257.537 196.763 257.694C196.763 257.847 196.706 257.976 196.593 258.082C196.483 258.183 196.342 258.234 196.17 258.234ZM196.669 258.575V261.852H195.665V258.575H196.669ZM199.394 258.54C199.777 258.54 200.083 258.665 200.31 258.915C200.541 259.162 200.656 259.503 200.656 259.937V261.852H199.658V260.072C199.658 259.853 199.601 259.683 199.488 259.561C199.374 259.44 199.221 259.379 199.029 259.379C198.838 259.379 198.685 259.44 198.571 259.561C198.458 259.683 198.401 259.853 198.401 260.072V261.852H197.397V258.575H198.401V259.009C198.503 258.864 198.64 258.751 198.812 258.669C198.984 258.583 199.178 258.54 199.394 258.54ZM201.859 258.234C201.683 258.234 201.538 258.183 201.424 258.082C201.315 257.976 201.26 257.847 201.26 257.694C201.26 257.537 201.315 257.408 201.424 257.306C201.538 257.201 201.683 257.148 201.859 257.148C202.031 257.148 202.172 257.201 202.282 257.306C202.395 257.408 202.452 257.537 202.452 257.694C202.452 257.847 202.395 257.976 202.282 258.082C202.172 258.183 202.031 258.234 201.859 258.234ZM202.358 258.575V261.852H201.354V258.575H202.358ZM205.082 258.54C205.466 258.54 205.771 258.665 205.998 258.915C206.229 259.162 206.345 259.503 206.345 259.937V261.852H205.347V260.072C205.347 259.853 205.29 259.683 205.176 259.561C205.063 259.44 204.91 259.379 204.718 259.379C204.526 259.379 204.374 259.44 204.26 259.561C204.147 259.683 204.09 259.853 204.09 260.072V261.852H203.086V258.575H204.09V259.009C204.192 258.864 204.329 258.751 204.501 258.669C204.673 258.583 204.867 258.54 205.082 258.54ZM208.288 258.528C208.519 258.528 208.72 258.575 208.893 258.669C209.069 258.763 209.204 258.886 209.298 259.039V258.575H210.302V261.846C210.302 262.147 210.241 262.419 210.12 262.662C210.002 262.909 209.82 263.104 209.574 263.249C209.331 263.394 209.028 263.466 208.663 263.466C208.178 263.466 207.785 263.351 207.483 263.12C207.182 262.893 207.009 262.584 206.966 262.192H207.959C207.99 262.317 208.065 262.415 208.182 262.486C208.299 262.56 208.444 262.597 208.617 262.597C208.824 262.597 208.988 262.537 209.11 262.415C209.235 262.298 209.298 262.108 209.298 261.846V261.382C209.2 261.534 209.065 261.66 208.893 261.758C208.72 261.852 208.519 261.899 208.288 261.899C208.018 261.899 207.773 261.83 207.554 261.693C207.334 261.552 207.16 261.354 207.031 261.1C206.906 260.842 206.843 260.544 206.843 260.207C206.843 259.871 206.906 259.575 207.031 259.321C207.16 259.066 207.334 258.87 207.554 258.733C207.773 258.596 208.018 258.528 208.288 258.528ZM209.298 260.213C209.298 259.963 209.227 259.765 209.086 259.62C208.949 259.475 208.781 259.403 208.581 259.403C208.382 259.403 208.211 259.475 208.07 259.62C207.933 259.761 207.865 259.957 207.865 260.207C207.865 260.458 207.933 260.658 208.07 260.806C208.211 260.951 208.382 261.024 208.581 261.024C208.781 261.024 208.949 260.951 209.086 260.806C209.227 260.661 209.298 260.464 209.298 260.213Z" fill="#BCBCBC" fill-opacity="0.7"/>
</g>
<g filter="url(#filter2_i_334_364)">
<mask id="path-25-inside-4_334_364" fill="white">
<path d="M10.9819 158.917C10.9819 156.427 13.0006 154.408 15.4908 154.408H225.473C227.963 154.408 229.982 156.427 229.982 158.917V158.917C229.982 161.407 227.963 163.426 225.473 163.426H15.4908C13.0006 163.426 10.9819 161.407 10.9819 158.917V158.917Z"/>
</mask>
<path d="M10.9819 158.917C10.9819 156.427 13.0006 154.408 15.4908 154.408H225.473C227.963 154.408 229.982 156.427 229.982 158.917V158.917C229.982 161.407 227.963 163.426 225.473 163.426H15.4908C13.0006 163.426 10.9819 161.407 10.9819 158.917V158.917Z" fill="white" fill-opacity="0.5"/>
<path d="M10.9819 158.917M229.982 158.917M229.982 158.917M10.9819 158.917M15.4908 154.408V155.052H225.473V154.408V153.764H15.4908V154.408ZM229.982 158.917M225.473 163.426V162.782H15.4908V163.426V164.07H225.473V163.426ZM10.9819 158.917M15.4908 163.426V162.782C13.3563 162.782 11.6261 161.051 11.6261 158.917H10.9819H10.3378C10.3378 161.763 12.6449 164.07 15.4908 164.07V163.426ZM229.982 158.917H229.338C229.338 161.051 227.608 162.782 225.473 162.782V163.426V164.07C228.319 164.07 230.626 161.763 230.626 158.917H229.982ZM225.473 154.408V155.052C227.608 155.052 229.338 156.783 229.338 158.917H229.982H230.626C230.626 156.071 228.319 153.764 225.473 153.764V154.408ZM15.4908 154.408V153.764C12.6449 153.764 10.3378 156.071 10.3378 158.917H10.9819H11.6261C11.6261 156.783 13.3563 155.052 15.4908 155.052V154.408Z" fill="white" fill-opacity="0.5" mask="url(#path-25-inside-4_334_364)"/>
<g clip-path="url(#clip3_334_364)">
<path d="M11.6262 158.917C11.6262 156.783 13.3565 155.053 15.4909 155.053H177.567C179.701 155.053 181.432 156.783 181.432 158.917C181.432 161.052 179.701 162.782 177.567 162.782H15.4909C13.3565 162.782 11.6262 161.052 11.6262 158.917Z" fill="#69A372"/>
<rect width="169.806" height="7.72941" transform="translate(11.6262 155.053)" fill="white" fill-opacity="0.1"/>
</g>
</g>
<path d="M17.7393 47.7955C18.3581 47.7955 18.8989 47.9182 19.3617 48.1635C19.8244 48.4088 20.1812 48.7544 20.4321 49.2004C20.6885 49.6408 20.8167 50.151 20.8167 50.7308C20.8167 51.305 20.6885 51.8151 20.4321 52.2611C20.1812 52.7071 19.8216 53.0528 19.3533 53.2981C18.8906 53.5434 18.3526 53.666 17.7393 53.666H15.54V47.7955H17.7393ZM17.6473 52.4284C18.1881 52.4284 18.609 52.2806 18.9101 51.9851C19.2111 51.6897 19.3617 51.2715 19.3617 50.7308C19.3617 50.19 19.2111 49.7691 18.9101 49.468C18.609 49.167 18.1881 49.0164 17.6473 49.0164H16.97V52.4284H17.6473ZM21.3316 51.3245C21.3316 50.845 21.4208 50.4241 21.5992 50.0618C21.7831 49.6994 22.0312 49.4206 22.3434 49.2255C22.6556 49.0304 23.0041 48.9328 23.3887 48.9328C23.7177 48.9328 24.0048 48.9997 24.2501 49.1335C24.501 49.2673 24.6933 49.4429 24.8271 49.6604V48.9997H26.2571V53.666H24.8271V53.0054C24.6877 53.2228 24.4926 53.3984 24.2417 53.5322C23.9964 53.666 23.7093 53.7329 23.3804 53.7329C23.0013 53.7329 22.6556 53.6354 22.3434 53.4402C22.0312 53.2395 21.7831 52.958 21.5992 52.5956C21.4208 52.2277 21.3316 51.804 21.3316 51.3245ZM24.8271 51.3329C24.8271 50.9761 24.7268 50.6945 24.5261 50.4882C24.3309 50.282 24.0912 50.1788 23.8069 50.1788C23.5225 50.1788 23.28 50.282 23.0793 50.4882C22.8842 50.6889 22.7866 50.9677 22.7866 51.3245C22.7866 51.6813 22.8842 51.9656 23.0793 52.1775C23.28 52.3838 23.5225 52.4869 23.8069 52.4869C24.0912 52.4869 24.3309 52.3838 24.5261 52.1775C24.7268 51.9712 24.8271 51.6897 24.8271 51.3329ZM28.0108 48.5147C27.7599 48.5147 27.5537 48.4422 27.392 48.2973C27.2359 48.1467 27.1578 47.9628 27.1578 47.7453C27.1578 47.5223 27.2359 47.3383 27.392 47.1934C27.5537 47.0429 27.7599 46.9676 28.0108 46.9676C28.2561 46.9676 28.4568 47.0429 28.6129 47.1934C28.7746 47.3383 28.8554 47.5223 28.8554 47.7453C28.8554 47.9628 28.7746 48.1467 28.6129 48.2973C28.4568 48.4422 28.2561 48.5147 28.0108 48.5147ZM28.7216 48.9997V53.666H27.2916V48.9997H28.7216ZM31.1879 47.4777V53.666H29.7579V47.4777H31.1879ZM36.9909 48.9997L34.064 55.8821H32.5253L33.5957 53.5071L31.6974 48.9997H33.2947L34.3734 51.9182L35.4438 48.9997H36.9909ZM39.0376 50.7224C39.0376 50.1426 39.1631 49.6269 39.414 49.1753C39.6648 48.7182 40.0133 48.3642 40.4593 48.1133C40.9108 47.8568 41.421 47.7286 41.9896 47.7286C42.6865 47.7286 43.283 47.9126 43.7792 48.2805C44.2754 48.6485 44.6071 49.1502 44.7743 49.7858H43.2022C43.0851 49.5405 42.9179 49.3537 42.7004 49.2255C42.4886 49.0973 42.2461 49.0332 41.9729 49.0332C41.5325 49.0332 41.1757 49.1865 40.9025 49.4931C40.6293 49.7997 40.4927 50.2095 40.4927 50.7224C40.4927 51.2353 40.6293 51.6451 40.9025 51.9517C41.1757 52.2583 41.5325 52.4116 41.9729 52.4116C42.2461 52.4116 42.4886 52.3475 42.7004 52.2193C42.9179 52.0911 43.0851 51.9043 43.2022 51.659H44.7743C44.6071 52.2946 44.2754 52.7963 43.7792 53.1643C43.283 53.5266 42.6865 53.7078 41.9896 53.7078C41.421 53.7078 40.9108 53.5824 40.4593 53.3315C40.0133 53.0751 39.6648 52.721 39.414 52.2695C39.1631 51.8179 39.0376 51.3022 39.0376 50.7224ZM45.3657 51.3245C45.3657 50.845 45.4549 50.4241 45.6333 50.0618C45.8173 49.6994 46.0654 49.4206 46.3776 49.2255C46.6898 49.0304 47.0383 48.9328 47.4229 48.9328C47.7519 48.9328 48.039 48.9997 48.2843 49.1335C48.5351 49.2673 48.7275 49.4429 48.8613 49.6604V48.9997H50.2913V53.666H48.8613V53.0054C48.7219 53.2228 48.5268 53.3984 48.2759 53.5322C48.0306 53.666 47.7435 53.7329 47.4146 53.7329C47.0355 53.7329 46.6898 53.6354 46.3776 53.4402C46.0654 53.2395 45.8173 52.958 45.6333 52.5956C45.4549 52.2277 45.3657 51.804 45.3657 51.3245ZM48.8613 51.3329C48.8613 50.9761 48.7609 50.6945 48.5602 50.4882C48.3651 50.282 48.1254 50.1788 47.8411 50.1788C47.5567 50.1788 47.3142 50.282 47.1135 50.4882C46.9184 50.6889 46.8208 50.9677 46.8208 51.3245C46.8208 51.6813 46.9184 51.9656 47.1135 52.1775C47.3142 52.3838 47.5567 52.4869 47.8411 52.4869C48.1254 52.4869 48.3651 52.3838 48.5602 52.1775C48.7609 51.9712 48.8613 51.6897 48.8613 51.3329ZM52.7558 47.4777V53.666H51.3258V47.4777H52.7558ZM55.9162 53.7329C55.4591 53.7329 55.0465 53.6354 54.6786 53.4402C54.3162 53.2451 54.0291 52.9663 53.8172 52.604C53.6109 52.2416 53.5078 51.8179 53.5078 51.3329C53.5078 50.8534 53.6137 50.4325 53.8256 50.0701C54.0374 49.7022 54.3273 49.4206 54.6953 49.2255C55.0632 49.0304 55.4758 48.9328 55.9329 48.9328C56.3901 48.9328 56.8026 49.0304 57.1706 49.2255C57.5386 49.4206 57.8285 49.7022 58.0403 50.0701C58.2522 50.4325 58.3581 50.8534 58.3581 51.3329C58.3581 51.8123 58.2494 52.236 58.0319 52.604C57.8201 52.9663 57.5274 53.2451 57.1539 53.4402C56.7859 53.6354 56.3734 53.7329 55.9162 53.7329ZM55.9162 52.4953C56.1894 52.4953 56.4208 52.3949 56.6103 52.1942C56.8054 51.9935 56.903 51.7064 56.903 51.3329C56.903 50.9593 56.8082 50.6722 56.6187 50.4715C56.4347 50.2708 56.2061 50.1705 55.9329 50.1705C55.6542 50.1705 55.4228 50.2708 55.2388 50.4715C55.0549 50.6666 54.9629 50.9538 54.9629 51.3329C54.9629 51.7064 55.0521 51.9935 55.2305 52.1942C55.4145 52.3949 55.643 52.4953 55.9162 52.4953ZM60.5467 49.7774C60.714 49.521 60.923 49.3203 61.1739 49.1753C61.4248 49.0248 61.7035 48.9495 62.0102 48.9495V50.4632H61.6171C61.2603 50.4632 60.9927 50.5412 60.8143 50.6973C60.6359 50.8478 60.5467 51.1154 60.5467 51.5001V53.666H59.1167V48.9997H60.5467V49.7774ZM63.4129 48.5147C63.162 48.5147 62.9557 48.4422 62.794 48.2973C62.6379 48.1467 62.5599 47.9628 62.5599 47.7453C62.5599 47.5223 62.6379 47.3383 62.794 47.1934C62.9557 47.0429 63.162 46.9676 63.4129 46.9676C63.6582 46.9676 63.8589 47.0429 64.015 47.1934C64.1766 47.3383 64.2575 47.5223 64.2575 47.7453C64.2575 47.9628 64.1766 48.1467 64.015 48.2973C63.8589 48.4422 63.6582 48.5147 63.4129 48.5147ZM64.1237 48.9997V53.666H62.6937V48.9997H64.1237ZM69.5587 51.2576C69.5587 51.3914 69.5503 51.5308 69.5336 51.6757H66.2973C66.3196 51.9656 66.4116 52.1886 66.5732 52.3447C66.7405 52.4953 66.944 52.5705 67.1837 52.5705C67.5405 52.5705 67.7886 52.42 67.928 52.1189H69.45C69.3719 52.4256 69.2298 52.7015 69.0235 52.9468C68.8228 53.1921 68.5691 53.3845 68.2625 53.5239C67.9559 53.6632 67.613 53.7329 67.2339 53.7329C66.7767 53.7329 66.3698 53.6354 66.013 53.4402C65.6562 53.2451 65.3774 52.9663 65.1767 52.604C64.976 52.2416 64.8756 51.8179 64.8756 51.3329C64.8756 50.8478 64.9732 50.4241 65.1683 50.0618C65.369 49.6994 65.6478 49.4206 66.0046 49.2255C66.3614 49.0304 66.7712 48.9328 67.2339 48.9328C67.6855 48.9328 68.0869 49.0276 68.4381 49.2171C68.7893 49.4067 69.0625 49.6771 69.2576 50.0283C69.4583 50.3795 69.5587 50.7893 69.5587 51.2576ZM68.0952 50.8813C68.0952 50.636 68.0116 50.4409 67.8444 50.2959C67.6771 50.151 67.468 50.0785 67.2172 50.0785C66.9774 50.0785 66.7739 50.1482 66.6067 50.2875C66.445 50.4269 66.3447 50.6248 66.3056 50.8813H68.0952ZM73.5152 47.7955V53.666H72.0852V47.7955H73.5152ZM77.3948 48.9495C77.9411 48.9495 78.376 49.1279 78.6993 49.4847C79.0283 49.836 79.1927 50.321 79.1927 50.9398V53.666H77.7711V51.1322C77.7711 50.82 77.6903 50.5774 77.5286 50.4046C77.3669 50.2318 77.1495 50.1454 76.8763 50.1454C76.6031 50.1454 76.3857 50.2318 76.224 50.4046C76.0624 50.5774 75.9815 50.82 75.9815 51.1322V53.666H74.5515V48.9997H75.9815V49.6185C76.1265 49.4123 76.3216 49.2506 76.5669 49.1335C76.8122 49.0109 77.0882 48.9495 77.3948 48.9495ZM82.7872 52.4534V53.666H82.0597C81.5412 53.666 81.137 53.5406 80.8471 53.2897C80.5572 53.0332 80.4122 52.6179 80.4122 52.0437V50.1872H79.8436V48.9997H80.4122V47.8624H81.8422V48.9997H82.7788V50.1872H81.8422V52.0604C81.8422 52.1998 81.8757 52.3001 81.9426 52.3615C82.0095 52.4228 82.121 52.4534 82.2771 52.4534H82.7872ZM83.2994 51.3245C83.2994 50.845 83.3886 50.4241 83.567 50.0618C83.751 49.6994 83.9991 49.4206 84.3113 49.2255C84.6235 49.0304 84.9719 48.9328 85.3566 48.9328C85.6855 48.9328 85.9726 48.9997 86.2179 49.1335C86.4688 49.2673 86.6612 49.4429 86.795 49.6604V48.9997H88.225V53.666H86.795V53.0054C86.6556 53.2228 86.4605 53.3984 86.2096 53.5322C85.9643 53.666 85.6772 53.7329 85.3482 53.7329C84.9691 53.7329 84.6235 53.6354 84.3113 53.4402C83.9991 53.2395 83.751 52.958 83.567 52.5956C83.3886 52.2277 83.2994 51.804 83.2994 51.3245ZM86.795 51.3329C86.795 50.9761 86.6946 50.6945 86.4939 50.4882C86.2988 50.282 86.059 50.1788 85.7747 50.1788C85.4904 50.1788 85.2479 50.282 85.0472 50.4882C84.8521 50.6889 84.7545 50.9677 84.7545 51.3245C84.7545 51.6813 84.8521 51.9656 85.0472 52.1775C85.2479 52.3838 85.4904 52.4869 85.7747 52.4869C86.059 52.4869 86.2988 52.3838 86.4939 52.1775C86.6946 51.9712 86.795 51.6897 86.795 51.3329ZM92.1111 53.666L90.6895 51.7092V53.666H89.2595V47.4777H90.6895V50.898L92.1028 48.9997H93.8673L91.9271 51.3412L93.884 53.666H92.1111ZM98.8276 51.2576C98.8276 51.3914 98.8193 51.5308 98.8025 51.6757H95.5662C95.5885 51.9656 95.6805 52.1886 95.8422 52.3447C96.0094 52.4953 96.2129 52.5705 96.4527 52.5705C96.8095 52.5705 97.0576 52.42 97.1969 52.1189H98.7189C98.6409 52.4256 98.4987 52.7015 98.2924 52.9468C98.0917 53.1921 97.8381 53.3845 97.5314 53.5239C97.2248 53.6632 96.8819 53.7329 96.5028 53.7329C96.0457 53.7329 95.6387 53.6354 95.2819 53.4402C94.9251 53.2451 94.6464 52.9663 94.4456 52.604C94.2449 52.2416 94.1446 51.8179 94.1446 51.3329C94.1446 50.8478 94.2422 50.4241 94.4373 50.0618C94.638 49.6994 94.9167 49.4206 95.2735 49.2255C95.6303 49.0304 96.0401 48.9328 96.5028 48.9328C96.9544 48.9328 97.3558 49.0276 97.707 49.2171C98.0583 49.4067 98.3315 49.6771 98.5266 50.0283C98.7273 50.3795 98.8276 50.7893 98.8276 51.2576ZM97.3642 50.8813C97.3642 50.636 97.2806 50.4409 97.1133 50.2959C96.9461 50.151 96.737 50.0785 96.4861 50.0785C96.2464 50.0785 96.0429 50.1482 95.8756 50.2875C95.714 50.4269 95.6136 50.6248 95.5746 50.8813H97.3642Z" fill="#DADADC"/>
<path d="M15.5773 68.2451V64.9722H21.2792V79.999H17.6152V68.2451H15.5773ZM23.2549 77.323V74.4823L29.7597 65.178H33.6914V74.2765H35.3793V77.323H33.6914V79.999H30.1714V77.323H23.2549ZM30.4184 69.0479L26.9602 74.2765H30.4184V69.0479ZM36.4653 77.1789C36.9319 76.8084 37.1446 76.6368 37.1035 76.6643C38.4483 75.5527 39.505 74.6401 40.2735 73.9265C41.0557 73.2129 41.7144 72.465 42.2496 71.6828C42.7848 70.9006 43.0525 70.1389 43.0525 69.3979C43.0525 68.8352 42.9221 68.3961 42.6613 68.0805C42.4006 67.7648 42.0095 67.607 41.488 67.607C40.9665 67.607 40.5548 67.806 40.2529 68.204C39.9647 68.5882 39.8206 69.1371 39.8206 69.8507H36.4242C36.4516 68.6843 36.6986 67.7099 37.1652 66.9277C37.6455 66.1455 38.2699 65.5691 39.0384 65.1986C39.8206 64.8281 40.6852 64.6428 41.6321 64.6428C43.2652 64.6428 44.4934 65.0614 45.3168 65.8985C46.1539 66.7356 46.5724 67.8266 46.5724 69.1714C46.5724 70.6398 46.0715 72.0053 45.0698 73.2678C44.068 74.5166 42.7917 75.738 41.241 76.9319H46.7989V79.7932H36.4653V77.1789ZM47.8341 72.2797C47.8341 69.9194 48.2869 68.0599 49.1927 66.7013C50.1121 65.3427 51.5873 64.6634 53.6184 64.6634C55.6494 64.6634 57.1178 65.3427 58.0235 66.7013C58.943 68.0599 59.4027 69.9194 59.4027 72.2797C59.4027 74.6676 58.943 76.5408 58.0235 77.8994C57.1178 79.258 55.6494 79.9373 53.6184 79.9373C51.5873 79.9373 50.1121 79.258 49.1927 77.8994C48.2869 76.5408 47.8341 74.6676 47.8341 72.2797ZM55.9445 72.2797C55.9445 70.8937 55.7935 69.8302 55.4916 69.0891C55.1897 68.3343 54.5653 67.9569 53.6184 67.9569C52.6715 67.9569 52.0471 68.3343 51.7452 69.0891C51.4433 69.8302 51.2923 70.8937 51.2923 72.2797C51.2923 73.2129 51.3472 73.9883 51.457 74.6058C51.5668 75.2096 51.7863 75.7037 52.1157 76.0879C52.4588 76.4584 52.9597 76.6437 53.6184 76.6437C54.2771 76.6437 54.7711 76.4584 55.1005 76.0879C55.4436 75.7037 55.67 75.2096 55.7798 74.6058C55.8896 73.9883 55.9445 73.2129 55.9445 72.2797Z" fill="#CACACA"/>
<path d="M66.9619 70.0412L64.183 81.651H62.7729L65.5518 70.0412H66.9619ZM70.2206 73.6127V72.2849H72.701V79.7881H71.2189V73.6127H70.2206ZM75.3802 75.8152C74.694 75.4584 74.3509 74.9061 74.3509 74.1582C74.3509 73.7876 74.4436 73.4514 74.6288 73.1495C74.821 72.8407 75.1057 72.5971 75.4831 72.4187C75.8674 72.2335 76.3339 72.1408 76.8829 72.1408C77.4318 72.1408 77.895 72.2335 78.2723 72.4187C78.6566 72.5971 78.9413 72.8407 79.1266 73.1495C79.3187 73.4514 79.4148 73.7876 79.4148 74.1582C79.4148 74.5355 79.3222 74.8683 79.1369 75.1565C78.9516 75.4378 78.7046 75.6574 78.3959 75.8152C78.7732 75.9799 79.0683 76.2201 79.281 76.5357C79.4937 76.8513 79.6001 77.2253 79.6001 77.6576C79.6001 78.1242 79.48 78.5324 79.2398 78.8824C79.0065 79.2254 78.684 79.4896 78.2723 79.6749C77.8606 79.8601 77.3975 79.9528 76.8829 79.9528C76.3683 79.9528 75.9051 79.8601 75.4934 79.6749C75.0886 79.4896 74.7661 79.2254 74.5259 78.8824C74.2926 78.5324 74.176 78.1242 74.176 77.6576C74.176 77.2253 74.2823 76.8513 74.495 76.5357C74.7077 76.2132 75.0028 75.973 75.3802 75.8152ZM78.015 74.364C78.015 74.0278 77.9121 73.767 77.7063 73.5818C77.5073 73.3965 77.2328 73.3039 76.8829 73.3039C76.5398 73.3039 76.2653 73.3965 76.0595 73.5818C75.8605 73.767 75.761 74.0312 75.761 74.3743C75.761 74.6831 75.8639 74.9301 76.0698 75.1153C76.2825 75.3006 76.5535 75.3932 76.8829 75.3932C77.2122 75.3932 77.4833 75.3006 77.696 75.1153C77.9087 74.9232 78.015 74.6728 78.015 74.364ZM76.8829 76.4431C76.4918 76.4431 76.1727 76.5426 75.9257 76.7415C75.6855 76.9405 75.5654 77.2253 75.5654 77.5958C75.5654 77.9389 75.6821 78.2202 75.9154 78.4398C76.1555 78.6525 76.478 78.7588 76.8829 78.7588C77.2877 78.7588 77.6068 78.6491 77.8401 78.4295C78.0734 78.2099 78.19 77.932 78.19 77.5958C78.19 77.2321 78.0699 76.9508 77.8298 76.7518C77.5896 76.546 77.274 76.4431 76.8829 76.4431ZM80.7382 75.9387C80.7382 74.7517 80.9509 73.8219 81.3763 73.1495C81.8086 72.4771 82.5222 72.1408 83.5171 72.1408C84.512 72.1408 85.2222 72.4771 85.6476 73.1495C86.0799 73.8219 86.2961 74.7517 86.2961 75.9387C86.2961 77.1327 86.0799 78.0693 85.6476 78.7486C85.2222 79.4279 84.512 79.7675 83.5171 79.7675C82.5222 79.7675 81.8086 79.4279 81.3763 78.7486C80.9509 78.0693 80.7382 77.1327 80.7382 75.9387ZM84.8757 75.9387C84.8757 75.431 84.8414 75.0056 84.7728 74.6625C84.711 74.3125 84.5807 74.0278 84.3817 73.8082C84.1895 73.5886 83.9014 73.4789 83.5171 73.4789C83.1329 73.4789 82.8412 73.5886 82.6423 73.8082C82.4501 74.0278 82.3198 74.3125 82.2511 74.6625C82.1894 75.0056 82.1585 75.431 82.1585 75.9387C82.1585 76.4602 82.1894 76.8994 82.2511 77.2562C82.3129 77.6061 82.4433 77.8909 82.6423 78.1104C82.8412 78.3231 83.1329 78.4295 83.5171 78.4295C83.9014 78.4295 84.193 78.3231 84.392 78.1104C84.591 77.8909 84.7213 77.6061 84.7831 77.2562C84.8448 76.8994 84.8757 76.4602 84.8757 75.9387ZM87.392 75.9387C87.392 74.7517 87.6047 73.8219 88.0302 73.1495C88.4624 72.4771 89.176 72.1408 90.171 72.1408C91.1659 72.1408 91.8761 72.4771 92.3015 73.1495C92.7338 73.8219 92.9499 74.7517 92.9499 75.9387C92.9499 77.1327 92.7338 78.0693 92.3015 78.7486C91.8761 79.4279 91.1659 79.7675 90.171 79.7675C89.176 79.7675 88.4624 79.4279 88.0302 78.7486C87.6047 78.0693 87.392 77.1327 87.392 75.9387ZM91.5296 75.9387C91.5296 75.431 91.4953 75.0056 91.4266 74.6625C91.3649 74.3125 91.2345 74.0278 91.0355 73.8082C90.8434 73.5886 90.5552 73.4789 90.171 73.4789C89.7867 73.4789 89.4951 73.5886 89.2961 73.8082C89.104 74.0278 88.9736 74.3125 88.905 74.6625C88.8433 75.0056 88.8124 75.431 88.8124 75.9387C88.8124 76.4602 88.8433 76.8994 88.905 77.2562C88.9668 77.6061 89.0971 77.8909 89.2961 78.1104C89.4951 78.3231 89.7867 78.4295 90.171 78.4295C90.5552 78.4295 90.8468 78.3231 91.0458 78.1104C91.2448 77.8909 91.3752 77.6061 91.4369 77.2562C91.4987 76.8994 91.5296 76.4602 91.5296 75.9387Z" fill="#BCBCBC" fill-opacity="0.7"/>
<path d="M185.632 71.0188L183.049 77.2148H181.248L183.862 71.2144H180.661V69.7117H185.632V71.0188ZM187.322 73.1802C186.677 72.8372 186.354 72.2985 186.354 71.5643C186.354 71.1938 186.45 70.8576 186.643 70.5557C186.835 70.2469 187.126 70.0033 187.517 69.8249C187.909 69.6397 188.389 69.547 188.958 69.547C189.528 69.547 190.005 69.6397 190.389 69.8249C190.78 70.0033 191.072 70.2469 191.264 70.5557C191.456 70.8576 191.552 71.1938 191.552 71.5643C191.552 71.9349 191.463 72.2573 191.284 72.5318C191.113 72.8063 190.88 73.0224 190.585 73.1802C190.955 73.3586 191.24 73.6057 191.439 73.9213C191.638 74.2301 191.737 74.5937 191.737 75.0123C191.737 75.4994 191.614 75.9214 191.367 76.2782C191.12 76.6282 190.784 76.8958 190.358 77.081C189.94 77.2663 189.473 77.3589 188.958 77.3589C188.444 77.3589 187.974 77.2663 187.548 77.081C187.13 76.8958 186.797 76.6282 186.55 76.2782C186.303 75.9214 186.179 75.4994 186.179 75.0123C186.179 74.5869 186.279 74.2198 186.478 73.911C186.677 73.5954 186.958 73.3518 187.322 73.1802ZM189.844 71.8319C189.844 71.5506 189.761 71.3345 189.597 71.1835C189.439 71.0257 189.226 70.9468 188.958 70.9468C188.691 70.9468 188.475 71.0257 188.31 71.1835C188.152 71.3413 188.073 71.5609 188.073 71.8422C188.073 72.1098 188.156 72.3225 188.32 72.4804C188.485 72.6313 188.698 72.7068 188.958 72.7068C189.219 72.7068 189.432 72.6279 189.597 72.4701C189.761 72.3122 189.844 72.0995 189.844 71.8319ZM188.958 73.9419C188.636 73.9419 188.375 74.0311 188.176 74.2095C187.977 74.381 187.878 74.6212 187.878 74.9299C187.878 75.2181 187.974 75.4548 188.166 75.6401C188.365 75.8254 188.629 75.918 188.958 75.918C189.288 75.918 189.545 75.8254 189.73 75.6401C189.922 75.4548 190.018 75.2181 190.018 74.9299C190.018 74.628 189.919 74.3879 189.72 74.2095C189.528 74.0311 189.274 73.9419 188.958 73.9419ZM192.359 71.5952C192.359 71.0394 192.517 70.6106 192.833 70.3087C193.155 70.0067 193.57 69.8558 194.078 69.8558C194.586 69.8558 194.998 70.0067 195.313 70.3087C195.629 70.6106 195.787 71.0394 195.787 71.5952C195.787 72.151 195.629 72.5798 195.313 72.8818C194.998 73.1837 194.586 73.3346 194.078 73.3346C193.57 73.3346 193.155 73.1837 192.833 72.8818C192.517 72.5798 192.359 72.151 192.359 71.5952ZM199.348 69.969L195.385 77.2148H193.687L197.65 69.969H199.348ZM194.068 70.885C193.739 70.885 193.574 71.1218 193.574 71.5952C193.574 72.0618 193.739 72.2951 194.068 72.2951C194.226 72.2951 194.349 72.2368 194.438 72.1201C194.528 72.0035 194.572 71.8285 194.572 71.5952C194.572 71.1218 194.404 70.885 194.068 70.885ZM197.259 75.5886C197.259 75.0329 197.416 74.604 197.732 74.3021C198.048 74.0002 198.459 73.8492 198.967 73.8492C199.475 73.8492 199.887 74.0002 200.202 74.3021C200.518 74.604 200.676 75.0329 200.676 75.5886C200.676 76.1444 200.518 76.5733 200.202 76.8752C199.887 77.1771 199.475 77.3281 198.967 77.3281C198.459 77.3281 198.048 77.1771 197.732 76.8752C197.416 76.5733 197.259 76.1444 197.259 75.5886ZM198.957 74.8785C198.799 74.8785 198.675 74.9368 198.586 75.0534C198.504 75.1701 198.463 75.3485 198.463 75.5886C198.463 76.0552 198.627 76.2885 198.957 76.2885C199.115 76.2885 199.238 76.2302 199.327 76.1136C199.417 75.9969 199.461 75.8219 199.461 75.5886C199.461 75.3554 199.417 75.1804 199.327 75.0637C199.238 74.9402 199.115 74.8785 198.957 74.8785Z" fill="#CACACA"/>
<path d="M205.19 77.2599C204.77 77.2599 204.384 77.1612 204.033 76.964C203.681 76.7667 203.402 76.4944 203.196 76.147C202.99 75.7954 202.887 75.3987 202.887 74.957C202.887 74.5195 202.99 74.1271 203.196 73.7798C203.402 73.4281 203.681 73.1536 204.033 72.9564C204.384 72.7591 204.77 72.6605 205.19 72.6605C205.615 72.6605 206.001 72.7591 206.348 72.9564C206.7 73.1536 206.977 73.4281 207.178 73.7798C207.384 74.1271 207.487 74.5195 207.487 74.957C207.487 75.3987 207.384 75.7954 207.178 76.147C206.977 76.4944 206.7 76.7667 206.348 76.964C205.997 77.1612 205.611 77.2599 205.19 77.2599ZM205.19 76.4558C205.461 76.4558 205.699 76.3957 205.904 76.2757C206.11 76.1513 206.271 75.9755 206.387 75.7482C206.503 75.5209 206.561 75.2571 206.561 74.957C206.561 74.6568 206.503 74.3952 206.387 74.1722C206.271 73.9449 206.11 73.7712 205.904 73.6511C205.699 73.531 205.461 73.471 205.19 73.471C204.92 73.471 204.68 73.531 204.47 73.6511C204.264 73.7712 204.103 73.9449 203.987 74.1722C203.872 74.3952 203.814 74.6568 203.814 74.957C203.814 75.2571 203.872 75.5209 203.987 75.7482C204.103 75.9755 204.264 76.1513 204.47 76.2757C204.68 76.3957 204.92 76.4558 205.19 76.4558ZM211.251 72.7248V73.4517H209.379V74.6032H210.814V75.3172H209.379V77.2148H208.479V72.7248H211.251ZM217.192 74.0757C217.089 73.887 216.948 73.7433 216.767 73.6447C216.587 73.546 216.377 73.4967 216.137 73.4967C215.871 73.4967 215.635 73.5568 215.429 73.6768C215.224 73.7969 215.063 73.9685 214.947 74.1915C214.831 74.4145 214.773 74.6718 214.773 74.9634C214.773 75.2636 214.831 75.5252 214.947 75.7482C215.067 75.9712 215.232 76.1427 215.442 76.2628C215.652 76.3829 215.897 76.4429 216.176 76.4429C216.519 76.4429 216.8 76.3529 217.018 76.1727C217.237 75.9883 217.381 75.7332 217.449 75.4072H215.905V74.7189H218.337V75.5037C218.277 75.8168 218.148 76.1063 217.951 76.3722C217.754 76.638 217.499 76.8525 217.186 77.0154C216.877 77.1741 216.529 77.2534 216.144 77.2534C215.71 77.2534 215.318 77.1569 214.966 76.964C214.619 76.7667 214.344 76.4944 214.143 76.147C213.946 75.7996 213.847 75.4051 213.847 74.9634C213.847 74.5217 213.946 74.1271 214.143 73.7798C214.344 73.4281 214.619 73.1558 214.966 72.9628C215.318 72.7655 215.708 72.6669 216.137 72.6669C216.643 72.6669 217.083 72.7913 217.456 73.04C217.829 73.2844 218.086 73.6297 218.228 74.0757H217.192ZM221.409 77.2599C220.989 77.2599 220.603 77.1612 220.251 76.964C219.9 76.7667 219.621 76.4944 219.415 76.147C219.209 75.7954 219.106 75.3987 219.106 74.957C219.106 74.5195 219.209 74.1271 219.415 73.7798C219.621 73.4281 219.9 73.1536 220.251 72.9564C220.603 72.7591 220.989 72.6605 221.409 72.6605C221.834 72.6605 222.22 72.7591 222.567 72.9564C222.919 73.1536 223.195 73.4281 223.397 73.7798C223.603 74.1271 223.706 74.5195 223.706 74.957C223.706 75.3987 223.603 75.7954 223.397 76.147C223.195 76.4944 222.919 76.7667 222.567 76.964C222.215 77.1612 221.829 77.2599 221.409 77.2599ZM221.409 76.4558C221.679 76.4558 221.917 76.3957 222.123 76.2757C222.329 76.1513 222.49 75.9755 222.606 75.7482C222.721 75.5209 222.779 75.2571 222.779 74.957C222.779 74.6568 222.721 74.3952 222.606 74.1722C222.49 73.9449 222.329 73.7712 222.123 73.6511C221.917 73.531 221.679 73.471 221.409 73.471C221.139 73.471 220.899 73.531 220.689 73.6511C220.483 73.7712 220.322 73.9449 220.206 74.1722C220.09 74.3952 220.033 74.6568 220.033 74.957C220.033 75.2571 220.09 75.5209 220.206 75.7482C220.322 75.9755 220.483 76.1513 220.689 76.2757C220.899 76.3957 221.139 76.4558 221.409 76.4558ZM227.451 76.3593H225.662L225.366 77.2148H224.421L226.035 72.7184H227.084L228.698 77.2148H227.746L227.451 76.3593ZM227.206 75.6388L226.556 73.7605L225.907 75.6388H227.206ZM230.524 76.5008H232.004V77.2148H229.624V72.7248H230.524V76.5008Z" fill="#BCBCBC" fill-opacity="0.7"/>
<path d="M15.4152 92.042C15.4358 91.4914 15.6159 91.0668 15.9555 90.7683C16.2952 90.4698 16.7557 90.3206 17.3373 90.3206C17.7232 90.3206 18.0526 90.3875 18.3253 90.5213C18.6032 90.6551 18.8117 90.8378 18.9506 91.0694C19.0947 91.301 19.1667 91.5608 19.1667 91.849C19.1667 92.1887 19.0818 92.4666 18.912 92.6827C18.7422 92.8937 18.5441 93.0378 18.3176 93.115V93.1459C18.611 93.2436 18.8425 93.4057 19.0124 93.6322C19.1822 93.8586 19.2671 94.1494 19.2671 94.5045C19.2671 94.8235 19.1925 95.1066 19.0432 95.3536C18.8991 95.5955 18.6856 95.7859 18.4025 95.9248C18.1246 96.0638 17.7927 96.1332 17.4067 96.1332C16.7892 96.1332 16.2952 95.9814 15.9246 95.6778C15.5593 95.3742 15.3663 94.9162 15.3457 94.3038H16.6271C16.6322 94.5302 16.6966 94.7103 16.8201 94.8441C16.9436 94.9728 17.1237 95.0371 17.3604 95.0371C17.5611 95.0371 17.7155 94.9805 17.8236 94.8673C17.9368 94.7489 17.9934 94.5945 17.9934 94.4041C17.9934 94.1571 17.9136 93.9795 17.7541 93.8715C17.5997 93.7583 17.3501 93.7017 17.0053 93.7017H16.7583V92.6287H17.0053C17.2678 92.6287 17.4788 92.5849 17.6383 92.4974C17.803 92.4048 17.8853 92.2427 17.8853 92.0111C17.8853 91.8259 17.8339 91.6818 17.731 91.5789C17.628 91.4759 17.4865 91.4245 17.3064 91.4245C17.1108 91.4245 16.9642 91.4836 16.8664 91.602C16.7738 91.7204 16.7197 91.867 16.7043 92.042H15.4152ZM20.969 93.061C20.4852 92.8036 20.2433 92.3997 20.2433 91.849C20.2433 91.5711 20.3154 91.319 20.4595 91.0925C20.6036 90.861 20.8223 90.6783 21.1156 90.5445C21.4089 90.4055 21.7692 90.336 22.1963 90.336C22.6234 90.336 22.9811 90.4055 23.2693 90.5445C23.5626 90.6783 23.7813 90.861 23.9254 91.0925C24.0695 91.319 24.1416 91.5711 24.1416 91.849C24.1416 92.1269 24.0747 92.3688 23.9409 92.5746C23.8122 92.7805 23.6372 92.9426 23.416 93.061C23.6939 93.1948 23.9074 93.38 24.0567 93.6167C24.2059 93.8483 24.2805 94.1211 24.2805 94.435C24.2805 94.8004 24.1879 95.1169 24.0026 95.3845C23.8174 95.6469 23.5652 95.8476 23.2461 95.9866C22.9322 96.1255 22.5823 96.195 22.1963 96.195C21.8104 96.195 21.4578 96.1255 21.1388 95.9866C20.8249 95.8476 20.5753 95.6469 20.39 95.3845C20.2047 95.1169 20.1121 94.8004 20.1121 94.435C20.1121 94.1159 20.1867 93.8406 20.336 93.609C20.4852 93.3723 20.6962 93.1896 20.969 93.061ZM22.8602 92.0497C22.8602 91.8387 22.7984 91.6766 22.6749 91.5634C22.5565 91.4451 22.397 91.3859 22.1963 91.3859C21.9956 91.3859 21.8335 91.4451 21.71 91.5634C21.5916 91.6818 21.5325 91.8465 21.5325 92.0574C21.5325 92.2581 21.5942 92.4177 21.7177 92.536C21.8412 92.6493 22.0008 92.7059 22.1963 92.7059C22.3919 92.7059 22.5514 92.6467 22.6749 92.5283C22.7984 92.41 22.8602 92.2504 22.8602 92.0497ZM22.1963 93.6322C21.9544 93.6322 21.7589 93.6991 21.6097 93.8329C21.4604 93.9615 21.3858 94.1417 21.3858 94.3732C21.3858 94.5894 21.4578 94.7669 21.6019 94.9059C21.7512 95.0448 21.9493 95.1143 22.1963 95.1143C22.4433 95.1143 22.6363 95.0448 22.7753 94.9059C22.9194 94.7669 22.9914 94.5894 22.9914 94.3732C22.9914 94.1468 22.9168 93.9667 22.7675 93.8329C22.6234 93.6991 22.433 93.6322 22.1963 93.6322ZM25.0481 93.1922C25.0481 92.307 25.2179 91.6097 25.5576 91.1003C25.9024 90.5908 26.4556 90.336 27.2172 90.336C27.9789 90.336 28.5295 90.5908 28.8692 91.1003C29.2139 91.6097 29.3863 92.307 29.3863 93.1922C29.3863 94.0876 29.2139 94.7901 28.8692 95.2995C28.5295 95.809 27.9789 96.0638 27.2172 96.0638C26.4556 96.0638 25.9024 95.809 25.5576 95.2995C25.2179 94.7901 25.0481 94.0876 25.0481 93.1922ZM28.0895 93.1922C28.0895 92.6724 28.0329 92.2736 27.9197 91.9957C27.8065 91.7127 27.5723 91.5711 27.2172 91.5711C26.8621 91.5711 26.628 91.7127 26.5148 91.9957C26.4016 92.2736 26.3449 92.6724 26.3449 93.1922C26.3449 93.5421 26.3655 93.8329 26.4067 94.0645C26.4479 94.2909 26.5302 94.4762 26.6537 94.6203C26.7824 94.7592 26.9702 94.8287 27.2172 94.8287C27.4642 94.8287 27.6495 94.7592 27.773 94.6203C27.9017 94.4762 27.9866 94.2909 28.0278 94.0645C28.0689 93.8329 28.0895 93.5421 28.0895 93.1922ZM34.4831 96.0869L33.1708 94.2806V96.0869H31.8508V90.3746H33.1708V93.5318L34.4753 91.7796H36.1041L34.3132 93.941L36.1195 96.0869H34.4831ZM36.3601 93.9332C36.3601 93.4855 36.4502 93.0944 36.6303 92.7599C36.8156 92.4254 37.0703 92.1681 37.3945 91.988C37.7239 91.8079 38.0995 91.7178 38.5215 91.7178C39.0619 91.7178 39.5122 91.8593 39.8724 92.1424C40.2378 92.4254 40.4771 92.8242 40.5903 93.3388H39.1854C39.067 93.0095 38.838 92.8448 38.4984 92.8448C38.2565 92.8448 38.0635 92.94 37.9194 93.1304C37.7753 93.3157 37.7033 93.5833 37.7033 93.9332C37.7033 94.2832 37.7753 94.5533 37.9194 94.7438C38.0635 94.929 38.2565 95.0217 38.4984 95.0217C38.838 95.0217 39.067 94.857 39.1854 94.5276H40.5903C40.4771 95.0319 40.2378 95.4282 39.8724 95.7164C39.507 96.0046 39.0567 96.1487 38.5215 96.1487C38.0995 96.1487 37.7239 96.0586 37.3945 95.8785C37.0703 95.6984 36.8156 95.4411 36.6303 95.1066C36.4502 94.7721 36.3601 94.381 36.3601 93.9332ZM41.0339 93.9255C41.0339 93.4829 41.1162 93.0944 41.2809 92.7599C41.4507 92.4254 41.6797 92.1681 41.9679 91.988C42.2561 91.8079 42.5778 91.7178 42.9328 91.7178C43.2365 91.7178 43.5015 91.7796 43.7279 91.9031C43.9595 92.0266 44.1371 92.1887 44.2606 92.3894V91.7796H45.5806V96.0869H44.2606V95.4771C44.1319 95.6778 43.9518 95.8399 43.7202 95.9634C43.4938 96.0869 43.2287 96.1487 42.9251 96.1487C42.5752 96.1487 42.2561 96.0586 41.9679 95.8785C41.6797 95.6932 41.4507 95.4333 41.2809 95.0988C41.1162 94.7592 41.0339 94.3681 41.0339 93.9255ZM44.2606 93.9332C44.2606 93.6039 44.1679 93.344 43.9827 93.1536C43.8025 92.9632 43.5813 92.868 43.3188 92.868C43.0564 92.868 42.8325 92.9632 42.6472 93.1536C42.4671 93.3388 42.3771 93.5962 42.3771 93.9255C42.3771 94.2549 42.4671 94.5173 42.6472 94.7129C42.8325 94.9033 43.0564 94.9985 43.3188 94.9985C43.5813 94.9985 43.8025 94.9033 43.9827 94.7129C44.1679 94.5225 44.2606 94.2626 44.2606 93.9332ZM47.8555 90.3746V96.0869H46.5355V90.3746H47.8555ZM51.7679 92.4974C51.9223 92.2607 52.1153 92.0755 52.3469 91.9417C52.5784 91.8027 52.8358 91.7332 53.1188 91.7332V93.1304H52.756C52.4266 93.1304 52.1796 93.2025 52.0149 93.3466C51.8503 93.4855 51.7679 93.7325 51.7679 94.0876V96.0869H50.4479V91.7796H51.7679V92.4974ZM57.8101 93.8638C57.8101 93.9873 57.8024 94.1159 57.7869 94.2497H54.7996C54.8201 94.5173 54.905 94.7232 55.0543 94.8673C55.2087 95.0062 55.3965 95.0757 55.6178 95.0757C55.9472 95.0757 56.1762 94.9367 56.3048 94.6588H57.7097C57.6377 94.9419 57.5064 95.1966 57.316 95.4231C57.1308 95.6495 56.8966 95.827 56.6136 95.9557C56.3305 96.0843 56.0141 96.1487 55.6641 96.1487C55.2421 96.1487 54.8665 96.0586 54.5371 95.8785C54.2077 95.6984 53.9504 95.4411 53.7652 95.1066C53.5799 94.7721 53.4873 94.381 53.4873 93.9332C53.4873 93.4855 53.5773 93.0944 53.7574 92.7599C53.9427 92.4254 54.2 92.1681 54.5294 91.988C54.8587 91.8079 55.237 91.7178 55.6641 91.7178C56.081 91.7178 56.4515 91.8053 56.7757 91.9803C57.0999 92.1552 57.3521 92.4048 57.5322 92.729C57.7174 93.0532 57.8101 93.4315 57.8101 93.8638ZM56.4592 93.5164C56.4592 93.29 56.382 93.1098 56.2276 92.976C56.0732 92.8422 55.8803 92.7753 55.6487 92.7753C55.4274 92.7753 55.2396 92.8397 55.0852 92.9683C54.9359 93.097 54.8433 93.2797 54.8073 93.5164H56.4592ZM64.0026 91.7332C64.5378 91.7332 64.9623 91.8953 65.2762 92.2196C65.5953 92.5438 65.7548 92.9941 65.7548 93.5704V96.0869H64.4426V93.748C64.4426 93.4701 64.3679 93.2565 64.2187 93.1073C64.0746 92.9529 63.8739 92.8757 63.6166 92.8757C63.3593 92.8757 63.156 92.9529 63.0068 93.1073C62.8627 93.2565 62.7906 93.4701 62.7906 93.748V96.0869H61.4784V93.748C61.4784 93.4701 61.4037 93.2565 61.2545 93.1073C61.1104 92.9529 60.9097 92.8757 60.6524 92.8757C60.3951 92.8757 60.1918 92.9529 60.0426 93.1073C59.8985 93.2565 59.8264 93.4701 59.8264 93.748V96.0869H58.5064V91.7796H59.8264V92.3199C59.9602 92.1398 60.1352 91.9983 60.3513 91.8953C60.5675 91.7873 60.8119 91.7332 61.0847 91.7332C61.4089 91.7332 61.6971 91.8027 61.9492 91.9417C62.2065 92.0806 62.4072 92.2787 62.5513 92.536C62.7006 92.2993 62.9039 92.1063 63.1612 91.9571C63.4185 91.8079 63.6989 91.7332 64.0026 91.7332ZM66.4156 93.9255C66.4156 93.4829 66.4979 93.0944 66.6626 92.7599C66.8324 92.4254 67.0614 92.1681 67.3496 91.988C67.6378 91.8079 67.9594 91.7178 68.3145 91.7178C68.6181 91.7178 68.8832 91.7796 69.1096 91.9031C69.3412 92.0266 69.5187 92.1887 69.6422 92.3894V91.7796H70.9622V96.0869H69.6422V95.4771C69.5136 95.6778 69.3335 95.8399 69.1019 95.9634C68.8754 96.0869 68.6104 96.1487 68.3068 96.1487C67.9568 96.1487 67.6378 96.0586 67.3496 95.8785C67.0614 95.6932 66.8324 95.4333 66.6626 95.0988C66.4979 94.7592 66.4156 94.3681 66.4156 93.9255ZM69.6422 93.9332C69.6422 93.6039 69.5496 93.344 69.3643 93.1536C69.1842 92.9632 68.9629 92.868 68.7005 92.868C68.438 92.868 68.2142 92.9632 68.0289 93.1536C67.8488 93.3388 67.7587 93.5962 67.7587 93.9255C67.7587 94.2549 67.8488 94.5173 68.0289 94.7129C68.2142 94.9033 68.438 94.9985 68.7005 94.9985C68.9629 94.9985 69.1842 94.9033 69.3643 94.7129C69.5496 94.5225 69.6422 94.2626 69.6422 93.9332ZM72.581 91.3318C72.3495 91.3318 72.159 91.2649 72.0098 91.1311C71.8657 90.9922 71.7937 90.8224 71.7937 90.6217C71.7937 90.4158 71.8657 90.246 72.0098 90.1122C72.159 89.9732 72.3495 89.9038 72.581 89.9038C72.8075 89.9038 72.9927 89.9732 73.1368 90.1122C73.2861 90.246 73.3607 90.4158 73.3607 90.6217C73.3607 90.8224 73.2861 90.9922 73.1368 91.1311C72.9927 91.2649 72.8075 91.3318 72.581 91.3318ZM73.2372 91.7796V96.0869H71.9172V91.7796H73.2372ZM76.8183 91.7332C77.3226 91.7332 77.724 91.8979 78.0225 92.2273C78.3262 92.5515 78.478 92.9992 78.478 93.5704V96.0869H77.1657V93.748C77.1657 93.4598 77.0911 93.2359 76.9418 93.0764C76.7926 92.9169 76.5919 92.8371 76.3397 92.8371C76.0876 92.8371 75.8869 92.9169 75.7376 93.0764C75.5884 93.2359 75.5138 93.4598 75.5138 93.748V96.0869H74.1938V91.7796H75.5138V92.3508C75.6476 92.1604 75.8277 92.0111 76.0541 91.9031C76.2805 91.7898 76.5353 91.7332 76.8183 91.7332ZM80.0591 91.3318C79.8275 91.3318 79.6371 91.2649 79.4879 91.1311C79.3438 90.9922 79.2717 90.8224 79.2717 90.6217C79.2717 90.4158 79.3438 90.246 79.4879 90.1122C79.6371 89.9732 79.8275 89.9038 80.0591 89.9038C80.2855 89.9038 80.4708 89.9732 80.6149 90.1122C80.7641 90.246 80.8387 90.4158 80.8387 90.6217C80.8387 90.8224 80.7641 90.9922 80.6149 91.1311C80.4708 91.2649 80.2855 91.3318 80.0591 91.3318ZM80.7152 91.7796V96.0869H79.3952V91.7796H80.7152ZM84.2964 91.7332C84.8007 91.7332 85.2021 91.8979 85.5006 92.2273C85.8042 92.5515 85.956 92.9992 85.956 93.5704V96.0869H84.6437V93.748C84.6437 93.4598 84.5691 93.2359 84.4199 93.0764C84.2706 92.9169 84.0699 92.8371 83.8178 92.8371C83.5656 92.8371 83.3649 92.9169 83.2157 93.0764C83.0664 93.2359 82.9918 93.4598 82.9918 93.748V96.0869H81.6718V91.7796H82.9918V92.3508C83.1256 92.1604 83.3057 92.0111 83.5322 91.9031C83.7586 91.7898 84.0133 91.7332 84.2964 91.7332ZM88.5098 91.7178C88.8134 91.7178 89.0784 91.7796 89.3049 91.9031C89.5364 92.0266 89.714 92.1887 89.8375 92.3894V91.7796H91.1575V96.0792C91.1575 96.4755 91.0777 96.8331 90.9182 97.1522C90.7638 97.4764 90.5245 97.7337 90.2003 97.9241C89.8812 98.1145 89.4824 98.2097 89.0038 98.2097C88.3657 98.2097 87.8485 98.0579 87.4522 97.7543C87.056 97.4558 86.8295 97.0493 86.7729 96.5346H88.0775C88.1187 96.6993 88.2164 96.828 88.3708 96.9206C88.5252 97.0184 88.7156 97.0673 88.9421 97.0673C89.2148 97.0673 89.4309 96.9875 89.5905 96.828C89.7552 96.6736 89.8375 96.424 89.8375 96.0792V95.4694C89.7088 95.6701 89.5313 95.8348 89.3049 95.9634C89.0784 96.0869 88.8134 96.1487 88.5098 96.1487C88.1547 96.1487 87.8331 96.0586 87.5449 95.8785C87.2567 95.6932 87.0277 95.4333 86.8578 95.0988C86.6932 94.7592 86.6108 94.3681 86.6108 93.9255C86.6108 93.4829 86.6932 93.0944 86.8578 92.7599C87.0277 92.4254 87.2567 92.1681 87.5449 91.988C87.8331 91.8079 88.1547 91.7178 88.5098 91.7178ZM89.8375 93.9332C89.8375 93.6039 89.7449 93.344 89.5596 93.1536C89.3795 92.9632 89.1582 92.868 88.8957 92.868C88.6333 92.868 88.4094 92.9632 88.2242 93.1536C88.044 93.3388 87.954 93.5962 87.954 93.9255C87.954 94.2549 88.044 94.5173 88.2242 94.7129C88.4094 94.9033 88.6333 94.9985 88.8957 94.9985C89.1582 94.9985 89.3795 94.9033 89.5596 94.7129C89.7449 94.5225 89.8375 94.2626 89.8375 93.9332Z" fill="#558FE6"/>
<defs>
<filter id="filter1_f_334_364" x="-50.125" y="-45.125" width="155.25" height="155.25" filterUnits="userSpaceOnUse" color-interpolation-filters="sRGB">
<feFlood flood-opacity="0" result="BackgroundImageFix"/>
<feBlend mode="normal" in="SourceGraphic" in2="BackgroundImageFix" result="shape"/>
<feGaussianBlur stdDeviation="21.5625" result="effect1_foregroundBlur_334_364"/>
</filter>
<filter id="filter2_i_334_364" x="10.9819" y="154.408" width="219" height="10.3058" filterUnits="userSpaceOnUse" color-interpolation-filters="sRGB">
<feFlood flood-opacity="0" result="BackgroundImageFix"/>
<feBlend mode="normal" in="SourceGraphic" in2="BackgroundImageFix" result="shape"/>
<feColorMatrix in="SourceAlpha" type="matrix" values="0 0 0 0 0 0 0 0 0 0 0 0 0 0 0 0 0 0 127 0" result="hardAlpha"/>
<feOffset dy="1.28824"/>
<feGaussianBlur stdDeviation="1.28824"/>
<feComposite in2="hardAlpha" operator="arithmetic" k2="-1" k3="1"/>
<feColorMatrix type="matrix" values="0 0 0 0 0 0 0 0 0 0 0 0 0 0 0 0 0 0 0.05 0"/>
<feBlend mode="normal" in2="shape" result="effect1_innerShadow_334_364"/>
</filter>
<clipPath id="clip0_334_364">
<path d="M14.592 249.979C14.592 248.898 15.4684 248.021 16.5495 248.021H81.3593C82.4404 248.021 83.3168 248.898 83.3168 249.979C83.3168 251.06 82.4404 251.936 81.3593 251.936H16.5495C15.4684 251.936 14.592 251.06 14.592 249.979Z" fill="white"/>
</clipPath>
<clipPath id="clip1_334_364">
<path d="M91.1466 249.979C91.1466 248.898 92.023 248.021 93.1041 248.021H157.924C159.005 248.021 159.882 248.898 159.882 249.979C159.882 251.06 159.005 251.936 157.924 251.936H93.104C92.023 251.936 91.1466 251.06 91.1466 249.979Z" fill="white"/>
</clipPath>
<clipPath id="clip2_334_364">
<path d="M167.711 249.979C167.711 248.898 168.588 248.021 169.669 248.021H234.479C235.56 248.021 236.436 248.898 236.436 249.979C236.436 251.06 235.56 251.936 234.479 251.936H169.669C168.588 251.936 167.711 251.06 167.711 249.979Z" fill="white"/>
</clipPath>
<clipPath id="clip3_334_364">
<path d="M11.6262 158.917C11.6262 156.783 13.3565 155.053 15.4909 155.053H177.567C179.701 155.053 181.432 156.783 181.432 158.917C181.432 161.052 179.701 162.782 177.567 162.782H15.4909C13.3565 162.782 11.6262 161.052 11.6262 158.917Z" fill="white"/>
</clipPath>
</defs>
</svg>
