<svg width="245" height="331" viewBox="0 0 245 331" fill="none" xmlns="http://www.w3.org/2000/svg">
<path d="M0 9.99999C0 4.47714 4.47715 0 10 0H235C240.523 0 245 4.47715 245 10V314.5C245 320.023 240.523 324.5 235 324.5H10C4.47715 324.5 0 320.023 0 314.5V9.99999Z" fill="#D9D9D9" fill-opacity="0.2"/>
<path d="M40.4646 170.451L38.2246 174.721V177.441H37.5246V174.721L35.2646 170.451H36.0546L37.8746 174.081L39.6846 170.451H40.4646ZM43.8791 177.521C43.3658 177.521 42.9024 177.408 42.4891 177.181C42.0824 176.948 41.7591 176.621 41.5191 176.201C41.2858 175.775 41.1691 175.278 41.1691 174.711C41.1691 174.145 41.2891 173.651 41.5291 173.231C41.7691 172.805 42.0958 172.478 42.5091 172.251C42.9224 172.018 43.3858 171.901 43.8991 171.901C44.4124 171.901 44.8758 172.018 45.2891 172.251C45.7091 172.478 46.0358 172.805 46.2691 173.231C46.5091 173.651 46.6291 174.145 46.6291 174.711C46.6291 175.271 46.5091 175.765 46.2691 176.191C46.0291 176.618 45.6991 176.948 45.2791 177.181C44.8591 177.408 44.3924 177.521 43.8791 177.521ZM43.8791 176.911C44.2391 176.911 44.5724 176.831 44.8791 176.671C45.1858 176.505 45.4324 176.258 45.6191 175.931C45.8124 175.598 45.9091 175.191 45.9091 174.711C45.9091 174.231 45.8158 173.828 45.6291 173.501C45.4424 173.168 45.1958 172.921 44.8891 172.761C44.5824 172.595 44.2491 172.511 43.8891 172.511C43.5291 172.511 43.1958 172.595 42.8891 172.761C42.5824 172.921 42.3358 173.168 42.1491 173.501C41.9691 173.828 41.8791 174.231 41.8791 174.711C41.8791 175.191 41.9691 175.598 42.1491 175.931C42.3358 176.258 42.5791 176.505 42.8791 176.671C43.1858 176.831 43.5191 176.911 43.8791 176.911ZM52.6351 171.981V177.441H51.9351V176.481C51.7751 176.821 51.5284 177.081 51.1951 177.261C50.8618 177.441 50.4884 177.531 50.0751 177.531C49.4218 177.531 48.8884 177.331 48.4751 176.931C48.0618 176.525 47.8551 175.938 47.8551 175.171V171.981H48.5451V175.091C48.5451 175.685 48.6918 176.138 48.9851 176.451C49.2851 176.765 49.6918 176.921 50.2051 176.921C50.7318 176.921 51.1518 176.755 51.4651 176.421C51.7784 176.088 51.9351 175.598 51.9351 174.951V171.981H52.6351ZM54.9332 172.951C55.0866 172.611 55.3199 172.348 55.6332 172.161C55.9532 171.975 56.3432 171.881 56.8032 171.881V172.611H56.6132C56.1066 172.611 55.6999 172.748 55.3932 173.021C55.0866 173.295 54.9332 173.751 54.9332 174.391V177.441H54.2332V171.981H54.9332V172.951ZM61.2904 173.191C61.4704 172.811 61.7471 172.501 62.1204 172.261C62.5004 172.021 62.9471 171.901 63.4604 171.901C63.9604 171.901 64.4071 172.018 64.8004 172.251C65.1937 172.478 65.5004 172.805 65.7204 173.231C65.9471 173.651 66.0604 174.141 66.0604 174.701C66.0604 175.261 65.9471 175.755 65.7204 176.181C65.5004 176.608 65.1904 176.938 64.7904 177.171C64.3971 177.405 63.9537 177.521 63.4604 177.521C62.9404 177.521 62.4904 177.405 62.1104 177.171C61.7371 176.931 61.4637 176.621 61.2904 176.241V177.441H60.6004V170.041H61.2904V173.191ZM65.3504 174.701C65.3504 174.248 65.2604 173.858 65.0804 173.531C64.9071 173.198 64.6671 172.945 64.3604 172.771C64.0537 172.598 63.7071 172.511 63.3204 172.511C62.9471 172.511 62.6037 172.601 62.2904 172.781C61.9837 172.961 61.7404 173.218 61.5604 173.551C61.3804 173.885 61.2904 174.271 61.2904 174.711C61.2904 175.151 61.3804 175.538 61.5604 175.871C61.7404 176.205 61.9837 176.461 62.2904 176.641C62.6037 176.821 62.9471 176.911 63.3204 176.911C63.7071 176.911 64.0537 176.825 64.3604 176.651C64.6671 176.471 64.9071 176.215 65.0804 175.881C65.2604 175.541 65.3504 175.148 65.3504 174.701ZM67.6985 170.951C67.5585 170.951 67.4385 170.901 67.3385 170.801C67.2385 170.701 67.1885 170.578 67.1885 170.431C67.1885 170.285 67.2385 170.165 67.3385 170.071C67.4385 169.971 67.5585 169.921 67.6985 169.921C67.8385 169.921 67.9585 169.971 68.0585 170.071C68.1585 170.165 68.2085 170.285 68.2085 170.431C68.2085 170.578 68.1585 170.701 68.0585 170.801C67.9585 170.901 67.8385 170.951 67.6985 170.951ZM68.0485 171.981V177.441H67.3485V171.981H68.0485ZM72.0236 177.521C71.5103 177.521 71.047 177.408 70.6336 177.181C70.227 176.948 69.9036 176.621 69.6636 176.201C69.4303 175.775 69.3136 175.278 69.3136 174.711C69.3136 174.145 69.4336 173.651 69.6736 173.231C69.9136 172.805 70.2403 172.478 70.6536 172.251C71.067 172.018 71.5303 171.901 72.0436 171.901C72.557 171.901 73.0203 172.018 73.4336 172.251C73.8536 172.478 74.1803 172.805 74.4136 173.231C74.6536 173.651 74.7736 174.145 74.7736 174.711C74.7736 175.271 74.6536 175.765 74.4136 176.191C74.1736 176.618 73.8436 176.948 73.4236 177.181C73.0036 177.408 72.537 177.521 72.0236 177.521ZM72.0236 176.911C72.3836 176.911 72.717 176.831 73.0236 176.671C73.3303 176.505 73.577 176.258 73.7636 175.931C73.957 175.598 74.0536 175.191 74.0536 174.711C74.0536 174.231 73.9603 173.828 73.7736 173.501C73.587 173.168 73.3403 172.921 73.0336 172.761C72.727 172.595 72.3936 172.511 72.0336 172.511C71.6736 172.511 71.3403 172.595 71.0336 172.761C70.727 172.921 70.4803 173.168 70.2936 173.501C70.1136 173.828 70.0236 174.231 70.0236 174.711C70.0236 175.191 70.1136 175.598 70.2936 175.931C70.4803 176.258 70.7236 176.505 71.0236 176.671C71.3303 176.831 71.6636 176.911 72.0236 176.911ZM76.7496 170.041V177.441H76.0496V170.041H76.7496ZM80.7248 177.521C80.2115 177.521 79.7481 177.408 79.3348 177.181C78.9281 176.948 78.6048 176.621 78.3648 176.201C78.1315 175.775 78.0148 175.278 78.0148 174.711C78.0148 174.145 78.1348 173.651 78.3748 173.231C78.6148 172.805 78.9415 172.478 79.3548 172.251C79.7681 172.018 80.2315 171.901 80.7448 171.901C81.2581 171.901 81.7215 172.018 82.1348 172.251C82.5548 172.478 82.8815 172.805 83.1148 173.231C83.3548 173.651 83.4748 174.145 83.4748 174.711C83.4748 175.271 83.3548 175.765 83.1148 176.191C82.8748 176.618 82.5448 176.948 82.1248 177.181C81.7048 177.408 81.2381 177.521 80.7248 177.521ZM80.7248 176.911C81.0848 176.911 81.4181 176.831 81.7248 176.671C82.0315 176.505 82.2781 176.258 82.4648 175.931C82.6581 175.598 82.7548 175.191 82.7548 174.711C82.7548 174.231 82.6615 173.828 82.4748 173.501C82.2881 173.168 82.0415 172.921 81.7348 172.761C81.4281 172.595 81.0948 172.511 80.7348 172.511C80.3748 172.511 80.0415 172.595 79.7348 172.761C79.4281 172.921 79.1815 173.168 78.9948 173.501C78.8148 173.828 78.7248 174.231 78.7248 174.711C78.7248 175.191 78.8148 175.598 78.9948 175.931C79.1815 176.258 79.4248 176.505 79.7248 176.671C80.0315 176.831 80.3648 176.911 80.7248 176.911ZM87.0408 171.901C87.5541 171.901 88.0008 172.021 88.3808 172.261C88.7608 172.501 89.0341 172.805 89.2008 173.171V171.981H89.9008V177.581C89.9008 178.081 89.7908 178.525 89.5708 178.911C89.3575 179.298 89.0575 179.595 88.6708 179.801C88.2841 180.015 87.8441 180.121 87.3508 180.121C86.6508 180.121 86.0675 179.955 85.6008 179.621C85.1408 179.288 84.8541 178.835 84.7408 178.261H85.4308C85.5508 178.641 85.7775 178.945 86.1108 179.171C86.4508 179.398 86.8641 179.511 87.3508 179.511C87.7041 179.511 88.0208 179.435 88.3008 179.281C88.5808 179.135 88.8008 178.915 88.9608 178.621C89.1208 178.328 89.2008 177.981 89.2008 177.581V176.231C89.0275 176.605 88.7508 176.915 88.3708 177.161C87.9975 177.401 87.5541 177.521 87.0408 177.521C86.5408 177.521 86.0908 177.405 85.6908 177.171C85.2975 176.938 84.9875 176.608 84.7608 176.181C84.5408 175.755 84.4308 175.261 84.4308 174.701C84.4308 174.141 84.5408 173.651 84.7608 173.231C84.9875 172.805 85.2975 172.478 85.6908 172.251C86.0908 172.018 86.5408 171.901 87.0408 171.901ZM89.2008 174.711C89.2008 174.271 89.1108 173.885 88.9308 173.551C88.7508 173.218 88.5041 172.961 88.1908 172.781C87.8841 172.601 87.5441 172.511 87.1708 172.511C86.7841 172.511 86.4375 172.598 86.1308 172.771C85.8241 172.945 85.5808 173.198 85.4008 173.531C85.2275 173.858 85.1408 174.248 85.1408 174.701C85.1408 175.148 85.2275 175.541 85.4008 175.881C85.5808 176.215 85.8241 176.471 86.1308 176.651C86.4375 176.825 86.7841 176.911 87.1708 176.911C87.5441 176.911 87.8841 176.821 88.1908 176.641C88.5041 176.461 88.7508 176.205 88.9308 175.871C89.1108 175.538 89.2008 175.151 89.2008 174.711ZM91.8489 170.951C91.7089 170.951 91.5889 170.901 91.4889 170.801C91.3889 170.701 91.3389 170.578 91.3389 170.431C91.3389 170.285 91.3889 170.165 91.4889 170.071C91.5889 169.971 91.7089 169.921 91.8489 169.921C91.9889 169.921 92.1089 169.971 92.2089 170.071C92.3089 170.165 92.3589 170.285 92.3589 170.431C92.3589 170.578 92.3089 170.701 92.2089 170.801C92.1089 170.901 91.9889 170.951 91.8489 170.951ZM92.1989 171.981V177.441H91.4989V171.981H92.1989ZM93.464 174.711C93.464 174.145 93.5773 173.651 93.804 173.231C94.0307 172.805 94.344 172.478 94.744 172.251C95.144 172.018 95.6007 171.901 96.114 171.901C96.7873 171.901 97.3407 172.068 97.774 172.401C98.214 172.735 98.4973 173.188 98.624 173.761H97.874C97.7807 173.368 97.5773 173.061 97.264 172.841C96.9573 172.615 96.574 172.501 96.114 172.501C95.7473 172.501 95.4173 172.585 95.124 172.751C94.8307 172.918 94.5973 173.168 94.424 173.501C94.2573 173.828 94.174 174.231 94.174 174.711C94.174 175.191 94.2573 175.598 94.424 175.931C94.5973 176.265 94.8307 176.515 95.124 176.681C95.4173 176.848 95.7473 176.931 96.114 176.931C96.574 176.931 96.9573 176.821 97.264 176.601C97.5773 176.375 97.7807 176.061 97.874 175.661H98.624C98.4973 176.221 98.214 176.671 97.774 177.011C97.334 177.351 96.7807 177.521 96.114 177.521C95.6007 177.521 95.144 177.408 94.744 177.181C94.344 176.948 94.0307 176.621 93.804 176.201C93.5773 175.775 93.464 175.278 93.464 174.711ZM99.5968 174.701C99.5968 174.141 99.7068 173.651 99.9268 173.231C100.153 172.805 100.463 172.478 100.857 172.251C101.257 172.018 101.707 171.901 102.207 171.901C102.727 171.901 103.173 172.021 103.547 172.261C103.927 172.501 104.2 172.808 104.367 173.181V171.981H105.067V177.441H104.367V176.231C104.193 176.605 103.917 176.915 103.537 177.161C103.163 177.401 102.717 177.521 102.197 177.521C101.703 177.521 101.257 177.405 100.857 177.171C100.463 176.938 100.153 176.608 99.9268 176.181C99.7068 175.755 99.5968 175.261 99.5968 174.701ZM104.367 174.711C104.367 174.271 104.277 173.885 104.097 173.551C103.917 173.218 103.67 172.961 103.357 172.781C103.05 172.601 102.71 172.511 102.337 172.511C101.95 172.511 101.603 172.598 101.297 172.771C100.99 172.945 100.747 173.198 100.567 173.531C100.393 173.858 100.307 174.248 100.307 174.701C100.307 175.148 100.393 175.541 100.567 175.881C100.747 176.215 100.99 176.471 101.297 176.651C101.603 176.825 101.95 176.911 102.337 176.911C102.71 176.911 103.05 176.821 103.357 176.641C103.67 176.461 103.917 176.205 104.097 175.871C104.277 175.538 104.367 175.151 104.367 174.711ZM107.365 170.041V177.441H106.665V170.041H107.365ZM111.374 174.701C111.374 174.141 111.484 173.651 111.704 173.231C111.931 172.805 112.241 172.478 112.634 172.251C113.034 172.018 113.484 171.901 113.984 171.901C114.504 171.901 114.951 172.021 115.324 172.261C115.704 172.501 115.977 172.808 116.144 173.181V171.981H116.844V177.441H116.144V176.231C115.971 176.605 115.694 176.915 115.314 177.161C114.941 177.401 114.494 177.521 113.974 177.521C113.481 177.521 113.034 177.405 112.634 177.171C112.241 176.938 111.931 176.608 111.704 176.181C111.484 175.755 111.374 175.261 111.374 174.701ZM116.144 174.711C116.144 174.271 116.054 173.885 115.874 173.551C115.694 173.218 115.447 172.961 115.134 172.781C114.827 172.601 114.487 172.511 114.114 172.511C113.727 172.511 113.381 172.598 113.074 172.771C112.767 172.945 112.524 173.198 112.344 173.531C112.171 173.858 112.084 174.248 112.084 174.701C112.084 175.148 112.171 175.541 112.344 175.881C112.524 176.215 112.767 176.471 113.074 176.651C113.381 176.825 113.727 176.911 114.114 176.911C114.487 176.911 114.827 176.821 115.134 176.641C115.447 176.461 115.694 176.205 115.874 175.871C116.054 175.538 116.144 175.151 116.144 174.711ZM120.732 171.901C121.246 171.901 121.692 172.021 122.072 172.261C122.452 172.501 122.726 172.805 122.892 173.171V171.981H123.592V177.581C123.592 178.081 123.482 178.525 123.262 178.911C123.049 179.298 122.749 179.595 122.362 179.801C121.976 180.015 121.536 180.121 121.042 180.121C120.342 180.121 119.759 179.955 119.292 179.621C118.832 179.288 118.546 178.835 118.432 178.261H119.122C119.242 178.641 119.469 178.945 119.802 179.171C120.142 179.398 120.556 179.511 121.042 179.511C121.396 179.511 121.712 179.435 121.992 179.281C122.272 179.135 122.492 178.915 122.652 178.621C122.812 178.328 122.892 177.981 122.892 177.581V176.231C122.719 176.605 122.442 176.915 122.062 177.161C121.689 177.401 121.246 177.521 120.732 177.521C120.232 177.521 119.782 177.405 119.382 177.171C118.989 176.938 118.679 176.608 118.452 176.181C118.232 175.755 118.122 175.261 118.122 174.701C118.122 174.141 118.232 173.651 118.452 173.231C118.679 172.805 118.989 172.478 119.382 172.251C119.782 172.018 120.232 171.901 120.732 171.901ZM122.892 174.711C122.892 174.271 122.802 173.885 122.622 173.551C122.442 173.218 122.196 172.961 121.882 172.781C121.576 172.601 121.236 172.511 120.862 172.511C120.476 172.511 120.129 172.598 119.822 172.771C119.516 172.945 119.272 173.198 119.092 173.531C118.919 173.858 118.832 174.248 118.832 174.701C118.832 175.148 118.919 175.541 119.092 175.881C119.272 176.215 119.516 176.471 119.822 176.651C120.129 176.825 120.476 176.911 120.862 176.911C121.236 176.911 121.576 176.821 121.882 176.641C122.196 176.461 122.442 176.205 122.622 175.871C122.802 175.538 122.892 175.151 122.892 174.711ZM130.13 174.431C130.13 174.671 130.124 174.855 130.11 174.981H125.58C125.6 175.395 125.7 175.748 125.88 176.041C126.06 176.335 126.297 176.558 126.59 176.711C126.884 176.858 127.204 176.931 127.55 176.931C128.004 176.931 128.384 176.821 128.69 176.601C129.004 176.381 129.21 176.085 129.31 175.711H130.05C129.917 176.245 129.63 176.681 129.19 177.021C128.757 177.355 128.21 177.521 127.55 177.521C127.037 177.521 126.577 177.408 126.17 177.181C125.764 176.948 125.444 176.621 125.21 176.201C124.984 175.775 124.87 175.278 124.87 174.711C124.87 174.145 124.984 173.648 125.21 173.221C125.437 172.795 125.754 172.468 126.16 172.241C126.567 172.015 127.03 171.901 127.55 171.901C128.07 171.901 128.524 172.015 128.91 172.241C129.304 172.468 129.604 172.775 129.81 173.161C130.024 173.541 130.13 173.965 130.13 174.431ZM129.42 174.411C129.427 174.005 129.344 173.658 129.17 173.371C129.004 173.085 128.774 172.868 128.48 172.721C128.187 172.575 127.867 172.501 127.52 172.501C127 172.501 126.557 172.668 126.19 173.001C125.824 173.335 125.62 173.805 125.58 174.411H129.42ZM134.505 170.951C134.365 170.951 134.245 170.901 134.145 170.801C134.045 170.701 133.995 170.578 133.995 170.431C133.995 170.285 134.045 170.165 134.145 170.071C134.245 169.971 134.365 169.921 134.505 169.921C134.645 169.921 134.765 169.971 134.865 170.071C134.965 170.165 135.015 170.285 135.015 170.431C135.015 170.578 134.965 170.701 134.865 170.801C134.765 170.901 134.645 170.951 134.505 170.951ZM134.855 171.981V177.441H134.155V171.981H134.855ZM138.32 177.521C137.694 177.521 137.18 177.378 136.78 177.091C136.387 176.798 136.167 176.401 136.12 175.901H136.84C136.874 176.208 137.017 176.458 137.27 176.651C137.53 176.838 137.877 176.931 138.31 176.931C138.69 176.931 138.987 176.841 139.2 176.661C139.42 176.481 139.53 176.258 139.53 175.991C139.53 175.805 139.47 175.651 139.35 175.531C139.23 175.411 139.077 175.318 138.89 175.251C138.71 175.178 138.464 175.101 138.15 175.021C137.744 174.915 137.414 174.808 137.16 174.701C136.907 174.595 136.69 174.438 136.51 174.231C136.337 174.018 136.25 173.735 136.25 173.381C136.25 173.115 136.33 172.868 136.49 172.641C136.65 172.415 136.877 172.235 137.17 172.101C137.464 171.968 137.797 171.901 138.17 171.901C138.757 171.901 139.23 172.051 139.59 172.351C139.95 172.645 140.144 173.051 140.17 173.571H139.47C139.45 173.251 139.324 172.995 139.09 172.801C138.864 172.601 138.55 172.501 138.15 172.501C137.797 172.501 137.51 172.585 137.29 172.751C137.07 172.918 136.96 173.125 136.96 173.371C136.96 173.585 137.024 173.761 137.15 173.901C137.284 174.035 137.447 174.141 137.64 174.221C137.834 174.295 138.094 174.378 138.42 174.471C138.814 174.578 139.127 174.681 139.36 174.781C139.594 174.881 139.794 175.028 139.96 175.221C140.127 175.415 140.214 175.671 140.22 175.991C140.22 176.285 140.14 176.548 139.98 176.781C139.82 177.008 139.597 177.188 139.31 177.321C139.024 177.455 138.694 177.521 138.32 177.521ZM143.992 176.891C145.219 175.971 146.165 175.148 146.832 174.421C147.505 173.688 147.842 172.971 147.842 172.271C147.842 171.811 147.725 171.445 147.492 171.171C147.265 170.891 146.892 170.751 146.372 170.751C145.865 170.751 145.472 170.911 145.192 171.231C144.919 171.545 144.765 171.965 144.732 172.491H144.052C144.092 171.751 144.319 171.178 144.732 170.771C145.152 170.358 145.699 170.151 146.372 170.151C147.019 170.151 147.542 170.335 147.942 170.701C148.342 171.061 148.542 171.575 148.542 172.241C148.542 173.048 148.205 173.831 147.532 174.591C146.865 175.345 146.042 176.081 145.062 176.801H148.762V177.391H143.992V176.891ZM157.249 171.981L154.009 180.011H153.279L154.339 177.411L152.099 171.981H152.869L154.729 176.641L156.529 171.981H157.249ZM163.138 174.431C163.138 174.671 163.131 174.855 163.118 174.981H158.588C158.608 175.395 158.708 175.748 158.888 176.041C159.068 176.335 159.305 176.558 159.598 176.711C159.891 176.858 160.211 176.931 160.558 176.931C161.011 176.931 161.391 176.821 161.698 176.601C162.011 176.381 162.218 176.085 162.318 175.711H163.058C162.925 176.245 162.638 176.681 162.198 177.021C161.765 177.355 161.218 177.521 160.558 177.521C160.045 177.521 159.585 177.408 159.178 177.181C158.771 176.948 158.451 176.621 158.218 176.201C157.991 175.775 157.878 175.278 157.878 174.711C157.878 174.145 157.991 173.648 158.218 173.221C158.445 172.795 158.761 172.468 159.168 172.241C159.575 172.015 160.038 171.901 160.558 171.901C161.078 171.901 161.531 172.015 161.918 172.241C162.311 172.468 162.611 172.775 162.818 173.161C163.031 173.541 163.138 173.965 163.138 174.431ZM162.428 174.411C162.435 174.005 162.351 173.658 162.178 173.371C162.011 173.085 161.781 172.868 161.488 172.721C161.195 172.575 160.875 172.501 160.528 172.501C160.008 172.501 159.565 172.668 159.198 173.001C158.831 173.335 158.628 173.805 158.588 174.411H162.428ZM164.099 174.701C164.099 174.141 164.209 173.651 164.429 173.231C164.655 172.805 164.965 172.478 165.359 172.251C165.759 172.018 166.209 171.901 166.709 171.901C167.229 171.901 167.675 172.021 168.049 172.261C168.429 172.501 168.702 172.808 168.869 173.181V171.981H169.569V177.441H168.869V176.231C168.695 176.605 168.419 176.915 168.039 177.161C167.665 177.401 167.219 177.521 166.699 177.521C166.205 177.521 165.759 177.405 165.359 177.171C164.965 176.938 164.655 176.608 164.429 176.181C164.209 175.755 164.099 175.261 164.099 174.701ZM168.869 174.711C168.869 174.271 168.779 173.885 168.599 173.551C168.419 173.218 168.172 172.961 167.859 172.781C167.552 172.601 167.212 172.511 166.839 172.511C166.452 172.511 166.105 172.598 165.799 172.771C165.492 172.945 165.249 173.198 165.069 173.531C164.895 173.858 164.809 174.248 164.809 174.701C164.809 175.148 164.895 175.541 165.069 175.881C165.249 176.215 165.492 176.471 165.799 176.651C166.105 176.825 166.452 176.911 166.839 176.911C167.212 176.911 167.552 176.821 167.859 176.641C168.172 176.461 168.419 176.205 168.599 175.871C168.779 175.538 168.869 175.151 168.869 174.711ZM171.867 172.951C172.02 172.611 172.253 172.348 172.567 172.161C172.887 171.975 173.277 171.881 173.737 171.881V172.611H173.547C173.04 172.611 172.633 172.748 172.327 173.021C172.02 173.295 171.867 173.751 171.867 174.391V177.441H171.167V171.981H171.867V172.951ZM176.67 177.521C176.043 177.521 175.53 177.378 175.13 177.091C174.737 176.798 174.517 176.401 174.47 175.901H175.19C175.223 176.208 175.367 176.458 175.62 176.651C175.88 176.838 176.227 176.931 176.66 176.931C177.04 176.931 177.337 176.841 177.55 176.661C177.77 176.481 177.88 176.258 177.88 175.991C177.88 175.805 177.82 175.651 177.7 175.531C177.58 175.411 177.427 175.318 177.24 175.251C177.06 175.178 176.813 175.101 176.5 175.021C176.093 174.915 175.763 174.808 175.51 174.701C175.257 174.595 175.04 174.438 174.86 174.231C174.687 174.018 174.6 173.735 174.6 173.381C174.6 173.115 174.68 172.868 174.84 172.641C175 172.415 175.227 172.235 175.52 172.101C175.813 171.968 176.147 171.901 176.52 171.901C177.107 171.901 177.58 172.051 177.94 172.351C178.3 172.645 178.493 173.051 178.52 173.571H177.82C177.8 173.251 177.673 172.995 177.44 172.801C177.213 172.601 176.9 172.501 176.5 172.501C176.147 172.501 175.86 172.585 175.64 172.751C175.42 172.918 175.31 173.125 175.31 173.371C175.31 173.585 175.373 173.761 175.5 173.901C175.633 174.035 175.797 174.141 175.99 174.221C176.183 174.295 176.443 174.378 176.77 174.471C177.163 174.578 177.477 174.681 177.71 174.781C177.943 174.881 178.143 175.028 178.31 175.221C178.477 175.415 178.563 175.671 178.57 175.991C178.57 176.285 178.49 176.548 178.33 176.781C178.17 177.008 177.947 177.188 177.66 177.321C177.373 177.455 177.043 177.521 176.67 177.521ZM185.022 177.521C184.508 177.521 184.045 177.408 183.632 177.181C183.225 176.948 182.902 176.621 182.662 176.201C182.428 175.775 182.312 175.278 182.312 174.711C182.312 174.145 182.432 173.651 182.672 173.231C182.912 172.805 183.238 172.478 183.652 172.251C184.065 172.018 184.528 171.901 185.042 171.901C185.555 171.901 186.018 172.018 186.432 172.251C186.852 172.478 187.178 172.805 187.412 173.231C187.652 173.651 187.772 174.145 187.772 174.711C187.772 175.271 187.652 175.765 187.412 176.191C187.172 176.618 186.842 176.948 186.422 177.181C186.002 177.408 185.535 177.521 185.022 177.521ZM185.022 176.911C185.382 176.911 185.715 176.831 186.022 176.671C186.328 176.505 186.575 176.258 186.762 175.931C186.955 175.598 187.052 175.191 187.052 174.711C187.052 174.231 186.958 173.828 186.772 173.501C186.585 173.168 186.338 172.921 186.032 172.761C185.725 172.595 185.392 172.511 185.032 172.511C184.672 172.511 184.338 172.595 184.032 172.761C183.725 172.921 183.478 173.168 183.292 173.501C183.112 173.828 183.022 174.231 183.022 174.711C183.022 175.191 183.112 175.598 183.292 175.931C183.478 176.258 183.722 176.505 184.022 176.671C184.328 176.831 184.662 176.911 185.022 176.911ZM189.748 170.041V177.441H189.048V170.041H189.748ZM191.013 174.701C191.013 174.141 191.126 173.651 191.353 173.231C191.58 172.805 191.89 172.478 192.283 172.251C192.683 172.018 193.133 171.901 193.633 171.901C194.113 171.901 194.546 172.018 194.933 172.251C195.32 172.485 195.603 172.788 195.783 173.161V170.041H196.483V177.441H195.783V176.221C195.616 176.601 195.343 176.915 194.963 177.161C194.583 177.401 194.136 177.521 193.623 177.521C193.123 177.521 192.673 177.405 192.273 177.171C191.88 176.938 191.57 176.608 191.343 176.181C191.123 175.755 191.013 175.261 191.013 174.701ZM195.783 174.711C195.783 174.271 195.693 173.885 195.513 173.551C195.333 173.218 195.086 172.961 194.773 172.781C194.466 172.601 194.126 172.511 193.753 172.511C193.366 172.511 193.02 172.598 192.713 172.771C192.406 172.945 192.163 173.198 191.983 173.531C191.81 173.858 191.723 174.248 191.723 174.701C191.723 175.148 191.81 175.541 191.983 175.881C192.163 176.215 192.406 176.471 192.713 176.651C193.02 176.825 193.366 176.911 193.753 176.911C194.126 176.911 194.466 176.821 194.773 176.641C195.086 176.461 195.333 176.205 195.513 175.871C195.693 175.538 195.783 175.151 195.783 174.711ZM203.021 174.431C203.021 174.671 203.014 174.855 203.001 174.981H198.471C198.491 175.395 198.591 175.748 198.771 176.041C198.951 176.335 199.188 176.558 199.481 176.711C199.774 176.858 200.094 176.931 200.441 176.931C200.894 176.931 201.274 176.821 201.581 176.601C201.894 176.381 202.101 176.085 202.201 175.711H202.941C202.808 176.245 202.521 176.681 202.081 177.021C201.648 177.355 201.101 177.521 200.441 177.521C199.928 177.521 199.468 177.408 199.061 177.181C198.654 176.948 198.334 176.621 198.101 176.201C197.874 175.775 197.761 175.278 197.761 174.711C197.761 174.145 197.874 173.648 198.101 173.221C198.328 172.795 198.644 172.468 199.051 172.241C199.458 172.015 199.921 171.901 200.441 171.901C200.961 171.901 201.414 172.015 201.801 172.241C202.194 172.468 202.494 172.775 202.701 173.161C202.914 173.541 203.021 173.965 203.021 174.431ZM202.311 174.411C202.318 174.005 202.234 173.658 202.061 173.371C201.894 173.085 201.664 172.868 201.371 172.721C201.078 172.575 200.758 172.501 200.411 172.501C199.891 172.501 199.448 172.668 199.081 173.001C198.714 173.335 198.511 173.805 198.471 174.411H202.311ZM205.002 172.951C205.155 172.611 205.388 172.348 205.702 172.161C206.022 171.975 206.412 171.881 206.872 171.881V172.611H206.682C206.175 172.611 205.768 172.748 205.462 173.021C205.155 173.295 205.002 173.751 205.002 174.391V177.441H204.302V171.981H205.002V172.951ZM36.7546 187.571V190.961C36.7546 191.295 36.8179 191.525 36.9446 191.651C37.0712 191.778 37.2946 191.841 37.6146 191.841H38.2546V192.441H37.5046C37.0112 192.441 36.6446 192.328 36.4046 192.101C36.1646 191.868 36.0446 191.488 36.0446 190.961V187.571H35.2846V186.981H36.0446V185.611H36.7546V186.981H38.2546V187.571H36.7546ZM42.009 186.881C42.4223 186.881 42.7923 186.968 43.119 187.141C43.4523 187.315 43.7123 187.581 43.899 187.941C44.0923 188.295 44.189 188.728 44.189 189.241V192.441H43.499V189.321C43.499 188.728 43.349 188.275 43.049 187.961C42.7557 187.648 42.3523 187.491 41.839 187.491C41.3123 187.491 40.8923 187.658 40.579 187.991C40.2657 188.325 40.109 188.815 40.109 189.461V192.441H39.409V185.041H40.109V187.911C40.2823 187.585 40.5357 187.331 40.869 187.151C41.209 186.971 41.589 186.881 42.009 186.881ZM45.4171 189.701C45.4171 189.141 45.5271 188.651 45.7471 188.231C45.9738 187.805 46.2838 187.478 46.6771 187.251C47.0771 187.018 47.5271 186.901 48.0271 186.901C48.5471 186.901 48.9938 187.021 49.3671 187.261C49.7471 187.501 50.0205 187.808 50.1871 188.181V186.981H50.8871V192.441H50.1871V191.231C50.0138 191.605 49.7371 191.915 49.3571 192.161C48.9838 192.401 48.5371 192.521 48.0171 192.521C47.5238 192.521 47.0771 192.405 46.6771 192.171C46.2838 191.938 45.9738 191.608 45.7471 191.181C45.5271 190.755 45.4171 190.261 45.4171 189.701ZM50.1871 189.711C50.1871 189.271 50.0971 188.885 49.9171 188.551C49.7371 188.218 49.4905 187.961 49.1771 187.781C48.8705 187.601 48.5305 187.511 48.1571 187.511C47.7705 187.511 47.4238 187.598 47.1171 187.771C46.8105 187.945 46.5671 188.198 46.3871 188.531C46.2138 188.858 46.1271 189.248 46.1271 189.701C46.1271 190.148 46.2138 190.541 46.3871 190.881C46.5671 191.215 46.8105 191.471 47.1171 191.651C47.4238 191.825 47.7705 191.911 48.1571 191.911C48.5305 191.911 48.8705 191.821 49.1771 191.641C49.4905 191.461 49.7371 191.205 49.9171 190.871C50.0971 190.538 50.1871 190.151 50.1871 189.711ZM55.0452 186.881C55.6985 186.881 56.2318 187.085 56.6452 187.491C57.0585 187.891 57.2652 188.475 57.2652 189.241V192.441H56.5752V189.321C56.5752 188.728 56.4252 188.275 56.1252 187.961C55.8318 187.648 55.4285 187.491 54.9152 187.491C54.3885 187.491 53.9685 187.658 53.6552 187.991C53.3418 188.325 53.1852 188.815 53.1852 189.461V192.441H52.4852V186.981H53.1852V187.911C53.3585 187.578 53.6085 187.325 53.9352 187.151C54.2618 186.971 54.6318 186.881 55.0452 186.881ZM66.0574 186.981L62.8174 195.011H62.0874L63.1474 192.411L60.9074 186.981H61.6774L63.5374 191.641L65.3374 186.981H66.0574ZM69.3967 192.521C68.8833 192.521 68.42 192.408 68.0067 192.181C67.6 191.948 67.2767 191.621 67.0367 191.201C66.8033 190.775 66.6867 190.278 66.6867 189.711C66.6867 189.145 66.8067 188.651 67.0467 188.231C67.2867 187.805 67.6133 187.478 68.0267 187.251C68.44 187.018 68.9033 186.901 69.4167 186.901C69.93 186.901 70.3933 187.018 70.8067 187.251C71.2267 187.478 71.5533 187.805 71.7867 188.231C72.0267 188.651 72.1467 189.145 72.1467 189.711C72.1467 190.271 72.0267 190.765 71.7867 191.191C71.5467 191.618 71.2167 191.948 70.7967 192.181C70.3767 192.408 69.91 192.521 69.3967 192.521ZM69.3967 191.911C69.7567 191.911 70.09 191.831 70.3967 191.671C70.7033 191.505 70.95 191.258 71.1367 190.931C71.33 190.598 71.4267 190.191 71.4267 189.711C71.4267 189.231 71.3333 188.828 71.1467 188.501C70.96 188.168 70.7133 187.921 70.4067 187.761C70.1 187.595 69.7667 187.511 69.4067 187.511C69.0467 187.511 68.7133 187.595 68.4067 187.761C68.1 187.921 67.8533 188.168 67.6667 188.501C67.4867 188.828 67.3967 189.231 67.3967 189.711C67.3967 190.191 67.4867 190.598 67.6667 190.931C67.8533 191.258 68.0967 191.505 68.3967 191.671C68.7033 191.831 69.0367 191.911 69.3967 191.911ZM78.1527 186.981V192.441H77.4527V191.481C77.2927 191.821 77.046 192.081 76.7127 192.261C76.3793 192.441 76.006 192.531 75.5927 192.531C74.9393 192.531 74.406 192.331 73.9927 191.931C73.5793 191.525 73.3727 190.938 73.3727 190.171V186.981H74.0627V190.091C74.0627 190.685 74.2093 191.138 74.5027 191.451C74.8027 191.765 75.2093 191.921 75.7227 191.921C76.2493 191.921 76.6693 191.755 76.9827 191.421C77.296 191.088 77.4527 190.598 77.4527 189.951V186.981H78.1527ZM80.4508 187.951C80.6041 187.611 80.8375 187.348 81.1508 187.161C81.4708 186.975 81.8608 186.881 82.3208 186.881V187.611H82.1308C81.6241 187.611 81.2175 187.748 80.9108 188.021C80.6041 188.295 80.4508 188.751 80.4508 189.391V192.441H79.7508V186.981H80.4508V187.951ZM85.798 189.711C85.798 189.145 85.9113 188.651 86.138 188.231C86.3647 187.805 86.678 187.478 87.078 187.251C87.478 187.018 87.9347 186.901 88.448 186.901C89.1213 186.901 89.6747 187.068 90.108 187.401C90.548 187.735 90.8313 188.188 90.958 188.761H90.208C90.1147 188.368 89.9113 188.061 89.598 187.841C89.2913 187.615 88.908 187.501 88.448 187.501C88.0813 187.501 87.7513 187.585 87.458 187.751C87.1647 187.918 86.9313 188.168 86.758 188.501C86.5913 188.828 86.508 189.231 86.508 189.711C86.508 190.191 86.5913 190.598 86.758 190.931C86.9313 191.265 87.1647 191.515 87.458 191.681C87.7513 191.848 88.0813 191.931 88.448 191.931C88.908 191.931 89.2913 191.821 89.598 191.601C89.9113 191.375 90.1147 191.061 90.208 190.661H90.958C90.8313 191.221 90.548 191.671 90.108 192.011C89.668 192.351 89.1147 192.521 88.448 192.521C87.9347 192.521 87.478 192.408 87.078 192.181C86.678 191.948 86.3647 191.621 86.138 191.201C85.9113 190.775 85.798 190.278 85.798 189.711ZM94.8508 186.881C95.2641 186.881 95.6341 186.968 95.9608 187.141C96.2941 187.315 96.5541 187.581 96.7408 187.941C96.9341 188.295 97.0308 188.728 97.0308 189.241V192.441H96.3408V189.321C96.3408 188.728 96.1908 188.275 95.8908 187.961C95.5975 187.648 95.1941 187.491 94.6808 187.491C94.1541 187.491 93.7341 187.658 93.4208 187.991C93.1075 188.325 92.9508 188.815 92.9508 189.461V192.441H92.2508V185.041H92.9508V187.911C93.1241 187.585 93.3775 187.331 93.7108 187.151C94.0508 186.971 94.4308 186.881 94.8508 186.881ZM99.2789 187.951C99.4323 187.611 99.6656 187.348 99.9789 187.161C100.299 186.975 100.689 186.881 101.149 186.881V187.611H100.959C100.452 187.611 100.046 187.748 99.7389 188.021C99.4323 188.295 99.2789 188.751 99.2789 189.391V192.441H98.5789V186.981H99.2789V187.951ZM104.592 192.521C104.079 192.521 103.615 192.408 103.202 192.181C102.795 191.948 102.472 191.621 102.232 191.201C101.999 190.775 101.882 190.278 101.882 189.711C101.882 189.145 102.002 188.651 102.242 188.231C102.482 187.805 102.809 187.478 103.222 187.251C103.635 187.018 104.099 186.901 104.612 186.901C105.125 186.901 105.589 187.018 106.002 187.251C106.422 187.478 106.749 187.805 106.982 188.231C107.222 188.651 107.342 189.145 107.342 189.711C107.342 190.271 107.222 190.765 106.982 191.191C106.742 191.618 106.412 191.948 105.992 192.181C105.572 192.408 105.105 192.521 104.592 192.521ZM104.592 191.911C104.952 191.911 105.285 191.831 105.592 191.671C105.899 191.505 106.145 191.258 106.332 190.931C106.525 190.598 106.622 190.191 106.622 189.711C106.622 189.231 106.529 188.828 106.342 188.501C106.155 188.168 105.909 187.921 105.602 187.761C105.295 187.595 104.962 187.511 104.602 187.511C104.242 187.511 103.909 187.595 103.602 187.761C103.295 187.921 103.049 188.168 102.862 188.501C102.682 188.828 102.592 189.231 102.592 189.711C102.592 190.191 102.682 190.598 102.862 190.931C103.049 191.258 103.292 191.505 103.592 191.671C103.899 191.831 104.232 191.911 104.592 191.911ZM111.178 186.881C111.831 186.881 112.365 187.085 112.778 187.491C113.191 187.891 113.398 188.475 113.398 189.241V192.441H112.708V189.321C112.708 188.728 112.558 188.275 112.258 187.961C111.965 187.648 111.561 187.491 111.048 187.491C110.521 187.491 110.101 187.658 109.788 187.991C109.475 188.325 109.318 188.815 109.318 189.461V192.441H108.618V186.981H109.318V187.911C109.491 187.578 109.741 187.325 110.068 187.151C110.395 186.971 110.765 186.881 111.178 186.881ZM117.336 192.521C116.823 192.521 116.359 192.408 115.946 192.181C115.539 191.948 115.216 191.621 114.976 191.201C114.743 190.775 114.626 190.278 114.626 189.711C114.626 189.145 114.746 188.651 114.986 188.231C115.226 187.805 115.553 187.478 115.966 187.251C116.379 187.018 116.843 186.901 117.356 186.901C117.869 186.901 118.333 187.018 118.746 187.251C119.166 187.478 119.493 187.805 119.726 188.231C119.966 188.651 120.086 189.145 120.086 189.711C120.086 190.271 119.966 190.765 119.726 191.191C119.486 191.618 119.156 191.948 118.736 192.181C118.316 192.408 117.849 192.521 117.336 192.521ZM117.336 191.911C117.696 191.911 118.029 191.831 118.336 191.671C118.643 191.505 118.889 191.258 119.076 190.931C119.269 190.598 119.366 190.191 119.366 189.711C119.366 189.231 119.273 188.828 119.086 188.501C118.899 188.168 118.653 187.921 118.346 187.761C118.039 187.595 117.706 187.511 117.346 187.511C116.986 187.511 116.653 187.595 116.346 187.761C116.039 187.921 115.793 188.168 115.606 188.501C115.426 188.828 115.336 189.231 115.336 189.711C115.336 190.191 115.426 190.598 115.606 190.931C115.793 191.258 116.036 191.505 116.336 191.671C116.643 191.831 116.976 191.911 117.336 191.911ZM122.062 185.041V192.441H121.362V185.041H122.062ZM126.037 192.521C125.524 192.521 125.061 192.408 124.647 192.181C124.241 191.948 123.917 191.621 123.677 191.201C123.444 190.775 123.327 190.278 123.327 189.711C123.327 189.145 123.447 188.651 123.687 188.231C123.927 187.805 124.254 187.478 124.667 187.251C125.081 187.018 125.544 186.901 126.057 186.901C126.571 186.901 127.034 187.018 127.447 187.251C127.867 187.478 128.194 187.805 128.427 188.231C128.667 188.651 128.787 189.145 128.787 189.711C128.787 190.271 128.667 190.765 128.427 191.191C128.187 191.618 127.857 191.948 127.437 192.181C127.017 192.408 126.551 192.521 126.037 192.521ZM126.037 191.911C126.397 191.911 126.731 191.831 127.037 191.671C127.344 191.505 127.591 191.258 127.777 190.931C127.971 190.598 128.067 190.191 128.067 189.711C128.067 189.231 127.974 188.828 127.787 188.501C127.601 188.168 127.354 187.921 127.047 187.761C126.741 187.595 126.407 187.511 126.047 187.511C125.687 187.511 125.354 187.595 125.047 187.761C124.741 187.921 124.494 188.168 124.307 188.501C124.127 188.828 124.037 189.231 124.037 189.711C124.037 190.191 124.127 190.598 124.307 190.931C124.494 191.258 124.737 191.505 125.037 191.671C125.344 191.831 125.677 191.911 126.037 191.911ZM132.353 186.901C132.867 186.901 133.313 187.021 133.693 187.261C134.073 187.501 134.347 187.805 134.513 188.171V186.981H135.213V192.581C135.213 193.081 135.103 193.525 134.883 193.911C134.67 194.298 134.37 194.595 133.983 194.801C133.597 195.015 133.157 195.121 132.663 195.121C131.963 195.121 131.38 194.955 130.913 194.621C130.453 194.288 130.167 193.835 130.053 193.261H130.743C130.863 193.641 131.09 193.945 131.423 194.171C131.763 194.398 132.177 194.511 132.663 194.511C133.017 194.511 133.333 194.435 133.613 194.281C133.893 194.135 134.113 193.915 134.273 193.621C134.433 193.328 134.513 192.981 134.513 192.581V191.231C134.34 191.605 134.063 191.915 133.683 192.161C133.31 192.401 132.867 192.521 132.353 192.521C131.853 192.521 131.403 192.405 131.003 192.171C130.61 191.938 130.3 191.608 130.073 191.181C129.853 190.755 129.743 190.261 129.743 189.701C129.743 189.141 129.853 188.651 130.073 188.231C130.3 187.805 130.61 187.478 131.003 187.251C131.403 187.018 131.853 186.901 132.353 186.901ZM134.513 189.711C134.513 189.271 134.423 188.885 134.243 188.551C134.063 188.218 133.817 187.961 133.503 187.781C133.197 187.601 132.857 187.511 132.483 187.511C132.097 187.511 131.75 187.598 131.443 187.771C131.137 187.945 130.893 188.198 130.713 188.531C130.54 188.858 130.453 189.248 130.453 189.701C130.453 190.148 130.54 190.541 130.713 190.881C130.893 191.215 131.137 191.471 131.443 191.651C131.75 191.825 132.097 191.911 132.483 191.911C132.857 191.911 133.197 191.821 133.503 191.641C133.817 191.461 134.063 191.205 134.243 190.871C134.423 190.538 134.513 190.151 134.513 189.711ZM137.161 185.951C137.021 185.951 136.901 185.901 136.801 185.801C136.701 185.701 136.651 185.578 136.651 185.431C136.651 185.285 136.701 185.165 136.801 185.071C136.901 184.971 137.021 184.921 137.161 184.921C137.301 184.921 137.421 184.971 137.521 185.071C137.621 185.165 137.671 185.285 137.671 185.431C137.671 185.578 137.621 185.701 137.521 185.801C137.421 185.901 137.301 185.951 137.161 185.951ZM137.511 186.981V192.441H136.811V186.981H137.511ZM138.777 189.711C138.777 189.145 138.89 188.651 139.117 188.231C139.343 187.805 139.657 187.478 140.057 187.251C140.457 187.018 140.913 186.901 141.427 186.901C142.1 186.901 142.653 187.068 143.087 187.401C143.527 187.735 143.81 188.188 143.937 188.761H143.187C143.093 188.368 142.89 188.061 142.577 187.841C142.27 187.615 141.887 187.501 141.427 187.501C141.06 187.501 140.73 187.585 140.437 187.751C140.143 187.918 139.91 188.168 139.737 188.501C139.57 188.828 139.487 189.231 139.487 189.711C139.487 190.191 139.57 190.598 139.737 190.931C139.91 191.265 140.143 191.515 140.437 191.681C140.73 191.848 141.06 191.931 141.427 191.931C141.887 191.931 142.27 191.821 142.577 191.601C142.89 191.375 143.093 191.061 143.187 190.661H143.937C143.81 191.221 143.527 191.671 143.087 192.011C142.647 192.351 142.093 192.521 141.427 192.521C140.913 192.521 140.457 192.408 140.057 192.181C139.657 191.948 139.343 191.621 139.117 191.201C138.89 190.775 138.777 190.278 138.777 189.711ZM144.909 189.701C144.909 189.141 145.019 188.651 145.239 188.231C145.466 187.805 145.776 187.478 146.169 187.251C146.569 187.018 147.019 186.901 147.519 186.901C148.039 186.901 148.486 187.021 148.859 187.261C149.239 187.501 149.513 187.808 149.679 188.181V186.981H150.379V192.441H149.679V191.231C149.506 191.605 149.229 191.915 148.849 192.161C148.476 192.401 148.029 192.521 147.509 192.521C147.016 192.521 146.569 192.405 146.169 192.171C145.776 191.938 145.466 191.608 145.239 191.181C145.019 190.755 144.909 190.261 144.909 189.701ZM149.679 189.711C149.679 189.271 149.589 188.885 149.409 188.551C149.229 188.218 148.983 187.961 148.669 187.781C148.363 187.601 148.023 187.511 147.649 187.511C147.263 187.511 146.916 187.598 146.609 187.771C146.303 187.945 146.059 188.198 145.879 188.531C145.706 188.858 145.619 189.248 145.619 189.701C145.619 190.148 145.706 190.541 145.879 190.881C146.059 191.215 146.303 191.471 146.609 191.651C146.916 191.825 147.263 191.911 147.649 191.911C148.023 191.911 148.363 191.821 148.669 191.641C148.983 191.461 149.229 191.205 149.409 190.871C149.589 190.538 149.679 190.151 149.679 189.711ZM152.677 185.041V192.441H151.977V185.041H152.677ZM156.687 189.701C156.687 189.141 156.797 188.651 157.017 188.231C157.243 187.805 157.553 187.478 157.947 187.251C158.347 187.018 158.797 186.901 159.297 186.901C159.817 186.901 160.263 187.021 160.637 187.261C161.017 187.501 161.29 187.808 161.457 188.181V186.981H162.157V192.441H161.457V191.231C161.283 191.605 161.007 191.915 160.627 192.161C160.253 192.401 159.807 192.521 159.287 192.521C158.793 192.521 158.347 192.405 157.947 192.171C157.553 191.938 157.243 191.608 157.017 191.181C156.797 190.755 156.687 190.261 156.687 189.701ZM161.457 189.711C161.457 189.271 161.367 188.885 161.187 188.551C161.007 188.218 160.76 187.961 160.447 187.781C160.14 187.601 159.8 187.511 159.427 187.511C159.04 187.511 158.693 187.598 158.387 187.771C158.08 187.945 157.837 188.198 157.657 188.531C157.483 188.858 157.397 189.248 157.397 189.701C157.397 190.148 157.483 190.541 157.657 190.881C157.837 191.215 158.08 191.471 158.387 191.651C158.693 191.825 159.04 191.911 159.427 191.911C159.8 191.911 160.14 191.821 160.447 191.641C160.76 191.461 161.007 191.205 161.187 190.871C161.367 190.538 161.457 190.151 161.457 189.711ZM166.045 186.901C166.558 186.901 167.005 187.021 167.385 187.261C167.765 187.501 168.038 187.805 168.205 188.171V186.981H168.905V192.581C168.905 193.081 168.795 193.525 168.575 193.911C168.361 194.298 168.061 194.595 167.675 194.801C167.288 195.015 166.848 195.121 166.355 195.121C165.655 195.121 165.071 194.955 164.605 194.621C164.145 194.288 163.858 193.835 163.745 193.261H164.435C164.555 193.641 164.781 193.945 165.115 194.171C165.455 194.398 165.868 194.511 166.355 194.511C166.708 194.511 167.025 194.435 167.305 194.281C167.585 194.135 167.805 193.915 167.965 193.621C168.125 193.328 168.205 192.981 168.205 192.581V191.231C168.031 191.605 167.755 191.915 167.375 192.161C167.001 192.401 166.558 192.521 166.045 192.521C165.545 192.521 165.095 192.405 164.695 192.171C164.301 191.938 163.991 191.608 163.765 191.181C163.545 190.755 163.435 190.261 163.435 189.701C163.435 189.141 163.545 188.651 163.765 188.231C163.991 187.805 164.301 187.478 164.695 187.251C165.095 187.018 165.545 186.901 166.045 186.901ZM168.205 189.711C168.205 189.271 168.115 188.885 167.935 188.551C167.755 188.218 167.508 187.961 167.195 187.781C166.888 187.601 166.548 187.511 166.175 187.511C165.788 187.511 165.441 187.598 165.135 187.771C164.828 187.945 164.585 188.198 164.405 188.531C164.231 188.858 164.145 189.248 164.145 189.701C164.145 190.148 164.231 190.541 164.405 190.881C164.585 191.215 164.828 191.471 165.135 191.651C165.441 191.825 165.788 191.911 166.175 191.911C166.548 191.911 166.888 191.821 167.195 191.641C167.508 191.461 167.755 191.205 167.935 190.871C168.115 190.538 168.205 190.151 168.205 189.711ZM175.443 189.431C175.443 189.671 175.436 189.855 175.423 189.981H170.893C170.913 190.395 171.013 190.748 171.193 191.041C171.373 191.335 171.609 191.558 171.903 191.711C172.196 191.858 172.516 191.931 172.863 191.931C173.316 191.931 173.696 191.821 174.003 191.601C174.316 191.381 174.523 191.085 174.623 190.711H175.363C175.229 191.245 174.943 191.681 174.503 192.021C174.069 192.355 173.523 192.521 172.863 192.521C172.349 192.521 171.889 192.408 171.483 192.181C171.076 191.948 170.756 191.621 170.523 191.201C170.296 190.775 170.183 190.278 170.183 189.711C170.183 189.145 170.296 188.648 170.523 188.221C170.749 187.795 171.066 187.468 171.473 187.241C171.879 187.015 172.343 186.901 172.863 186.901C173.383 186.901 173.836 187.015 174.223 187.241C174.616 187.468 174.916 187.775 175.123 188.161C175.336 188.541 175.443 188.965 175.443 189.431ZM174.733 189.411C174.739 189.005 174.656 188.658 174.483 188.371C174.316 188.085 174.086 187.868 173.793 187.721C173.499 187.575 173.179 187.501 172.833 187.501C172.313 187.501 171.869 187.668 171.503 188.001C171.136 188.335 170.933 188.805 170.893 189.411H174.733ZM176.843 192.491C176.697 192.491 176.573 192.441 176.473 192.341C176.38 192.241 176.333 192.118 176.333 191.971C176.333 191.825 176.38 191.705 176.473 191.611C176.573 191.511 176.697 191.461 176.843 191.461C176.983 191.461 177.1 191.511 177.193 191.611C177.293 191.705 177.343 191.825 177.343 191.971C177.343 192.118 177.293 192.241 177.193 192.341C177.1 192.441 176.983 192.491 176.843 192.491Z" fill="white"/>
<path d="M28.503 29.5684C29.0257 29.6617 29.469 29.9371 29.833 30.3944C30.197 30.8517 30.379 31.3697 30.379 31.9484C30.379 32.4431 30.2483 32.8911 29.987 33.2924C29.735 33.6844 29.3663 33.9971 28.881 34.2304C28.3957 34.4544 27.831 34.5664 27.187 34.5664H23.295V24.8364H27.005C27.6677 24.8364 28.237 24.9484 28.713 25.1724C29.189 25.3964 29.5483 25.6997 29.791 26.0824C30.0337 26.4557 30.155 26.8757 30.155 27.3424C30.155 27.9024 30.0057 28.3691 29.707 28.7424C29.4083 29.1157 29.007 29.3911 28.503 29.5684ZM24.891 28.9244H26.865C27.3877 28.9244 27.7937 28.8077 28.083 28.5744C28.3817 28.3317 28.531 27.9864 28.531 27.5384C28.531 27.0997 28.3817 26.7591 28.083 26.5164C27.7937 26.2644 27.3877 26.1384 26.865 26.1384H24.891V28.9244ZM27.047 33.2644C27.5883 33.2644 28.013 33.1337 28.321 32.8724C28.629 32.6111 28.783 32.2471 28.783 31.7804C28.783 31.3044 28.6197 30.9264 28.293 30.6464C27.9663 30.3664 27.5323 30.2264 26.991 30.2264H24.891V33.2644H27.047ZM32.9254 25.8304C32.636 25.8304 32.3934 25.7324 32.1974 25.5364C32.0014 25.3404 31.9034 25.0977 31.9034 24.8084C31.9034 24.5191 32.0014 24.2764 32.1974 24.0804C32.3934 23.8844 32.636 23.7864 32.9254 23.7864C33.2054 23.7864 33.4434 23.8844 33.6394 24.0804C33.8354 24.2764 33.9334 24.5191 33.9334 24.8084C33.9334 25.0977 33.8354 25.3404 33.6394 25.5364C33.4434 25.7324 33.2054 25.8304 32.9254 25.8304ZM33.7094 26.8524V34.5664H32.1134V26.8524H33.7094ZM39.1508 34.6924C38.4228 34.6924 37.7648 34.5291 37.1768 34.2024C36.5888 33.8664 36.1268 33.3997 35.7908 32.8024C35.4548 32.1957 35.2868 31.4957 35.2868 30.7024C35.2868 29.9184 35.4594 29.2231 35.8048 28.6164C36.1501 28.0097 36.6214 27.5431 37.2188 27.2164C37.8161 26.8897 38.4834 26.7264 39.2208 26.7264C39.9581 26.7264 40.6254 26.8897 41.2228 27.2164C41.8201 27.5431 42.2914 28.0097 42.6368 28.6164C42.9821 29.2231 43.1548 29.9184 43.1548 30.7024C43.1548 31.4864 42.9774 32.1817 42.6228 32.7884C42.2681 33.3951 41.7828 33.8664 41.1668 34.2024C40.5601 34.5291 39.8881 34.6924 39.1508 34.6924ZM39.1508 33.3064C39.5614 33.3064 39.9441 33.2084 40.2988 33.0124C40.6628 32.8164 40.9568 32.5224 41.1808 32.1304C41.4048 31.7384 41.5168 31.2624 41.5168 30.7024C41.5168 30.1424 41.4094 29.6711 41.1948 29.2884C40.9801 28.8964 40.6954 28.6024 40.3408 28.4064C39.9861 28.2104 39.6034 28.1124 39.1928 28.1124C38.7821 28.1124 38.3994 28.2104 38.0448 28.4064C37.6994 28.6024 37.4241 28.8964 37.2188 29.2884C37.0134 29.6711 36.9108 30.1424 36.9108 30.7024C36.9108 31.5331 37.1208 32.1771 37.5408 32.6344C37.9701 33.0824 38.5068 33.3064 39.1508 33.3064ZM46.3285 24.2064V34.5664H44.7325V24.2064H46.3285ZM51.7699 34.6924C51.0419 34.6924 50.3839 34.5291 49.7959 34.2024C49.2079 33.8664 48.7459 33.3997 48.4099 32.8024C48.0739 32.1957 47.9059 31.4957 47.9059 30.7024C47.9059 29.9184 48.0786 29.2231 48.4239 28.6164C48.7692 28.0097 49.2406 27.5431 49.8379 27.2164C50.4352 26.8897 51.1026 26.7264 51.8399 26.7264C52.5772 26.7264 53.2446 26.8897 53.8419 27.2164C54.4392 27.5431 54.9106 28.0097 55.2559 28.6164C55.6012 29.2231 55.7739 29.9184 55.7739 30.7024C55.7739 31.4864 55.5966 32.1817 55.2419 32.7884C54.8872 33.3951 54.4019 33.8664 53.7859 34.2024C53.1792 34.5291 52.5072 34.6924 51.7699 34.6924ZM51.7699 33.3064C52.1806 33.3064 52.5632 33.2084 52.9179 33.0124C53.2819 32.8164 53.5759 32.5224 53.7999 32.1304C54.0239 31.7384 54.1359 31.2624 54.1359 30.7024C54.1359 30.1424 54.0286 29.6711 53.8139 29.2884C53.5992 28.8964 53.3146 28.6024 52.9599 28.4064C52.6052 28.2104 52.2226 28.1124 51.8119 28.1124C51.4012 28.1124 51.0186 28.2104 50.6639 28.4064C50.3186 28.6024 50.0432 28.8964 49.8379 29.2884C49.6326 29.6711 49.5299 30.1424 49.5299 30.7024C49.5299 31.5331 49.7399 32.1771 50.1599 32.6344C50.5892 33.0824 51.1259 33.3064 51.7699 33.3064ZM60.4596 26.7264C61.057 26.7264 61.5843 26.8477 62.0416 27.0904C62.5083 27.3237 62.8723 27.6177 63.1336 27.9724V26.8524H64.7436V34.6924C64.7436 35.4017 64.5943 36.0317 64.2956 36.5824C63.997 37.1424 63.563 37.5811 62.9936 37.8984C62.4336 38.2157 61.7616 38.3744 60.9776 38.3744C59.9323 38.3744 59.0643 38.1271 58.3736 37.6324C57.683 37.1471 57.291 36.4844 57.1976 35.6444H58.7796C58.901 36.0457 59.1576 36.3677 59.5496 36.6104C59.951 36.8624 60.427 36.9884 60.9776 36.9884C61.6216 36.9884 62.1396 36.7924 62.5316 36.4004C62.933 36.0084 63.1336 35.4391 63.1336 34.6924V33.4044C62.863 33.7684 62.4943 34.0764 62.0276 34.3284C61.5703 34.5711 61.0476 34.6924 60.4596 34.6924C59.7876 34.6924 59.1716 34.5244 58.6116 34.1884C58.061 33.8431 57.6223 33.3671 57.2956 32.7604C56.9783 32.1444 56.8196 31.4491 56.8196 30.6744C56.8196 29.8997 56.9783 29.2137 57.2956 28.6164C57.6223 28.0191 58.061 27.5571 58.6116 27.2304C59.1716 26.8944 59.7876 26.7264 60.4596 26.7264ZM63.1336 30.7024C63.1336 30.1704 63.0216 29.7084 62.7976 29.3164C62.583 28.9244 62.2983 28.6257 61.9436 28.4204C61.589 28.2151 61.2063 28.1124 60.7956 28.1124C60.385 28.1124 60.0023 28.2151 59.6476 28.4204C59.293 28.6164 59.0036 28.9104 58.7796 29.3024C58.565 29.6851 58.4576 30.1424 58.4576 30.6744C58.4576 31.2064 58.565 31.6731 58.7796 32.0744C59.0036 32.4757 59.293 32.7837 59.6476 32.9984C60.0116 33.2037 60.3943 33.3064 60.7956 33.3064C61.2063 33.3064 61.589 33.2037 61.9436 32.9984C62.2983 32.7931 62.583 32.4944 62.7976 32.1024C63.0216 31.7011 63.1336 31.2344 63.1336 30.7024ZM67.6519 25.8304C67.3626 25.8304 67.1199 25.7324 66.9239 25.5364C66.7279 25.3404 66.6299 25.0977 66.6299 24.8084C66.6299 24.5191 66.7279 24.2764 66.9239 24.0804C67.1199 23.8844 67.3626 23.7864 67.6519 23.7864C67.9319 23.7864 68.1699 23.8844 68.3659 24.0804C68.5619 24.2764 68.6599 24.5191 68.6599 24.8084C68.6599 25.0977 68.5619 25.3404 68.3659 25.5364C68.1699 25.7324 67.9319 25.8304 67.6519 25.8304ZM68.4359 26.8524V34.5664H66.8399V26.8524H68.4359ZM69.9993 30.7024C69.9993 29.9091 70.158 29.2137 70.4753 28.6164C70.802 28.0097 71.25 27.5431 71.8193 27.2164C72.3887 26.8897 73.042 26.7264 73.7793 26.7264C74.7127 26.7264 75.4827 26.9504 76.0893 27.3984C76.7053 27.8371 77.1207 28.4671 77.3353 29.2884H75.6133C75.4733 28.9057 75.2493 28.6071 74.9413 28.3924C74.6333 28.1777 74.246 28.0704 73.7793 28.0704C73.126 28.0704 72.6033 28.3037 72.2113 28.7704C71.8287 29.2277 71.6373 29.8717 71.6373 30.7024C71.6373 31.5331 71.8287 32.1817 72.2113 32.6484C72.6033 33.1151 73.126 33.3484 73.7793 33.3484C74.7033 33.3484 75.3147 32.9424 75.6133 32.1304H77.3353C77.1113 32.9144 76.6913 33.5397 76.0753 34.0064C75.4593 34.4637 74.694 34.6924 73.7793 34.6924C73.042 34.6924 72.3887 34.5291 71.8193 34.2024C71.25 33.8664 70.802 33.3997 70.4753 32.8024C70.158 32.1957 69.9993 31.4957 69.9993 30.7024ZM78.3939 30.6744C78.3939 29.8997 78.5525 29.2137 78.8699 28.6164C79.1965 28.0191 79.6352 27.5571 80.1859 27.2304C80.7459 26.8944 81.3619 26.7264 82.0339 26.7264C82.6405 26.7264 83.1679 26.8477 83.6159 27.0904C84.0732 27.3237 84.4372 27.6177 84.7079 27.9724V26.8524H86.3179V34.5664H84.7079V33.4184C84.4372 33.7824 84.0685 34.0857 83.6019 34.3284C83.1352 34.5711 82.6032 34.6924 82.0059 34.6924C81.3432 34.6924 80.7365 34.5244 80.1859 34.1884C79.6352 33.8431 79.1965 33.3671 78.8699 32.7604C78.5525 32.1444 78.3939 31.4491 78.3939 30.6744ZM84.7079 30.7024C84.7079 30.1704 84.5959 29.7084 84.3719 29.3164C84.1572 28.9244 83.8725 28.6257 83.5179 28.4204C83.1632 28.2151 82.7805 28.1124 82.3699 28.1124C81.9592 28.1124 81.5765 28.2151 81.2219 28.4204C80.8672 28.6164 80.5779 28.9104 80.3539 29.3024C80.1392 29.6851 80.0319 30.1424 80.0319 30.6744C80.0319 31.2064 80.1392 31.6731 80.3539 32.0744C80.5779 32.4757 80.8672 32.7837 81.2219 32.9984C81.5859 33.2037 81.9685 33.3064 82.3699 33.3064C82.7805 33.3064 83.1632 33.2037 83.5179 32.9984C83.8725 32.7931 84.1572 32.4944 84.3719 32.1024C84.5959 31.7011 84.7079 31.2344 84.7079 30.7024ZM90.0101 24.2064V34.5664H88.4141V24.2064H90.0101ZM95.2103 30.6744C95.2103 29.8997 95.3689 29.2137 95.6863 28.6164C96.0129 28.0191 96.4516 27.5571 97.0023 27.2304C97.5623 26.8944 98.1783 26.7264 98.8503 26.7264C99.4569 26.7264 99.9843 26.8477 100.432 27.0904C100.89 27.3237 101.254 27.6177 101.524 27.9724V26.8524H103.134V34.5664H101.524V33.4184C101.254 33.7824 100.885 34.0857 100.418 34.3284C99.9516 34.5711 99.4196 34.6924 98.8223 34.6924C98.1596 34.6924 97.5529 34.5244 97.0023 34.1884C96.4516 33.8431 96.0129 33.3671 95.6863 32.7604C95.3689 32.1444 95.2103 31.4491 95.2103 30.6744ZM101.524 30.7024C101.524 30.1704 101.412 29.7084 101.188 29.3164C100.974 28.9244 100.689 28.6257 100.334 28.4204C99.9796 28.2151 99.5969 28.1124 99.1863 28.1124C98.7756 28.1124 98.3929 28.2151 98.0383 28.4204C97.6836 28.6164 97.3943 28.9104 97.1703 29.3024C96.9556 29.6851 96.8483 30.1424 96.8483 30.6744C96.8483 31.2064 96.9556 31.6731 97.1703 32.0744C97.3943 32.4757 97.6836 32.7837 98.0383 32.9984C98.4023 33.2037 98.7849 33.3064 99.1863 33.3064C99.5969 33.3064 99.9796 33.2037 100.334 32.9984C100.689 32.7931 100.974 32.4944 101.188 32.1024C101.412 31.7011 101.524 31.2344 101.524 30.7024ZM108.339 26.7264C108.936 26.7264 109.463 26.8477 109.921 27.0904C110.387 27.3237 110.751 27.6177 111.013 27.9724V26.8524H112.623V34.6924C112.623 35.4017 112.473 36.0317 112.175 36.5824C111.876 37.1424 111.442 37.5811 110.873 37.8984C110.313 38.2157 109.641 38.3744 108.857 38.3744C107.811 38.3744 106.943 38.1271 106.253 37.6324C105.562 37.1471 105.17 36.4844 105.077 35.6444H106.659C106.78 36.0457 107.037 36.3677 107.429 36.6104C107.83 36.8624 108.306 36.9884 108.857 36.9884C109.501 36.9884 110.019 36.7924 110.411 36.4004C110.812 36.0084 111.013 35.4391 111.013 34.6924V33.4044C110.742 33.7684 110.373 34.0764 109.907 34.3284C109.449 34.5711 108.927 34.6924 108.339 34.6924C107.667 34.6924 107.051 34.5244 106.491 34.1884C105.94 33.8431 105.501 33.3671 105.175 32.7604C104.857 32.1444 104.699 31.4491 104.699 30.6744C104.699 29.8997 104.857 29.2137 105.175 28.6164C105.501 28.0191 105.94 27.5571 106.491 27.2304C107.051 26.8944 107.667 26.7264 108.339 26.7264ZM111.013 30.7024C111.013 30.1704 110.901 29.7084 110.677 29.3164C110.462 28.9244 110.177 28.6257 109.823 28.4204C109.468 28.2151 109.085 28.1124 108.675 28.1124C108.264 28.1124 107.881 28.2151 107.527 28.4204C107.172 28.6164 106.883 28.9104 106.659 29.3024C106.444 29.6851 106.337 30.1424 106.337 30.6744C106.337 31.2064 106.444 31.6731 106.659 32.0744C106.883 32.4757 107.172 32.7837 107.527 32.9984C107.891 33.2037 108.273 33.3064 108.675 33.3064C109.085 33.3064 109.468 33.2037 109.823 32.9984C110.177 32.7931 110.462 32.4944 110.677 32.1024C110.901 31.7011 111.013 31.2344 111.013 30.7024ZM121.789 30.5204C121.789 30.8097 121.77 31.0711 121.733 31.3044H115.839C115.885 31.9204 116.114 32.4151 116.525 32.7884C116.935 33.1617 117.439 33.3484 118.037 33.3484C118.895 33.3484 119.502 32.9891 119.857 32.2704H121.579C121.345 32.9797 120.921 33.5631 120.305 34.0204C119.698 34.4684 118.942 34.6924 118.037 34.6924C117.299 34.6924 116.637 34.5291 116.049 34.2024C115.47 33.8664 115.013 33.3997 114.677 32.8024C114.35 32.1957 114.187 31.4957 114.187 30.7024C114.187 29.9091 114.345 29.2137 114.663 28.6164C114.989 28.0097 115.442 27.5431 116.021 27.2164C116.609 26.8897 117.281 26.7264 118.037 26.7264C118.765 26.7264 119.413 26.8851 119.983 27.2024C120.552 27.5197 120.995 27.9677 121.313 28.5464C121.63 29.1157 121.789 29.7737 121.789 30.5204ZM120.123 30.0164C120.113 29.4284 119.903 28.9571 119.493 28.6024C119.082 28.2477 118.573 28.0704 117.967 28.0704C117.416 28.0704 116.945 28.2477 116.553 28.6024C116.161 28.9477 115.927 29.4191 115.853 30.0164H120.123Z" fill="#F5F6F7"/>
<path d="M85.8777 123.774C86.125 120.559 87.3617 118.033 89.5877 116.195C91.849 114.323 94.764 113.386 98.3327 113.386C100.7 113.386 102.732 113.81 104.428 114.658C106.124 115.506 107.396 116.672 108.244 118.156C109.127 119.605 109.569 121.248 109.569 123.085C109.569 125.311 108.915 127.237 107.608 128.862C106.3 130.488 104.445 131.495 102.043 131.883V132.148C104.551 132.643 106.548 133.738 108.032 135.434C109.516 137.095 110.258 139.286 110.258 142.006C110.258 145.045 109.233 147.536 107.184 149.479C105.17 151.387 102.237 152.341 98.3857 152.341C94.711 152.341 91.69 151.387 89.3227 149.479C86.9553 147.536 85.595 144.798 85.2417 141.264H88.8457C89.1637 143.632 90.153 145.557 91.8137 147.041C93.4743 148.49 95.665 149.214 98.3857 149.214C101.071 149.214 103.12 148.508 104.534 147.094C105.982 145.681 106.707 143.879 106.707 141.688C106.707 136.318 102.838 133.632 95.0997 133.632H93.9337V130.505H95.1527C102.361 130.505 105.965 128.156 105.965 123.456C105.965 121.407 105.293 119.764 103.951 118.527C102.608 117.255 100.7 116.619 98.2267 116.619C95.824 116.619 93.8277 117.255 92.2377 118.527C90.683 119.764 89.7643 121.513 89.4817 123.774H85.8777ZM124.407 132.36C122.216 131.654 120.538 130.541 119.372 129.021C118.241 127.502 117.676 125.665 117.676 123.509C117.676 121.601 118.153 119.905 119.107 118.421C120.096 116.902 121.527 115.718 123.4 114.87C125.272 113.987 127.516 113.545 130.131 113.545C132.745 113.545 134.989 113.987 136.862 114.87C138.734 115.718 140.148 116.902 141.102 118.421C142.091 119.905 142.586 121.601 142.586 123.509C142.586 125.629 142.003 127.467 140.837 129.021C139.706 130.576 138.045 131.689 135.855 132.36C138.257 132.961 140.148 134.109 141.526 135.805C142.904 137.501 143.593 139.568 143.593 142.006C143.593 144.268 143.027 146.246 141.897 147.942C140.801 149.603 139.229 150.893 137.18 151.811C135.166 152.73 132.816 153.189 130.131 153.189C127.445 153.189 125.078 152.73 123.029 151.811C121.015 150.893 119.442 149.603 118.312 147.942C117.216 146.246 116.669 144.268 116.669 142.006C116.669 139.568 117.358 137.501 118.736 135.805C120.114 134.109 122.004 132.961 124.407 132.36ZM138.982 123.933C138.982 121.601 138.187 119.799 136.597 118.527C135.007 117.255 132.851 116.619 130.131 116.619C127.41 116.619 125.255 117.255 123.665 118.527C122.075 119.764 121.28 121.566 121.28 123.933C121.28 126.124 122.092 127.873 123.718 129.18C125.343 130.488 127.481 131.141 130.131 131.141C132.781 131.141 134.918 130.488 136.544 129.18C138.169 127.873 138.982 126.124 138.982 123.933ZM130.131 134.003C127.233 134.003 124.866 134.657 123.029 135.964C121.191 137.272 120.273 139.25 120.273 141.9C120.273 144.444 121.156 146.441 122.923 147.889C124.689 149.338 127.092 150.062 130.131 150.062C133.134 150.062 135.519 149.338 137.286 147.889C139.052 146.405 139.936 144.409 139.936 141.9C139.936 139.286 139.017 137.325 137.18 136.017C135.378 134.675 133.028 134.003 130.131 134.003Z" fill="#69A372"/>
<path d="M20.7195 268.925H17.5395L16.9295 270.585H16.1895L18.7395 263.685H19.5295L22.0695 270.585H21.3295L20.7195 268.925ZM20.5095 268.345L19.1295 264.565L17.7495 268.345H20.5095ZM25.4829 265.045C25.9963 265.045 26.4429 265.165 26.8229 265.405C27.2029 265.645 27.4763 265.948 27.6429 266.315V265.125H28.3429V270.725C28.3429 271.225 28.2329 271.668 28.0129 272.055C27.7996 272.442 27.4996 272.738 27.1129 272.945C26.7263 273.158 26.2863 273.265 25.7929 273.265C25.0929 273.265 24.5096 273.098 24.0429 272.765C23.5829 272.432 23.2963 271.978 23.1829 271.405H23.8729C23.9929 271.785 24.2196 272.088 24.5529 272.315C24.8929 272.542 25.3063 272.655 25.7929 272.655C26.1463 272.655 26.4629 272.578 26.7429 272.425C27.0229 272.278 27.2429 272.058 27.4029 271.765C27.5629 271.472 27.6429 271.125 27.6429 270.725V269.375C27.4696 269.748 27.1929 270.058 26.8129 270.305C26.4396 270.545 25.9963 270.665 25.4829 270.665C24.9829 270.665 24.5329 270.548 24.1329 270.315C23.7396 270.082 23.4296 269.752 23.2029 269.325C22.9829 268.898 22.8729 268.405 22.8729 267.845C22.8729 267.285 22.9829 266.795 23.2029 266.375C23.4296 265.948 23.7396 265.622 24.1329 265.395C24.5329 265.162 24.9829 265.045 25.4829 265.045ZM27.6429 267.855C27.6429 267.415 27.5529 267.028 27.3729 266.695C27.1929 266.362 26.9463 266.105 26.6329 265.925C26.3263 265.745 25.9863 265.655 25.6129 265.655C25.2263 265.655 24.8796 265.742 24.5729 265.915C24.2663 266.088 24.0229 266.342 23.8429 266.675C23.6696 267.002 23.5829 267.392 23.5829 267.845C23.5829 268.292 23.6696 268.685 23.8429 269.025C24.0229 269.358 24.2663 269.615 24.5729 269.795C24.8796 269.968 25.2263 270.055 25.6129 270.055C25.9863 270.055 26.3263 269.965 26.6329 269.785C26.9463 269.605 27.1929 269.348 27.3729 269.015C27.5529 268.682 27.6429 268.295 27.6429 267.855ZM30.291 264.095C30.151 264.095 30.031 264.045 29.931 263.945C29.831 263.845 29.781 263.722 29.781 263.575C29.781 263.428 29.831 263.308 29.931 263.215C30.031 263.115 30.151 263.065 30.291 263.065C30.431 263.065 30.551 263.115 30.651 263.215C30.751 263.308 30.801 263.428 30.801 263.575C30.801 263.722 30.751 263.845 30.651 263.945C30.551 264.045 30.431 264.095 30.291 264.095ZM30.641 265.125V270.585H29.941V265.125H30.641ZM34.7861 265.025C35.4395 265.025 35.9728 265.228 36.3861 265.635C36.7995 266.035 37.0061 266.618 37.0061 267.385V270.585H36.3161V267.465C36.3161 266.872 36.1661 266.418 35.8661 266.105C35.5728 265.792 35.1695 265.635 34.6561 265.635C34.1295 265.635 33.7095 265.802 33.3961 266.135C33.0828 266.468 32.9261 266.958 32.9261 267.605V270.585H32.2261V265.125H32.9261V266.055C33.0995 265.722 33.3495 265.468 33.6761 265.295C34.0028 265.115 34.3728 265.025 34.7861 265.025ZM45.7984 265.125L42.5584 273.155H41.8284L42.8884 270.555L40.6484 265.125H41.4184L43.2784 269.785L45.0784 265.125H45.7984ZM49.1376 270.665C48.6243 270.665 48.161 270.552 47.7476 270.325C47.341 270.092 47.0176 269.765 46.7776 269.345C46.5443 268.918 46.4276 268.422 46.4276 267.855C46.4276 267.288 46.5476 266.795 46.7876 266.375C47.0276 265.948 47.3543 265.622 47.7676 265.395C48.181 265.162 48.6443 265.045 49.1576 265.045C49.671 265.045 50.1343 265.162 50.5476 265.395C50.9676 265.622 51.2943 265.948 51.5276 266.375C51.7676 266.795 51.8876 267.288 51.8876 267.855C51.8876 268.415 51.7676 268.908 51.5276 269.335C51.2876 269.762 50.9576 270.092 50.5376 270.325C50.1176 270.552 49.651 270.665 49.1376 270.665ZM49.1376 270.055C49.4976 270.055 49.831 269.975 50.1376 269.815C50.4443 269.648 50.691 269.402 50.8776 269.075C51.071 268.742 51.1676 268.335 51.1676 267.855C51.1676 267.375 51.0743 266.972 50.8876 266.645C50.701 266.312 50.4543 266.065 50.1476 265.905C49.841 265.738 49.5076 265.655 49.1476 265.655C48.7876 265.655 48.4543 265.738 48.1476 265.905C47.841 266.065 47.5943 266.312 47.4076 266.645C47.2276 266.972 47.1376 267.375 47.1376 267.855C47.1376 268.335 47.2276 268.742 47.4076 269.075C47.5943 269.402 47.8376 269.648 48.1376 269.815C48.4443 269.975 48.7776 270.055 49.1376 270.055ZM57.8936 265.125V270.585H57.1936V269.625C57.0336 269.965 56.787 270.225 56.4536 270.405C56.1203 270.585 55.747 270.675 55.3336 270.675C54.6803 270.675 54.147 270.475 53.7336 270.075C53.3203 269.668 53.1136 269.082 53.1136 268.315V265.125H53.8036V268.235C53.8036 268.828 53.9503 269.282 54.2436 269.595C54.5436 269.908 54.9503 270.065 55.4636 270.065C55.9903 270.065 56.4103 269.898 56.7236 269.565C57.037 269.232 57.1936 268.742 57.1936 268.095V265.125H57.8936ZM17.0695 282.129H19.0775V282.585H16.5095V276.993H17.0695V282.129ZM21.5327 276.993C22.1514 276.993 22.682 277.105 23.1247 277.329C23.5674 277.553 23.906 277.876 24.1407 278.297C24.3754 278.718 24.4927 279.22 24.4927 279.801C24.4927 280.377 24.3754 280.876 24.1407 281.297C23.906 281.713 23.5674 282.033 23.1247 282.257C22.682 282.476 22.1514 282.585 21.5327 282.585H19.8767V276.993H21.5327ZM21.5327 282.121C22.3114 282.121 22.9034 281.918 23.3087 281.513C23.7194 281.102 23.9247 280.532 23.9247 279.801C23.9247 279.065 23.7194 278.492 23.3087 278.081C22.9034 277.665 22.3114 277.457 21.5327 277.457H20.4367V282.121H21.5327ZM26.0851 282.129H28.0931V282.585H25.5251V276.993H26.0851V282.129ZM30.8316 279.785C30.8316 279.236 30.9516 278.745 31.1916 278.313C31.4316 277.876 31.7596 277.537 32.1756 277.297C32.5916 277.052 33.0556 276.929 33.5676 276.929C34.1916 276.929 34.725 277.078 35.1676 277.377C35.6156 277.67 35.941 278.086 36.1436 278.625H35.4876C35.3276 278.246 35.0823 277.95 34.7516 277.737C34.4263 277.524 34.0316 277.417 33.5676 277.417C33.157 277.417 32.7863 277.513 32.4556 277.705C32.1303 277.897 31.8743 278.174 31.6876 278.537C31.501 278.894 31.4076 279.31 31.4076 279.785C31.4076 280.26 31.501 280.676 31.6876 281.033C31.8743 281.39 32.1303 281.665 32.4556 281.857C32.7863 282.049 33.157 282.145 33.5676 282.145C34.0316 282.145 34.4263 282.041 34.7516 281.833C35.0823 281.62 35.3276 281.326 35.4876 280.953H36.1436C35.941 281.486 35.6156 281.9 35.1676 282.193C34.7196 282.486 34.1863 282.633 33.5676 282.633C33.0556 282.633 32.5916 282.513 32.1756 282.273C31.7596 282.028 31.4316 281.689 31.1916 281.257C30.9516 280.825 30.8316 280.334 30.8316 279.785ZM39.3395 278.137C39.6702 278.137 39.9662 278.206 40.2275 278.345C40.4942 278.484 40.7022 278.697 40.8515 278.985C41.0062 279.268 41.0835 279.614 41.0835 280.025V282.585H40.5315V280.089C40.5315 279.614 40.4115 279.252 40.1715 279.001C39.9368 278.75 39.6142 278.625 39.2035 278.625C38.7822 278.625 38.4462 278.758 38.1955 279.025C37.9448 279.292 37.8195 279.684 37.8195 280.201V282.585H37.2595V276.665H37.8195V278.961C37.9582 278.7 38.1608 278.497 38.4275 278.353C38.6995 278.209 39.0035 278.137 39.3395 278.137ZM44.234 282.649C43.8233 282.649 43.4527 282.558 43.122 282.377C42.7967 282.19 42.538 281.929 42.346 281.593C42.1593 281.252 42.066 280.854 42.066 280.401C42.066 279.948 42.162 279.553 42.354 279.217C42.546 278.876 42.8073 278.614 43.138 278.433C43.4687 278.246 43.8393 278.153 44.25 278.153C44.6607 278.153 45.0313 278.246 45.362 278.433C45.698 278.614 45.9593 278.876 46.146 279.217C46.338 279.553 46.434 279.948 46.434 280.401C46.434 280.849 46.338 281.244 46.146 281.585C45.954 281.926 45.69 282.19 45.354 282.377C45.018 282.558 44.6447 282.649 44.234 282.649ZM44.234 282.161C44.522 282.161 44.7887 282.097 45.034 281.969C45.2793 281.836 45.4767 281.638 45.626 281.377C45.7807 281.11 45.858 280.785 45.858 280.401C45.858 280.017 45.7833 279.694 45.634 279.433C45.4847 279.166 45.2873 278.969 45.042 278.841C44.7967 278.708 44.53 278.641 44.242 278.641C43.954 278.641 43.6873 278.708 43.442 278.841C43.1967 278.969 42.9993 279.166 42.85 279.433C42.706 279.694 42.634 280.017 42.634 280.401C42.634 280.785 42.706 281.11 42.85 281.377C42.9993 281.638 43.194 281.836 43.434 281.969C43.6793 282.097 43.946 282.161 44.234 282.161ZM48.0148 276.665V282.585H47.4548V276.665H48.0148ZM53.2349 280.177C53.2349 280.369 53.2296 280.516 53.2189 280.617H49.5949C49.6109 280.948 49.6909 281.23 49.8349 281.465C49.9789 281.7 50.1683 281.878 50.4029 282.001C50.6376 282.118 50.8936 282.177 51.1709 282.177C51.5336 282.177 51.8376 282.089 52.0829 281.913C52.3336 281.737 52.4989 281.5 52.5789 281.201H53.1709C53.0643 281.628 52.8349 281.977 52.4829 282.249C52.1363 282.516 51.6989 282.649 51.1709 282.649C50.7603 282.649 50.3923 282.558 50.0669 282.377C49.7416 282.19 49.4856 281.929 49.2989 281.593C49.1176 281.252 49.0269 280.854 49.0269 280.401C49.0269 279.948 49.1176 279.55 49.2989 279.209C49.4803 278.868 49.7336 278.606 50.0589 278.425C50.3843 278.244 50.7549 278.153 51.1709 278.153C51.5869 278.153 51.9496 278.244 52.2589 278.425C52.5736 278.606 52.8136 278.852 52.9789 279.161C53.1496 279.465 53.2349 279.804 53.2349 280.177ZM52.6669 280.161C52.6723 279.836 52.6056 279.558 52.4669 279.329C52.3336 279.1 52.1496 278.926 51.9149 278.809C51.6803 278.692 51.4243 278.633 51.1469 278.633C50.7309 278.633 50.3763 278.766 50.0829 279.033C49.7896 279.3 49.6269 279.676 49.5949 280.161H52.6669ZM55.7635 282.649C55.2622 282.649 54.8515 282.534 54.5315 282.305C54.2168 282.07 54.0408 281.753 54.0035 281.353H54.5795C54.6062 281.598 54.7208 281.798 54.9235 281.953C55.1315 282.102 55.4088 282.177 55.7555 282.177C56.0595 282.177 56.2968 282.105 56.4675 281.961C56.6435 281.817 56.7315 281.638 56.7315 281.425C56.7315 281.276 56.6835 281.153 56.5875 281.057C56.4915 280.961 56.3688 280.886 56.2195 280.833C56.0755 280.774 55.8782 280.713 55.6275 280.649C55.3022 280.564 55.0382 280.478 54.8355 280.393C54.6328 280.308 54.4595 280.182 54.3155 280.017C54.1768 279.846 54.1075 279.62 54.1075 279.337C54.1075 279.124 54.1715 278.926 54.2995 278.745C54.4275 278.564 54.6088 278.42 54.8435 278.313C55.0782 278.206 55.3448 278.153 55.6435 278.153C56.1128 278.153 56.4915 278.273 56.7795 278.513C57.0675 278.748 57.2222 279.073 57.2435 279.489H56.6835C56.6675 279.233 56.5662 279.028 56.3795 278.873C56.1982 278.713 55.9475 278.633 55.6275 278.633C55.3448 278.633 55.1155 278.7 54.9395 278.833C54.7635 278.966 54.6755 279.132 54.6755 279.329C54.6755 279.5 54.7262 279.641 54.8275 279.753C54.9342 279.86 55.0648 279.945 55.2195 280.009C55.3742 280.068 55.5822 280.134 55.8435 280.209C56.1582 280.294 56.4088 280.377 56.5955 280.457C56.7822 280.537 56.9422 280.654 57.0755 280.809C57.2088 280.964 57.2782 281.169 57.2835 281.425C57.2835 281.66 57.2195 281.87 57.0915 282.057C56.9635 282.238 56.7848 282.382 56.5555 282.489C56.3262 282.596 56.0622 282.649 55.7635 282.649ZM59.0656 278.689V281.401C59.0656 281.668 59.1163 281.852 59.2176 281.953C59.319 282.054 59.4976 282.105 59.7536 282.105H60.2656V282.585H59.6656C59.271 282.585 58.9776 282.494 58.7856 282.313C58.5936 282.126 58.4976 281.822 58.4976 281.401V278.689H57.8896V278.217H58.4976V277.121H59.0656V278.217H60.2656V278.689H59.0656ZM61.7492 278.993C61.8719 278.721 62.0585 278.51 62.3092 278.361C62.5652 278.212 62.8772 278.137 63.2452 278.137V278.721H63.0932C62.6879 278.721 62.3625 278.83 62.1172 279.049C61.8719 279.268 61.7492 279.633 61.7492 280.145V282.585H61.1892V278.217H61.7492V278.993ZM65.9996 282.649C65.589 282.649 65.2183 282.558 64.8876 282.377C64.5623 282.19 64.3036 281.929 64.1116 281.593C63.925 281.252 63.8316 280.854 63.8316 280.401C63.8316 279.948 63.9276 279.553 64.1196 279.217C64.3116 278.876 64.573 278.614 64.9036 278.433C65.2343 278.246 65.605 278.153 66.0156 278.153C66.4263 278.153 66.797 278.246 67.1276 278.433C67.4636 278.614 67.725 278.876 67.9116 279.217C68.1036 279.553 68.1996 279.948 68.1996 280.401C68.1996 280.849 68.1036 281.244 67.9116 281.585C67.7196 281.926 67.4556 282.19 67.1196 282.377C66.7836 282.558 66.4103 282.649 65.9996 282.649ZM65.9996 282.161C66.2876 282.161 66.5543 282.097 66.7996 281.969C67.045 281.836 67.2423 281.638 67.3916 281.377C67.5463 281.11 67.6236 280.785 67.6236 280.401C67.6236 280.017 67.549 279.694 67.3996 279.433C67.2503 279.166 67.053 278.969 66.8076 278.841C66.5623 278.708 66.2956 278.641 66.0076 278.641C65.7196 278.641 65.453 278.708 65.2076 278.841C64.9623 278.969 64.765 279.166 64.6156 279.433C64.4716 279.694 64.3996 280.017 64.3996 280.401C64.3996 280.785 64.4716 281.11 64.6156 281.377C64.765 281.638 64.9596 281.836 65.1996 281.969C65.445 282.097 65.7116 282.161 65.9996 282.161ZM69.7804 276.665V282.585H69.2204V276.665H69.7804ZM71.5606 281.657L70.7286 283.753H70.3446L70.9366 281.657H71.5606ZM78.8427 282.585H78.2827L75.1867 277.881V282.585H74.6267V276.993H75.1867L78.2827 281.689V276.993H78.8427V282.585ZM82.0231 282.649C81.6124 282.649 81.2417 282.558 80.9111 282.377C80.5857 282.19 80.3271 281.929 80.1351 281.593C79.9484 281.252 79.8551 280.854 79.8551 280.401C79.8551 279.948 79.9511 279.553 80.1431 279.217C80.3351 278.876 80.5964 278.614 80.9271 278.433C81.2577 278.246 81.6284 278.153 82.0391 278.153C82.4497 278.153 82.8204 278.246 83.1511 278.433C83.4871 278.614 83.7484 278.876 83.9351 279.217C84.1271 279.553 84.2231 279.948 84.2231 280.401C84.2231 280.849 84.1271 281.244 83.9351 281.585C83.7431 281.926 83.4791 282.19 83.1431 282.377C82.8071 282.558 82.4337 282.649 82.0231 282.649ZM82.0231 282.161C82.3111 282.161 82.5777 282.097 82.8231 281.969C83.0684 281.836 83.2657 281.638 83.4151 281.377C83.5697 281.11 83.6471 280.785 83.6471 280.401C83.6471 280.017 83.5724 279.694 83.4231 279.433C83.2737 279.166 83.0764 278.969 82.8311 278.841C82.5857 278.708 82.3191 278.641 82.0311 278.641C81.7431 278.641 81.4764 278.708 81.2311 278.841C80.9857 278.969 80.7884 279.166 80.6391 279.433C80.4951 279.694 80.4231 280.017 80.4231 280.401C80.4231 280.785 80.4951 281.11 80.6391 281.377C80.7884 281.638 80.9831 281.836 81.2231 281.969C81.4684 282.097 81.7351 282.161 82.0231 282.161ZM87.2919 278.137C87.8145 278.137 88.2412 278.3 88.5719 278.625C88.9025 278.945 89.0679 279.412 89.0679 280.025V282.585H88.5159V280.089C88.5159 279.614 88.3959 279.252 88.1559 279.001C87.9212 278.75 87.5985 278.625 87.1879 278.625C86.7665 278.625 86.4305 278.758 86.1799 279.025C85.9292 279.292 85.8039 279.684 85.8039 280.201V282.585H85.2439V278.217H85.8039V278.961C85.9425 278.694 86.1425 278.492 86.4039 278.353C86.6652 278.209 86.9612 278.137 87.2919 278.137ZM93.0184 279.385V279.857H89.9064V279.385H93.0184ZM98.6068 276.993V282.585H98.0468V279.969H95.0148V282.585H94.4548V276.993H95.0148V279.505H98.0468V276.993H98.6068ZM101.541 276.993C102.159 276.993 102.69 277.105 103.133 277.329C103.575 277.553 103.914 277.876 104.149 278.297C104.383 278.718 104.501 279.22 104.501 279.801C104.501 280.377 104.383 280.876 104.149 281.297C103.914 281.713 103.575 282.033 103.133 282.257C102.69 282.476 102.159 282.585 101.541 282.585H99.8845V276.993H101.541ZM101.541 282.121C102.319 282.121 102.911 281.918 103.317 281.513C103.727 281.102 103.933 280.532 103.933 279.801C103.933 279.065 103.727 278.492 103.317 278.081C102.911 277.665 102.319 277.457 101.541 277.457H100.445V282.121H101.541ZM106.093 282.129H108.101V282.585H105.533V276.993H106.093V282.129ZM110.839 279.785C110.839 279.236 110.959 278.745 111.199 278.313C111.439 277.876 111.767 277.537 112.183 277.297C112.599 277.052 113.063 276.929 113.575 276.929C114.199 276.929 114.733 277.078 115.175 277.377C115.623 277.67 115.949 278.086 116.151 278.625H115.495C115.335 278.246 115.09 277.95 114.759 277.737C114.434 277.524 114.039 277.417 113.575 277.417C113.165 277.417 112.794 277.513 112.463 277.705C112.138 277.897 111.882 278.174 111.695 278.537C111.509 278.894 111.415 279.31 111.415 279.785C111.415 280.26 111.509 280.676 111.695 281.033C111.882 281.39 112.138 281.665 112.463 281.857C112.794 282.049 113.165 282.145 113.575 282.145C114.039 282.145 114.434 282.041 114.759 281.833C115.09 281.62 115.335 281.326 115.495 280.953H116.151C115.949 281.486 115.623 281.9 115.175 282.193C114.727 282.486 114.194 282.633 113.575 282.633C113.063 282.633 112.599 282.513 112.183 282.273C111.767 282.028 111.439 281.689 111.199 281.257C110.959 280.825 110.839 280.334 110.839 279.785ZM119.347 278.137C119.678 278.137 119.974 278.206 120.235 278.345C120.502 278.484 120.71 278.697 120.859 278.985C121.014 279.268 121.091 279.614 121.091 280.025V282.585H120.539V280.089C120.539 279.614 120.419 279.252 120.179 279.001C119.945 278.75 119.622 278.625 119.211 278.625C118.79 278.625 118.454 278.758 118.203 279.025C117.953 279.292 117.827 279.684 117.827 280.201V282.585H117.267V276.665H117.827V278.961C117.966 278.7 118.169 278.497 118.435 278.353C118.707 278.209 119.011 278.137 119.347 278.137ZM124.242 282.649C123.831 282.649 123.46 282.558 123.13 282.377C122.804 282.19 122.546 281.929 122.354 281.593C122.167 281.252 122.074 280.854 122.074 280.401C122.074 279.948 122.17 279.553 122.362 279.217C122.554 278.876 122.815 278.614 123.146 278.433C123.476 278.246 123.847 278.153 124.258 278.153C124.668 278.153 125.039 278.246 125.37 278.433C125.706 278.614 125.967 278.876 126.154 279.217C126.346 279.553 126.442 279.948 126.442 280.401C126.442 280.849 126.346 281.244 126.154 281.585C125.962 281.926 125.698 282.19 125.362 282.377C125.026 282.558 124.652 282.649 124.242 282.649ZM124.242 282.161C124.53 282.161 124.796 282.097 125.042 281.969C125.287 281.836 125.484 281.638 125.634 281.377C125.788 281.11 125.866 280.785 125.866 280.401C125.866 280.017 125.791 279.694 125.642 279.433C125.492 279.166 125.295 278.969 125.05 278.841C124.804 278.708 124.538 278.641 124.25 278.641C123.962 278.641 123.695 278.708 123.45 278.841C123.204 278.969 123.007 279.166 122.858 279.433C122.714 279.694 122.642 280.017 122.642 280.401C122.642 280.785 122.714 281.11 122.858 281.377C123.007 281.638 123.202 281.836 123.442 281.969C123.687 282.097 123.954 282.161 124.242 282.161ZM128.023 276.665V282.585H127.463V276.665H128.023ZM133.243 280.177C133.243 280.369 133.237 280.516 133.227 280.617H129.603C129.619 280.948 129.699 281.23 129.843 281.465C129.987 281.7 130.176 281.878 130.411 282.001C130.645 282.118 130.901 282.177 131.179 282.177C131.541 282.177 131.845 282.089 132.091 281.913C132.341 281.737 132.507 281.5 132.587 281.201H133.179C133.072 281.628 132.843 281.977 132.491 282.249C132.144 282.516 131.707 282.649 131.179 282.649C130.768 282.649 130.4 282.558 130.075 282.377C129.749 282.19 129.493 281.929 129.307 281.593C129.125 281.252 129.035 280.854 129.035 280.401C129.035 279.948 129.125 279.55 129.307 279.209C129.488 278.868 129.741 278.606 130.067 278.425C130.392 278.244 130.763 278.153 131.179 278.153C131.595 278.153 131.957 278.244 132.267 278.425C132.581 278.606 132.821 278.852 132.987 279.161C133.157 279.465 133.243 279.804 133.243 280.177ZM132.675 280.161C132.68 279.836 132.613 279.558 132.475 279.329C132.341 279.1 132.157 278.926 131.923 278.809C131.688 278.692 131.432 278.633 131.155 278.633C130.739 278.633 130.384 278.766 130.091 279.033C129.797 279.3 129.635 279.676 129.603 280.161H132.675ZM135.771 282.649C135.27 282.649 134.859 282.534 134.539 282.305C134.225 282.07 134.049 281.753 134.011 281.353H134.587C134.614 281.598 134.729 281.798 134.931 281.953C135.139 282.102 135.417 282.177 135.763 282.177C136.067 282.177 136.305 282.105 136.475 281.961C136.651 281.817 136.739 281.638 136.739 281.425C136.739 281.276 136.691 281.153 136.595 281.057C136.499 280.961 136.377 280.886 136.227 280.833C136.083 280.774 135.886 280.713 135.635 280.649C135.31 280.564 135.046 280.478 134.843 280.393C134.641 280.308 134.467 280.182 134.323 280.017C134.185 279.846 134.115 279.62 134.115 279.337C134.115 279.124 134.179 278.926 134.307 278.745C134.435 278.564 134.617 278.42 134.851 278.313C135.086 278.206 135.353 278.153 135.651 278.153C136.121 278.153 136.499 278.273 136.787 278.513C137.075 278.748 137.23 279.073 137.251 279.489H136.691C136.675 279.233 136.574 279.028 136.387 278.873C136.206 278.713 135.955 278.633 135.635 278.633C135.353 278.633 135.123 278.7 134.947 278.833C134.771 278.966 134.683 279.132 134.683 279.329C134.683 279.5 134.734 279.641 134.835 279.753C134.942 279.86 135.073 279.945 135.227 280.009C135.382 280.068 135.59 280.134 135.851 280.209C136.166 280.294 136.417 280.377 136.603 280.457C136.79 280.537 136.95 280.654 137.083 280.809C137.217 280.964 137.286 281.169 137.291 281.425C137.291 281.66 137.227 281.87 137.099 282.057C136.971 282.238 136.793 282.382 136.563 282.489C136.334 282.596 136.07 282.649 135.771 282.649ZM139.073 278.689V281.401C139.073 281.668 139.124 281.852 139.225 281.953C139.327 282.054 139.505 282.105 139.761 282.105H140.273V282.585H139.673C139.279 282.585 138.985 282.494 138.793 282.313C138.601 282.126 138.505 281.822 138.505 281.401V278.689H137.897V278.217H138.505V277.121H139.073V278.217H140.273V278.689H139.073ZM141.757 278.993C141.88 278.721 142.066 278.51 142.317 278.361C142.573 278.212 142.885 278.137 143.253 278.137V278.721H143.101C142.696 278.721 142.37 278.83 142.125 279.049C141.88 279.268 141.757 279.633 141.757 280.145V282.585H141.197V278.217H141.757V278.993ZM146.007 282.649C145.597 282.649 145.226 282.558 144.895 282.377C144.57 282.19 144.311 281.929 144.119 281.593C143.933 281.252 143.839 280.854 143.839 280.401C143.839 279.948 143.935 279.553 144.127 279.217C144.319 278.876 144.581 278.614 144.911 278.433C145.242 278.246 145.613 278.153 146.023 278.153C146.434 278.153 146.805 278.246 147.135 278.433C147.471 278.614 147.733 278.876 147.919 279.217C148.111 279.553 148.207 279.948 148.207 280.401C148.207 280.849 148.111 281.244 147.919 281.585C147.727 281.926 147.463 282.19 147.127 282.377C146.791 282.558 146.418 282.649 146.007 282.649ZM146.007 282.161C146.295 282.161 146.562 282.097 146.807 281.969C147.053 281.836 147.25 281.638 147.399 281.377C147.554 281.11 147.631 280.785 147.631 280.401C147.631 280.017 147.557 279.694 147.407 279.433C147.258 279.166 147.061 278.969 146.815 278.841C146.57 278.708 146.303 278.641 146.015 278.641C145.727 278.641 145.461 278.708 145.215 278.841C144.97 278.969 144.773 279.166 144.623 279.433C144.479 279.694 144.407 280.017 144.407 280.401C144.407 280.785 144.479 281.11 144.623 281.377C144.773 281.638 144.967 281.836 145.207 281.969C145.453 282.097 145.719 282.161 146.007 282.161ZM149.788 276.665V282.585H149.228V276.665H149.788ZM151.568 281.657L150.736 283.753H150.352L150.944 281.657H151.568ZM157.907 276.993V277.457H156.355V282.585H155.795V277.457H154.235V276.993H157.907ZM160.703 282.649C160.292 282.649 159.921 282.558 159.591 282.377C159.265 282.19 159.007 281.929 158.815 281.593C158.628 281.252 158.535 280.854 158.535 280.401C158.535 279.948 158.631 279.553 158.823 279.217C159.015 278.876 159.276 278.614 159.607 278.433C159.937 278.246 160.308 278.153 160.719 278.153C161.129 278.153 161.5 278.246 161.831 278.433C162.167 278.614 162.428 278.876 162.615 279.217C162.807 279.553 162.903 279.948 162.903 280.401C162.903 280.849 162.807 281.244 162.615 281.585C162.423 281.926 162.159 282.19 161.823 282.377C161.487 282.558 161.113 282.649 160.703 282.649ZM160.703 282.161C160.991 282.161 161.257 282.097 161.503 281.969C161.748 281.836 161.945 281.638 162.095 281.377C162.249 281.11 162.327 280.785 162.327 280.401C162.327 280.017 162.252 279.694 162.103 279.433C161.953 279.166 161.756 278.969 161.511 278.841C161.265 278.708 160.999 278.641 160.711 278.641C160.423 278.641 160.156 278.708 159.911 278.841C159.665 278.969 159.468 279.166 159.319 279.433C159.175 279.694 159.103 280.017 159.103 280.401C159.103 280.785 159.175 281.11 159.319 281.377C159.468 281.638 159.663 281.836 159.903 281.969C160.148 282.097 160.415 282.161 160.703 282.161ZM164.652 278.689V281.401C164.652 281.668 164.702 281.852 164.804 281.953C164.905 282.054 165.084 282.105 165.34 282.105H165.852V282.585H165.252C164.857 282.585 164.564 282.494 164.372 282.313C164.18 282.126 164.084 281.822 164.084 281.401V278.689H163.476V278.217H164.084V277.121H164.652V278.217H165.852V278.689H164.652ZM166.519 280.393C166.519 279.945 166.607 279.553 166.783 279.217C166.964 278.876 167.212 278.614 167.527 278.433C167.847 278.246 168.207 278.153 168.607 278.153C169.023 278.153 169.38 278.249 169.679 278.441C169.983 278.633 170.202 278.878 170.335 279.177V278.217H170.895V282.585H170.335V281.617C170.196 281.916 169.975 282.164 169.671 282.361C169.372 282.553 169.015 282.649 168.599 282.649C168.204 282.649 167.847 282.556 167.527 282.369C167.212 282.182 166.964 281.918 166.783 281.577C166.607 281.236 166.519 280.841 166.519 280.393ZM170.335 280.401C170.335 280.049 170.263 279.74 170.119 279.473C169.975 279.206 169.778 279.001 169.527 278.857C169.282 278.713 169.01 278.641 168.711 278.641C168.402 278.641 168.124 278.71 167.879 278.849C167.634 278.988 167.439 279.19 167.295 279.457C167.156 279.718 167.087 280.03 167.087 280.393C167.087 280.75 167.156 281.065 167.295 281.337C167.439 281.604 167.634 281.809 167.879 281.953C168.124 282.092 168.402 282.161 168.711 282.161C169.01 282.161 169.282 282.089 169.527 281.945C169.778 281.801 169.975 281.596 170.119 281.329C170.263 281.062 170.335 280.753 170.335 280.401ZM172.734 276.665V282.585H172.174V276.665H172.734ZM175.941 279.785C175.941 279.236 176.061 278.745 176.301 278.313C176.541 277.876 176.869 277.537 177.285 277.297C177.701 277.052 178.165 276.929 178.677 276.929C179.301 276.929 179.834 277.078 180.277 277.377C180.725 277.67 181.05 278.086 181.253 278.625H180.597C180.437 278.246 180.192 277.95 179.861 277.737C179.536 277.524 179.141 277.417 178.677 277.417C178.266 277.417 177.896 277.513 177.565 277.705C177.24 277.897 176.984 278.174 176.797 278.537C176.61 278.894 176.517 279.31 176.517 279.785C176.517 280.26 176.61 280.676 176.797 281.033C176.984 281.39 177.24 281.665 177.565 281.857C177.896 282.049 178.266 282.145 178.677 282.145C179.141 282.145 179.536 282.041 179.861 281.833C180.192 281.62 180.437 281.326 180.597 280.953H181.253C181.05 281.486 180.725 281.9 180.277 282.193C179.829 282.486 179.296 282.633 178.677 282.633C178.165 282.633 177.701 282.513 177.285 282.273C176.869 282.028 176.541 281.689 176.301 281.257C176.061 280.825 175.941 280.334 175.941 279.785ZM184.449 278.137C184.78 278.137 185.076 278.206 185.337 278.345C185.604 278.484 185.812 278.697 185.961 278.985C186.116 279.268 186.193 279.614 186.193 280.025V282.585H185.641V280.089C185.641 279.614 185.521 279.252 185.281 279.001C185.046 278.75 184.724 278.625 184.313 278.625C183.892 278.625 183.556 278.758 183.305 279.025C183.054 279.292 182.929 279.684 182.929 280.201V282.585H182.369V276.665H182.929V278.961C183.068 278.7 183.27 278.497 183.537 278.353C183.809 278.209 184.113 278.137 184.449 278.137ZM187.991 276.665V282.585H187.431V276.665H187.991ZM191.172 282.649C190.761 282.649 190.39 282.558 190.06 282.377C189.734 282.19 189.476 281.929 189.284 281.593C189.097 281.252 189.004 280.854 189.004 280.401C189.004 279.948 189.1 279.553 189.292 279.217C189.484 278.876 189.745 278.614 190.076 278.433C190.406 278.246 190.777 278.153 191.188 278.153C191.598 278.153 191.969 278.246 192.3 278.433C192.636 278.614 192.897 278.876 193.084 279.217C193.276 279.553 193.372 279.948 193.372 280.401C193.372 280.849 193.276 281.244 193.084 281.585C192.892 281.926 192.628 282.19 192.292 282.377C191.956 282.558 191.582 282.649 191.172 282.649ZM191.172 282.161C191.46 282.161 191.726 282.097 191.972 281.969C192.217 281.836 192.414 281.638 192.564 281.377C192.718 281.11 192.796 280.785 192.796 280.401C192.796 280.017 192.721 279.694 192.572 279.433C192.422 279.166 192.225 278.969 191.98 278.841C191.734 278.708 191.468 278.641 191.18 278.641C190.892 278.641 190.625 278.708 190.38 278.841C190.134 278.969 189.937 279.166 189.788 279.433C189.644 279.694 189.572 280.017 189.572 280.401C189.572 280.785 189.644 281.11 189.788 281.377C189.937 281.638 190.132 281.836 190.372 281.969C190.617 282.097 190.884 282.161 191.172 282.161ZM198.344 280.177C198.344 280.369 198.339 280.516 198.328 280.617H194.704C194.72 280.948 194.8 281.23 194.944 281.465C195.088 281.7 195.278 281.878 195.512 282.001C195.747 282.118 196.003 282.177 196.28 282.177C196.643 282.177 196.947 282.089 197.192 281.913C197.443 281.737 197.608 281.5 197.688 281.201H198.28C198.174 281.628 197.944 281.977 197.592 282.249C197.246 282.516 196.808 282.649 196.28 282.649C195.87 282.649 195.502 282.558 195.176 282.377C194.851 282.19 194.595 281.929 194.408 281.593C194.227 281.252 194.136 280.854 194.136 280.401C194.136 279.948 194.227 279.55 194.408 279.209C194.59 278.868 194.843 278.606 195.168 278.425C195.494 278.244 195.864 278.153 196.28 278.153C196.696 278.153 197.059 278.244 197.368 278.425C197.683 278.606 197.923 278.852 198.088 279.161C198.259 279.465 198.344 279.804 198.344 280.177ZM197.776 280.161C197.782 279.836 197.715 279.558 197.576 279.329C197.443 279.1 197.259 278.926 197.024 278.809C196.79 278.692 196.534 278.633 196.256 278.633C195.84 278.633 195.486 278.766 195.192 279.033C194.899 279.3 194.736 279.676 194.704 280.161H197.776ZM200.873 282.649C200.372 282.649 199.961 282.534 199.641 282.305C199.326 282.07 199.15 281.753 199.113 281.353H199.689C199.716 281.598 199.83 281.798 200.033 281.953C200.241 282.102 200.518 282.177 200.865 282.177C201.169 282.177 201.406 282.105 201.577 281.961C201.753 281.817 201.841 281.638 201.841 281.425C201.841 281.276 201.793 281.153 201.697 281.057C201.601 280.961 201.478 280.886 201.329 280.833C201.185 280.774 200.988 280.713 200.737 280.649C200.412 280.564 200.148 280.478 199.945 280.393C199.742 280.308 199.569 280.182 199.425 280.017C199.286 279.846 199.217 279.62 199.217 279.337C199.217 279.124 199.281 278.926 199.409 278.745C199.537 278.564 199.718 278.42 199.953 278.313C200.188 278.206 200.454 278.153 200.753 278.153C201.222 278.153 201.601 278.273 201.889 278.513C202.177 278.748 202.332 279.073 202.353 279.489H201.793C201.777 279.233 201.676 279.028 201.489 278.873C201.308 278.713 201.057 278.633 200.737 278.633C200.454 278.633 200.225 278.7 200.049 278.833C199.873 278.966 199.785 279.132 199.785 279.329C199.785 279.5 199.836 279.641 199.937 279.753C200.044 279.86 200.174 279.945 200.329 280.009C200.484 280.068 200.692 280.134 200.953 280.209C201.268 280.294 201.518 280.377 201.705 280.457C201.892 280.537 202.052 280.654 202.185 280.809C202.318 280.964 202.388 281.169 202.393 281.425C202.393 281.66 202.329 281.87 202.201 282.057C202.073 282.238 201.894 282.382 201.665 282.489C201.436 282.596 201.172 282.649 200.873 282.649ZM204.175 278.689V281.401C204.175 281.668 204.226 281.852 204.327 281.953C204.428 282.054 204.607 282.105 204.863 282.105H205.375V282.585H204.775C204.38 282.585 204.087 282.494 203.895 282.313C203.703 282.126 203.607 281.822 203.607 281.401V278.689H202.999V278.217H203.607V277.121H204.175V278.217H205.375V278.689H204.175ZM206.859 278.993C206.981 278.721 207.168 278.51 207.419 278.361C207.675 278.212 207.987 278.137 208.355 278.137V278.721H208.203C207.797 278.721 207.472 278.83 207.227 279.049C206.981 279.268 206.859 279.633 206.859 280.145V282.585H206.299V278.217H206.859V278.993ZM211.109 282.649C210.698 282.649 210.328 282.558 209.997 282.377C209.672 282.19 209.413 281.929 209.221 281.593C209.034 281.252 208.941 280.854 208.941 280.401C208.941 279.948 209.037 279.553 209.229 279.217C209.421 278.876 209.682 278.614 210.013 278.433C210.344 278.246 210.714 278.153 211.125 278.153C211.536 278.153 211.906 278.246 212.237 278.433C212.573 278.614 212.834 278.876 213.021 279.217C213.213 279.553 213.309 279.948 213.309 280.401C213.309 280.849 213.213 281.244 213.021 281.585C212.829 281.926 212.565 282.19 212.229 282.377C211.893 282.558 211.52 282.649 211.109 282.649ZM211.109 282.161C211.397 282.161 211.664 282.097 211.909 281.969C212.154 281.836 212.352 281.638 212.501 281.377C212.656 281.11 212.733 280.785 212.733 280.401C212.733 280.017 212.658 279.694 212.509 279.433C212.36 279.166 212.162 278.969 211.917 278.841C211.672 278.708 211.405 278.641 211.117 278.641C210.829 278.641 210.562 278.708 210.317 278.841C210.072 278.969 209.874 279.166 209.725 279.433C209.581 279.694 209.509 280.017 209.509 280.401C209.509 280.785 209.581 281.11 209.725 281.377C209.874 281.638 210.069 281.836 210.309 281.969C210.554 282.097 210.821 282.161 211.109 282.161ZM214.89 276.665V282.585H214.33V276.665H214.89Z" fill="white"/>
</svg>
