<svg xmlns="http://www.w3.org/2000/svg" width="249" height="362" fill="none" viewBox="0 0 249 362"><path fill="#d9d9d9" fill-opacity=".2" d="M0 10C0 4.477 4.477 0 10 0h229c5.523 0 10 4.477 10 10v330.5c0 5.523-4.477 10-10 10H10c-5.523 0-10-4.477-10-10z"/><path fill="#f5f6f7" d="m32.645 56.831-2.83-4.997h-1.212v4.997h-2.572V44.01h4.813q1.488 0 2.535.533 1.047.514 1.562 1.414.532.883.532 1.984 0 1.267-.734 2.296-.735 1.011-2.186 1.396l3.067 5.2zm-4.042-6.925h2.15q1.046 0 1.56-.496.516-.515.515-1.415 0-.881-.514-1.36-.515-.495-1.562-.495h-2.149zm18.198 1.616q0 .552-.074.992h-7.44q.093 1.102.772 1.727.68.624 1.672.624 1.432 0 2.039-1.23h2.773a4.7 4.7 0 0 1-1.69 2.425q-1.248.936-3.067.936-1.47 0-2.646-.643a4.73 4.73 0 0 1-1.818-1.855q-.643-1.194-.643-2.755 0-1.58.643-2.774a4.5 4.5 0 0 1 1.8-1.837q1.158-.643 2.664-.643 1.45 0 2.59.625a4.3 4.3 0 0 1 1.782 1.781q.642 1.14.643 2.627m-2.664-.735q-.018-.99-.716-1.58-.699-.606-1.709-.606-.956 0-1.616.588-.643.57-.79 1.598zm6.653-2.663q.496-.699 1.36-1.157.881-.478 2.002-.478 1.304 0 2.351.643 1.066.642 1.672 1.837.624 1.176.625 2.737 0 1.56-.625 2.774-.606 1.194-1.672 1.855a4.3 4.3 0 0 1-2.351.661q-1.12 0-1.984-.459a4.3 4.3 0 0 1-1.378-1.157v6.3h-2.572V46.655h2.572zm5.383 3.582q0-.918-.386-1.58a2.5 2.5 0 0 0-.992-1.029 2.6 2.6 0 0 0-1.323-.349q-.698 0-1.322.368a2.7 2.7 0 0 0-.992 1.029q-.368.679-.368 1.598 0 .918.368 1.598.385.68.992 1.047a2.67 2.67 0 0 0 1.322.349q.717 0 1.323-.367a2.64 2.64 0 0 0 .992-1.048q.386-.68.386-1.616m8.555 5.29q-1.47 0-2.645-.643a4.8 4.8 0 0 1-1.856-1.855q-.66-1.194-.66-2.755 0-1.562.679-2.756a4.8 4.8 0 0 1 1.892-1.837q1.194-.66 2.664-.661 1.47 0 2.663.661a4.66 4.66 0 0 1 1.874 1.837q.698 1.194.698 2.756t-.717 2.755a4.9 4.9 0 0 1-1.91 1.855q-1.194.644-2.682.643m0-2.24q.698 0 1.304-.331.625-.35.992-1.03.368-.678.368-1.652 0-1.452-.772-2.223a2.46 2.46 0 0 0-1.855-.79q-1.103 0-1.856.79-.735.771-.734 2.223 0 1.45.716 2.24.735.772 1.837.772m9.308-6.522a3.64 3.64 0 0 1 1.286-1.267q.807-.46 1.837-.46v2.7h-.68q-1.212 0-1.837.57-.606.57-.606 1.984v5.07h-2.572V46.654h2.572zm7.39.533v4.923q0 .515.239.753.257.22.845.22h1.194v2.168h-1.617q-3.25 0-3.251-3.16v-4.904h-1.213v-2.113h1.213v-2.516h2.59v2.516h2.278v2.113zm15.448 5.62h-5.106l-.845 2.444h-2.7l4.61-12.84h2.994l4.611 12.84h-2.719zm-.698-2.056-1.855-5.364-1.855 5.364zm11.166-5.824q1.818 0 2.939 1.158 1.12 1.138 1.12 3.196v5.97h-2.571v-5.62q0-1.212-.606-1.855-.607-.662-1.654-.662-1.065 0-1.69.662-.606.642-.606 1.855v5.621h-2.572V46.654h2.572v1.268a3.5 3.5 0 0 1 1.304-1.029 4.04 4.04 0 0 1 1.764-.386m5.385 5.199q0-1.543.606-2.737.624-1.194 1.671-1.837a4.5 4.5 0 0 1 2.37-.643q1.139 0 1.984.46.864.458 1.378 1.157v-1.452h2.59v10.177h-2.59v-1.488q-.496.717-1.378 1.194-.864.46-2.002.46-1.286 0-2.352-.662-1.047-.661-1.671-1.855-.606-1.212-.606-2.774m8.009.037q0-.938-.368-1.599a2.5 2.5 0 0 0-.992-1.028 2.6 2.6 0 0 0-1.341-.368q-.716 0-1.322.35a2.7 2.7 0 0 0-.992 1.028q-.368.662-.368 1.58t.368 1.616q.386.681.992 1.047.624.368 1.322.368.717 0 1.341-.35.625-.366.992-1.028.368-.68.368-1.616m7.214-8.506v13.594h-2.572V43.237zm11.818 3.417-6.301 14.99h-2.737l2.204-5.07-4.078-9.92h2.884l2.627 7.11 2.664-7.11zm4.821 10.342q-1.25 0-2.241-.44-.992-.46-1.58-1.231a3.13 3.13 0 0 1-.624-1.709h2.59q.074.588.569.974.515.386 1.268.386.734 0 1.139-.294.422-.294.422-.753 0-.496-.514-.735-.496-.257-1.598-.551-1.14-.276-1.874-.57a3.3 3.3 0 0 1-1.249-.9q-.514-.606-.514-1.635 0-.844.477-1.543.496-.697 1.396-1.102.919-.405 2.15-.404 1.818 0 2.902.918 1.083.9 1.194 2.444h-2.462a1.29 1.29 0 0 0-.514-.956q-.441-.367-1.194-.367-.698 0-1.084.257a.83.83 0 0 0-.367.717q0 .514.514.79.515.256 1.598.532a14 14 0 0 1 1.819.57q.717.294 1.231.918.533.606.551 1.617 0 .88-.496 1.58-.478.697-1.396 1.102-.9.385-2.113.385m6.961-11.554q-.68 0-1.139-.423a1.47 1.47 0 0 1-.441-1.084q0-.642.441-1.065.46-.44 1.139-.44.68 0 1.12.44.46.423.46 1.066t-.46 1.083q-.44.423-1.12.423m1.267 1.212v10.177h-2.571V46.654zm5.976 10.342q-1.248 0-2.241-.44-.992-.46-1.579-1.231a3.13 3.13 0 0 1-.625-1.709h2.59q.074.588.57.974.513.386 1.267.386.735 0 1.139-.294.422-.294.422-.753 0-.496-.514-.735-.496-.257-1.598-.551-1.139-.276-1.874-.57a3.3 3.3 0 0 1-1.249-.9q-.514-.606-.514-1.635 0-.844.477-1.543.496-.697 1.396-1.102.919-.405 2.15-.404 1.819 0 2.902.918 1.084.9 1.194 2.444h-2.461a1.3 1.3 0 0 0-.515-.956q-.441-.367-1.194-.367-.697 0-1.084.257a.83.83 0 0 0-.367.717q0 .514.514.79.514.256 1.599.532a14 14 0 0 1 1.818.57q.717.294 1.231.918.533.606.551 1.617 0 .88-.496 1.58-.477.697-1.396 1.102-.9.385-2.113.385"/><path fill="#69a372" d="M28.358 73.87a4 4 0 0 1-1.521-.275 2.5 2.5 0 0 1-1.08-.816q-.397-.54-.42-1.3h2.006q.045.429.298.66.255.221.661.221.42 0 .662-.187a.66.66 0 0 0 .242-.54.62.62 0 0 0-.198-.474 1.5 1.5 0 0 0-.474-.309 7 7 0 0 0-.794-.275 9 9 0 0 1-1.223-.463 2.26 2.26 0 0 1-.816-.684q-.341-.45-.341-1.179 0-1.08.782-1.686.782-.618 2.04-.618 1.278 0 2.06.618.783.606.838 1.697h-2.04q-.021-.375-.275-.584-.254-.22-.65-.22-.342 0-.551.187-.21.176-.21.518 0 .374.353.584t1.102.452q.75.253 1.213.485.474.231.815.672.342.44.342 1.135 0 .662-.342 1.202-.33.54-.97.86t-1.51.32m11.829-6.293q1.146 0 1.818.694.684.694.683 1.929v3.593h-1.873v-3.34q0-.594-.32-.915-.309-.33-.86-.33t-.87.33q-.309.321-.309.915v3.34h-1.874v-3.34q0-.594-.32-.915-.308-.33-.859-.33t-.87.33q-.31.321-.31.915v3.34H32.34v-6.15h1.885v.771q.285-.386.75-.606a2.3 2.3 0 0 1 1.046-.231q.695 0 1.235.297.55.298.86.849.319-.507.87-.827t1.202-.32m3.445 3.13q0-.948.352-1.664a2.7 2.7 0 0 1 .981-1.103q.618-.385 1.378-.385.65 0 1.135.264.497.265.76.694v-.87h1.886v6.15H48.24v-.87q-.275.429-.772.694-.484.264-1.135.264-.75 0-1.367-.386a2.8 2.8 0 0 1-.98-1.113q-.353-.727-.353-1.675m4.607.01q0-.705-.397-1.112a1.25 1.25 0 0 0-.948-.408q-.561 0-.959.408-.385.397-.385 1.102t.385 1.124q.397.408.96.408.561 0 .947-.408.397-.408.397-1.113m5.133-2.05q.33-.506.827-.793.495-.297 1.102-.297v1.995h-.518q-.705 0-1.058.308-.354.298-.353 1.058v2.855h-1.885v-6.15h1.885zm6.257 3.528v1.598h-.959q-1.025 0-1.598-.496-.573-.507-.573-1.642v-2.447h-.75v-1.565h.75v-1.5h1.885v1.5h1.234v1.565h-1.234v2.469q0 .275.132.397.132.12.441.12zm10.087-6.14v7.738h-1.885v-3.185H64.9v3.185h-1.885v-7.737H64.9v3.03h2.931v-3.03zm7.158 4.564a5 5 0 0 1-.033.55h-4.265q.044.574.363.883.331.297.805.297.705 0 .981-.595h2.006q-.154.606-.562 1.091a2.7 2.7 0 0 1-1.003.76 3.2 3.2 0 0 1-1.356.276q-.904 0-1.609-.386a2.74 2.74 0 0 1-1.102-1.102q-.397-.716-.397-1.675t.386-1.675a2.74 2.74 0 0 1 1.102-1.103q.705-.385 1.62-.385.892 0 1.587.374.694.375 1.08 1.07.397.693.397 1.62m-1.929-.496q0-.485-.33-.772-.33-.285-.827-.286-.474 0-.804.275-.32.276-.397.783zm2.549.584q0-.948.353-1.664.363-.716.98-1.103.618-.385 1.378-.385.65 0 1.135.264.496.265.76.694v-.87h1.886v6.15H82.1v-.87q-.276.429-.772.694-.484.264-1.135.264-.75 0-1.367-.386a2.8 2.8 0 0 1-.98-1.113q-.353-.727-.353-1.675m4.607.01q0-.705-.397-1.112a1.25 1.25 0 0 0-.948-.408q-.561 0-.959.408-.385.397-.385 1.102t.385 1.124q.398.408.96.408t.947-.408q.397-.408.397-1.113m5.133-5.08v8.156h-1.885v-8.156zm4.794 6.558v1.598h-.96q-1.024 0-1.598-.496-.573-.507-.573-1.642V69.21h-.75v-1.565h.75v-1.5h1.885v1.5h1.234v1.565h-1.234v2.469q0 .275.132.397.132.12.441.12zm4.83-4.618q1.058 0 1.697.705.64.694.64 1.918v3.593H97.32v-3.34q0-.616-.32-.959-.32-.34-.86-.341-.54 0-.86.341-.319.342-.319.96v3.339h-1.885v-8.156h1.885v2.832q.287-.407.783-.65.495-.243 1.113-.242m7.867-1.521v7.737h-1.885v-7.737zm5.113 1.52q1.08 0 1.719.706.65.694.65 1.918v3.593h-1.873v-3.34q0-.616-.32-.959-.32-.34-.86-.341-.54 0-.859.341-.32.342-.32.96v3.339h-1.885v-6.15h1.885v.815q.286-.408.772-.639a2.4 2.4 0 0 1 1.091-.242m6.181 6.305q-.804 0-1.433-.275a2.5 2.5 0 0 1-.992-.75 2 2 0 0 1-.407-1.08h1.862a.71.71 0 0 0 .298.518q.264.198.65.198.353 0 .54-.132a.43.43 0 0 0 .199-.364q0-.264-.276-.385-.275-.133-.893-.287a9 9 0 0 1-1.102-.32 2 2 0 0 1-.76-.54q-.32-.375-.32-1.003 0-.528.286-.959.298-.44.86-.694.573-.253 1.356-.253 1.157 0 1.818.573.673.573.772 1.52h-1.741a.74.74 0 0 0-.287-.506q-.231-.188-.617-.188-.332 0-.507.133a.39.39 0 0 0-.177.341q0 .265.276.397.287.132.882.265.683.176 1.113.352.43.165.749.551.332.375.342 1.014 0 .54-.309.97-.297.42-.87.662-.562.242-1.312.242m4.592-6.877q-.496 0-.816-.287a.97.97 0 0 1-.308-.727q0-.441.308-.728.32-.297.816-.297.485 0 .794.297a.93.93 0 0 1 .319.728q0 .43-.319.727-.31.287-.794.287m.937.639v6.15h-1.885v-6.15zm3.702-.088q.65 0 1.136.264.495.265.76.694v-.87h1.885v6.139q0 .849-.342 1.532a2.5 2.5 0 0 1-1.025 1.102q-.683.408-1.708.408-1.367 0-2.216-.65-.848-.64-.97-1.742h1.863a.87.87 0 0 0 .419.551q.33.21.816.21.584 0 .925-.342.353-.33.353-1.07v-.87a2.14 2.14 0 0 1-.76.706q-.486.264-1.136.264-.76 0-1.377-.386a2.8 2.8 0 0 1-.981-1.113q-.353-.727-.353-1.675t.353-1.664q.363-.716.981-1.103.617-.385 1.377-.385m1.896 3.163q0-.706-.397-1.113a1.25 1.25 0 0 0-.948-.408q-.561 0-.958.408-.386.397-.386 1.102t.386 1.124q.397.408.958.408.563 0 .948-.408.397-.408.397-1.113m7.029-3.141q1.058 0 1.697.705.639.694.639 1.918v3.593h-1.873v-3.34q0-.616-.32-.959-.32-.34-.86-.341-.54 0-.859.341-.32.342-.32.96v3.339h-1.885V65.64h1.885v2.832q.286-.407.783-.65.495-.243 1.113-.242m7.074 4.618v1.598h-.959q-1.025 0-1.598-.496-.573-.507-.573-1.642v-2.447h-.75v-1.565h.75v-1.5h1.884v1.5h1.235v1.565h-1.235v2.469q0 .275.133.397.132.12.441.12zm3.552 1.686q-.805 0-1.433-.275a2.46 2.46 0 0 1-.992-.75 2 2 0 0 1-.408-1.08h1.863a.72.72 0 0 0 .297.518q.265.198.651.198.353 0 .54-.132a.43.43 0 0 0 .198-.364q0-.264-.275-.385-.276-.133-.893-.287a9 9 0 0 1-1.102-.32 2 2 0 0 1-.761-.54q-.32-.375-.319-1.003 0-.528.286-.959.297-.44.86-.694.573-.253 1.355-.253 1.158 0 1.819.573.672.573.772 1.52h-1.742a.74.74 0 0 0-.286-.506q-.232-.188-.618-.188-.33 0-.507.133a.39.39 0 0 0-.176.341q0 .265.276.397.286.132.881.265.684.176 1.113.352.43.165.75.551.33.375.342 1.014 0 .54-.309.97-.298.42-.871.662-.562.242-1.311.242"/><g filter="url(#filter1_dd_334_193)"><path fill="#69a372" d="M17.941 114.228c0-7.692 6.236-13.927 13.928-13.927s13.927 6.235 13.927 13.927-6.235 13.928-13.927 13.928-13.928-6.236-13.928-13.928" shape-rendering="crispEdges"/><path stroke="#fff" stroke-linecap="round" stroke-linejoin="round" stroke-width="1.658" d="m36.29 110.911-6.08 6.08-2.764-2.764"/></g><path fill="#fff" d="M64.934 97.016V104h-1.702v-4.188L61.671 104h-1.373l-1.572-4.198V104h-1.701v-6.984h2.01l1.96 4.835 1.939-4.835zm6.456 4.119q0 .239-.03.497h-3.85q.04.517.328.796.3.269.726.269.637 0 .886-.537h1.81a2.45 2.45 0 0 1-.507.984q-.358.438-.905.687a2.9 2.9 0 0 1-1.224.249q-.816 0-1.452-.349a2.5 2.5 0 0 1-.995-.994q-.358-.648-.358-1.513t.348-1.512q.358-.645.995-.995.637-.348 1.462-.348.806 0 1.433.338.626.339.974.966.36.626.359 1.462m-1.741-.448q0-.438-.299-.696a1.1 1.1 0 0 0-.746-.259q-.427 0-.726.249-.288.249-.358.706zm5.732 1.871V104h-.865q-.925 0-1.443-.448-.517-.458-.517-1.482v-2.208h-.677v-1.413h.677v-1.353h1.7v1.353h1.115v1.413h-1.114v2.228q0 .249.12.358.119.11.397.11zm.61-1.344q0-.855.318-1.502.329-.645.885-.995a2.3 2.3 0 0 1 1.244-.348q.585 0 1.024.24.449.237.687.626v-.786h1.7V104h-1.7v-.786a1.8 1.8 0 0 1-.697.627 2.1 2.1 0 0 1-1.024.239q-.676 0-1.234-.349a2.5 2.5 0 0 1-.885-1.004q-.32-.657-.319-1.513m4.158.01q0-.636-.358-1.004a1.13 1.13 0 0 0-.856-.368q-.507 0-.865.368-.35.358-.349.994 0 .637.349 1.015.358.368.865.368t.856-.368q.358-.367.358-1.005m4.633-1.99a1.75 1.75 0 0 1 .686-.626q.448-.24 1.025-.239.686 0 1.243.349.557.348.876.994.328.647.328 1.502 0 .856-.328 1.513a2.44 2.44 0 0 1-.876 1.004 2.3 2.3 0 0 1-1.243.349q-.587 0-1.025-.229a1.84 1.84 0 0 1-.686-.627V104H83.08v-7.362h1.7zm2.427 1.98q0-.636-.358-.994a1.14 1.14 0 0 0-.866-.368q-.507 0-.865.368-.348.368-.348 1.004 0 .638.348 1.005.358.368.865.368.508 0 .866-.368.358-.378.358-1.015m5.15 2.866a3.1 3.1 0 0 1-1.472-.349 2.6 2.6 0 0 1-1.025-.994q-.368-.648-.368-1.513 0-.855.378-1.502a2.56 2.56 0 0 1 1.035-1.004 3.1 3.1 0 0 1 1.472-.349q.816 0 1.473.349.656.347 1.034 1.004.378.647.378 1.502 0 .856-.388 1.513-.378.646-1.044.994a3.1 3.1 0 0 1-1.473.349m0-1.473q.487 0 .826-.358.348-.358.348-1.025t-.338-1.024a1.06 1.06 0 0 0-.816-.358q-.497 0-.826.358-.328.348-.328 1.024 0 .667.319 1.025.328.358.815.358m5.509-5.969V104h-1.701v-7.362zm2.088 1.234q-.447 0-.736-.259a.88.88 0 0 1-.278-.656q0-.398.278-.657.288-.269.736-.269.438 0 .716.27a.84.84 0 0 1 .289.656.86.86 0 0 1-.289.656q-.278.26-.716.259m.846.577V104H99.1v-5.551zm.894 2.775q0-.865.349-1.512.358-.645.984-.995a3 3 0 0 1 1.453-.348q1.044 0 1.741.547.706.548.925 1.542h-1.811q-.228-.636-.885-.636a.89.89 0 0 0-.746.368q-.279.358-.279 1.034 0 .677.279 1.045a.9.9 0 0 0 .746.358q.657 0 .885-.637h1.811q-.219.975-.925 1.532-.706.558-1.741.558-.816 0-1.453-.349a2.5 2.5 0 0 1-.984-.994q-.35-.648-.349-1.513m13.792-1.96q0 .608-.278 1.115-.279.497-.856.806-.576.308-1.432.308h-1.055V104h-1.701v-6.984h2.756q.836 0 1.412.289.578.288.866.796.288.507.288 1.164m-2.696.876q.488 0 .727-.229.238-.228.238-.646t-.238-.647q-.239-.229-.727-.229h-.925v1.751zm3.244 1.074q0-.855.318-1.502.328-.645.886-.995a2.3 2.3 0 0 1 1.243-.348q.587 0 1.025.24.447.237.686.626v-.786h1.701V104h-1.701v-.786a1.8 1.8 0 0 1-.696.627 2.1 2.1 0 0 1-1.025.239q-.676 0-1.233-.349a2.5 2.5 0 0 1-.886-1.004q-.318-.657-.318-1.513m4.158.01q0-.636-.358-1.004a1.13 1.13 0 0 0-.856-.368q-.507 0-.865.368-.348.358-.348.994 0 .637.348 1.015.358.368.865.368.508 0 .856-.368.358-.367.358-1.005m6.314-2.835q.976 0 1.552.637.587.627.587 1.731V104h-1.691v-3.014q0-.558-.288-.866-.289-.308-.776-.308t-.776.308q-.29.308-.289.866V104h-1.701v-5.551h1.701v.736a1.76 1.76 0 0 1 .697-.577q.437-.219.984-.219m8.554 2.746q0 .239-.03.497h-3.85q.04.517.329.796.299.269.726.269.636 0 .885-.537h1.811a2.44 2.44 0 0 1-.508.984q-.357.438-.905.687a2.9 2.9 0 0 1-1.223.249q-.816 0-1.453-.349a2.5 2.5 0 0 1-.995-.994q-.358-.648-.358-1.513t.348-1.512q.359-.645.995-.995.637-.348 1.463-.348.805 0 1.432.338.627.339.975.966.358.626.358 1.462m-1.741-.448q0-.438-.298-.696a1.1 1.1 0 0 0-.746-.259q-.429 0-.727.249-.288.249-.358.706zm4.34-4.049V104h-1.701v-7.362zM62.367 116l-.647-.627q-.964.736-2.308.736-.805 0-1.402-.258a2.17 2.17 0 0 1-.926-.746 2.03 2.03 0 0 1-.318-1.134 2.1 2.1 0 0 1 .348-1.184q.358-.537 1.065-.876a2.2 2.2 0 0 1-.368-.607 1.9 1.9 0 0 1-.11-.646q0-.498.259-.905a1.7 1.7 0 0 1 .746-.637q.498-.239 1.174-.239.685 0 1.164.249.477.249.716.666.24.418.219.916h-1.602q.01-.27-.139-.408a.5.5 0 0 0-.378-.15.58.58 0 0 0-.398.14.45.45 0 0 0-.16.358q0 .208.13.438a3.2 3.2 0 0 0 .428.527l1.701 1.661.05-.119q.04-.07.08-.159l.367-.627h1.702l-.478.865q-.268.588-.617 1.115L64.347 116zm-2.875-1.263q.666 0 1.184-.378l-1.552-1.503q-.717.368-.716.995 0 .378.288.637.298.249.796.249m13.627-5.721V116h-1.701v-2.875H68.77V116h-1.7v-6.984h1.7v2.736h2.647v-2.736zm2.929 2.219q.239-.389.686-.627.448-.239 1.025-.239a2.3 2.3 0 0 1 1.243.348q.558.349.876.995.328.647.328 1.502 0 .856-.328 1.513a2.44 2.44 0 0 1-.876 1.004 2.3 2.3 0 0 1-1.243.349q-.587 0-1.025-.229a1.84 1.84 0 0 1-.686-.627V116h-1.701v-7.362h1.7zm2.427 1.979q0-.636-.358-.994a1.14 1.14 0 0 0-.865-.368 1.16 1.16 0 0 0-.866.368q-.348.368-.348 1.004 0 .638.348 1.005.358.368.866.368.507 0 .865-.368.358-.378.358-1.015m6.971 1.552H82.84L82.422 116H80.64l2.527-6.984h1.97L87.664 116h-1.8zm-.438-1.313-.865-2.556-.856 2.556zm3.077-3.133v-1.582h2.756V116h-1.77v-5.68zm3.75 2.904q0-.865.349-1.512a2.5 2.5 0 0 1 .985-.995 3 3 0 0 1 1.452-.348q1.045 0 1.741.547.706.547.925 1.542h-1.81q-.23-.636-.886-.636a.89.89 0 0 0-.746.368q-.278.358-.278 1.034 0 .677.278 1.045a.9.9 0 0 0 .746.358q.657 0 .886-.637h1.81q-.219.975-.925 1.532-.706.558-1.74.558-.817 0-1.453-.349a2.5 2.5 0 0 1-.985-.994q-.348-.648-.348-1.513"/><path fill="#69a372" d="M63.797 124.471v6.052h-1.475v-3.629l-1.353 3.629h-1.19l-1.362-3.638v3.638h-1.475v-6.052h1.742l1.699 4.19 1.68-4.19zm.767 3.638q0-.741.276-1.302.284-.56.767-.862a2 2 0 0 1 1.078-.301q.508 0 .888.206.387.207.595.544v-.682h1.474v4.811h-1.474v-.681a1.6 1.6 0 0 1-.604.543 1.8 1.8 0 0 1-.888.207q-.585 0-1.069-.301a2.2 2.2 0 0 1-.767-.871q-.276-.57-.276-1.311m3.604.009q0-.552-.31-.871a.98.98 0 0 0-.742-.319q-.44 0-.75.319-.302.31-.302.862t.302.88q.31.318.75.319.44 0 .741-.319.31-.32.31-.871m4.015-1.604a1.9 1.9 0 0 1 .647-.62q.387-.234.862-.233v1.56h-.405q-.552 0-.828.242-.276.233-.276.827v2.233h-1.474v-4.811h1.474zm3.739-.914v-1.37h2.388v6.293h-1.535V125.6zm5.13 3.561-.958 2.475h-.94l.5-2.475zm2.517.181q.294-.233.268-.215a32 32 0 0 0 1.327-1.147 5.4 5.4 0 0 0 .828-.94q.336-.49.336-.957 0-.352-.163-.552-.165-.198-.492-.198a.61.61 0 0 0-.517.25q-.181.242-.181.69h-1.423q.018-.733.31-1.224.302-.492.785-.725.492-.232 1.086-.232 1.026 0 1.544.526.525.525.526 1.37 0 .922-.63 1.716-.63.785-1.603 1.535h2.328v1.198h-4.329zm4.978-2.052q0-1.482.569-2.336.578-.854 1.853-.854 1.276 0 1.845.854.578.854.578 2.336 0 1.5-.578 2.354-.569.854-1.845.854-1.275 0-1.853-.854-.57-.854-.57-2.354m3.397 0q0-.87-.19-1.336-.19-.474-.785-.474t-.784.474q-.19.466-.19 1.336 0 .586.069.975.069.378.276.62.215.233.63.233.413 0 .62-.233.216-.242.285-.62.069-.388.069-.975m2.175 2.052q.294-.233.267-.215a32 32 0 0 0 1.328-1.147 5.4 5.4 0 0 0 .828-.94q.336-.49.336-.957 0-.352-.164-.552-.164-.198-.491-.198a.61.61 0 0 0-.517.25q-.181.242-.181.69H94.1q.017-.733.31-1.224.302-.492.785-.725.492-.232 1.086-.232 1.026 0 1.544.526.525.525.526 1.37 0 .922-.63 1.716-.63.785-1.603 1.535h2.327v1.198H94.12zm8.09-3.414q-.07-.32-.241-.474-.172-.164-.492-.164-.492 0-.707.431-.216.423-.224 1.345.189-.301.543-.474.363-.173.793-.173.846 0 1.354.535.517.534.517 1.492 0 .629-.258 1.103a1.8 1.8 0 0 1-.742.742q-.483.267-1.147.267-1.328 0-1.845-.828-.517-.835-.517-2.397 0-1.638.543-2.431.552-.802 1.759-.802.646 0 1.086.259.448.25.673.664.233.413.276.905zm-.681 1.655a.9.9 0 0 0-.621.225q-.241.215-.241.62 0 .414.224.647.232.233.655.233.38 0 .595-.224.224-.233.224-.63 0-.405-.215-.638-.216-.233-.621-.233"/><g filter="url(#filter2_dd_334_193)"><mask id="path-8-inside-1_334_193" fill="#fff"><path d="M174.605 103.119A9.12 9.12 0 0 1 183.724 94h42.788a9.12 9.12 0 0 1 0 18.238h-42.788a9.12 9.12 0 0 1-9.119-9.119"/></mask><path fill="#e2eed2" d="M174.605 103.119A9.12 9.12 0 0 1 183.724 94h42.788a9.12 9.12 0 0 1 0 18.238h-42.788a9.12 9.12 0 0 1-9.119-9.119" shape-rendering="crispEdges"/><path fill="#fff" d="M183.724 94v.663h42.788v-1.326h-42.788zm42.788 18.238v-.663h-42.788v1.327h42.788zm-42.788 0v-.663a8.456 8.456 0 0 1-8.456-8.456h-1.326c0 5.403 4.38 9.783 9.782 9.783zm51.907-9.119h-.663a8.456 8.456 0 0 1-8.456 8.456v1.327c5.403 0 9.782-4.38 9.782-9.783zM226.512 94v.663a8.456 8.456 0 0 1 8.456 8.456h1.326a9.78 9.78 0 0 0-9.782-9.782zm-42.788 0v-.663c-5.402 0-9.782 4.38-9.782 9.782h1.326a8.456 8.456 0 0 1 8.456-8.456z" mask="url(#path-8-inside-1_334_193)"/><path fill="#69a372" d="M186.134 103.494a.97.97 0 0 1 .585.364q.22.28.22.645 0 .525-.37.835-.364.305-1.02.305h-1.952v-4.191h1.886q.639 0 .997.293.364.292.364.794a.96.96 0 0 1-.197.615 1 1 0 0 1-.513.34m-1.516-.346h.668q.25 0 .382-.108.137-.113.137-.328t-.137-.328q-.132-.114-.382-.114h-.668zm.752 1.671q.256 0 .394-.114a.42.42 0 0 0 .143-.34.43.43 0 0 0-.149-.346q-.144-.126-.4-.125h-.74v.925zm3.481.036h1.337v.788h-2.358v-4.191h1.021zm4.104.829q-.59 0-1.087-.274a2.1 2.1 0 0 1-.782-.764 2.2 2.2 0 0 1-.286-1.11q0-.615.286-1.105.293-.49.782-.764a2.2 2.2 0 0 1 1.087-.274q.591 0 1.08.274.495.275.776.764.286.49.286 1.105 0 .614-.286 1.11-.287.49-.776.764a2.17 2.17 0 0 1-1.08.274m0-.931q.5 0 .799-.334.305-.334.305-.883 0-.556-.305-.884-.298-.334-.799-.334-.508 0-.812.328-.299.328-.299.89 0 .555.299.889.304.328.812.328m4.99.931q-.591 0-1.086-.274a2.1 2.1 0 0 1-.782-.764 2.2 2.2 0 0 1-.286-1.11q0-.615.286-1.105.293-.49.782-.764.495-.274 1.086-.274.59 0 1.081.274.495.275.776.764.286.49.286 1.105 0 .614-.286 1.11-.287.49-.776.764a2.2 2.2 0 0 1-1.081.274m0-.931q.502 0 .8-.334.305-.334.305-.883 0-.556-.305-.884-.298-.334-.8-.334-.507 0-.811.328-.299.328-.299.89 0 .555.299.889.304.328.811.328m4.579-3.301q.663 0 1.158.263.496.263.764.74.275.473.275 1.092 0 .615-.275 1.093a1.84 1.84 0 0 1-.77.74q-.495.263-1.152.263h-1.569v-4.191zm-.065 3.307q.579 0 .901-.316.322-.317.322-.896t-.322-.901-.901-.322h-.484v2.435zm10.46-3.307-1.092 4.191h-1.236l-.668-2.758-.693 2.758h-1.235l-1.063-4.191h1.093l.602 3.051.747-3.051h1.122l.716 3.051.609-3.051zm2.792 4.232q-.591 0-1.086-.274a2.1 2.1 0 0 1-.782-.764 2.2 2.2 0 0 1-.287-1.11q0-.615.287-1.105.292-.49.782-.764.495-.274 1.086-.274.59 0 1.081.274.495.275.775.764.287.49.287 1.105 0 .614-.287 1.11a2.05 2.05 0 0 1-.775.764 2.2 2.2 0 0 1-1.081.274m0-.931q.501 0 .8-.334.304-.334.304-.883 0-.556-.304-.884-.299-.334-.8-.334-.507 0-.812.328-.298.328-.298.89 0 .555.298.889.305.328.812.328m5.146.89-.871-1.582h-.245v1.582h-1.021v-4.191h1.713q.496 0 .842.173.353.174.525.478.174.298.173.669 0 .417-.238.746-.233.328-.693.465l.967 1.66zm-1.116-2.304h.633q.28 0 .417-.138.144-.137.144-.388a.5.5 0 0 0-.144-.376q-.137-.137-.417-.137h-.633zm5.601 2.304-1.409-1.851v1.851h-1.02v-4.191h1.02v1.839l1.397-1.839h1.2l-1.624 2.054 1.683 2.137z"/></g><path fill="#69a372" d="m211.107 121.215-1.651 4.656h-1.419l-1.652-4.656h1.207l1.154 3.515 1.161-3.515zm1.94 0v4.656h-1.134v-4.656zm2.287.909v.942h1.519v.875h-1.519v1.021h1.718v.909H214.2v-4.656h2.852v.909zm9.193-.909-1.214 4.656h-1.373l-.743-3.064-.769 3.064h-1.373l-1.18-4.656h1.213l.67 3.389.829-3.389h1.247l.796 3.389.676-3.389z"/><path stroke="#69a372" stroke-linecap="round" stroke-linejoin="round" stroke-width=".829" d="m230.658 125.834 1.989-1.99-1.989-1.99"/><g filter="url(#filter3_dd_334_193)"><path fill="#69a372" d="M20.296 193.18c0-8.693 7.048-15.741 15.741-15.741s15.74 7.048 15.74 15.741-7.047 15.741-15.74 15.741-15.74-7.048-15.74-15.741" shape-rendering="crispEdges"/><path stroke="#fff" stroke-linecap="round" stroke-linejoin="round" stroke-width="1.874" d="m41.034 189.432-6.871 6.871-3.123-3.124"/></g><path fill="#fff" d="M66.39 186.863h2.519v1.484h-4.442v-7.893h1.923zm4.403-5.442q-.506 0-.833-.293a1 1 0 0 1-.314-.742.97.97 0 0 1 .314-.742q.327-.303.833-.303.495 0 .809.303a.95.95 0 0 1 .326.742q0 .44-.326.742-.315.293-.81.293m.955.652v6.274h-1.922v-6.274zm3.316.888q.28-.438.776-.708.495-.27 1.158-.27a2.6 2.6 0 0 1 1.405.393q.63.395.99 1.125.37.73.37 1.698 0 .966-.37 1.709-.36.73-.99 1.135a2.6 2.6 0 0 1-1.405.394q-.652 0-1.158-.27a2.1 2.1 0 0 1-.776-.697v3.867H73.14v-9.264h1.923zm2.743 2.238q0-.72-.404-1.125a1.3 1.3 0 0 0-.979-.416q-.573 0-.978.416-.393.416-.393 1.136t.393 1.135q.405.416.978.416.574 0 .979-.416.404-.427.404-1.146m3.932-3.778q-.505 0-.832-.293a1 1 0 0 1-.314-.742.97.97 0 0 1 .314-.742q.327-.303.832-.303.495 0 .81.303a.95.95 0 0 1 .326.742q0 .44-.326.742-.315.293-.81.293m.956.652v6.274h-1.923v-6.274zm1.011 3.126q0-.968.36-1.698.37-.73 1-1.125a2.6 2.6 0 0 1 1.406-.393q.618 0 1.124.259.517.258.81.697v-2.912h1.922v8.32h-1.922v-.9q-.27.45-.776.72-.495.27-1.158.27a2.6 2.6 0 0 1-1.405-.394 2.85 2.85 0 0 1-1.001-1.135q-.36-.743-.36-1.709m4.7.011q0-.72-.405-1.136a1.28 1.28 0 0 0-.967-.416q-.573 0-.978.416-.394.405-.394 1.125t.394 1.146q.405.416.978.416.574 0 .967-.416.405-.415.405-1.135m11.711-2.215q0 .686-.315 1.259-.315.562-.967.911-.651.348-1.619.348h-1.191v2.834h-1.923v-7.893h3.114q.945 0 1.597.326t.978.899q.326.574.326 1.316m-3.047.989q.551 0 .82-.258.27-.259.27-.731 0-.473-.27-.731-.269-.258-.82-.259h-1.045v1.979zm5.971-.865q.337-.518.843-.81a2.15 2.15 0 0 1 1.124-.304v2.035h-.528q-.72 0-1.08.315-.36.304-.359 1.08v2.912h-1.923v-6.274h1.923zm5.742 5.318a3.5 3.5 0 0 1-1.664-.394 2.93 2.93 0 0 1-1.158-1.124q-.417-.73-.416-1.709 0-.968.427-1.698a2.9 2.9 0 0 1 1.169-1.136 3.5 3.5 0 0 1 1.664-.393q.923 0 1.664.393.743.394 1.17 1.136.427.73.427 1.698 0 .966-.439 1.709a2.9 2.9 0 0 1-1.18 1.124 3.5 3.5 0 0 1-1.664.394m0-1.664q.55 0 .933-.405.393-.405.394-1.158 0-.753-.383-1.158a1.2 1.2 0 0 0-.922-.405q-.561 0-.933.405-.37.393-.371 1.158 0 .753.36 1.158a1.2 1.2 0 0 0 .922.405m7.451-3.104H115.2v4.678h-1.923v-4.678h-.697v-1.596h.697v-.18q0-1.158.663-1.754.664-.607 1.946-.607.213 0 .314.011v1.63q-.551-.034-.775.158-.225.19-.225.686v.056h1.034zm1.87-2.248q-.505 0-.832-.293a1 1 0 0 1-.314-.742q0-.449.314-.742.327-.303.832-.303.495 0 .81.303a.96.96 0 0 1 .326.742q0 .44-.326.742-.315.293-.81.293m.956.652v6.274h-1.923v-6.274zm3.316-2.046v8.32h-1.923v-8.32zm7.307 5.082q0 .27-.033.562h-4.352q.045.584.371.899.338.304.821.304.72 0 1.001-.607h2.046a2.8 2.8 0 0 1-.573 1.113q-.405.495-1.023.776a3.3 3.3 0 0 1-1.383.281q-.922 0-1.642-.394a2.8 2.8 0 0 1-1.124-1.124q-.405-.73-.405-1.709 0-.978.394-1.709a2.8 2.8 0 0 1 1.124-1.125q.72-.393 1.653-.393.91 0 1.619.382.708.383 1.101 1.091.405.708.405 1.653m-1.967-.506q0-.495-.338-.787-.337-.293-.843-.293-.483 0-.821.281-.326.282-.404.799z"/><path fill="#69a372" d="M68.662 198.558v4.658q0 1.081-.614 1.666-.604.585-1.637.585-1.08 0-1.734-.614t-.653-1.744h1.656q0 .428.176.652.176.215.507.215.301 0 .467-.195t.166-.565v-4.658zm1.015 4.112q0-.838.312-1.471.321-.634.867-.975t1.218-.341q.575 0 1.004.234.438.234.672.614v-.77h1.666v5.437H73.75v-.769q-.244.38-.682.614-.428.233-1.004.233-.662 0-1.208-.341a2.47 2.47 0 0 1-.867-.984q-.312-.643-.312-1.481m4.073.01q0-.624-.35-.984a1.1 1.1 0 0 0-.839-.361q-.497 0-.848.361-.34.35-.34.974t.34.994q.351.36.848.361.496 0 .838-.361.35-.36.35-.984m6.185-2.777q.954 0 1.52.623.575.615.575 1.696v3.176h-1.657v-2.952q0-.545-.282-.848-.283-.302-.76-.302t-.76.302-.283.848v2.952h-1.666v-5.437h1.666v.721q.253-.36.682-.565.428-.214.965-.214m4.976-.069v-1.549h2.7v7.113h-1.735v-5.564zm8.848-.097h-3.04v1.345q.195-.214.545-.351t.76-.136q.731 0 1.209.331.488.332.711.857.225.526.224 1.14 0 1.14-.643 1.813-.644.662-1.812.662-.78 0-1.355-.263a2.1 2.1 0 0 1-.887-.75 2.16 2.16 0 0 1-.34-1.101h1.627q.059.301.282.507.225.195.614.195.458 0 .682-.293t.224-.779q0-.478-.234-.731-.233-.253-.682-.253a.87.87 0 0 0-.545.165.73.73 0 0 0-.283.419h-1.608v-4.239h4.55zm3.287 4.122-1.081 2.796h-1.062l.565-2.796zm2.846.204q.332-.262.302-.243a36 36 0 0 0 1.501-1.296 6 6 0 0 0 .935-1.062q.38-.555.38-1.082 0-.4-.185-.623-.185-.225-.555-.225a.7.7 0 0 0-.585.283q-.204.273-.205.78h-1.608q.02-.83.351-1.384.341-.555.887-.819.556-.263 1.228-.263 1.16 0 1.744.595.594.594.594 1.549 0 1.042-.711 1.939-.711.886-1.812 1.735h2.631v1.354h-4.892zm5.625-2.319q0-1.675.643-2.64.654-.965 2.095-.965 1.443 0 2.086.965.652.964.652 2.64 0 1.696-.652 2.661-.643.964-2.086.964-1.441 0-2.095-.964-.642-.965-.643-2.661m3.839 0q0-.984-.214-1.51-.214-.536-.887-.536-.672 0-.886.536-.215.526-.215 1.51 0 .663.078 1.101.078.429.312.702.244.263.711.263.468 0 .702-.263.244-.273.321-.702.078-.438.078-1.101m2.459 2.319q.332-.262.302-.243a36 36 0 0 0 1.501-1.296 6 6 0 0 0 .935-1.062q.38-.555.38-1.082 0-.4-.185-.623-.184-.225-.555-.225a.7.7 0 0 0-.585.283q-.204.273-.204.78h-1.608q.02-.83.351-1.384a2.1 2.1 0 0 1 .886-.819q.556-.263 1.228-.263 1.16 0 1.744.595.595.594.595 1.549 0 1.042-.712 1.939-.711.886-1.812 1.735h2.631v1.354h-4.892zm9.143-3.858q-.078-.361-.273-.536-.195-.186-.555-.185-.555 0-.799.487-.243.477-.253 1.52.213-.34.613-.536a2.06 2.06 0 0 1 .897-.195q.955 0 1.53.604.585.605.584 1.686 0 .711-.292 1.247a2 2 0 0 1-.838.838q-.546.302-1.296.302-1.5 0-2.085-.935-.585-.945-.585-2.709 0-1.851.614-2.748.624-.906 1.988-.906.73 0 1.228.292.506.283.76.751.262.467.312 1.023zm-.77 1.871a1 1 0 0 0-.701.253q-.273.243-.273.702 0 .467.253.73.264.264.741.264.429 0 .672-.254.254-.262.254-.711 0-.458-.244-.721-.243-.264-.702-.263"/><g filter="url(#filter4_dd_334_193)"><mask id="path-17-inside-2_334_193" fill="#fff"><path d="M177.024 185.654a8.28 8.28 0 0 1 8.279-8.279h38.844a8.279 8.279 0 1 1 0 16.558h-38.844a8.28 8.28 0 0 1-8.279-8.279"/></mask><path fill="#e2eed2" d="M177.024 185.654a8.28 8.28 0 0 1 8.279-8.279h38.844a8.279 8.279 0 1 1 0 16.558h-38.844a8.28 8.28 0 0 1-8.279-8.279" shape-rendering="crispEdges"/><path fill="#fff" d="M185.303 177.375v.602h38.844v-1.204h-38.844zm38.844 16.558v-.602h-38.844v1.204h38.844zm-38.844 0v-.602a7.677 7.677 0 0 1-7.677-7.677h-1.204a8.88 8.88 0 0 0 8.881 8.881zm47.123-8.279h-.602a7.677 7.677 0 0 1-7.677 7.677v1.204a8.88 8.88 0 0 0 8.881-8.881zm-8.279-8.279v.602a7.677 7.677 0 0 1 7.677 7.677h1.204a8.88 8.88 0 0 0-8.881-8.881zm-38.844 0v-.602a8.88 8.88 0 0 0-8.881 8.881h1.204a7.677 7.677 0 0 1 7.677-7.677z" mask="url(#path-17-inside-2_334_193)"/><path fill="#69a372" d="M187.49 185.639a.88.88 0 0 1 .531.331.9.9 0 0 1 .201.585q0 .477-.336.758-.33.277-.927.277h-1.772v-3.804h1.713q.58 0 .905.265.33.266.33.721 0 .336-.179.558a.9.9 0 0 1-.466.309m-1.376-.314h.607q.227 0 .347-.098.124-.102.124-.298 0-.195-.124-.298-.12-.103-.347-.103h-.607zm.683 1.517q.232 0 .357-.103.13-.108.13-.309a.39.39 0 0 0-.135-.314.53.53 0 0 0-.363-.114h-.672v.84zm3.16.033h1.214v.715h-2.141v-3.804h.927zm3.726.753q-.537 0-.987-.249a1.9 1.9 0 0 1-.709-.694 1.97 1.97 0 0 1-.261-1.008q0-.558.261-1.003.265-.444.709-.693.45-.249.987-.249t.98.249q.45.249.705.693.26.445.26 1.003t-.26 1.008a1.86 1.86 0 0 1-.705.694 1.97 1.97 0 0 1-.98.249m0-.846q.454 0 .726-.303.276-.304.276-.802 0-.504-.276-.802-.272-.303-.726-.303-.46 0-.737.298-.271.297-.271.807 0 .504.271.807.276.298.737.298m4.531.846q-.537 0-.987-.249a1.9 1.9 0 0 1-.71-.694q-.26-.45-.26-1.008t.26-1.003q.266-.444.71-.693.45-.249.987-.249t.98.249q.45.249.705.693.26.445.26 1.003t-.26 1.008a1.86 1.86 0 0 1-.705.694 1.97 1.97 0 0 1-.98.249m0-.846q.454 0 .726-.303.276-.304.276-.802 0-.504-.276-.802-.272-.303-.726-.303-.462 0-.737.298-.271.297-.271.807 0 .504.271.807.275.298.737.298m4.157-2.996q.601 0 1.051.238t.693.672q.25.429.25.992 0 .558-.25.991a1.67 1.67 0 0 1-.699.672 2.2 2.2 0 0 1-1.045.239h-1.426v-3.804zm-.06 3.002q.525 0 .818-.287.293-.288.293-.813 0-.526-.293-.818-.293-.293-.818-.293h-.439v2.211zm9.496-3.002-.991 3.804h-1.122l-.607-2.504-.629 2.504h-1.121l-.965-3.804h.992l.547 2.769.678-2.769h1.018l.651 2.769.552-2.769zm2.535 3.842a2 2 0 0 1-.986-.249 1.9 1.9 0 0 1-.71-.694q-.26-.45-.26-1.008t.26-1.003q.266-.444.71-.693a2 2 0 0 1 .986-.249q.537 0 .981.249.45.249.704.693.26.445.26 1.003t-.26 1.008a1.86 1.86 0 0 1-.704.694 2 2 0 0 1-.981.249m0-.846q.455 0 .726-.303.276-.304.277-.802 0-.504-.277-.802-.27-.303-.726-.303-.46 0-.737.298-.271.297-.271.807 0 .504.271.807.276.298.737.298m4.672.808-.791-1.436H218v1.436h-.926v-3.804h1.555q.45 0 .764.157.32.157.477.433.157.271.157.607 0 .38-.217.678-.211.297-.628.422l.878 1.507zM218 185.498h.575q.255 0 .379-.124a.47.47 0 0 0 .13-.353.45.45 0 0 0-.13-.341q-.124-.125-.379-.125H218zm5.085 2.092-1.279-1.68v1.68h-.926v-3.804h.926v1.669l1.268-1.669h1.09l-1.474 1.864 1.528 1.94z"/></g><path fill="#69a372" d="m210.162 202.725-1.499 4.227h-1.288l-1.5-4.227h1.096l1.048 3.192 1.054-3.192zm1.761 0v4.227h-1.029v-4.227zm2.077.825v.855h1.379v.795H214v.927h1.559v.825h-2.589v-4.227h2.589v.825zm8.345-.825-1.102 4.227h-1.246l-.674-2.782-.699 2.782h-1.246l-1.072-4.227h1.102l.608 3.077.753-3.077h1.132l.722 3.077.614-3.077z"/><path stroke="#69a372" stroke-linecap="round" stroke-linejoin="round" stroke-width=".753" d="m227.91 206.276 1.806-1.807-1.806-1.806"/><g filter="url(#filter5_dd_334_193)"><mask id="path-22-inside-3_334_193" fill="#fff"><path d="M21.93 272.789c0-8.271 6.704-14.976 14.975-14.976 8.27 0 14.975 6.705 14.975 14.976 0 8.27-6.705 14.975-14.975 14.975s-14.975-6.705-14.975-14.975"/></mask><path fill="#fff" fill-opacity=".8" d="M21.93 272.789c0-8.271 6.704-14.976 14.975-14.976 8.27 0 14.975 6.705 14.975 14.976 0 8.27-6.705 14.975-14.975 14.975s-14.975-6.705-14.975-14.975" shape-rendering="crispEdges"/><path fill="#fff" d="M36.905 287.764v-.713c-7.877 0-14.262-6.386-14.262-14.262h-1.426c0 8.664 7.024 15.688 15.688 15.688zm14.975-14.975h-.713c0 7.876-6.385 14.262-14.262 14.262v1.426c8.664 0 15.688-7.024 15.688-15.688zm-14.975-14.976v.714c7.877 0 14.262 6.385 14.262 14.262h1.426c0-8.665-7.024-15.689-15.688-15.689zm0 0v-.713c-8.664 0-15.688 7.024-15.688 15.689h1.426c0-7.877 6.385-14.262 14.262-14.262z" mask="url(#path-22-inside-3_334_193)"/><g stroke="#7db467" stroke-linecap="round" stroke-linejoin="round" stroke-width="1.07" clip-path="url(#clip0_334_193)"><path d="M38.511 267.443h-4.813a1.07 1.07 0 0 0-1.07 1.07v8.557a1.07 1.07 0 0 0 1.07 1.07h6.418a1.07 1.07 0 0 0 1.07-1.07v-6.953z"/><path d="M37.975 267.443v2.14a1.07 1.07 0 0 0 1.07 1.069h2.139m-5.349.536h-1.07m4.279 2.137h-4.279m4.279 2.14h-4.279"/></g></g><path fill="#fff" d="M68.938 262.591a1.34 1.34 0 0 0-.589-.567 1.84 1.84 0 0 0-.888-.203q-.887 0-1.422.588-.535.578-.535 1.551 0 1.038.556 1.626.567.578 1.551.578.674 0 1.134-.342.471-.344.684-.984h-2.32v-1.348h3.979v1.701q-.204.684-.696 1.272-.48.59-1.23.952-.749.364-1.69.364-1.113 0-1.99-.481a3.55 3.55 0 0 1-1.358-1.359q-.48-.866-.481-1.979 0-1.112.481-1.978a3.46 3.46 0 0 1 1.359-1.359q.866-.492 1.978-.492 1.349 0 2.268.653.93.652 1.23 1.807zm8.789 2.054q0 .256-.032.535h-4.14q.043.556.353.856.321.288.781.288.685 0 .952-.577h1.947q-.15.588-.546 1.059a2.7 2.7 0 0 1-.973.738q-.588.267-1.316.267-.876 0-1.561-.374a2.66 2.66 0 0 1-1.07-1.07q-.385-.695-.385-1.626t.374-1.626a2.66 2.66 0 0 1 1.07-1.069q.684-.375 1.572-.375.867 0 1.54.364.675.364 1.049 1.038.385.673.385 1.572m-1.872-.481q0-.471-.32-.749-.322-.278-.803-.278a1.18 1.18 0 0 0-.78.267q-.311.268-.386.76zm6.474-2.471q1.048 0 1.668.684.632.675.632 1.862v3.487H82.81v-3.241q0-.6-.31-.931t-.834-.332-.835.332q-.31.331-.31.931v3.241h-1.83v-5.969h1.83v.791q.278-.395.749-.62a2.3 2.3 0 0 1 1.059-.235m9.197 2.952q0 .256-.032.535h-4.14q.043.556.353.856.322.288.781.288.685 0 .952-.577h1.947q-.15.588-.546 1.059a2.7 2.7 0 0 1-.973.738q-.588.267-1.316.267-.877 0-1.561-.374a2.66 2.66 0 0 1-1.07-1.07q-.385-.695-.385-1.626t.374-1.626a2.66 2.66 0 0 1 1.07-1.069q.684-.375 1.572-.375.867 0 1.54.364.675.364 1.049 1.038.385.673.385 1.572m-1.872-.481q0-.471-.32-.749-.322-.278-.803-.278a1.18 1.18 0 0 0-.781.267q-.31.268-.385.76zm4.666-1.412q.32-.492.802-.77.482-.29 1.07-.289v1.936h-.503q-.684 0-1.027.299-.342.29-.342 1.027v2.771h-1.83v-5.969h1.83zm2.382 1.979q0-.92.343-1.616.352-.695.952-1.069.599-.375 1.337-.375.63 0 1.101.257.481.257.739.674v-.845h1.829v5.969h-1.829v-.845a1.97 1.97 0 0 1-.749.673q-.47.258-1.102.257-.727 0-1.326-.374a2.7 2.7 0 0 1-.952-1.081q-.343-.705-.343-1.625m4.472.01q0-.684-.386-1.08a1.22 1.22 0 0 0-.92-.396 1.25 1.25 0 0 0-.93.396q-.374.385-.374 1.07 0 .684.374 1.091.386.395.93.395.546 0 .92-.395.386-.396.386-1.081m4.981-4.931v7.916h-1.829v-7.916zm3.282 4.15q0-1.112.481-1.978a3.4 3.4 0 0 1 1.337-1.359q.867-.492 1.958-.492 1.337 0 2.289.706t1.273 1.925h-2.011a1.6 1.6 0 0 0-.642-.716 1.76 1.76 0 0 0-.93-.246q-.846 0-1.37.588t-.524 1.572.524 1.573 1.37.588q.523 0 .93-.246.417-.246.642-.717h2.011q-.32 1.22-1.273 1.926-.953.695-2.289.695-1.09 0-1.958-.481a3.5 3.5 0 0 1-1.337-1.359q-.48-.866-.481-1.979m12.127-2.267q1.027 0 1.647.684.621.675.621 1.862v3.487h-1.819v-3.241q0-.6-.31-.931t-.834-.332q-.525 0-.835.332-.31.331-.31.931v3.241h-1.829v-7.916h1.829v2.749a1.96 1.96 0 0 1 .76-.631q.48-.235 1.08-.235m9.165 2.952q0 .256-.032.535h-4.14q.044.556.353.856.321.288.781.288.685 0 .952-.577h1.947q-.15.588-.546 1.059a2.7 2.7 0 0 1-.973.738 3.15 3.15 0 0 1-1.316.267q-.876 0-1.561-.374a2.66 2.66 0 0 1-1.07-1.07q-.385-.695-.385-1.626t.374-1.626q.386-.695 1.07-1.069.684-.375 1.572-.375.867 0 1.541.364a2.6 2.6 0 0 1 1.048 1.038q.385.673.385 1.572m-1.872-.481q0-.471-.321-.749-.32-.278-.802-.278a1.18 1.18 0 0 0-.781.267q-.31.268-.385.76zm2.473.577q0-.93.375-1.626a2.67 2.67 0 0 1 1.059-1.069q.684-.375 1.561-.375 1.123 0 1.872.589.76.588.995 1.658h-1.947q-.246-.685-.952-.685a.96.96 0 0 0-.802.396q-.3.385-.3 1.112t.3 1.123q.3.385.802.385.706 0 .952-.684h1.947q-.236 1.049-.995 1.647t-1.872.599q-.877 0-1.561-.374a2.67 2.67 0 0 1-1.059-1.07q-.375-.695-.375-1.626m10.488 2.985-1.819-2.503v2.503h-1.829v-7.916h1.829v4.375l1.808-2.428h2.257l-2.482 2.995 2.503 2.974zm8.858-5.969v5.969h-1.829v-.813a2.04 2.04 0 0 1-.759.641 2.3 2.3 0 0 1-1.049.236q-.684 0-1.208-.3a2.1 2.1 0 0 1-.813-.888q-.29-.577-.289-1.358v-3.487h1.818v3.241q0 .599.311.931.31.331.834.331.534 0 .845-.331.31-.332.31-.931v-3.241zm3.143.845q.267-.417.738-.674a2.3 2.3 0 0 1 1.102-.257q.738 0 1.337.375.599.374.941 1.069.353.696.353 1.616t-.353 1.625a2.63 2.63 0 0 1-.941 1.081 2.5 2.5 0 0 1-1.337.374q-.62 0-1.102-.257a2 2 0 0 1-.738-.663v3.68h-1.829v-8.814h1.829zm2.61 2.129q0-.685-.385-1.07a1.23 1.23 0 0 0-.931-.396 1.25 1.25 0 0 0-.93.396q-.375.396-.375 1.08 0 .685.375 1.081.386.395.93.395.546 0 .931-.395.385-.407.385-1.091"/><path fill="#7db467" d="M67.915 282.798h-2.428l-.39 1.149h-1.66l2.356-6.507h1.835l2.355 6.507h-1.678zm-.408-1.224-.806-2.382-.797 2.382zm8.3-2.8v5.173h-1.585v-.704q-.24.343-.658.556a2 2 0 0 1-.909.204q-.593 0-1.047-.26a1.8 1.8 0 0 1-.705-.769q-.25-.5-.25-1.177v-3.023h1.576v2.809q0 .519.269.807.269.287.723.287.463 0 .732-.287.27-.288.27-.807v-2.809zm3.104-.074q.547 0 .955.223.417.222.64.584v-.733h1.585v5.164q0 .713-.287 1.289a2.1 2.1 0 0 1-.863.927q-.574.342-1.437.343-1.149 0-1.863-.547-.714-.538-.816-1.465h1.567q.075.297.352.463.279.177.686.177.491 0 .78-.288.296-.278.296-.899v-.732a1.8 1.8 0 0 1-.64.593q-.408.222-.955.222-.639 0-1.159-.324a2.35 2.35 0 0 1-.825-.936q-.296-.612-.296-1.409 0-.798.296-1.4.307-.603.825-.927a2.14 2.14 0 0 1 1.16-.325m1.595 2.661q0-.594-.334-.936a1.05 1.05 0 0 0-.797-.343q-.473 0-.807.343-.324.333-.324.927 0 .592.324.945.335.343.807.343t.797-.343q.333-.344.334-.936m9.304-2.8h-2.893v1.28q.186-.205.52-.334.333-.13.722-.13.696 0 1.15.315.464.315.677.816t.213 1.085q0 1.084-.612 1.724-.612.63-1.724.63-.742 0-1.289-.25a2 2 0 0 1-.843-.714 2.06 2.06 0 0 1-.325-1.047h1.548a.86.86 0 0 0 .27.482q.212.185.583.185.435 0 .65-.278.212-.278.212-.742 0-.453-.222-.695t-.649-.241a.83.83 0 0 0-.52.158.7.7 0 0 0-.268.398h-1.53v-4.032h4.33zm3.127 3.922-1.029 2.66h-1.01l.538-2.66zm2.707.194q.315-.25.288-.232a34 34 0 0 0 1.427-1.232q.53-.483.89-1.011.362-.528.362-1.029 0-.38-.176-.593-.177-.213-.529-.213a.66.66 0 0 0-.556.268q-.195.26-.194.742h-1.53q.018-.788.334-1.316.324-.529.843-.779.53-.25 1.168-.25 1.104 0 1.66.565.565.565.565 1.474 0 .992-.677 1.845-.676.843-1.724 1.65h2.503v1.289h-4.654zm5.352-2.206q0-1.595.612-2.512.62-.918 1.993-.918 1.372 0 1.984.918.621.917.621 2.512 0 1.613-.621 2.531-.612.918-1.984.917-1.372 0-1.993-.917-.612-.918-.612-2.531m3.653 0q0-.936-.204-1.437-.204-.51-.844-.51t-.844.51q-.203.501-.203 1.437 0 .63.074 1.047.074.408.296.668.232.25.677.25t.668-.25q.231-.26.305-.668.075-.417.075-1.047m2.339 2.206q.315-.25.287-.232.909-.75 1.428-1.232.528-.483.89-1.011.361-.528.361-1.029 0-.38-.176-.593t-.528-.213a.66.66 0 0 0-.556.268q-.195.26-.195.742h-1.53q.02-.788.334-1.316.325-.529.844-.779.528-.25 1.168-.25 1.102 0 1.659.565.566.565.566 1.474 0 .992-.677 1.845-.677.843-1.724 1.65h2.503v1.289h-4.654zm10.116-4.116h-2.892v1.28q.186-.205.519-.334.334-.13.723-.13.696 0 1.15.315.463.315.677.816.213.5.213 1.085 0 1.084-.612 1.724-.612.63-1.724.63-.742 0-1.289-.25a2 2 0 0 1-.843-.714 2.06 2.06 0 0 1-.325-1.047h1.548a.86.86 0 0 0 .269.482q.213.185.584.185.436 0 .649-.278t.213-.742q0-.453-.222-.695-.223-.241-.649-.241a.83.83 0 0 0-.519.158.7.7 0 0 0-.269.398h-1.53v-4.032h4.329z"/><g filter="url(#filter6_dd_334_193)"><mask id="path-31-inside-4_334_193" fill="#fff"><path d="M177.6 264.334a9.3 9.3 0 0 1 9.3-9.301h27.437a9.3 9.3 0 0 1 0 18.601H186.9a9.3 9.3 0 0 1-9.3-9.3"/></mask><path fill="#fff" fill-opacity=".95" d="M177.6 264.334a9.3 9.3 0 0 1 9.3-9.301h27.437a9.3 9.3 0 0 1 0 18.601H186.9a9.3 9.3 0 0 1-9.3-9.3" shape-rendering="crispEdges"/><path fill="#fff" d="M186.9 255.033v.677h27.437v-1.353H186.9zm27.437 18.601v-.676H186.9v1.353h27.437zm-27.437 0v-.676a8.624 8.624 0 0 1-8.624-8.624h-1.352c0 5.51 4.466 9.977 9.976 9.977zm36.737-9.3h-.676a8.624 8.624 0 0 1-8.624 8.624v1.353c5.51 0 9.977-4.467 9.977-9.977zm-9.3-9.301v.677a8.624 8.624 0 0 1 8.624 8.624h1.353c0-5.51-4.467-9.977-9.977-9.977zm-27.437 0v-.676c-5.51 0-9.976 4.467-9.976 9.977h1.352a8.624 8.624 0 0 1 8.624-8.624z" mask="url(#path-31-inside-4_334_193)"/><path fill="#7db467" d="m188.95 266.768-.889-1.614h-.249v1.614h-1.041v-4.274h1.747q.505 0 .858.177.359.176.536.487.176.305.176.681 0 .427-.243.761-.238.336-.706.475l.986 1.693zm-1.138-2.35h.645q.286 0 .426-.14.146-.14.146-.396a.5.5 0 0 0-.146-.383q-.14-.14-.426-.14h-.645zm5.255 2.392q-.603 0-1.108-.28a2.1 2.1 0 0 1-.797-.779 2.2 2.2 0 0 1-.292-1.132q0-.627.292-1.127.298-.498.797-.779.505-.28 1.108-.28t1.102.28q.506.28.791.779.293.5.293 1.127t-.293 1.132a2.1 2.1 0 0 1-.791.779q-.5.28-1.102.28m0-.949q.511 0 .816-.341.31-.342.31-.901 0-.567-.31-.901-.305-.341-.816-.341-.518 0-.828.335-.304.334-.304.907 0 .565.304.907.31.335.828.335m4.092-3.367v2.557q0 .383.189.59.188.207.554.207.365 0 .56-.207.195-.206.194-.59v-2.557h1.041v2.551q0 .572-.243.968a1.55 1.55 0 0 1-.658.596 2 2 0 0 1-.913.201 2.05 2.05 0 0 1-.907-.195 1.5 1.5 0 0 1-.627-.596q-.231-.402-.231-.974v-2.551zm6.648 0v.834h-1.132v3.44h-1.041v-3.44h-1.133v-.834zm1.868 0v4.274h-1.041v-4.274zm4.882 4.274h-1.041l-1.741-2.636v2.636h-1.041v-4.274h1.041l1.741 2.648v-2.648h1.041zm2.1-3.44v.865h1.394v.803h-1.394v.938h1.576v.834h-2.617v-4.274h2.617v.834z"/></g><path fill="#a9c191" d="m198.626 282.651-1.685 4.748h-1.447l-1.684-4.748h1.231l1.177 3.585 1.183-3.585zm1.978 0v4.748h-1.157v-4.748zm2.333.927v.96h1.549v.893h-1.549v1.042h1.752v.926h-2.909v-4.748h2.909v.927zm9.375-.927-1.238 4.748h-1.4l-.758-3.125-.784 3.125h-1.4l-1.204-4.748h1.237l.684 3.456.845-3.456h1.272l.811 3.456.69-3.456z"/><path stroke="#a9c191" stroke-linecap="round" stroke-linejoin="round" stroke-width=".846" d="m218.565 287.502 2.029-2.029-2.029-2.03"/><defs><filter id="filter1_dd_334_193" width="31.834" height="31.835" x="15.952" y="98.974" color-interpolation-filters="sRGB" filterUnits="userSpaceOnUse"><feFlood flood-opacity="0" result="BackgroundImageFix"/><feColorMatrix in="SourceAlpha" result="hardAlpha" values="0 0 0 0 0 0 0 0 0 0 0 0 0 0 0 0 0 0 127 0"/><feMorphology in="SourceAlpha" radius=".663" result="effect1_dropShadow_334_193"/><feOffset dy=".663"/><feGaussianBlur stdDeviation=".663"/><feComposite in2="hardAlpha" operator="out"/><feColorMatrix values="0 0 0 0 0 0 0 0 0 0 0 0 0 0 0 0 0 0 0.1 0"/><feBlend in2="BackgroundImageFix" result="effect1_dropShadow_334_193"/><feColorMatrix in="SourceAlpha" result="hardAlpha" values="0 0 0 0 0 0 0 0 0 0 0 0 0 0 0 0 0 0 127 0"/><feOffset dy=".663"/><feGaussianBlur stdDeviation=".995"/><feComposite in2="hardAlpha" operator="out"/><feColorMatrix values="0 0 0 0 0 0 0 0 0 0 0 0 0 0 0 0 0 0 0.1 0"/><feBlend in2="effect1_dropShadow_334_193" result="effect2_dropShadow_334_193"/><feBlend in="SourceGraphic" in2="effect2_dropShadow_334_193" result="shape"/></filter><filter id="filter2_dd_334_193" width="65.005" height="22.218" x="172.615" y="92.674" color-interpolation-filters="sRGB" filterUnits="userSpaceOnUse"><feFlood flood-opacity="0" result="BackgroundImageFix"/><feColorMatrix in="SourceAlpha" result="hardAlpha" values="0 0 0 0 0 0 0 0 0 0 0 0 0 0 0 0 0 0 127 0"/><feMorphology in="SourceAlpha" radius=".663" result="effect1_dropShadow_334_193"/><feOffset dy=".663"/><feGaussianBlur stdDeviation=".663"/><feComposite in2="hardAlpha" operator="out"/><feColorMatrix values="0 0 0 0 0 0 0 0 0 0 0 0 0 0 0 0 0 0 0.1 0"/><feBlend in2="BackgroundImageFix" result="effect1_dropShadow_334_193"/><feColorMatrix in="SourceAlpha" result="hardAlpha" values="0 0 0 0 0 0 0 0 0 0 0 0 0 0 0 0 0 0 127 0"/><feOffset dy=".663"/><feGaussianBlur stdDeviation=".995"/><feComposite in2="hardAlpha" operator="out"/><feColorMatrix values="0 0 0 0 0 0 0 0 0 0 0 0 0 0 0 0 0 0 0.1 0"/><feBlend in2="effect1_dropShadow_334_193" result="effect2_dropShadow_334_193"/><feBlend in="SourceGraphic" in2="effect2_dropShadow_334_193" result="shape"/></filter><filter id="filter3_dd_334_193" width="35.979" height="35.979" x="18.048" y="175.94" color-interpolation-filters="sRGB" filterUnits="userSpaceOnUse"><feFlood flood-opacity="0" result="BackgroundImageFix"/><feColorMatrix in="SourceAlpha" result="hardAlpha" values="0 0 0 0 0 0 0 0 0 0 0 0 0 0 0 0 0 0 127 0"/><feMorphology in="SourceAlpha" radius=".75" result="effect1_dropShadow_334_193"/><feOffset dy=".75"/><feGaussianBlur stdDeviation=".75"/><feComposite in2="hardAlpha" operator="out"/><feColorMatrix values="0 0 0 0 0 0 0 0 0 0 0 0 0 0 0 0 0 0 0.1 0"/><feBlend in2="BackgroundImageFix" result="effect1_dropShadow_334_193"/><feColorMatrix in="SourceAlpha" result="hardAlpha" values="0 0 0 0 0 0 0 0 0 0 0 0 0 0 0 0 0 0 127 0"/><feOffset dy=".75"/><feGaussianBlur stdDeviation="1.124"/><feComposite in2="hardAlpha" operator="out"/><feColorMatrix values="0 0 0 0 0 0 0 0 0 0 0 0 0 0 0 0 0 0 0.1 0"/><feBlend in2="effect1_dropShadow_334_193" result="effect2_dropShadow_334_193"/><feBlend in="SourceGraphic" in2="effect2_dropShadow_334_193" result="shape"/></filter><filter id="filter4_dd_334_193" width="59.015" height="20.17" x="175.218" y="176.171" color-interpolation-filters="sRGB" filterUnits="userSpaceOnUse"><feFlood flood-opacity="0" result="BackgroundImageFix"/><feColorMatrix in="SourceAlpha" result="hardAlpha" values="0 0 0 0 0 0 0 0 0 0 0 0 0 0 0 0 0 0 127 0"/><feMorphology in="SourceAlpha" radius=".602" result="effect1_dropShadow_334_193"/><feOffset dy=".602"/><feGaussianBlur stdDeviation=".602"/><feComposite in2="hardAlpha" operator="out"/><feColorMatrix values="0 0 0 0 0 0 0 0 0 0 0 0 0 0 0 0 0 0 0.1 0"/><feBlend in2="BackgroundImageFix" result="effect1_dropShadow_334_193"/><feColorMatrix in="SourceAlpha" result="hardAlpha" values="0 0 0 0 0 0 0 0 0 0 0 0 0 0 0 0 0 0 127 0"/><feOffset dy=".602"/><feGaussianBlur stdDeviation=".903"/><feComposite in2="hardAlpha" operator="out"/><feColorMatrix values="0 0 0 0 0 0 0 0 0 0 0 0 0 0 0 0 0 0 0.1 0"/><feBlend in2="effect1_dropShadow_334_193" result="effect2_dropShadow_334_193"/><feBlend in="SourceGraphic" in2="effect2_dropShadow_334_193" result="shape"/></filter><filter id="filter5_dd_334_193" width="34.229" height="34.229" x="19.791" y="256.387" color-interpolation-filters="sRGB" filterUnits="userSpaceOnUse"><feFlood flood-opacity="0" result="BackgroundImageFix"/><feColorMatrix in="SourceAlpha" result="hardAlpha" values="0 0 0 0 0 0 0 0 0 0 0 0 0 0 0 0 0 0 127 0"/><feMorphology in="SourceAlpha" radius=".713" result="effect1_dropShadow_334_193"/><feOffset dy=".713"/><feGaussianBlur stdDeviation=".713"/><feComposite in2="hardAlpha" operator="out"/><feColorMatrix values="0 0 0 0 0 0 0 0 0 0 0 0 0 0 0 0 0 0 0.1 0"/><feBlend in2="BackgroundImageFix" result="effect1_dropShadow_334_193"/><feColorMatrix in="SourceAlpha" result="hardAlpha" values="0 0 0 0 0 0 0 0 0 0 0 0 0 0 0 0 0 0 127 0"/><feOffset dy=".713"/><feGaussianBlur stdDeviation="1.07"/><feComposite in2="hardAlpha" operator="out"/><feColorMatrix values="0 0 0 0 0 0 0 0 0 0 0 0 0 0 0 0 0 0 0.1 0"/><feBlend in2="effect1_dropShadow_334_193" result="effect2_dropShadow_334_193"/><feBlend in="SourceGraphic" in2="effect2_dropShadow_334_193" result="shape"/></filter><filter id="filter6_dd_334_193" width="50.096" height="22.659" x="175.571" y="253.68" color-interpolation-filters="sRGB" filterUnits="userSpaceOnUse"><feFlood flood-opacity="0" result="BackgroundImageFix"/><feColorMatrix in="SourceAlpha" result="hardAlpha" values="0 0 0 0 0 0 0 0 0 0 0 0 0 0 0 0 0 0 127 0"/><feMorphology in="SourceAlpha" radius=".676" result="effect1_dropShadow_334_193"/><feOffset dy=".676"/><feGaussianBlur stdDeviation=".676"/><feComposite in2="hardAlpha" operator="out"/><feColorMatrix values="0 0 0 0 0 0 0 0 0 0 0 0 0 0 0 0 0 0 0.1 0"/><feBlend in2="BackgroundImageFix" result="effect1_dropShadow_334_193"/><feColorMatrix in="SourceAlpha" result="hardAlpha" values="0 0 0 0 0 0 0 0 0 0 0 0 0 0 0 0 0 0 127 0"/><feOffset dy=".676"/><feGaussianBlur stdDeviation="1.015"/><feComposite in2="hardAlpha" operator="out"/><feColorMatrix values="0 0 0 0 0 0 0 0 0 0 0 0 0 0 0 0 0 0 0.1 0"/><feBlend in2="effect1_dropShadow_334_193" result="effect2_dropShadow_334_193"/><feBlend in="SourceGraphic" in2="effect2_dropShadow_334_193" result="shape"/></filter><clipPath id="clip0_334_193"><path fill="#fff" d="M30.487 266.371h12.836v12.836H30.487z"/></clipPath></defs></svg>