<svg xmlns="http://www.w3.org/2000/svg" width="243" height="269" fill="none" viewBox="0 0 243 269"><path fill="#d9d9d9" fill-opacity=".2" d="M0 10C0 4.477 4.477 0 10 0h223c5.523 0 10 4.477 10 10v249c0 5.523-4.477 10-10 10H10c-5.523 0-10-4.477-10-10z"/><path fill="#f5f6f7" d="M23.225 25.678q1.54 0 2.702.602a4.24 4.24 0 0 1 1.806 1.722q.644 1.107.644 2.576t-.644 2.576a4.3 4.3 0 0 1-1.806 1.694q-1.163.602-2.702.602h-3.416v-9.772zm-.07 8.106q1.54 0 2.38-.84t.84-2.366-.84-2.38q-.84-.868-2.38-.868h-1.386v6.454zm6.95-7.014q-.517 0-.868-.322a1.12 1.12 0 0 1-.336-.826q0-.49.336-.812.35-.336.868-.336t.854.336q.35.323.35.812a1.1 1.1 0 0 1-.35.826q-.336.322-.854.322m.966.924v7.756h-1.96v-7.756zm.7 3.85q0-1.177.462-2.086.476-.91 1.274-1.4a3.43 3.43 0 0 1 1.806-.49q.868 0 1.512.35.659.35 1.05.882v-1.106h1.974v7.756h-1.974v-1.134q-.378.546-1.05.91-.657.35-1.526.35-.98 0-1.792-.504-.797-.504-1.274-1.414-.462-.923-.462-2.114m6.104.028q0-.714-.28-1.218a1.9 1.9 0 0 0-.756-.784 2 2 0 0 0-1.022-.28q-.546 0-1.008.266a2.04 2.04 0 0 0-.756.784q-.28.505-.28 1.204 0 .7.28 1.232.294.517.756.798.477.28 1.008.28.546 0 1.022-.266.477-.28.756-.784.28-.518.28-1.232m5.116-2.744a2.8 2.8 0 0 1 1.036-.91q.672-.35 1.526-.35a3.36 3.36 0 0 1 3.066 1.89q.476.897.476 2.086 0 1.19-.476 2.114a3.47 3.47 0 0 1-1.274 1.414 3.3 3.3 0 0 1-1.792.504q-.868 0-1.526-.336a3 3 0 0 1-1.036-.896v1.106h-1.96V25.09h1.96zm4.102 2.716q0-.7-.294-1.204a1.99 1.99 0 0 0-1.764-1.05q-.532 0-1.008.28a2.04 2.04 0 0 0-.756.784q-.28.519-.28 1.218 0 .7.28 1.218.294.518.756.798.476.267 1.008.266.546 0 1.008-.28.476-.28.756-.798.294-.518.294-1.232m9.904-.14q0 .42-.056.756h-5.67q.069.84.588 1.316t1.274.476q1.092 0 1.554-.938H56.8a3.57 3.57 0 0 1-1.288 1.848q-.952.714-2.338.714-1.12 0-2.016-.49a3.6 3.6 0 0 1-1.386-1.414q-.49-.909-.49-2.1 0-1.203.49-2.114a3.4 3.4 0 0 1 1.372-1.4q.882-.49 2.03-.49 1.106 0 1.974.476.881.476 1.358 1.358.49.868.49 2.002m-2.03-.56q-.015-.756-.546-1.204-.532-.462-1.302-.462-.728 0-1.232.448-.49.434-.602 1.218zm5.01-1.54v3.752q0 .393.182.574.195.168.644.168h.91v1.652H60.48q-2.478 0-2.478-2.408v-3.738h-.924v-1.61h.924v-1.918h1.974v1.918h1.736v1.61zm9.623 2.1q0 .42-.056.756h-5.67q.07.84.588 1.316t1.274.476q1.092 0 1.554-.938h2.114a3.57 3.57 0 0 1-1.288 1.848q-.952.714-2.338.714-1.12 0-2.016-.49a3.6 3.6 0 0 1-1.386-1.414q-.49-.909-.49-2.1 0-1.203.49-2.114a3.4 3.4 0 0 1 1.372-1.4q.882-.49 2.03-.49 1.105 0 1.974.476.882.476 1.358 1.358.49.868.49 2.002m-2.03-.56q-.014-.756-.546-1.204-.532-.462-1.302-.462-.728 0-1.232.448-.49.434-.602 1.218zm5.696 4.732q-.952 0-1.708-.336a3.1 3.1 0 0 1-1.204-.938A2.4 2.4 0 0 1 69.878 33h1.974q.056.448.434.742.392.294.966.294.56 0 .868-.224.322-.224.322-.574 0-.378-.392-.56-.378-.195-1.218-.42a11 11 0 0 1-1.428-.434 2.54 2.54 0 0 1-.952-.686q-.392-.462-.392-1.246 0-.644.364-1.176.378-.532 1.064-.84.7-.308 1.638-.308 1.386 0 2.212.7.826.686.91 1.862h-1.876a.98.98 0 0 0-.392-.728q-.336-.28-.91-.28-.531 0-.826.196a.63.63 0 0 0-.28.546q0 .392.392.602.393.195 1.218.406.84.21 1.386.434.546.225.938.7.405.462.42 1.232 0 .673-.378 1.204-.363.532-1.064.84-.686.294-1.61.294m8.492-1.68h3.22v1.554h-5.18v-9.772h1.96zm7.177 1.68q-1.12 0-2.016-.49a3.7 3.7 0 0 1-1.414-1.414q-.504-.909-.504-2.1 0-1.19.518-2.1a3.65 3.65 0 0 1 1.442-1.4 4.1 4.1 0 0 1 2.03-.504q1.12 0 2.03.504a3.55 3.55 0 0 1 1.428 1.4q.532.91.532 2.1t-.546 2.1a3.7 3.7 0 0 1-1.456 1.414q-.91.49-2.044.49m0-1.708q.532 0 .994-.252.476-.265.756-.784.28-.517.28-1.26 0-1.106-.588-1.694a1.88 1.88 0 0 0-1.414-.602q-.84 0-1.414.602-.56.588-.56 1.694 0 1.107.546 1.708.56.588 1.4.588m7.79-6.3q.868 0 1.525.35.658.336 1.036.882v-1.106h1.974v7.812q0 1.078-.434 1.918a3.17 3.17 0 0 1-1.302 1.344q-.867.504-2.1.504-1.651 0-2.716-.77-1.05-.77-1.19-2.1h1.946q.154.532.658.84.519.322 1.246.322.855 0 1.386-.518.532-.505.532-1.54v-1.204q-.378.546-1.05.91-.657.364-1.512.364-.98 0-1.792-.504a3.57 3.57 0 0 1-1.288-1.414q-.462-.923-.462-2.114 0-1.177.462-2.086.477-.91 1.274-1.4a3.43 3.43 0 0 1 1.806-.49m2.561 4.004q0-.714-.28-1.218a1.9 1.9 0 0 0-.756-.784 2 2 0 0 0-1.022-.28q-.546 0-1.008.266a2.04 2.04 0 0 0-.756.784q-.28.505-.28 1.204 0 .7.28 1.232.294.517.756.798.477.28 1.008.28.546 0 1.022-.266.477-.28.756-.784.28-.518.28-1.232"/><path fill="#949494" fill-opacity=".7" d="M16.29 76.504c0-5.671 4.597-10.269 10.268-10.269h77.529c5.671 0 10.269 4.598 10.269 10.27v19.51c0 5.671-4.598 10.269-10.269 10.269h-77.53c-5.67 0-10.268-4.598-10.268-10.27z"/><path fill="#e1e1e1" d="M27.57 80.281h-1.428l-.236.683h-.755l1.289-3.59h.836l1.29 3.59h-.76zm-.196-.575-.519-1.5-.518 1.5zm5.149-2.326-1.315 3.584h-.872L29.02 77.38h.77l.986 2.85.98-2.85zm3.183 1.078a.84.84 0 0 0-.339-.344 1.03 1.03 0 0 0-.503-.118 1.1 1.1 0 0 0-.565.144 1 1 0 0 0-.385.41 1.3 1.3 0 0 0-.139.617q0 .36.139.626.144.267.395.411.252.144.586.144.41 0 .672-.216.263-.22.344-.61H34.68v-.55h1.94v.626q-.071.375-.307.693a1.76 1.76 0 0 1-1.443.704 1.9 1.9 0 0 1-.94-.231 1.74 1.74 0 0 1-.657-.652 1.9 1.9 0 0 1-.236-.945q0-.53.236-.945.242-.42.657-.652.422-.236.935-.236.606 0 1.052.298.447.292.617.826zM41.1 77.38v.58h-1.494v.92h1.145v.57h-1.145v1.514h-.718V77.38zm2.964 2.901h-1.427l-.236.683h-.755l1.289-3.59h.837l1.288 3.59h-.76zm-.195-.575-.518-1.5-.519 1.5zM47.037 81a1.7 1.7 0 0 1-.678-.129 1.1 1.1 0 0 1-.472-.37 1 1 0 0 1-.18-.57h.77q.015.221.155.35a.56.56 0 0 0 .39.128q.252 0 .395-.118a.4.4 0 0 0 .144-.318.37.37 0 0 0-.098-.262.65.65 0 0 0-.246-.16 3 3 0 0 0-.4-.133 5 5 0 0 1-.57-.2 1.06 1.06 0 0 1-.375-.303q-.154-.205-.154-.544 0-.318.159-.554a1 1 0 0 1 .447-.36q.287-.128.657-.128.555 0 .898.272.35.267.385.75h-.79a.4.4 0 0 0-.16-.303.57.57 0 0 0-.385-.124.5.5 0 0 0-.339.108q-.123.108-.123.313 0 .144.093.242a.8.8 0 0 0 .236.154q.144.056.4.133.35.103.57.206.222.102.38.308.16.204.16.539 0 .287-.15.534-.148.246-.436.395a1.5 1.5 0 0 1-.683.144m4.587-3.62v.58h-.955v3.004h-.719V77.96h-.955v-.58zm1.5 0v3.584h-.719V77.38zm4.032 3.584h-.718l-1.628-2.46v2.46h-.719v-3.59h.719l1.627 2.465v-2.464h.72zm3.463-2.506a.84.84 0 0 0-.34-.344 1.03 1.03 0 0 0-.502-.118 1.1 1.1 0 0 0-.565.144 1 1 0 0 0-.385.41 1.3 1.3 0 0 0-.139.617q0 .36.139.626.143.267.395.411t.585.144q.41 0 .673-.216.263-.22.344-.61h-1.232v-.55h1.94v.626q-.071.375-.307.693a1.76 1.76 0 0 1-1.443.704 1.9 1.9 0 0 1-.94-.231 1.74 1.74 0 0 1-.657-.652 1.9 1.9 0 0 1-.236-.945q0-.53.236-.945.24-.42.657-.652.42-.236.935-.236.605 0 1.052.298.447.292.616.826z"/><path fill="#69a38d" d="M25.46 87.839v-1.59h2.97v8.983h-1.774V87.84zm4.674 2.785q0-2.131.764-3.34.777-1.207 2.564-1.207t2.55 1.207q.777 1.208.777 3.34 0 2.144-.777 3.364-.764 1.22-2.55 1.22-1.788 0-2.564-1.22-.764-1.22-.764-3.364m4.954 0q0-.912-.123-1.528-.111-.63-.468-1.023-.345-.394-1.035-.394t-1.048.394q-.345.394-.468 1.023-.111.615-.111 1.528 0 .936.11 1.577.111.629.47 1.023.356.382 1.047.382.69 0 1.047-.382.357-.395.468-1.023.111-.64.111-1.577m3.555 2.662a48 48 0 0 0 1.885-1.64 7.8 7.8 0 0 0 1.171-1.38q.468-.714.468-1.404 0-.63-.296-.986-.295-.358-.911-.358t-.95.42q-.332.406-.344 1.12H37.99q.049-1.478.875-2.242.837-.764 2.12-.764 1.404 0 2.156.752.75.74.751 1.96 0 .96-.517 1.835a7.4 7.4 0 0 1-1.183 1.528q-.666.64-1.738 1.553h3.636v1.43h-6.088v-1.282z"/><path fill="#e1e1e1" d="M51.23 91.85q.627 0 1.01.389.388.382.388 1.072v2.002h-.863v-1.885q0-.4-.203-.61-.203-.216-.554-.215-.352 0-.561.215-.204.21-.203.61v1.886h-.863v-1.886q0-.4-.203-.61-.203-.216-.555-.215-.357 0-.567.215-.203.21-.203.61v1.886h-.863V91.9h.863v.413q.166-.216.425-.339.265-.123.58-.123.4 0 .714.172.315.167.487.48.165-.294.48-.474.321-.178.69-.178m3.553-.005q.383 0 .672.154.29.147.456.388V91.9h.869v3.438q0 .475-.191.844-.192.375-.573.592-.383.222-.924.222-.727 0-1.196-.34a1.26 1.26 0 0 1-.523-.924h.856q.068.235.29.37.228.142.548.142.376 0 .61-.228.234-.222.234-.678v-.53q-.166.24-.462.4-.29.161-.666.16-.43 0-.788-.22a1.57 1.57 0 0 1-.567-.623 2.05 2.05 0 0 1-.203-.93 2 2 0 0 1 .203-.918q.21-.401.56-.617a1.5 1.5 0 0 1 .795-.215m1.128 1.762q0-.314-.123-.536a.84.84 0 0 0-.333-.345.9.9 0 0 0-.45-.123.87.87 0 0 0-.776.462 1.1 1.1 0 0 0-.123.53q0 .308.123.542a.95.95 0 0 0 .333.35q.21.124.443.124.24 0 .45-.117a.9.9 0 0 0 .333-.345q.123-.228.123-.542m4.022-4.128-1.664 6.95h-.844l1.664-6.95zm.464 4.115a2 2 0 0 1 .203-.917q.21-.401.567-.617a1.51 1.51 0 0 1 1.43-.067q.3.14.48.382v-1.62h.875v4.559h-.875v-.506a1.17 1.17 0 0 1-.45.407 1.4 1.4 0 0 1-.671.154q-.431 0-.789-.222a1.57 1.57 0 0 1-.567-.622 2.05 2.05 0 0 1-.203-.93m2.686.013q0-.314-.123-.536a.84.84 0 0 0-.333-.345.9.9 0 0 0-.45-.123.87.87 0 0 0-.776.462 1.1 1.1 0 0 0-.123.53q0 .308.123.542a.95.95 0 0 0 .333.35q.21.124.443.124.24 0 .45-.117a.9.9 0 0 0 .333-.345q.123-.228.123-.542m2.574 1.023h1.417v.684h-2.28v-4.301h.863z"/><path fill="#949494" fill-opacity=".7" d="M122.571 76.504c0-5.671 4.597-10.269 10.269-10.269h77.529c5.671 0 10.269 4.598 10.269 10.27v19.51c0 5.671-4.598 10.269-10.269 10.269H132.84c-5.672 0-10.269-4.598-10.269-10.27z"/><path fill="#e1e1e1" d="M132.373 80.394h1.18v.57h-1.899V77.38h.719zm4.092-.113h-1.428l-.236.683h-.755l1.289-3.59h.837l1.289 3.59h-.76zm-.196-.575-.518-1.5-.519 1.5zm4.369-2.326v.58h-.955v3.004h-.719V77.96h-.955v-.58zm1.5.58v.899h1.206v.57h-1.206v.95h1.361v.585h-2.08v-3.59h2.08v.586zm3.508 3.04q-.375 0-.678-.129a1.1 1.1 0 0 1-.472-.37.97.97 0 0 1-.18-.57h.77q.016.221.154.35a.56.56 0 0 0 .39.128q.252 0 .396-.118a.4.4 0 0 0 .144-.318.37.37 0 0 0-.098-.262.65.65 0 0 0-.246-.16 3 3 0 0 0-.401-.133 5 5 0 0 1-.57-.2 1.05 1.05 0 0 1-.375-.303q-.154-.205-.154-.544a.97.97 0 0 1 .159-.554 1 1 0 0 1 .447-.36q.288-.128.657-.128.555 0 .899.272.35.267.385.75h-.791a.4.4 0 0 0-.159-.303.57.57 0 0 0-.385-.124.5.5 0 0 0-.339.108q-.123.108-.123.313a.34.34 0 0 0 .092.242.8.8 0 0 0 .237.154q.143.056.4.133.35.103.57.206.22.102.38.308.159.204.159.539 0 .287-.149.534a1.07 1.07 0 0 1-.436.395q-.288.144-.683.144m4.587-3.62v.58h-.955v3.004h-.719V77.96h-.955v-.58zm5.234 0v3.584h-.719v-1.525h-1.535v1.525h-.719V77.38h.719v1.474h1.535V77.38zm2.997 1.746a.8.8 0 0 1 .498.303q.195.246.196.564a.9.9 0 0 1-.144.509.93.93 0 0 1-.406.339 1.5 1.5 0 0 1-.631.123h-1.546V77.38h1.479q.365 0 .626.118a.85.85 0 0 1 .539.806.8.8 0 0 1-.169.524.9.9 0 0 1-.442.298m-1.314-.267h.657q.256 0 .396-.113a.42.42 0 0 0 .138-.334.42.42 0 0 0-.138-.334q-.14-.118-.396-.118h-.657zm.724 1.52q.262 0 .406-.124a.43.43 0 0 0 .148-.349.44.44 0 0 0-.154-.36.6.6 0 0 0-.415-.133h-.709v.966zm4.311-.098h-1.428l-.236.683h-.755l1.289-3.59h.837l1.289 3.59h-.76zm-.195-.575-.519-1.5-.519 1.5zm1.76-1.823v-.662h1.237v3.743h-.739v-3.08zm2.111 1.284q0-.53.237-.945.241-.42.652-.652.416-.236.929-.236.6 0 1.053.308.451.308.631.852h-.826a.86.86 0 0 0-.35-.385 1 1 0 0 0-.513-.128q-.313 0-.56.149a1 1 0 0 0-.38.41 1.4 1.4 0 0 0-.133.627q0 .354.133.626.139.267.38.416.247.144.56.144a1 1 0 0 0 .513-.128.9.9 0 0 0 .35-.39h.826q-.18.548-.631.857a1.83 1.83 0 0 1-1.053.303q-.513 0-.929-.231a1.75 1.75 0 0 1-.652-.652 1.9 1.9 0 0 1-.237-.945"/><path fill="#e88f4a" d="M136.611 88.49q-.123-.518-.431-.776-.296-.26-.863-.259-.85 0-1.257.69-.394.678-.406 2.218.295-.493.862-.764a2.7 2.7 0 0 1 1.233-.283q.8 0 1.417.345.615.345.961 1.01.345.653.345 1.577 0 .876-.357 1.565-.345.678-1.023 1.06t-1.614.382q-1.282 0-2.021-.567-.727-.567-1.023-1.577-.284-1.023-.284-2.514 0-2.255.777-3.4.776-1.16 2.452-1.16 1.294 0 2.009.703t.825 1.75zm-1.257 2.243q-.653 0-1.096.382-.444.381-.444 1.109 0 .727.407 1.146.419.42 1.17.419.666 0 1.048-.407.394-.407.394-1.097 0-.714-.382-1.133-.37-.42-1.097-.42m5.443 4.584q-.469 0-.777-.284a1 1 0 0 1-.296-.727q0-.43.296-.714.308-.296.777-.296.455 0 .751.296a.95.95 0 0 1 .296.714 1 1 0 0 1-.296.727 1.04 1.04 0 0 1-.751.284m2.03-7.48v-1.59h2.97v8.984h-1.775v-7.394z"/><path fill="#e1e1e1" d="M149.137 91.924q0-.469.271-.733a.98.98 0 0 1 .709-.265q.431 0 .702.265.278.264.278.733 0 .474-.278.74-.27.264-.702.264a.98.98 0 0 1-.709-.265q-.27-.264-.271-.74m3.956-.924-2.422 4.313h-.838L152.249 91zm-2.982.443q-.339 0-.339.48 0 .487.339.487a.31.31 0 0 0 .259-.117q.092-.123.092-.37 0-.48-.351-.48m1.731 2.94q0-.475.271-.734a.98.98 0 0 1 .709-.265q.43 0 .696.265.271.258.271.733 0 .474-.271.74-.266.264-.696.264-.438 0-.709-.264-.271-.266-.271-.74m.974-.481q-.352 0-.352.48 0 .487.352.487.345 0 .345-.487 0-.48-.345-.48"/><g clip-path="url(#clip0_334_293)"><path fill="#c8c9cb" d="M32.737 220.735a1.17 1.17 0 0 1-.67-.192 1.2 1.2 0 0 1-.43-.551q-.15-.36-.148-.867 0-.507.15-.862.15-.357.43-.542.28-.187.668-.187.387 0 .667.187.28.188.432.543.15.355.149.861 0 .508-.151.869-.15.36-.429.551-.28.19-.668.19m0-.542q.265 0 .424-.267t.157-.801q0-.352-.073-.586a.76.76 0 0 0-.202-.352.44.44 0 0 0-.306-.117q-.264 0-.423.264-.158.263-.16.791 0 .356.071.594a.77.77 0 0 0 .204.356q.13.118.308.118m2.9.516a1.4 1.4 0 0 1-.46-.08 1.04 1.04 0 0 1-.395-.255 1.2 1.2 0 0 1-.278-.468 2.2 2.2 0 0 1-.101-.715q0-.39.089-.696.09-.308.253-.522a1.1 1.1 0 0 1 .915-.439q.309 0 .546.121a1 1 0 0 1 .556.784h-.645a.43.43 0 0 0-.158-.253.48.48 0 0 0-.3-.092.5.5 0 0 0-.458.262q-.155.263-.158.714h.02a.7.7 0 0 1 .188-.234.9.9 0 0 1 .27-.149 1 1 0 0 1 .322-.053.92.92 0 0 1 .826.483q.124.225.124.515 0 .314-.146.558a1 1 0 0 1-.406.383 1.25 1.25 0 0 1-.604.136m-.003-.513a.51.51 0 0 0 .458-.269.56.56 0 0 0 .067-.277.56.56 0 0 0-.067-.276.51.51 0 0 0-.453-.268.52.52 0 0 0-.49.335.6.6 0 0 0-.04.21.56.56 0 0 0 .255.471q.12.074.27.074m2.004.112a.35.35 0 0 1-.256-.106.35.35 0 0 1-.106-.256q0-.149.106-.254a.35.35 0 0 1 .256-.106q.146 0 .254.106a.34.34 0 0 1 .109.254.34.34 0 0 1-.052.182.4.4 0 0 1-.131.131.34.34 0 0 1-.18.049m0-1.517a.35.35 0 0 1-.256-.106.35.35 0 0 1-.106-.256.34.34 0 0 1 .106-.252.35.35 0 0 1 .256-.106.35.35 0 0 1 .254.106.34.34 0 0 1 .109.252.34.34 0 0 1-.052.184.4.4 0 0 1-.131.13.35.35 0 0 1-.18.048m2.096 1.944a1.17 1.17 0 0 1-.67-.192 1.2 1.2 0 0 1-.43-.551q-.15-.36-.148-.867 0-.507.15-.862.15-.357.43-.542.28-.187.668-.187t.667.187q.281.188.432.543t.15.861q0 .508-.151.869-.15.36-.429.551-.279.19-.669.19m0-.542q.266 0 .424-.267.159-.267.157-.801 0-.352-.072-.586a.76.76 0 0 0-.202-.352.44.44 0 0 0-.307-.117q-.264 0-.422.264-.16.263-.16.791 0 .356.07.594a.8.8 0 0 0 .204.356q.131.118.308.118m2.926.542a1.17 1.17 0 0 1-.67-.192 1.2 1.2 0 0 1-.43-.551q-.15-.36-.148-.867 0-.507.15-.862.15-.357.43-.542.28-.187.668-.187t.668.187.431.543.15.861q0 .508-.151.869-.15.36-.429.551-.279.19-.669.19m0-.542q.267 0 .425-.267t.157-.801q0-.352-.073-.586a.76.76 0 0 0-.202-.352.44.44 0 0 0-.307-.117q-.264 0-.422.264-.16.263-.16.791 0 .356.07.594a.8.8 0 0 0 .204.356q.131.118.308.118m31.112.542a1.17 1.17 0 0 1-.67-.192 1.2 1.2 0 0 1-.43-.551q-.15-.36-.149-.867 0-.507.15-.862.15-.357.43-.542.28-.187.669-.187.387 0 .667.187.28.188.431.543t.15.861q0 .508-.151.869-.15.36-.429.551-.28.19-.668.19m0-.542q.265 0 .424-.267t.157-.801q0-.352-.073-.586a.76.76 0 0 0-.202-.352.44.44 0 0 0-.306-.117q-.265 0-.423.264-.16.263-.16.791 0 .356.07.594a.8.8 0 0 0 .205.356q.13.118.308.118m2.832-2.659q.239 0 .459.08.222.08.395.255.175.175.276.465.103.288.105.708 0 .394-.09.703-.087.308-.252.524-.165.215-.397.329a1.2 1.2 0 0 1-.519.111q-.309 0-.546-.119a1 1 0 0 1-.382-.327 1 1 0 0 1-.173-.468h.644a.44.44 0 0 0 .159.262q.12.093.298.092a.5.5 0 0 0 .46-.262q.156-.264.158-.723h-.022a.8.8 0 0 1-.187.234.9.9 0 0 1-.27.149 1 1 0 0 1-.321.053.94.94 0 0 1-.488-.128.93.93 0 0 1-.338-.353 1.05 1.05 0 0 1-.124-.514 1.05 1.05 0 0 1 .144-.554 1 1 0 0 1 .404-.38q.261-.138.607-.137m.005.513a.515.515 0 0 0-.526.54q0 .153.067.275.067.12.184.193a.5.5 0 0 0 .268.071.52.52 0 0 0 .49-.332.56.56 0 0 0-.029-.477.53.53 0 0 0-.186-.196.5.5 0 0 0-.268-.074m2.064 2.261a.35.35 0 0 1-.257-.106.35.35 0 0 1-.105-.256q0-.149.105-.254a.36.36 0 0 1 .257-.106q.145 0 .254.106a.34.34 0 0 1 .108.254.34.34 0 0 1-.051.182.4.4 0 0 1-.131.131.34.34 0 0 1-.18.049m0-1.517a.35.35 0 0 1-.257-.106.35.35 0 0 1-.105-.256.34.34 0 0 1 .105-.252.35.35 0 0 1 .257-.106.35.35 0 0 1 .254.106.34.34 0 0 1 .108.252.34.34 0 0 1-.051.184.4.4 0 0 1-.131.13.35.35 0 0 1-.18.048m2.096 1.944a1.17 1.17 0 0 1-.67-.192 1.2 1.2 0 0 1-.43-.551q-.15-.36-.148-.867 0-.507.15-.862.15-.357.43-.542.28-.187.668-.187t.667.187q.28.188.432.543.15.355.15.861 0 .508-.152.869-.15.36-.428.551-.28.19-.669.19m0-.542q.266 0 .424-.267.159-.267.157-.801 0-.352-.072-.586a.76.76 0 0 0-.203-.352.44.44 0 0 0-.306-.117q-.264 0-.422.264-.16.263-.16.791 0 .356.07.594a.77.77 0 0 0 .204.356q.131.118.308.118m2.926.542a1.17 1.17 0 0 1-.67-.192 1.2 1.2 0 0 1-.43-.551q-.15-.36-.148-.867 0-.507.15-.862.15-.357.43-.542.28-.187.668-.187t.667.187q.28.188.432.543.15.355.15.861 0 .508-.152.869-.15.36-.428.551-.28.19-.669.19m0-.542q.266 0 .424-.267.159-.267.157-.801 0-.352-.072-.586a.76.76 0 0 0-.203-.352.44.44 0 0 0-.306-.117q-.264 0-.422.264-.16.263-.16.791 0 .356.07.594a.8.8 0 0 0 .204.356q.131.118.308.118m31.934-2.617v3.091h-.654v-2.471h-.018l-.708.444v-.579l.766-.485zm.735 3.091v-.471l1.1-1.019q.14-.136.235-.244a1 1 0 0 0 .147-.213.5.5 0 0 0 .049-.228q0-.135-.061-.234a.4.4 0 0 0-.17-.152.5.5 0 0 0-.243-.055.5.5 0 0 0-.247.058.4.4 0 0 0-.163.164.54.54 0 0 0-.057.255h-.621a.92.92 0 0 1 .523-.872q.248-.122.57-.122.332 0 .578.118a.9.9 0 0 1 .385.323.84.84 0 0 1 .137.473.9.9 0 0 1-.069.346q-.068.17-.243.379a6 6 0 0 1-.494.496l-.451.443v.021h1.298v.534zm3.058-.359a.35.35 0 0 1-.256-.106.35.35 0 0 1-.106-.256q0-.149.106-.254a.35.35 0 0 1 .256-.106q.145 0 .254.106.109.105.109.254a.34.34 0 0 1-.052.182.4.4 0 0 1-.131.131.34.34 0 0 1-.18.049m0-1.517a.35.35 0 0 1-.256-.106.35.35 0 0 1-.106-.256q0-.148.106-.252a.35.35 0 0 1 .256-.106q.145 0 .254.106a.345.345 0 0 1 .057.436.4.4 0 0 1-.131.13.35.35 0 0 1-.18.048m2.096 1.944a1.17 1.17 0 0 1-.67-.192 1.2 1.2 0 0 1-.43-.551q-.15-.36-.148-.867 0-.507.15-.862.15-.357.43-.542.28-.187.668-.187t.667.187q.281.188.432.543t.149.861q0 .508-.15.869-.15.36-.429.551-.279.19-.669.19m0-.542q.266 0 .424-.267.159-.267.157-.801 0-.352-.072-.586a.76.76 0 0 0-.202-.352.44.44 0 0 0-.307-.117q-.264 0-.422.264-.159.263-.16.791 0 .356.071.594a.8.8 0 0 0 .203.356.45.45 0 0 0 .308.118m2.926.542a1.17 1.17 0 0 1-.67-.192 1.2 1.2 0 0 1-.43-.551q-.15-.36-.148-.867 0-.507.15-.862.15-.357.43-.542.28-.187.668-.187t.667.187q.281.188.432.543t.149.861q0 .508-.15.869-.15.36-.429.551-.279.19-.669.19m0-.542q.266 0 .424-.267.159-.267.157-.801 0-.352-.072-.586a.76.76 0 0 0-.202-.352.44.44 0 0 0-.307-.117q-.264 0-.422.264-.159.263-.16.791 0 .356.071.594a.8.8 0 0 0 .203.356.45.45 0 0 0 .308.118m31.875-2.617v3.091h-.653v-2.471h-.018l-.708.444v-.579l.765-.485zm1.864 3.133q-.32 0-.571-.117a1 1 0 0 1-.395-.325.83.83 0 0 1-.152-.474h.634q.01.18.15.291a.52.52 0 0 0 .334.112.54.54 0 0 0 .272-.068.5.5 0 0 0 .185-.191.6.6 0 0 0 .068-.284.6.6 0 0 0-.069-.287.5.5 0 0 0-.189-.193.56.56 0 0 0-.276-.071.7.7 0 0 0-.264.056.5.5 0 0 0-.198.152l-.581-.104.146-1.63h1.89v.534h-1.351l-.08.775h.018a.6.6 0 0 1 .246-.191.9.9 0 0 1 .369-.075q.279 0 .498.131a.94.94 0 0 1 .345.361q.127.228.126.525.001.313-.145.556a1.03 1.03 0 0 1-.406.38 1.3 1.3 0 0 1-.604.137m1.992-.401a.35.35 0 0 1-.256-.106.35.35 0 0 1-.106-.256q0-.149.106-.254a.35.35 0 0 1 .256-.106q.145 0 .254.106.108.105.108.254a.34.34 0 0 1-.051.182.4.4 0 0 1-.131.131.34.34 0 0 1-.18.049m0-1.517a.35.35 0 0 1-.256-.106.35.35 0 0 1-.106-.256q0-.148.106-.252a.35.35 0 0 1 .256-.106q.145 0 .254.106a.34.34 0 0 1 .108.252.35.35 0 0 1-.051.184.4.4 0 0 1-.131.13.35.35 0 0 1-.18.048m2.096 1.944a1.17 1.17 0 0 1-.67-.192 1.2 1.2 0 0 1-.43-.551q-.15-.36-.148-.867 0-.507.149-.862a1.2 1.2 0 0 1 .431-.542q.28-.187.668-.187t.667.187.432.543q.15.355.149.861 0 .508-.151.869a1.2 1.2 0 0 1-.428.551q-.279.19-.669.19m0-.542q.266 0 .424-.267.159-.267.157-.801 0-.352-.072-.586a.76.76 0 0 0-.203-.352.44.44 0 0 0-.306-.117q-.264 0-.422.264-.159.263-.16.791 0 .356.07.594a.8.8 0 0 0 .204.356q.131.118.308.118m2.926.542a1.17 1.17 0 0 1-.67-.192 1.2 1.2 0 0 1-.43-.551q-.15-.36-.148-.867 0-.507.149-.862a1.2 1.2 0 0 1 .431-.542q.28-.187.668-.187t.667.187q.28.188.432.543.15.355.149.861 0 .508-.151.869a1.2 1.2 0 0 1-.428.551q-.279.19-.669.19m0-.542q.266 0 .424-.267.159-.267.157-.801 0-.352-.072-.586a.77.77 0 0 0-.202-.352.44.44 0 0 0-.307-.117q-.264 0-.422.264-.159.263-.16.791 0 .356.07.594a.8.8 0 0 0 .204.356q.132.118.308.118m32.857-2.617v3.091h-.654v-2.471h-.018l-.708.444v-.579l.766-.485zm1.888 3.133q-.35 0-.621-.113a1.04 1.04 0 0 1-.424-.312.72.72 0 0 1-.154-.449q0-.193.088-.354a.8.8 0 0 1 .241-.27.8.8 0 0 1 .341-.139v-.021a.69.69 0 0 1-.555-.686q0-.24.14-.427a.95.95 0 0 1 .385-.296q.246-.108.559-.108.312 0 .556.108a.95.95 0 0 1 .387.298.7.7 0 0 1 .142.425.695.695 0 0 1-.556.686v.021q.186.03.337.139a.78.78 0 0 1 .333.624.72.72 0 0 1-.155.449 1.04 1.04 0 0 1-.426.312q-.27.113-.618.113m0-.48a.6.6 0 0 0 .271-.056.44.44 0 0 0 .181-.156.4.4 0 0 0 .067-.233.4.4 0 0 0-.068-.237.47.47 0 0 0-.184-.163.6.6 0 0 0-.267-.06q-.15 0-.268.06a.47.47 0 0 0-.185.163.4.4 0 0 0-.067.237q0 .132.065.233a.45.45 0 0 0 .183.156.6.6 0 0 0 .272.056m0-1.381a.5.5 0 0 0 .23-.052.4.4 0 0 0 .216-.363.39.39 0 0 0-.214-.354.5.5 0 0 0-.232-.053.5.5 0 0 0-.233.053.4.4 0 0 0-.158.143.4.4 0 0 0-.056.211q0 .123.057.216a.4.4 0 0 0 .159.147.5.5 0 0 0 .231.052m2.038 1.46a.35.35 0 0 1-.256-.106.35.35 0 0 1-.106-.256q0-.149.106-.254a.35.35 0 0 1 .256-.106q.145 0 .254.106.108.105.108.254a.34.34 0 0 1-.051.182.4.4 0 0 1-.131.131.34.34 0 0 1-.18.049m0-1.517a.35.35 0 0 1-.256-.106.35.35 0 0 1-.106-.256q0-.148.106-.252a.35.35 0 0 1 .256-.106q.145 0 .254.106a.34.34 0 0 1 .108.252.35.35 0 0 1-.051.184.4.4 0 0 1-.131.13.35.35 0 0 1-.18.048m2.096 1.944a1.17 1.17 0 0 1-.67-.192 1.2 1.2 0 0 1-.43-.551q-.15-.36-.148-.867 0-.507.149-.862.151-.357.43-.542.281-.187.669-.187t.667.187.432.543q.15.355.149.861 0 .508-.151.869a1.2 1.2 0 0 1-.428.551q-.279.19-.669.19m0-.542q.266 0 .424-.267.159-.267.157-.801 0-.352-.072-.586a.76.76 0 0 0-.203-.352.44.44 0 0 0-.306-.117q-.264 0-.423.264-.157.263-.159.791 0 .356.07.594a.8.8 0 0 0 .204.356q.131.118.308.118m2.926.542a1.17 1.17 0 0 1-.67-.192 1.2 1.2 0 0 1-.43-.551q-.15-.36-.148-.867 0-.507.149-.862a1.2 1.2 0 0 1 .431-.542q.28-.187.668-.187t.667.187q.28.188.432.543.15.355.149.861 0 .508-.151.869a1.2 1.2 0 0 1-.428.551q-.279.19-.669.19m0-.542q.266 0 .424-.267.159-.267.157-.801 0-.352-.072-.586a.76.76 0 0 0-.203-.352.44.44 0 0 0-.306-.117q-.264 0-.422.264-.159.263-.16.791 0 .356.07.594a.8.8 0 0 0 .204.356q.132.118.308.118m23.013.474v-.471l1.101-1.019q.14-.136.235-.244a1 1 0 0 0 .147-.213.5.5 0 0 0 .049-.228q0-.135-.062-.234a.4.4 0 0 0-.169-.152.5.5 0 0 0-.243-.055.5.5 0 0 0-.247.058.4.4 0 0 0-.163.164.54.54 0 0 0-.057.255h-.621a1 1 0 0 1 .138-.526.9.9 0 0 1 .384-.346q.249-.122.571-.122.332 0 .578.118a.9.9 0 0 1 .385.323.84.84 0 0 1 .137.473.9.9 0 0 1-.069.346q-.067.17-.243.379a6 6 0 0 1-.494.496l-.451.443v.021h1.298v.534zm4.022-3.091v3.091h-.653v-2.471h-.018l-.708.444v-.579l.765-.485zm1.117 2.732a.35.35 0 0 1-.257-.106.35.35 0 0 1-.106-.256q0-.149.106-.254a.36.36 0 0 1 .257-.106q.144 0 .253.106.11.105.109.254a.34.34 0 0 1-.051.182.4.4 0 0 1-.132.131.34.34 0 0 1-.179.049m0-1.517a.35.35 0 0 1-.257-.106.35.35 0 0 1-.106-.256q0-.148.106-.252a.35.35 0 0 1 .257-.106.35.35 0 0 1 .253.106.33.33 0 0 1 .109.252.35.35 0 0 1-.051.184.4.4 0 0 1-.132.13.35.35 0 0 1-.179.048m2.096 1.944a1.17 1.17 0 0 1-.67-.192 1.2 1.2 0 0 1-.431-.551 2.3 2.3 0 0 1-.148-.867q0-.507.15-.862.151-.357.43-.542.28-.187.669-.187.387 0 .667.187.28.188.431.543t.15.861q0 .508-.151.869-.15.36-.429.551-.28.19-.668.19m0-.542q.265 0 .424-.267t.157-.801q0-.352-.073-.586a.75.75 0 0 0-.202-.352.44.44 0 0 0-.306-.117q-.264 0-.423.264-.159.263-.16.791 0 .356.071.594a.77.77 0 0 0 .204.356q.13.118.308.118m2.926.542a1.17 1.17 0 0 1-.67-.192 1.2 1.2 0 0 1-.431-.551 2.2 2.2 0 0 1-.147-.867q0-.507.149-.862.151-.357.43-.542.28-.187.669-.187.388 0 .667.187.28.188.431.543.152.355.15.861 0 .508-.151.869-.15.36-.429.551-.28.19-.668.19m0-.542q.265 0 .424-.267t.157-.801q0-.352-.073-.586a.75.75 0 0 0-.202-.352.44.44 0 0 0-.306-.117q-.264 0-.423.264-.159.263-.16.791 0 .356.071.594a.77.77 0 0 0 .204.356q.13.118.308.118M28.618 211.55a1.4 1.4 0 0 1-.46-.08 1.04 1.04 0 0 1-.396-.255 1.24 1.24 0 0 1-.278-.468 2.2 2.2 0 0 1-.1-.715q0-.39.088-.696a1.6 1.6 0 0 1 .254-.522 1.1 1.1 0 0 1 .914-.439q.31 0 .547.12a1.01 1.01 0 0 1 .555.785h-.644a.43.43 0 0 0-.159-.253.48.48 0 0 0-.299-.092.5.5 0 0 0-.458.262q-.156.262-.159.714h.021a.7.7 0 0 1 .187-.234.96.96 0 0 1 .592-.202.92.92 0 0 1 .827.483q.124.225.124.514 0 .315-.147.559a1 1 0 0 1-.405.383 1.25 1.25 0 0 1-.604.136m-.003-.513a.5.5 0 0 0 .457-.269.56.56 0 0 0 .068-.277.56.56 0 0 0-.068-.277.51.51 0 0 0-.662-.224.53.53 0 0 0-.28.292.6.6 0 0 0-.04.21q0 .15.067.273a.5.5 0 0 0 .457.272m2.834.539a1.17 1.17 0 0 1-.67-.192 1.2 1.2 0 0 1-.43-.551q-.15-.36-.148-.868 0-.506.15-.861.15-.357.43-.542.28-.187.668-.187t.667.187.432.543q.15.355.15.86 0 .508-.152.87-.15.36-.428.551-.28.19-.669.19m0-.542q.265 0 .424-.267t.157-.802q0-.351-.072-.585a.76.76 0 0 0-.202-.352.44.44 0 0 0-.307-.118q-.264 0-.423.265-.158.264-.16.79 0 .357.071.595a.8.8 0 0 0 .204.356q.132.118.308.118m-2.898-20.873q.239 0 .459.08.222.08.395.255.175.175.276.465.103.288.105.708 0 .393-.09.703-.087.308-.252.524-.165.215-.396.329a1.2 1.2 0 0 1-.52.111q-.309 0-.546-.119a1 1 0 0 1-.382-.328 1 1 0 0 1-.173-.467h.644a.44.44 0 0 0 .159.262q.12.093.298.092a.5.5 0 0 0 .46-.262q.156-.264.158-.723h-.021a.8.8 0 0 1-.188.234.9.9 0 0 1-.27.149 1 1 0 0 1-.321.053.94.94 0 0 1-.488-.128.9.9 0 0 1-.338-.354 1.04 1.04 0 0 1-.124-.513 1.01 1.01 0 0 1 .548-.934q.261-.138.607-.137m.005.513a.515.515 0 0 0-.526.54q0 .152.067.275.067.12.184.193a.5.5 0 0 0 .268.071.52.52 0 0 0 .491-.332.56.56 0 0 0-.029-.477.53.53 0 0 0-.187-.196.5.5 0 0 0-.268-.074m2.894 2.688a1.17 1.17 0 0 1-.67-.192 1.2 1.2 0 0 1-.43-.551q-.15-.36-.148-.867 0-.507.15-.862.15-.357.43-.542.28-.187.668-.187t.667.187.432.543q.15.355.15.861 0 .508-.152.869-.15.36-.428.551-.28.19-.669.19m0-.542q.266 0 .424-.267.159-.267.157-.801 0-.352-.072-.586a.76.76 0 0 0-.202-.352.44.44 0 0 0-.307-.117q-.264 0-.422.264-.16.264-.16.791 0 .356.07.594a.8.8 0 0 0 .204.356q.132.118.308.118m-4.806-20.832v3.091h-.654v-2.471h-.018l-.708.444v-.579l.765-.485zm.734 3.091v-.471l1.1-1.019q.14-.136.236-.244a1 1 0 0 0 .146-.213.5.5 0 0 0 .05-.228q0-.135-.062-.234a.4.4 0 0 0-.169-.152.5.5 0 0 0-.243-.054.5.5 0 0 0-.247.057.4.4 0 0 0-.163.164.54.54 0 0 0-.058.256h-.62q0-.304.137-.527a.9.9 0 0 1 .385-.346 1.3 1.3 0 0 1 .57-.122q.333 0 .579.118a.9.9 0 0 1 .385.323.83.83 0 0 1 .137.474.9.9 0 0 1-.07.345q-.068.17-.242.379a6 6 0 0 1-.494.496l-.451.443v.021h1.298v.534zm3.89.068a1.17 1.17 0 0 1-.671-.192 1.2 1.2 0 0 1-.43-.551q-.15-.36-.148-.867 0-.506.15-.862.15-.357.43-.542.28-.187.668-.187t.667.187.432.543q.15.355.15.861 0 .509-.152.869-.15.36-.428.551-.28.19-.669.19m0-.542q.265 0 .423-.267.159-.267.157-.801 0-.352-.072-.586a.76.76 0 0 0-.202-.352.44.44 0 0 0-.307-.117q-.264 0-.422.264-.16.264-.16.791 0 .356.07.594a.8.8 0 0 0 .204.356q.132.118.308.118m-4.685-20.831v3.091h-.653v-2.47h-.018l-.708.443v-.579l.765-.485zm1.864 3.133q-.32 0-.57-.117a1 1 0 0 1-.396-.325.83.83 0 0 1-.152-.474h.633q.011.18.151.292a.52.52 0 0 0 .334.111.53.53 0 0 0 .271-.068.5.5 0 0 0 .186-.191.6.6 0 0 0 .068-.284.6.6 0 0 0-.07-.287.5.5 0 0 0-.188-.193.56.56 0 0 0-.276-.071.7.7 0 0 0-.264.056.5.5 0 0 0-.198.152l-.581-.104.146-1.63h1.89v.535h-1.35l-.08.774h.017a.6.6 0 0 1 .246-.19.9.9 0 0 1 .369-.076.95.95 0 0 1 .843.492q.127.228.125.525.002.313-.145.556a1 1 0 0 1-.405.38 1.3 1.3 0 0 1-.604.137m2.822.026a1.17 1.17 0 0 1-.67-.192 1.2 1.2 0 0 1-.43-.55 2.3 2.3 0 0 1-.148-.868q0-.506.15-.862t.43-.542q.28-.187.668-.187t.667.187.432.544q.15.354.15.86 0 .509-.152.869-.15.361-.428.551-.28.19-.669.19m0-.542q.266 0 .424-.267.159-.267.157-.801 0-.352-.072-.586a.75.75 0 0 0-.202-.351.44.44 0 0 0-.307-.118q-.264 0-.422.264-.16.264-.16.791 0 .355.07.594a.8.8 0 0 0 .204.357q.132.117.308.117m-4.756-20.832v3.091h-.654v-2.47h-.018l-.708.443v-.579l.765-.485zm1.887 3.134q-.348 0-.62-.114a1.03 1.03 0 0 1-.424-.312.7.7 0 0 1-.154-.448q0-.193.088-.355a.8.8 0 0 1 .583-.409v-.021a.69.69 0 0 1-.555-.685q-.001-.24.14-.427a.93.93 0 0 1 .384-.296 1.4 1.4 0 0 1 .558-.109q.313 0 .557.109a.94.94 0 0 1 .387.297.7.7 0 0 1 .142.426.69.69 0 0 1-.556.685v.021q.186.03.337.139a.78.78 0 0 1 .333.625.72.72 0 0 1-.155.448 1.03 1.03 0 0 1-.426.312 1.6 1.6 0 0 1-.619.114m0-.48a.6.6 0 0 0 .272-.056.45.45 0 0 0 .181-.157.4.4 0 0 0 .067-.233.4.4 0 0 0-.068-.236.46.46 0 0 0-.184-.163.56.56 0 0 0-.268-.061q-.15 0-.267.061a.46.46 0 0 0-.185.163.4.4 0 0 0-.067.236q0 .131.065.233a.45.45 0 0 0 .183.157.6.6 0 0 0 .271.056m0-1.381a.5.5 0 0 0 .231-.053.4.4 0 0 0 .216-.362.39.39 0 0 0-.214-.355.5.5 0 0 0-.233-.053.5.5 0 0 0-.232.053.4.4 0 0 0-.159.143.4.4 0 0 0-.055.212q0 .121.057.216a.4.4 0 0 0 .159.146.5.5 0 0 0 .23.053m2.87 1.886a1.2 1.2 0 0 1-.671-.191 1.2 1.2 0 0 1-.43-.551 2.3 2.3 0 0 1-.148-.868q0-.505.15-.862.15-.356.43-.542t.668-.187q.388 0 .667.187.28.187.432.544.15.354.15.86 0 .509-.152.869-.15.361-.428.551-.28.19-.669.19m0-.542q.265 0 .423-.267.159-.267.157-.801 0-.352-.072-.586a.75.75 0 0 0-.202-.351.44.44 0 0 0-.307-.118q-.264 0-.422.264-.16.264-.16.791 0 .356.07.595a.8.8 0 0 0 .204.356q.132.117.308.117"/><path stroke="#f87171" stroke-dasharray="1.27 1.27" stroke-opacity=".5" stroke-width=".425" d="M37.827 161.678H243"/><path stroke="#94a3b8" stroke-dasharray="1.27 1.27" stroke-opacity=".5" stroke-width=".425" d="M37.827 192.037H243"/><mask id="mask0_334_293" width="206" height="91" x="37" y="121" maskUnits="userSpaceOnUse" style="mask-type:luminance"><path fill="#fff" d="M242.999 121H37.826v90.1H243z"/></mask><g mask="url(#mask0_334_293)"><path fill="url(#paint0_linear_334_293)" d="M37.826 189.001c13.678-12.143 27.357-24.286 41.035-24.286s27.356 15.178 41.034 15.178 27.357-19.428 41.035-19.428 27.357 16.393 41.035 16.393 27.356-3.036 41.034-6.072v39.465H37.826z"/><path stroke="#69a38d" stroke-width="1.063" d="M37.826 189.001c13.678-12.143 27.357-24.286 41.035-24.286s27.356 15.178 41.034 15.178 27.357-19.428 41.035-19.428 27.357 16.393 41.035 16.393 27.356-3.036 41.034-6.072"/></g></g><mask id="path-27-inside-1_334_293" fill="#fff"><path d="M98 234.745h9.222v1.153H98z"/></mask><path fill="#ff637e" d="M107.222 234.745v-.576h-1.025v1.152h1.025zm-2.05 0v-.576h-2.049v1.152h2.049zm-3.073 0v-.576h-2.049v1.152h2.049zm-3.074 0v-.576H98v1.152h1.025zm8.197 0v-1.153h-1.025v2.306h1.025zm-2.05 0v-1.153h-2.049v2.306h2.049zm-3.073 0v-1.153h-2.049v2.306h2.049zm-3.074 0v-1.153H98v2.306h1.025z" mask="url(#path-27-inside-1_334_293)"/><path fill="#e1e1e1" d="M114.011 237.039q-.444 0-.796-.144a1.3 1.3 0 0 1-.564-.426 1.17 1.17 0 0 1-.219-.68h1.048q.024.225.156.346a.5.5 0 0 0 .346.115.56.56 0 0 0 .346-.098.35.35 0 0 0 .126-.283.33.33 0 0 0-.103-.247.8.8 0 0 0-.248-.162 4 4 0 0 0-.415-.144 4.6 4.6 0 0 1-.64-.242 1.2 1.2 0 0 1-.426-.357q-.179-.236-.179-.617 0-.564.409-.882.409-.322 1.067-.322.668 0 1.077.322.41.317.438.888h-1.066a.41.41 0 0 0-.144-.306.5.5 0 0 0-.34-.115.42.42 0 0 0-.288.098q-.11.093-.11.271 0 .196.185.305.185.11.576.237.392.132.634.253.248.121.426.352.18.23.179.594 0 .345-.179.628a1.2 1.2 0 0 1-.507.449 1.74 1.74 0 0 1-.789.167m5.453-2.783q0 .351-.161.645a1.2 1.2 0 0 1-.496.467q-.334.179-.83.179h-.611v1.452h-.985v-4.046h1.596q.484 0 .819.167t.501.461q.167.294.167.675m-1.562.507q.283 0 .421-.133a.5.5 0 0 0 .138-.374q0-.243-.138-.375t-.421-.132h-.536v1.014zm3.349-1.81v4.046h-.986v-4.046zm3.348 4.046-1.36-1.787v1.787h-.986v-4.046h.986v1.775l1.348-1.775h1.159l-1.568 1.983 1.625 2.063zm2.946-3.256v.818h1.32v.761h-1.32v.887h1.493v.79h-2.478v-4.046h2.478v.79zm9.498-.79-1.055 4.046h-1.193l-.645-2.663-.669 2.663h-1.193l-1.026-4.046h1.055l.582 2.945.72-2.945h1.084l.692 2.945.587-2.945zm3.301 3.331h-1.51l-.242.715h-1.032l1.464-4.046h1.141l1.464 4.046h-1.043zm-.254-.76-.501-1.482-.496 1.482zm4.336 1.475-.842-1.527h-.236v1.527h-.985v-4.046h1.654q.478 0 .812.167.34.167.507.461.168.29.168.646 0 .404-.231.72-.225.317-.668.45l.933 1.602zm-1.078-2.225h.611q.271 0 .404-.132a.5.5 0 0 0 .138-.375.48.48 0 0 0-.138-.363q-.133-.132-.404-.132h-.611zm6.682 2.225h-.986l-1.648-2.495v2.495h-.986v-4.046h.986l1.648 2.507v-2.507h.986zm1.988-4.046v4.046h-.986v-4.046zm4.621 4.046h-.985l-1.648-2.495v2.495h-.986v-4.046h.986l1.648 2.507v-2.507h.985zm3.689-2.766a.7.7 0 0 0-.317-.306 1 1 0 0 0-.479-.109q-.478 0-.766.317-.288.311-.288.835 0 .56.299.876.306.312.836.312a1 1 0 0 0 .611-.185q.254-.185.369-.53h-1.251v-.726h2.144v.916a1.9 1.9 0 0 1-.375.686 1.9 1.9 0 0 1-.662.513 2.06 2.06 0 0 1-.911.196q-.599 0-1.072-.26a1.9 1.9 0 0 1-.732-.731 2.16 2.16 0 0 1-.259-1.067q0-.599.259-1.066.266-.472.732-.732a2.1 2.1 0 0 1 1.066-.265q.727 0 1.222.352.501.351.663.974z"/><path fill="#69a38d" d="M22.243 235.429a2.881 2.881 0 1 1 5.763 0 2.881 2.881 0 0 1-5.763 0"/><path fill="#e1e1e1" d="M36.017 234.341a.7.7 0 0 0-.317-.305 1 1 0 0 0-.478-.11q-.478 0-.767.317-.288.311-.288.836 0 .558.3.876.306.31.836.311a1 1 0 0 0 .61-.184q.255-.185.37-.531h-1.251v-.726h2.144v.917a1.9 1.9 0 0 1-.375.685 1.9 1.9 0 0 1-.663.513 2.05 2.05 0 0 1-.91.196q-.6 0-1.072-.259a1.9 1.9 0 0 1-.732-.732 2.16 2.16 0 0 1-.26-1.066q0-.6.26-1.066.265-.473.732-.732a2.1 2.1 0 0 1 1.066-.265q.726 0 1.222.351.501.351.663.974zm2.978 2.006h1.291v.76H38.01v-4.045h.985zm3.018-3.285v2.42q0 .364.178.559.18.196.525.196t.53-.196q.184-.195.184-.559v-2.42h.986v2.414q0 .542-.23.917-.231.375-.623.565a1.94 1.94 0 0 1-.864.19q-.48 0-.86-.185a1.4 1.4 0 0 1-.593-.564q-.219-.38-.219-.923v-2.414zm3.216 2.017q0-.6.26-1.066a1.83 1.83 0 0 1 .72-.732 2.1 2.1 0 0 1 1.054-.265q.72 0 1.234.38.512.38.686 1.037h-1.084a.87.87 0 0 0-.346-.386.95.95 0 0 0-.501-.132.94.94 0 0 0-.738.317q-.282.316-.282.847t.282.847a.94.94 0 0 0 .738.317.94.94 0 0 0 .501-.133.87.87 0 0 0 .346-.386h1.084a1.83 1.83 0 0 1-.686 1.038q-.513.374-1.233.374-.588 0-1.055-.259a1.9 1.9 0 0 1-.72-.732 2.16 2.16 0 0 1-.26-1.066m6.759 2.069q-.57 0-1.05-.265a2 2 0 0 1-.754-.738 2.1 2.1 0 0 1-.277-1.072q0-.594.277-1.066a2 2 0 0 1 .755-.738 2.1 2.1 0 0 1 1.049-.265q.57 0 1.043.265.479.265.75.738.276.472.276 1.066t-.277 1.072a2 2 0 0 1-.75.738 2.1 2.1 0 0 1-1.042.265m0-.899q.483 0 .772-.323.294-.323.294-.853 0-.536-.294-.853-.288-.323-.772-.323-.49 0-.784.317-.288.318-.288.859 0 .536.288.859.294.317.784.317m4.369.899q-.443 0-.795-.144a1.3 1.3 0 0 1-.565-.427 1.2 1.2 0 0 1-.22-.68h1.05q.023.225.155.346a.5.5 0 0 0 .346.115.55.55 0 0 0 .346-.098.35.35 0 0 0 .127-.282q0-.15-.104-.248a.8.8 0 0 0-.248-.161 4 4 0 0 0-.415-.144 4.5 4.5 0 0 1-.64-.243 1.2 1.2 0 0 1-.426-.357q-.179-.236-.179-.616 0-.565.41-.882.409-.323 1.066-.323.669 0 1.078.323.408.317.438.887h-1.067a.4.4 0 0 0-.144-.305.5.5 0 0 0-.34-.115.4.4 0 0 0-.288.098q-.11.091-.11.27 0 .196.185.306t.576.236q.393.133.634.254.249.12.427.351t.178.594q0 .345-.178.628a1.2 1.2 0 0 1-.507.45 1.75 1.75 0 0 1-.79.167m3.356-3.297v.819h1.32v.76h-1.32v.888h1.492v.789h-2.478v-4.045h2.478v.789zm4.915 2.496h1.291v.76h-2.276v-4.045h.985zm3.035-2.496v.819h1.32v.76h-1.32v.888h1.493v.789h-2.479v-4.045h2.479v.789zm6.219-.789-1.436 4.045h-1.233l-1.435-4.045h1.05l1.002 3.054 1.008-3.054zm1.685.789v.819h1.32v.76h-1.32v.888h1.493v.789h-2.478v-4.045h2.478v.789zm3.406 2.496h1.291v.76h-2.276v-4.045h.985z"/><defs><linearGradient id="paint0_linear_334_293" x1="37.826" x2="37.826" y1="160.465" y2="210.251" gradientUnits="userSpaceOnUse"><stop offset=".05" stop-color="#69a38d" stop-opacity=".3"/><stop offset=".95" stop-color="#69a38d" stop-opacity="0"/></linearGradient><clipPath id="clip0_334_293"><path fill="#fff" d="M16 121h227v102H16z"/></clipPath></defs></svg>