<svg width="264" height="313" viewBox="0 0 264 313" fill="none" xmlns="http://www.w3.org/2000/svg">
<path d="M0 9.99999C0 4.47715 4.47715 0 10 0H249.015C254.538 0 259.015 4.47715 259.015 10V303C259.015 308.523 254.538 313 249.015 313H10C4.47715 313 0 308.523 0 303V9.99999Z" fill="#D9D9D9" fill-opacity="0.2"/>
<path d="M29.6726 161.465C28.8966 161.465 28.1806 161.285 27.5246 160.925C26.8766 160.557 26.3606 160.049 25.9766 159.401C25.6006 158.745 25.4126 158.009 25.4126 157.193C25.4126 156.377 25.6006 155.645 25.9766 154.997C26.3606 154.349 26.8766 153.845 27.5246 153.485C28.1806 153.117 28.8966 152.933 29.6726 152.933C30.4566 152.933 31.1726 153.117 31.8206 153.485C32.4766 153.845 32.9926 154.349 33.3686 154.997C33.7446 155.645 33.9326 156.377 33.9326 157.193C33.9326 158.009 33.7446 158.745 33.3686 159.401C32.9926 160.049 32.4766 160.557 31.8206 160.925C31.1726 161.285 30.4566 161.465 29.6726 161.465ZM29.6726 160.277C30.2246 160.277 30.7166 160.153 31.1486 159.905C31.5806 159.649 31.9166 159.289 32.1566 158.825C32.4046 158.353 32.5286 157.809 32.5286 157.193C32.5286 156.577 32.4046 156.037 32.1566 155.573C31.9166 155.109 31.5806 154.753 31.1486 154.505C30.7166 154.257 30.2246 154.133 29.6726 154.133C29.1206 154.133 28.6286 154.257 28.1966 154.505C27.7646 154.753 27.4246 155.109 27.1766 155.573C26.9366 156.037 26.8166 156.577 26.8166 157.193C26.8166 157.809 26.9366 158.353 27.1766 158.825C27.4246 159.289 27.7646 159.649 28.1966 159.905C28.6286 160.153 29.1206 160.277 29.6726 160.277ZM41.5712 154.769V161.381H40.2032V160.601C39.9872 160.873 39.7032 161.089 39.3512 161.249C39.0072 161.401 38.6392 161.477 38.2472 161.477C37.7272 161.477 37.2592 161.369 36.8432 161.153C36.4352 160.937 36.1112 160.617 35.8712 160.193C35.6392 159.769 35.5232 159.257 35.5232 158.657V154.769H36.8792V158.453C36.8792 159.045 37.0272 159.501 37.3232 159.821C37.6192 160.133 38.0232 160.289 38.5352 160.289C39.0472 160.289 39.4512 160.133 39.7472 159.821C40.0512 159.501 40.2032 159.045 40.2032 158.453V154.769H41.5712ZM45.2765 155.885V159.545C45.2765 159.793 45.3325 159.973 45.4445 160.085C45.5645 160.189 45.7645 160.241 46.0445 160.241H46.8845V161.381H45.8045C45.1885 161.381 44.7165 161.237 44.3885 160.949C44.0605 160.661 43.8965 160.193 43.8965 159.545V155.885H43.1165V154.769H43.8965V153.125H45.2765V154.769H46.8845V155.885H45.2765ZM54.7393 161.489C54.1153 161.489 53.5513 161.349 53.0473 161.069C52.5433 160.781 52.1473 160.381 51.8593 159.869C51.5713 159.349 51.4273 158.749 51.4273 158.069C51.4273 157.397 51.5753 156.801 51.8713 156.281C52.1673 155.761 52.5713 155.361 53.0833 155.081C53.5953 154.801 54.1673 154.661 54.7993 154.661C55.4313 154.661 56.0033 154.801 56.5153 155.081C57.0273 155.361 57.4313 155.761 57.7273 156.281C58.0233 156.801 58.1713 157.397 58.1713 158.069C58.1713 158.741 58.0193 159.337 57.7153 159.857C57.4113 160.377 56.9953 160.781 56.4673 161.069C55.9473 161.349 55.3713 161.489 54.7393 161.489ZM54.7393 160.301C55.0913 160.301 55.4193 160.217 55.7233 160.049C56.0353 159.881 56.2873 159.629 56.4793 159.293C56.6713 158.957 56.7673 158.549 56.7673 158.069C56.7673 157.589 56.6753 157.185 56.4913 156.857C56.3073 156.521 56.0633 156.269 55.7593 156.101C55.4553 155.933 55.1273 155.849 54.7753 155.849C54.4233 155.849 54.0953 155.933 53.7913 156.101C53.4953 156.269 53.2593 156.521 53.0833 156.857C52.9073 157.185 52.8193 157.589 52.8193 158.069C52.8193 158.781 52.9993 159.333 53.3593 159.725C53.7273 160.109 54.1873 160.301 54.7393 160.301ZM62.6 155.885H61.376V161.381H59.996V155.885H59.216V154.769H59.996V154.301C59.996 153.541 60.196 152.989 60.596 152.645C61.004 152.293 61.64 152.117 62.504 152.117V153.257C62.088 153.257 61.796 153.337 61.628 153.497C61.46 153.649 61.376 153.917 61.376 154.301V154.769H62.6V155.885ZM68.9064 155.729C69.1064 155.393 69.3704 155.133 69.6984 154.949C70.0344 154.757 70.4304 154.661 70.8864 154.661V156.077H70.5384C70.0024 156.077 69.5944 156.213 69.3144 156.485C69.0424 156.757 68.9064 157.229 68.9064 157.901V161.381H67.5384V154.769H68.9064V155.729ZM71.9922 158.045C71.9922 157.381 72.1282 156.793 72.4002 156.281C72.6802 155.769 73.0562 155.373 73.5282 155.093C74.0082 154.805 74.5362 154.661 75.1122 154.661C75.6322 154.661 76.0842 154.765 76.4682 154.973C76.8602 155.173 77.1722 155.425 77.4042 155.729V154.769H78.7842V161.381H77.4042V160.397C77.1722 160.709 76.8562 160.969 76.4562 161.177C76.0562 161.385 75.6002 161.489 75.0882 161.489C74.5202 161.489 74.0002 161.345 73.5282 161.057C73.0562 160.761 72.6802 160.353 72.4002 159.833C72.1282 159.305 71.9922 158.709 71.9922 158.045ZM77.4042 158.069C77.4042 157.613 77.3082 157.217 77.1162 156.881C76.9322 156.545 76.6882 156.289 76.3842 156.113C76.0802 155.937 75.7522 155.849 75.4002 155.849C75.0482 155.849 74.7202 155.937 74.4162 156.113C74.1122 156.281 73.8642 156.533 73.6722 156.869C73.4882 157.197 73.3962 157.589 73.3962 158.045C73.3962 158.501 73.4882 158.901 73.6722 159.245C73.8642 159.589 74.1122 159.853 74.4162 160.037C74.7282 160.213 75.0562 160.301 75.4002 160.301C75.7522 160.301 76.0802 160.213 76.3842 160.037C76.6882 159.861 76.9322 159.605 77.1162 159.269C77.3082 158.925 77.4042 158.525 77.4042 158.069ZM84.2214 154.661C84.7414 154.661 85.2054 154.769 85.6134 154.985C86.0294 155.201 86.3534 155.521 86.5854 155.945C86.8174 156.369 86.9334 156.881 86.9334 157.481V161.381H85.5774V157.685C85.5774 157.093 85.4294 156.641 85.1334 156.329C84.8374 156.009 84.4334 155.849 83.9214 155.849C83.4094 155.849 83.0014 156.009 82.6974 156.329C82.4014 156.641 82.2534 157.093 82.2534 157.685V161.381H80.8854V154.769H82.2534V155.525C82.4774 155.253 82.7614 155.041 83.1054 154.889C83.4574 154.737 83.8294 154.661 84.2214 154.661ZM91.6467 154.661C92.1587 154.661 92.6107 154.765 93.0027 154.973C93.4027 155.173 93.7147 155.425 93.9387 155.729V154.769H95.3187V161.489C95.3187 162.097 95.1907 162.637 94.9347 163.109C94.6787 163.589 94.3067 163.965 93.8187 164.237C93.3387 164.509 92.7627 164.645 92.0907 164.645C91.1947 164.645 90.4507 164.433 89.8587 164.009C89.2667 163.593 88.9307 163.025 88.8507 162.305H90.2067C90.3107 162.649 90.5307 162.925 90.8667 163.133C91.2107 163.349 91.6187 163.457 92.0907 163.457C92.6427 163.457 93.0867 163.289 93.4227 162.953C93.7667 162.617 93.9387 162.129 93.9387 161.489V160.385C93.7067 160.697 93.3907 160.961 92.9907 161.177C92.5987 161.385 92.1507 161.489 91.6467 161.489C91.0707 161.489 90.5427 161.345 90.0627 161.057C89.5907 160.761 89.2147 160.353 88.9347 159.833C88.6627 159.305 88.5267 158.709 88.5267 158.045C88.5267 157.381 88.6627 156.793 88.9347 156.281C89.2147 155.769 89.5907 155.373 90.0627 155.093C90.5427 154.805 91.0707 154.661 91.6467 154.661ZM93.9387 158.069C93.9387 157.613 93.8427 157.217 93.6507 156.881C93.4667 156.545 93.2227 156.289 92.9187 156.113C92.6147 155.937 92.2867 155.849 91.9347 155.849C91.5827 155.849 91.2547 155.937 90.9507 156.113C90.6467 156.281 90.3987 156.533 90.2067 156.869C90.0227 157.197 89.9307 157.589 89.9307 158.045C89.9307 158.501 90.0227 158.901 90.2067 159.245C90.3987 159.589 90.6467 159.853 90.9507 160.037C91.2627 160.213 91.5907 160.301 91.9347 160.301C92.2867 160.301 92.6147 160.213 92.9187 160.037C93.2227 159.861 93.4667 159.605 93.6507 159.269C93.8427 158.925 93.9387 158.525 93.9387 158.069ZM103.48 157.913C103.48 158.161 103.464 158.385 103.432 158.585H98.3799C98.4199 159.113 98.6159 159.537 98.9679 159.857C99.3199 160.177 99.7519 160.337 100.264 160.337C101 160.337 101.52 160.029 101.824 159.413H103.3C103.1 160.021 102.736 160.521 102.208 160.913C101.688 161.297 101.04 161.489 100.264 161.489C99.6319 161.489 99.0639 161.349 98.5599 161.069C98.0639 160.781 97.6719 160.381 97.3839 159.869C97.1039 159.349 96.9639 158.749 96.9639 158.069C96.9639 157.389 97.0999 156.793 97.3719 156.281C97.6519 155.761 98.0399 155.361 98.5359 155.081C99.0399 154.801 99.6159 154.661 100.264 154.661C100.888 154.661 101.444 154.797 101.932 155.069C102.42 155.341 102.8 155.725 103.072 156.221C103.344 156.709 103.48 157.273 103.48 157.913ZM102.052 157.481C102.044 156.977 101.864 156.573 101.512 156.269C101.16 155.965 100.724 155.813 100.204 155.813C99.7319 155.813 99.3279 155.965 98.9919 156.269C98.6559 156.565 98.4559 156.969 98.3919 157.481H102.052ZM113.628 156.461V157.613H108.696V156.461H113.628ZM118.938 153.881V152.633H121.434V161.381H120.054V153.881H118.938ZM128.321 154.661C128.233 154.293 128.073 154.017 127.841 153.833C127.609 153.649 127.285 153.557 126.869 153.557C126.237 153.557 125.765 153.801 125.453 154.289C125.141 154.769 124.977 155.569 124.961 156.689C125.169 156.337 125.473 156.065 125.873 155.873C126.273 155.681 126.705 155.585 127.169 155.585C127.697 155.585 128.161 155.701 128.561 155.933C128.969 156.157 129.285 156.485 129.509 156.917C129.741 157.349 129.857 157.865 129.857 158.465C129.857 159.025 129.745 159.525 129.521 159.965C129.305 160.405 128.981 160.753 128.549 161.009C128.117 161.257 127.597 161.381 126.989 161.381C126.165 161.381 125.517 161.201 125.045 160.841C124.581 160.473 124.253 159.957 124.061 159.293C123.877 158.629 123.785 157.801 123.785 156.809C123.785 153.881 124.817 152.417 126.881 152.417C127.681 152.417 128.309 152.633 128.765 153.065C129.229 153.497 129.501 154.029 129.581 154.661H128.321ZM126.869 156.737C126.381 156.737 125.965 156.885 125.621 157.181C125.285 157.469 125.117 157.889 125.117 158.441C125.117 158.993 125.273 159.433 125.585 159.761C125.905 160.081 126.349 160.241 126.917 160.241C127.421 160.241 127.817 160.085 128.105 159.773C128.401 159.461 128.549 159.045 128.549 158.525C128.549 157.981 128.405 157.549 128.117 157.229C127.837 156.901 127.421 156.737 126.869 156.737ZM131.441 153.881V152.633H133.937V161.381H132.557V153.881H131.441ZM147.726 154.661C148.246 154.661 148.71 154.769 149.118 154.985C149.534 155.201 149.858 155.521 150.09 155.945C150.33 156.369 150.45 156.881 150.45 157.481V161.381H149.094V157.685C149.094 157.093 148.946 156.641 148.65 156.329C148.354 156.009 147.95 155.849 147.438 155.849C146.926 155.849 146.518 156.009 146.214 156.329C145.918 156.641 145.77 157.093 145.77 157.685V161.381H144.414V157.685C144.414 157.093 144.266 156.641 143.97 156.329C143.674 156.009 143.27 155.849 142.758 155.849C142.246 155.849 141.838 156.009 141.534 156.329C141.238 156.641 141.09 157.093 141.09 157.685V161.381H139.722V154.769H141.09V155.525C141.314 155.253 141.598 155.041 141.942 154.889C142.286 154.737 142.654 154.661 143.046 154.661C143.574 154.661 144.046 154.773 144.462 154.997C144.878 155.221 145.198 155.545 145.422 155.969C145.622 155.569 145.934 155.253 146.358 155.021C146.782 154.781 147.238 154.661 147.726 154.661ZM155.159 154.661C155.671 154.661 156.123 154.765 156.515 154.973C156.915 155.173 157.227 155.425 157.451 155.729V154.769H158.831V161.489C158.831 162.097 158.703 162.637 158.447 163.109C158.191 163.589 157.819 163.965 157.331 164.237C156.851 164.509 156.275 164.645 155.603 164.645C154.707 164.645 153.963 164.433 153.371 164.009C152.779 163.593 152.443 163.025 152.363 162.305H153.719C153.823 162.649 154.043 162.925 154.379 163.133C154.723 163.349 155.131 163.457 155.603 163.457C156.155 163.457 156.599 163.289 156.935 162.953C157.279 162.617 157.451 162.129 157.451 161.489V160.385C157.219 160.697 156.903 160.961 156.503 161.177C156.111 161.385 155.663 161.489 155.159 161.489C154.583 161.489 154.055 161.345 153.575 161.057C153.103 160.761 152.727 160.353 152.447 159.833C152.175 159.305 152.039 158.709 152.039 158.045C152.039 157.381 152.175 156.793 152.447 156.281C152.727 155.769 153.103 155.373 153.575 155.093C154.055 154.805 154.583 154.661 155.159 154.661ZM157.451 158.069C157.451 157.613 157.355 157.217 157.163 156.881C156.979 156.545 156.735 156.289 156.431 156.113C156.127 155.937 155.799 155.849 155.447 155.849C155.095 155.849 154.767 155.937 154.463 156.113C154.159 156.281 153.911 156.533 153.719 156.869C153.535 157.197 153.443 157.589 153.443 158.045C153.443 158.501 153.535 158.901 153.719 159.245C153.911 159.589 154.159 159.853 154.463 160.037C154.775 160.213 155.103 160.301 155.447 160.301C155.799 160.301 156.127 160.213 156.431 160.037C156.735 159.861 156.979 159.605 157.163 159.269C157.355 158.925 157.451 158.525 157.451 158.069ZM165.372 150.053L162.108 163.481H160.764L164.016 150.053H165.372ZM166.945 158.045C166.945 157.381 167.081 156.793 167.353 156.281C167.633 155.769 168.009 155.373 168.481 155.093C168.961 154.805 169.493 154.661 170.077 154.661C170.509 154.661 170.933 154.757 171.349 154.949C171.773 155.133 172.109 155.381 172.357 155.693V152.501H173.737V161.381H172.357V160.385C172.133 160.705 171.821 160.969 171.421 161.177C171.029 161.385 170.577 161.489 170.065 161.489C169.489 161.489 168.961 161.345 168.481 161.057C168.009 160.761 167.633 160.353 167.353 159.833C167.081 159.305 166.945 158.709 166.945 158.045ZM172.357 158.069C172.357 157.613 172.261 157.217 172.069 156.881C171.885 156.545 171.641 156.289 171.337 156.113C171.033 155.937 170.705 155.849 170.353 155.849C170.001 155.849 169.673 155.937 169.369 156.113C169.065 156.281 168.817 156.533 168.625 156.869C168.441 157.197 168.349 157.589 168.349 158.045C168.349 158.501 168.441 158.901 168.625 159.245C168.817 159.589 169.065 159.853 169.369 160.037C169.681 160.213 170.009 160.301 170.353 160.301C170.705 160.301 171.033 160.213 171.337 160.037C171.641 159.861 171.885 159.605 172.069 159.269C172.261 158.925 172.357 158.525 172.357 158.069ZM177.206 160.277H180.026V161.381H175.838V153.041H177.206V160.277Z" fill="#CD4343"/>
<path d="M11.8692 71.7913V80.1553H10.7772V71.7913H11.8692ZM17.2387 73.4593C18.0387 73.4593 18.6867 73.7033 19.1827 74.1913C19.6787 74.6713 19.9267 75.3673 19.9267 76.2793V80.1553H18.8467V76.4353C18.8467 75.7793 18.6827 75.2793 18.3547 74.9353C18.0267 74.5833 17.5787 74.4073 17.0107 74.4073C16.4347 74.4073 15.9747 74.5873 15.6307 74.9473C15.2947 75.3073 15.1267 75.8313 15.1267 76.5193V80.1553H14.0347V73.5793H15.1267V74.5153C15.3427 74.1793 15.6347 73.9193 16.0027 73.7353C16.3787 73.5513 16.7907 73.4593 17.2387 73.4593ZM21.6069 76.8433C21.6069 76.1713 21.7429 75.5833 22.0149 75.0793C22.2869 74.5673 22.6589 74.1713 23.1309 73.8913C23.6109 73.6113 24.1469 73.4713 24.7389 73.4713C25.2509 73.4713 25.7269 73.5913 26.1669 73.8313C26.6069 74.0633 26.9429 74.3713 27.1749 74.7553V71.2753H28.2789V80.1553H27.1749V78.9193C26.9589 79.3113 26.6389 79.6353 26.2149 79.8913C25.7909 80.1393 25.2949 80.2633 24.7269 80.2633C24.1429 80.2633 23.6109 80.1193 23.1309 79.8313C22.6589 79.5433 22.2869 79.1393 22.0149 78.6193C21.7429 78.0993 21.6069 77.5073 21.6069 76.8433ZM27.1749 76.8553C27.1749 76.3593 27.0749 75.9273 26.8749 75.5593C26.6749 75.1913 26.4029 74.9113 26.0589 74.7193C25.7229 74.5193 25.3509 74.4193 24.9429 74.4193C24.5349 74.4193 24.1629 74.5153 23.8269 74.7073C23.4909 74.8993 23.2229 75.1793 23.0229 75.5473C22.8229 75.9153 22.7229 76.3473 22.7229 76.8433C22.7229 77.3473 22.8229 77.7873 23.0229 78.1633C23.2229 78.5313 23.4909 78.8153 23.8269 79.0153C24.1629 79.2073 24.5349 79.3033 24.9429 79.3033C25.3509 79.3033 25.7229 79.2073 26.0589 79.0153C26.4029 78.8153 26.6749 78.5313 26.8749 78.1633C27.0749 77.7873 27.1749 77.3513 27.1749 76.8553ZM30.9926 72.5113C30.7846 72.5113 30.6086 72.4393 30.4646 72.2953C30.3206 72.1513 30.2486 71.9753 30.2486 71.7673C30.2486 71.5593 30.3206 71.3833 30.4646 71.2393C30.6086 71.0953 30.7846 71.0233 30.9926 71.0233C31.1926 71.0233 31.3606 71.0953 31.4966 71.2393C31.6406 71.3833 31.7126 71.5593 31.7126 71.7673C31.7126 71.9753 31.6406 72.1513 31.4966 72.2953C31.3606 72.4393 31.1926 72.5113 30.9926 72.5113ZM31.5206 73.5793V80.1553H30.4286V73.5793H31.5206ZM33.2781 76.8553C33.2781 76.1753 33.4141 75.5833 33.6861 75.0793C33.9581 74.5673 34.3341 74.1713 34.8141 73.8913C35.3021 73.6113 35.8581 73.4713 36.4821 73.4713C37.2901 73.4713 37.9541 73.6673 38.4741 74.0593C39.0021 74.4513 39.3501 74.9953 39.5181 75.6913H38.3421C38.2301 75.2913 38.0101 74.9753 37.6821 74.7433C37.3621 74.5113 36.9621 74.3953 36.4821 74.3953C35.8581 74.3953 35.3541 74.6113 34.9701 75.0433C34.5861 75.4673 34.3941 76.0713 34.3941 76.8553C34.3941 77.6473 34.5861 78.2593 34.9701 78.6913C35.3541 79.1233 35.8581 79.3393 36.4821 79.3393C36.9621 79.3393 37.3621 79.2273 37.6821 79.0033C38.0021 78.7793 38.2221 78.4593 38.3421 78.0433H39.5181C39.3421 78.7153 38.9901 79.2553 38.4621 79.6633C37.9341 80.0633 37.2741 80.2633 36.4821 80.2633C35.8581 80.2633 35.3021 80.1233 34.8141 79.8433C34.3341 79.5633 33.9581 79.1673 33.6861 78.6553C33.4141 78.1433 33.2781 77.5433 33.2781 76.8553ZM40.8716 76.8433C40.8716 76.1713 41.0076 75.5833 41.2796 75.0793C41.5516 74.5673 41.9236 74.1713 42.3956 73.8913C42.8756 73.6113 43.4076 73.4713 43.9916 73.4713C44.5676 73.4713 45.0676 73.5953 45.4916 73.8433C45.9156 74.0913 46.2316 74.4033 46.4396 74.7793V73.5793H47.5436V80.1553H46.4396V78.9313C46.2236 79.3153 45.8996 79.6353 45.4676 79.8913C45.0436 80.1393 44.5476 80.2633 43.9796 80.2633C43.3956 80.2633 42.8676 80.1193 42.3956 79.8313C41.9236 79.5433 41.5516 79.1393 41.2796 78.6193C41.0076 78.0993 40.8716 77.5073 40.8716 76.8433ZM46.4396 76.8553C46.4396 76.3593 46.3396 75.9273 46.1396 75.5593C45.9396 75.1913 45.6676 74.9113 45.3236 74.7193C44.9876 74.5193 44.6156 74.4193 44.2076 74.4193C43.7996 74.4193 43.4276 74.5153 43.0916 74.7073C42.7556 74.8993 42.4876 75.1793 42.2876 75.5473C42.0876 75.9153 41.9876 76.3473 41.9876 76.8433C41.9876 77.3473 42.0876 77.7873 42.2876 78.1633C42.4876 78.5313 42.7556 78.8153 43.0916 79.0153C43.4276 79.2073 43.7996 79.3033 44.2076 79.3033C44.6156 79.3033 44.9876 79.2073 45.3236 79.0153C45.6676 78.8153 45.9396 78.5313 46.1396 78.1633C46.3396 77.7873 46.4396 77.3513 46.4396 76.8553ZM51.0253 74.4793V78.3553C51.0253 78.6753 51.0933 78.9033 51.2293 79.0393C51.3653 79.1673 51.6013 79.2313 51.9373 79.2313H52.7413V80.1553H51.7573C51.1493 80.1553 50.6933 80.0153 50.3893 79.7353C50.0853 79.4553 49.9333 78.9953 49.9333 78.3553V74.4793H49.0813V73.5793H49.9333V71.9233H51.0253V73.5793H52.7413V74.4793H51.0253ZM57.2368 80.2633C56.6208 80.2633 56.0608 80.1233 55.5568 79.8433C55.0608 79.5633 54.6688 79.1673 54.3808 78.6553C54.1008 78.1353 53.9608 77.5353 53.9608 76.8553C53.9608 76.1833 54.1048 75.5913 54.3928 75.0793C54.6888 74.5593 55.0888 74.1633 55.5928 73.8913C56.0968 73.6113 56.6608 73.4713 57.2848 73.4713C57.9088 73.4713 58.4728 73.6113 58.9768 73.8913C59.4808 74.1633 59.8768 74.5553 60.1648 75.0673C60.4608 75.5793 60.6088 76.1753 60.6088 76.8553C60.6088 77.5353 60.4568 78.1353 60.1528 78.6553C59.8568 79.1673 59.4528 79.5633 58.9408 79.8433C58.4288 80.1233 57.8608 80.2633 57.2368 80.2633ZM57.2368 79.3033C57.6288 79.3033 57.9968 79.2113 58.3408 79.0273C58.6848 78.8433 58.9608 78.5673 59.1688 78.1993C59.3848 77.8313 59.4928 77.3833 59.4928 76.8553C59.4928 76.3273 59.3888 75.8793 59.1808 75.5113C58.9728 75.1433 58.7008 74.8713 58.3648 74.6953C58.0288 74.5113 57.6648 74.4193 57.2728 74.4193C56.8728 74.4193 56.5048 74.5113 56.1688 74.6953C55.8408 74.8713 55.5768 75.1433 55.3768 75.5113C55.1768 75.8793 55.0768 76.3273 55.0768 76.8553C55.0768 77.3913 55.1728 77.8433 55.3648 78.2113C55.5648 78.5793 55.8288 78.8553 56.1568 79.0393C56.4848 79.2153 56.8448 79.3033 57.2368 79.3033ZM63.441 74.6473C63.633 74.2713 63.905 73.9793 64.257 73.7713C64.617 73.5633 65.053 73.4593 65.565 73.4593V74.5873H65.277C64.053 74.5873 63.441 75.2513 63.441 76.5793V80.1553H62.349V73.5793H63.441V74.6473ZM69.4579 80.2633C68.9539 80.2633 68.5019 80.1793 68.1019 80.0113C67.7019 79.8353 67.3859 79.5953 67.1539 79.2913C66.9219 78.9793 66.7939 78.6233 66.7699 78.2233H67.8979C67.9299 78.5513 68.0819 78.8193 68.3539 79.0273C68.6339 79.2353 68.9979 79.3393 69.4459 79.3393C69.8619 79.3393 70.1899 79.2473 70.4299 79.0633C70.6699 78.8793 70.7899 78.6473 70.7899 78.3673C70.7899 78.0793 70.6619 77.8673 70.4059 77.7313C70.1499 77.5873 69.7539 77.4473 69.2179 77.3113C68.7299 77.1833 68.3299 77.0553 68.0179 76.9273C67.7139 76.7913 67.4499 76.5953 67.2259 76.3393C67.0099 76.0753 66.9019 75.7313 66.9019 75.3073C66.9019 74.9713 67.0019 74.6633 67.2019 74.3833C67.4019 74.1033 67.6859 73.8833 68.0539 73.7233C68.4219 73.5553 68.8419 73.4713 69.3139 73.4713C70.0419 73.4713 70.6299 73.6553 71.0779 74.0233C71.5259 74.3913 71.7659 74.8953 71.7979 75.5353H70.7059C70.6819 75.1913 70.5419 74.9153 70.2859 74.7073C70.0379 74.4993 69.7019 74.3953 69.2779 74.3953C68.8859 74.3953 68.5739 74.4793 68.3419 74.6473C68.1099 74.8153 67.9939 75.0353 67.9939 75.3073C67.9939 75.5233 68.0619 75.7033 68.1979 75.8473C68.3419 75.9833 68.5179 76.0953 68.7259 76.1833C68.9419 76.2633 69.2379 76.3553 69.6139 76.4593C70.0859 76.5873 70.4699 76.7153 70.7659 76.8433C71.0619 76.9633 71.3139 77.1473 71.5219 77.3953C71.7379 77.6433 71.8499 77.9673 71.8579 78.3673C71.8579 78.7273 71.7579 79.0513 71.5579 79.3393C71.3579 79.6273 71.0739 79.8553 70.7059 80.0233C70.3459 80.1833 69.9299 80.2633 69.4579 80.2633ZM78.2994 74.6473C78.4914 74.2713 78.7634 73.9793 79.1154 73.7713C79.4754 73.5633 79.9114 73.4593 80.4234 73.4593V74.5873H80.1354C78.9114 74.5873 78.2994 75.2513 78.2994 76.5793V80.1553H77.2074V73.5793H78.2994V74.6473ZM82.5524 72.5113C82.3444 72.5113 82.1684 72.4393 82.0244 72.2953C81.8804 72.1513 81.8084 71.9753 81.8084 71.7673C81.8084 71.5593 81.8804 71.3833 82.0244 71.2393C82.1684 71.0953 82.3444 71.0233 82.5524 71.0233C82.7524 71.0233 82.9204 71.0953 83.0564 71.2393C83.2004 71.3833 83.2724 71.5593 83.2724 71.7673C83.2724 71.9753 83.2004 72.1513 83.0564 72.2953C82.9204 72.4393 82.7524 72.5113 82.5524 72.5113ZM83.0804 73.5793V80.1553H81.9884V73.5793H83.0804ZM87.5739 80.2633C87.0699 80.2633 86.6179 80.1793 86.2179 80.0113C85.8179 79.8353 85.5019 79.5953 85.2699 79.2913C85.0379 78.9793 84.9099 78.6233 84.8859 78.2233H86.0139C86.0459 78.5513 86.1979 78.8193 86.4699 79.0273C86.7499 79.2353 87.1139 79.3393 87.5619 79.3393C87.9779 79.3393 88.3059 79.2473 88.5459 79.0633C88.7859 78.8793 88.9059 78.6473 88.9059 78.3673C88.9059 78.0793 88.7779 77.8673 88.5219 77.7313C88.2659 77.5873 87.8699 77.4473 87.3339 77.3113C86.8459 77.1833 86.4459 77.0553 86.1339 76.9273C85.8299 76.7913 85.5659 76.5953 85.3419 76.3393C85.1259 76.0753 85.0179 75.7313 85.0179 75.3073C85.0179 74.9713 85.1179 74.6633 85.3179 74.3833C85.5179 74.1033 85.8019 73.8833 86.1699 73.7233C86.5379 73.5553 86.9579 73.4713 87.4299 73.4713C88.1579 73.4713 88.7459 73.6553 89.1939 74.0233C89.6419 74.3913 89.8819 74.8953 89.9139 75.5353H88.8219C88.7979 75.1913 88.6579 74.9153 88.4019 74.7073C88.1539 74.4993 87.8179 74.3953 87.3939 74.3953C87.0019 74.3953 86.6899 74.4793 86.4579 74.6473C86.2259 74.8153 86.1099 75.0353 86.1099 75.3073C86.1099 75.5233 86.1779 75.7033 86.3139 75.8473C86.4579 75.9833 86.6339 76.0953 86.8419 76.1833C87.0579 76.2633 87.3539 76.3553 87.7299 76.4593C88.2019 76.5873 88.5859 76.7153 88.8819 76.8433C89.1779 76.9633 89.4299 77.1473 89.6379 77.3953C89.8539 77.6433 89.9659 77.9673 89.9739 78.3673C89.9739 78.7273 89.8739 79.0513 89.6739 79.3393C89.4739 79.6273 89.1899 79.8553 88.8219 80.0233C88.4619 80.1833 88.0459 80.2633 87.5739 80.2633ZM95.4918 80.1553L92.9118 77.2513V80.1553H91.8198V71.2753H92.9118V76.4953L95.4438 73.5793H96.9678L93.8718 76.8553L96.9798 80.1553H95.4918ZM104.672 80.2633C104.056 80.2633 103.496 80.1233 102.992 79.8433C102.496 79.5633 102.104 79.1673 101.816 78.6553C101.536 78.1353 101.396 77.5353 101.396 76.8553C101.396 76.1833 101.54 75.5913 101.828 75.0793C102.124 74.5593 102.524 74.1633 103.028 73.8913C103.532 73.6113 104.096 73.4713 104.72 73.4713C105.344 73.4713 105.908 73.6113 106.412 73.8913C106.916 74.1633 107.312 74.5553 107.6 75.0673C107.896 75.5793 108.044 76.1753 108.044 76.8553C108.044 77.5353 107.892 78.1353 107.588 78.6553C107.292 79.1673 106.888 79.5633 106.376 79.8433C105.864 80.1233 105.296 80.2633 104.672 80.2633ZM104.672 79.3033C105.064 79.3033 105.432 79.2113 105.776 79.0273C106.12 78.8433 106.396 78.5673 106.604 78.1993C106.82 77.8313 106.928 77.3833 106.928 76.8553C106.928 76.3273 106.824 75.8793 106.616 75.5113C106.408 75.1433 106.136 74.8713 105.8 74.6953C105.464 74.5113 105.1 74.4193 104.708 74.4193C104.308 74.4193 103.94 74.5113 103.604 74.6953C103.276 74.8713 103.012 75.1433 102.812 75.5113C102.612 75.8793 102.512 76.3273 102.512 76.8553C102.512 77.3913 102.608 77.8433 102.8 78.2113C103 78.5793 103.264 78.8553 103.592 79.0393C103.92 79.2153 104.28 79.3033 104.672 79.3033ZM112.46 74.4793H111.08V80.1553H109.988V74.4793H109.136V73.5793H109.988V73.1113C109.988 72.3753 110.176 71.8393 110.552 71.5033C110.936 71.1593 111.548 70.9873 112.388 70.9873V71.8993C111.908 71.8993 111.568 71.9953 111.368 72.1873C111.176 72.3713 111.08 72.6793 111.08 73.1113V73.5793H112.46V74.4793ZM120.805 73.4593C121.301 73.4593 121.749 73.5673 122.149 73.7833C122.549 73.9913 122.861 74.3073 123.085 74.7313C123.317 75.1553 123.433 75.6713 123.433 76.2793V80.1553H122.353V76.4353C122.353 75.7793 122.189 75.2793 121.861 74.9353C121.533 74.5833 121.085 74.4073 120.517 74.4073C119.941 74.4073 119.481 74.5873 119.137 74.9473C118.801 75.3073 118.633 75.8313 118.633 76.5193V80.1553H117.541V71.2753H118.633V74.5153C118.849 74.1793 119.145 73.9193 119.521 73.7353C119.905 73.5513 120.333 73.4593 120.805 73.4593ZM131.521 76.6153C131.521 76.8233 131.509 77.0433 131.485 77.2753H126.229C126.269 77.9233 126.489 78.4313 126.889 78.7993C127.297 79.1593 127.789 79.3393 128.365 79.3393C128.837 79.3393 129.229 79.2313 129.541 79.0153C129.861 78.7913 130.085 78.4953 130.213 78.1273H131.389C131.213 78.7593 130.861 79.2753 130.333 79.6753C129.805 80.0673 129.149 80.2633 128.365 80.2633C127.741 80.2633 127.181 80.1233 126.685 79.8433C126.197 79.5633 125.813 79.1673 125.533 78.6553C125.253 78.1353 125.113 77.5353 125.113 76.8553C125.113 76.1753 125.249 75.5793 125.521 75.0673C125.793 74.5553 126.173 74.1633 126.661 73.8913C127.157 73.6113 127.725 73.4713 128.365 73.4713C128.989 73.4713 129.541 73.6073 130.021 73.8793C130.501 74.1513 130.869 74.5273 131.125 75.0073C131.389 75.4793 131.521 76.0153 131.521 76.6153ZM130.393 76.3873C130.393 75.9713 130.301 75.6153 130.117 75.3193C129.933 75.0153 129.681 74.7873 129.361 74.6353C129.049 74.4753 128.701 74.3953 128.317 74.3953C127.765 74.3953 127.293 74.5713 126.901 74.9233C126.517 75.2753 126.297 75.7633 126.241 76.3873H130.393ZM132.859 76.8433C132.859 76.1713 132.995 75.5833 133.267 75.0793C133.539 74.5673 133.911 74.1713 134.383 73.8913C134.863 73.6113 135.395 73.4713 135.979 73.4713C136.555 73.4713 137.055 73.5953 137.479 73.8433C137.903 74.0913 138.219 74.4033 138.427 74.7793V73.5793H139.531V80.1553H138.427V78.9313C138.211 79.3153 137.887 79.6353 137.455 79.8913C137.031 80.1393 136.535 80.2633 135.967 80.2633C135.383 80.2633 134.855 80.1193 134.383 79.8313C133.911 79.5433 133.539 79.1393 133.267 78.6193C132.995 78.0993 132.859 77.5073 132.859 76.8433ZM138.427 76.8553C138.427 76.3593 138.327 75.9273 138.127 75.5593C137.927 75.1913 137.655 74.9113 137.311 74.7193C136.975 74.5193 136.603 74.4193 136.195 74.4193C135.787 74.4193 135.415 74.5153 135.079 74.7073C134.743 74.8993 134.475 75.1793 134.275 75.5473C134.075 75.9153 133.975 76.3473 133.975 76.8433C133.975 77.3473 134.075 77.7873 134.275 78.1633C134.475 78.5313 134.743 78.8153 135.079 79.0153C135.415 79.2073 135.787 79.3033 136.195 79.3033C136.603 79.3033 136.975 79.2073 137.311 79.0153C137.655 78.8153 137.927 78.5313 138.127 78.1633C138.327 77.7873 138.427 77.3513 138.427 76.8553ZM142.773 74.6473C142.965 74.2713 143.237 73.9793 143.589 73.7713C143.949 73.5633 144.385 73.4593 144.897 73.4593V74.5873H144.609C143.385 74.5873 142.773 75.2513 142.773 76.5793V80.1553H141.681V73.5793H142.773V74.6473ZM147.794 74.4793V78.3553C147.794 78.6753 147.862 78.9033 147.998 79.0393C148.134 79.1673 148.37 79.2313 148.706 79.2313H149.51V80.1553H148.526C147.918 80.1553 147.462 80.0153 147.158 79.7353C146.854 79.4553 146.702 78.9953 146.702 78.3553V74.4793H145.85V73.5793H146.702V71.9233H147.794V73.5793H149.51V74.4793H147.794ZM154.233 76.8433C154.233 76.1713 154.369 75.5833 154.641 75.0793C154.913 74.5673 155.285 74.1713 155.757 73.8913C156.237 73.6113 156.773 73.4713 157.365 73.4713C157.877 73.4713 158.353 73.5913 158.793 73.8313C159.233 74.0633 159.569 74.3713 159.801 74.7553V71.2753H160.905V80.1553H159.801V78.9193C159.585 79.3113 159.265 79.6353 158.841 79.8913C158.417 80.1393 157.921 80.2633 157.353 80.2633C156.769 80.2633 156.237 80.1193 155.757 79.8313C155.285 79.5433 154.913 79.1393 154.641 78.6193C154.369 78.0993 154.233 77.5073 154.233 76.8433ZM159.801 76.8553C159.801 76.3593 159.701 75.9273 159.501 75.5593C159.301 75.1913 159.029 74.9113 158.685 74.7193C158.349 74.5193 157.977 74.4193 157.569 74.4193C157.161 74.4193 156.789 74.5153 156.453 74.7073C156.117 74.8993 155.849 75.1793 155.649 75.5473C155.449 75.9153 155.349 76.3473 155.349 76.8433C155.349 77.3473 155.449 77.7873 155.649 78.1633C155.849 78.5313 156.117 78.8153 156.453 79.0153C156.789 79.2073 157.161 79.3033 157.569 79.3033C157.977 79.3033 158.349 79.2073 158.685 79.0153C159.029 78.8153 159.301 78.5313 159.501 78.1633C159.701 77.7873 159.801 77.3513 159.801 76.8553ZM163.618 72.5113C163.41 72.5113 163.234 72.4393 163.09 72.2953C162.946 72.1513 162.874 71.9753 162.874 71.7673C162.874 71.5593 162.946 71.3833 163.09 71.2393C163.234 71.0953 163.41 71.0233 163.618 71.0233C163.818 71.0233 163.986 71.0953 164.122 71.2393C164.266 71.3833 164.338 71.5593 164.338 71.7673C164.338 71.9753 164.266 72.1513 164.122 72.2953C163.986 72.4393 163.818 72.5113 163.618 72.5113ZM164.146 73.5793V80.1553H163.054V73.5793H164.146ZM172.312 76.6153C172.312 76.8233 172.3 77.0433 172.276 77.2753H167.02C167.06 77.9233 167.28 78.4313 167.68 78.7993C168.088 79.1593 168.58 79.3393 169.156 79.3393C169.628 79.3393 170.02 79.2313 170.332 79.0153C170.652 78.7913 170.876 78.4953 171.004 78.1273H172.18C172.004 78.7593 171.652 79.2753 171.124 79.6753C170.596 80.0673 169.94 80.2633 169.156 80.2633C168.532 80.2633 167.972 80.1233 167.476 79.8433C166.988 79.5633 166.604 79.1673 166.324 78.6553C166.044 78.1353 165.904 77.5353 165.904 76.8553C165.904 76.1753 166.04 75.5793 166.312 75.0673C166.584 74.5553 166.964 74.1633 167.452 73.8913C167.948 73.6113 168.516 73.4713 169.156 73.4713C169.78 73.4713 170.332 73.6073 170.812 73.8793C171.292 74.1513 171.66 74.5273 171.916 75.0073C172.18 75.4793 172.312 76.0153 172.312 76.6153ZM171.184 76.3873C171.184 75.9713 171.092 75.6153 170.908 75.3193C170.724 75.0153 170.472 74.7873 170.152 74.6353C169.84 74.4753 169.492 74.3953 169.108 74.3953C168.556 74.3953 168.084 74.5713 167.692 74.9233C167.308 75.2753 167.088 75.7633 167.032 76.3873H171.184ZM173.65 76.8433C173.65 76.1713 173.786 75.5833 174.058 75.0793C174.33 74.5673 174.702 74.1713 175.174 73.8913C175.654 73.6113 176.186 73.4713 176.77 73.4713C177.346 73.4713 177.846 73.5953 178.27 73.8433C178.694 74.0913 179.01 74.4033 179.218 74.7793V73.5793H180.322V80.1553H179.218V78.9313C179.002 79.3153 178.678 79.6353 178.246 79.8913C177.822 80.1393 177.326 80.2633 176.758 80.2633C176.174 80.2633 175.646 80.1193 175.174 79.8313C174.702 79.5433 174.33 79.1393 174.058 78.6193C173.786 78.0993 173.65 77.5073 173.65 76.8433ZM179.218 76.8553C179.218 76.3593 179.118 75.9273 178.918 75.5593C178.718 75.1913 178.446 74.9113 178.102 74.7193C177.766 74.5193 177.394 74.4193 176.986 74.4193C176.578 74.4193 176.206 74.5153 175.87 74.7073C175.534 74.8993 175.266 75.1793 175.066 75.5473C174.866 75.9153 174.766 76.3473 174.766 76.8433C174.766 77.3473 174.866 77.7873 175.066 78.1633C175.266 78.5313 175.534 78.8153 175.87 79.0153C176.206 79.2073 176.578 79.3033 176.986 79.3033C177.394 79.3033 177.766 79.2073 178.102 79.0153C178.446 78.8153 178.718 78.5313 178.918 78.1633C179.118 77.7873 179.218 77.3513 179.218 76.8553ZM184.799 80.2633C184.295 80.2633 183.843 80.1793 183.443 80.0113C183.043 79.8353 182.727 79.5953 182.495 79.2913C182.263 78.9793 182.135 78.6233 182.111 78.2233H183.239C183.271 78.5513 183.423 78.8193 183.695 79.0273C183.975 79.2353 184.339 79.3393 184.787 79.3393C185.203 79.3393 185.531 79.2473 185.771 79.0633C186.011 78.8793 186.131 78.6473 186.131 78.3673C186.131 78.0793 186.003 77.8673 185.747 77.7313C185.491 77.5873 185.095 77.4473 184.559 77.3113C184.071 77.1833 183.671 77.0553 183.359 76.9273C183.055 76.7913 182.791 76.5953 182.567 76.3393C182.351 76.0753 182.243 75.7313 182.243 75.3073C182.243 74.9713 182.343 74.6633 182.543 74.3833C182.743 74.1033 183.027 73.8833 183.395 73.7233C183.763 73.5553 184.183 73.4713 184.655 73.4713C185.383 73.4713 185.971 73.6553 186.419 74.0233C186.867 74.3913 187.107 74.8953 187.139 75.5353H186.047C186.023 75.1913 185.883 74.9153 185.627 74.7073C185.379 74.4993 185.043 74.3953 184.619 74.3953C184.227 74.3953 183.915 74.4793 183.683 74.6473C183.451 74.8153 183.335 75.0353 183.335 75.3073C183.335 75.5233 183.403 75.7033 183.539 75.8473C183.683 75.9833 183.859 76.0953 184.067 76.1833C184.283 76.2633 184.579 76.3553 184.955 76.4593C185.427 76.5873 185.811 76.7153 186.107 76.8433C186.403 76.9633 186.655 77.1473 186.863 77.3953C187.079 77.6433 187.191 77.9673 187.199 78.3673C187.199 78.7273 187.099 79.0513 186.899 79.3393C186.699 79.6273 186.415 79.8553 186.047 80.0233C185.687 80.1833 185.271 80.2633 184.799 80.2633ZM195.045 76.6153C195.045 76.8233 195.033 77.0433 195.009 77.2753H189.753C189.793 77.9233 190.013 78.4313 190.413 78.7993C190.821 79.1593 191.313 79.3393 191.889 79.3393C192.361 79.3393 192.753 79.2313 193.065 79.0153C193.385 78.7913 193.609 78.4953 193.737 78.1273H194.913C194.737 78.7593 194.385 79.2753 193.857 79.6753C193.329 80.0673 192.673 80.2633 191.889 80.2633C191.265 80.2633 190.705 80.1233 190.209 79.8433C189.721 79.5633 189.337 79.1673 189.057 78.6553C188.777 78.1353 188.637 77.5353 188.637 76.8553C188.637 76.1753 188.773 75.5793 189.045 75.0673C189.317 74.5553 189.697 74.1633 190.185 73.8913C190.681 73.6113 191.249 73.4713 191.889 73.4713C192.513 73.4713 193.065 73.6073 193.545 73.8793C194.025 74.1513 194.393 74.5273 194.649 75.0073C194.913 75.4793 195.045 76.0153 195.045 76.6153ZM193.917 76.3873C193.917 75.9713 193.825 75.6153 193.641 75.3193C193.457 75.0153 193.205 74.7873 192.885 74.6353C192.573 74.4753 192.225 74.3953 191.841 74.3953C191.289 74.3953 190.817 74.5713 190.425 74.9233C190.041 75.2753 189.821 75.7633 189.765 76.3873H193.917Z" fill="#F5F6F7"/>
<g clip-path="url(#clip0_334_254)">
<path d="M25.7852 110.87C25.7852 111.119 25.6084 111.321 25.3902 111.321H15.908C15.6898 111.321 15.5129 111.119 15.5129 110.87V101.839C15.5129 101.491 15.8422 101.274 16.1056 101.448C16.2278 101.529 16.3031 101.678 16.3031 101.839V107.165L18.8085 104.661C18.949 104.52 19.1564 104.511 19.3058 104.64L22.2102 107.129L25.1299 104.209C25.346 103.965 25.7128 104.08 25.79 104.416C25.8301 104.59 25.7752 104.776 25.6504 104.887L22.4897 108.047C22.3492 108.188 22.1418 108.197 21.9924 108.069L19.088 105.58L16.3031 108.365V110.418H25.3902C25.6084 110.418 25.7852 110.62 25.7852 110.87Z" fill="#FC5939"/>
</g>
<path d="M21.3238 46.3755V56.1475H19.3638V51.9895H15.1778V56.1475H13.2178V46.3755H15.1778V50.3935H19.3638V46.3755H21.3238ZM30.7673 52.1015C30.7673 52.3815 30.7486 52.6335 30.7113 52.8575H25.0413C25.088 53.4175 25.284 53.8561 25.6293 54.1735C25.9746 54.4908 26.3993 54.6495 26.9033 54.6495C27.6313 54.6495 28.1493 54.3368 28.4573 53.7115H30.5713C30.3473 54.4581 29.918 55.0741 29.2833 55.5595C28.6486 56.0355 27.8693 56.2735 26.9453 56.2735C26.1986 56.2735 25.5266 56.1101 24.9293 55.7835C24.3413 55.4475 23.8793 54.9761 23.5433 54.3695C23.2166 53.7628 23.0533 53.0628 23.0533 52.2695C23.0533 51.4668 23.2166 50.7621 23.5433 50.1555C23.87 49.5488 24.3273 49.0821 24.9153 48.7555C25.5033 48.4288 26.18 48.2655 26.9453 48.2655C27.6826 48.2655 28.3406 48.4241 28.9193 48.7415C29.5073 49.0588 29.96 49.5115 30.2773 50.0995C30.604 50.6781 30.7673 51.3455 30.7673 52.1015ZM28.7373 51.5415C28.728 51.0375 28.546 50.6361 28.1913 50.3375C27.8366 50.0295 27.4026 49.8755 26.8893 49.8755C26.404 49.8755 25.9933 50.0248 25.6573 50.3235C25.3306 50.6128 25.13 51.0188 25.0553 51.5415H28.7373ZM31.9983 52.2415C31.9983 51.4575 32.1523 50.7621 32.4603 50.1555C32.7776 49.5488 33.2023 49.0821 33.7343 48.7555C34.2756 48.4288 34.8776 48.2655 35.5403 48.2655C36.119 48.2655 36.623 48.3821 37.0523 48.6155C37.491 48.8488 37.841 49.1428 38.1023 49.4975V48.3915H40.0763V56.1475H38.1023V55.0135C37.8503 55.3775 37.5003 55.6808 37.0523 55.9235C36.6136 56.1568 36.105 56.2735 35.5263 56.2735C34.873 56.2735 34.2756 56.1055 33.7343 55.7695C33.2023 55.4335 32.7776 54.9621 32.4603 54.3555C32.1523 53.7395 31.9983 53.0348 31.9983 52.2415ZM38.1023 52.2695C38.1023 51.7935 38.009 51.3875 37.8223 51.0515C37.6356 50.7061 37.3836 50.4448 37.0663 50.2675C36.749 50.0808 36.4083 49.9875 36.0443 49.9875C35.6803 49.9875 35.3443 50.0761 35.0363 50.2535C34.7283 50.4308 34.4763 50.6921 34.2803 51.0375C34.0936 51.3735 34.0003 51.7748 34.0003 52.2415C34.0003 52.7081 34.0936 53.1188 34.2803 53.4735C34.4763 53.8188 34.7283 54.0848 35.0363 54.2715C35.3536 54.4581 35.6896 54.5515 36.0443 54.5515C36.4083 54.5515 36.749 54.4628 37.0663 54.2855C37.3836 54.0988 37.6356 53.8375 37.8223 53.5015C38.009 53.1561 38.1023 52.7455 38.1023 52.2695ZM44.255 49.5955C44.507 49.1848 44.8336 48.8628 45.235 48.6295C45.6456 48.3961 46.1123 48.2795 46.635 48.2795V50.3375H46.117C45.501 50.3375 45.0343 50.4821 44.717 50.7715C44.409 51.0608 44.255 51.5648 44.255 52.2835V56.1475H42.295V48.3915H44.255V49.5955ZM50.5415 50.0015V53.7535C50.5415 54.0148 50.6022 54.2061 50.7235 54.3275C50.8542 54.4395 51.0688 54.4955 51.3675 54.4955H52.2775V56.1475H51.0455C49.3935 56.1475 48.5675 55.3448 48.5675 53.7395V50.0015H47.6435V48.3915H48.5675V46.4735H50.5415V48.3915H52.2775V50.0015H50.5415ZM65.7379 46.3755V56.1475H63.7779V51.9895H59.5919V56.1475H57.6319V46.3755H59.5919V50.3935H63.7779V46.3755H65.7379ZM75.1815 52.1015C75.1815 52.3815 75.1628 52.6335 75.1255 52.8575H69.4555C69.5021 53.4175 69.6981 53.8561 70.0435 54.1735C70.3888 54.4908 70.8135 54.6495 71.3175 54.6495C72.0455 54.6495 72.5635 54.3368 72.8715 53.7115H74.9855C74.7615 54.4581 74.3321 55.0741 73.6975 55.5595C73.0628 56.0355 72.2835 56.2735 71.3595 56.2735C70.6128 56.2735 69.9408 56.1101 69.3435 55.7835C68.7555 55.4475 68.2935 54.9761 67.9575 54.3695C67.6308 53.7628 67.4675 53.0628 67.4675 52.2695C67.4675 51.4668 67.6308 50.7621 67.9575 50.1555C68.2841 49.5488 68.7415 49.0821 69.3295 48.7555C69.9175 48.4288 70.5941 48.2655 71.3595 48.2655C72.0968 48.2655 72.7548 48.4241 73.3335 48.7415C73.9215 49.0588 74.3741 49.5115 74.6915 50.0995C75.0181 50.6781 75.1815 51.3455 75.1815 52.1015ZM73.1515 51.5415C73.1421 51.0375 72.9601 50.6361 72.6055 50.3375C72.2508 50.0295 71.8168 49.8755 71.3035 49.8755C70.8181 49.8755 70.4075 50.0248 70.0715 50.3235C69.7448 50.6128 69.5441 51.0188 69.4695 51.5415H73.1515ZM76.4125 52.2415C76.4125 51.4575 76.5665 50.7621 76.8745 50.1555C77.1918 49.5488 77.6165 49.0821 78.1485 48.7555C78.6898 48.4288 79.2918 48.2655 79.9545 48.2655C80.5331 48.2655 81.0371 48.3821 81.4665 48.6155C81.9051 48.8488 82.2551 49.1428 82.5165 49.4975V48.3915H84.4905V56.1475H82.5165V55.0135C82.2645 55.3775 81.9145 55.6808 81.4665 55.9235C81.0278 56.1568 80.5191 56.2735 79.9405 56.2735C79.2871 56.2735 78.6898 56.1055 78.1485 55.7695C77.6165 55.4335 77.1918 54.9621 76.8745 54.3555C76.5665 53.7395 76.4125 53.0348 76.4125 52.2415ZM82.5165 52.2695C82.5165 51.7935 82.4231 51.3875 82.2365 51.0515C82.0498 50.7061 81.7978 50.4448 81.4805 50.2675C81.1631 50.0808 80.8225 49.9875 80.4585 49.9875C80.0945 49.9875 79.7585 50.0761 79.4505 50.2535C79.1425 50.4308 78.8905 50.6921 78.6945 51.0375C78.5078 51.3735 78.4145 51.7748 78.4145 52.2415C78.4145 52.7081 78.5078 53.1188 78.6945 53.4735C78.8905 53.8188 79.1425 54.0848 79.4505 54.2715C79.7678 54.4581 80.1038 54.5515 80.4585 54.5515C80.8225 54.5515 81.1631 54.4628 81.4805 54.2855C81.7978 54.0988 82.0498 53.8375 82.2365 53.5015C82.4231 53.1561 82.5165 52.7455 82.5165 52.2695ZM88.6691 45.7875V56.1475H86.7091V45.7875H88.6691ZM93.192 50.0015V53.7535C93.192 54.0148 93.2527 54.2061 93.374 54.3275C93.5047 54.4395 93.7193 54.4955 94.018 54.4955H94.928V56.1475H93.696C92.044 56.1475 91.218 55.3448 91.218 53.7395V50.0015H90.294V48.3915H91.218V46.4735H93.192V48.3915H94.928V50.0015H93.192ZM101.01 48.2795C101.598 48.2795 102.121 48.4101 102.578 48.6715C103.035 48.9235 103.39 49.3015 103.642 49.8055C103.903 50.3001 104.034 50.8975 104.034 51.5975V56.1475H102.074V51.8635C102.074 51.2475 101.92 50.7761 101.612 50.4495C101.304 50.1135 100.884 49.9455 100.352 49.9455C99.8108 49.9455 99.3815 50.1135 99.0641 50.4495C98.7561 50.7761 98.6021 51.2475 98.6021 51.8635V56.1475H96.6421V45.7875H98.6021V49.3575C98.8541 49.0215 99.1901 48.7601 99.6101 48.5735C100.03 48.3775 100.497 48.2795 101.01 48.2795Z" fill="#F5F6F7"/>
<path d="M38.5609 109.457L36.6409 106.121H35.5969V109.457H34.2289V101.117H37.1089C37.7489 101.117 38.2889 101.229 38.7289 101.453C39.1769 101.677 39.5089 101.977 39.7249 102.353C39.9489 102.729 40.0609 103.149 40.0609 103.613C40.0609 104.157 39.9009 104.653 39.5809 105.101C39.2689 105.541 38.7849 105.841 38.1289 106.001L40.1929 109.457H38.5609ZM35.5969 105.029H37.1089C37.6209 105.029 38.0049 104.901 38.2609 104.645C38.5249 104.389 38.6569 104.045 38.6569 103.613C38.6569 103.181 38.5289 102.845 38.2729 102.605C38.0169 102.357 37.6289 102.233 37.1089 102.233H35.5969V105.029ZM42.8113 101.969C42.5633 101.969 42.3553 101.885 42.1873 101.717C42.0193 101.549 41.9353 101.341 41.9353 101.093C41.9353 100.845 42.0193 100.637 42.1873 100.469C42.3553 100.301 42.5633 100.217 42.8113 100.217C43.0513 100.217 43.2553 100.301 43.4233 100.469C43.5913 100.637 43.6753 100.845 43.6753 101.093C43.6753 101.341 43.5913 101.549 43.4233 101.717C43.2553 101.885 43.0513 101.969 42.8113 101.969ZM43.4833 102.845V109.457H42.1153V102.845H43.4833ZM47.9837 109.565C47.4637 109.565 46.9957 109.473 46.5797 109.289C46.1717 109.097 45.8477 108.841 45.6077 108.521C45.3677 108.193 45.2397 107.829 45.2237 107.429H46.6397C46.6637 107.709 46.7957 107.945 47.0357 108.137C47.2837 108.321 47.5917 108.413 47.9597 108.413C48.3437 108.413 48.6397 108.341 48.8477 108.197C49.0637 108.045 49.1717 107.853 49.1717 107.621C49.1717 107.373 49.0517 107.189 48.8117 107.069C48.5797 106.949 48.2077 106.817 47.6957 106.673C47.1997 106.537 46.7957 106.405 46.4837 106.277C46.1717 106.149 45.8997 105.953 45.6677 105.689C45.4437 105.425 45.3317 105.077 45.3317 104.645C45.3317 104.293 45.4357 103.973 45.6437 103.685C45.8517 103.389 46.1477 103.157 46.5317 102.989C46.9237 102.821 47.3717 102.737 47.8757 102.737C48.6277 102.737 49.2317 102.929 49.6877 103.313C50.1517 103.689 50.3997 104.205 50.4317 104.861H49.0637C49.0397 104.565 48.9197 104.329 48.7037 104.153C48.4877 103.977 48.1957 103.889 47.8277 103.889C47.4677 103.889 47.1917 103.957 46.9997 104.093C46.8077 104.229 46.7117 104.409 46.7117 104.633C46.7117 104.809 46.7757 104.957 46.9037 105.077C47.0317 105.197 47.1877 105.293 47.3717 105.365C47.5557 105.429 47.8277 105.513 48.1877 105.617C48.6677 105.745 49.0597 105.877 49.3637 106.013C49.6757 106.141 49.9437 106.333 50.1677 106.589C50.3917 106.845 50.5077 107.185 50.5157 107.609C50.5157 107.985 50.4117 108.321 50.2037 108.617C49.9957 108.913 49.6997 109.145 49.3157 109.313C48.9397 109.481 48.4957 109.565 47.9837 109.565ZM54.9142 106.157L57.9622 109.457H56.1142L53.6662 106.613V109.457H52.2982V100.577H53.6662V105.737L56.0662 102.845H57.9622L54.9142 106.157ZM67.5767 101.117V102.233H64.0367V104.693H66.7967V105.809H64.0367V109.457H62.6687V101.117H67.5767ZM68.6929 106.121C68.6929 105.457 68.8289 104.869 69.1009 104.357C69.3809 103.845 69.7569 103.449 70.2289 103.169C70.7089 102.881 71.2369 102.737 71.8129 102.737C72.3329 102.737 72.7849 102.841 73.1689 103.049C73.5609 103.249 73.8729 103.501 74.1049 103.805V102.845H75.4849V109.457H74.1049V108.473C73.8729 108.785 73.5569 109.045 73.1569 109.253C72.7569 109.461 72.3009 109.565 71.7889 109.565C71.2209 109.565 70.7009 109.421 70.2289 109.133C69.7569 108.837 69.3809 108.429 69.1009 107.909C68.8289 107.381 68.6929 106.785 68.6929 106.121ZM74.1049 106.145C74.1049 105.689 74.0089 105.293 73.8169 104.957C73.6329 104.621 73.3889 104.365 73.0849 104.189C72.7809 104.013 72.4529 103.925 72.1009 103.925C71.7489 103.925 71.4209 104.013 71.1169 104.189C70.8129 104.357 70.5649 104.609 70.3729 104.945C70.1889 105.273 70.0969 105.665 70.0969 106.121C70.0969 106.577 70.1889 106.977 70.3729 107.321C70.5649 107.665 70.8129 107.929 71.1169 108.113C71.4289 108.289 71.7569 108.377 72.1009 108.377C72.4529 108.377 72.7809 108.289 73.0849 108.113C73.3889 107.937 73.6329 107.681 73.8169 107.345C74.0089 107.001 74.1049 106.601 74.1049 106.145ZM77.1301 106.145C77.1301 105.465 77.2661 104.869 77.5381 104.357C77.8181 103.837 78.2021 103.437 78.6901 103.157C79.1781 102.877 79.7381 102.737 80.3701 102.737C81.1701 102.737 81.8301 102.929 82.3501 103.313C82.8781 103.689 83.2341 104.229 83.4181 104.933H81.9421C81.8221 104.605 81.6301 104.349 81.3661 104.165C81.1021 103.981 80.7701 103.889 80.3701 103.889C79.8101 103.889 79.3621 104.089 79.0261 104.489C78.6981 104.881 78.5341 105.433 78.5341 106.145C78.5341 106.857 78.6981 107.413 79.0261 107.813C79.3621 108.213 79.8101 108.413 80.3701 108.413C81.1621 108.413 81.6861 108.065 81.9421 107.369H83.4181C83.2261 108.041 82.8661 108.577 82.3381 108.977C81.8101 109.369 81.1541 109.565 80.3701 109.565C79.7381 109.565 79.1781 109.425 78.6901 109.145C78.2021 108.857 77.8181 108.457 77.5381 107.945C77.2661 107.425 77.1301 106.825 77.1301 106.145ZM86.6818 103.961V107.621C86.6818 107.869 86.7378 108.049 86.8498 108.161C86.9698 108.265 87.1698 108.317 87.4498 108.317H88.2898V109.457H87.2098C86.5938 109.457 86.1218 109.313 85.7938 109.025C85.4658 108.737 85.3018 108.269 85.3018 107.621V103.961H84.5218V102.845H85.3018V101.201H86.6818V102.845H88.2898V103.961H86.6818ZM92.723 109.565C92.099 109.565 91.535 109.425 91.031 109.145C90.527 108.857 90.131 108.457 89.843 107.945C89.555 107.425 89.411 106.825 89.411 106.145C89.411 105.473 89.559 104.877 89.855 104.357C90.151 103.837 90.555 103.437 91.067 103.157C91.579 102.877 92.151 102.737 92.783 102.737C93.415 102.737 93.987 102.877 94.499 103.157C95.011 103.437 95.415 103.837 95.711 104.357C96.007 104.877 96.155 105.473 96.155 106.145C96.155 106.817 96.003 107.413 95.699 107.933C95.395 108.453 94.979 108.857 94.451 109.145C93.931 109.425 93.355 109.565 92.723 109.565ZM92.723 108.377C93.075 108.377 93.403 108.293 93.707 108.125C94.019 107.957 94.271 107.705 94.463 107.369C94.655 107.033 94.751 106.625 94.751 106.145C94.751 105.665 94.659 105.261 94.475 104.933C94.291 104.597 94.047 104.345 93.743 104.177C93.439 104.009 93.111 103.925 92.759 103.925C92.407 103.925 92.079 104.009 91.775 104.177C91.479 104.345 91.243 104.597 91.067 104.933C90.891 105.261 90.803 105.665 90.803 106.145C90.803 106.857 90.983 107.409 91.343 107.801C91.711 108.185 92.171 108.377 92.723 108.377ZM99.1797 103.805C99.3797 103.469 99.6437 103.209 99.9717 103.025C100.308 102.833 100.704 102.737 101.16 102.737V104.153H100.812C100.276 104.153 99.8677 104.289 99.5877 104.561C99.3157 104.833 99.1797 105.305 99.1797 105.977V109.457H97.8117V102.845H99.1797V103.805ZM105.122 109.565C104.602 109.565 104.134 109.473 103.718 109.289C103.31 109.097 102.986 108.841 102.746 108.521C102.506 108.193 102.378 107.829 102.362 107.429H103.778C103.802 107.709 103.934 107.945 104.174 108.137C104.422 108.321 104.73 108.413 105.098 108.413C105.482 108.413 105.778 108.341 105.986 108.197C106.202 108.045 106.31 107.853 106.31 107.621C106.31 107.373 106.19 107.189 105.95 107.069C105.718 106.949 105.346 106.817 104.834 106.673C104.338 106.537 103.934 106.405 103.622 106.277C103.31 106.149 103.038 105.953 102.806 105.689C102.582 105.425 102.47 105.077 102.47 104.645C102.47 104.293 102.574 103.973 102.782 103.685C102.99 103.389 103.286 103.157 103.67 102.989C104.062 102.821 104.51 102.737 105.014 102.737C105.766 102.737 106.37 102.929 106.826 103.313C107.29 103.689 107.538 104.205 107.57 104.861H106.202C106.178 104.565 106.058 104.329 105.842 104.153C105.626 103.977 105.334 103.889 104.966 103.889C104.606 103.889 104.33 103.957 104.138 104.093C103.946 104.229 103.85 104.409 103.85 104.633C103.85 104.809 103.914 104.957 104.042 105.077C104.17 105.197 104.326 105.293 104.51 105.365C104.694 105.429 104.966 105.513 105.326 105.617C105.806 105.745 106.198 105.877 106.502 106.013C106.814 106.141 107.082 106.333 107.306 106.589C107.53 106.845 107.646 107.185 107.654 107.609C107.654 107.985 107.55 108.321 107.342 108.617C107.134 108.913 106.838 109.145 106.454 109.313C106.078 109.481 105.634 109.565 105.122 109.565Z" fill="white"/>
<path d="M29.5503 143.131H32.3703V144.235H28.1823V135.895H29.5503V143.131ZM36.5427 135.895C37.4307 135.895 38.2067 136.067 38.8707 136.411C39.5427 136.747 40.0587 137.235 40.4187 137.875C40.7867 138.507 40.9707 139.247 40.9707 140.095C40.9707 140.943 40.7867 141.679 40.4187 142.303C40.0587 142.927 39.5427 143.407 38.8707 143.743C38.2067 144.071 37.4307 144.235 36.5427 144.235H33.8187V135.895H36.5427ZM36.5427 143.119C37.5187 143.119 38.2667 142.855 38.7867 142.327C39.3067 141.799 39.5667 141.055 39.5667 140.095C39.5667 139.127 39.3067 138.371 38.7867 137.827C38.2667 137.283 37.5187 137.011 36.5427 137.011H35.1867V143.119H36.5427ZM43.9989 143.131H46.8189V144.235H42.6309V135.895H43.9989V143.131ZM51.2329 140.047C51.2329 139.231 51.4209 138.499 51.7969 137.851C52.1809 137.203 52.6969 136.699 53.3449 136.339C54.0009 135.971 54.7169 135.787 55.4929 135.787C56.3809 135.787 57.1689 136.007 57.8569 136.447C58.5529 136.879 59.0569 137.495 59.3689 138.295H57.7249C57.5089 137.855 57.2089 137.527 56.8249 137.311C56.4409 137.095 55.9969 136.987 55.4929 136.987C54.9409 136.987 54.4489 137.111 54.0169 137.359C53.5849 137.607 53.2449 137.963 52.9969 138.427C52.7569 138.891 52.6369 139.431 52.6369 140.047C52.6369 140.663 52.7569 141.203 52.9969 141.667C53.2449 142.131 53.5849 142.491 54.0169 142.747C54.4489 142.995 54.9409 143.119 55.4929 143.119C55.9969 143.119 56.4409 143.011 56.8249 142.795C57.2089 142.579 57.5089 142.251 57.7249 141.811H59.3689C59.0569 142.611 58.5529 143.227 57.8569 143.659C57.1689 144.091 56.3809 144.307 55.4929 144.307C54.7089 144.307 53.9929 144.127 53.3449 143.767C52.6969 143.399 52.1809 142.891 51.7969 142.243C51.4209 141.595 51.2329 140.863 51.2329 140.047ZM64.6945 137.515C65.1985 137.515 65.6465 137.623 66.0385 137.839C66.4385 138.055 66.7505 138.375 66.9745 138.799C67.2065 139.223 67.3225 139.735 67.3225 140.335V144.235H65.9665V140.539C65.9665 139.947 65.8185 139.495 65.5225 139.183C65.2265 138.863 64.8225 138.703 64.3105 138.703C63.7985 138.703 63.3905 138.863 63.0865 139.183C62.7905 139.495 62.6425 139.947 62.6425 140.539V144.235H61.2745V135.355H62.6425V138.391C62.8745 138.111 63.1665 137.895 63.5185 137.743C63.8785 137.591 64.2705 137.515 64.6945 137.515ZM72.2398 144.343C71.6158 144.343 71.0518 144.203 70.5478 143.923C70.0438 143.635 69.6478 143.235 69.3598 142.723C69.0718 142.203 68.9278 141.603 68.9278 140.923C68.9278 140.251 69.0758 139.655 69.3718 139.135C69.6678 138.615 70.0718 138.215 70.5838 137.935C71.0958 137.655 71.6678 137.515 72.2998 137.515C72.9318 137.515 73.5038 137.655 74.0158 137.935C74.5278 138.215 74.9318 138.615 75.2278 139.135C75.5238 139.655 75.6718 140.251 75.6718 140.923C75.6718 141.595 75.5198 142.191 75.2158 142.711C74.9118 143.231 74.4958 143.635 73.9678 143.923C73.4478 144.203 72.8718 144.343 72.2398 144.343ZM72.2398 143.155C72.5918 143.155 72.9198 143.071 73.2238 142.903C73.5358 142.735 73.7878 142.483 73.9798 142.147C74.1718 141.811 74.2678 141.403 74.2678 140.923C74.2678 140.443 74.1758 140.039 73.9918 139.711C73.8078 139.375 73.5638 139.123 73.2598 138.955C72.9558 138.787 72.6278 138.703 72.2758 138.703C71.9238 138.703 71.5958 138.787 71.2918 138.955C70.9958 139.123 70.7598 139.375 70.5838 139.711C70.4078 140.039 70.3198 140.443 70.3198 140.923C70.3198 141.635 70.4998 142.187 70.8598 142.579C71.2278 142.963 71.6878 143.155 72.2398 143.155ZM78.6966 135.355V144.235H77.3286V135.355H78.6966ZM86.857 140.767C86.857 141.015 86.841 141.239 86.809 141.439H81.757C81.797 141.967 81.993 142.391 82.345 142.711C82.697 143.031 83.129 143.191 83.641 143.191C84.377 143.191 84.897 142.883 85.201 142.267H86.677C86.477 142.875 86.113 143.375 85.585 143.767C85.065 144.151 84.417 144.343 83.641 144.343C83.009 144.343 82.441 144.203 81.937 143.923C81.441 143.635 81.049 143.235 80.761 142.723C80.481 142.203 80.341 141.603 80.341 140.923C80.341 140.243 80.477 139.647 80.749 139.135C81.029 138.615 81.417 138.215 81.913 137.935C82.417 137.655 82.993 137.515 83.641 137.515C84.265 137.515 84.821 137.651 85.309 137.923C85.797 138.195 86.177 138.579 86.449 139.075C86.721 139.563 86.857 140.127 86.857 140.767ZM85.429 140.335C85.421 139.831 85.241 139.427 84.889 139.123C84.537 138.819 84.101 138.667 83.581 138.667C83.109 138.667 82.705 138.819 82.369 139.123C82.033 139.419 81.833 139.823 81.769 140.335H85.429ZM90.9076 144.343C90.3876 144.343 89.9196 144.251 89.5036 144.067C89.0956 143.875 88.7716 143.619 88.5316 143.299C88.2916 142.971 88.1636 142.607 88.1476 142.207H89.5636C89.5876 142.487 89.7196 142.723 89.9596 142.915C90.2076 143.099 90.5156 143.191 90.8836 143.191C91.2676 143.191 91.5636 143.119 91.7716 142.975C91.9876 142.823 92.0956 142.631 92.0956 142.399C92.0956 142.151 91.9756 141.967 91.7356 141.847C91.5036 141.727 91.1316 141.595 90.6196 141.451C90.1236 141.315 89.7196 141.183 89.4076 141.055C89.0956 140.927 88.8236 140.731 88.5916 140.467C88.3676 140.203 88.2556 139.855 88.2556 139.423C88.2556 139.071 88.3596 138.751 88.5676 138.463C88.7756 138.167 89.0716 137.935 89.4556 137.767C89.8476 137.599 90.2956 137.515 90.7996 137.515C91.5516 137.515 92.1556 137.707 92.6116 138.091C93.0756 138.467 93.3236 138.983 93.3556 139.639H91.9876C91.9636 139.343 91.8436 139.107 91.6276 138.931C91.4116 138.755 91.1196 138.667 90.7516 138.667C90.3916 138.667 90.1156 138.735 89.9236 138.871C89.7316 139.007 89.6356 139.187 89.6356 139.411C89.6356 139.587 89.6996 139.735 89.8276 139.855C89.9556 139.975 90.1116 140.071 90.2956 140.143C90.4796 140.207 90.7516 140.291 91.1116 140.395C91.5916 140.523 91.9836 140.655 92.2876 140.791C92.5996 140.919 92.8676 141.111 93.0916 141.367C93.3156 141.623 93.4316 141.963 93.4396 142.387C93.4396 142.763 93.3356 143.099 93.1276 143.395C92.9196 143.691 92.6236 143.923 92.2396 144.091C91.8636 144.259 91.4196 144.343 90.9076 144.343ZM96.8182 138.739V142.399C96.8182 142.647 96.8742 142.827 96.9862 142.939C97.1062 143.043 97.3062 143.095 97.5862 143.095H98.4262V144.235H97.3462C96.7302 144.235 96.2582 144.091 95.9302 143.803C95.6022 143.515 95.4382 143.047 95.4382 142.399V138.739H94.6582V137.623H95.4382V135.979H96.8182V137.623H98.4262V138.739H96.8182ZM101.359 138.583C101.559 138.247 101.823 137.987 102.151 137.803C102.487 137.611 102.883 137.515 103.339 137.515V138.931H102.991C102.455 138.931 102.047 139.067 101.767 139.339C101.495 139.611 101.359 140.083 101.359 140.755V144.235H99.9914V137.623H101.359V138.583ZM107.769 144.343C107.145 144.343 106.581 144.203 106.077 143.923C105.573 143.635 105.177 143.235 104.889 142.723C104.601 142.203 104.457 141.603 104.457 140.923C104.457 140.251 104.605 139.655 104.901 139.135C105.197 138.615 105.601 138.215 106.113 137.935C106.625 137.655 107.197 137.515 107.829 137.515C108.461 137.515 109.033 137.655 109.545 137.935C110.057 138.215 110.461 138.615 110.757 139.135C111.053 139.655 111.201 140.251 111.201 140.923C111.201 141.595 111.049 142.191 110.745 142.711C110.441 143.231 110.025 143.635 109.497 143.923C108.977 144.203 108.401 144.343 107.769 144.343ZM107.769 143.155C108.121 143.155 108.449 143.071 108.753 142.903C109.065 142.735 109.317 142.483 109.509 142.147C109.701 141.811 109.797 141.403 109.797 140.923C109.797 140.443 109.705 140.039 109.521 139.711C109.337 139.375 109.093 139.123 108.789 138.955C108.485 138.787 108.157 138.703 107.805 138.703C107.453 138.703 107.125 138.787 106.821 138.955C106.525 139.123 106.289 139.375 106.113 139.711C105.937 140.039 105.849 140.443 105.849 140.923C105.849 141.635 106.029 142.187 106.389 142.579C106.757 142.963 107.217 143.155 107.769 143.155ZM114.226 135.355V144.235H112.858V135.355H114.226Z" fill="white"/>
<circle cx="13" cy="140" r="3" fill="#CD4343"/>
<path d="M13.0001 16.999C13.0001 15.8945 13.8955 14.999 15.0001 14.999H88.0001C89.1046 14.999 90.0001 15.8945 90.0001 16.999V28.999C90.0001 30.1036 89.1046 30.999 88.0001 30.999H15.0001C13.8955 30.999 13.0001 30.1036 13.0001 28.999V16.999Z" fill="#DE5858"/>
<path d="M23.9401 24.579H21.0301L20.5301 25.999H19.3401L21.8301 19.039H23.1501L25.6401 25.999H24.4401L23.9401 24.579ZM23.6201 23.649L22.4901 20.419L21.3501 23.649H23.6201ZM28.1671 18.599V25.999H27.0271V18.599H28.1671ZM35.0182 23.109C35.0182 23.3157 35.0049 23.5024 34.9782 23.669H30.7682C30.8015 24.109 30.9649 24.4624 31.2582 24.729C31.5515 24.9957 31.9115 25.129 32.3382 25.129C32.9515 25.129 33.3849 24.8724 33.6382 24.359H34.8682C34.7015 24.8657 34.3982 25.2824 33.9582 25.609C33.5249 25.929 32.9849 26.089 32.3382 26.089C31.8115 26.089 31.3382 25.9724 30.9182 25.739C30.5049 25.499 30.1782 25.1657 29.9382 24.739C29.7049 24.3057 29.5882 23.8057 29.5882 23.239C29.5882 22.6724 29.7015 22.1757 29.9282 21.749C30.1615 21.3157 30.4849 20.9824 30.8982 20.749C31.3182 20.5157 31.7982 20.399 32.3382 20.399C32.8582 20.399 33.3215 20.5124 33.7282 20.739C34.1349 20.9657 34.4515 21.2857 34.6782 21.699C34.9049 22.1057 35.0182 22.5757 35.0182 23.109ZM33.8282 22.749C33.8215 22.329 33.6715 21.9924 33.3782 21.739C33.0849 21.4857 32.7215 21.359 32.2882 21.359C31.8949 21.359 31.5582 21.4857 31.2782 21.739C30.9982 21.9857 30.8315 22.3224 30.7782 22.749H33.8282ZM37.5845 21.289C37.7511 21.009 37.9711 20.7924 38.2445 20.639C38.5245 20.479 38.8545 20.399 39.2345 20.399V21.579H38.9445C38.4978 21.579 38.1578 21.6924 37.9245 21.919C37.6978 22.1457 37.5845 22.539 37.5845 23.099V25.999H36.4445V20.489H37.5845V21.289ZM41.9167 21.419V24.469C41.9167 24.6757 41.9634 24.8257 42.0567 24.919C42.1567 25.0057 42.3234 25.049 42.5567 25.049H43.2567V25.999H42.3567C41.8434 25.999 41.4501 25.879 41.1767 25.639C40.9034 25.399 40.7667 25.009 40.7667 24.469V21.419H40.1167V20.489H40.7667V19.119H41.9167V20.489H43.2567V21.419H41.9167ZM45.1918 19.759C44.9851 19.759 44.8118 19.689 44.6718 19.549C44.5318 19.409 44.4618 19.2357 44.4618 19.029C44.4618 18.8224 44.5318 18.649 44.6718 18.509C44.8118 18.369 44.9851 18.299 45.1918 18.299C45.3918 18.299 45.5618 18.369 45.7018 18.509C45.8418 18.649 45.9118 18.8224 45.9118 19.029C45.9118 19.2357 45.8418 19.409 45.7018 19.549C45.5618 19.689 45.3918 19.759 45.1918 19.759ZM45.7518 20.489V25.999H44.6118V20.489H45.7518ZM50.3329 20.399C50.7662 20.399 51.1529 20.489 51.4929 20.669C51.8396 20.849 52.1096 21.1157 52.3029 21.469C52.4962 21.8224 52.5929 22.249 52.5929 22.749V25.999H51.4629V22.919C51.4629 22.4257 51.3396 22.049 51.0929 21.789C50.8462 21.5224 50.5096 21.389 50.0829 21.389C49.6562 21.389 49.3162 21.5224 49.0629 21.789C48.8162 22.049 48.6929 22.4257 48.6929 22.919V25.999H47.5529V20.489H48.6929V21.119C48.8796 20.8924 49.1162 20.7157 49.4029 20.589C49.6962 20.4624 50.0062 20.399 50.3329 20.399ZM56.5714 20.399C56.9981 20.399 57.3748 20.4857 57.7014 20.659C58.0348 20.8257 58.2948 21.0357 58.4814 21.289V20.489H59.6314V26.089C59.6314 26.5957 59.5248 27.0457 59.3114 27.439C59.0981 27.839 58.7881 28.1524 58.3814 28.379C57.9814 28.6057 57.5014 28.719 56.9414 28.719C56.1948 28.719 55.5748 28.5424 55.0814 28.189C54.5881 27.8424 54.3081 27.369 54.2414 26.769H55.3714C55.4581 27.0557 55.6414 27.2857 55.9214 27.459C56.2081 27.639 56.5481 27.729 56.9414 27.729C57.4014 27.729 57.7714 27.589 58.0514 27.309C58.3381 27.029 58.4814 26.6224 58.4814 26.089V25.169C58.2881 25.429 58.0248 25.649 57.6914 25.829C57.3648 26.0024 56.9914 26.089 56.5714 26.089C56.0914 26.089 55.6514 25.969 55.2514 25.729C54.8581 25.4824 54.5448 25.1424 54.3114 24.709C54.0848 24.269 53.9714 23.7724 53.9714 23.219C53.9714 22.6657 54.0848 22.1757 54.3114 21.749C54.5448 21.3224 54.8581 20.9924 55.2514 20.759C55.6514 20.519 56.0914 20.399 56.5714 20.399ZM58.4814 23.239C58.4814 22.859 58.4014 22.529 58.2414 22.249C58.0881 21.969 57.8848 21.7557 57.6314 21.609C57.3781 21.4624 57.1048 21.389 56.8114 21.389C56.5181 21.389 56.2448 21.4624 55.9914 21.609C55.7381 21.749 55.5314 21.959 55.3714 22.239C55.2181 22.5124 55.1414 22.839 55.1414 23.219C55.1414 23.599 55.2181 23.9324 55.3714 24.219C55.5314 24.5057 55.7381 24.7257 55.9914 24.879C56.2514 25.0257 56.5248 25.099 56.8114 25.099C57.1048 25.099 57.3781 25.0257 57.6314 24.879C57.8848 24.7324 58.0881 24.519 58.2414 24.239C58.4014 23.9524 58.4814 23.619 58.4814 23.239ZM67.9452 25.999L66.3452 23.219H65.4752V25.999H64.3352V19.049H66.7352C67.2685 19.049 67.7185 19.1424 68.0852 19.329C68.4585 19.5157 68.7352 19.7657 68.9152 20.079C69.1019 20.3924 69.1952 20.7424 69.1952 21.129C69.1952 21.5824 69.0619 21.9957 68.7952 22.369C68.5352 22.7357 68.1319 22.9857 67.5852 23.119L69.3052 25.999H67.9452ZM65.4752 22.309H66.7352C67.1619 22.309 67.4819 22.2024 67.6952 21.989C67.9152 21.7757 68.0252 21.489 68.0252 21.129C68.0252 20.769 67.9185 20.489 67.7052 20.289C67.4919 20.0824 67.1685 19.979 66.7352 19.979H65.4752V22.309ZM71.5379 19.759C71.3313 19.759 71.1579 19.689 71.0179 19.549C70.8779 19.409 70.8079 19.2357 70.8079 19.029C70.8079 18.8224 70.8779 18.649 71.0179 18.509C71.1579 18.369 71.3313 18.299 71.5379 18.299C71.7379 18.299 71.9079 18.369 72.0479 18.509C72.1879 18.649 72.2579 18.8224 72.2579 19.029C72.2579 19.2357 72.1879 19.409 72.0479 19.549C71.9079 19.689 71.7379 19.759 71.5379 19.759ZM72.0979 20.489V25.999H70.9579V20.489H72.0979ZM75.899 26.089C75.4657 26.089 75.0757 26.0124 74.729 25.859C74.389 25.699 74.119 25.4857 73.919 25.219C73.719 24.9457 73.6124 24.6424 73.599 24.309H74.779C74.799 24.5424 74.909 24.739 75.109 24.899C75.3157 25.0524 75.5724 25.129 75.879 25.129C76.199 25.129 76.4457 25.069 76.619 24.949C76.799 24.8224 76.889 24.6624 76.889 24.469C76.889 24.2624 76.789 24.109 76.589 24.009C76.3957 23.909 76.0857 23.799 75.659 23.679C75.2457 23.5657 74.909 23.4557 74.649 23.349C74.389 23.2424 74.1624 23.079 73.969 22.859C73.7824 22.639 73.689 22.349 73.689 21.989C73.689 21.6957 73.7757 21.429 73.949 21.189C74.1224 20.9424 74.369 20.749 74.689 20.609C75.0157 20.469 75.389 20.399 75.809 20.399C76.4357 20.399 76.939 20.559 77.319 20.879C77.7057 21.1924 77.9124 21.6224 77.939 22.169H76.799C76.779 21.9224 76.679 21.7257 76.499 21.579C76.319 21.4324 76.0757 21.359 75.769 21.359C75.469 21.359 75.239 21.4157 75.079 21.529C74.919 21.6424 74.839 21.7924 74.839 21.979C74.839 22.1257 74.8924 22.249 74.999 22.349C75.1057 22.449 75.2357 22.529 75.389 22.589C75.5424 22.6424 75.769 22.7124 76.069 22.799C76.469 22.9057 76.7957 23.0157 77.049 23.129C77.309 23.2357 77.5324 23.3957 77.719 23.609C77.9057 23.8224 78.0024 24.1057 78.009 24.459C78.009 24.7724 77.9224 25.0524 77.749 25.299C77.5757 25.5457 77.329 25.739 77.009 25.879C76.6957 26.019 76.3257 26.089 75.899 26.089ZM81.7252 23.249L84.2652 25.999H82.7252L80.6852 23.629V25.999H79.5452V18.599H80.6852V22.899L82.6852 20.489H84.2652L81.7252 23.249Z" fill="white"/>
<path d="M106.101 236.538H102.787V237.498C102.931 237.369 103.118 237.266 103.347 237.19C103.583 237.114 103.846 237.075 104.135 237.075C104.653 237.075 105.091 237.197 105.449 237.441C105.807 237.685 106.074 238.013 106.249 238.424C106.425 238.828 106.512 239.277 106.512 239.773C106.512 240.687 106.253 241.399 105.735 241.91C105.225 242.413 104.52 242.664 103.621 242.664C102.966 242.664 102.398 242.55 101.918 242.321C101.446 242.093 101.084 241.776 100.832 241.373C100.588 240.969 100.474 240.508 100.489 239.99H102.958C102.958 240.112 103 240.226 103.084 240.333C103.167 240.439 103.305 240.493 103.495 240.493C103.686 240.493 103.827 240.424 103.918 240.287C104.009 240.15 104.055 239.963 104.055 239.727C104.055 239.506 104.002 239.338 103.895 239.224C103.796 239.11 103.651 239.053 103.461 239.053C103.301 239.053 103.179 239.091 103.095 239.167C103.011 239.243 102.969 239.331 102.969 239.43H100.501V234.31H106.101V236.538ZM108.514 242.755C108.072 242.755 107.718 242.637 107.451 242.401C107.184 242.165 107.051 241.868 107.051 241.51C107.051 241.144 107.184 240.843 107.451 240.607C107.718 240.363 108.072 240.241 108.514 240.241C108.948 240.241 109.299 240.363 109.565 240.607C109.832 240.843 109.965 241.144 109.965 241.51C109.965 241.868 109.832 242.165 109.565 242.401C109.299 242.637 108.948 242.755 108.514 242.755ZM116.724 236.538H113.409V237.498C113.554 237.369 113.741 237.266 113.969 237.19C114.205 237.114 114.468 237.075 114.758 237.075C115.276 237.075 115.714 237.197 116.072 237.441C116.43 237.685 116.697 238.013 116.872 238.424C117.047 238.828 117.135 239.277 117.135 239.773C117.135 240.687 116.876 241.399 116.358 241.91C115.847 242.413 115.143 242.664 114.244 242.664C113.588 242.664 113.021 242.55 112.541 242.321C112.068 242.093 111.706 241.776 111.455 241.373C111.211 240.969 111.097 240.508 111.112 239.99H113.581C113.581 240.112 113.623 240.226 113.706 240.333C113.79 240.439 113.927 240.493 114.118 240.493C114.308 240.493 114.449 240.424 114.541 240.287C114.632 240.15 114.678 239.963 114.678 239.727C114.678 239.506 114.625 239.338 114.518 239.224C114.419 239.11 114.274 239.053 114.084 239.053C113.924 239.053 113.802 239.091 113.718 239.167C113.634 239.243 113.592 239.331 113.592 239.43H111.124V234.31H116.724V236.538ZM117.822 236.927C117.845 236.02 118.108 235.327 118.611 234.847C119.122 234.367 119.842 234.127 120.771 234.127C121.373 234.127 121.887 234.23 122.314 234.435C122.741 234.641 123.061 234.919 123.274 235.27C123.495 235.62 123.605 236.016 123.605 236.458C123.605 236.992 123.48 237.411 123.228 237.715C122.977 238.013 122.695 238.215 122.382 238.321V238.367C123.297 238.71 123.754 239.346 123.754 240.275C123.754 240.763 123.64 241.194 123.411 241.567C123.182 241.94 122.855 242.23 122.428 242.435C122.009 242.641 121.51 242.744 120.931 242.744C119.941 242.744 119.163 242.508 118.6 242.035C118.036 241.563 117.746 240.824 117.731 239.818H120.2C120.184 240.093 120.222 240.302 120.314 240.447C120.413 240.584 120.581 240.653 120.817 240.653C120.954 240.653 121.068 240.603 121.16 240.504C121.251 240.397 121.297 240.26 121.297 240.093C121.297 239.879 121.224 239.719 121.08 239.613C120.942 239.498 120.706 239.441 120.371 239.441H119.948V237.395H120.36C120.878 237.426 121.137 237.22 121.137 236.778C121.137 236.588 121.095 236.447 121.011 236.355C120.935 236.264 120.836 236.218 120.714 236.218C120.432 236.218 120.291 236.455 120.291 236.927H117.822Z" fill="#B95042"/>
<path d="M125.723 238.401V237.493H127.306V241.664H126.288V238.401H125.723ZM127.974 239.521C127.974 238.866 128.1 238.35 128.351 237.973C128.606 237.595 129.016 237.407 129.58 237.407C130.143 237.407 130.551 237.595 130.803 237.973C131.058 238.35 131.185 238.866 131.185 239.521C131.185 240.184 131.058 240.704 130.803 241.081C130.551 241.458 130.143 241.647 129.58 241.647C129.016 241.647 128.606 241.458 128.351 241.081C128.1 240.704 127.974 240.184 127.974 239.521ZM130.225 239.521C130.225 239.136 130.183 238.841 130.1 238.635C130.016 238.426 129.843 238.321 129.58 238.321C129.317 238.321 129.143 238.426 129.06 238.635C128.976 238.841 128.934 239.136 128.934 239.521C128.934 239.78 128.949 239.995 128.98 240.167C129.01 240.335 129.071 240.472 129.163 240.578C129.258 240.681 129.397 240.733 129.58 240.733C129.763 240.733 129.9 240.681 129.991 240.578C130.086 240.472 130.149 240.335 130.18 240.167C130.21 239.995 130.225 239.78 130.225 239.521ZM132.599 240.721H131.616L132.999 237.641H133.947L135.324 240.721H134.342L133.473 238.773L132.599 240.721ZM137.816 238.618C137.785 238.477 137.732 238.373 137.656 238.304C137.58 238.232 137.471 238.195 137.33 238.195C137.113 238.195 136.957 238.291 136.862 238.481C136.766 238.668 136.717 238.965 136.713 239.373C136.797 239.239 136.917 239.135 137.073 239.058C137.233 238.982 137.408 238.944 137.599 238.944C137.972 238.944 138.271 239.062 138.496 239.298C138.724 239.535 138.839 239.864 138.839 240.287C138.839 240.565 138.782 240.809 138.667 241.018C138.557 241.228 138.393 241.392 138.176 241.51C137.962 241.628 137.709 241.687 137.416 241.687C136.829 241.687 136.422 241.504 136.193 241.138C135.964 240.769 135.85 240.239 135.85 239.55C135.85 238.826 135.97 238.289 136.21 237.938C136.454 237.584 136.842 237.407 137.376 237.407C137.662 237.407 137.902 237.464 138.096 237.578C138.294 237.689 138.442 237.835 138.542 238.018C138.644 238.201 138.705 238.401 138.724 238.618H137.816ZM137.364 239.715C137.201 239.715 137.063 239.765 136.953 239.864C136.846 239.959 136.793 240.096 136.793 240.275C136.793 240.458 136.842 240.601 136.942 240.704C137.044 240.807 137.189 240.858 137.376 240.858C137.543 240.858 137.675 240.809 137.77 240.71C137.869 240.607 137.919 240.468 137.919 240.293C137.919 240.114 137.871 239.973 137.776 239.87C137.681 239.767 137.543 239.715 137.364 239.715ZM141.666 236.235L140.134 242.733H139.191L140.723 236.235H141.666ZM143.038 237.653V240.053C143.038 240.293 143.097 240.477 143.215 240.607C143.333 240.736 143.506 240.801 143.735 240.801C143.963 240.801 144.139 240.736 144.261 240.607C144.383 240.477 144.443 240.293 144.443 240.053V237.653H145.421V240.047C145.421 240.405 145.344 240.708 145.192 240.955C145.04 241.203 144.834 241.39 144.575 241.515C144.32 241.641 144.034 241.704 143.718 241.704C143.402 241.704 143.118 241.643 142.866 241.521C142.619 241.395 142.423 241.209 142.278 240.961C142.133 240.71 142.061 240.405 142.061 240.047V237.653H143.038ZM147.084 240.91H148.364V241.664H146.107V237.653H147.084V240.91Z" fill="#BD6162"/>
<g clip-path="url(#clip1_334_254)">
<path d="M19.494 232.667L18.454 230.736H18.298V232.667H16.842V227.43H19.1374C19.5583 227.43 19.9149 227.504 20.2071 227.653C20.4993 227.796 20.7197 227.997 20.8683 228.254C21.0168 228.507 21.0911 228.792 21.0911 229.109C21.0911 229.465 20.9921 229.78 20.794 230.052C20.6008 230.32 20.3161 230.51 19.9397 230.624L21.1208 232.667H19.494ZM18.298 229.74H19.0185C19.2166 229.74 19.3652 229.693 19.4643 229.599C19.5633 229.505 19.6128 229.369 19.6128 229.19C19.6128 229.022 19.5608 228.891 19.4568 228.797C19.3578 228.698 19.2117 228.648 19.0185 228.648H18.298V229.74ZM26.518 229.978C26.825 230.047 27.0677 230.201 27.246 230.438C27.4292 230.671 27.5208 230.939 27.5208 231.241C27.5208 231.686 27.3673 232.036 27.0603 232.288C26.7532 232.541 26.3223 232.667 25.7677 232.667H23.1751V227.43H25.686C26.2208 227.43 26.6393 227.549 26.9414 227.786C27.2484 228.024 27.402 228.358 27.402 228.789C27.402 229.096 27.3203 229.354 27.1568 229.562C26.9983 229.765 26.7854 229.904 26.518 229.978ZM24.6311 229.51H25.3665C25.733 229.51 25.9163 229.359 25.9163 229.057C25.9163 228.745 25.733 228.589 25.3665 228.589H24.6311V229.51ZM25.478 231.493C25.8444 231.493 26.0277 231.34 26.0277 231.033C26.0277 230.874 25.9782 230.753 25.8791 230.669C25.785 230.585 25.6488 230.542 25.4705 230.542H24.6311V231.493H25.478ZM29.4025 230.037C29.4025 229.522 29.509 229.064 29.7219 228.663C29.9399 228.257 30.2469 227.942 30.6431 227.72C31.0393 227.492 31.4949 227.378 32.0099 227.378C32.6637 227.378 33.2134 227.554 33.6591 227.905C34.1048 228.252 34.392 228.725 34.5208 229.324H32.9534C32.8593 229.126 32.728 228.975 32.5597 228.871C32.3962 228.767 32.2056 228.715 31.9877 228.715C31.6509 228.715 31.381 228.836 31.1779 229.079C30.9799 229.317 30.8808 229.636 30.8808 230.037C30.8808 230.443 30.9799 230.768 31.1779 231.01C31.381 231.248 31.6509 231.367 31.9877 231.367C32.2056 231.367 32.3962 231.315 32.5597 231.211C32.728 231.107 32.8593 230.956 32.9534 230.758H34.5208C34.392 231.357 34.1048 231.833 33.6591 232.184C33.2134 232.531 32.6637 232.704 32.0099 232.704C31.4949 232.704 31.0393 232.593 30.6431 232.37C30.2469 232.142 29.9399 231.828 29.7219 231.426C29.509 231.02 29.4025 230.557 29.4025 230.037ZM36.4539 230.037C36.4539 229.522 36.5603 229.064 36.7733 228.663C36.9912 228.257 37.2982 227.942 37.6944 227.72C38.0906 227.492 38.5462 227.378 39.0613 227.378C39.715 227.378 40.2647 227.554 40.7104 227.905C41.1561 228.252 41.4434 228.725 41.5721 229.324H40.0047C39.9106 229.126 39.7794 228.975 39.611 228.871C39.4476 228.767 39.2569 228.715 39.039 228.715C38.7022 228.715 38.4323 228.836 38.2293 229.079C38.0312 229.317 37.9321 229.636 37.9321 230.037C37.9321 230.443 38.0312 230.768 38.2293 231.01C38.4323 231.248 38.7022 231.367 39.039 231.367C39.2569 231.367 39.4476 231.315 39.611 231.211C39.7794 231.107 39.9106 230.956 40.0047 230.758H41.5721C41.4434 231.357 41.1561 231.833 40.7104 232.184C40.2647 232.531 39.715 232.704 39.0613 232.704C38.5462 232.704 38.0906 232.593 37.6944 232.37C37.2982 232.142 36.9912 231.828 36.7733 231.426C36.5603 231.02 36.4539 230.557 36.4539 230.037ZM44.2005 232.719C43.7845 232.719 43.4106 232.632 43.0787 232.459C42.7519 232.286 42.4944 232.038 42.3062 231.716C42.118 231.394 42.0239 231.015 42.0239 230.58C42.0239 230.149 42.118 229.772 42.3062 229.45C42.4993 229.129 42.7593 228.881 43.0862 228.708C43.418 228.534 43.7919 228.448 44.2079 228.448C44.6239 228.448 44.9953 228.534 45.3222 228.708C45.654 228.881 45.914 229.129 46.1022 229.45C46.2953 229.772 46.3919 230.149 46.3919 230.58C46.3919 231.01 46.2953 231.389 46.1022 231.716C45.914 232.038 45.654 232.286 45.3222 232.459C44.9904 232.632 44.6165 232.719 44.2005 232.719ZM44.2005 231.456C44.4035 231.456 44.5719 231.382 44.7056 231.233C44.8443 231.08 44.9136 230.862 44.9136 230.58C44.9136 230.297 44.8443 230.082 44.7056 229.933C44.5719 229.785 44.406 229.71 44.2079 229.71C44.0098 229.71 43.8439 229.785 43.7102 229.933C43.5765 230.082 43.5096 230.297 43.5096 230.58C43.5096 230.867 43.574 231.085 43.7027 231.233C43.8315 231.382 43.9974 231.456 44.2005 231.456ZM51.2483 228.5V232.667H49.7848V232.073C49.661 232.261 49.4902 232.414 49.2723 232.533C49.0544 232.647 48.8043 232.704 48.522 232.704C48.0366 232.704 47.6528 232.546 47.3705 232.229C47.0932 231.907 46.9545 231.471 46.9545 230.921V228.5H48.4031V230.736C48.4031 230.973 48.465 231.161 48.5888 231.3C48.7176 231.434 48.886 231.501 49.094 231.501C49.3069 231.501 49.4753 231.434 49.5991 231.3C49.7229 231.161 49.7848 230.973 49.7848 230.736V228.5H51.2483ZM54.8032 228.462C55.2836 228.462 55.6649 228.623 55.9472 228.945C56.2295 229.262 56.3706 229.693 56.3706 230.238V232.667H54.9146V230.431C54.9146 230.193 54.8527 230.008 54.7289 229.874C54.6051 229.735 54.4392 229.666 54.2312 229.666C54.0133 229.666 53.8424 229.735 53.7186 229.874C53.5948 230.008 53.5329 230.193 53.5329 230.431V232.667H52.0769V228.5H53.5329V229.094C53.6617 228.906 53.835 228.755 54.0529 228.641C54.2708 228.522 54.5209 228.462 54.8032 228.462ZM59.6284 231.426V232.667H58.997C57.9322 232.667 57.3998 232.14 57.3998 231.085V229.71H56.8872V228.5H57.3998V227.489H58.8632V228.5H59.621V229.71H58.8632V231.107C58.8632 231.221 58.888 231.303 58.9375 231.352C58.992 231.402 59.0811 231.426 59.205 231.426H59.6284Z" fill="white"/>
</g>
<g clip-path="url(#clip2_334_254)">
<path d="M19.504 237.784V238.528H18.4942V241.595H17.566V238.528H16.5563V237.784H19.504ZM19.7853 240.075C19.7853 239.763 19.8432 239.49 19.959 239.255C20.0784 239.02 20.2395 238.839 20.4421 238.712C20.6448 238.585 20.871 238.522 21.1207 238.522C21.3342 238.522 21.5206 238.566 21.6798 238.652C21.8427 238.739 21.9676 238.853 22.0544 238.994V238.566H22.9827V241.595H22.0544V241.166C21.9639 241.307 21.8373 241.421 21.6744 241.508C21.5152 241.595 21.3288 241.638 21.1153 241.638C20.8692 241.638 20.6448 241.575 20.4421 241.448C20.2395 241.318 20.0784 241.135 19.959 240.9C19.8432 240.661 19.7853 240.386 19.7853 240.075ZM22.0544 240.08C22.0544 239.849 21.9893 239.666 21.859 239.532C21.7323 239.398 21.5767 239.331 21.3921 239.331C21.2076 239.331 21.0501 239.398 20.9198 239.532C20.7932 239.662 20.7298 239.843 20.7298 240.075C20.7298 240.306 20.7932 240.491 20.9198 240.628C21.0501 240.762 21.2076 240.829 21.3921 240.829C21.5767 240.829 21.7323 240.762 21.859 240.628C21.9893 240.495 22.0544 240.312 22.0544 240.08ZM24.5826 239.07C24.6911 238.904 24.8268 238.774 24.9897 238.68C25.1526 238.582 25.3335 238.533 25.5326 238.533V239.516H25.2774C25.0458 239.516 24.8721 239.566 24.7563 239.668C24.6405 239.765 24.5826 239.939 24.5826 240.189V241.595H23.6543V238.566H24.5826V239.07ZM27.1271 238.522C27.3406 238.522 27.527 238.566 27.6863 238.652C27.8491 238.739 27.974 238.853 28.0608 238.994V238.566H28.9891V241.589C28.9891 241.868 28.933 242.119 28.8208 242.344C28.7123 242.572 28.544 242.753 28.316 242.887C28.0916 243.021 27.8111 243.088 27.4745 243.088C27.0258 243.088 26.6621 242.981 26.3834 242.767C26.1047 242.557 25.9455 242.271 25.9057 241.91H26.8231C26.8521 242.025 26.9208 242.116 27.0294 242.181C27.138 242.25 27.2719 242.284 27.4311 242.284C27.6229 242.284 27.7749 242.228 27.8871 242.116C28.0029 242.007 28.0608 241.832 28.0608 241.589V241.16C27.9704 241.302 27.8455 241.417 27.6863 241.508C27.527 241.595 27.3406 241.638 27.1271 241.638C26.8774 241.638 26.6512 241.575 26.4485 241.448C26.2459 241.318 26.0848 241.135 25.9654 240.9C25.8496 240.661 25.7917 240.386 25.7917 240.075C25.7917 239.763 25.8496 239.49 25.9654 239.255C26.0848 239.02 26.2459 238.839 26.4485 238.712C26.6512 238.585 26.8774 238.522 27.1271 238.522ZM28.0608 240.08C28.0608 239.849 27.9957 239.666 27.8654 239.532C27.7387 239.398 27.5831 239.331 27.3985 239.331C27.214 239.331 27.0565 239.398 26.9263 239.532C26.7996 239.662 26.7363 239.843 26.7363 240.075C26.7363 240.306 26.7996 240.491 26.9263 240.628C27.0565 240.762 27.214 240.829 27.3985 240.829C27.5831 240.829 27.7387 240.762 27.8654 240.628C27.9957 240.495 28.0608 240.312 28.0608 240.08ZM32.5161 240.031C32.5161 240.118 32.5107 240.209 32.4998 240.303H30.399C30.4135 240.491 30.4732 240.636 30.5781 240.737C30.6867 240.835 30.8188 240.884 30.9744 240.884C31.206 240.884 31.3671 240.786 31.4575 240.59H32.4455C32.3949 240.789 32.3026 240.969 32.1687 241.128C32.0384 241.287 31.8737 241.412 31.6747 241.502C31.4756 241.593 31.2531 241.638 31.007 241.638C30.7102 241.638 30.446 241.575 30.2144 241.448C29.9828 241.321 29.8018 241.141 29.6716 240.905C29.5413 240.67 29.4761 240.395 29.4761 240.08C29.4761 239.765 29.5395 239.49 29.6661 239.255C29.7964 239.02 29.9774 238.839 30.209 238.712C30.4406 238.585 30.7066 238.522 31.007 238.522C31.3001 238.522 31.5607 238.584 31.7887 238.707C32.0167 238.83 32.194 239.005 32.3207 239.233C32.451 239.461 32.5161 239.727 32.5161 240.031ZM31.5661 239.787C31.5661 239.628 31.5118 239.501 31.4033 239.407C31.2947 239.313 31.159 239.266 30.9961 239.266C30.8405 239.266 30.7084 239.311 30.5998 239.402C30.4949 239.492 30.4297 239.621 30.4044 239.787H31.5661ZM34.6941 240.808V241.595H34.2218C33.8853 241.595 33.6229 241.513 33.4347 241.35C33.2465 241.184 33.1524 240.914 33.1524 240.542V239.336H32.7833V238.566H33.1524V237.827H34.0807V238.566H34.6887V239.336H34.0807V240.552C34.0807 240.643 34.1024 240.708 34.1458 240.748C34.1893 240.788 34.2616 240.808 34.363 240.808H34.6941ZM35.6455 241.638C35.4826 241.638 35.3487 241.591 35.2438 241.497C35.1424 241.399 35.0918 241.28 35.0918 241.139C35.0918 240.994 35.1424 240.873 35.2438 240.775C35.3487 240.677 35.4826 240.628 35.6455 240.628C35.8047 240.628 35.935 240.677 36.0363 240.775C36.1413 240.873 36.1938 240.994 36.1938 241.139C36.1938 241.28 36.1413 241.399 36.0363 241.497C35.935 241.591 35.8047 241.638 35.6455 241.638ZM35.6455 239.429C35.4826 239.429 35.3487 239.382 35.2438 239.288C35.1424 239.19 35.0918 239.07 35.0918 238.929C35.0918 238.785 35.1424 238.663 35.2438 238.566C35.3487 238.468 35.4826 238.419 35.6455 238.419C35.8047 238.419 35.935 238.468 36.0363 238.566C36.1413 238.663 36.1938 238.785 36.1938 238.929C36.1938 239.07 36.1413 239.19 36.0363 239.288C35.935 239.382 35.8047 239.429 35.6455 239.429ZM37.8337 240.889V240.14L39.5491 237.686H40.586V240.086H41.0311V240.889H40.586V241.595H39.6577V240.889H37.8337ZM39.7228 238.707L38.8108 240.086H39.7228V238.707ZM42.0124 241.638C41.8495 241.638 41.7156 241.591 41.6107 241.497C41.5093 241.399 41.4587 241.28 41.4587 241.139C41.4587 240.994 41.5093 240.873 41.6107 240.775C41.7156 240.677 41.8495 240.628 42.0124 240.628C42.1716 240.628 42.3019 240.677 42.4032 240.775C42.5082 240.873 42.5607 240.994 42.5607 241.139C42.5607 241.28 42.5082 241.399 42.4032 241.497C42.3019 241.591 42.1716 241.638 42.0124 241.638ZM45.8082 238.441H44.1145V239.19C44.1869 239.11 44.2882 239.045 44.4185 238.994C44.5488 238.944 44.6899 238.918 44.8419 238.918C45.1133 238.918 45.3377 238.98 45.515 239.103C45.696 239.226 45.8281 239.385 45.9113 239.581C45.9946 239.776 46.0362 239.988 46.0362 240.216C46.0362 240.639 45.9168 240.976 45.6779 241.226C45.439 241.472 45.1025 241.595 44.6682 241.595C44.3787 241.595 44.1271 241.546 43.9136 241.448C43.7001 241.347 43.5354 241.207 43.4196 241.03C43.3038 240.853 43.2405 240.648 43.2296 240.417H44.1362C44.1579 240.529 44.2104 240.623 44.2936 240.699C44.3769 240.771 44.4909 240.808 44.6356 240.808C44.8057 240.808 44.9324 240.753 45.0156 240.645C45.0989 240.536 45.1405 240.391 45.1405 240.21C45.1405 240.033 45.097 239.897 45.0102 239.803C44.9233 239.709 44.7967 239.662 44.6302 239.662C44.5071 239.662 44.4058 239.693 44.3262 239.754C44.2466 239.812 44.1941 239.89 44.1688 239.988H43.273V237.626H45.8082V238.441ZM48.9752 239.304V240.075H46.5866V239.304H48.9752ZM52.4879 238.441H50.7942V239.19C50.8665 239.11 50.9679 239.045 51.0982 238.994C51.2284 238.944 51.3696 238.918 51.5216 238.918C51.793 238.918 52.0174 238.98 52.1947 239.103C52.3757 239.226 52.5078 239.385 52.591 239.581C52.6743 239.776 52.7159 239.988 52.7159 240.216C52.7159 240.639 52.5964 240.976 52.3576 241.226C52.1187 241.472 51.7822 241.595 51.3479 241.595C51.0584 241.595 50.8068 241.546 50.5933 241.448C50.3798 241.347 50.2151 241.207 50.0993 241.03C49.9835 240.853 49.9202 240.648 49.9093 240.417H50.8159C50.8376 240.529 50.8901 240.623 50.9733 240.699C51.0565 240.771 51.1705 240.808 51.3153 240.808C51.4854 240.808 51.6121 240.753 51.6953 240.645C51.7785 240.536 51.8202 240.391 51.8202 240.21C51.8202 240.033 51.7767 239.897 51.6899 239.803C51.603 239.709 51.4764 239.662 51.3099 239.662C51.1868 239.662 51.0855 239.693 51.0059 239.754C50.9263 239.812 50.8738 239.89 50.8484 239.988H49.9527V237.626H52.4879V238.441ZM53.7549 241.638C53.592 241.638 53.4581 241.591 53.3531 241.497C53.2518 241.399 53.2011 241.28 53.2011 241.139C53.2011 240.994 53.2518 240.873 53.3531 240.775C53.4581 240.677 53.592 240.628 53.7549 240.628C53.9141 240.628 54.0444 240.677 54.1457 240.775C54.2507 240.873 54.3031 240.994 54.3031 241.139C54.3031 241.28 54.2507 241.399 54.1457 241.497C54.0444 241.591 53.9141 241.638 53.7549 241.638ZM57.5507 238.441H55.8569V239.19C55.9293 239.11 56.0307 239.045 56.1609 238.994C56.2912 238.944 56.4324 238.918 56.5844 238.918C56.8558 238.918 57.0802 238.98 57.2575 239.103C57.4385 239.226 57.5706 239.385 57.6538 239.581C57.737 239.776 57.7787 239.988 57.7787 240.216C57.7787 240.639 57.6592 240.976 57.4204 241.226C57.1815 241.472 56.8449 241.595 56.4107 241.595C56.1211 241.595 55.8696 241.546 55.6561 241.448C55.4426 241.347 55.2779 241.207 55.1621 241.03C55.0463 240.853 54.9829 240.648 54.9721 240.417H55.8787C55.9004 240.529 55.9528 240.623 56.0361 240.699C56.1193 240.771 56.2333 240.808 56.3781 240.808C56.5482 240.808 56.6748 240.753 56.7581 240.645C56.8413 240.536 56.8829 240.391 56.8829 240.21C56.8829 240.033 56.8395 239.897 56.7527 239.803C56.6658 239.709 56.5391 239.662 56.3727 239.662C56.2496 239.662 56.1483 239.693 56.0687 239.754C55.989 239.812 55.9366 239.89 55.9112 239.988H55.0155V237.626H57.5507V238.441ZM59.3437 238.495V237.632H60.8475V241.595H59.8812V238.495H59.3437ZM61.4825 239.559C61.4825 238.937 61.6019 238.446 61.8408 238.088C62.0832 237.73 62.4723 237.55 63.0079 237.55C63.5435 237.55 63.9308 237.73 64.1696 238.088C64.4121 238.446 64.5333 238.937 64.5333 239.559C64.5333 240.189 64.4121 240.683 64.1696 241.041C63.9308 241.399 63.5435 241.578 63.0079 241.578C62.4723 241.578 62.0832 241.399 61.8408 241.041C61.6019 240.683 61.4825 240.189 61.4825 239.559ZM63.6213 239.559C63.6213 239.193 63.5815 238.913 63.5019 238.718C63.4223 238.519 63.2576 238.419 63.0079 238.419C62.7582 238.419 62.5935 238.519 62.5139 238.718C62.4343 238.913 62.3945 239.193 62.3945 239.559C62.3945 239.805 62.4089 240.01 62.4379 240.172C62.4668 240.332 62.5248 240.462 62.6116 240.563C62.7021 240.661 62.8342 240.71 63.0079 240.71C63.1816 240.71 63.3119 240.661 63.3988 240.563C63.4892 240.462 63.5489 240.332 63.5779 240.172C63.6068 240.01 63.6213 239.805 63.6213 239.559ZM65.876 240.699H64.9423L66.256 237.773H67.1572L68.4655 240.699H67.5318L66.7066 238.848L65.876 240.699ZM70.8322 238.701C70.8033 238.567 70.7526 238.468 70.6802 238.403C70.6079 238.334 70.5047 238.3 70.3708 238.3C70.1645 238.3 70.0162 238.39 69.9257 238.571C69.8352 238.748 69.7882 239.031 69.7845 239.418C69.8642 239.291 69.9782 239.192 70.1265 239.119C70.2785 239.047 70.445 239.011 70.626 239.011C70.9806 239.011 71.2647 239.123 71.4782 239.347C71.6954 239.572 71.804 239.885 71.804 240.286C71.804 240.551 71.7497 240.782 71.6411 240.981C71.5362 241.18 71.3805 241.336 71.1742 241.448C70.9716 241.56 70.7309 241.616 70.4522 241.616C69.8949 241.616 69.5077 241.443 69.2905 241.095C69.0734 240.744 68.9648 240.241 68.9648 239.586C68.9648 238.899 69.0788 238.388 69.3068 238.055C69.5384 237.719 69.9076 237.55 70.4142 237.55C70.6857 237.55 70.9137 237.605 71.0982 237.713C71.2864 237.818 71.4276 237.958 71.5217 238.131C71.6194 238.305 71.6773 238.495 71.6954 238.701H70.8322ZM70.4034 239.744C70.2478 239.744 70.1175 239.791 70.0125 239.885C69.9112 239.975 69.8605 240.105 69.8605 240.276C69.8605 240.449 69.9076 240.585 70.0017 240.683C70.0994 240.78 70.2369 240.829 70.4142 240.829C70.5735 240.829 70.6983 240.782 70.7888 240.688C70.8829 240.59 70.93 240.458 70.93 240.292C70.93 240.122 70.8847 239.988 70.7942 239.89C70.7038 239.792 70.5735 239.744 70.4034 239.744ZM74.4896 236.438L73.0347 242.61H72.139L73.5939 236.438H74.4896ZM75.7931 237.784V240.064C75.7931 240.292 75.8492 240.467 75.9614 240.59C76.0736 240.713 76.2383 240.775 76.4554 240.775C76.6725 240.775 76.839 240.713 76.9548 240.59C77.0706 240.467 77.1285 240.292 77.1285 240.064V237.784H78.0568V240.058C78.0568 240.399 77.9844 240.686 77.8397 240.922C77.6949 241.157 77.4995 241.334 77.2534 241.454C77.0109 241.573 76.7395 241.633 76.4391 241.633C76.1387 241.633 75.8691 241.575 75.6303 241.459C75.395 241.34 75.2086 241.162 75.0711 240.927C74.9336 240.688 74.8648 240.399 74.8648 240.058V237.784H75.7931ZM79.637 240.878H80.853V241.595H78.7087V237.784H79.637V240.878Z" fill="#BD6162"/>
</g>
<mask id="path-16-inside-1_334_254" fill="white">
<path d="M14.421 209.248C14.421 204.199 18.5144 200.105 23.5639 200.105C28.6133 200.105 32.7067 204.199 32.7067 209.248C32.7067 214.298 28.6133 218.391 23.5639 218.391C18.5144 218.391 14.421 214.298 14.421 209.248Z"/>
</mask>
<path d="M14.421 209.248C14.421 204.199 18.5144 200.105 23.5639 200.105C28.6133 200.105 32.7067 204.199 32.7067 209.248C32.7067 214.298 28.6133 218.391 23.5639 218.391C18.5144 218.391 14.421 214.298 14.421 209.248Z" fill="#E88F4A" fill-opacity="0.1"/>
<path d="M14.421 209.248M32.7067 209.248M32.7067 209.248M14.421 209.248M23.5639 200.105M32.7067 209.248M23.5639 218.391M14.421 209.248M23.5639 218.391V217.82C18.83 217.82 14.9924 213.982 14.9924 209.248H14.421H13.8496C13.8496 214.613 18.1988 218.963 23.5639 218.963V218.391ZM32.7067 209.248H32.1353C32.1353 213.982 28.2977 217.82 23.5639 217.82V218.391V218.963C28.9289 218.963 33.2782 214.613 33.2782 209.248H32.7067ZM23.5639 200.105V200.677C28.2977 200.677 32.1353 204.514 32.1353 209.248H32.7067H33.2782C33.2782 203.883 28.9289 199.534 23.5639 199.534V200.105ZM23.5639 200.105V199.534C18.1988 199.534 13.8496 203.883 13.8496 209.248H14.421H14.9924C14.9924 204.514 18.83 200.677 23.5639 200.677V200.105Z" fill="#E88F4A" fill-opacity="0.2" mask="url(#path-16-inside-1_334_254)"/>
<g clip-path="url(#clip3_334_254)">
<path d="M23.5636 212.583C25.4046 212.583 26.897 211.09 26.897 209.249C26.897 207.408 25.4046 205.916 23.5636 205.916C21.7227 205.916 20.2303 207.408 20.2303 209.249C20.2303 211.09 21.7227 212.583 23.5636 212.583Z" stroke="#B95042" stroke-width="0.833333" stroke-linecap="round" stroke-linejoin="round"/>
<path d="M23.564 207.916V209.249" stroke="#B95042" stroke-width="0.833333" stroke-linecap="round" stroke-linejoin="round"/>
<path d="M23.564 210.583H23.5686" stroke="#B95042" stroke-width="0.833333" stroke-linecap="round" stroke-linejoin="round"/>
</g>
<mask id="path-21-inside-2_334_254" fill="white">
<path d="M56.4478 206.605C56.4478 203.016 59.358 200.105 62.9478 200.105H92.2067C95.7966 200.105 98.7067 203.016 98.7067 206.605C98.7067 210.195 95.7966 213.105 92.2067 213.105H62.9478C59.358 213.105 56.4478 210.195 56.4478 206.605Z"/>
</mask>
<path d="M56.4478 206.605C56.4478 203.016 59.358 200.105 62.9478 200.105H92.2067C95.7966 200.105 98.7067 203.016 98.7067 206.605C98.7067 210.195 95.7966 213.105 92.2067 213.105H62.9478C59.358 213.105 56.4478 210.195 56.4478 206.605Z" fill="#E88F4A" fill-opacity="0.1"/>
<path d="M56.4478 206.605M98.7067 206.605M98.7067 206.605M56.4478 206.605M62.9478 200.105V200.677H92.2067V200.105V199.534H62.9478V200.105ZM98.7067 206.605M92.2067 213.105V212.534H62.9478V213.105V213.677H92.2067V213.105ZM56.4478 206.605M62.9478 213.105V212.534C59.6736 212.534 57.0192 209.88 57.0192 206.605H56.4478H55.8764C55.8764 210.511 59.0424 213.677 62.9478 213.677V213.105ZM98.7067 206.605H98.1353C98.1353 209.88 95.481 212.534 92.2067 212.534V213.105V213.677C96.1122 213.677 99.2782 210.511 99.2782 206.605H98.7067ZM92.2067 200.105V200.677C95.481 200.677 98.1353 203.331 98.1353 206.605H98.7067H99.2782C99.2782 202.7 96.1122 199.534 92.2067 199.534V200.105ZM62.9478 200.105V199.534C59.0424 199.534 55.8764 202.7 55.8764 206.605H56.4478H57.0192C57.0192 203.331 59.6736 200.677 62.9478 200.677V200.105Z" fill="#E88F4A" fill-opacity="0.2" mask="url(#path-21-inside-2_334_254)"/>
<path d="M63.9561 206.214C64.1537 206.256 64.3123 206.355 64.4321 206.511C64.5519 206.663 64.6118 206.838 64.6118 207.035C64.6118 207.32 64.5115 207.547 64.3107 207.715C64.1132 207.88 63.8363 207.963 63.4801 207.963H61.8918V204.553H63.4267C63.7732 204.553 64.0436 204.633 64.2378 204.791C64.4354 204.95 64.5341 205.165 64.5341 205.437C64.5341 205.638 64.4807 205.805 64.3738 205.937C64.2702 206.07 64.131 206.163 63.9561 206.214ZM62.7224 205.933H63.2664C63.4024 205.933 63.506 205.903 63.5773 205.845C63.6517 205.784 63.689 205.695 63.689 205.578C63.689 205.461 63.6517 205.372 63.5773 205.311C63.506 205.249 63.4024 205.219 63.2664 205.219H62.7224V205.933ZM63.3344 207.293C63.4737 207.293 63.5805 207.262 63.655 207.2C63.7327 207.136 63.7716 207.043 63.7716 206.923C63.7716 206.804 63.7311 206.71 63.6501 206.642C63.5724 206.574 63.4639 206.54 63.3247 206.54H62.7224V207.293H63.3344ZM66.949 207.997C66.6284 207.997 66.3338 207.922 66.065 207.773C65.7995 207.625 65.5874 207.417 65.4287 207.152C65.2733 206.883 65.1956 206.582 65.1956 206.248C65.1956 205.915 65.2733 205.615 65.4287 205.35C65.5874 205.084 65.7995 204.877 66.065 204.728C66.3338 204.579 66.6284 204.505 66.949 204.505C67.2696 204.505 67.5626 204.579 67.8281 204.728C68.0969 204.877 68.3074 205.084 68.4596 205.35C68.615 205.615 68.6927 205.915 68.6927 206.248C68.6927 206.582 68.615 206.883 68.4596 207.152C68.3041 207.417 68.0937 207.625 67.8281 207.773C67.5626 207.922 67.2696 207.997 66.949 207.997ZM66.949 207.239C67.221 207.239 67.438 207.149 67.5999 206.967C67.765 206.786 67.8476 206.546 67.8476 206.248C67.8476 205.947 67.765 205.708 67.5999 205.529C67.438 205.348 67.221 205.257 66.949 205.257C66.6738 205.257 66.4536 205.347 66.2884 205.525C66.1265 205.703 66.0456 205.944 66.0456 206.248C66.0456 206.549 66.1265 206.791 66.2884 206.972C66.4536 207.15 66.6738 207.239 66.949 207.239ZM71.1365 207.963L70.4274 206.676H70.2282V207.963H69.3976V204.553H70.7916C71.0604 204.553 71.2887 204.6 71.4765 204.694C71.6675 204.788 71.81 204.917 71.9039 205.083C71.9978 205.245 72.0448 205.426 72.0448 205.627C72.0448 205.853 71.98 206.056 71.8505 206.234C71.7242 206.412 71.5364 206.538 71.2871 206.613L72.0739 207.963H71.1365ZM70.2282 206.088H70.7431C70.8953 206.088 71.0086 206.051 71.0831 205.976C71.1608 205.902 71.1996 205.797 71.1996 205.661C71.1996 205.531 71.1608 205.429 71.0831 205.355C71.0086 205.28 70.8953 205.243 70.7431 205.243H70.2282V206.088ZM74.0865 204.553C74.4459 204.553 74.76 204.624 75.0287 204.767C75.2975 204.909 75.5047 205.11 75.6505 205.369C75.7994 205.625 75.8739 205.921 75.8739 206.258C75.8739 206.592 75.7994 206.888 75.6505 207.147C75.5047 207.406 75.2959 207.607 75.0239 207.749C74.7551 207.892 74.4426 207.963 74.0865 207.963H72.809V204.553H74.0865ZM74.033 207.244C74.3471 207.244 74.5916 207.158 74.7665 206.987C74.9413 206.815 75.0287 206.572 75.0287 206.258C75.0287 205.944 74.9413 205.699 74.7665 205.525C74.5916 205.35 74.3471 205.262 74.033 205.262H73.6396V207.244H74.033ZM77.4115 205.219V205.908H78.5238V206.549H77.4115V207.297H78.6695V207.963H76.5809V204.553H78.6695V205.219H77.4115ZM81.1904 207.963L80.4813 206.676H80.2821V207.963H79.4515V204.553H80.8455C81.1143 204.553 81.3426 204.6 81.5304 204.694C81.7215 204.788 81.8639 204.917 81.9578 205.083C82.0517 205.245 82.0987 205.426 82.0987 205.627C82.0987 205.853 82.0339 206.056 81.9044 206.234C81.7781 206.412 81.5903 206.538 81.341 206.613L82.1278 207.963H81.1904ZM80.2821 206.088H80.797C80.9492 206.088 81.0625 206.051 81.137 205.976C81.2147 205.902 81.2535 205.797 81.2535 205.661C81.2535 205.531 81.2147 205.429 81.137 205.355C81.0625 205.28 80.9492 205.243 80.797 205.243H80.2821V206.088ZM83.6935 207.322H84.7815V207.963H82.8629V204.553H83.6935V207.322ZM86.2511 204.553V207.963H85.4205V204.553H86.2511ZM90.1461 207.963H89.3156L87.9264 205.86V207.963H87.0959V204.553H87.9264L89.3156 206.666V204.553H90.1461V207.963ZM91.8216 205.219V205.908H92.9339V206.549H91.8216V207.297H93.0796V207.963H90.9911V204.553H93.0796V205.219H91.8216Z" fill="#B95042"/>
<defs>
<clipPath id="clip0_334_254">
<rect width="10.5" height="12" fill="white" transform="translate(15.4084 100.354)"/>
</clipPath>
<clipPath id="clip1_334_254">
<rect width="84.2857" height="10.2143" fill="white" transform="translate(16.4255 224.095)"/>
</clipPath>
<clipPath id="clip2_334_254">
<rect width="84.2857" height="6.78571" fill="white" transform="translate(16.4255 236.595)"/>
</clipPath>
<clipPath id="clip3_334_254">
<rect width="8" height="8" fill="white" transform="translate(19.5639 205.248)"/>
</clipPath>
</defs>
</svg>
