<svg xmlns="http://www.w3.org/2000/svg" width="256" height="316" fill="none" viewBox="0 0 256 316"><path fill="#d9d9d9" fill-opacity=".2" d="M0 10C0 4.477 4.477 0 10 0h236c5.523 0 10 4.477 10 10v296c0 5.523-4.477 10-10 10H10c-5.523 0-10-4.477-10-10z"/><mask id="path-2-inside-1_334_508" fill="#fff"><path d="M18.739 55.503c0-8.422 6.827-15.25 15.25-15.25h69.031c8.422 0 15.25 6.828 15.25 15.25s-6.828 15.25-15.25 15.25H33.989c-8.423 0-15.25-6.828-15.25-15.25"/></mask><path fill="#fff" d="M18.739 55.503c0-8.422 6.827-15.25 15.25-15.25h69.031c8.422 0 15.25 6.828 15.25 15.25s-6.828 15.25-15.25 15.25H33.989c-8.423 0-15.25-6.828-15.25-15.25"/><path fill="#f1f5f9" d="M33.989 40.253v1h69.031v-2H33.989zm69.031 30.5v-1H33.989v2h69.031zm-69.031 0v-1c-7.87 0-14.25-6.38-14.25-14.25h-2c0 8.975 7.275 16.25 16.25 16.25zm84.281-15.25h-1c0 7.87-6.38 14.25-14.25 14.25v2c8.975 0 16.25-7.275 16.25-16.25zm-15.25-15.25v1c7.87 0 14.25 6.38 14.25 14.25h2c0-8.975-7.275-16.25-16.25-16.25zm-69.031 0v-1c-8.975 0-16.25 7.275-16.25 16.25h2c0-7.87 6.38-14.25 14.25-14.25z" mask="url(#path-2-inside-1_334_508)"/><g stroke="#558fe6" stroke-linecap="round" stroke-linejoin="round" clip-path="url(#clip0_334_508)"><path d="M35.239 57.653c1.1 0 2-.915 2-2.025 0-.58-.285-1.13-.855-1.595s-1-1.155-1.145-1.88a3.3 3.3 0 0 1-1.145 1.88c-.575.46-.855 1.02-.855 1.595 0 1.11.9 2.025 2 2.025"/><path d="M38.019 52.803c.344-.55.587-1.156.72-1.79.25 1.25 1 2.45 2 3.25s1.5 1.75 1.5 2.75a3.49 3.49 0 0 1-5.955 2.485"/></g><path fill="#1d293d" d="M56.867 51.575v7.678h-1.54v-3.267h-3.29v3.267h-1.54v-7.678h1.54v3.157h3.29v-3.157zm7.345 1.584-3.773 8.976H58.8l1.32-3.036-2.442-5.94h1.727l1.573 4.257 1.595-4.257zm.435 3.025q0-.924.363-1.64.373-.713 1.012-1.1a2.7 2.7 0 0 1 1.419-.384q.594 0 1.133.264.538.253.858.682v-2.893h1.562v8.14h-1.562v-.902q-.287.45-.803.726-.518.275-1.2.275-.77 0-1.407-.396a2.8 2.8 0 0 1-1.012-1.111q-.363-.726-.363-1.661m4.796.022q0-.561-.22-.957a1.5 1.5 0 0 0-.594-.616 1.56 1.56 0 0 0-.803-.22q-.429 0-.792.209-.363.21-.594.616-.22.397-.22.946 0 .55.22.968.231.406.594.627.374.22.792.22.428 0 .803-.21a1.6 1.6 0 0 0 .594-.615q.22-.407.22-.968m4.595-2.101q.296-.484.77-.76.483-.274 1.1-.274v1.617H75.5q-.726 0-1.1.34-.363.342-.363 1.189v3.036h-1.54v-6.094h1.54zm2.51 2.079q0-.924.364-1.64.375-.713 1-1.1a2.7 2.7 0 0 1 1.42-.384q.682 0 1.188.275.518.275.825.693v-.87h1.55v6.095h-1.55v-.891a2.3 2.3 0 0 1-.825.715q-.517.275-1.2.275-.769 0-1.407-.396a2.83 2.83 0 0 1-1.001-1.111q-.363-.726-.363-1.661m4.797.022q0-.561-.22-.957a1.5 1.5 0 0 0-.594-.616 1.56 1.56 0 0 0-.803-.22q-.429 0-.792.209-.363.21-.594.616-.22.397-.22.946 0 .55.22.968.231.406.594.627.374.22.792.22.43 0 .803-.21a1.6 1.6 0 0 0 .594-.615q.22-.407.22-.968m4.848-1.782v2.948q0 .308.143.45.154.133.506.133h.715v1.298h-.968q-1.947 0-1.947-1.892v-2.937h-.726v-1.265h.726v-1.507h1.551v1.507h1.364v1.265zm3.253-1.991a.97.97 0 0 1-.682-.253.88.88 0 0 1-.264-.65q0-.384.264-.637a.95.95 0 0 1 .682-.264q.407 0 .67.264a.83.83 0 0 1 .276.638.86.86 0 0 1-.275.649.93.93 0 0 1-.671.253m.759.726v6.094h-1.54v-6.094zm4.227 6.193a3.25 3.25 0 0 1-1.584-.385 2.9 2.9 0 0 1-1.11-1.111q-.397-.715-.397-1.65t.407-1.65a2.87 2.87 0 0 1 1.133-1.1 3.24 3.24 0 0 1 1.595-.396q.88 0 1.595.396.715.385 1.122 1.1.418.715.418 1.65t-.429 1.65q-.418.715-1.144 1.11a3.3 3.3 0 0 1-1.606.386m0-1.342q.419 0 .781-.198.375-.21.594-.616.22-.407.22-.99 0-.87-.462-1.331a1.48 1.48 0 0 0-1.11-.473q-.66 0-1.112.473-.44.463-.44 1.33 0 .87.43 1.343.44.462 1.1.462m7.686-4.94q1.088 0 1.76.694.67.682.671 1.914v3.575h-1.54v-3.366q0-.726-.363-1.111-.363-.396-.99-.396-.639 0-1.012.396-.363.386-.363 1.11v3.367h-1.54v-6.094h1.54v.759a2.1 2.1 0 0 1 .781-.616 2.4 2.4 0 0 1 1.056-.231m60.166 2.432c0-6.351 5.148-11.5 11.5-11.5h39.453c6.351 0 11.5 5.149 11.5 11.5s-5.149 11.5-11.5 11.5h-39.453c-6.352 0-11.5-5.149-11.5-11.5"/><path stroke="#fff" stroke-linecap="round" stroke-linejoin="round" stroke-width="1.25" d="M174.369 55.503h5.833m-2.916-2.917v5.833"/><path fill="#fff" d="M193.193 52.023v1.13h-1.86v5.85h-1.4v-5.85h-1.86v-1.13zm2.422 2.3a2 2 0 0 1 .7-.69q.44-.25 1-.25v1.47h-.37q-.66 0-1 .31-.33.31-.33 1.08v2.76h-1.4v-5.54h1.4zm2.283 1.89q0-.84.33-1.49.34-.65.91-1a2.45 2.45 0 0 1 1.29-.35q.62 0 1.08.25.47.25.75.63v-.79h1.41v5.54h-1.41v-.81q-.27.39-.75.65-.47.25-1.09.25a2.4 2.4 0 0 1-1.28-.36 2.6 2.6 0 0 1-.91-1.01q-.33-.66-.33-1.51m4.36.02q0-.51-.2-.87a1.37 1.37 0 0 0-.54-.56q-.34-.2-.73-.2t-.72.19-.54.56q-.2.36-.2.86t.2.88q.21.37.54.57.34.2.72.2.39 0 .73-.19a1.45 1.45 0 0 0 .54-.56q.2-.37.2-.88m2.417 0q0-.86.35-1.5.35-.65.97-1 .62-.36 1.42-.36 1.03 0 1.7.52.68.51.91 1.44h-1.51a1.07 1.07 0 0 0-.41-.56q-.28-.21-.7-.21-.6 0-.95.44-.35.43-.35 1.23 0 .79.35 1.23.35.43.95.43.85 0 1.11-.76h1.51q-.23.9-.91 1.43t-1.7.53a2.84 2.84 0 0 1-1.42-.35 2.55 2.55 0 0 1-.97-1q-.35-.65-.35-1.51m9.656 2.77-1.88-2.36v2.36h-1.4v-7.4h1.4v4.21l1.86-2.35h1.82l-2.44 2.78 2.46 2.76z"/><path fill="#aab4c2" d="M25.71 120.455v1.356h-2.23v7.02H21.8v-7.02h-2.232v-1.356zm4.179 8.484q-.96 0-1.728-.42a3.15 3.15 0 0 1-1.212-1.212q-.432-.78-.432-1.8t.444-1.8q.456-.78 1.236-1.2a3.53 3.53 0 0 1 1.74-.432q.96 0 1.74.432.78.42 1.224 1.2.456.78.456 1.8t-.468 1.8q-.456.78-1.248 1.212-.78.42-1.752.42m0-1.464q.456 0 .852-.216.408-.228.648-.672t.24-1.08q0-.948-.504-1.452a1.6 1.6 0 0 0-1.212-.516q-.72 0-1.212.516-.48.504-.48 1.452t.468 1.464q.48.504 1.2.504m4.268-1.992q0-1.008.396-1.788.408-.78 1.104-1.2t1.548-.42q.648 0 1.236.288.588.276.936.744v-3.156h1.704v8.88h-1.704v-.984q-.312.492-.876.792t-1.308.3q-.84 0-1.536-.432a3.06 3.06 0 0 1-1.104-1.212q-.396-.792-.396-1.812m5.232.024q0-.612-.24-1.044a1.64 1.64 0 0 0-.648-.672 1.7 1.7 0 0 0-.876-.24q-.468 0-.864.228t-.648.672q-.24.432-.24 1.032t.24 1.056q.252.444.648.684.408.24.864.24.468 0 .876-.228.408-.24.648-.672.24-.444.24-1.056m2.9-.024q0-1.008.397-1.788.408-.78 1.092-1.2.696-.42 1.548-.42.744 0 1.296.3.564.3.9.756v-.948h1.692v6.648h-1.692v-.972a2.54 2.54 0 0 1-.9.78q-.564.3-1.308.3-.84 0-1.536-.432a3.1 3.1 0 0 1-1.092-1.212q-.396-.792-.396-1.812m5.233.024q0-.612-.24-1.044a1.64 1.64 0 0 0-.648-.672 1.7 1.7 0 0 0-.876-.24q-.468 0-.864.228t-.648.672q-.24.432-.24 1.032t.24 1.056q.252.444.648.684.408.24.864.24.468 0 .876-.228.408-.24.648-.672.24-.444.24-1.056m9.693-3.324-4.116 9.792h-1.79l1.44-3.312-2.664-6.48h1.884l1.716 4.644 1.74-4.644zm1.961-2.928-.144 2.544h-1.14l-.156-2.544zm3.832 9.684a3.6 3.6 0 0 1-1.464-.288 2.7 2.7 0 0 1-1.032-.804 2.05 2.05 0 0 1-.408-1.116h1.692a.93.93 0 0 0 .372.636q.336.252.828.252.48 0 .744-.192.276-.192.276-.492 0-.324-.336-.48-.324-.168-1.044-.36a9 9 0 0 1-1.224-.372 2.2 2.2 0 0 1-.816-.588q-.336-.396-.336-1.068 0-.552.312-1.008.324-.456.912-.72.6-.264 1.404-.264 1.188 0 1.896.6.708.588.78 1.596h-1.608a.84.84 0 0 0-.336-.624q-.288-.24-.78-.24-.456 0-.708.168a.54.54 0 0 0-.24.468q0 .336.336.516.336.168 1.044.348.72.18 1.188.372t.804.6q.348.396.36 1.056 0 .576-.324 1.032-.312.456-.912.72-.588.252-1.38.252m12.686-5.964a1.97 1.97 0 0 0-.792-.804q-.504-.276-1.176-.276-.744 0-1.32.336a2.3 2.3 0 0 0-.9.96q-.324.624-.324 1.44 0 .84.324 1.464.336.624.924.96t1.368.336q.96 0 1.572-.504.612-.516.804-1.428h-2.88v-1.284h4.536v1.464a3.9 3.9 0 0 1-.72 1.62 4.1 4.1 0 0 1-1.428 1.2q-.864.444-1.944.444-1.212 0-2.196-.54a4.07 4.07 0 0 1-1.536-1.524q-.552-.972-.552-2.208t.552-2.208a3.96 3.96 0 0 1 1.536-1.524 4.4 4.4 0 0 1 2.184-.552q1.416 0 2.46.696 1.044.684 1.44 1.932zm6.331 5.964q-.96 0-1.728-.42a3.15 3.15 0 0 1-1.212-1.212q-.432-.78-.432-1.8t.444-1.8q.456-.78 1.236-1.2a3.53 3.53 0 0 1 1.74-.432q.96 0 1.74.432.78.42 1.224 1.2.456.78.456 1.8t-.468 1.8q-.456.78-1.248 1.212-.78.42-1.752.42m0-1.464q.456 0 .852-.216.408-.228.648-.672t.24-1.08q0-.948-.504-1.452a1.6 1.6 0 0 0-1.212-.516q-.72 0-1.212.516-.48.504-.48 1.452t.468 1.464q.48.504 1.2.504m4.269-1.992q0-1.008.396-1.788.408-.78 1.092-1.2.696-.42 1.548-.42.744 0 1.296.3.564.3.9.756v-.948h1.692v6.648h-1.692v-.972a2.54 2.54 0 0 1-.9.78q-.564.3-1.308.3-.84 0-1.536-.432a3.1 3.1 0 0 1-1.092-1.212q-.396-.792-.396-1.812m5.232.024q0-.612-.24-1.044a1.64 1.64 0 0 0-.648-.672 1.7 1.7 0 0 0-.876-.24q-.468 0-.864.228t-.648.672q-.24.432-.24 1.032t.24 1.056q.252.444.648.684.408.24.864.24.468 0 .876-.228.408-.24.648-.672.24-.444.24-1.056m5.013-5.556v8.88h-1.68v-8.88z"/><path fill="#a4a4a4" d="M36.559 146.375H26.19v5.472q.672-.833 1.92-1.344a6.6 6.6 0 0 1 2.656-.544q2.56 0 4.192 1.12t2.368 2.88a9.4 9.4 0 0 1 .736 3.712q0 3.68-2.112 5.92-2.08 2.24-5.952 2.24-3.648 0-5.824-1.824t-2.464-4.768h4.352q.288 1.28 1.28 2.048 1.024.768 2.592.768 1.888 0 2.848-1.184t.96-3.136q0-1.984-.992-3.008-.96-1.056-2.848-1.056-1.344 0-2.24.672t-1.28 1.792h-4.288v-13.696h14.464z"/><path fill="#90a1b9" d="m46.08 150.679-4.32 18.048h-2.19l4.32-18.048zm2.678 8.976q-1.6-.832-1.6-2.576 0-.864.432-1.568.447-.72 1.328-1.136.895-.432 2.176-.432 1.28 0 2.16.432.896.416 1.328 1.136.448.704.448 1.568 0 .88-.432 1.552a3 3 0 0 1-1.152 1.024q.88.384 1.376 1.12t.496 1.744q0 1.088-.56 1.904-.544.8-1.504 1.232t-2.16.432-2.16-.432a3.65 3.65 0 0 1-1.504-1.232q-.544-.816-.544-1.904 0-1.008.496-1.744a3 3 0 0 1 1.376-1.12m4.096-2.256q0-.784-.48-1.216-.464-.432-1.28-.432-.8 0-1.28.432-.464.432-.464 1.232 0 .72.48 1.152.495.432 1.264.432.768 0 1.264-.432.495-.448.496-1.168m-1.76 3.232q-.912 0-1.488.464-.56.464-.56 1.328 0 .8.544 1.312.56.496 1.504.496t1.488-.512.544-1.296q0-.848-.56-1.312-.56-.48-1.472-.48"/><path fill="#558fe6" d="M67.234 157.999a2.3 2.3 0 0 0-.924-.938q-.588-.322-1.372-.322-.868 0-1.54.392a2.7 2.7 0 0 0-1.05 1.12q-.378.728-.378 1.68 0 .98.378 1.708.391.728 1.078 1.12.686.392 1.596.392 1.12 0 1.834-.588.714-.602.938-1.666h-3.36v-1.498h5.292v1.708a4.6 4.6 0 0 1-.84 1.89 4.8 4.8 0 0 1-1.666 1.4q-1.008.518-2.268.518-1.414 0-2.562-.63a4.75 4.75 0 0 1-1.792-1.778q-.645-1.134-.644-2.576 0-1.442.644-2.576a4.6 4.6 0 0 1 1.792-1.778q1.148-.644 2.548-.644 1.652 0 2.87.812 1.218.798 1.68 2.254zm5.902-3.528v10.36h-1.96v-10.36zm1.433 6.454q0-1.176.462-2.086.476-.91 1.274-1.4a3.4 3.4 0 0 1 1.806-.49q.867 0 1.512.35.657.35 1.05.882v-1.106h1.974v7.756h-1.974v-1.134q-.378.546-1.05.91-.659.35-1.526.35-.98 0-1.792-.504-.798-.504-1.274-1.414-.462-.924-.462-2.114m6.104.028q0-.714-.28-1.218a1.9 1.9 0 0 0-.756-.784 2 2 0 0 0-1.022-.28q-.546 0-1.008.266a2.04 2.04 0 0 0-.756.784q-.28.504-.28 1.204t.28 1.232q.294.517.756.798.475.28 1.008.28.546 0 1.022-.266a2.04 2.04 0 0 0 .756-.784q.28-.518.28-1.232m6.856 4.004q-.952 0-1.708-.336a3.1 3.1 0 0 1-1.204-.938 2.4 2.4 0 0 1-.476-1.302h1.974q.056.448.434.742.392.294.966.294.56 0 .868-.224.322-.224.322-.574 0-.378-.392-.56-.378-.196-1.218-.42a11 11 0 0 1-1.428-.434 2.5 2.5 0 0 1-.952-.686q-.392-.462-.392-1.246 0-.643.364-1.176.378-.532 1.064-.84.7-.308 1.638-.308 1.386 0 2.212.7.826.686.91 1.862h-1.876a.98.98 0 0 0-.392-.728q-.336-.28-.91-.28-.532 0-.826.196a.63.63 0 0 0-.28.546q0 .392.392.602.392.196 1.218.406.84.21 1.386.434t.938.7q.405.462.42 1.232 0 .672-.378 1.204-.364.532-1.064.84-.686.294-1.61.294m7.629 0q-.952 0-1.708-.336a3.1 3.1 0 0 1-1.204-.938 2.4 2.4 0 0 1-.476-1.302h1.974q.056.448.434.742.392.294.966.294.56 0 .868-.224.322-.224.322-.574 0-.378-.392-.56-.378-.196-1.218-.42a11 11 0 0 1-1.428-.434 2.5 2.5 0 0 1-.952-.686q-.392-.462-.392-1.246 0-.643.364-1.176.377-.532 1.064-.84.7-.308 1.638-.308 1.386 0 2.212.7.826.686.91 1.862h-1.876a.98.98 0 0 0-.392-.728q-.337-.28-.91-.28-.532 0-.826.196a.63.63 0 0 0-.28.546q0 .392.392.602.391.196 1.218.406.84.21 1.386.434t.938.7q.405.462.42 1.232 0 .672-.378 1.204-.364.532-1.064.84-.686.294-1.61.294m11.871-4.172q0 .42-.056.756h-5.67q.069.84.588 1.316t1.274.476q1.092 0 1.554-.938h2.114a3.57 3.57 0 0 1-1.288 1.848q-.952.714-2.338.714-1.12 0-2.016-.49a3.6 3.6 0 0 1-1.386-1.414q-.49-.91-.49-2.1 0-1.204.49-2.114a3.4 3.4 0 0 1 1.372-1.4q.881-.49 2.03-.49 1.106 0 1.974.476.882.476 1.358 1.358.49.868.49 2.002m-2.03-.56q-.015-.756-.546-1.204-.532-.462-1.302-.462-.728 0-1.232.448-.49.433-.602 1.218zm6.428 4.732q-.951 0-1.708-.336a3.1 3.1 0 0 1-1.204-.938 2.4 2.4 0 0 1-.476-1.302h1.974q.056.448.434.742.393.294.966.294.56 0 .868-.224.322-.224.322-.574 0-.378-.392-.56-.378-.196-1.218-.42a11 11 0 0 1-1.428-.434 2.54 2.54 0 0 1-.952-.686q-.392-.462-.392-1.246 0-.643.364-1.176.378-.532 1.064-.84.7-.308 1.638-.308 1.387 0 2.212.7.826.686.91 1.862h-1.876a.98.98 0 0 0-.392-.728q-.336-.28-.91-.28-.531 0-.826.196a.63.63 0 0 0-.28.546q0 .392.392.602.393.196 1.218.406.84.21 1.386.434t.938.7q.406.462.42 1.232 0 .672-.378 1.204-.363.532-1.064.84-.686.294-1.61.294"/><path fill="#558fe6" d="M18 215.625c0-6.144 4.98-11.125 11.125-11.125s11.125 4.981 11.125 11.125v1.75c0 6.144-4.98 11.125-11.125 11.125S18 223.519 18 217.375zm26.25 0c0-6.144 4.98-11.125 11.125-11.125S66.5 209.481 66.5 215.625v1.75c0 6.144-4.98 11.125-11.125 11.125s-11.125-4.981-11.125-11.125zm26.25 0c0-6.144 4.98-11.125 11.125-11.125s11.125 4.981 11.125 11.125v1.75c0 6.144-4.98 11.125-11.125 11.125S70.5 223.519 70.5 217.375zm26.25 0c0-6.144 4.981-11.125 11.125-11.125S119 209.481 119 215.625v1.75c0 6.144-4.981 11.125-11.125 11.125s-11.125-4.981-11.125-11.125zm26.25 0c0-6.144 4.981-11.125 11.125-11.125s11.125 4.981 11.125 11.125v1.75c0 6.144-4.981 11.125-11.125 11.125S123 223.519 123 217.375z" opacity=".8"/><path fill="#f1f5f9" d="M149.25 215.625c0-6.144 4.981-11.125 11.125-11.125s11.125 4.981 11.125 11.125v1.75c0 6.144-4.981 11.125-11.125 11.125s-11.125-4.981-11.125-11.125zm26.25 0c0-6.144 4.981-11.125 11.125-11.125s11.125 4.981 11.125 11.125v1.75c0 6.144-4.981 11.125-11.125 11.125s-11.125-4.981-11.125-11.125zm26.25 0c0-6.144 4.981-11.125 11.125-11.125S224 209.481 224 215.625v1.75c0 6.144-4.981 11.125-11.125 11.125s-11.125-4.981-11.125-11.125z"/><mask id="path-22-inside-2_334_508" fill="#fff"><path d="M18 264c0-8.837 7.164-16 16-16h174c8.837 0 16 7.163 16 16v26c0 8.837-7.163 16-16 16H34c-8.836 0-16-7.163-16-16z"/></mask><path fill="#fff" fill-opacity=".5" d="M18 264c0-8.837 7.164-16 16-16h174c8.837 0 16 7.163 16 16v26c0 8.837-7.163 16-16 16H34c-8.836 0-16-7.163-16-16z"/><path fill="#fff" d="M34 248v1h174v-2H34zm190 16h-1v26h2v-26zm-16 42v-1H34v2h174zM18 290h1v-26h-2v26zm16 16v-1c-8.284 0-15-6.716-15-15h-2c0 9.389 7.611 17 17 17zm190-16h-1c0 8.284-6.715 15-15 15v2c9.389 0 17-7.611 17-17zm-16-42v1c8.285 0 15 6.716 15 15h2c0-9.389-7.611-17-17-17zm-174 0v-1c-9.388 0-17 7.611-17 17h2c0-8.284 6.716-15 15-15z" mask="url(#path-22-inside-2_334_508)"/><mask id="path-24-inside-3_334_508" fill="#fff"><path d="M31 277c0-8.837 7.164-16 16-16s16 7.163 16 16-7.163 16-16 16-16-7.163-16-16"/></mask><path fill="#eaf3fa" d="M31 277c0-8.837 7.164-16 16-16s16 7.163 16 16-7.163 16-16 16-16-7.163-16-16"/><path fill="#fff" d="M47 293v-1c-8.284 0-15-6.716-15-15h-2c0 9.389 7.611 17 17 17zm16-16h-1c0 8.284-6.715 15-15 15v2c9.39 0 17-7.611 17-17zm-16-16v1c8.285 0 15 6.716 15 15h2c0-9.389-7.61-17-17-17zm0 0v-1c-9.388 0-17 7.611-17 17h2c0-8.284 6.716-15 15-15z" mask="url(#path-24-inside-3_334_508)"/><path stroke="#558fe6" stroke-linecap="round" stroke-linejoin="round" stroke-width="1.167" d="M42.985 272.394a.583.583 0 0 1 .58-.644h6.871q.124 0 .237.051a.57.57 0 0 1 .318.352q.038.118.025.242l-.988 9.394a1.167 1.167 0 0 1-1.16 1.044h-3.734a1.164 1.164 0 0 1-1.167-1.044z"/><path stroke="#558fe6" stroke-linecap="round" stroke-linejoin="round" stroke-width="1.167" d="M43.5 277a2.92 2.92 0 0 1 3.5 0 2.915 2.915 0 0 0 3.5 0"/><path fill="#1d293d" d="m81.865 265.572-2.596 5.005v2.673h-1.54v-2.673l-2.608-5.005h1.739l1.65 3.509 1.638-3.509zm3.594 7.777a3.24 3.24 0 0 1-1.584-.385 2.9 2.9 0 0 1-1.111-1.111q-.396-.715-.396-1.65t.407-1.65a2.87 2.87 0 0 1 1.133-1.1 3.24 3.24 0 0 1 1.595-.396q.88 0 1.595.396.714.385 1.122 1.1.418.716.418 1.65t-.43 1.65a2.9 2.9 0 0 1-1.143 1.111 3.3 3.3 0 0 1-1.606.385m0-1.342q.418 0 .78-.198.375-.209.595-.616t.22-.99q0-.869-.462-1.331a1.48 1.48 0 0 0-1.111-.473q-.66 0-1.111.473-.44.462-.44 1.331t.429 1.342q.44.462 1.1.462m10.061-4.851v6.094h-1.55v-.77a2.1 2.1 0 0 1-.782.627q-.473.22-1.034.22a2.6 2.6 0 0 1-1.265-.297 2.2 2.2 0 0 1-.869-.891q-.308-.594-.308-1.408v-3.575h1.54v3.355q0 .726.363 1.122.363.385.99.385.64 0 1.001-.385.363-.396.363-1.122v-3.355zm2.488-2.684-.132 2.332H96.83l-.143-2.332zm2.72 3.63q.297-.485.77-.759.485-.275 1.1-.275v1.617h-.407q-.725 0-1.1.341-.363.34-.363 1.188v3.036h-1.54v-6.094h1.54zm8.572 1.969q0 .33-.044.594h-4.455q.056.66.462 1.034t1.001.374q.858 0 1.221-.737h1.661a2.8 2.8 0 0 1-1.012 1.452q-.748.561-1.837.561a3.25 3.25 0 0 1-1.584-.385 2.83 2.83 0 0 1-1.089-1.111q-.385-.715-.385-1.65 0-.946.385-1.661a2.7 2.7 0 0 1 1.078-1.1q.693-.385 1.595-.385.87 0 1.551.374.693.374 1.067 1.067.385.682.385 1.573m-1.595-.44q-.01-.594-.429-.946-.417-.363-1.023-.363-.572 0-.968.352-.384.34-.473.957zm8.047 3.718a3.24 3.24 0 0 1-1.584-.385 2.9 2.9 0 0 1-1.111-1.111q-.396-.715-.396-1.65t.407-1.65a2.86 2.86 0 0 1 1.133-1.1 3.23 3.23 0 0 1 1.595-.396q.88 0 1.595.396a2.8 2.8 0 0 1 1.122 1.1q.418.716.418 1.65t-.429 1.65q-.418.715-1.144 1.111a3.3 3.3 0 0 1-1.606.385m0-1.342q.418 0 .781-.198a1.5 1.5 0 0 0 .594-.616q.22-.407.22-.99 0-.869-.462-1.331a1.48 1.48 0 0 0-1.111-.473q-.66 0-1.111.473-.44.462-.44 1.331t.429 1.342q.44.462 1.1.462m7.685-4.939q1.09 0 1.76.693.672.683.671 1.914v3.575h-1.54v-3.366q0-.726-.363-1.111-.363-.396-.99-.396-.637 0-1.012.396-.363.385-.363 1.111v3.366h-1.54v-6.094h1.54v.759a2.1 2.1 0 0 1 .781-.616 2.4 2.4 0 0 1 1.056-.231m8.31 1.353v2.948q0 .308.143.451.153.132.506.132h.715v1.298h-.968q-1.947 0-1.947-1.892v-2.937h-.726v-1.265h.726v-1.507h1.551v1.507h1.364v1.265zm4.011-.319q.297-.485.77-.759.485-.275 1.1-.275v1.617h-.407q-.725 0-1.1.341-.363.34-.363 1.188v3.036h-1.54v-6.094h1.54zm2.512 2.079q0-.924.363-1.639a2.75 2.75 0 0 1 1.001-1.1 2.7 2.7 0 0 1 1.419-.385q.681 0 1.188.275.516.274.825.693v-.869h1.551v6.094h-1.551v-.891a2.3 2.3 0 0 1-.825.715 2.5 2.5 0 0 1-1.199.275q-.77 0-1.408-.396a2.83 2.83 0 0 1-1.001-1.111q-.363-.726-.363-1.661m4.796.022q0-.561-.22-.957a1.5 1.5 0 0 0-.594-.616 1.56 1.56 0 0 0-.803-.22q-.429 0-.792.209t-.594.616q-.22.396-.22.946t.22.968q.231.407.594.627.374.22.792.22.428 0 .803-.209.374-.22.594-.616.22-.407.22-.968m2.659 0q0-.946.385-1.65a2.7 2.7 0 0 1 1.067-1.1q.681-.396 1.562-.396 1.132 0 1.87.572.747.561 1.001 1.584h-1.661a1.18 1.18 0 0 0-.451-.616q-.308-.231-.77-.231-.66 0-1.045.484-.385.473-.385 1.353 0 .868.385 1.353.385.473 1.045.473.934 0 1.221-.836h1.661q-.254.99-1.001 1.573-.748.583-1.87.583-.88 0-1.562-.385a2.8 2.8 0 0 1-1.067-1.1q-.385-.715-.385-1.661m10.621 3.047-2.068-2.596v2.596h-1.54v-8.14h1.54v4.631l2.046-2.585h2.002l-2.684 3.058 2.706 3.036zm3.498.077a.98.98 0 0 1-.693-.253.88.88 0 0 1-.264-.649q0-.385.264-.638a.96.96 0 0 1 .693-.264.9.9 0 0 1 .671.264.85.85 0 0 1 .264.638.88.88 0 0 1-.264.649.93.93 0 0 1-.671.253m7.48-7.755q1.21 0 2.123.473a3.3 3.3 0 0 1 1.419 1.353q.506.869.506 2.024t-.506 2.024a3.37 3.37 0 0 1-1.419 1.331q-.912.473-2.123.473h-2.684v-7.678zm-.055 6.369q1.21 0 1.87-.66t.66-1.859-.66-1.87q-.66-.682-1.87-.682h-1.089v5.071zm6.796-3.839q.297-.485.77-.759a2.2 2.2 0 0 1 1.1-.275v1.617h-.407q-.726 0-1.1.341-.363.34-.363 1.188v3.036h-1.54v-6.094h1.54zm3.688-1.672a.97.97 0 0 1-.682-.253.88.88 0 0 1-.264-.649q0-.385.264-.638a.95.95 0 0 1 .682-.264q.407 0 .671.264a.83.83 0 0 1 .275.638.86.86 0 0 1-.275.649.93.93 0 0 1-.671.253m.759.726v6.094h-1.54v-6.094zm4.899-.088q1.09 0 1.76.693.67.683.671 1.914v3.575h-1.54v-3.366q0-.726-.363-1.111-.363-.396-.99-.396-.638 0-1.012.396-.363.385-.363 1.111v3.366h-1.54v-6.094h1.54v.759q.308-.396.781-.616a2.4 2.4 0 0 1 1.056-.231m7.503 6.182-2.068-2.596v2.596h-1.54v-8.14h1.54v4.631l2.046-2.585h2.002l-2.684 3.058 2.706 3.036zm5.074-6.6v-1.419h2.651v8.019h-1.584v-6.6zm-112.66 13.418q1.122 0 1.803.693.694.683.694 1.914v3.575h-1.54v-3.366q0-.716-.364-1.089-.363-.385-.99-.385t-1 .385q-.364.373-.364 1.089v3.366h-1.54v-3.366q0-.716-.362-1.089-.364-.385-.99-.385-.638 0-1.013.385-.363.373-.363 1.089v3.366h-1.54v-6.094h1.54v.737a2.06 2.06 0 0 1 .76-.605q.473-.22 1.034-.22.714 0 1.275.308.562.297.87.858.297-.528.858-.847a2.5 2.5 0 0 1 1.231-.319m6.664 6.281a3.24 3.24 0 0 1-1.584-.385 2.9 2.9 0 0 1-1.111-1.111q-.396-.715-.396-1.65t.407-1.65a2.87 2.87 0 0 1 1.133-1.1 3.24 3.24 0 0 1 1.595-.396q.88 0 1.595.396.715.385 1.122 1.1.418.716.418 1.65t-.43 1.65a2.9 2.9 0 0 1-1.143 1.111 3.3 3.3 0 0 1-1.606.385m0-1.342q.418 0 .78-.198.375-.209.595-.616t.22-.99q0-.869-.462-1.331a1.48 1.48 0 0 0-1.111-.473q-.66 0-1.111.473-.44.462-.44 1.331t.429 1.342q.44.462 1.1.462m5.849-3.905q.296-.485.77-.759a2.2 2.2 0 0 1 1.1-.275v1.617h-.407q-.726 0-1.1.341-.363.34-.363 1.188v3.036H94.3v-6.094h1.54zm8.572 1.969q0 .33-.044.594h-4.455q.054.66.462 1.034.407.374 1.001.374.858 0 1.221-.737h1.661a2.8 2.8 0 0 1-1.012 1.452q-.748.561-1.837.561a3.24 3.24 0 0 1-1.584-.385 2.83 2.83 0 0 1-1.09-1.111q-.384-.715-.384-1.65 0-.946.385-1.661a2.7 2.7 0 0 1 1.078-1.1q.693-.385 1.595-.385.869 0 1.551.374.692.374 1.067 1.067.385.682.385 1.573m-1.595-.44q-.012-.594-.429-.946a1.5 1.5 0 0 0-1.023-.363q-.573 0-.968.352-.386.34-.473.957zm7.727-2.574q.682 0 1.199.275.517.264.814.693v-.869h1.551v6.138q0 .847-.341 1.507a2.5 2.5 0 0 1-1.023 1.056q-.683.396-1.65.396-1.298 0-2.134-.605-.825-.605-.935-1.65h1.529q.121.418.517.66.407.253.979.253.67 0 1.089-.407.418-.396.418-1.21v-.946a2.3 2.3 0 0 1-.825.715 2.4 2.4 0 0 1-1.188.286q-.77 0-1.408-.396a2.8 2.8 0 0 1-1.012-1.111q-.363-.726-.363-1.661 0-.924.363-1.639a2.75 2.75 0 0 1 1.001-1.1 2.7 2.7 0 0 1 1.419-.385m2.013 3.146q0-.561-.22-.957a1.5 1.5 0 0 0-.594-.616 1.55 1.55 0 0 0-.803-.22q-.429 0-.792.209t-.594.616q-.22.396-.22.946t.22.968q.231.407.594.627.373.22.792.22.43 0 .803-.209.373-.22.594-.616.22-.407.22-.968m4.595-5.093v8.14h-1.54v-8.14zm1.126 5.071q0-.924.363-1.639a2.75 2.75 0 0 1 1.001-1.1 2.7 2.7 0 0 1 1.419-.385q.681 0 1.188.275.516.274.825.693v-.869h1.551v6.094h-1.551v-.891a2.3 2.3 0 0 1-.825.715 2.5 2.5 0 0 1-1.199.275q-.77 0-1.408-.396a2.83 2.83 0 0 1-1.001-1.111q-.363-.726-.363-1.661m4.796.022q0-.561-.22-.957a1.5 1.5 0 0 0-.594-.616 1.56 1.56 0 0 0-.803-.22q-.429 0-.792.209t-.594.616q-.22.396-.22.946t.22.968q.231.407.594.627.374.22.792.22.428 0 .803-.209.374-.22.594-.616.22-.407.22-.968m5.387 3.146a3.3 3.3 0 0 1-1.342-.264 2.45 2.45 0 0 1-.946-.737 1.87 1.87 0 0 1-.374-1.023h1.551a.85.85 0 0 0 .341.583q.308.231.759.231.44 0 .682-.176.252-.176.253-.451 0-.297-.308-.44-.297-.154-.957-.33a8.5 8.5 0 0 1-1.122-.341 2 2 0 0 1-.748-.539q-.309-.363-.308-.979a1.6 1.6 0 0 1 .286-.924q.296-.419.836-.66.549-.242 1.287-.242 1.089 0 1.738.55.648.539.715 1.463h-1.474a.77.77 0 0 0-.308-.572q-.264-.22-.715-.22-.418 0-.649.154a.5.5 0 0 0-.22.429q0 .308.308.473.307.154.957.319.66.165 1.089.341t.737.55q.318.363.33.968 0 .528-.297.946-.287.418-.836.66-.54.231-1.265.231m5.994 0a3.3 3.3 0 0 1-1.342-.264 2.45 2.45 0 0 1-.946-.737 1.87 1.87 0 0 1-.374-1.023h1.551a.85.85 0 0 0 .341.583q.308.231.759.231.44 0 .682-.176.252-.176.253-.451 0-.297-.308-.44-.297-.154-.957-.33a8.5 8.5 0 0 1-1.122-.341 2 2 0 0 1-.748-.539q-.308-.363-.308-.979a1.6 1.6 0 0 1 .286-.924q.296-.419.836-.66.549-.242 1.287-.242 1.089 0 1.738.55.649.539.715 1.463h-1.474a.77.77 0 0 0-.308-.572q-.264-.22-.715-.22-.418 0-.649.154a.5.5 0 0 0-.22.429q0 .308.308.473.308.154.957.319.66.165 1.089.341t.737.55q.318.363.33.968 0 .528-.297.946-.287.418-.836.66-.54.231-1.265.231m9.66-6.281q1.09 0 1.76.693.67.683.671 1.914v3.575h-1.54v-3.366q0-.726-.363-1.111-.363-.396-.99-.396-.638 0-1.012.396-.363.385-.363 1.111v3.366h-1.54v-6.094h1.54v.759q.308-.396.781-.616a2.4 2.4 0 0 1 1.056-.231m6.601 6.281a3.25 3.25 0 0 1-1.584-.385 2.9 2.9 0 0 1-1.111-1.111q-.396-.715-.396-1.65t.407-1.65a2.87 2.87 0 0 1 1.133-1.1 3.24 3.24 0 0 1 1.595-.396q.88 0 1.595.396.716.385 1.122 1.1.418.716.418 1.65t-.429 1.65q-.417.715-1.144 1.111a3.3 3.3 0 0 1-1.606.385m0-1.342q.418 0 .781-.198.375-.209.594-.616.22-.407.22-.99 0-.869-.462-1.331a1.48 1.48 0 0 0-1.111-.473q-.66 0-1.111.473-.44.462-.44 1.331t.429 1.342q.44.462 1.1.462m12.757-4.851-1.782 6.094h-1.661l-1.111-4.257-1.111 4.257h-1.672l-1.793-6.094h1.562l1.078 4.642 1.166-4.642h1.628l1.144 4.631 1.078-4.631zm1.515 6.171a1 1 0 0 1-.693-.253.88.88 0 0 1-.264-.649q0-.385.264-.638a.96.96 0 0 1 .693-.264q.407 0 .671.264a.85.85 0 0 1 .264.638.88.88 0 0 1-.264.649.93.93 0 0 1-.671.253"/><defs><clipPath id="clip0_334_508"><path fill="#fff" d="M31.739 49.503h12v12h-12z"/></clipPath></defs></svg>