<svg xmlns="http://www.w3.org/2000/svg" width="245" height="267" fill="none" viewBox="0 0 245 267"><path fill="#d9d9d9" fill-opacity=".2" d="M0 10C0 4.477 4.477 0 10 0h225c5.523 0 10 4.477 10 10v247c0 5.523-4.477 10-10 10H10c-5.523 0-10-4.477-10-10z"/><mask id="path-2-inside-1_334_460" fill="#fff"><path d="M13.775 39.463c0-7.456 6.044-13.5 13.5-13.5s13.5 6.044 13.5 13.5-6.044 13.5-13.5 13.5-13.5-6.044-13.5-13.5"/></mask><path fill="#e88f4a" fill-opacity=".1" d="M13.775 39.463c0-7.456 6.044-13.5 13.5-13.5s13.5 6.044 13.5 13.5-6.044 13.5-13.5 13.5-13.5-6.044-13.5-13.5"/><path fill="#e88f4a" fill-opacity=".2" d="M27.275 52.963v-.675c-7.083 0-12.825-5.742-12.825-12.825H13.1c0 7.828 6.346 14.175 14.175 14.175zm13.5-13.5H40.1c0 7.083-5.742 12.825-12.825 12.825v1.35c7.829 0 14.175-6.346 14.175-14.175zm-13.5-13.5v.675c7.083 0 12.825 5.742 12.825 12.825h1.35c0-7.829-6.346-14.175-14.175-14.175zm0 0v-.675c-7.829 0-14.175 6.346-14.175 14.175h1.35c0-7.083 5.742-12.825 12.825-12.825z" mask="url(#path-2-inside-1_334_460)"/><g stroke="#e88f4a" stroke-linecap="round" stroke-linejoin="round" stroke-width="1.012" clip-path="url(#clip0_334_460)"><path d="m32.201 42.5-4.05-7.088a1.012 1.012 0 0 0-1.761 0l-4.05 7.087a1.012 1.012 0 0 0 .885 1.519h8.1a1.012 1.012 0 0 0 .876-1.519m-4.926-4.556v2.025m0 2.025h.005"/></g><path fill="#edf0fc" d="M52.945 35.459q1.35 0 2.357.546 1.02.535 1.568 1.507.546.973.547 2.224 0 1.24-.56 2.21a3.9 3.9 0 0 1-1.567 1.532q-1.008.546-2.345.546h-3.39V35.46zm-.182 6.463q1.045 0 1.64-.57.596-.572.596-1.616 0-1.058-.596-1.629-.595-.582-1.64-.583h-.826v4.398zm12.24-1.385q0 .28-.037.56h-4.508q.037.558.304.838a.98.98 0 0 0 .705.267q.595 0 .85-.535h2.54q-.159.705-.62 1.264-.45.546-1.142.863-.693.316-1.531.316-1.008 0-1.798-.426a3.1 3.1 0 0 1-1.227-1.215q-.438-.79-.438-1.859t.438-1.846a3.03 3.03 0 0 1 1.215-1.216q.79-.425 1.81-.425 1.009 0 1.786.413.777.414 1.215 1.191.438.765.437 1.81m-2.43-.595q0-.438-.292-.68a1.07 1.07 0 0 0-.73-.255q-.436 0-.716.242-.28.231-.365.693zm7.085-.753H68.59v4.835h-2.393V39.19h-.742v-1.98h.742v-.062q0-1.311.765-2.004.778-.705 2.224-.705.291 0 .45.012v2.03a2 2 0 0 0-.268-.013q-.39 0-.571.182-.182.17-.207.56h1.07zm2.054-2.612q-.63 0-1.02-.34a1.15 1.15 0 0 1-.377-.876q0-.535.377-.886.39-.353 1.02-.353.62 0 .997.352.388.352.388.888 0 .523-.388.874-.378.34-.997.34m1.179.631v6.816h-2.382v-6.816zm.967 3.402q0-1.057.438-1.846a3.03 3.03 0 0 1 1.215-1.216q.79-.425 1.798-.425 1.3 0 2.187.717.887.705 1.142 1.98H78.11q-.22-.668-.85-.668-.45 0-.718.377-.255.364-.255 1.081t.255 1.094a.84.84 0 0 0 .717.376q.645 0 .85-.668h2.528q-.254 1.264-1.142 1.98-.886.717-2.187.717-1.008 0-1.798-.425a3.03 3.03 0 0 1-1.215-1.215q-.438-.79-.438-1.859m8.972-4.033q-.632 0-1.02-.34a1.15 1.15 0 0 1-.377-.876q0-.535.376-.886.39-.353 1.021-.353.62 0 .996.352.39.352.39.888 0 .523-.39.874-.376.34-.996.34m1.179.631v6.816h-2.382v-6.816zm7.868 3.33q0 .279-.036.558h-4.508q.037.559.304.839a.98.98 0 0 0 .704.267q.595 0 .851-.535h2.54q-.159.705-.62 1.264-.45.546-1.142.863-.693.316-1.531.316-1.01 0-1.798-.426a3.1 3.1 0 0 1-1.228-1.215q-.437-.79-.437-1.859t.437-1.846a3.03 3.03 0 0 1 1.215-1.216q.79-.425 1.81-.425 1.009 0 1.787.413.777.414 1.215 1.191.437.765.437 1.81m-2.43-.596q0-.438-.291-.68a1.07 1.07 0 0 0-.73-.255q-.437 0-.716.242-.28.231-.365.693zm7.864-2.794q1.179 0 1.87.79.694.777.693 2.113v3.973h-2.381v-3.657q0-.583-.304-.911-.304-.34-.814-.34-.534 0-.838.34-.304.328-.304.911v3.657h-2.381v-6.816h2.381v.972q.316-.462.85-.74a2.5 2.5 0 0 1 1.228-.292m3.481 3.462q0-1.057.438-1.846a3 3 0 0 1 1.215-1.216q.79-.425 1.798-.425 1.3 0 2.187.717.887.705 1.142 1.98h-2.527q-.22-.668-.851-.668a.84.84 0 0 0-.717.377q-.255.364-.255 1.081t.255 1.094a.84.84 0 0 0 .717.376q.644 0 .851-.668h2.527q-.255 1.264-1.142 1.98-.886.717-2.187.717-1.009 0-1.798-.425a3 3 0 0 1-1.215-1.215q-.438-.79-.438-1.859m8.972-4.033q-.632 0-1.02-.34a1.15 1.15 0 0 1-.377-.876q0-.535.377-.886.388-.353 1.02-.353.62 0 .996.352.39.352.389.888 0 .523-.389.874-.377.34-.996.34m1.179.631v6.816h-2.382v-6.816zm7.868 3.33q0 .279-.036.558h-4.508q.036.559.304.839a.98.98 0 0 0 .705.267q.594 0 .85-.535h2.539q-.157.705-.619 1.264-.45.546-1.142.863-.693.316-1.531.316-1.01 0-1.798-.426a3.1 3.1 0 0 1-1.228-1.215q-.437-.79-.437-1.859t.437-1.846a3.03 3.03 0 0 1 1.215-1.216q.79-.425 1.811-.425 1.008 0 1.786.413a2.97 2.97 0 0 1 1.215 1.191q.437.765.437 1.81m-2.43-.596q0-.438-.291-.68a1.07 1.07 0 0 0-.729-.255q-.438 0-.717.242-.28.231-.365.693zm6.309 4.167q-.924 0-1.653-.303-.716-.316-1.142-.85a2.27 2.27 0 0 1-.462-1.228h2.309a.73.73 0 0 0 .304.51q.255.183.631.183.292 0 .462-.122a.37.37 0 0 0 .17-.316q0-.255-.279-.376t-.924-.268a8 8 0 0 1-1.215-.328 2.1 2.1 0 0 1-.85-.595q-.352-.413-.352-1.118 0-.608.328-1.093.327-.498.959-.79.645-.292 1.544-.292 1.336 0 2.101.656.766.657.887 1.726h-2.15a.76.76 0 0 0-.292-.498q-.219-.183-.595-.183-.291 0-.45.11a.36.36 0 0 0-.145.303q0 .243.279.377.28.121.899.255.741.158 1.227.352.498.195.863.632.377.426.377 1.167 0 .595-.353 1.069-.34.474-.984.753-.631.267-1.494.267m9.717-8.65q1.349 0 2.357.546a3.75 3.75 0 0 1 1.567 1.507q.547.973.547 2.224 0 1.24-.559 2.21a3.9 3.9 0 0 1-1.567 1.532q-1.009.546-2.345.546h-3.39V35.46zm-.182 6.463q1.044 0 1.64-.57.595-.572.595-1.616 0-1.058-.595-1.629-.596-.582-1.64-.583h-.827v4.398zm12.239-1.385q0 .28-.037.56h-4.507q.036.558.304.838a.98.98 0 0 0 .704.267q.596 0 .851-.535h2.539q-.158.705-.62 1.264a3.1 3.1 0 0 1-1.142.863q-.692.316-1.531.316-1.008 0-1.798-.426A3.1 3.1 0 0 1 138 42.47q-.437-.79-.437-1.859t.437-1.846a3.03 3.03 0 0 1 1.215-1.216q.79-.425 1.81-.425 1.01 0 1.786.413.778.414 1.215 1.191.438.765.438 1.81m-2.43-.595q0-.438-.292-.68a1.07 1.07 0 0 0-.729-.255q-.436 0-.717.242-.279.231-.364.693zm7.426 2.053v2.03h-1.033q-2.612 0-2.612-2.588V39.19h-.838v-1.98h.838v-1.653h2.394v1.652h1.239v1.98h-1.239v2.285q0 .28.121.4.133.122.438.122zm7.605-1.458q0 .28-.037.56h-4.507q.036.558.303.838a.98.98 0 0 0 .705.267q.595 0 .851-.535h2.539q-.158.705-.62 1.264a3.1 3.1 0 0 1-1.142.863q-.693.316-1.531.316-1.008 0-1.798-.426a3.1 3.1 0 0 1-1.227-1.215q-.437-.79-.437-1.859t.437-1.846a3.03 3.03 0 0 1 1.215-1.216q.79-.425 1.81-.425 1.01 0 1.786.413.778.414 1.215 1.191.438.765.438 1.81m-2.43-.595q0-.438-.292-.68a1.07 1.07 0 0 0-.729-.255q-.436 0-.717.242-.28.231-.364.693zm3.015.668q0-1.057.438-1.846a3 3 0 0 1 1.215-1.216q.79-.425 1.798-.425 1.3 0 2.187.717.887.705 1.142 1.98h-2.527q-.218-.668-.851-.668a.84.84 0 0 0-.716.377q-.256.364-.256 1.081t.256 1.094a.84.84 0 0 0 .716.376q.644 0 .851-.668h2.527q-.255 1.264-1.142 1.98-.887.717-2.187.717-1.008 0-1.798-.425a3 3 0 0 1-1.215-1.215q-.438-.79-.438-1.859m11.791 1.385v2.03h-1.033q-2.612 0-2.612-2.588V39.19h-.838v-1.98h.838v-1.653h2.394v1.652h1.239v1.98h-1.239v2.285q0 .28.121.4.133.122.438.122zm7.605-1.458q0 .28-.037.56h-4.507q.036.558.303.838a.98.98 0 0 0 .705.267q.596 0 .851-.535h2.539q-.158.705-.62 1.264a3.1 3.1 0 0 1-1.142.863q-.692.316-1.531.316-1.008 0-1.798-.426a3.1 3.1 0 0 1-1.227-1.215q-.437-.79-.437-1.859t.437-1.846a3.03 3.03 0 0 1 1.215-1.216q.79-.425 1.81-.425 1.01 0 1.786.413.778.414 1.215 1.191.438.765.438 1.81m-2.43-.595q0-.438-.292-.68a1.07 1.07 0 0 0-.729-.255q-.436 0-.717.242-.279.231-.364.693zm3.016.668q0-1.057.376-1.846.389-.79 1.057-1.216.669-.425 1.483-.425.656 0 1.166.28.522.267.814.74v-3.11h2.394v8.991h-2.394v-.947q-.28.474-.79.753-.51.28-1.203.28a2.7 2.7 0 0 1-1.482-.426q-.656-.425-1.045-1.215-.376-.801-.376-1.859m4.908 0q0-.655-.364-1.032a1.15 1.15 0 0 0-.875-.377q-.535 0-.887.377-.352.364-.352 1.032 0 .657.352 1.045.352.377.887.377.522 0 .875-.377.364-.376.364-1.045M30.198 68.698q0 .582-.272 1.062-.264.472-.808.762-.536.282-1.316.282h-.88v2.16h-1.78v-6.398h2.66q.771 0 1.307.272.544.271.817.753.272.48.272 1.107m-2.568.69q.753 0 .753-.69 0-.698-.753-.698h-.708v1.388zm5.651 3.64q-.762 0-1.37-.318a2.35 2.35 0 0 1-.944-.908q-.345-.59-.345-1.388 0-.79.345-1.38a2.4 2.4 0 0 1 .953-.907 2.9 2.9 0 0 1 1.37-.318q.763 0 1.362.318.608.317.953.907.354.59.354 1.38t-.354 1.388q-.345.59-.953.908a2.9 2.9 0 0 1-1.37.317m0-1.544q.372 0 .617-.272.255-.281.255-.798t-.255-.79a.79.79 0 0 0-.608-.272.79.79 0 0 0-.608.272q-.245.273-.245.79 0 .526.236.798.237.273.608.272m5.57 1.543q-.689 0-1.234-.227a2.2 2.2 0 0 1-.853-.635 1.7 1.7 0 0 1-.345-.916h1.725q.037.245.226.38.192.137.472.137.218 0 .345-.09a.28.28 0 0 0 .127-.237q0-.19-.208-.281-.21-.09-.69-.2a6 6 0 0 1-.908-.245 1.6 1.6 0 0 1-.635-.445q-.263-.308-.263-.835 0-.453.245-.816.245-.372.717-.59.48-.218 1.152-.218 1 0 1.57.49.573.49.663 1.289h-1.606a.57.57 0 0 0-.218-.372q-.164-.136-.445-.136a.6.6 0 0 0-.336.081.27.27 0 0 0-.109.227q0 .182.21.281.207.09.67.191.554.118.917.263.372.145.645.472.28.318.281.871 0 .445-.263.799-.255.354-.735.563-.472.2-1.117.2m5.159 0q-.69 0-1.235-.227a2.2 2.2 0 0 1-.853-.635 1.7 1.7 0 0 1-.345-.916h1.725q.036.245.227.38.19.137.472.137.218 0 .345-.09a.28.28 0 0 0 .127-.237q0-.19-.21-.281-.207-.09-.689-.2a6 6 0 0 1-.907-.245 1.6 1.6 0 0 1-.636-.445q-.263-.308-.263-.835 0-.453.245-.816.245-.372.717-.59.48-.218 1.153-.218.997 0 1.57.49.571.49.662 1.289H44.51a.57.57 0 0 0-.218-.372q-.163-.136-.445-.136a.6.6 0 0 0-.335.081.27.27 0 0 0-.11.227q0 .182.21.281.208.09.67.191.555.118.918.263.372.145.644.472.282.318.281.871 0 .445-.263.799-.254.354-.735.563-.472.2-1.116.2m3.887-5.627q-.472 0-.762-.254a.86.86 0 0 1-.281-.653q0-.399.28-.663.291-.263.763-.263.463 0 .745.263.29.264.29.663 0 .39-.29.653-.282.255-.745.254m.88.472v5.092H47v-5.092zm2.792.708q.21-.364.59-.562.382-.21.899-.21.608 0 1.098.319.5.317.78.907.29.59.29 1.38t-.29 1.388a2.13 2.13 0 0 1-.78.908 2 2 0 0 1-1.098.317 1.9 1.9 0 0 1-.899-.2 1.5 1.5 0 0 1-.59-.571v.708h-1.778v-6.716h1.778zm1.852 1.834q0-.5-.272-.772a.86.86 0 0 0-.654-.281.9.9 0 0 0-.662.281q-.264.282-.264.772 0 .499.264.78a.9.9 0 0 0 .662.281q.39 0 .654-.28.272-.291.272-.781m4.317-4.166v6.716H55.96v-6.716zm5.877 4.111q0 .21-.027.418h-3.367q.027.417.227.626.21.2.526.2a.65.65 0 0 0 .636-.4h1.897q-.118.527-.463.944a2.35 2.35 0 0 1-.853.644 2.7 2.7 0 0 1-1.144.236q-.753 0-1.343-.317a2.3 2.3 0 0 1-.917-.908q-.326-.59-.326-1.388 0-.8.326-1.38.327-.59.908-.907a2.8 2.8 0 0 1 1.352-.318q.753 0 1.334.309.581.308.908.889.327.572.326 1.352m-1.815-.444q0-.327-.217-.509a.8.8 0 0 0-.545-.19.8.8 0 0 0-.535.181q-.21.172-.273.517zm6.06-3.35v6.399h-1.78v-6.398zm2.791 2.206q.3-.435.726-.69.427-.255.917-.254v1.897h-.5q-.58 0-.861.227-.282.226-.282.79v2.223h-1.778v-5.092h1.778zm4.65 4.256q-.763 0-1.371-.317a2.35 2.35 0 0 1-.944-.908q-.345-.59-.345-1.388 0-.79.345-1.38a2.4 2.4 0 0 1 .953-.907 2.9 2.9 0 0 1 1.37-.318q.764 0 1.362.318.608.317.953.907.354.59.354 1.38t-.354 1.388q-.345.59-.953.908a2.9 2.9 0 0 1-1.37.317m0-1.543q.371 0 .617-.272.254-.281.254-.798t-.254-.79a.79.79 0 0 0-.609-.272.79.79 0 0 0-.608.272q-.245.273-.245.79 0 .526.236.798.237.273.608.272m6.731-3.657q.88 0 1.398.59.517.58.517 1.58v2.967h-1.779v-2.732q0-.435-.227-.68a.78.78 0 0 0-.608-.255q-.4 0-.626.254-.227.245-.227.681v2.732h-1.779v-5.092h1.78v.727q.235-.345.635-.554.399-.218.916-.218m6.403-3.503-2.423 10.392h-1.715l2.423-10.392zm4.436 5.355q.564.127.89.562.336.427.336.98 0 .817-.563 1.28t-1.58.463h-3.167v-6.398h3.068q.98 0 1.534.435.562.436.562 1.225 0 .563-.3.944a1.45 1.45 0 0 1-.78.508m-2.305-.572h.899q.67 0 .671-.554 0-.572-.671-.572h-.899zm1.035 2.423q.671 0 .671-.563 0-.29-.181-.445-.172-.153-.5-.154h-1.025v1.162zM94.53 68v-1.67h2.796v6.634h-1.86v-4.965zm3.646 3.539q.88-.69 1.443-1.189t.944-1.025q.381-.535.381-1.017 0-.29-.136-.454-.127-.163-.381-.163a.46.46 0 0 0-.408.227q-.146.218-.137.644H98.16q.027-.807.354-1.334.327-.535.853-.78.526-.255 1.171-.254 1.116 0 1.661.553.544.554.544 1.434 0 .945-.635 1.77a6.8 6.8 0 0 1-1.57 1.48h2.269v1.442h-4.629zm8.888-7.215-2.423 10.392h-1.715l2.423-10.392zm4.69 2.242v1.415h-2.559v1.126h1.888v1.352h-1.888v2.505h-1.779v-6.398zm3.118 6.461q-.762 0-1.37-.317a2.35 2.35 0 0 1-.944-.908q-.345-.59-.345-1.388 0-.79.345-1.38.354-.59.953-.907a2.9 2.9 0 0 1 1.37-.318q.763 0 1.362.318.608.317.953.907.354.59.354 1.38t-.354 1.388q-.345.59-.953.908a2.9 2.9 0 0 1-1.371.317m0-1.543q.372 0 .617-.272.255-.281.255-.798t-.255-.79a.78.78 0 0 0-.608-.272.79.79 0 0 0-.608.272q-.245.273-.245.79 0 .526.236.798.237.273.608.272m5.18-5.236v6.716h-1.779v-6.716zm.723 4.166q0-.79.281-1.38.29-.59.781-.907a2 2 0 0 1 1.107-.318q.526 0 .907.209.381.208.59.562v-.708h1.779v5.092h-1.779v-.708a1.5 1.5 0 0 1-.599.563 1.84 1.84 0 0 1-.898.208q-.609 0-1.107-.317a2.2 2.2 0 0 1-.781-.908q-.282-.6-.281-1.388m3.666 0q0-.49-.272-.772a.86.86 0 0 0-.653-.281.87.87 0 0 0-.663.281q-.263.273-.263.772 0 .49.263.78a.87.87 0 0 0 .663.281q.39 0 .653-.28.272-.282.272-.781m5.797 1.034v1.516h-.772q-1.951 0-1.951-1.933v-1.68h-.626v-1.479h.626v-1.234h1.788v1.234h.926v1.48h-.926v1.706q0 .21.091.3.1.09.326.09zm5.68-1.089q0 .21-.027.418h-3.367q.027.417.227.626a.73.73 0 0 0 .526.2.65.65 0 0 0 .635-.4h1.897a2.2 2.2 0 0 1-.463.944 2.34 2.34 0 0 1-.853.644 2.7 2.7 0 0 1-1.143.236q-.753 0-1.343-.317a2.3 2.3 0 0 1-.917-.908q-.327-.59-.327-1.388 0-.8.327-1.38a2.26 2.26 0 0 1 .907-.907 2.8 2.8 0 0 1 1.353-.318q.753 0 1.334.309.581.308.907.889.327.572.327 1.352m-1.815-.444q0-.327-.218-.509a.8.8 0 0 0-.544-.19.8.8 0 0 0-.536.181q-.209.172-.272.517zM27.149 87.43q-.871-.834-1.37-2.177a8.3 8.3 0 0 1-.5-2.895q0-1.57.5-2.923.507-1.361 1.406-2.196h1.743v.163a6.6 6.6 0 0 0-1.443 2.251 7.4 7.4 0 0 0-.508 2.705q0 1.38.499 2.677.508 1.298 1.407 2.233v.163zm8.91-7.123q.962 0 1.506.58.555.582.554 1.589v2.967H36.34v-2.731q0-.409-.227-.636t-.617-.227-.617.227-.227.636v2.731h-1.779v-2.731q0-.409-.227-.636-.218-.227-.608-.227-.4 0-.626.227-.227.227-.227.636v2.731h-1.779v-5.091h1.78v.671q.236-.326.607-.517.381-.2.871-.2.563 0 .999.246.445.245.699.69.272-.418.717-.672.444-.264.98-.263m3.933-.427q-.472 0-.762-.254a.86.86 0 0 1-.282-.654q0-.4.282-.662.29-.263.762-.263.464 0 .744.263.29.263.29.662 0 .39-.29.654-.28.254-.744.254m.88.472v5.091h-1.779v-5.091zm4.19 5.091-.917-1.28-.726 1.28h-1.951l1.697-2.64-1.77-2.451h1.997l.917 1.28.735-1.28h1.95l-1.733 2.596 1.797 2.495zm7.387-2.604q0 .209-.027.417h-3.367q.027.417.226.626.21.2.527.2a.65.65 0 0 0 .635-.4h1.897q-.118.527-.463.945a2.35 2.35 0 0 1-.853.644 2.7 2.7 0 0 1-1.144.236q-.753 0-1.343-.318a2.3 2.3 0 0 1-.916-.907q-.327-.59-.327-1.389 0-.798.327-1.38.326-.59.907-.907a2.8 2.8 0 0 1 1.352-.318q.753 0 1.334.309.582.308.908.89.327.57.327 1.352m-1.815-.445q0-.327-.218-.508a.8.8 0 0 0-.545-.19.8.8 0 0 0-.535.18q-.21.173-.273.518zm2.252.5q0-.79.282-1.38.29-.59.79-.908a2 2 0 0 1 1.106-.318q.49 0 .872.21.39.199.608.553v-2.324h1.788v6.716h-1.788v-.707a1.5 1.5 0 0 1-.59.562q-.381.21-.899.209a2 2 0 0 1-1.107-.318 2.2 2.2 0 0 1-.78-.907q-.282-.6-.282-1.389m3.667 0q0-.492-.272-.772a.86.86 0 0 0-.654-.282.87.87 0 0 0-.662.282q-.264.272-.264.771 0 .49.264.78a.87.87 0 0 0 .662.282q.39 0 .654-.281.272-.282.272-.78m2.302 4.537v-.163a6.6 6.6 0 0 0 1.398-2.233 7.3 7.3 0 0 0 .508-2.677q0-1.398-.517-2.705a6.5 6.5 0 0 0-1.434-2.25v-.164h1.742q.9.835 1.398 2.196a8.2 8.2 0 0 1 .508 2.923q0 1.552-.499 2.895-.5 1.343-1.37 2.178z"/><mask id="path-10-inside-2_334_460" fill="#fff"><path d="M184.867 68.805a4.84 4.84 0 0 1 4.84-4.84h17.045a4.84 4.84 0 0 1 4.841 4.84v5.445a4.84 4.84 0 0 1-4.841 4.84h-17.045a4.84 4.84 0 0 1-4.84-4.84z"/></mask><path fill="#e88f4a" fill-opacity=".1" d="M184.867 68.805a4.84 4.84 0 0 1 4.84-4.84h17.045a4.84 4.84 0 0 1 4.841 4.84v5.445a4.84 4.84 0 0 1-4.841 4.84h-17.045a4.84 4.84 0 0 1-4.84-4.84z"/><path fill="#e88f4a" fill-opacity=".2" d="M189.707 63.965v.605h17.045v-1.21h-17.045zm21.886 4.84h-.605v5.445h1.21v-5.445zm-4.841 10.286v-.605h-17.045v1.21h17.045zm-21.885-4.84h.605v-5.446h-1.21v5.445zm4.84 4.84v-.605a4.235 4.235 0 0 1-4.235-4.236h-1.21a5.445 5.445 0 0 0 5.445 5.446zm21.886-4.84h-.605a4.235 4.235 0 0 1-4.236 4.235v1.21a5.446 5.446 0 0 0 5.446-5.445zm-4.841-10.286v.605a4.235 4.235 0 0 1 4.236 4.235h1.21a5.446 5.446 0 0 0-5.446-5.445zm-17.045 0v-.605a5.445 5.445 0 0 0-5.445 5.445h1.21a4.235 4.235 0 0 1 4.235-4.235z" mask="url(#path-10-inside-2_334_460)"/><path fill="#e88f4a" d="M195.631 69.725v4.265h-1.186v-2.353l-.805 2.353h-.992l-.811-2.371v2.371h-1.186v-4.265h1.434l1.071 2.77 1.047-2.77zm2.163 0v4.265h-1.186v-4.265zm2.164 3.358h1.325v.907h-2.511v-4.265h1.186zm3.777-3.358q.671 0 1.173.272.508.266.781.75.272.484.272 1.107 0 .618-.278 1.102a1.95 1.95 0 0 1-.781.762q-.502.272-1.167.272h-1.688v-4.265zm-.091 3.219q.52 0 .817-.285t.296-.805q0-.525-.296-.81-.297-.29-.817-.29h-.412v2.19z"/><g filter="url(#filter1_dd_334_460)"><mask id="path-13-inside-3_334_460" fill="#fff"><path d="M24.635 108.284c0-5.346 4.334-9.68 9.68-9.68h70.488c5.347 0 9.681 4.334 9.681 9.68v38.269c0 5.346-4.334 9.681-9.681 9.681H34.316c-5.347 0-9.68-4.335-9.68-9.681z"/></mask><path fill="#fff" fill-opacity=".8" d="M24.635 108.284c0-5.346 4.334-9.68 9.68-9.68h70.488c5.347 0 9.681 4.334 9.681 9.68v38.269c0 5.346-4.334 9.681-9.681 9.681H34.316c-5.347 0-9.68-4.335-9.68-9.681z" shape-rendering="crispEdges"/><path fill="#fff" d="M34.316 98.604v.605h70.487v-1.21H34.316zm80.168 9.68h-.605v38.269h1.21v-38.269zm-9.681 47.95v-.605H34.316v1.21h70.487zm-80.168-9.681h.605v-38.269h-1.21v38.269zm9.68 9.681v-.605a9.076 9.076 0 0 1-9.075-9.076h-1.21c0 5.681 4.605 10.286 10.286 10.286zm80.169-9.681h-.605a9.077 9.077 0 0 1-9.076 9.076v1.21c5.681 0 10.286-4.605 10.286-10.286zm-9.681-47.95v.606a9.076 9.076 0 0 1 9.076 9.075h1.21c0-5.68-4.605-10.285-10.286-10.285zm-70.487 0V98c-5.68 0-10.286 4.605-10.286 10.285h1.21a9.076 9.076 0 0 1 9.076-9.075z" mask="url(#path-13-inside-3_334_460)"/><path fill="#64748b" d="M33.9 111.655q0-.597.26-1.063.258-.47.718-.73.465-.264 1.051-.264.72 0 1.23.379.513.38.684 1.035h-1.08a.87.87 0 0 0-.345-.385.94.94 0 0 0-.5-.133.94.94 0 0 0-.736.317q-.282.316-.282.844 0 .53.282.845a.94.94 0 0 0 .736.317.95.95 0 0 0 .5-.133.87.87 0 0 0 .345-.385h1.08a1.82 1.82 0 0 1-.684 1.035q-.51.373-1.23.373-.585 0-1.052-.258a1.9 1.9 0 0 1-.718-.73 2.15 2.15 0 0 1-.259-1.064m5.798-2.011v2.414q0 .362.179.557.178.196.523.196t.529-.196q.183-.195.183-.557v-2.414h.983v2.408q0 .54-.23.914t-.62.563q-.385.19-.863.19-.477 0-.856-.184a1.4 1.4 0 0 1-.592-.563q-.219-.38-.218-.92v-2.408zm5.433 4.035-.84-1.523h-.235v1.523h-.983v-4.035h1.65q.477 0 .81.166.34.168.506.46.165.288.166.644 0 .402-.23.718-.224.317-.666.449l.931 1.598zm-1.075-2.219h.609q.27 0 .402-.132.138-.132.138-.374a.48.48 0 0 0-.138-.362q-.132-.132-.402-.132h-.61zm5.112 2.219-.84-1.523h-.235v1.523h-.983v-4.035h1.65q.477 0 .81.166.34.168.506.46.165.288.166.644 0 .402-.23.718-.224.317-.666.449l.93 1.598zm-1.075-2.219h.609q.27 0 .402-.132a.5.5 0 0 0 .138-.374.48.48 0 0 0-.138-.362q-.132-.132-.402-.132h-.61zm4.037-1.029v.816h1.316v.759H52.13v.885h1.488v.788h-2.471v-4.035h2.471v.787zm6.024 3.248h-.983l-1.644-2.489v2.489h-.983v-4.035h.983l1.644 2.5v-2.5h.983zm3.902-4.035v.787h-1.069v3.248h-.983v-3.248h-1.069v-.787zm3.27 3.276h1.287v.759h-2.27v-4.035h.982zm3.026-2.489v.816h1.316v.759h-1.316v.885h1.489v.788h-2.472v-4.035h2.472v.787zm6.202-.787-1.431 4.035h-1.23l-1.432-4.035h1.046l1 3.046 1.006-3.046zm1.681.787v.816h1.316v.759h-1.316v.885h1.489v.788h-2.472v-4.035h2.472v.787zm3.397 2.489h1.288v.759h-2.27v-4.035h.982z"/><path fill="#8b8b8b" d="m37.21 128.932-1.187-2.203h-.178v2.203h-1.66v-5.972h2.617q.72 0 1.22.254.5.245.754.686.254.432.254.974 0 .61-.339 1.076-.33.457-.974.652l1.347 2.33zm-1.365-3.338h.822q.339 0 .508-.161.17-.16.17-.466 0-.287-.178-.449-.17-.168-.5-.169h-.822zm6.304-2.634q.94 0 1.643.381.71.373 1.093 1.05.38.678.38 1.551 0 .863-.389 1.541a2.7 2.7 0 0 1-1.093 1.067q-.702.382-1.635.382h-2.363v-5.972zm-.127 4.506q.728 0 1.143-.398t.415-1.126q0-.738-.415-1.136-.416-.406-1.143-.406h-.576v3.066zm12.403-4.506-1.465 5.972h-2.041l-.822-3.66-.839 3.66h-2.041l-1.448-5.972h1.795l.695 4.083.94-4.083h1.821l.915 4.049.695-4.049zm4.373 2.346v1.381H54.96v-1.381zm1.026.627q0-.881.364-1.567a2.64 2.64 0 0 1 1.05-1.076q.677-.39 1.559-.389 1.118 0 1.88.601.762.593.983 1.618h-1.787a1.2 1.2 0 0 0-.45-.517 1.2 1.2 0 0 0-.652-.178q-.576 0-.923.415-.339.407-.339 1.093 0 .694.34 1.11.345.406.922.406.373 0 .653-.178.288-.177.449-.516h1.787q-.22 1.024-.983 1.626-.762.593-1.88.593-.88 0-1.559-.381a2.7 2.7 0 0 1-1.05-1.076q-.364-.694-.364-1.584m12.433-2.973-2.059 5.972h-2.126l-2.066-5.972h1.778l1.356 4.311 1.347-4.311zm-38.449 15.615v-2.014h3.281v7.077h-2.255v-5.063zm4.273 3.998v-1.791l2.884-4.114h2.314v4.046h.697v1.859h-.697v1.065h-2.168v-1.065zm3.204-3.456-1.045 1.597h1.045zm4.657 4.598q-.561 0-.9-.3a.97.97 0 0 1-.339-.755q0-.465.34-.765.337-.31.9-.31.55 0 .89.31.339.3.339.765a.97.97 0 0 1-.339.755q-.34.3-.89.3m5.076-5.005q-.057-.29-.174-.426-.106-.135-.339-.135-.368 0-.494.377-.116.369-.116 1.152.174-.27.504-.426t.745-.155q.93 0 1.481.572.562.57.562 1.655 0 .726-.31 1.268-.3.532-.862.823-.561.29-1.326.29-1.52 0-2.11-.929-.59-.939-.59-2.623 0-1.317.27-2.13.272-.813.852-1.2.591-.388 1.53-.388 1.152 0 1.733.659.59.657.648 1.616zm-.406 2.033a.6.6 0 0 0-.417.145.53.53 0 0 0-.154.407q0 .29.145.436.154.135.426.135.271 0 .416-.135.155-.145.155-.436a.53.53 0 0 0-.155-.407.6.6 0 0 0-.416-.145m3.202-2.333q0-.852.484-1.297.485-.455 1.268-.455.775 0 1.25.455.483.445.483 1.297t-.484 1.297q-.474.446-1.249.446-.783 0-1.268-.446-.484-.445-.484-1.297m7.174-1.655-3.611 6.883h-2.053l3.611-6.883zm-5.441 1.152q-.33 0-.33.503 0 .494.33.494.174 0 .261-.126.097-.126.097-.368 0-.252-.097-.377-.087-.126-.261-.126m3.466 4.075q0-.852.484-1.297.483-.455 1.258-.455.784 0 1.259.455.474.445.474 1.297t-.474 1.307q-.475.446-1.259.446-.774 0-1.258-.446-.484-.455-.484-1.307m1.733-.503q-.34 0-.34.503 0 .504.34.504.164 0 .251-.126.097-.126.097-.378 0-.242-.097-.368a.28.28 0 0 0-.252-.135"/></g><g filter="url(#filter2_dd_334_460)"><mask id="path-18-inside-4_334_460" fill="#fff"><path d="M121.744 108.284c0-5.346 4.334-9.68 9.681-9.68h70.487c5.346 0 9.681 4.334 9.681 9.68v38.269c0 5.346-4.335 9.681-9.681 9.681h-70.487c-5.347 0-9.681-4.335-9.681-9.681z"/></mask><path fill="#fff" fill-opacity=".8" d="M121.744 108.284c0-5.346 4.334-9.68 9.681-9.68h70.487c5.346 0 9.681 4.334 9.681 9.68v38.269c0 5.346-4.335 9.681-9.681 9.681h-70.487c-5.347 0-9.681-4.335-9.681-9.681z" shape-rendering="crispEdges"/><path fill="#fff" d="M131.425 98.604v.605h70.487v-1.21h-70.487zm80.168 9.68h-.605v38.269h1.21v-38.269zm-9.681 47.95v-.605h-70.487v1.21h70.487zm-80.168-9.681h.605v-38.269h-1.21v38.269zm9.681 9.681v-.605a9.076 9.076 0 0 1-9.076-9.076h-1.21c0 5.681 4.605 10.286 10.286 10.286zm80.168-9.681h-.605a9.077 9.077 0 0 1-9.076 9.076v1.21c5.681 0 10.286-4.605 10.286-10.286zm-9.681-47.95v.606a9.076 9.076 0 0 1 9.076 9.075h1.21c0-5.68-4.605-10.285-10.286-10.285zm-70.487 0V98c-5.681 0-10.286 4.605-10.286 10.285h1.21a9.076 9.076 0 0 1 9.076-9.075z" mask="url(#path-18-inside-4_334_460)"/><path fill="#64748b" d="M134.786 113.679h-.983l-1.644-2.489v2.489h-.983v-4.035h.983l1.644 2.5v-2.5h.983zm2.908.04q-.57 0-1.046-.264a2 2 0 0 1-.753-.736 2.1 2.1 0 0 1-.276-1.069q0-.592.276-1.064.282-.471.753-.735a2.1 2.1 0 0 1 1.046-.265q.569 0 1.04.265.477.264.747.735.276.472.276 1.064t-.276 1.069a1.97 1.97 0 0 1-.747.736 2.1 2.1 0 0 1-1.04.264m0-.897q.483 0 .77-.322.293-.322.293-.85 0-.535-.293-.851-.287-.322-.77-.322-.489 0-.782.316-.287.317-.287.857 0 .534.287.856.293.316.782.316m4.955.857-.839-1.523h-.236v1.523h-.982v-4.035h1.649q.477 0 .811.166.339.168.505.46.167.288.167.644a1.184 1.184 0 0 1-.897 1.167l.932 1.598zm-1.075-2.219h.61q.27 0 .402-.132a.5.5 0 0 0 .138-.374.48.48 0 0 0-.138-.362q-.132-.132-.402-.132h-.61zm7.624-1.816v4.035h-.983v-2.42l-.902 2.42h-.793l-.909-2.426v2.426h-.982v-4.035h1.161l1.132 2.793 1.121-2.793zm3.506 3.322h-1.506l-.241.713h-1.029l1.46-4.035h1.138l1.46 4.035h-1.04zm-.253-.759-.5-1.477-.494 1.477zm3.25.713h1.287v.759h-2.27v-4.035h.983zm5.606.759-.839-1.523h-.235v1.523h-.983v-4.035h1.649q.478 0 .811.166.34.168.506.46.166.288.166.644a1.184 1.184 0 0 1-.896 1.167l.931 1.598zm-1.074-2.219h.609q.27 0 .402-.132a.5.5 0 0 0 .138-.374.48.48 0 0 0-.138-.362q-.132-.132-.402-.132h-.609zm5.566 1.506h-1.506l-.242.713h-1.029l1.46-4.035h1.138l1.46 4.035h-1.04zm-.253-.759-.5-1.477-.495 1.477zm5.876 1.472h-.983l-1.644-2.489v2.489h-.983v-4.035h.983l1.644 2.5v-2.5h.983zm3.678-2.759a.7.7 0 0 0-.316-.305 1 1 0 0 0-.477-.109q-.477 0-.765.316-.287.31-.287.833 0 .558.299.874.305.31.833.311a1 1 0 0 0 .61-.184q.252-.184.368-.529h-1.248v-.724h2.138v.913a1.9 1.9 0 0 1-.373.684 1.9 1.9 0 0 1-.661.512q-.402.195-.908.195-.598 0-1.069-.258a1.9 1.9 0 0 1-.73-.73 2.15 2.15 0 0 1-.259-1.064q0-.597.259-1.063.264-.47.73-.73.465-.264 1.063-.264.725 0 1.218.35.5.351.661.972zm2.97-.489v.816h1.316v.759h-1.316v.885h1.489v.788h-2.472v-4.035h2.472v.787zm-47.087 23.763v-1.67h2.795v6.634h-1.86v-4.964zm3.51 0v-1.67h2.795v6.634h-1.86v-4.964zm4.716 5.037q-.471 0-.762-.254a.87.87 0 0 1-.281-.663q0-.4.281-.662.291-.264.762-.264.463 0 .745.264.29.263.29.662a.85.85 0 0 1-.29.654q-.282.263-.745.263m6.542-5.137h-2.723v1.007q.173-.181.472-.29.3-.11.663-.109.653 0 1.089.3.444.298.653.789.209.49.209 1.071 0 1.071-.608 1.688-.608.608-1.688.608-.753 0-1.307-.254a1.96 1.96 0 0 1-.835-.726 2 2 0 0 1-.299-1.062h1.733q.027.209.182.363.154.154.453.154.318 0 .481-.217.164-.219.164-.581 0-.354-.173-.536-.172-.19-.499-.19a.6.6 0 0 0-.399.127.46.46 0 0 0-.173.299h-1.733v-4.011h4.338zm5.203 1.18v1.479h-4.111v-1.479zm.972-1.08v-1.67h2.795v6.634h-1.86v-4.964zm3.809 3.875v-1.47l2.786-3.975h1.952v3.902h.699v1.543h-.699v1.089h-1.797v-1.089zm3.077-3.44-1.253 1.897h1.253zm4.106 4.602q-.472 0-.763-.254a.87.87 0 0 1-.281-.663q0-.4.281-.662.29-.264.763-.264.462 0 .744.264.29.263.29.662 0 .39-.29.654-.282.263-.744.263m6.541-5.137h-2.722v1.007a1.2 1.2 0 0 1 .472-.29q.299-.11.662-.109.654 0 1.089.3.445.298.654.789.208.49.208 1.071 0 1.071-.608 1.688-.608.608-1.688.608-.753 0-1.307-.254a1.96 1.96 0 0 1-.835-.726 2 2 0 0 1-.299-1.062h1.733q.027.209.182.363.154.154.454.154.317 0 .481-.217.163-.219.163-.581 0-.354-.172-.536-.173-.19-.5-.19a.6.6 0 0 0-.399.127.46.46 0 0 0-.172.299h-1.734v-4.011h4.338zm1.001.136q0-.77.436-1.18.435-.408 1.143-.408.699 0 1.135.408.435.41.435 1.18 0 .763-.435 1.18-.436.408-1.135.408t-1.143-.408q-.436-.417-.436-1.18m6.444-1.488-3.44 6.416h-1.706l3.44-6.416zm-4.874.944q-.372 0-.372.544 0 .545.372.545a.33.33 0 0 0 .282-.136q.108-.136.108-.409t-.108-.408a.33.33 0 0 0-.282-.136m3.022 3.975q0-.763.436-1.171.445-.417 1.144-.418.698 0 1.125.418.435.408.436 1.171 0 .77-.436 1.189-.427.408-1.125.408-.7 0-1.144-.408-.435-.418-.436-1.189m1.57-.545q-.381 0-.381.545 0 .553.381.553a.32.32 0 0 0 .273-.136q.109-.145.109-.417 0-.264-.109-.4a.32.32 0 0 0-.273-.145"/></g><mask id="path-22-inside-5_334_460" fill="#fff"><path d="M24.635 165.914h186.958v63.227H24.635z"/></mask><path fill="#fff" fill-opacity=".5" d="M24.635 165.914v.605h186.958v-1.21H24.635z" mask="url(#path-22-inside-5_334_460)"/><path fill="#a0acbe" d="M24.835 176.23q0-.63.272-1.12.272-.496.756-.768a2.2 2.2 0 0 1 1.108-.278q.756 0 1.294.399.54.399.72 1.089h-1.137a.9.9 0 0 0-.363-.405 1 1 0 0 0-.526-.14.99.99 0 0 0-.775.333q-.297.333-.297.89t.297.889a.99.99 0 0 0 .774.333q.297 0 .527-.139a.9.9 0 0 0 .363-.406h1.137q-.18.69-.72 1.089-.538.394-1.294.394-.617 0-1.108-.273a1.97 1.97 0 0 1-.756-.768 2.27 2.27 0 0 1-.272-1.119m8.765-2.118v4.247h-1.035v-1.748h-1.609v1.748h-1.034v-4.247h1.034v1.664h1.61v-1.664zm2.084.829v.859h1.386v.799h-1.386v.931h1.567v.829H34.65v-4.247h2.601v.829zm2.366 1.289q0-.63.272-1.12.273-.496.756-.768a2.2 2.2 0 0 1 1.108-.278q.756 0 1.294.399.54.399.72 1.089h-1.137a.9.9 0 0 0-.363-.405 1 1 0 0 0-.526-.14.99.99 0 0 0-.775.333q-.296.333-.296.89t.296.889a.99.99 0 0 0 .775.333q.296 0 .526-.139a.9.9 0 0 0 .363-.406H42.2q-.18.69-.72 1.089-.538.394-1.294.394-.617 0-1.108-.273a1.97 1.97 0 0 1-.756-.768 2.27 2.27 0 0 1-.272-1.119m7.55 2.129-1.429-1.875v1.875h-1.034v-4.247h1.034v1.864l1.416-1.864h1.216l-1.645 2.081 1.706 2.166zm6.408-4.247v.829h-1.73v.895h1.294v.805h-1.295v1.718h-1.034v-4.247zm2.855 4.29q-.6 0-1.102-.279a2.1 2.1 0 0 1-.792-.774 2.2 2.2 0 0 1-.29-1.125q0-.624.29-1.12.296-.496.792-.774a2.23 2.23 0 0 1 1.102-.279q.599 0 1.095.279.503.278.786.774.29.496.29 1.12 0 .622-.29 1.125a2.07 2.07 0 0 1-.786.774q-.496.279-1.095.279m0-.944q.509 0 .81-.339.309-.339.309-.895 0-.563-.309-.896-.301-.339-.81-.339-.514 0-.823.333-.303.332-.303.902 0 .562.303.901.309.333.823.333m5.216.901-.883-1.603h-.248v1.603h-1.035v-4.247h1.736q.503 0 .853.175.357.176.533.484.175.303.175.678 0 .424-.242.756-.235.333-.702.472l.98 1.682zm-1.132-2.335h.642q.284 0 .423-.139.146-.14.146-.394a.5.5 0 0 0-.146-.381q-.139-.139-.423-.139h-.642zm7.855-1.912v.829h-1.125v3.418h-1.035v-3.418h-1.125v-.829zm4.5 0v4.247h-1.034v-1.748h-1.61v1.748h-1.034v-4.247h1.035v1.664h1.61v-1.664zm2.085.829v.859h1.385v.799h-1.385v.931h1.567v.829h-2.602v-4.247h2.602v.829zm4.078 3.461q-.466 0-.835-.152a1.4 1.4 0 0 1-.593-.447 1.24 1.24 0 0 1-.23-.714h1.101q.024.236.164.363.139.12.363.121a.58.58 0 0 0 .363-.103.36.36 0 0 0 .133-.297.34.34 0 0 0-.109-.26.8.8 0 0 0-.26-.169 4 4 0 0 0-.436-.151 5 5 0 0 1-.671-.254 1.24 1.24 0 0 1-.448-.376q-.188-.248-.188-.647 0-.593.43-.926.43-.339 1.12-.339.7 0 1.13.339.43.333.46.932H77.84a.43.43 0 0 0-.151-.321.53.53 0 0 0-.357-.121.44.44 0 0 0-.303.103q-.114.097-.115.285 0 .206.194.32.194.116.605.248.411.14.666.267.26.126.447.369.188.242.188.623 0 .363-.188.659a1.27 1.27 0 0 1-.532.472q-.35.176-.829.176m3.523-3.461v.859h1.385v.799h-1.385v.931h1.567v.829h-2.602v-4.247h2.602v.829zm5.662 3.461q-.465 0-.834-.152a1.4 1.4 0 0 1-.593-.447 1.24 1.24 0 0 1-.23-.714h1.1q.026.236.164.363.14.12.363.121a.58.58 0 0 0 .363-.103.36.36 0 0 0 .133-.297.34.34 0 0 0-.109-.26.8.8 0 0 0-.26-.169 4 4 0 0 0-.435-.151 5 5 0 0 1-.672-.254 1.24 1.24 0 0 1-.448-.376q-.187-.248-.187-.647 0-.593.43-.926.429-.339 1.119-.339.702 0 1.131.339.43.333.46.932h-1.12a.43.43 0 0 0-.15-.321.53.53 0 0 0-.358-.121.44.44 0 0 0-.302.103q-.115.097-.115.285 0 .206.194.32.193.116.605.248.411.14.665.267.26.126.448.369.187.242.187.623 0 .363-.187.659a1.27 1.27 0 0 1-.533.472q-.35.176-.829.176m6.131-4.29-1.47 2.844v1.403h-1.035v-1.403l-1.47-2.844h1.174l.822 1.779.817-1.779zm5.53 0v4.247h-1.035v-2.547l-.95 2.547h-.835l-.956-2.553v2.553H93.5v-4.247h1.223l1.192 2.94 1.18-2.94zm4.283 1.367q0 .369-.169.678a1.25 1.25 0 0 1-.521.49q-.35.188-.871.188h-.641v1.524h-1.035v-4.247h1.676q.508 0 .859.175.351.176.527.484.175.309.175.708m-1.64.533q.297 0 .442-.139.145-.14.145-.394t-.145-.393-.442-.139h-.562v1.065zm5.537-1.9v.829h-1.126v3.418h-1.034v-3.418h-1.126v-.829zm2.83 4.29a2.23 2.23 0 0 1-1.101-.279 2.1 2.1 0 0 1-.793-.774 2.2 2.2 0 0 1-.29-1.125q0-.624.29-1.12a2.1 2.1 0 0 1 .793-.774 2.23 2.23 0 0 1 1.101-.279q.599 0 1.095.279.502.278.787.774.29.496.29 1.12 0 .622-.29 1.125a2.07 2.07 0 0 1-.787.774 2.2 2.2 0 0 1-1.095.279m0-.944q.508 0 .811-.339.309-.339.308-.895 0-.563-.308-.896-.303-.339-.811-.339-.514 0-.823.333-.302.332-.302.902 0 .562.302.901.309.333.823.333m7.86-3.346v4.247h-1.034v-2.547l-.95 2.547h-.835l-.956-2.553v2.553h-1.035v-4.247h1.222l1.192 2.94 1.18-2.94zm2.584 4.29a2.2 2.2 0 0 1-.835-.152q-.37-.15-.593-.447a1.24 1.24 0 0 1-.23-.714h1.101a.55.55 0 0 0 .163.363q.14.12.363.121a.57.57 0 0 0 .363-.103.36.36 0 0 0 .134-.297.35.35 0 0 0-.109-.26.8.8 0 0 0-.26-.169 4 4 0 0 0-.436-.151 5 5 0 0 1-.672-.254 1.24 1.24 0 0 1-.447-.376q-.188-.248-.188-.647 0-.593.43-.926.429-.339 1.119-.339.702 0 1.131.339.43.333.46.932h-1.119a.43.43 0 0 0-.151-.321.53.53 0 0 0-.357-.121.44.44 0 0 0-.303.103q-.115.097-.115.285 0 .206.194.32.193.116.605.248.411.14.665.267.26.126.448.369.188.242.188.623 0 .363-.188.659a1.27 1.27 0 0 1-.532.472 1.8 1.8 0 0 1-.829.176"/><mask id="path-25-inside-6_334_460" fill="#fff"><path d="M24.636 195.939a9.454 9.454 0 0 1 9.453-9.454h23.937a9.454 9.454 0 0 1 0 18.908H34.09a9.454 9.454 0 0 1-9.453-9.454"/></mask><path fill="#897955" fill-opacity=".1" d="M24.636 195.939a9.454 9.454 0 0 1 9.453-9.454h23.937a9.454 9.454 0 0 1 0 18.908H34.09a9.454 9.454 0 0 1-9.453-9.454"/><path fill="#896555" fill-opacity=".2" d="M34.089 186.485v.605h23.937v-1.21H34.09zm23.937 18.908v-.605H34.09v1.21h23.937zm-23.937 0v-.605a8.85 8.85 0 0 1-8.848-8.849h-1.21c0 5.555 4.503 10.059 10.058 10.059zm33.391-9.454h-.605a8.85 8.85 0 0 1-8.849 8.849v1.21c5.556 0 10.059-4.504 10.059-10.059zm-9.454-9.454v.605a8.85 8.85 0 0 1 8.849 8.849h1.21c0-5.555-4.503-10.059-10.059-10.059zm-23.937 0v-.605c-5.555 0-10.058 4.504-10.058 10.059h1.21a8.85 8.85 0 0 1 8.848-8.849z" mask="url(#path-25-inside-6_334_460)"/><path fill="#e88f4a" d="M36.112 193.836v.953h-1.99v1.03h1.49v.926h-1.49v1.976h-1.19v-4.885zm.389 2.936q0-.598.223-1.05.23-.453.619-.696.39-.244.87-.244.41 0 .716.167.315.168.48.439v-.55h1.19v3.883h-1.19v-.55a1.3 1.3 0 0 1-.487.438 1.5 1.5 0 0 1-.716.167q-.474 0-.863-.243a1.76 1.76 0 0 1-.62-.703 2.4 2.4 0 0 1-.222-1.058m2.909.007q0-.445-.251-.702a.8.8 0 0 0-.598-.258.8.8 0 0 0-.606.258q-.243.25-.243.695 0 .446.243.71a.8.8 0 0 0 .606.258.8.8 0 0 0 .598-.258q.25-.257.25-.703m4.214.933v1.009h-.605q-.648 0-1.01-.313-.36-.32-.361-1.037v-1.545h-.473v-.988h.473v-.946h1.19v.946h.779v.988h-.78v1.559q0 .174.084.25t.279.077zm1.261-3.277a.75.75 0 0 1-.515-.181.62.62 0 0 1-.195-.46.6.6 0 0 1 .195-.459.73.73 0 0 1 .515-.188q.306 0 .501.188a.59.59 0 0 1 .202.459.6.6 0 0 1-.202.46.7.7 0 0 1-.5.181m.592.403v3.883h-1.19v-3.883zm2.337-.056q.411 0 .717.167.312.168.48.439v-.55h1.19v3.876q0 .535-.216.967a1.6 1.6 0 0 1-.647.696q-.431.257-1.079.257-.862 0-1.398-.41a1.53 1.53 0 0 1-.613-1.1h1.176a.55.55 0 0 0 .265.348q.208.132.514.132.369 0 .585-.215.222-.209.223-.675v-.55a1.35 1.35 0 0 1-.48.445 1.5 1.5 0 0 1-.717.167q-.48 0-.87-.243a1.76 1.76 0 0 1-.62-.703 2.4 2.4 0 0 1-.222-1.058q0-.598.223-1.05.23-.453.62-.696.389-.244.869-.244m1.197 1.997q0-.445-.25-.702a.8.8 0 0 0-.6-.258.8.8 0 0 0-.605.258q-.243.25-.243.695 0 .446.243.71a.8.8 0 0 0 .606.258.8.8 0 0 0 .598-.258q.25-.257.25-.703m5.884-1.941v3.883h-1.19v-.529q-.18.258-.494.417a1.5 1.5 0 0 1-.682.153q-.446 0-.786-.194a1.36 1.36 0 0 1-.529-.578 1.95 1.95 0 0 1-.187-.884v-2.268h1.182v2.108q0 .39.202.606t.543.215q.348 0 .55-.215.201-.216.201-.606v-2.108zm4.515 1.879q0 .167-.021.348h-2.693q.028.361.23.556.208.189.508.188.444 0 .619-.376h1.266a1.7 1.7 0 0 1-.355.689 1.7 1.7 0 0 1-.633.48q-.382.174-.856.174-.57 0-1.016-.243a1.73 1.73 0 0 1-.695-.696 2.15 2.15 0 0 1-.25-1.058q0-.605.243-1.057.25-.453.696-.696a2.1 2.1 0 0 1 1.022-.244q.564 0 1.002.237.44.237.682.675.25.438.25 1.023m-1.218-.313a.61.61 0 0 0-.209-.487.77.77 0 0 0-.522-.181q-.299 0-.508.174a.78.78 0 0 0-.25.494z"/><mask id="path-28-inside-7_334_460" fill="#fff"><path d="M72.32 195.938a9.454 9.454 0 0 1 9.454-9.454h34.204a9.454 9.454 0 0 1 0 18.908H81.774a9.454 9.454 0 0 1-9.454-9.454"/></mask><path fill="#897955" fill-opacity=".1" d="M72.32 195.938a9.454 9.454 0 0 1 9.454-9.454h34.204a9.454 9.454 0 0 1 0 18.908H81.774a9.454 9.454 0 0 1-9.454-9.454"/><path fill="#896555" fill-opacity=".2" d="M81.774 186.484v.605h34.204v-1.21H81.774zm34.204 18.908v-.605H81.774v1.21h34.204zm-34.204 0v-.605a8.85 8.85 0 0 1-8.849-8.849h-1.21c0 5.555 4.504 10.059 10.06 10.059zm43.658-9.454h-.605a8.85 8.85 0 0 1-8.849 8.849v1.21c5.555 0 10.059-4.504 10.059-10.059zm-9.454-9.454v.605a8.85 8.85 0 0 1 8.849 8.849h1.21c0-5.555-4.504-10.059-10.059-10.059zm-34.204 0v-.605c-5.555 0-10.059 4.504-10.059 10.059h1.211a8.85 8.85 0 0 1 8.848-8.849z" mask="url(#path-28-inside-7_334_460)"/><path fill="#e88f4a" d="m87.339 193.835-1.273 4.885h-1.44l-.78-3.215-.807 3.215h-1.44l-1.24-4.885h1.274l.703 3.556.87-3.556h1.308l.835 3.556.71-3.556zm4.256 2.881q0 .166-.02.348h-2.693q.027.361.23.556.209.189.507.188.446 0 .62-.375h1.266a1.7 1.7 0 0 1-.355.688 1.7 1.7 0 0 1-.633.48q-.382.174-.856.174-.57 0-1.016-.243a1.73 1.73 0 0 1-.696-.696 2.15 2.15 0 0 1-.25-1.058q0-.605.243-1.057.251-.453.696-.696a2.1 2.1 0 0 1 1.023-.243q.564 0 1.002.236.438.237.682.675.25.438.25 1.023m-1.217-.313a.61.61 0 0 0-.209-.487.77.77 0 0 0-.522-.181q-.3 0-.508.174a.78.78 0 0 0-.25.494zm1.609.368q0-.598.222-1.05.23-.453.62-.696t.87-.243q.41 0 .716.167.313.167.48.438v-.55h1.19v3.883h-1.19v-.55a1.3 1.3 0 0 1-.487.438 1.5 1.5 0 0 1-.717.167q-.473 0-.863-.243a1.76 1.76 0 0 1-.619-.703 2.4 2.4 0 0 1-.222-1.058m2.908.007q0-.445-.25-.702a.8.8 0 0 0-.599-.258.8.8 0 0 0-.605.258q-.244.25-.244.695 0 .446.244.71a.8.8 0 0 0 .605.258.8.8 0 0 0 .598-.258q.25-.257.25-.703m4.423 1.942-1.183-1.628v1.628h-1.19v-5.149h1.19v2.846l1.176-1.58h1.468l-1.614 1.948 1.628 1.935zm4.294-3.925q.683 0 1.086.446.41.439.41 1.21v2.269h-1.183v-2.109q0-.389-.201-.605a.7.7 0 0 0-.543-.216.7.7 0 0 0-.543.216q-.202.216-.202.605v2.109h-1.189v-3.883h1.189v.515a1.2 1.2 0 0 1 .488-.403q.306-.154.688-.154m5.983 1.921q0 .166-.021.348h-2.693q.029.361.23.556a.73.73 0 0 0 .508.188q.445 0 .619-.375h1.267a1.7 1.7 0 0 1-.355.688 1.7 1.7 0 0 1-.633.48 2.05 2.05 0 0 1-.856.174q-.571 0-1.016-.243a1.73 1.73 0 0 1-.696-.696 2.15 2.15 0 0 1-.25-1.058 2.2 2.2 0 0 1 .243-1.057q.25-.453.696-.696a2.1 2.1 0 0 1 1.023-.243q.563 0 1.002.236.438.237.682.675.25.438.25 1.023m-1.218-.313a.61.61 0 0 0-.208-.487.77.77 0 0 0-.522-.181q-.3 0-.508.174a.78.78 0 0 0-.251.494zm3.425 2.372a2.2 2.2 0 0 1-.904-.174 1.56 1.56 0 0 1-.627-.473 1.27 1.27 0 0 1-.257-.682h1.176a.45.45 0 0 0 .188.327.66.66 0 0 0 .41.126.6.6 0 0 0 .341-.084.27.27 0 0 0 .125-.229q0-.168-.173-.244a3 3 0 0 0-.564-.181 6 6 0 0 1-.696-.202 1.25 1.25 0 0 1-.48-.341q-.202-.236-.202-.633 0-.333.181-.605.188-.279.543-.438.361-.16.856-.16.73 0 1.148.361.424.363.487.961h-1.1a.47.47 0 0 0-.18-.321.6.6 0 0 0-.39-.118.52.52 0 0 0-.32.084.25.25 0 0 0-.111.215q0 .167.173.251.182.083.557.167.432.11.703.223.271.104.473.347.209.237.216.641 0 .34-.195.612a1.25 1.25 0 0 1-.55.417 2.1 2.1 0 0 1-.828.153m3.88 0q-.508 0-.904-.174a1.55 1.55 0 0 1-.627-.473 1.27 1.27 0 0 1-.257-.682h1.176a.45.45 0 0 0 .188.327.66.66 0 0 0 .41.126.6.6 0 0 0 .341-.084.27.27 0 0 0 .125-.229q0-.168-.174-.244a3 3 0 0 0-.563-.181 6 6 0 0 1-.696-.202 1.24 1.24 0 0 1-.48-.341q-.202-.236-.202-.633 0-.333.181-.605.188-.279.543-.438.361-.16.856-.16.73 0 1.148.361.424.363.487.961h-1.1a.47.47 0 0 0-.181-.321.6.6 0 0 0-.389-.118.52.52 0 0 0-.32.084.25.25 0 0 0-.112.215q0 .167.174.251.181.083.557.167.432.11.703.223.271.104.473.347.209.237.216.641 0 .34-.195.612a1.25 1.25 0 0 1-.55.417 2.1 2.1 0 0 1-.828.153"/><mask id="path-31-inside-8_334_460" fill="#fff"><path d="M24.636 219.687a9.454 9.454 0 0 1 9.454-9.454h68.596a9.454 9.454 0 0 1 0 18.908H34.09a9.454 9.454 0 0 1-9.454-9.454"/></mask><path fill="#897955" fill-opacity=".1" d="M24.636 219.687a9.454 9.454 0 0 1 9.454-9.454h68.596a9.454 9.454 0 0 1 0 18.908H34.09a9.454 9.454 0 0 1-9.454-9.454"/><path fill="#896555" fill-opacity=".2" d="M34.09 210.233v.605h68.596v-1.21H34.09zm68.596 18.908v-.605H34.09v1.21h68.596zm-68.596 0v-.605a8.85 8.85 0 0 1-8.85-8.849h-1.209c0 5.555 4.503 10.059 10.059 10.059zm78.05-9.454h-.605a8.85 8.85 0 0 1-8.849 8.849v1.21c5.555 0 10.059-4.504 10.059-10.059zm-9.454-9.454v.605a8.85 8.85 0 0 1 8.849 8.849h1.21c0-5.555-4.504-10.059-10.059-10.059zm-68.596 0v-.605c-5.556 0-10.06 4.504-10.06 10.059h1.211a8.85 8.85 0 0 1 8.849-8.849z" mask="url(#path-31-inside-8_334_460)"/><path fill="#e88f4a" d="M38.464 217.584v4.885h-1.19v-2.93l-1.092 2.93h-.96l-1.1-2.937v2.937h-1.19v-4.885h1.406l1.37 3.382 1.358-3.382zm1.454.599a.75.75 0 0 1-.515-.181.62.62 0 0 1-.194-.459q0-.279.194-.46a.73.73 0 0 1 .515-.188q.306 0 .501.188a.6.6 0 0 1 .202.46q0 .27-.202.459a.7.7 0 0 1-.5.181m.592.403v3.883h-1.19v-3.883zm2.052-1.266v5.149h-1.19v-5.149zm.625 3.201q0-.599.223-1.051.23-.453.62-.696t.87-.243q.381 0 .695.16.32.16.5.431v-1.802h1.19v5.149h-1.19v-.557a1.2 1.2 0 0 1-.48.445 1.5 1.5 0 0 1-.716.167q-.48 0-.87-.243a1.76 1.76 0 0 1-.619-.703 2.4 2.4 0 0 1-.223-1.057m2.909.006q0-.445-.25-.702a.8.8 0 0 0-.599-.258.8.8 0 0 0-.605.258q-.244.25-.244.696 0 .444.244.709a.8.8 0 0 0 .605.258.8.8 0 0 0 .598-.258q.25-.257.25-.703m4.715-1.391a1.2 1.2 0 0 1 .48-.438q.314-.167.717-.167.48 0 .87.243.389.243.612.696.23.452.23 1.051 0 .598-.23 1.057a1.7 1.7 0 0 1-.613.703 1.6 1.6 0 0 1-.87.243q-.41 0-.716-.16a1.3 1.3 0 0 1-.48-.438v.543h-1.19v-5.149h1.19zm1.697 1.385q0-.445-.25-.696a.8.8 0 0 0-.605-.258.8.8 0 0 0-.606.258q-.243.257-.243.702 0 .446.243.703a.8.8 0 0 0 .606.258.8.8 0 0 0 .605-.258q.25-.264.25-.709m3.025-1.288q.21-.32.522-.501.313-.188.696-.188v1.26h-.327q-.446 0-.668.195-.223.188-.223.668v1.802h-1.19v-3.883h1.19zm5.446 1.232q0 .166-.02.348h-2.693q.027.362.23.556.209.188.507.188.446 0 .62-.375h1.266a1.7 1.7 0 0 1-.355.688 1.7 1.7 0 0 1-.633.48q-.382.174-.856.174-.57 0-1.016-.243a1.73 1.73 0 0 1-.696-.696 2.15 2.15 0 0 1-.25-1.058q0-.605.244-1.057.25-.453.695-.696a2.1 2.1 0 0 1 1.023-.243q.564 0 1.002.236.439.237.682.675.25.438.25 1.023m-1.217-.313a.61.61 0 0 0-.209-.487.77.77 0 0 0-.522-.181q-.3 0-.508.174a.78.78 0 0 0-.25.494zm1.609.369q0-.599.222-1.051.23-.453.62-.696t.87-.243q.41 0 .716.167.314.167.48.438v-.55h1.19v3.883h-1.19v-.55a1.3 1.3 0 0 1-.487.438 1.5 1.5 0 0 1-.717.167q-.473 0-.863-.243a1.76 1.76 0 0 1-.619-.703 2.4 2.4 0 0 1-.222-1.057m2.908.006q0-.445-.25-.702a.8.8 0 0 0-.599-.258.8.8 0 0 0-.605.258q-.244.25-.244.696 0 .444.244.709a.8.8 0 0 0 .605.258.8.8 0 0 0 .598-.258q.25-.257.251-.703m4.215.933v1.009h-.606q-.646 0-1.009-.313-.361-.32-.362-1.037v-1.545h-.473v-.988h.473v-.946h1.19v.946h.78v.988h-.78v1.559q0 .174.084.25.083.077.278.077zm3.049-2.916q.667 0 1.071.446.404.438.404 1.21v2.269h-1.183v-2.109q0-.389-.202-.605a.7.7 0 0 0-.542-.216.7.7 0 0 0-.543.216q-.202.216-.202.605v2.109h-1.19v-5.149h1.19v1.788q.18-.257.494-.41.313-.154.703-.154m3.491-1.224v5.149h-1.19v-5.149zm4.523 3.145q0 .166-.021.348h-2.693q.028.362.23.556.208.188.508.188.445 0 .619-.375h1.266a1.7 1.7 0 0 1-.355.688 1.7 1.7 0 0 1-.633.48q-.382.174-.856.174-.57 0-1.016-.243a1.73 1.73 0 0 1-.695-.696 2.15 2.15 0 0 1-.25-1.058q0-.605.243-1.057.25-.453.696-.696a2.1 2.1 0 0 1 1.022-.243q.564 0 1.002.236.44.237.682.675.25.438.25 1.023m-1.218-.313a.61.61 0 0 0-.209-.487.77.77 0 0 0-.521-.181q-.3 0-.508.174a.78.78 0 0 0-.251.494zm3.425 2.372a2.2 2.2 0 0 1-.905-.174 1.55 1.55 0 0 1-.626-.473 1.27 1.27 0 0 1-.257-.682h1.175a.45.45 0 0 0 .188.327.66.66 0 0 0 .41.126.6.6 0 0 0 .342-.084.27.27 0 0 0 .125-.229q0-.168-.174-.244a3 3 0 0 0-.563-.181 6 6 0 0 1-.696-.202 1.24 1.24 0 0 1-.48-.341q-.202-.236-.202-.633 0-.333.18-.605a1.25 1.25 0 0 1 .543-.438q.363-.16.856-.16.73 0 1.148.361.425.363.487.961h-1.099a.47.47 0 0 0-.18-.321.6.6 0 0 0-.39-.118.52.52 0 0 0-.32.084.25.25 0 0 0-.112.215q0 .167.174.251.18.084.557.167.431.11.703.223.27.104.473.347.208.237.215.641 0 .34-.195.612a1.25 1.25 0 0 1-.55.417 2.1 2.1 0 0 1-.827.153m3.88 0a2.2 2.2 0 0 1-.905-.174 1.55 1.55 0 0 1-.626-.473 1.27 1.27 0 0 1-.257-.682h1.175a.45.45 0 0 0 .188.327.66.66 0 0 0 .41.126.6.6 0 0 0 .342-.084.27.27 0 0 0 .125-.229q0-.168-.174-.244a3 3 0 0 0-.564-.181 6 6 0 0 1-.695-.202 1.24 1.24 0 0 1-.48-.341q-.202-.236-.202-.633 0-.333.18-.605a1.25 1.25 0 0 1 .543-.438q.363-.16.856-.16.73 0 1.148.361.425.363.487.961h-1.099a.47.47 0 0 0-.18-.321.6.6 0 0 0-.39-.118.52.52 0 0 0-.32.084.25.25 0 0 0-.112.215q0 .167.174.251.18.084.557.167.431.11.702.223.272.104.474.347.208.237.215.641 0 .34-.195.612a1.25 1.25 0 0 1-.55.417 2.1 2.1 0 0 1-.827.153m4.666-3.98q.681 0 1.085.446.41.438.41 1.21v2.269h-1.182v-2.109q0-.389-.202-.605a.7.7 0 0 0-.543-.216.7.7 0 0 0-.542.216q-.202.216-.202.605v2.109h-1.19v-3.883h1.19v.515a1.2 1.2 0 0 1 .487-.403q.306-.154.689-.154m5.983 1.921q0 .166-.021.348h-2.693q.028.362.23.556.209.188.507.188.446 0 .62-.375h1.266a1.7 1.7 0 0 1-.355.688 1.7 1.7 0 0 1-.633.48q-.382.174-.856.174-.57 0-1.016-.243a1.73 1.73 0 0 1-.695-.696 2.15 2.15 0 0 1-.251-1.058q0-.605.244-1.057.25-.453.695-.696a2.1 2.1 0 0 1 1.023-.243q.564 0 1.002.236.439.237.682.675.25.438.25 1.023m-1.218-.313a.61.61 0 0 0-.209-.487.77.77 0 0 0-.522-.181q-.299 0-.508.174a.78.78 0 0 0-.25.494zm3.425 2.372q-.508 0-.905-.174a1.55 1.55 0 0 1-.626-.473 1.27 1.27 0 0 1-.257-.682h1.175a.45.45 0 0 0 .188.327.66.66 0 0 0 .41.126.6.6 0 0 0 .342-.084.27.27 0 0 0 .125-.229q0-.168-.174-.244a3 3 0 0 0-.564-.181 6 6 0 0 1-.695-.202 1.24 1.24 0 0 1-.48-.341q-.202-.236-.202-.633 0-.333.18-.605a1.25 1.25 0 0 1 .543-.438q.363-.16.856-.16.73 0 1.148.361.425.363.487.961h-1.1a.47.47 0 0 0-.18-.321.6.6 0 0 0-.39-.118.52.52 0 0 0-.32.084.25.25 0 0 0-.111.215q0 .167.174.251.18.084.557.167a5.4 5.4 0 0 1 .702.223q.271.104.474.347.209.237.215.641 0 .34-.195.612a1.25 1.25 0 0 1-.55.417 2.1 2.1 0 0 1-.827.153m3.88 0a2.2 2.2 0 0 1-.905-.174 1.56 1.56 0 0 1-.626-.473 1.27 1.27 0 0 1-.258-.682h1.176a.45.45 0 0 0 .188.327.66.66 0 0 0 .411.126.6.6 0 0 0 .341-.084.27.27 0 0 0 .125-.229q0-.168-.174-.244a3 3 0 0 0-.564-.181 6 6 0 0 1-.696-.202 1.25 1.25 0 0 1-.48-.341q-.201-.236-.201-.633 0-.333.18-.605.189-.279.543-.438a2.1 2.1 0 0 1 .856-.16q.73 0 1.148.361.424.363.487.961h-1.099a.47.47 0 0 0-.181-.321.6.6 0 0 0-.39-.118.52.52 0 0 0-.32.084.25.25 0 0 0-.111.215q0 .167.174.251.18.084.556.167.432.11.703.223.272.104.473.347.21.237.216.641 0 .34-.195.612a1.25 1.25 0 0 1-.549.417 2.1 2.1 0 0 1-.828.153"/><path fill="url(#paint0_linear_334_460)" d="M14.954 65.78a1.815 1.815 0 0 1 3.63 0v161.546a1.815 1.815 0 0 1-3.63 0z"/><defs><filter id="filter1_dd_334_460" width="93.479" height="61.26" x="22.82" y="97.393" color-interpolation-filters="sRGB" filterUnits="userSpaceOnUse"><feFlood flood-opacity="0" result="BackgroundImageFix"/><feColorMatrix in="SourceAlpha" result="hardAlpha" values="0 0 0 0 0 0 0 0 0 0 0 0 0 0 0 0 0 0 127 0"/><feMorphology in="SourceAlpha" radius=".605" result="effect1_dropShadow_334_460"/><feOffset dy=".605"/><feGaussianBlur stdDeviation=".605"/><feComposite in2="hardAlpha" operator="out"/><feColorMatrix values="0 0 0 0 0 0 0 0 0 0 0 0 0 0 0 0 0 0 0.1 0"/><feBlend in2="BackgroundImageFix" result="effect1_dropShadow_334_460"/><feColorMatrix in="SourceAlpha" result="hardAlpha" values="0 0 0 0 0 0 0 0 0 0 0 0 0 0 0 0 0 0 127 0"/><feOffset dy=".605"/><feGaussianBlur stdDeviation=".908"/><feComposite in2="hardAlpha" operator="out"/><feColorMatrix values="0 0 0 0 0 0 0 0 0 0 0 0 0 0 0 0 0 0 0.1 0"/><feBlend in2="effect1_dropShadow_334_460" result="effect2_dropShadow_334_460"/><feBlend in="SourceGraphic" in2="effect2_dropShadow_334_460" result="shape"/></filter><filter id="filter2_dd_334_460" width="93.479" height="61.26" x="119.929" y="97.393" color-interpolation-filters="sRGB" filterUnits="userSpaceOnUse"><feFlood flood-opacity="0" result="BackgroundImageFix"/><feColorMatrix in="SourceAlpha" result="hardAlpha" values="0 0 0 0 0 0 0 0 0 0 0 0 0 0 0 0 0 0 127 0"/><feMorphology in="SourceAlpha" radius=".605" result="effect1_dropShadow_334_460"/><feOffset dy=".605"/><feGaussianBlur stdDeviation=".605"/><feComposite in2="hardAlpha" operator="out"/><feColorMatrix values="0 0 0 0 0 0 0 0 0 0 0 0 0 0 0 0 0 0 0.1 0"/><feBlend in2="BackgroundImageFix" result="effect1_dropShadow_334_460"/><feColorMatrix in="SourceAlpha" result="hardAlpha" values="0 0 0 0 0 0 0 0 0 0 0 0 0 0 0 0 0 0 127 0"/><feOffset dy=".605"/><feGaussianBlur stdDeviation=".908"/><feComposite in2="hardAlpha" operator="out"/><feColorMatrix values="0 0 0 0 0 0 0 0 0 0 0 0 0 0 0 0 0 0 0.1 0"/><feBlend in2="effect1_dropShadow_334_460" result="effect2_dropShadow_334_460"/><feBlend in="SourceGraphic" in2="effect2_dropShadow_334_460" result="shape"/></filter><linearGradient id="paint0_linear_334_460" x1="16.77" x2="16.77" y1="63.965" y2="229.141" gradientUnits="userSpaceOnUse"><stop stop-color="#e88f4a"/><stop offset=".071" stop-color="#e99352"/><stop offset=".143" stop-color="#eb975a"/><stop offset=".214" stop-color="#ec9b61"/><stop offset=".286" stop-color="#ee9e68"/><stop offset=".357" stop-color="#efa26f"/><stop offset=".429" stop-color="#f1a676"/><stop offset=".5" stop-color="#f2aa7d"/><stop offset=".571" stop-color="#f3ae84"/><stop offset=".643" stop-color="#f5b18a"/><stop offset=".714" stop-color="#f6b591"/><stop offset=".786" stop-color="#f7b998"/><stop offset=".857" stop-color="#f9bd9e"/><stop offset=".929" stop-color="#fac0a5"/><stop offset="1" stop-color="#fbc4ab"/></linearGradient><clipPath id="clip0_334_460"><path fill="#fff" d="M21.2 33.388h12.15v12.15H21.2z"/></clipPath></defs></svg>