<svg xmlns="http://www.w3.org/2000/svg" width="264" height="313" fill="none" viewBox="0 0 264 313"><path fill="#d9d9d9" fill-opacity=".2" d="M0 10C0 4.477 4.477 0 10 0h239.015c5.523 0 10 4.477 10 10v293c0 5.523-4.477 10-10 10H10c-5.523 0-10-4.477-10-10z"/><path fill="#cd4343" d="M29.673 161.465q-1.164 0-2.148-.54a4.16 4.16 0 0 1-1.548-1.524q-.564-.984-.564-2.208t.564-2.196a4.07 4.07 0 0 1 1.548-1.512 4.3 4.3 0 0 1 2.148-.552q1.176 0 2.148.552.984.54 1.548 1.512t.564 2.196-.564 2.208a4.05 4.05 0 0 1-1.548 1.524q-.972.54-2.148.54m0-1.188q.828 0 1.476-.372a2.63 2.63 0 0 0 1.008-1.08q.372-.708.372-1.632t-.372-1.62a2.55 2.55 0 0 0-1.008-1.068 2.9 2.9 0 0 0-1.476-.372q-.828 0-1.476.372a2.63 2.63 0 0 0-1.02 1.068q-.36.696-.36 1.62t.36 1.632q.372.696 1.02 1.08.648.372 1.476.372m11.898-5.508v6.612h-1.368v-.78q-.324.408-.852.648a2.7 2.7 0 0 1-1.104.228q-.78 0-1.404-.324a2.4 2.4 0 0 1-.972-.96q-.348-.636-.348-1.536v-3.888h1.356v3.684q0 .888.444 1.368.444.468 1.212.468t1.212-.468q.456-.48.456-1.368v-3.684zm3.706 1.116v3.66q0 .372.167.54.18.156.6.156h.84v1.14h-1.08q-.923 0-1.416-.432t-.491-1.404v-3.66h-.78v-1.116h.78v-1.644h1.38v1.644h1.608v1.116zm9.462 5.604q-.936 0-1.692-.42a3.1 3.1 0 0 1-1.188-1.2q-.432-.78-.432-1.8 0-1.008.444-1.788t1.212-1.2a3.5 3.5 0 0 1 1.716-.42q.948 0 1.716.42t1.212 1.2.444 1.788-.456 1.788-1.248 1.212q-.78.42-1.728.42m0-1.188q.528 0 .984-.252.468-.252.756-.756t.288-1.224-.276-1.212a1.86 1.86 0 0 0-.732-.756 2 2 0 0 0-.984-.252q-.528 0-.984.252-.444.252-.708.756-.264.492-.264 1.212 0 1.068.54 1.656.552.576 1.38.576m7.861-4.416h-1.224v5.496h-1.38v-5.496h-.78v-1.116h.78v-.468q0-1.14.6-1.656.612-.528 1.908-.528v1.14q-.624 0-.876.24-.252.228-.252.804v.468H62.6zm6.306-.156q.3-.504.792-.78.504-.288 1.188-.288v1.416h-.348q-.804 0-1.224.408-.408.408-.408 1.416v3.48h-1.368v-6.612h1.368zm3.086 2.316q0-.996.408-1.764a3.05 3.05 0 0 1 2.712-1.62q.78 0 1.356.312.588.3.936.756v-.96h1.38v6.612h-1.38v-.984a2.7 2.7 0 0 1-.948.78q-.6.312-1.368.312a2.94 2.94 0 0 1-1.56-.432 3.2 3.2 0 0 1-1.128-1.224q-.408-.792-.408-1.788m5.412.024q0-.684-.288-1.188a1.94 1.94 0 0 0-.732-.768 1.93 1.93 0 0 0-.984-.264q-.528 0-.984.264-.456.252-.744.756-.276.492-.276 1.176t.276 1.2q.288.516.744.792a1.97 1.97 0 0 0 1.968 0q.456-.264.732-.768.288-.516.288-1.2m6.817-3.408q.78 0 1.392.324.624.324.972.96t.348 1.536v3.9h-1.356v-3.696q0-.888-.444-1.356-.444-.48-1.212-.48t-1.224.48q-.444.468-.444 1.356v3.696h-1.368v-6.612h1.368v.756q.336-.408.852-.636a2.8 2.8 0 0 1 1.116-.228m7.426 0q.768 0 1.356.312.6.3.936.756v-.96h1.38v6.72q0 .912-.384 1.62-.384.72-1.116 1.128-.72.408-1.728.408-1.344 0-2.232-.636a2.3 2.3 0 0 1-1.008-1.704h1.356q.156.516.66.828.516.324 1.224.324.828 0 1.332-.504.516-.504.516-1.464v-1.104a2.8 2.8 0 0 1-.948.792q-.588.312-1.344.312a3 3 0 0 1-1.584-.432 3.2 3.2 0 0 1-1.128-1.224q-.408-.792-.408-1.788t.408-1.764a3.05 3.05 0 0 1 2.712-1.62m2.292 3.408q0-.684-.288-1.188a1.94 1.94 0 0 0-.732-.768 1.93 1.93 0 0 0-.984-.264q-.528 0-.984.264-.456.252-.744.756-.276.492-.276 1.176t.276 1.2q.288.516.744.792a1.97 1.97 0 0 0 1.968 0q.456-.264.732-.768.288-.516.288-1.2m9.541-.156q0 .372-.048.672H98.38q.06.792.588 1.272t1.296.48q1.104 0 1.56-.924h1.476a3 3 0 0 1-1.092 1.5q-.78.576-1.944.576-.948 0-1.704-.42a3.14 3.14 0 0 1-1.176-1.2q-.42-.78-.42-1.8t.408-1.788q.42-.78 1.164-1.2.756-.42 1.728-.42.936 0 1.668.408t1.14 1.152q.408.732.408 1.692m-1.428-.432q-.012-.756-.54-1.212t-1.308-.456q-.708 0-1.212.456-.504.444-.6 1.212zm11.576-1.02v1.152h-4.932v-1.152zm5.31-2.58v-1.248h2.496v8.748h-1.38v-7.5zm9.383.78q-.132-.552-.48-.828t-.972-.276q-.948 0-1.416.732-.468.72-.492 2.4.312-.528.912-.816t1.296-.288q.792 0 1.392.348a2.3 2.3 0 0 1 .948.984q.348.648.348 1.548 0 .84-.336 1.5-.324.66-.972 1.044-.648.372-1.56.372-1.236 0-1.944-.54-.696-.552-.984-1.548-.276-.996-.276-2.484 0-4.392 3.096-4.392 1.2 0 1.884.648.696.648.816 1.596zm-1.452 2.076q-.732 0-1.248.444-.504.432-.504 1.26t.468 1.32q.48.48 1.332.48.756 0 1.188-.468.444-.468.444-1.248 0-.816-.432-1.296-.42-.492-1.248-.492m4.572-2.856v-1.248h2.496v8.748h-1.38v-7.5zm16.285.78q.78 0 1.392.324.624.324.972.96.36.636.36 1.536v3.9h-1.356v-3.696q0-.888-.444-1.356-.444-.48-1.212-.48t-1.224.48q-.444.468-.444 1.356v3.696h-1.356v-3.696q0-.888-.444-1.356-.444-.48-1.212-.48t-1.224.48q-.444.468-.444 1.356v3.696h-1.368v-6.612h1.368v.756q.336-.408.852-.636a2.7 2.7 0 0 1 1.104-.228q.792 0 1.416.336t.96.972q.3-.6.936-.948.636-.36 1.368-.36m7.433 0q.768 0 1.356.312.6.3.936.756v-.96h1.38v6.72q0 .912-.384 1.62-.384.72-1.116 1.128-.72.408-1.728.408-1.344 0-2.232-.636a2.3 2.3 0 0 1-1.008-1.704h1.356q.156.516.66.828.516.324 1.224.324.828 0 1.332-.504.516-.504.516-1.464v-1.104a2.8 2.8 0 0 1-.948.792q-.588.312-1.344.312a3 3 0 0 1-1.584-.432 3.2 3.2 0 0 1-1.128-1.224q-.408-.792-.408-1.788t.408-1.764a3.05 3.05 0 0 1 2.712-1.62m2.292 3.408q0-.684-.288-1.188a1.94 1.94 0 0 0-.732-.768 1.93 1.93 0 0 0-.984-.264q-.528 0-.984.264-.456.252-.744.756-.276.492-.276 1.176t.276 1.2q.288.516.744.792a1.97 1.97 0 0 0 1.968 0q.456-.264.732-.768.288-.516.288-1.2m7.921-8.016-3.264 13.428h-1.344l3.252-13.428zm1.573 7.992q0-.996.408-1.764a3.05 3.05 0 0 1 2.724-1.62q.648 0 1.272.288.636.276 1.008.744v-3.192h1.38v8.88h-1.38v-.996a2.55 2.55 0 0 1-.936.792q-.588.312-1.356.312a3 3 0 0 1-1.584-.432 3.2 3.2 0 0 1-1.128-1.224q-.408-.792-.408-1.788m5.412.024q0-.684-.288-1.188a1.94 1.94 0 0 0-.732-.768 1.93 1.93 0 0 0-.984-.264q-.528 0-.984.264-.456.252-.744.756-.276.492-.276 1.176t.276 1.2q.288.516.744.792a1.97 1.97 0 0 0 1.968 0q.456-.264.732-.768.288-.516.288-1.2m4.849 2.208h2.82v1.104h-4.188v-8.34h1.368z"/><path fill="#f5f6f7" d="M11.87 71.791v8.364h-1.093v-8.364zm5.369 1.668q1.2 0 1.944.732.744.72.744 2.088v3.876h-1.08v-3.72q0-.984-.492-1.5-.492-.528-1.344-.528-.864 0-1.38.54-.504.54-.504 1.572v3.636h-1.092V73.58h1.092v.936q.324-.504.876-.78a2.8 2.8 0 0 1 1.236-.276m4.368 3.384q0-1.008.408-1.764a2.96 2.96 0 0 1 1.116-1.188q.72-.42 1.608-.42.768 0 1.428.36.66.348 1.008.924v-3.48h1.104v8.88h-1.104V78.92a2.6 2.6 0 0 1-.96.972q-.636.372-1.488.372a3.04 3.04 0 0 1-1.596-.432 3.03 3.03 0 0 1-1.116-1.212q-.408-.78-.408-1.776m5.568.012q0-.744-.3-1.296a2.07 2.07 0 0 0-.816-.84 2.14 2.14 0 0 0-1.116-.3q-.612 0-1.116.288a2.1 2.1 0 0 0-.804.84q-.3.552-.3 1.296 0 .756.3 1.32.3.552.804.852a2.2 2.2 0 0 0 1.116.288q.612 0 1.116-.288.516-.3.816-.852.3-.564.3-1.308m3.818-4.344a.72.72 0 0 1-.528-.216.72.72 0 0 1-.216-.528q0-.312.216-.528a.72.72 0 0 1 .528-.216q.3 0 .504.216.216.216.216.528a.72.72 0 0 1-.216.528.67.67 0 0 1-.504.216m.528 1.068v6.576h-1.092V73.58zm1.757 3.276q0-1.02.408-1.776a2.94 2.94 0 0 1 1.128-1.188q.732-.42 1.668-.42 1.212 0 1.992.588.792.588 1.044 1.632h-1.176a1.68 1.68 0 0 0-.66-.948q-.48-.348-1.2-.348-.936 0-1.512.648-.576.636-.576 1.812 0 1.188.576 1.836t1.512.648q.72 0 1.2-.336t.66-.96h1.176a2.92 2.92 0 0 1-1.056 1.62q-.792.6-1.98.6-.936 0-1.668-.42a2.94 2.94 0 0 1-1.128-1.188q-.408-.768-.408-1.8m7.594-.012q0-1.008.408-1.764a2.96 2.96 0 0 1 1.116-1.188 3.1 3.1 0 0 1 1.596-.42q.864 0 1.5.372t.948.936v-1.2h1.104v6.576H46.44v-1.224q-.324.576-.972.96-.636.372-1.488.372a3 3 0 0 1-1.584-.432 3.03 3.03 0 0 1-1.116-1.212q-.408-.78-.408-1.776m5.568.012q0-.744-.3-1.296a2.07 2.07 0 0 0-.816-.84 2.14 2.14 0 0 0-1.116-.3q-.612 0-1.116.288a2.1 2.1 0 0 0-.804.84q-.3.552-.3 1.296 0 .756.3 1.32.3.552.804.852a2.2 2.2 0 0 0 1.116.288q.612 0 1.116-.288.516-.3.816-.852.3-.564.3-1.308m4.585-2.376v3.876q0 .48.204.684.204.192.708.192h.804v.924h-.984q-.912 0-1.368-.42t-.456-1.38V74.48h-.852v-.9h.852v-1.656h1.092v1.656h1.716v.9zm6.212 5.784a3.4 3.4 0 0 1-1.68-.42 3.05 3.05 0 0 1-1.176-1.188q-.42-.78-.42-1.8 0-1.008.432-1.776.444-.78 1.2-1.188a3.4 3.4 0 0 1 1.692-.42q.936 0 1.692.42.756.408 1.188 1.176.444.768.444 1.788t-.456 1.8a3.1 3.1 0 0 1-1.212 1.188q-.768.42-1.704.42m0-.96q.588 0 1.104-.276t.828-.828q.324-.552.324-1.344t-.312-1.344a2 2 0 0 0-.816-.816 2.24 2.24 0 0 0-1.092-.276q-.6 0-1.104.276a1.95 1.95 0 0 0-.792.816q-.3.552-.3 1.344 0 .804.288 1.356.3.552.792.828.492.264 1.08.264m6.204-4.656q.288-.564.816-.876.54-.312 1.308-.312v1.128h-.288q-1.836 0-1.836 1.992v3.576h-1.092V73.58h1.092zm6.017 5.616q-.756 0-1.356-.252a2.36 2.36 0 0 1-.948-.72 1.95 1.95 0 0 1-.384-1.068h1.128q.048.492.456.804.42.312 1.092.312.624 0 .984-.276t.36-.696q0-.432-.384-.636-.384-.216-1.188-.42a10 10 0 0 1-1.2-.384 2.3 2.3 0 0 1-.792-.588q-.324-.396-.324-1.032 0-.504.3-.924t.852-.66a3 3 0 0 1 1.26-.252q1.092 0 1.764.552t.72 1.512h-1.092a1.12 1.12 0 0 0-.42-.828q-.372-.312-1.008-.312-.588 0-.936.252a.78.78 0 0 0-.348.66q0 .324.204.54.216.204.528.336.324.12.888.276.708.192 1.152.384.444.18.756.552.324.372.336.972 0 .54-.3.972t-.852.684q-.54.24-1.248.24m8.841-5.616q.288-.564.816-.876.54-.312 1.308-.312v1.128h-.288q-1.836 0-1.836 1.992v3.576h-1.092V73.58H78.3zm4.253-2.136a.72.72 0 0 1-.528-.216.72.72 0 0 1-.216-.528q0-.312.216-.528a.72.72 0 0 1 .528-.216q.3 0 .504.216.216.216.216.528a.72.72 0 0 1-.216.528.67.67 0 0 1-.504.216m.528 1.068v6.576h-1.092V73.58zm4.494 6.684q-.756 0-1.356-.252a2.36 2.36 0 0 1-.948-.72 1.95 1.95 0 0 1-.384-1.068h1.128q.048.492.456.804.42.312 1.092.312.624 0 .984-.276t.36-.696q0-.432-.384-.636-.384-.216-1.188-.42a10 10 0 0 1-1.2-.384 2.3 2.3 0 0 1-.792-.588q-.324-.396-.324-1.032 0-.504.3-.924t.852-.66a3 3 0 0 1 1.26-.252q1.092 0 1.764.552t.72 1.512h-1.092a1.12 1.12 0 0 0-.42-.828q-.372-.312-1.008-.312-.588 0-.936.252a.78.78 0 0 0-.348.66q0 .324.204.54.216.204.528.336.324.12.888.276.708.192 1.152.384.444.18.756.552.324.372.336.972 0 .54-.3.972t-.852.684q-.54.24-1.248.24m7.918-.108-2.58-2.904v2.904H91.82v-8.88h1.092v5.22l2.532-2.916h1.524l-3.096 3.276 3.108 3.3zm9.18.108a3.4 3.4 0 0 1-1.68-.42 3.05 3.05 0 0 1-1.176-1.188q-.42-.78-.42-1.8 0-1.008.432-1.776.444-.78 1.2-1.188a3.4 3.4 0 0 1 1.692-.42q.936 0 1.692.42.756.408 1.188 1.176.444.768.444 1.788t-.456 1.8a3.1 3.1 0 0 1-1.212 1.188q-.768.42-1.704.42m0-.96q.588 0 1.104-.276t.828-.828q.324-.552.324-1.344t-.312-1.344a2 2 0 0 0-.816-.816 2.24 2.24 0 0 0-1.092-.276q-.6 0-1.104.276a1.95 1.95 0 0 0-.792.816q-.3.552-.3 1.344 0 .804.288 1.356.3.552.792.828.492.264 1.08.264m7.788-4.824h-1.38v5.676h-1.092V74.48h-.852v-.9h.852v-.468q0-1.104.564-1.608.576-.516 1.836-.516v.912q-.72 0-1.02.288-.288.276-.288.924v.468h1.38zm8.345-1.02q.744 0 1.344.324.6.312.936.948.348.636.348 1.548v3.876h-1.08v-3.72q0-.984-.492-1.5-.492-.528-1.344-.528-.864 0-1.38.54-.504.54-.504 1.572v3.636h-1.092v-8.88h1.092v3.24a2.16 2.16 0 0 1 .888-.78 2.9 2.9 0 0 1 1.284-.276m10.716 3.156q0 .312-.036.66h-5.256q.06.972.66 1.524.612.54 1.476.54.708 0 1.176-.324.48-.336.672-.888h1.176a2.86 2.86 0 0 1-1.056 1.548q-.792.588-1.968.588-.936 0-1.68-.42a3 3 0 0 1-1.152-1.188q-.42-.78-.42-1.8t.408-1.788a2.84 2.84 0 0 1 1.14-1.176q.744-.42 1.704-.42.936 0 1.656.408t1.104 1.128q.396.708.396 1.608m-1.128-.228q0-.624-.276-1.068a1.74 1.74 0 0 0-.756-.684q-.468-.24-1.044-.24-.828 0-1.416.528-.576.528-.66 1.464zm2.466.456q0-1.008.408-1.764a2.96 2.96 0 0 1 1.116-1.188 3.1 3.1 0 0 1 1.596-.42q.864 0 1.5.372t.948.936v-1.2h1.104v6.576h-1.104v-1.224q-.324.576-.972.96-.636.372-1.488.372a3 3 0 0 1-1.584-.432 3.03 3.03 0 0 1-1.116-1.212q-.408-.78-.408-1.776m5.568.012q0-.744-.3-1.296a2.07 2.07 0 0 0-.816-.84 2.14 2.14 0 0 0-1.116-.3q-.612 0-1.116.288a2.1 2.1 0 0 0-.804.84q-.3.552-.3 1.296 0 .756.3 1.32.3.552.804.852a2.2 2.2 0 0 0 1.116.288q.612 0 1.116-.288.516-.3.816-.852.3-.564.3-1.308m4.346-2.208q.288-.564.816-.876.54-.312 1.308-.312v1.128h-.288q-1.836 0-1.836 1.992v3.576h-1.092V73.58h1.092zm5.021-.168v3.876q0 .48.204.684.204.192.708.192h.804v.924h-.984q-.912 0-1.368-.42t-.456-1.38V74.48h-.852v-.9h.852v-1.656h1.092v1.656h1.716v.9zm6.439 2.364q0-1.008.408-1.764a2.96 2.96 0 0 1 1.116-1.188q.72-.42 1.608-.42.768 0 1.428.36.66.348 1.008.924v-3.48h1.104v8.88h-1.104V78.92a2.6 2.6 0 0 1-.96.972q-.636.372-1.488.372a3.04 3.04 0 0 1-1.596-.432 3.03 3.03 0 0 1-1.116-1.212q-.408-.78-.408-1.776m5.568.012q0-.744-.3-1.296a2.07 2.07 0 0 0-.816-.84 2.14 2.14 0 0 0-1.116-.3q-.612 0-1.116.288a2.1 2.1 0 0 0-.804.84q-.3.552-.3 1.296 0 .756.3 1.32.3.552.804.852a2.2 2.2 0 0 0 1.116.288q.612 0 1.116-.288.516-.3.816-.852.3-.564.3-1.308m3.817-4.344a.72.72 0 0 1-.528-.216.72.72 0 0 1-.216-.528q0-.312.216-.528a.72.72 0 0 1 .528-.216q.3 0 .504.216.216.216.216.528a.72.72 0 0 1-.216.528.67.67 0 0 1-.504.216m.528 1.068v6.576h-1.092V73.58zm8.166 3.036q0 .312-.036.66h-5.256q.06.972.66 1.524.612.54 1.476.54.708 0 1.176-.324.48-.336.672-.888h1.176a2.86 2.86 0 0 1-1.056 1.548q-.792.588-1.968.588-.936 0-1.68-.42a3 3 0 0 1-1.152-1.188q-.42-.78-.42-1.8t.408-1.788a2.84 2.84 0 0 1 1.14-1.176q.744-.42 1.704-.42.936 0 1.656.408t1.104 1.128q.396.708.396 1.608m-1.128-.228q0-.624-.276-1.068a1.74 1.74 0 0 0-.756-.684q-.468-.24-1.044-.24-.828 0-1.416.528-.576.528-.66 1.464zm2.466.456q0-1.008.408-1.764a2.96 2.96 0 0 1 1.116-1.188 3.1 3.1 0 0 1 1.596-.42q.864 0 1.5.372t.948.936v-1.2h1.104v6.576h-1.104v-1.224q-.324.576-.972.96-.636.372-1.488.372a3 3 0 0 1-1.584-.432 3.03 3.03 0 0 1-1.116-1.212q-.408-.78-.408-1.776m5.568.012q0-.744-.3-1.296a2.07 2.07 0 0 0-.816-.84 2.14 2.14 0 0 0-1.116-.3q-.612 0-1.116.288a2.1 2.1 0 0 0-.804.84q-.3.552-.3 1.296 0 .756.3 1.32.3.552.804.852a2.2 2.2 0 0 0 1.116.288q.612 0 1.116-.288.516-.3.816-.852.3-.564.3-1.308m5.581 3.408q-.756 0-1.356-.252a2.36 2.36 0 0 1-.948-.72 1.95 1.95 0 0 1-.384-1.068h1.128q.048.492.456.804.42.312 1.092.312.624 0 .984-.276t.36-.696q0-.432-.384-.636-.384-.216-1.188-.42a10 10 0 0 1-1.2-.384 2.3 2.3 0 0 1-.792-.588q-.324-.396-.324-1.032 0-.504.3-.924t.852-.66a3 3 0 0 1 1.26-.252q1.092 0 1.764.552t.72 1.512h-1.092a1.12 1.12 0 0 0-.42-.828q-.372-.312-1.008-.312-.588 0-.936.252a.78.78 0 0 0-.348.66q0 .324.204.54.216.204.528.336.324.12.888.276.708.192 1.152.384.444.18.756.552.324.372.336.972 0 .54-.3.972t-.852.684q-.54.24-1.248.24m10.246-3.648q0 .312-.036.66h-5.256q.06.972.66 1.524.612.54 1.476.54.708 0 1.176-.324.48-.336.672-.888h1.176a2.86 2.86 0 0 1-1.056 1.548q-.792.588-1.968.588-.936 0-1.68-.42a3 3 0 0 1-1.152-1.188q-.42-.78-.42-1.8t.408-1.788a2.84 2.84 0 0 1 1.14-1.176q.744-.42 1.704-.42.936 0 1.656.408t1.104 1.128q.396.708.396 1.608m-1.128-.228q0-.624-.276-1.068a1.74 1.74 0 0 0-.756-.684q-.468-.24-1.044-.24-.828 0-1.416.528-.576.528-.66 1.464z"/><g clip-path="url(#clip0_334_254)"><path fill="#fc5939" d="M25.785 110.87c0 .249-.177.451-.395.451h-9.482c-.218 0-.395-.202-.395-.451v-9.031c0-.348.33-.565.593-.391.122.081.197.23.197.391v5.326l2.505-2.504a.356.356 0 0 1 .498-.021l2.904 2.489 2.92-2.92c.216-.244.583-.129.66.207a.49.49 0 0 1-.14.471l-3.16 3.16a.357.357 0 0 1-.498.022l-2.904-2.489-2.785 2.785v2.053h9.087c.218 0 .395.202.395.452"/></g><path fill="#f5f6f7" d="M21.324 46.376v9.772h-1.96v-4.159h-4.186v4.159h-1.96v-9.772h1.96v4.018h4.186v-4.018zm9.443 5.726q0 .42-.056.756h-5.67q.07.84.588 1.316t1.274.476q1.092 0 1.554-.938h2.114a3.57 3.57 0 0 1-1.288 1.847q-.951.715-2.338.715-1.119 0-2.016-.49a3.6 3.6 0 0 1-1.386-1.414q-.49-.91-.49-2.1 0-1.205.49-2.114a3.4 3.4 0 0 1 1.372-1.4q.882-.49 2.03-.49 1.107 0 1.974.476.882.476 1.358 1.358.49.867.49 2.002m-2.03-.56q-.014-.757-.546-1.205-.531-.462-1.302-.462-.728 0-1.232.449-.49.434-.602 1.218zm3.261.7q0-1.177.462-2.086.476-.91 1.274-1.4a3.43 3.43 0 0 1 1.806-.49q.868 0 1.512.35.659.35 1.05.882v-1.106h1.974v7.755h-1.974v-1.133q-.378.545-1.05.91-.657.35-1.526.35-.98 0-1.792-.505-.798-.503-1.274-1.413-.462-.925-.462-2.114m6.104.028q0-.715-.28-1.219a1.9 1.9 0 0 0-.756-.784 2 2 0 0 0-1.022-.28q-.546 0-1.008.267a2.04 2.04 0 0 0-.756.784q-.28.504-.28 1.204t.28 1.232q.294.517.756.798.477.28 1.008.28.546 0 1.022-.267.477-.279.756-.783.28-.519.28-1.233m6.153-2.675q.378-.615.98-.965.615-.35 1.4-.35v2.057h-.518q-.924 0-1.4.434-.462.435-.462 1.512v3.864h-1.96v-7.755h1.96zm6.286.407v3.752q0 .39.183.574.195.167.644.167h.91v1.653h-1.233q-2.477 0-2.477-2.409v-3.737h-.924v-1.61h.924v-1.919h1.974v1.919h1.736v1.61zm15.197-3.626v9.772h-1.96v-4.159h-4.186v4.159h-1.96v-9.772h1.96v4.018h4.186v-4.018zm9.444 5.726q-.001.42-.056.756h-5.67q.07.84.587 1.316.519.476 1.274.476 1.093 0 1.555-.938h2.114a3.57 3.57 0 0 1-1.288 1.847q-.952.715-2.338.715-1.121 0-2.016-.49a3.6 3.6 0 0 1-1.386-1.414q-.49-.91-.49-2.1 0-1.205.49-2.114a3.4 3.4 0 0 1 1.371-1.4q.883-.49 2.03-.49 1.107 0 1.975.476.88.476 1.358 1.358.49.867.49 2.002m-2.03-.56q-.015-.757-.546-1.205-.533-.462-1.302-.462-.729 0-1.233.449-.49.434-.602 1.218zm3.26.7q0-1.177.462-2.086.477-.91 1.275-1.4a3.43 3.43 0 0 1 1.805-.49q.869 0 1.513.35.657.35 1.05.882v-1.106h1.974v7.755h-1.975v-1.133q-.378.545-1.05.91-.657.35-1.525.35-.98 0-1.793-.505-.797-.503-1.273-1.413-.462-.925-.463-2.114m6.104.028q0-.715-.28-1.219a1.9 1.9 0 0 0-.755-.784 2 2 0 0 0-1.022-.28q-.547 0-1.008.267a2.04 2.04 0 0 0-.756.784q-.28.504-.28 1.204t.28 1.232q.294.517.756.798.476.28 1.008.28.545 0 1.022-.267.475-.279.756-.783.28-.519.28-1.233m6.153-6.483v10.36h-1.96v-10.36zM93.193 50v3.752q0 .39.182.574.195.167.644.167h.91v1.653h-1.232q-2.478 0-2.478-2.409V50h-.924v-1.61h.924v-1.919h1.974v1.919h1.736V50zm7.818-1.723q.882 0 1.568.392.686.378 1.064 1.135.392.742.392 1.791v4.55h-1.96v-4.283q0-.924-.462-1.414-.462-.505-1.26-.505-.811 0-1.288.505-.462.489-.462 1.413v4.285h-1.96v-10.36h1.96v3.57a2.5 2.5 0 0 1 1.008-.784 3.3 3.3 0 0 1 1.4-.294"/><path fill="#fff" d="m38.56 109.457-1.92-3.336h-1.043v3.336h-1.368v-8.34h2.88q.96 0 1.62.336.672.336.996.9.336.564.336 1.26 0 .816-.48 1.488-.468.66-1.452.9l2.064 3.456zm-2.963-4.428h1.512q.768 0 1.152-.384.396-.384.396-1.032t-.384-1.008q-.384-.372-1.164-.372h-1.512zm7.214-3.06a.85.85 0 0 1-.624-.252.85.85 0 0 1-.252-.624q0-.372.252-.624a.85.85 0 0 1 .624-.252q.36 0 .612.252a.85.85 0 0 1 .252.624.85.85 0 0 1-.252.624.83.83 0 0 1-.612.252m.672.876v6.612h-1.368v-6.612zm4.5 6.72q-.78 0-1.403-.276a2.54 2.54 0 0 1-.972-.768 1.94 1.94 0 0 1-.384-1.092h1.416a1 1 0 0 0 .396.708q.372.276.924.276.576 0 .888-.216.324-.228.324-.576 0-.372-.36-.552-.348-.18-1.116-.396a11 11 0 0 1-1.212-.396 2.2 2.2 0 0 1-.816-.588q-.336-.396-.336-1.044 0-.528.312-.96.312-.444.888-.696.588-.252 1.344-.252 1.128 0 1.812.576.696.564.744 1.548h-1.368a.97.97 0 0 0-.36-.708q-.324-.264-.876-.264-.54 0-.828.204a.63.63 0 0 0-.288.54q0 .264.192.444t.468.288q.276.096.816.252.72.192 1.176.396.468.192.804.576t.348 1.02q0 .564-.312 1.008t-.888.696q-.564.252-1.332.252m6.931-3.408 3.048 3.3h-1.848l-2.448-2.844v2.844h-1.368v-8.88h1.368v5.16l2.4-2.892h1.896zm12.663-5.04v1.116h-3.54v2.46h2.76v1.116h-2.76v3.648H62.67v-8.34zm1.116 5.004q0-.996.408-1.764a3.05 3.05 0 0 1 2.712-1.62q.78 0 1.356.312.588.3.936.756v-.96h1.38v6.612h-1.38v-.984a2.7 2.7 0 0 1-.948.78q-.6.312-1.368.312a2.94 2.94 0 0 1-1.56-.432 3.2 3.2 0 0 1-1.128-1.224q-.408-.792-.408-1.788m5.412.024q0-.684-.288-1.188a1.94 1.94 0 0 0-.732-.768 1.93 1.93 0 0 0-.984-.264q-.528 0-.984.264-.456.252-.744.756-.276.492-.276 1.176t.276 1.2q.288.516.744.792a1.97 1.97 0 0 0 1.968 0q.456-.264.732-.768.288-.516.288-1.2m3.025 0q0-1.02.408-1.788.42-.78 1.152-1.2t1.68-.42q1.2 0 1.98.576.792.564 1.068 1.62h-1.476a1.56 1.56 0 0 0-.576-.768q-.396-.276-.996-.276-.84 0-1.344.6-.492.588-.492 1.656t.492 1.668q.504.6 1.344.6 1.188 0 1.572-1.044h1.476q-.288 1.008-1.08 1.608-.792.588-1.968.588-.948 0-1.68-.42a3.1 3.1 0 0 1-1.152-1.2q-.408-.78-.408-1.8m9.552-2.184v3.66q0 .372.168.54.18.156.6.156h.84v1.14h-1.08q-.924 0-1.416-.432t-.492-1.404v-3.66h-.78v-1.116h.78v-1.644h1.38v1.644h1.608v1.116zm6.041 5.604q-.936 0-1.692-.42a3.1 3.1 0 0 1-1.188-1.2q-.432-.78-.432-1.8 0-1.008.444-1.788t1.212-1.2a3.5 3.5 0 0 1 1.716-.42q.948 0 1.716.42t1.212 1.2.444 1.788-.456 1.788-1.248 1.212q-.78.42-1.728.42m0-1.188q.528 0 .984-.252.468-.252.756-.756t.288-1.224-.276-1.212a1.86 1.86 0 0 0-.732-.756 2 2 0 0 0-.984-.252q-.528 0-.984.252-.444.252-.708.756-.264.492-.264 1.212 0 1.068.54 1.656.552.576 1.38.576m6.457-4.572q.3-.504.792-.78.504-.288 1.188-.288v1.416h-.348q-.804 0-1.224.408-.408.408-.408 1.416v3.48h-1.368v-6.612h1.368zm5.942 5.76q-.78 0-1.404-.276a2.54 2.54 0 0 1-.972-.768 1.94 1.94 0 0 1-.384-1.092h1.416a1 1 0 0 0 .396.708q.372.276.924.276.576 0 .888-.216.324-.228.324-.576 0-.372-.36-.552-.348-.18-1.116-.396a11 11 0 0 1-1.212-.396 2.2 2.2 0 0 1-.816-.588q-.336-.396-.336-1.044 0-.528.312-.96.312-.444.888-.696.588-.252 1.344-.252 1.128 0 1.812.576.696.564.744 1.548h-1.368a.97.97 0 0 0-.36-.708q-.324-.264-.876-.264-.54 0-.828.204a.63.63 0 0 0-.288.54q0 .264.192.444t.468.288q.276.096.816.252.72.192 1.176.396.468.192.804.576t.348 1.02q0 .564-.312 1.008t-.888.696q-.564.252-1.332.252M29.55 143.131h2.82v1.104h-4.188v-8.34h1.368zm6.993-7.236q1.332 0 2.328.516a3.56 3.56 0 0 1 1.548 1.464q.552.948.552 2.22t-.552 2.208a3.6 3.6 0 0 1-1.548 1.44q-.996.492-2.328.492h-2.724v-8.34zm0 7.224q1.464 0 2.244-.792t.78-2.232q0-1.452-.78-2.268t-2.244-.816h-1.356v6.108zm7.456.012h2.82v1.104H42.63v-8.34h1.368zm7.234-3.084q0-1.224.564-2.196a4.07 4.07 0 0 1 1.548-1.512 4.3 4.3 0 0 1 2.148-.552q1.332 0 2.364.66 1.044.648 1.512 1.848h-1.644q-.324-.66-.9-.984t-1.332-.324q-.828 0-1.476.372a2.63 2.63 0 0 0-1.02 1.068q-.36.696-.36 1.62t.36 1.62q.372.696 1.02 1.08.648.372 1.476.372.756 0 1.332-.324t.9-.984h1.644q-.468 1.2-1.512 1.848-1.032.648-2.364.648-1.176 0-2.148-.54a4.16 4.16 0 0 1-1.548-1.524q-.564-.972-.564-2.196m13.462-2.532q.756 0 1.344.324.6.324.936.96.348.636.348 1.536v3.9h-1.356v-3.696q0-.888-.445-1.356-.444-.48-1.212-.48t-1.224.48q-.443.468-.444 1.356v3.696h-1.367v-8.88h1.367v3.036q.348-.42.877-.648.54-.228 1.176-.228m7.545 6.828q-.936 0-1.692-.42a3.1 3.1 0 0 1-1.188-1.2q-.432-.78-.432-1.8 0-1.008.444-1.788t1.212-1.2a3.5 3.5 0 0 1 1.716-.42q.948 0 1.716.42t1.212 1.2.444 1.788-.456 1.788-1.248 1.212q-.78.42-1.728.42m0-1.188q.528 0 .984-.252.468-.252.756-.756t.288-1.224-.276-1.212a1.86 1.86 0 0 0-.732-.756 2 2 0 0 0-.984-.252q-.528 0-.984.252-.444.252-.708.756-.264.492-.264 1.212 0 1.068.54 1.656.552.576 1.38.576m6.457-7.8v8.88h-1.368v-8.88zm8.16 5.412q0 .372-.048.672h-5.052q.06.792.588 1.272t1.296.48q1.104 0 1.56-.924h1.476a3 3 0 0 1-1.092 1.5q-.78.576-1.944.576-.948 0-1.704-.42a3.14 3.14 0 0 1-1.176-1.2q-.42-.78-.42-1.8t.408-1.788q.42-.78 1.164-1.2.756-.42 1.728-.42.936 0 1.668.408t1.14 1.152q.408.732.408 1.692m-1.428-.432q-.012-.756-.54-1.212t-1.308-.456q-.708 0-1.212.456-.504.444-.6 1.212zm5.479 4.008q-.78 0-1.404-.276a2.54 2.54 0 0 1-.972-.768 1.94 1.94 0 0 1-.384-1.092h1.416a1 1 0 0 0 .396.708q.372.276.924.276.576 0 .888-.216.324-.228.324-.576 0-.372-.36-.552-.348-.18-1.116-.396a11 11 0 0 1-1.212-.396 2.2 2.2 0 0 1-.816-.588q-.336-.396-.336-1.044 0-.528.312-.96.312-.444.888-.696.588-.252 1.344-.252 1.128 0 1.812.576.696.564.744 1.548h-1.368a.97.97 0 0 0-.36-.708q-.324-.264-.876-.264-.54 0-.828.204a.63.63 0 0 0-.288.54q0 .264.192.444t.468.288q.276.096.816.252.72.192 1.176.396.468.192.804.576t.348 1.02q0 .564-.312 1.008t-.888.696q-.564.252-1.332.252m5.91-5.604v3.66q0 .372.168.54.18.156.6.156h.84v1.14h-1.08q-.924 0-1.416-.432t-.492-1.404v-3.66h-.78v-1.116h.78v-1.644h1.38v1.644h1.608v1.116zm4.541-.156q.3-.504.792-.78.504-.288 1.188-.288v1.416h-.348q-.804 0-1.224.408-.408.408-.408 1.416v3.48h-1.368v-6.612h1.368zm6.41 5.76q-.936 0-1.692-.42a3.1 3.1 0 0 1-1.188-1.2q-.432-.78-.432-1.8 0-1.008.444-1.788t1.212-1.2a3.5 3.5 0 0 1 1.716-.42q.948 0 1.716.42t1.212 1.2.444 1.788-.456 1.788-1.248 1.212q-.78.42-1.728.42m0-1.188q.528 0 .984-.252.468-.252.756-.756t.288-1.224-.276-1.212a1.86 1.86 0 0 0-.732-.756 2 2 0 0 0-.984-.252q-.528 0-.984.252-.444.252-.708.756-.264.492-.264 1.212 0 1.068.54 1.656.552.576 1.38.576m6.457-7.8v8.88h-1.368v-8.88z"/><circle cx="13" cy="140" r="3" fill="#cd4343"/><path fill="#de5858" d="M13 16.999a2 2 0 0 1 2-2h73a2 2 0 0 1 2 2v12a2 2 0 0 1-2 2H15a2 2 0 0 1-2-2z"/><path fill="#fff" d="M23.94 24.579h-2.91l-.5 1.42h-1.19l2.49-6.96h1.32l2.49 6.96h-1.2zm-.32-.93-1.13-3.23-1.14 3.23zm4.547-5.05v7.4h-1.14v-7.4zm6.851 4.51q0 .31-.04.56h-4.21q.05.66.49 1.06.441.4 1.08.4.92 0 1.3-.77h1.23q-.25.76-.91 1.25-.65.48-1.62.48-.79 0-1.42-.35a2.6 2.6 0 0 1-.98-1q-.35-.65-.35-1.5t.34-1.49a2.46 2.46 0 0 1 .97-1q.63-.35 1.44-.35.78 0 1.39.34t.95.96q.34.61.34 1.41m-1.19-.36q-.01-.63-.45-1.01t-1.09-.38q-.59 0-1.01.38-.42.37-.5 1.01zm3.756-1.46q.25-.42.66-.65.42-.24.99-.24v1.18h-.29q-.669 0-1.02.34-.34.34-.34 1.18v2.9h-1.14v-5.51h1.14zm4.333.13v3.05q0 .31.14.45.15.13.5.13h.7v.95h-.9q-.77 0-1.18-.36t-.41-1.17v-3.05h-.65v-.93h.65v-1.37h1.15v1.37h1.34v.93zm3.275-1.66a.7.7 0 0 1-.52-.21.7.7 0 0 1-.21-.52q0-.31.21-.52t.52-.21q.3 0 .51.21t.21.52-.21.52-.51.21m.56.73v5.51h-1.14v-5.51zm4.58-.09q.65 0 1.16.27.522.27.81.8.29.53.29 1.28v3.25h-1.13v-3.08q.001-.74-.37-1.13-.368-.4-1.01-.4-.639 0-1.02.4-.37.39-.37 1.13v3.08h-1.14v-5.51h1.14v.63q.282-.34.71-.53.441-.19.93-.19m6.24 0q.64 0 1.13.26.5.25.78.63v-.8h1.15v5.6q0 .76-.32 1.35-.321.6-.93.94-.6.34-1.44.34-1.12 0-1.86-.53a1.92 1.92 0 0 1-.84-1.42h1.13q.13.43.55.69.429.27 1.02.27.69 0 1.11-.42.43-.42.43-1.22v-.92a2.35 2.35 0 0 1-1.91.92q-.72 0-1.32-.36a2.7 2.7 0 0 1-.94-1.02 3.2 3.2 0 0 1-.34-1.49q0-.83.34-1.47a2.54 2.54 0 0 1 2.26-1.35m1.91 2.84q0-.57-.24-.99a1.6 1.6 0 0 0-.61-.64 1.6 1.6 0 0 0-.82-.22 1.6 1.6 0 0 0-.82.22q-.38.21-.62.63-.23.41-.23.98t.23 1q.24.43.62.66a1.65 1.65 0 0 0 1.64 0q.38-.22.61-.64.24-.43.24-1m9.463 2.76-1.6-2.78h-.87v2.78h-1.14v-6.95h2.4q.801 0 1.35.28.56.28.83.75.28.47.28 1.05 0 .68-.4 1.24-.39.55-1.21.75l1.72 2.88zm-2.47-3.69h1.26q.64 0 .96-.32.33-.32.33-.86t-.32-.84q-.32-.31-.97-.31h-1.26zm6.063-2.55a.7.7 0 0 1-.52-.21.7.7 0 0 1-.21-.52q0-.31.21-.52t.52-.21q.3 0 .51.21t.21.52-.21.52-.51.21m.56.73v5.51h-1.14v-5.51zm3.801 5.6q-.65 0-1.17-.23-.51-.24-.81-.64a1.6 1.6 0 0 1-.32-.91h1.18q.03.35.33.59.31.23.77.23.48 0 .74-.18.27-.19.27-.48 0-.31-.3-.46-.29-.15-.93-.33a9 9 0 0 1-1.01-.33 1.8 1.8 0 0 1-.68-.49q-.28-.33-.28-.87 0-.44.26-.8.26-.37.74-.58.49-.21 1.12-.21.94 0 1.51.48.58.47.62 1.29h-1.14a.8.8 0 0 0-.3-.59q-.27-.22-.73-.22-.45 0-.69.17a.53.53 0 0 0-.24.45q0 .22.16.37t.39.24q.23.08.68.21.6.16.98.33.39.16.67.48t.29.85q0 .47-.26.84t-.74.58q-.47.21-1.11.21m5.826-2.84 2.54 2.75h-1.54l-2.04-2.37v2.37h-1.14v-7.4h1.14v4.3l2-2.41h1.58z"/><path fill="#b95042" d="M106.101 236.538h-3.314v.96a1.6 1.6 0 0 1 .56-.308q.354-.115.788-.115.777 0 1.314.366t.8.983q.263.606.263 1.349 0 1.37-.777 2.137-.765.754-2.114.754-.983 0-1.703-.343a2.56 2.56 0 0 1-1.086-.948 2.5 2.5 0 0 1-.343-1.383h2.469q0 .183.126.343.125.16.411.16t.423-.206.137-.56q0-.332-.16-.503-.149-.171-.434-.171-.24 0-.366.114a.35.35 0 0 0-.126.263h-2.468v-5.12h5.6zm2.413 6.217q-.663 0-1.063-.354a1.14 1.14 0 0 1-.4-.891q0-.549.4-.903.4-.366 1.063-.366.651 0 1.051.366.4.354.4.903 0 .537-.4.891t-1.051.354m8.21-6.217h-3.315v.96q.218-.194.56-.308.354-.115.789-.115.777 0 1.314.366t.8.983q.263.606.263 1.349 0 1.37-.777 2.137-.766.754-2.114.754-.983 0-1.703-.343a2.54 2.54 0 0 1-1.086-.948 2.5 2.5 0 0 1-.343-1.383h2.469a.55.55 0 0 0 .125.343q.126.16.412.16.285 0 .423-.206.137-.206.137-.56 0-.332-.16-.503-.149-.171-.434-.171-.24 0-.366.114a.35.35 0 0 0-.126.263h-2.468v-5.12h5.6zm1.098.389q.034-1.36.789-2.08.766-.72 2.16-.72.903 0 1.543.308.64.309.96.835.331.525.331 1.188 0 .801-.377 1.257-.377.447-.846.606v.046q1.372.514 1.372 1.908 0 .732-.343 1.292a2.3 2.3 0 0 1-.983.868q-.629.309-1.497.309-1.486 0-2.331-.709-.846-.708-.869-2.217h2.469q-.024.412.114.629.149.206.503.206a.45.45 0 0 0 .343-.149.6.6 0 0 0 .137-.411q0-.321-.217-.48-.207-.172-.709-.172h-.423v-2.046h.412q.777.046.777-.617 0-.285-.126-.423a.37.37 0 0 0-.297-.137q-.423 0-.423.709z"/><path fill="#bd6162" d="M125.723 238.401v-.908h1.583v4.171h-1.018v-3.263zm2.251 1.12q0-.982.377-1.548.383-.567 1.229-.566.845 0 1.223.566.382.566.382 1.548 0 .995-.382 1.56-.378.566-1.223.566t-1.229-.566q-.377-.565-.377-1.56m2.251 0q0-.577-.125-.886-.126-.314-.52-.314-.395 0-.52.314-.126.309-.126.886 0 .388.046.646.045.252.183.411.142.155.417.155.274 0 .411-.155a.83.83 0 0 0 .189-.411q.045-.258.045-.646m2.374 1.2h-.983l1.383-3.08h.948l1.377 3.08h-.982l-.869-1.948zm5.217-2.103a.6.6 0 0 0-.16-.314.46.46 0 0 0-.326-.109.49.49 0 0 0-.468.286q-.143.28-.149.892a.86.86 0 0 1 .36-.315 1.2 1.2 0 0 1 .526-.114q.56 0 .897.354.343.355.343.989 0 .417-.172.731a1.17 1.17 0 0 1-.491.492 1.55 1.55 0 0 1-.76.177q-.88 0-1.223-.549-.343-.554-.343-1.588 0-1.086.36-1.612.366-.531 1.166-.531.429 0 .72.171.297.166.446.44.153.274.182.6zm-.452 1.097a.6.6 0 0 0-.411.149q-.16.142-.16.411 0 .275.149.429.153.154.434.154a.52.52 0 0 0 .394-.148.58.58 0 0 0 .149-.417.6.6 0 0 0-.143-.423q-.143-.155-.412-.155m4.302-3.48-1.532 6.498h-.943l1.532-6.498zm1.372 1.418v2.4q0 .36.177.554t.52.194.526-.194.182-.554v-2.4h.978v2.394q0 .537-.229.908a1.45 1.45 0 0 1-.617.56 1.9 1.9 0 0 1-.857.189q-.474 0-.852-.183a1.4 1.4 0 0 1-.588-.56q-.217-.377-.217-.914v-2.394zm4.046 3.257h1.28v.754h-2.257v-4.011h.977z"/><g clip-path="url(#clip1_334_254)"><path fill="#fff" d="m19.494 232.667-1.04-1.931h-.156v1.931h-1.456v-5.237h2.295q.632 0 1.07.223.439.215.661.601.223.38.223.855 0 .534-.297.943-.29.401-.854.572l1.18 2.043zm-1.196-2.927h.72q.298 0 .446-.141.15-.14.149-.409a.5.5 0 0 0-.156-.393q-.149-.149-.439-.149h-.72zm8.22.238q.46.104.728.46.275.35.275.803 0 .668-.46 1.047-.462.38-1.293.379h-2.593v-5.237h2.511q.802 0 1.255.356.46.357.461 1.003 0 .46-.245.773a1.2 1.2 0 0 1-.639.416m-1.887-.468h.735q.55 0 .55-.453 0-.468-.55-.468h-.735zm.847 1.983q.55 0 .55-.46 0-.238-.149-.364-.14-.127-.409-.127h-.839v.951zm3.924-1.456q0-.773.32-1.374a2.3 2.3 0 0 1 .921-.943q.594-.342 1.367-.342.98 0 1.65.527.668.52.86 1.419h-1.567a1.04 1.04 0 0 0-.393-.453 1.04 1.04 0 0 0-.572-.156q-.506 0-.81.364-.297.357-.297.958 0 .61.297.973.304.357.81.357.326 0 .572-.156.253-.156.393-.453h1.568q-.193.899-.862 1.426-.668.52-1.65.52-.771 0-1.366-.334a2.4 2.4 0 0 1-.921-.944 2.95 2.95 0 0 1-.32-1.389m7.052 0q0-.773.32-1.374a2.3 2.3 0 0 1 .92-.943q.595-.342 1.367-.342.981 0 1.65.527.667.52.861 1.419h-1.567a1.04 1.04 0 0 0-.394-.453 1.04 1.04 0 0 0-.572-.156q-.505 0-.81.364-.297.357-.297.958 0 .61.297.973.305.357.81.357.327 0 .572-.156.252-.156.394-.453h1.567q-.193.899-.862 1.426-.668.52-1.649.52-.772 0-1.367-.334a2.37 2.37 0 0 1-.92-.944 2.95 2.95 0 0 1-.32-1.389m7.746 2.682a2.4 2.4 0 0 1-1.121-.26 1.9 1.9 0 0 1-.773-.743q-.282-.483-.282-1.136 0-.647.282-1.13.29-.482.78-.742.498-.26 1.122-.26t1.114.26q.498.26.78.742.29.483.29 1.13 0 .645-.29 1.136-.282.483-.78.743a2.4 2.4 0 0 1-1.122.26m0-1.263a.65.65 0 0 0 .506-.223q.207-.23.208-.653 0-.424-.208-.647a.65.65 0 0 0-.498-.223.65.65 0 0 0-.498.223q-.2.223-.2.647 0 .43.193.653a.63.63 0 0 0 .497.223m7.048-2.956v4.167h-1.463v-.594a1.4 1.4 0 0 1-.513.46 1.6 1.6 0 0 1-.75.171q-.728 0-1.151-.475-.416-.483-.416-1.308V228.5h1.448v2.236q0 .356.186.564a.67.67 0 0 0 .505.201.65.65 0 0 0 .505-.201q.186-.209.186-.564V228.5zm3.555-.038q.72 0 1.144.483.423.476.424 1.293v2.429h-1.456v-2.236q0-.357-.186-.557a.63.63 0 0 0-.498-.208q-.327 0-.512.208-.186.2-.186.557v2.236h-1.456V228.5h1.456v.594q.193-.282.52-.453a1.54 1.54 0 0 1 .75-.179m4.825 2.964v1.241h-.631q-1.597 0-1.597-1.582v-1.375h-.513v-1.21h.513v-1.011h1.463v1.011h.758v1.21h-.758v1.397q0 .171.075.245.081.075.267.074z"/></g><g clip-path="url(#clip2_334_254)"><path fill="#bd6162" d="M19.504 237.784v.744h-1.01v3.067h-.928v-3.067h-1.01v-.744zm.281 2.291q0-.468.174-.82.18-.352.483-.543.304-.19.679-.19.32 0 .559.13a.96.96 0 0 1 .374.342v-.428h.929v3.029h-.929v-.429a1 1 0 0 1-.38.342q-.238.13-.559.13-.369 0-.673-.19a1.4 1.4 0 0 1-.483-.548 1.9 1.9 0 0 1-.174-.825m2.27.005q0-.347-.196-.548a.62.62 0 0 0-.467-.201.64.64 0 0 0-.472.201q-.19.195-.19.543 0 .347.19.553.195.201.472.201t.467-.201q.195-.2.195-.548m2.528-1.01q.162-.249.407-.39.245-.147.543-.147v.983h-.256q-.347 0-.52.152-.175.146-.174.521v1.406h-.929v-3.029h.929zm2.544-.548q.32 0 .56.13a.96.96 0 0 1 .374.342v-.428h.928v3.023q0 .418-.168.755a1.24 1.24 0 0 1-.505.543q-.337.201-.841.201-.674 0-1.092-.321a1.2 1.2 0 0 1-.477-.857h.917a.43.43 0 0 0 .206.271.73.73 0 0 0 .402.103.62.62 0 0 0 .456-.168q.174-.163.174-.527v-.429a1.05 1.05 0 0 1-.375.348q-.238.13-.559.13-.375 0-.678-.19a1.4 1.4 0 0 1-.484-.548 1.9 1.9 0 0 1-.173-.825q0-.468.173-.82.18-.352.483-.543.305-.19.68-.19m.934 1.558q0-.347-.196-.548a.62.62 0 0 0-.466-.201.63.63 0 0 0-.473.201q-.19.195-.19.543 0 .347.19.553.195.201.473.201.276 0 .466-.201.195-.2.196-.548m4.455-.049q0 .13-.016.272h-2.101q.021.282.18.434a.57.57 0 0 0 .395.147q.348 0 .483-.294h.989q-.076.299-.277.538-.195.239-.494.374-.3.136-.668.136-.445 0-.793-.19a1.35 1.35 0 0 1-.542-.543 1.7 1.7 0 0 1-.196-.825q0-.472.19-.825.195-.352.543-.543.348-.19.798-.19.44 0 .782.185.342.184.532.526.195.342.195.798m-.95-.244a.48.48 0 0 0-.163-.38.6.6 0 0 0-.407-.141.6.6 0 0 0-.396.136.6.6 0 0 0-.196.385zm3.128 1.021v.787h-.472q-.506 0-.787-.245-.283-.25-.283-.808v-1.206h-.369v-.77h.37v-.739h.928v.739h.608v.77h-.608v1.216q0 .136.065.196t.217.06zm.951.83a.58.58 0 0 1-.401-.141.48.48 0 0 1-.152-.358q0-.217.152-.364a.56.56 0 0 1 .401-.147q.24 0 .391.147a.48.48 0 0 1 .158.364.47.47 0 0 1-.158.358.55.55 0 0 1-.39.141m0-2.209a.58.58 0 0 1-.401-.141.48.48 0 0 1-.152-.359q0-.217.152-.363a.56.56 0 0 1 .401-.147q.24 0 .391.147a.48.48 0 0 1 .158.363.47.47 0 0 1-.158.359.55.55 0 0 1-.39.141m2.189 1.46v-.749l1.715-2.454h1.037v2.4h.445v.803h-.445v.706h-.928v-.706zm1.889-2.182-.912 1.379h.912zm2.29 2.931a.58.58 0 0 1-.402-.141.48.48 0 0 1-.152-.358q0-.217.152-.364a.56.56 0 0 1 .401-.147q.24 0 .391.147a.48.48 0 0 1 .158.364.47.47 0 0 1-.158.358.55.55 0 0 1-.39.141m3.795-3.197h-1.694v.749a.8.8 0 0 1 .305-.196q.194-.076.423-.076.407 0 .673.185.272.184.396.478a1.6 1.6 0 0 1 .125.635q0 .635-.358 1.01-.358.369-1.01.369-.434 0-.754-.147a1.17 1.17 0 0 1-.494-.418 1.2 1.2 0 0 1-.19-.613h.906a.5.5 0 0 0 .158.282.5.5 0 0 0 .342.109q.254 0 .38-.163a.7.7 0 0 0 .125-.435q0-.266-.13-.407-.132-.141-.38-.141a.5.5 0 0 0-.305.092.4.4 0 0 0-.157.234h-.896v-2.362h2.535zm3.167.863v.771h-2.388v-.771zm3.513-.863h-1.694v.749a.8.8 0 0 1 .304-.196q.195-.076.424-.076.406 0 .673.185.27.184.396.478a1.6 1.6 0 0 1 .125.635q0 .635-.358 1.01-.36.369-1.01.369-.435 0-.755-.147a1.17 1.17 0 0 1-.494-.418 1.2 1.2 0 0 1-.19-.613h.907a.5.5 0 0 0 .157.282.5.5 0 0 0 .342.109q.255 0 .38-.163a.7.7 0 0 0 .125-.435q0-.266-.13-.407t-.38-.141a.5.5 0 0 0-.304.092.4.4 0 0 0-.158.234h-.895v-2.362h2.535zm1.267 3.197a.58.58 0 0 1-.402-.141.48.48 0 0 1-.152-.358q0-.217.152-.364a.56.56 0 0 1 .402-.147q.24 0 .39.147a.48.48 0 0 1 .158.364.47.47 0 0 1-.157.358.55.55 0 0 1-.391.141m3.796-3.197h-1.694v.749a.8.8 0 0 1 .304-.196q.195-.076.423-.076.408 0 .673.185.272.184.397.478.125.293.125.635 0 .635-.359 1.01-.358.369-1.01.369-.433 0-.754-.147a1.17 1.17 0 0 1-.494-.418 1.2 1.2 0 0 1-.19-.613h.907a.5.5 0 0 0 .157.282.5.5 0 0 0 .342.109q.255 0 .38-.163a.7.7 0 0 0 .125-.435q0-.266-.13-.407t-.38-.141a.5.5 0 0 0-.304.092.4.4 0 0 0-.158.234h-.895v-2.362h2.535zm1.793.054v-.863h1.503v3.963h-.966v-3.1zm2.139 1.064q0-.934.358-1.471.363-.537 1.167-.538.803 0 1.162.538.363.537.363 1.471 0 .945-.363 1.482-.359.537-1.162.537-.804 0-1.167-.537-.359-.537-.358-1.482m2.138 0q0-.549-.12-.841-.118-.299-.493-.299t-.494.299q-.12.292-.12.841 0 .37.044.613.044.24.174.391.135.147.396.147t.39-.147a.8.8 0 0 0 .18-.391q.043-.244.043-.613m2.255 1.14h-.934l1.314-2.926h.901l1.309 2.926h-.934l-.825-1.851zm4.956-1.998a.54.54 0 0 0-.152-.298q-.108-.103-.31-.103a.46.46 0 0 0-.444.271q-.136.266-.142.847a.8.8 0 0 1 .342-.299q.228-.108.5-.108.532 0 .852.336.326.338.326.939 0 .397-.163.695-.157.299-.467.467a1.5 1.5 0 0 1-.722.168q-.835 0-1.162-.521-.325-.527-.325-1.509 0-1.031.342-1.531.346-.505 1.107-.505.408 0 .684.163.282.158.424.418a1.4 1.4 0 0 1 .173.57zm-.429 1.043a.56.56 0 0 0-.39.141q-.153.135-.153.391 0 .26.142.407.146.146.412.146.24 0 .375-.141a.55.55 0 0 0 .141-.396.57.57 0 0 0-.136-.402q-.135-.147-.39-.146m4.087-3.306-1.455 6.172h-.896l1.455-6.172zm1.303 1.346v2.28q0 .342.168.526.169.185.494.185.326 0 .5-.185.174-.184.174-.526v-2.28h.928v2.274q0 .51-.217.864-.217.352-.587.532a1.8 1.8 0 0 1-.814.179q-.45 0-.809-.174a1.34 1.34 0 0 1-.559-.532q-.206-.358-.206-.869v-2.274zm3.844 3.094h1.216v.717h-2.144v-3.811h.928z"/></g><mask id="path-16-inside-1_334_254" fill="#fff"><path d="M14.421 209.248a9.143 9.143 0 1 1 18.287 0 9.143 9.143 0 0 1-18.287 0"/></mask><path fill="#e88f4a" fill-opacity=".1" d="M14.421 209.248a9.143 9.143 0 1 1 18.287 0 9.143 9.143 0 0 1-18.287 0"/><path fill="#e88f4a" fill-opacity=".2" d="M23.564 218.391v-.571a8.57 8.57 0 0 1-8.572-8.572H13.85c0 5.365 4.349 9.715 9.714 9.715zm9.143-9.143h-.572a8.57 8.57 0 0 1-8.571 8.572v1.143c5.365 0 9.714-4.35 9.714-9.715zm-9.143-9.143v.572a8.57 8.57 0 0 1 8.571 8.571h1.143c0-5.365-4.35-9.714-9.714-9.714zm0 0v-.571c-5.365 0-9.714 4.349-9.714 9.714h1.142a8.57 8.57 0 0 1 8.572-8.571z" mask="url(#path-16-inside-1_334_254)"/><g stroke="#b95042" stroke-linecap="round" stroke-linejoin="round" stroke-width=".833" clip-path="url(#clip3_334_254)"><path d="M23.564 212.583a3.334 3.334 0 1 0-.001-6.668 3.334 3.334 0 0 0 0 6.668m.001-4.667v1.333m0 1.334h.005"/></g><mask id="path-21-inside-2_334_254" fill="#fff"><path d="M56.448 206.605a6.5 6.5 0 0 1 6.5-6.5h29.259a6.5 6.5 0 0 1 0 13h-29.26a6.5 6.5 0 0 1-6.5-6.5"/></mask><path fill="#e88f4a" fill-opacity=".1" d="M56.448 206.605a6.5 6.5 0 0 1 6.5-6.5h29.259a6.5 6.5 0 0 1 0 13h-29.26a6.5 6.5 0 0 1-6.5-6.5"/><path fill="#e88f4a" fill-opacity=".2" d="M62.947 200.105v.572h29.26v-1.143h-29.26zm29.26 13v-.571h-29.26v1.143h29.26zm-29.26 0v-.571a5.93 5.93 0 0 1-5.928-5.929h-1.143a7.07 7.07 0 0 0 7.072 7.072zm35.76-6.5h-.572a5.93 5.93 0 0 1-5.928 5.929v1.143a7.07 7.07 0 0 0 7.071-7.072zm-6.5-6.5v.572a5.93 5.93 0 0 1 5.928 5.928h1.143a7.07 7.07 0 0 0-7.071-7.071zm-29.26 0v-.571a7.07 7.07 0 0 0-7.07 7.071h1.142a5.93 5.93 0 0 1 5.929-5.928z" mask="url(#path-21-inside-2_334_254)"/><path fill="#b95042" d="M63.956 206.214a.8.8 0 0 1 .476.297q.18.228.18.524 0 .428-.301.68-.297.248-.83.248h-1.59v-3.41h1.536q.52 0 .81.238a.79.79 0 0 1 .297.646.77.77 0 0 1-.578.777m-1.234-.281h.544q.204 0 .311-.088.112-.091.112-.267 0-.175-.112-.267-.107-.093-.31-.092h-.545zm.612 1.36q.21 0 .321-.093.117-.096.117-.277a.35.35 0 0 0-.122-.281.48.48 0 0 0-.325-.102h-.603v.753zm3.615.704q-.48 0-.884-.224a1.7 1.7 0 0 1-.636-.621 1.8 1.8 0 0 1-.233-.904q0-.5.233-.898.237-.399.636-.622.403-.223.884-.223.48 0 .88.223.402.223.63.622.234.398.234.898t-.233.904a1.66 1.66 0 0 1-.632.621 1.77 1.77 0 0 1-.879.224m0-.758q.408 0 .65-.272.249-.272.249-.719 0-.451-.248-.719-.243-.272-.651-.272-.413 0-.66.268-.244.267-.243.723 0 .452.242.724.249.267.661.267m4.188.724-.71-1.287h-.199v1.287h-.83v-3.41h1.394q.403 0 .684.141a.96.96 0 0 1 .428.389q.14.243.14.544 0 .34-.194.607a1.02 1.02 0 0 1-.563.379l.787 1.35zm-.909-1.875h.515q.228 0 .34-.112.117-.111.117-.315a.4.4 0 0 0-.117-.306q-.112-.112-.34-.112h-.515zm3.859-1.535q.538 0 .942.214.403.213.621.602.225.384.224.889 0 .5-.224.889-.218.389-.626.602a2 2 0 0 1-.937.214h-1.278v-3.41zm-.054 2.691q.471 0 .733-.257.263-.258.263-.729t-.263-.733-.733-.263h-.393v1.982zm3.379-2.025v.689h1.112v.641h-1.112v.748h1.257v.666h-2.088v-3.41h2.088v.666zm3.778 2.744-.709-1.287h-.199v1.287h-.83v-3.41h1.394q.403 0 .684.141a.96.96 0 0 1 .428.389q.14.243.14.544 0 .34-.194.607a1.02 1.02 0 0 1-.563.379l.787 1.35zm-.908-1.875h.515q.228 0 .34-.112.117-.111.117-.315a.4.4 0 0 0-.117-.306q-.112-.112-.34-.112h-.515zm3.412 1.234h1.087v.641h-1.918v-3.41h.83zm2.557-2.769v3.41h-.83v-3.41zm3.895 3.41h-.83l-1.39-2.103v2.103h-.83v-3.41h.83l1.39 2.113v-2.113h.83zm1.676-2.744v.689h1.112v.641h-1.112v.748h1.258v.666h-2.09v-3.41h2.089v.666z"/><defs><clipPath id="clip0_334_254"><path fill="#fff" d="M15.408 100.354h10.5v12h-10.5z"/></clipPath><clipPath id="clip1_334_254"><path fill="#fff" d="M16.426 224.095h84.286v10.214H16.426z"/></clipPath><clipPath id="clip2_334_254"><path fill="#fff" d="M16.426 236.595h84.286v6.786H16.426z"/></clipPath><clipPath id="clip3_334_254"><path fill="#fff" d="M19.564 205.248h8v8h-8z"/></clipPath></defs></svg>