<svg xmlns="http://www.w3.org/2000/svg" width="246" height="318" fill="none" viewBox="0 0 246 318"><path fill="#d9d9d9" fill-opacity=".2" d="M0 10C0 4.477 4.477 0 10 0h225.5c5.523 0 10 4.477 10 10v297.5c0 5.523-4.477 10-10 10H10c-5.523 0-10-4.477-10-10z"/><mask id="mask0_334_364" width="246" height="318" x="0" y="0" maskUnits="userSpaceOnUse" style="mask-type:alpha"><path fill="#d9d9d9" fill-opacity=".2" d="M0 10C0 4.477 4.477 0 10 0h225.5c5.523 0 10 4.477 10 10v297.5c0 5.523-4.477 10-10 10H10c-5.523 0-10-4.477-10-10z"/></mask><g mask="url(#mask0_334_364)"><g filter="url(#filter1_f_334_364)"><path fill="#558fe6" fill-opacity=".2" d="M-7 32.5C-7 13.446 8.446-2 27.5-2S62 13.446 62 32.5 46.554 67 27.5 67-7 51.554-7 32.5"/></g><path fill="#bcbcbc" fill-opacity=".7" d="M18.286 221.93q0 .393-.182.716a1.3 1.3 0 0 1-.54.505q-.352.188-.858.188h-.517v1.321h-1.303v-4.157h1.82q.764 0 1.169.387.41.387.41 1.04m-1.727.381q.405 0 .406-.381 0-.382-.406-.382h-.37v.763zm4.818 2.349-.781-1.491h-.006v1.491h-1.303v-4.157h1.937q.505 0 .864.182.357.175.534.487.182.306.182.693 0 .417-.235.74-.23.323-.663.464l.904 1.591zm-.787-2.361h.517q.188 0 .282-.082.094-.088.094-.27a.34.34 0 0 0-.1-.258q-.095-.094-.276-.094h-.517zm5.244 2.402q-.588 0-1.08-.276a2.07 2.07 0 0 1-.776-.763 2.1 2.1 0 0 1-.288-1.098q0-.61.288-1.098t.775-.758a2.2 2.2 0 0 1 1.08-.276q.588 0 1.075.276.488.27.77.758.287.488.287 1.098t-.287 1.098a2 2 0 0 1-.776.763 2.13 2.13 0 0 1-1.068.276m0-1.215q.387 0 .599-.247.21-.252.211-.675 0-.429-.211-.676-.21-.252-.6-.252-.393 0-.604.252-.212.247-.212.676 0 .423.212.675.21.246.605.247m6.454-2.983v1.033h-1.104v3.124H29.88v-3.124h-1.092v-1.033zm2.244 1.039v.511h1.292v.981h-1.292v.587H36v1.039h-2.77v-4.157H36v1.039zm3.85-1.039v4.157H37.08v-4.157zm5.164 4.157h-1.304l-1.38-2.09v2.09H39.56v-4.157h1.303l1.38 2.125v-2.125h1.304z"/><path fill="#cacaca" d="M19.334 235.457h-2.647v1.17q.17-.186.475-.305.306-.119.662-.119.636 0 1.052.288.424.289.619.747t.195.992q0 .993-.56 1.578-.56.577-1.578.577-.678 0-1.179-.229a1.84 1.84 0 0 1-.772-.653 1.9 1.9 0 0 1-.296-.959h1.416a.8.8 0 0 0 .246.441q.195.17.535.17.398 0 .593-.255.195-.254.195-.678 0-.415-.203-.636-.204-.22-.594-.221a.76.76 0 0 0-.475.144.64.64 0 0 0-.246.365h-1.4v-3.69h3.962zm.894 3.766q.289-.23.262-.212a31 31 0 0 0 1.307-1.129q.484-.441.814-.924t.33-.942q0-.347-.16-.542-.162-.196-.484-.196a.6.6 0 0 0-.509.246q-.177.238-.178.679h-1.4q.018-.721.306-1.204.297-.484.772-.713a2.46 2.46 0 0 1 1.069-.229q1.01 0 1.518.517.517.518.517 1.349 0 .908-.619 1.688-.62.772-1.578 1.51h2.29v1.179h-4.257zm6.627-3.639q.5 0 .873.203.382.204.586.535v-.67h1.45v4.724q0 .654-.263 1.179-.254.535-.789.849-.525.313-1.314.313-1.053 0-1.705-.5-.654-.492-.747-1.34h1.434a.67.67 0 0 0 .322.424q.255.16.628.161.45 0 .712-.263.272-.255.272-.823v-.67a1.64 1.64 0 0 1-.586.543q-.373.204-.873.204a1.96 1.96 0 0 1-1.06-.297 2.15 2.15 0 0 1-.756-.857q-.27-.56-.271-1.289 0-.73.271-1.281.28-.551.755-.848a1.96 1.96 0 0 1 1.06-.297m1.459 2.434q0-.543-.306-.856a.96.96 0 0 0-.73-.314 1 1 0 0 0-.737.314q-.297.305-.297.848t.297.865q.305.314.738.314a.97.97 0 0 0 .73-.314q.305-.314.305-.857"/><path fill="#bcbcbc" fill-opacity=".7" d="m35.579 234.144-1.749 7.419h-1.077l1.749-7.419zm4.783 2.271-1.638 3.928h-1.142l1.657-3.804H37.21v-.953h3.152zm.45 1.481q0-1.122.431-1.768.438-.646 1.403-.646t1.397.646q.437.646.437 1.768 0 1.136-.437 1.781-.431.646-1.397.646-.965 0-1.403-.646-.43-.645-.43-1.781m2.572 0q0-.659-.144-1.011-.144-.36-.594-.359-.45 0-.593.359-.144.353-.144 1.011 0 .444.052.737a1 1 0 0 0 .209.47q.163.176.476.176.315 0 .47-.176a.94.94 0 0 0 .215-.47q.053-.293.053-.737m3.18-1.246q.384 0 .672.156.293.157.45.411v-.515H48.8v3.634q0 .503-.202.907-.195.411-.607.653-.404.241-1.011.241-.81 0-1.312-.385a1.43 1.43 0 0 1-.574-1.031h1.103a.52.52 0 0 0 .248.326q.195.124.483.124.345 0 .548-.202.21-.195.209-.633v-.515a1.26 1.26 0 0 1-.45.417 1.4 1.4 0 0 1-.673.157q-.45 0-.815-.228a1.66 1.66 0 0 1-.58-.659 2.25 2.25 0 0 1-.21-.992q0-.561.21-.985.214-.425.58-.653a1.5 1.5 0 0 1 .815-.228m1.122 1.872q0-.417-.235-.659a.74.74 0 0 0-.561-.241.76.76 0 0 0-.568.241q-.228.235-.228.653 0 .417.228.665a.76.76 0 0 0 .568.242.74.74 0 0 0 .56-.242q.236-.241.236-.659"/><g clip-path="url(#clip0_334_364)"><mask id="path-7-inside-1_334_364" fill="#fff"><path d="M14.592 249.979c0-1.081.876-1.958 1.957-1.958h64.81a1.958 1.958 0 0 1 0 3.915H16.55a1.957 1.957 0 0 1-1.957-1.957"/></mask><path fill="#fff" fill-opacity=".5" d="M14.592 249.979c0-1.081.876-1.958 1.957-1.958h64.81a1.958 1.958 0 0 1 0 3.915H16.55a1.957 1.957 0 0 1-1.957-1.957"/><path fill="#5d5589" d="M15.245 249.979c0-.721.584-1.305 1.305-1.305h47.274a1.305 1.305 0 1 1 0 2.61H16.55a1.305 1.305 0 0 1-1.305-1.305"/></g><path fill="#fff" fill-opacity=".5" d="M16.549 248.021v.653h64.81v-1.305H16.55zm64.81 3.915v-.652H16.55v1.305h64.81zm-64.81 0v-.652c-.72 0-1.304-.584-1.304-1.305H13.94a2.61 2.61 0 0 0 2.61 2.61zm66.768-1.957h-.653c0 .721-.584 1.305-1.305 1.305v1.305a2.61 2.61 0 0 0 2.61-2.61zm-1.958-1.958v.653c.721 0 1.305.584 1.305 1.305h1.305a2.61 2.61 0 0 0-2.61-2.61zm-64.81 0v-.652a2.61 2.61 0 0 0-2.61 2.61h1.305c0-.721.585-1.305 1.305-1.305z" mask="url(#path-7-inside-1_334_364)"/><path fill="#bcbcbc" fill-opacity=".7" d="M14.75 258.498v-.933h1.627v4.287h-1.045v-3.354zm3.019 1.052q-.552-.294-.552-.922 0-.318.164-.576a1.1 1.1 0 0 1 .5-.417q.334-.158.822-.158t.816.158q.335.153.499.417.165.258.164.576 0 .317-.152.552-.147.234-.4.37.317.152.488.422.17.265.17.623 0 .417-.211.722-.211.3-.576.458a1.95 1.95 0 0 1-.799.159 2 2 0 0 1-.804-.159 1.34 1.34 0 0 1-.57-.458 1.24 1.24 0 0 1-.211-.722q0-.364.17-.628.17-.271.482-.417m1.439-.77q0-.24-.141-.37a.5.5 0 0 0-.364-.135.5.5 0 0 0-.37.135.5.5 0 0 0-.135.376.48.48 0 0 0 .14.364.52.52 0 0 0 .364.129q.224 0 .365-.135a.48.48 0 0 0 .14-.364m-.505 1.204a.64.64 0 0 0-.447.153.51.51 0 0 0-.17.411.54.54 0 0 0 .164.405.64.64 0 0 0 .453.159q.281 0 .44-.159a.54.54 0 0 0 .164-.405.53.53 0 0 0-.17-.411.6.6 0 0 0-.434-.153m3.514-1.456q.345 0 .605.141.263.14.405.37v-.464h1.004v3.271a1.8 1.8 0 0 1-.182.816q-.176.37-.546.587-.364.217-.91.217-.73 0-1.18-.346a1.3 1.3 0 0 1-.518-.928h.993a.47.47 0 0 0 .223.294.8.8 0 0 0 .435.111q.311 0 .493-.182.188-.176.188-.569v-.464a1.15 1.15 0 0 1-.405.376 1.24 1.24 0 0 1-.605.141q-.405 0-.734-.206a1.5 1.5 0 0 1-.523-.593 2 2 0 0 1-.188-.893q0-.505.188-.886.194-.383.523-.588t.734-.205m1.01 1.685q0-.375-.212-.593a.67.67 0 0 0-.505-.217q-.3 0-.51.217-.206.212-.206.587 0 .377.206.599.21.218.51.218t.505-.218q.212-.217.212-.593m3.98-1.092a1.3 1.3 0 0 1 .44-.423q.263-.159.587-.158v1.062h-.276q-.376 0-.564.165-.188.158-.188.564v1.521h-1.004v-3.277h1.004zm4.595 1.039q0 .141-.017.294h-2.273q.023.305.194.47.176.158.429.158.376 0 .522-.317h1.07a1.46 1.46 0 0 1-.3.582q-.212.258-.535.405a1.7 1.7 0 0 1-.722.147q-.482 0-.857-.206a1.46 1.46 0 0 1-.588-.587 1.8 1.8 0 0 1-.211-.893q0-.51.206-.892a1.46 1.46 0 0 1 .587-.588 1.8 1.8 0 0 1 .863-.205q.476 0 .846.199.37.2.575.57.211.37.211.863m-1.027-.264a.52.52 0 0 0-.176-.411.65.65 0 0 0-.44-.153.65.65 0 0 0-.43.147.66.66 0 0 0-.21.417zm5.738-1.356q.61 0 .97.37.363.37.363 1.027v1.915h-.998v-1.78q0-.317-.17-.487-.164-.176-.458-.176-.293 0-.464.176-.165.17-.165.487v1.78h-.998v-1.78q0-.317-.17-.487-.165-.176-.458-.176t-.464.176q-.165.17-.164.487v1.78h-1.005v-3.277h1.005v.411q.151-.206.399-.323.246-.123.558-.123.37 0 .657.158.294.16.458.452.171-.27.464-.44t.64-.17m1.836 1.667q0-.505.188-.886.194-.383.523-.588.328-.205.734-.205.345 0 .605.141.263.14.405.37v-.464h1.004v3.277h-1.004v-.464a1.1 1.1 0 0 1-.411.37 1.24 1.24 0 0 1-.605.141q-.4 0-.728-.206a1.5 1.5 0 0 1-.523-.593 2 2 0 0 1-.188-.893m2.455.006q0-.375-.212-.593a.67.67 0 0 0-.505-.217q-.3 0-.51.217-.206.212-.206.587 0 .377.205.599.212.218.511.218t.505-.218q.212-.217.212-.593m2.235-1.979a.63.63 0 0 1-.434-.152.52.52 0 0 1-.165-.388q0-.235.165-.388a.62.62 0 0 1 .434-.158q.259 0 .423.158.17.153.17.388a.51.51 0 0 1-.17.388.6.6 0 0 1-.423.152m.5.341v3.277h-1.005v-3.277zm2.724-.035q.576 0 .916.375.345.37.346 1.022v1.915h-.998v-1.78q0-.328-.17-.511a.6.6 0 0 0-.458-.182.6.6 0 0 0-.458.182q-.17.183-.17.511v1.78h-1.005v-3.277h1.004v.434q.154-.217.411-.34.26-.129.582-.129m2.465-.306a.63.63 0 0 1-.434-.152.52.52 0 0 1-.165-.388q0-.235.165-.388a.62.62 0 0 1 .434-.158q.258 0 .423.158.17.153.17.388a.51.51 0 0 1-.17.388.6.6 0 0 1-.423.152m.5.341v3.277h-1.005v-3.277zm2.724-.035q.575 0 .916.375.346.37.346 1.022v1.915h-.998v-1.78q0-.328-.17-.511a.6.6 0 0 0-.458-.182.6.6 0 0 0-.459.182q-.17.183-.17.511v1.78h-1.004v-3.277h1.004v.434q.153-.217.411-.34.258-.129.582-.129m3.205-.012q.346 0 .605.141.264.14.405.37v-.464h1.004v3.271a1.8 1.8 0 0 1-.182.816q-.176.37-.546.587-.364.217-.91.217-.73 0-1.18-.346a1.3 1.3 0 0 1-.517-.928h.992a.47.47 0 0 0 .223.294.8.8 0 0 0 .435.111q.311 0 .493-.182.188-.176.188-.569v-.464a1.15 1.15 0 0 1-.405.376 1.24 1.24 0 0 1-.605.141q-.405 0-.734-.206a1.5 1.5 0 0 1-.523-.593 2 2 0 0 1-.188-.893q0-.505.188-.886.195-.383.523-.588.33-.205.734-.205m1.01 1.685q0-.375-.211-.593a.67.67 0 0 0-.505-.217q-.3 0-.511.217-.206.212-.206.587 0 .377.206.599.21.218.51.218t.506-.218q.21-.217.211-.593m35.157-37.638q0-.616.246-1.098a1.8 1.8 0 0 1 .717-.745q.464-.271 1.092-.271.54 0 .963.206.429.2.693.57.27.37.358.863h-1.374a.7.7 0 0 0-.27-.317.67.67 0 0 0-.393-.118.63.63 0 0 0-.523.247q-.188.247-.188.663t.188.664q.194.246.523.247a.705.705 0 0 0 .663-.435h1.374a2.05 2.05 0 0 1-.358.863 1.8 1.8 0 0 1-.693.576q-.423.2-.963.2-.629 0-1.092-.265a1.84 1.84 0 0 1-.717-.751 2.4 2.4 0 0 1-.246-1.099m7.792 1.457h-1.386l-.205.628h-1.369l1.521-4.157h1.504l1.515 4.157h-1.374zm-.317-.981-.376-1.157-.376 1.157zm4.871 1.609-.781-1.491h-.006v1.491h-1.304v-4.157h1.938q.505 0 .863.182a1.2 1.2 0 0 1 .535.487q.182.306.182.693 0 .417-.235.74-.23.323-.664.464l.904 1.591zm-.787-2.361h.516q.189 0 .282-.082.094-.088.094-.27a.34.34 0 0 0-.1-.258q-.093-.094-.276-.094h-.516zm6.001.229q.375.089.581.365.212.27.212.628 0 .546-.365.846-.357.293-1.033.293h-2.179v-4.157h2.12q.635 0 .998.276.365.276.365.804a1 1 0 0 1-.194.617.9.9 0 0 1-.505.328m-1.48-.405h.505q.176 0 .258-.07.088-.071.088-.217 0-.153-.088-.224-.082-.076-.258-.076h-.505zm.593 1.492q.176 0 .258-.065.089-.07.089-.223 0-.3-.347-.299h-.593v.587zm4.331 1.086q-.745 0-1.233-.346-.482-.353-.522-1.028h1.385q.03.358.318.358.105 0 .176-.047.076-.053.076-.158 0-.147-.158-.235a3 3 0 0 0-.494-.211 6 6 0 0 1-.663-.276 1.3 1.3 0 0 1-.447-.394q-.188-.258-.182-.664 0-.405.206-.687.212-.287.57-.434.363-.147.816-.147.764 0 1.209.352.452.353.476.993h-1.403q-.007-.177-.088-.253a.28.28 0 0 0-.2-.076q-.082 0-.135.059-.053.053-.053.152 0 .142.153.235.158.088.499.218.393.146.646.281.258.136.446.376a.96.96 0 0 1 .188.605q0 .382-.188.687-.187.3-.546.47-.358.17-.852.17"/><path fill="#cacaca" d="M91.375 235.541v-1.348h2.35v6.192h-1.51v-4.844zm6.192.323q-.068-.315-.237-.467-.17-.16-.484-.161-.483 0-.695.424-.213.415-.221 1.323.187-.297.534-.466.357-.17.78-.17.833 0 1.332.526.51.526.51 1.468 0 .618-.255 1.085a1.75 1.75 0 0 1-.73.73q-.474.263-1.128.263-1.306 0-1.815-.815-.51-.822-.509-2.358 0-1.61.535-2.392.543-.789 1.73-.789.636 0 1.069.255.44.246.661.653.229.407.272.891zm-.67 1.628a.88.88 0 0 0-.61.221q-.238.212-.238.611 0 .406.22.636.23.228.645.229.373 0 .585-.221.22-.228.22-.619 0-.399-.211-.628-.212-.228-.611-.229m2.797-.288q0-1.46.56-2.299.567-.84 1.823-.84 1.255 0 1.816.84.567.84.568 2.299 0 1.476-.568 2.316-.56.839-1.816.839t-1.823-.839q-.56-.84-.56-2.316m3.342 0q0-.856-.187-1.315-.186-.466-.772-.466-.585 0-.772.466-.186.459-.186 1.315 0 .577.068.958.067.374.271.611.212.23.619.229.407 0 .611-.229.212-.237.28-.611.068-.381.068-.958m3.922-1.62q.5 0 .873.203.382.204.585.535v-.67h1.451v4.724a2.6 2.6 0 0 1-.263 1.179q-.255.535-.789.849-.526.313-1.315.313-1.051 0-1.705-.5-.653-.492-.746-1.34h1.434a.67.67 0 0 0 .322.424q.254.16.628.161.449 0 .712-.263.271-.255.271-.823v-.67a1.6 1.6 0 0 1-.585.543q-.373.204-.873.204a1.96 1.96 0 0 1-1.061-.297 2.16 2.16 0 0 1-.755-.857q-.271-.56-.271-1.289 0-.73.271-1.281a2.1 2.1 0 0 1 .755-.848 1.96 1.96 0 0 1 1.061-.297m1.458 2.434q0-.543-.305-.856a.96.96 0 0 0-.729-.314 1 1 0 0 0-.738.314q-.297.305-.297.848t.297.865a1 1 0 0 0 .738.314.97.97 0 0 0 .729-.314q.306-.314.305-.857"/><path fill="#bcbcbc" fill-opacity=".7" d="m115.691 234.144-1.749 7.419h-1.077l1.749-7.419zm1.703 5.305q.222-.177.202-.163.639-.53 1.005-.868.372-.339.626-.711.255-.372.255-.725 0-.267-.124-.417t-.372-.15a.47.47 0 0 0-.392.189q-.137.183-.137.522h-1.076q.013-.555.235-.926a1.4 1.4 0 0 1 .594-.549q.37-.176.822-.176.776 0 1.168.398.398.398.398 1.038 0 .698-.477 1.298a7 7 0 0 1-1.213 1.162h1.761v.907h-3.275zm3.767-1.553q0-1.122.43-1.768.437-.646 1.403-.646t1.396.646q.438.646.438 1.768 0 1.136-.438 1.781-.43.646-1.396.646t-1.403-.646q-.43-.645-.43-1.781m2.57 0q0-.659-.143-1.011-.144-.36-.594-.359-.45 0-.594.359-.143.353-.143 1.011 0 .444.052.737a.97.97 0 0 0 .209.47q.163.176.476.176t.47-.176a.94.94 0 0 0 .215-.47q.052-.293.052-.737m1.686 0q0-1.122.431-1.768.437-.646 1.403-.646.965 0 1.396.646.437.646.437 1.768 0 1.136-.437 1.781-.431.646-1.396.646-.966 0-1.403-.646-.43-.645-.431-1.781m2.571 0q0-.659-.144-1.011-.143-.36-.593-.359-.451 0-.594.359-.144.353-.144 1.011 0 .444.052.737a1 1 0 0 0 .209.47q.163.176.477.176t.469-.176a.94.94 0 0 0 .216-.47q.052-.293.052-.737m3.18-1.246q.384 0 .672.156.293.157.45.411v-.515h1.116v3.634q0 .503-.203.907-.195.411-.606.653-.405.241-1.012.241-.809 0-1.311-.385a1.43 1.43 0 0 1-.574-1.031h1.102a.52.52 0 0 0 .248.326.9.9 0 0 0 .483.124q.346 0 .548-.202.209-.195.209-.633v-.515a1.3 1.3 0 0 1-.45.417 1.4 1.4 0 0 1-.672.157q-.45 0-.816-.228a1.66 1.66 0 0 1-.581-.659 2.25 2.25 0 0 1-.208-.992q0-.561.208-.985.216-.425.581-.653.366-.228.816-.228m1.122 1.872q0-.417-.235-.659a.74.74 0 0 0-.561-.241.76.76 0 0 0-.568.241q-.228.235-.228.653 0 .417.228.665a.76.76 0 0 0 .568.242.74.74 0 0 0 .561-.242q.235-.241.235-.659"/><g clip-path="url(#clip1_334_364)"><mask id="path-14-inside-2_334_364" fill="#fff"><path d="M91.147 249.979c0-1.081.876-1.958 1.957-1.958h64.82a1.958 1.958 0 0 1 0 3.915h-64.82a1.957 1.957 0 0 1-1.957-1.957"/></mask><path fill="#fff" fill-opacity=".5" d="M91.147 249.979c0-1.081.876-1.958 1.957-1.958h64.82a1.958 1.958 0 0 1 0 3.915h-64.82a1.957 1.957 0 0 1-1.957-1.957"/><path fill="#558fe6" d="M91.8 249.979c0-.721.583-1.305 1.304-1.305h51.332a1.305 1.305 0 1 1 0 2.61H93.104c-.72 0-1.305-.584-1.305-1.305"/></g><path fill="#fff" fill-opacity=".5" d="M93.104 248.021v.653h64.82v-1.305h-64.82zm64.82 3.915v-.652h-64.82v1.305h64.82zm-64.82 0v-.652c-.72 0-1.305-.584-1.305-1.305h-1.305a2.61 2.61 0 0 0 2.61 2.61zm66.778-1.957h-.653c0 .721-.584 1.305-1.305 1.305v1.305a2.61 2.61 0 0 0 2.61-2.61zm-1.958-1.958v.653c.721 0 1.305.584 1.305 1.305h1.305a2.61 2.61 0 0 0-2.61-2.61zm-64.82 0v-.652a2.61 2.61 0 0 0-2.61 2.61H91.8c0-.721.584-1.305 1.305-1.305z" mask="url(#path-14-inside-2_334_364)"/><path fill="#bcbcbc" fill-opacity=".7" d="M91.434 261.088v-.81l1.856-2.655h1.122v2.596h.481v.869h-.481v.764h-1.005v-.764zm2.044-2.361-.987 1.492h.987zm1.907.922q0-1.01.388-1.591.393-.582 1.262-.581.87 0 1.257.581.393.582.393 1.591 0 1.023-.393 1.604-.388.58-1.257.581-.87 0-1.262-.581-.388-.581-.388-1.604m2.314 0q0-.592-.13-.91-.129-.323-.534-.323t-.534.323q-.13.318-.13.91 0 .4.047.664a.9.9 0 0 0 .188.423q.147.159.43.158.28 0 .422-.158a.85.85 0 0 0 .194-.423q.047-.264.047-.664m2.862-1.121q.346 0 .604.141.265.14.406.37v-.464h1.004v3.271q0 .452-.182.816-.177.37-.546.587-.365.217-.911.217-.727 0-1.18-.346a1.3 1.3 0 0 1-.517-.928h.993a.46.46 0 0 0 .223.294.8.8 0 0 0 .434.111q.312 0 .494-.182.188-.176.188-.569v-.464a1.14 1.14 0 0 1-.406.376 1.24 1.24 0 0 1-.604.141q-.406 0-.735-.206a1.5 1.5 0 0 1-.522-.593 2 2 0 0 1-.188-.893q0-.505.188-.886.194-.383.522-.588.33-.205.735-.205m1.01 1.685q0-.375-.212-.593a.67.67 0 0 0-.505-.217.7.7 0 0 0-.511.217q-.205.212-.205.587 0 .377.205.599a.7.7 0 0 0 .511.218q.3 0 .505-.218.212-.217.212-.593m3.979-1.092q.176-.27.44-.423.264-.159.588-.158v1.062h-.276q-.376 0-.564.165-.189.158-.188.564v1.521h-1.004v-3.277h1.004zm4.596 1.039q0 .141-.017.294h-2.273q.023.305.194.47a.62.62 0 0 0 .429.158q.375 0 .522-.317h1.069a1.5 1.5 0 0 1-.299.582q-.212.258-.535.405a1.7 1.7 0 0 1-.722.147q-.481 0-.858-.206a1.47 1.47 0 0 1-.587-.587 1.8 1.8 0 0 1-.211-.893q0-.51.205-.892a1.46 1.46 0 0 1 .588-.588q.375-.205.863-.205.476 0 .845.199.37.2.576.57.211.37.211.863m-1.027-.264a.52.52 0 0 0-.176-.411.65.65 0 0 0-.441-.153.65.65 0 0 0-.429.147.66.66 0 0 0-.211.417zm5.738-1.356q.61 0 .969.37.364.37.364 1.027v1.915h-.998v-1.78q0-.317-.17-.487-.165-.176-.458-.176t-.464.176q-.165.17-.165.487v1.78h-.998v-1.78q0-.317-.17-.487-.165-.176-.458-.176t-.464.176q-.165.17-.165.487v1.78h-1.004v-3.277h1.004v.411q.153-.206.4-.323a1.2 1.2 0 0 1 .557-.123q.37 0 .658.158.294.16.458.452a1.32 1.32 0 0 1 1.104-.61m1.836 1.667q0-.505.188-.886.194-.383.522-.588.33-.205.734-.205.347 0 .605.141.265.14.405.37v-.464h1.005v3.277h-1.005v-.464a1.1 1.1 0 0 1-.411.37 1.24 1.24 0 0 1-.604.141 1.35 1.35 0 0 1-.729-.206 1.5 1.5 0 0 1-.522-.593 2 2 0 0 1-.188-.893m2.454.006q0-.375-.211-.593a.67.67 0 0 0-.505-.217q-.3 0-.511.217-.205.212-.205.587 0 .377.205.599a.7.7 0 0 0 .511.218q.3 0 .505-.218.211-.217.211-.593m2.236-1.979a.63.63 0 0 1-.434-.152.52.52 0 0 1-.165-.388q0-.235.165-.388a.6.6 0 0 1 .434-.158q.258 0 .423.158a.5.5 0 0 1 .17.388.51.51 0 0 1-.17.388.6.6 0 0 1-.423.152m.499.341v3.277h-1.004v-3.277zm2.725-.035q.575 0 .916.375.346.37.346 1.022v1.915h-.998v-1.78q0-.328-.17-.511a.6.6 0 0 0-.458-.182.6.6 0 0 0-.459.182q-.17.183-.17.511v1.78h-1.004v-3.277h1.004v.434q.153-.217.411-.34.259-.129.582-.129m2.465-.306a.63.63 0 0 1-.435-.152.52.52 0 0 1-.164-.388q0-.235.164-.388a.62.62 0 0 1 .435-.158q.258 0 .423.158a.5.5 0 0 1 .17.388.51.51 0 0 1-.17.388.6.6 0 0 1-.423.152m.499.341v3.277h-1.004v-3.277zm2.724-.035q.576 0 .917.375.346.37.346 1.022v1.915h-.998v-1.78q0-.328-.171-.511a.6.6 0 0 0-.458-.182.6.6 0 0 0-.458.182q-.17.183-.17.511v1.78h-1.004v-3.277h1.004v.434q.153-.217.411-.34.258-.129.581-.129m3.206-.012q.346 0 .605.141.264.14.405.37v-.464h1.004v3.271q0 .452-.182.816-.177.37-.546.587-.364.217-.91.217-.728 0-1.181-.346a1.3 1.3 0 0 1-.517-.928h.993a.47.47 0 0 0 .223.294.8.8 0 0 0 .435.111q.31 0 .493-.182.188-.176.188-.569v-.464a1.15 1.15 0 0 1-.405.376 1.25 1.25 0 0 1-.605.141q-.405 0-.734-.206a1.5 1.5 0 0 1-.523-.593 2 2 0 0 1-.188-.893q0-.505.188-.886.193-.383.523-.588.329-.205.734-.205m1.01 1.685q0-.375-.212-.593a.67.67 0 0 0-.505-.217.7.7 0 0 0-.511.217q-.205.212-.205.587 0 .377.205.599a.7.7 0 0 0 .511.218q.3 0 .505-.218.212-.217.212-.593m36.43-39.71v1.033h-1.632v.576h1.174v.98h-1.174v1.568h-1.304v-4.157zm3.695 3.529h-1.386l-.205.628h-1.369l1.521-4.157h1.504l1.515 4.157h-1.375zm-.317-.981-.376-1.157-.376 1.157zm6.045-2.548v1.033h-1.104v3.124h-1.304v-3.124h-1.092v-1.033zm2.567 4.198q-.745 0-1.233-.346-.481-.353-.522-1.028h1.386q.029.358.317.358.105 0 .176-.047.076-.053.076-.158 0-.147-.158-.235a3 3 0 0 0-.494-.211 6 6 0 0 1-.663-.276 1.3 1.3 0 0 1-.447-.394q-.188-.258-.182-.664 0-.405.206-.687.212-.287.57-.434.363-.147.816-.147.763 0 1.21.352.452.353.475.993h-1.403q-.006-.177-.088-.253a.28.28 0 0 0-.2-.076q-.083 0-.135.059-.053.053-.053.152 0 .142.153.235.158.088.499.218.393.146.646.281.258.136.446.376a.96.96 0 0 1 .188.605q0 .382-.188.687-.187.3-.546.47t-.852.17"/><path fill="#cacaca" d="M168.127 239.282v-1.17l2.68-3.834h1.62v3.749h.696v1.255h-.696v1.103h-1.45v-1.103zm2.952-3.41-1.426 2.155h1.426zm2.542 1.332q0-1.46.56-2.299.569-.84 1.824-.84t1.815.84q.568.84.568 2.299 0 1.476-.568 2.316-.56.839-1.815.839t-1.824-.839q-.56-.84-.56-2.316m3.342 0q0-.856-.186-1.315-.187-.466-.772-.466-.586 0-.772.466-.187.459-.187 1.315 0 .577.068.958.068.374.271.611.213.23.62.229.407 0 .61-.229.213-.237.28-.611.069-.381.068-.958m3.922-1.62q.5 0 .874.203.381.204.585.535v-.67h1.45v4.724q0 .654-.263 1.179a1.93 1.93 0 0 1-.788.849q-.526.313-1.315.313-1.052 0-1.705-.5-.653-.492-.747-1.34h1.434a.67.67 0 0 0 .322.424q.255.16.628.161.45 0 .712-.263.272-.255.272-.823v-.67a1.65 1.65 0 0 1-.585.543q-.373.204-.874.204-.585 0-1.06-.297a2.14 2.14 0 0 1-.755-.857 2.9 2.9 0 0 1-.272-1.289q0-.73.272-1.281.28-.551.755-.848.474-.297 1.06-.297m1.459 2.434q0-.543-.306-.856a.96.96 0 0 0-.729-.314 1 1 0 0 0-.738.314q-.297.305-.297.848t.297.865q.306.314.738.314a.96.96 0 0 0 .729-.314q.306-.314.306-.857"/><path fill="#bcbcbc" fill-opacity=".7" d="m189.614 234.144-1.748 7.419h-1.077l1.749-7.419zm5.097 2.408h-2.036v.9a.96.96 0 0 1 .365-.235q.236-.091.509-.091.49 0 .809.222.327.222.477.574t.15.763q0 .764-.431 1.214-.43.444-1.214.444-.522 0-.907-.176a1.4 1.4 0 0 1-.593-.503 1.45 1.45 0 0 1-.229-.737h1.09a.6.6 0 0 0 .189.339q.15.13.411.131.307 0 .457-.196t.15-.522q0-.32-.157-.489-.156-.17-.456-.17a.58.58 0 0 0-.366.111.5.5 0 0 0-.189.28h-1.076v-2.838h3.047zm4.243 0h-2.035v.9a.95.95 0 0 1 .365-.235 1.4 1.4 0 0 1 .509-.091q.49 0 .809.222a1.3 1.3 0 0 1 .476.574q.15.352.15.763 0 .764-.43 1.214-.43.444-1.214.444-.522 0-.907-.176a1.4 1.4 0 0 1-.594-.503 1.45 1.45 0 0 1-.228-.737h1.09a.6.6 0 0 0 .189.339q.15.13.411.131.306 0 .457-.196.15-.196.15-.522 0-.32-.157-.489-.156-.17-.457-.17a.58.58 0 0 0-.365.111.48.48 0 0 0-.189.28h-1.077v-2.838h3.047zm2.384.098q.386 0 .672.156.294.157.451.411v-.515h1.115v3.634q0 .503-.202.907-.196.411-.607.653-.404.241-1.011.241-.81 0-1.311-.385a1.43 1.43 0 0 1-.575-1.031h1.103a.52.52 0 0 0 .248.326.9.9 0 0 0 .483.124q.345 0 .548-.202.209-.195.209-.633v-.515a1.26 1.26 0 0 1-.451.417 1.4 1.4 0 0 1-.672.157q-.45 0-.815-.228a1.66 1.66 0 0 1-.581-.659 2.25 2.25 0 0 1-.209-.992q0-.561.209-.985.215-.425.581-.653.365-.228.815-.228m1.123 1.872q0-.417-.235-.659a.74.74 0 0 0-.561-.241.76.76 0 0 0-.568.241q-.228.235-.228.653 0 .417.228.665a.76.76 0 0 0 .568.242.74.74 0 0 0 .561-.242q.234-.241.235-.659"/><g clip-path="url(#clip2_334_364)"><mask id="path-21-inside-3_334_364" fill="#fff"><path d="M167.711 249.979c0-1.081.877-1.958 1.958-1.958h64.81a1.958 1.958 0 0 1 0 3.915h-64.81a1.96 1.96 0 0 1-1.958-1.957"/></mask><path fill="#fff" fill-opacity=".5" d="M167.711 249.979c0-1.081.877-1.958 1.958-1.958h64.81a1.958 1.958 0 0 1 0 3.915h-64.81a1.96 1.96 0 0 1-1.958-1.957"/><path fill="#69a38d" d="M168.364 249.979c0-.721.584-1.305 1.305-1.305h45.928a1.305 1.305 0 1 1 0 2.61h-45.928a1.305 1.305 0 0 1-1.305-1.305"/></g><path fill="#fff" fill-opacity=".5" d="M169.669 248.021v.653h64.81v-1.305h-64.81zm64.81 3.915v-.652h-64.81v1.305h64.81zm-64.81 0v-.652a1.305 1.305 0 0 1-1.305-1.305h-1.305a2.61 2.61 0 0 0 2.61 2.61zm66.767-1.957h-.652c0 .721-.585 1.305-1.305 1.305v1.305a2.61 2.61 0 0 0 2.61-2.61zm-1.957-1.958v.653c.72 0 1.305.584 1.305 1.305h1.305a2.61 2.61 0 0 0-2.61-2.61zm-64.81 0v-.652a2.61 2.61 0 0 0-2.61 2.61h1.305c0-.721.584-1.305 1.305-1.305z" mask="url(#path-21-inside-3_334_364)"/><path fill="#bcbcbc" fill-opacity=".7" d="M167.87 258.498v-.933h1.626v4.287h-1.045v-3.354zm5.332-.058h-1.832v.81a.86.86 0 0 1 .328-.211q.212-.083.459-.083.44 0 .728.2.293.2.428.517t.135.687q0 .687-.387 1.092-.388.4-1.092.4-.47 0-.817-.159a1.27 1.27 0 0 1-.534-.452 1.3 1.3 0 0 1-.206-.664h.981q.036.182.17.306.135.117.37.117.276 0 .411-.176a.75.75 0 0 0 .136-.47q0-.288-.141-.44t-.411-.153a.52.52 0 0 0-.329.1.44.44 0 0 0-.171.252h-.969v-2.554h2.743zm2.146.088q.346 0 .604.141.265.14.406.37v-.464h1.004v3.271q0 .452-.182.816-.177.37-.546.587-.365.217-.911.217-.728 0-1.18-.346a1.3 1.3 0 0 1-.517-.928h.993a.46.46 0 0 0 .223.294.8.8 0 0 0 .434.111q.312 0 .494-.182.188-.176.188-.569v-.464a1.14 1.14 0 0 1-.406.376 1.24 1.24 0 0 1-.604.141 1.36 1.36 0 0 1-.735-.206 1.5 1.5 0 0 1-.522-.593 2 2 0 0 1-.188-.893q0-.505.188-.886.193-.383.522-.588a1.36 1.36 0 0 1 .735-.205m1.01 1.685q0-.375-.212-.593a.67.67 0 0 0-.505-.217q-.3 0-.511.217-.205.212-.205.587 0 .377.205.599a.7.7 0 0 0 .511.218q.3 0 .505-.218.212-.217.212-.593m3.979-1.092q.176-.27.44-.423.264-.159.587-.158v1.062h-.276q-.375 0-.563.165-.188.158-.188.564v1.521h-1.004v-3.277h1.004zm4.596 1.039q0 .141-.017.294h-2.273q.024.305.194.47a.62.62 0 0 0 .429.158q.375 0 .522-.317h1.069a1.46 1.46 0 0 1-.3.582q-.21.258-.534.405a1.7 1.7 0 0 1-.722.147q-.481 0-.858-.206a1.47 1.47 0 0 1-.587-.587 1.8 1.8 0 0 1-.211-.893q0-.51.205-.892a1.46 1.46 0 0 1 .588-.588q.375-.205.863-.205.476 0 .845.199.37.2.576.57.211.37.211.863m-1.027-.264a.52.52 0 0 0-.177-.411.65.65 0 0 0-.44-.153.65.65 0 0 0-.429.147.66.66 0 0 0-.211.417zm5.738-1.356q.61 0 .969.37.364.37.364 1.027v1.915h-.998v-1.78q0-.317-.17-.487-.165-.176-.458-.176t-.464.176q-.165.17-.165.487v1.78h-.998v-1.78q0-.317-.17-.487-.165-.176-.458-.176t-.464.176q-.165.17-.165.487v1.78h-1.004v-3.277h1.004v.411q.153-.206.4-.323a1.2 1.2 0 0 1 .557-.123q.37 0 .658.158.294.16.458.452a1.32 1.32 0 0 1 1.104-.61m1.836 1.667q0-.505.188-.886.193-.383.522-.588.33-.205.734-.205.347 0 .605.141.264.14.405.37v-.464h1.005v3.277h-1.005v-.464a1.1 1.1 0 0 1-.411.37 1.24 1.24 0 0 1-.604.141 1.35 1.35 0 0 1-.729-.206 1.5 1.5 0 0 1-.522-.593 2 2 0 0 1-.188-.893m2.454.006q0-.375-.211-.593a.67.67 0 0 0-.505-.217q-.3 0-.511.217-.205.212-.205.587 0 .377.205.599a.7.7 0 0 0 .511.218q.3 0 .505-.218.211-.217.211-.593m2.236-1.979a.63.63 0 0 1-.434-.152.52.52 0 0 1-.165-.388q0-.235.165-.388a.6.6 0 0 1 .434-.158q.258 0 .423.158a.5.5 0 0 1 .17.388.51.51 0 0 1-.17.388.6.6 0 0 1-.423.152m.499.341v3.277h-1.004v-3.277zm2.725-.035q.575 0 .916.375.346.37.346 1.022v1.915h-.998v-1.78q0-.328-.17-.511a.6.6 0 0 0-.459-.182.6.6 0 0 0-.458.182q-.17.183-.17.511v1.78h-1.004v-3.277h1.004v.434q.153-.217.411-.34.258-.129.582-.129m2.465-.306a.63.63 0 0 1-.435-.152.52.52 0 0 1-.164-.388q0-.235.164-.388a.62.62 0 0 1 .435-.158q.258 0 .423.158a.5.5 0 0 1 .17.388.51.51 0 0 1-.17.388.6.6 0 0 1-.423.152m.499.341v3.277h-1.004v-3.277zm2.724-.035q.576 0 .916.375.347.37.347 1.022v1.915h-.998v-1.78q0-.328-.171-.511a.6.6 0 0 0-.458-.182.6.6 0 0 0-.458.182q-.17.183-.17.511v1.78h-1.004v-3.277h1.004v.434q.153-.217.411-.34.258-.129.581-.129m3.206-.012q.346 0 .605.141.264.14.405.37v-.464h1.004v3.271q0 .452-.182.816-.177.37-.546.587-.364.217-.911.217-.727 0-1.18-.346a1.3 1.3 0 0 1-.517-.928h.993a.47.47 0 0 0 .223.294.8.8 0 0 0 .435.111q.31 0 .493-.182.188-.176.188-.569v-.464a1.15 1.15 0 0 1-.405.376 1.25 1.25 0 0 1-.605.141q-.405 0-.734-.206a1.5 1.5 0 0 1-.523-.593 2 2 0 0 1-.188-.893q0-.505.188-.886.193-.383.523-.588.329-.205.734-.205m1.01 1.685q0-.375-.212-.593a.67.67 0 0 0-.505-.217.7.7 0 0 0-.511.217q-.205.212-.205.587 0 .377.205.599a.7.7 0 0 0 .511.218q.3 0 .505-.218.212-.217.212-.593"/></g><g filter="url(#filter2_i_334_364)"><mask id="path-25-inside-4_334_364" fill="#fff"><path d="M10.982 158.917a4.51 4.51 0 0 1 4.509-4.509h209.982a4.51 4.51 0 0 1 0 9.018H15.491a4.51 4.51 0 0 1-4.51-4.509"/></mask><path fill="#fff" fill-opacity=".5" d="M10.982 158.917a4.51 4.51 0 0 1 4.509-4.509h209.982a4.51 4.51 0 0 1 0 9.018H15.491a4.51 4.51 0 0 1-4.51-4.509"/><path fill="#fff" fill-opacity=".5" d="M15.491 154.408v.644h209.982v-1.288H15.491zm209.982 9.018v-.644H15.491v1.288h209.982zm-209.982 0v-.644a3.865 3.865 0 0 1-3.865-3.865h-1.288a5.153 5.153 0 0 0 5.153 5.153zm214.491-4.509h-.644a3.865 3.865 0 0 1-3.865 3.865v1.288a5.153 5.153 0 0 0 5.153-5.153zm-4.509-4.509v.644a3.865 3.865 0 0 1 3.865 3.865h1.288a5.153 5.153 0 0 0-5.153-5.153zm-209.982 0v-.644a5.153 5.153 0 0 0-5.153 5.153h1.288a3.865 3.865 0 0 1 3.865-3.865z" mask="url(#path-25-inside-4_334_364)"/><g clip-path="url(#clip3_334_364)"><path fill="#69a372" d="M11.626 158.917a3.864 3.864 0 0 1 3.865-3.864h162.076a3.865 3.865 0 1 1 0 7.729H15.491a3.865 3.865 0 0 1-3.865-3.865"/><path fill="#fff" fill-opacity=".1" d="M11.626 155.053h169.806v7.729H11.626z"/></g></g><path fill="#dadadc" d="M17.74 47.796q.927 0 1.622.367.694.368 1.07 1.037.385.66.385 1.53 0 .862-.385 1.531-.375.67-1.079 1.037-.693.368-1.614.368H15.54v-5.87zm-.093 4.632q.812 0 1.263-.443.452-.442.452-1.254 0-.811-.452-1.263-.451-.452-1.263-.452h-.677v3.412zm3.685-1.103q0-.72.267-1.263.276-.544.744-.837.469-.292 1.046-.292.493 0 .861.2.376.201.577.527V49h1.43v4.666h-1.43v-.66q-.21.325-.585.526-.369.2-.862.2-.568 0-1.037-.292-.468-.3-.744-.844-.267-.552-.267-1.271m3.495.008q0-.536-.3-.845a.95.95 0 0 0-.72-.31.98.98 0 0 0-.728.31q-.292.3-.292.837 0 .534.292.852.302.31.728.31a.95.95 0 0 0 .72-.31q.3-.309.3-.844m3.184-2.818a.9.9 0 0 1-.619-.218.74.74 0 0 1-.234-.552.72.72 0 0 1 .234-.552.87.87 0 0 1 .619-.225q.368 0 .602.225a.7.7 0 0 1 .242.552q0 .327-.242.552a.85.85 0 0 1-.602.218m.71.485v4.666h-1.43V49zm2.467-1.522v6.188h-1.43v-6.188zM36.99 49l-2.927 6.882h-1.539l1.07-2.375L31.698 49h1.598l1.078 2.918L35.443 49zm2.047 1.722q0-.87.376-1.547.376-.685 1.045-1.062a3.04 3.04 0 0 1 1.53-.384q1.047 0 1.79.552.744.551.995 1.505h-1.572a1.26 1.26 0 0 0-.502-.56 1.4 1.4 0 0 0-.727-.193q-.66 0-1.07.46t-.41 1.23q0 .768.41 1.229.41.46 1.07.46.41 0 .727-.193.327-.192.502-.56h1.572q-.25.953-.995 1.505-.744.544-1.79.544a3.1 3.1 0 0 1-1.53-.377 2.73 2.73 0 0 1-1.045-1.062q-.376-.677-.376-1.547m6.328.602q0-.719.267-1.262.276-.544.745-.837t1.045-.292q.493 0 .861.2.377.201.577.527V49h1.43v4.666h-1.43v-.66q-.21.325-.585.526-.368.2-.861.2-.57 0-1.037-.292-.468-.3-.745-.844-.267-.552-.267-1.271m3.495.009q0-.536-.3-.845a.95.95 0 0 0-.72-.31.98.98 0 0 0-.727.31q-.294.3-.293.837 0 .534.293.852.3.31.727.31a.95.95 0 0 0 .72-.31q.3-.309.3-.844m3.895-3.855v6.188h-1.43v-6.188zm3.16 6.255a2.6 2.6 0 0 1-1.237-.293 2.2 2.2 0 0 1-.862-.836q-.31-.543-.31-1.271 0-.72.319-1.263.316-.552.87-.845a2.6 2.6 0 0 1 1.237-.292 2.6 2.6 0 0 1 1.238.292q.551.294.87.845.317.543.317 1.263t-.326 1.271a2.15 2.15 0 0 1-.878.836 2.6 2.6 0 0 1-1.238.293m0-1.238q.41 0 .694-.3.293-.303.293-.862 0-.56-.284-.861a.9.9 0 0 0-.686-.302q-.418 0-.694.301-.276.294-.276.862 0 .56.267.861.276.3.686.301m4.63-2.718q.252-.384.628-.602.376-.225.836-.225v1.513h-.393q-.535 0-.803.234-.267.225-.267.803v2.166h-1.43V49h1.43zm2.867-1.262a.9.9 0 0 1-.619-.218.74.74 0 0 1-.234-.552.72.72 0 0 1 .234-.552.87.87 0 0 1 .619-.225q.368 0 .602.225a.7.7 0 0 1 .242.552q0 .327-.242.552a.85.85 0 0 1-.602.218m.71.485v4.666h-1.43V49zm5.436 2.258q0 .2-.025.418h-3.237q.034.435.276.669a.88.88 0 0 0 .61.226q.536 0 .745-.452h1.522q-.117.46-.427.828-.3.368-.76.577-.46.21-1.03.209-.684 0-1.22-.293a2.1 2.1 0 0 1-.836-.836q-.301-.543-.301-1.271t.292-1.271q.301-.544.837-.837a2.5 2.5 0 0 1 1.229-.292q.678 0 1.204.284.526.285.82.811.3.527.3 1.23m-1.464-.377a.74.74 0 0 0-.25-.585.92.92 0 0 0-.628-.218q-.36 0-.61.21-.243.209-.301.593zm5.42-3.086v5.871h-1.43v-5.87zm3.88 1.154q.82 0 1.304.536.495.526.494 1.455v2.726H77.77v-2.534q0-.469-.242-.727-.243-.26-.653-.26t-.652.26-.243.727v2.534h-1.43V49h1.43v.618q.217-.308.586-.485.368-.184.828-.184m5.392 3.504v1.213h-.727q-.778 0-1.213-.376-.435-.385-.435-1.246v-1.857h-.568V49h.568v-1.138h1.43V49h.937v1.187h-.937v1.873q0 .21.1.301.101.093.335.092zm.512-1.129q0-.719.268-1.262.276-.544.744-.837t1.046-.292q.494 0 .86.2.377.201.578.527V49h1.43v4.666h-1.43v-.66q-.21.325-.585.526-.369.2-.862.2-.568 0-1.037-.292-.468-.3-.744-.844-.267-.552-.268-1.271m3.496.009q0-.536-.301-.845a.95.95 0 0 0-.72-.31.98.98 0 0 0-.727.31q-.293.3-.293.837 0 .534.293.852.3.31.728.31a.95.95 0 0 0 .719-.31q.3-.309.301-.844m5.316 2.333-1.422-1.957v1.957h-1.43v-6.188h1.43v3.42L92.104 49h1.764l-1.94 2.341 1.957 2.325zm6.717-2.408q0 .2-.026.418h-3.236q.033.435.276.669a.88.88 0 0 0 .61.226q.537 0 .745-.452h1.522a2.06 2.06 0 0 1-.427.828q-.3.368-.76.577-.46.21-1.03.209-.684 0-1.22-.293a2.1 2.1 0 0 1-.836-.836q-.301-.543-.301-1.271t.292-1.271q.302-.544.837-.837a2.5 2.5 0 0 1 1.229-.292q.677 0 1.204.284.527.285.82.811.3.527.3 1.23m-1.464-.377a.74.74 0 0 0-.25-.585.92.92 0 0 0-.628-.218q-.36 0-.61.21-.243.209-.301.593z"/><path fill="#cacaca" d="M15.577 68.245v-3.273h5.702V80h-3.664V68.245zm7.678 9.078v-2.84l6.505-9.305h3.931v9.099h1.688v3.046h-1.688v2.676h-3.52v-2.676zm7.163-8.275-3.458 5.228h3.458zm6.047 8.13q.7-.555.638-.514 2.018-1.667 3.17-2.737a13 13 0 0 0 1.977-2.244q.803-1.173.803-2.285 0-.844-.392-1.317-.39-.474-1.173-.474-.782 0-1.235.597-.432.576-.432 1.647h-3.397q.042-1.75.741-2.923.72-1.173 1.873-1.73 1.174-.555 2.594-.555 2.45 0 3.685 1.255 1.255 1.257 1.255 3.273 0 2.203-1.502 4.097-1.503 1.873-3.829 3.664h5.558v2.861H36.465zm11.37-4.898q0-3.54 1.358-5.579 1.38-2.037 4.425-2.038 3.047 0 4.405 2.038 1.38 2.038 1.38 5.579 0 3.581-1.38 5.62-1.358 2.037-4.405 2.037-3.046 0-4.425-2.038-1.359-2.037-1.359-5.62m8.11 0q0-2.08-.453-3.19-.453-1.133-1.874-1.133-1.42 0-1.873 1.132-.453 1.112-.453 3.19 0 1.401.165 2.327.165.906.659 1.482.515.556 1.502.556.99 0 1.482-.556.516-.576.68-1.482.164-.927.164-2.326"/><path fill="#bcbcbc" fill-opacity=".7" d="m66.962 70.041-2.779 11.61h-1.41l2.779-11.61zm3.259 3.572v-1.328h2.48v7.503h-1.482v-6.175zm5.16 2.202q-1.03-.535-1.03-1.657 0-.556.278-1.008.288-.464.854-.731.575-.278 1.4-.278.823 0 1.39.278.576.267.854.73.288.453.288 1.01 0 .565-.278.997-.278.422-.741.66.566.246.885.72.32.473.32 1.122 0 .699-.361 1.224a2.26 2.26 0 0 1-.968.793 3.35 3.35 0 0 1-1.39.278q-.771 0-1.389-.278a2.35 2.35 0 0 1-.967-.793 2.16 2.16 0 0 1-.35-1.224q0-.65.319-1.122.32-.484.885-.72m2.634-1.451q0-.504-.309-.782-.298-.278-.823-.278-.515 0-.823.278-.3.278-.299.792 0 .464.309.741.32.279.813.278.494 0 .813-.278a.97.97 0 0 0 .319-.751m-1.132 2.08q-.587 0-.957.297-.36.3-.36.855 0 .514.35.844.36.32.967.319.608 0 .957-.33.35-.33.35-.833 0-.546-.36-.844-.36-.309-.947-.309m3.855-.505q0-1.78.638-2.79.649-1.008 2.141-1.008 1.493 0 2.13 1.008.65 1.01.65 2.79 0 1.79-.65 2.81-.638 1.019-2.13 1.019t-2.14-1.02q-.639-1.018-.639-2.81m4.138 0q0-.762-.103-1.276-.093-.525-.391-.855-.288-.33-.865-.33-.576 0-.875.33-.288.33-.39.854a7.4 7.4 0 0 0-.093 1.277q0 .782.092 1.317.093.525.391.854.299.32.875.32t.875-.32q.299-.33.391-.854.093-.536.093-1.317m2.516 0q0-1.78.638-2.79.648-1.008 2.141-1.008t2.13 1.008q.65 1.01.649 2.79 0 1.79-.648 2.81-.639 1.019-2.131 1.019-1.493 0-2.14-1.02-.639-1.018-.639-2.81m4.138 0q0-.762-.103-1.276-.093-.525-.392-.855-.288-.33-.864-.33t-.875.33q-.288.33-.391.854a7.4 7.4 0 0 0-.093 1.277q0 .782.093 1.317.093.525.391.854.299.32.875.32t.875-.32q.3-.33.39-.854.094-.536.094-1.317"/><path fill="#cacaca" d="m185.632 71.019-2.583 6.196h-1.801l2.614-6h-3.201v-1.503h4.971zm1.69 2.161q-.968-.515-.968-1.616 0-.555.289-1.008.288-.465.874-.731.588-.278 1.441-.278.855 0 1.431.278.587.267.875.73.288.454.288 1.01 0 .555-.268.967-.257.411-.699.648.555.269.854.741.298.465.298 1.091 0 .731-.37 1.266a2.35 2.35 0 0 1-1.009.803 3.4 3.4 0 0 1-1.4.278q-.771 0-1.41-.278a2.37 2.37 0 0 1-.998-.803q-.37-.535-.371-1.266 0-.638.299-1.101.298-.475.844-.73m2.522-1.348q0-.422-.247-.648-.237-.237-.639-.237-.4 0-.648.236-.237.237-.237.66 0 .401.247.637.248.227.638.227a.9.9 0 0 0 .639-.237q.246-.237.247-.638m-.886 2.11q-.483 0-.782.268-.298.257-.298.72 0 .432.288.71.298.278.792.278t.772-.278a.94.94 0 0 0 .288-.71q0-.453-.298-.72-.288-.268-.762-.268m3.401-2.347q0-.833.474-1.286.483-.453 1.245-.453t1.235.453.474 1.286q0 .834-.474 1.287-.473.453-1.235.453t-1.245-.453q-.474-.453-.474-1.287m6.989-1.626-3.963 7.246h-1.698l3.963-7.246zm-5.28.916q-.494 0-.494.71 0 .7.494.7a.44.44 0 0 0 .37-.175q.134-.175.134-.525 0-.71-.504-.71m3.191 4.704q0-.834.473-1.287.474-.453 1.235-.453t1.235.453.474 1.287-.474 1.286q-.473.453-1.235.453t-1.235-.453-.473-1.286m1.698-.71a.44.44 0 0 0-.371.174q-.123.176-.123.536 0 .7.494.7a.44.44 0 0 0 .37-.175q.134-.175.134-.525t-.134-.525a.43.43 0 0 0-.37-.185"/><path fill="#bcbcbc" fill-opacity=".7" d="M205.19 77.26q-.63 0-1.157-.296a2.2 2.2 0 0 1-.837-.817 2.3 2.3 0 0 1-.309-1.19q0-.656.309-1.177.309-.528.837-.824a2.3 2.3 0 0 1 1.157-.296q.638.001 1.158.296.528.296.83.824.309.521.309 1.177 0 .662-.309 1.19-.302.521-.83.817a2.3 2.3 0 0 1-1.158.296m0-.804q.406 0 .714-.18.309-.187.483-.528.174-.34.174-.791 0-.45-.174-.785a1.24 1.24 0 0 0-.483-.52 1.4 1.4 0 0 0-.714-.181q-.405 0-.72.18-.309.18-.483.521a1.7 1.7 0 0 0-.173.785q0 .45.173.791.174.34.483.528.315.18.72.18m6.061-3.731v.727h-1.872v1.151h1.435v.714h-1.435v1.898h-.9v-4.49zm5.941 1.35a1.05 1.05 0 0 0-.425-.43 1.3 1.3 0 0 0-.63-.148q-.399 0-.708.18a1.25 1.25 0 0 0-.482.514q-.174.335-.174.772 0 .45.174.785.18.335.495.515t.734.18q.515 0 .842-.27.329-.277.431-.766h-1.544v-.688h2.432v.785q-.09.47-.386.868a2.2 2.2 0 0 1-1.807.881q-.65 0-1.178-.289a2.2 2.2 0 0 1-.823-.817 2.36 2.36 0 0 1-.296-1.184q0-.662.296-1.183a2.1 2.1 0 0 1 .823-.817 2.35 2.35 0 0 1 1.171-.296q.76 0 1.319.373.56.367.772 1.036zm4.217 3.185a2.33 2.33 0 0 1-1.158-.296 2.2 2.2 0 0 1-.836-.817 2.3 2.3 0 0 1-.309-1.19 2.26 2.26 0 0 1 1.145-2 2.3 2.3 0 0 1 1.158-.296q.637 0 1.158.295.528.296.83.824.309.521.309 1.177 0 .662-.309 1.19a2.17 2.17 0 0 1-.83.817 2.33 2.33 0 0 1-1.158.296m0-.804q.405 0 .714-.18.309-.187.483-.528a1.7 1.7 0 0 0 .173-.791q0-.45-.173-.785a1.24 1.24 0 0 0-.483-.52 1.4 1.4 0 0 0-.714-.181q-.405 0-.72.18-.309.18-.483.521a1.7 1.7 0 0 0-.173.785q0 .45.173.791.174.34.483.528.315.18.72.18m6.042-.097h-1.789l-.296.856h-.945l1.614-4.497h1.049l1.614 4.497h-.952zm-.245-.72-.65-1.879-.649 1.879zm3.318.862h1.48v.714h-2.38v-4.49h.9z"/><path fill="#558fe6" d="M15.415 92.042q.03-.825.54-1.274.51-.447 1.382-.447.58 0 .988.2.417.201.626.548.216.348.216.78 0 .51-.255.834-.255.316-.594.432v.03q.44.148.694.487.255.34.255.872 0 .48-.224.85a1.5 1.5 0 0 1-.64.57q-.417.21-.996.21-.927 0-1.482-.456-.549-.456-.58-1.374h1.282q.008.339.193.54.186.193.54.193.301 0 .464-.17a.64.64 0 0 0 .17-.463q0-.37-.24-.532-.231-.17-.749-.17h-.247v-1.073h.247q.395 0 .633-.132.247-.138.247-.486 0-.278-.154-.432a.57.57 0 0 0-.425-.154q-.293 0-.44.177a.8.8 0 0 0-.162.44zm5.554 1.019q-.726-.385-.726-1.212 0-.417.216-.757.217-.347.657-.547.44-.21 1.08-.209.64 0 1.073.209.44.2.656.547.217.341.217.757 0 .417-.201.726a1.37 1.37 0 0 1-.525.486q.417.2.64.556.224.347.224.818 0 .548-.277.95a1.77 1.77 0 0 1-.757.602 2.6 2.6 0 0 1-1.05.208q-.579 0-1.057-.208a1.8 1.8 0 0 1-.749-.602 1.63 1.63 0 0 1-.278-.95q0-.479.224-.826.224-.356.633-.548m1.891-1.011q0-.316-.185-.487a.65.65 0 0 0-.479-.177q-.3 0-.486.177-.177.179-.178.494 0 .301.186.479a.68.68 0 0 0 .478.17q.294 0 .479-.178a.63.63 0 0 0 .185-.478m-.664 1.582q-.363 0-.586.2-.224.195-.224.541 0 .324.216.533.224.208.594.208t.58-.208a.7.7 0 0 0 .215-.533.69.69 0 0 0-.224-.54q-.216-.2-.57-.2m2.852-.44q0-1.327.51-2.092.517-.764 1.66-.764 1.14 0 1.651.764.517.765.517 2.092 0 1.343-.517 2.108-.51.764-1.652.764t-1.66-.764q-.51-.764-.509-2.108m3.042 0q0-.78-.17-1.196-.17-.425-.703-.425t-.702.425q-.17.417-.17 1.196 0 .524.062.873.06.339.247.555.192.21.563.209.371 0 .556-.209.194-.216.255-.556.061-.347.062-.872m6.393 2.895-1.312-1.806v1.806h-1.32v-5.712h1.32v3.157l1.304-1.752h1.63l-1.792 2.161 1.806 2.146zm1.877-2.154q0-.672.27-1.173.279-.502.764-.772.495-.27 1.128-.27.81 0 1.35.424.549.425.718 1.197h-1.405q-.177-.495-.687-.494a.69.69 0 0 0-.579.285q-.216.279-.216.803 0 .525.216.81a.7.7 0 0 0 .58.279q.509 0 .686-.494h1.405q-.17.756-.718 1.188-.547.433-1.35.433a2.3 2.3 0 0 1-1.127-.27 1.94 1.94 0 0 1-.765-.772q-.27-.502-.27-1.174m4.674-.008q0-.663.247-1.165.255-.502.687-.772t.965-.27q.455 0 .795.185.347.186.533.486v-.61h1.32v4.308h-1.32v-.61q-.195.3-.54.486a1.64 1.64 0 0 1-.796.186q-.525 0-.957-.27a1.95 1.95 0 0 1-.687-.78 2.66 2.66 0 0 1-.247-1.174m3.227.008q0-.494-.278-.78a.88.88 0 0 0-.664-.285.9.9 0 0 0-.672.286q-.27.277-.27.772 0 .493.27.787.279.286.672.286a.88.88 0 0 0 .664-.286q.278-.285.278-.78m3.594-3.558v5.712h-1.32v-5.712zm3.913 2.122q.231-.354.579-.555.347-.21.772-.209v1.397h-.363q-.494 0-.741.217-.247.209-.247.74v2h-1.32V91.78h1.32zm6.042 1.367q0 .185-.023.386H54.8q.03.4.254.617a.8.8 0 0 0 .564.209q.494 0 .687-.417h1.405a1.9 1.9 0 0 1-.394.764q-.278.34-.702.533a2.3 2.3 0 0 1-.95.193 2.3 2.3 0 0 1-1.127-.27 1.9 1.9 0 0 1-.772-.772q-.278-.502-.278-1.174t.27-1.173q.279-.502.772-.772.495-.27 1.135-.27.626 0 1.112.262.486.263.756.749.278.486.278 1.135m-1.35-.348a.68.68 0 0 0-.232-.54.85.85 0 0 0-.58-.2.85.85 0 0 0-.563.192q-.224.194-.278.548zm7.543-1.783q.803 0 1.273.487.48.486.479 1.35v2.517h-1.312v-2.339q0-.418-.224-.64-.216-.232-.602-.232-.387 0-.61.231-.216.224-.216.641v2.339h-1.313v-2.339q0-.418-.224-.64-.216-.232-.602-.232-.385 0-.61.231-.216.224-.216.641v2.339h-1.32V91.78h1.32v.54a1.4 1.4 0 0 1 .525-.425q.324-.162.734-.162.486 0 .864.209.387.209.602.594.225-.355.61-.579.387-.225.842-.224m2.413 2.192q0-.663.247-1.165.254-.502.687-.772.432-.27.965-.27.454 0 .795.185.347.186.532.486v-.61h1.32v4.308h-1.32v-.61q-.192.3-.54.486a1.64 1.64 0 0 1-.795.186q-.526 0-.957-.27a1.95 1.95 0 0 1-.687-.78 2.66 2.66 0 0 1-.247-1.174m3.226.008q0-.494-.278-.78a.88.88 0 0 0-.663-.285.9.9 0 0 0-.672.286q-.27.277-.27.772 0 .493.27.787.278.286.672.286a.88.88 0 0 0 .663-.286q.279-.285.278-.78m2.939-2.601a.82.82 0 0 1-.571-.2.68.68 0 0 1-.216-.51q0-.309.216-.51a.8.8 0 0 1 .571-.208q.34 0 .556.208.225.201.224.51 0 .3-.224.51a.78.78 0 0 1-.556.2m.656.448v4.307h-1.32V91.78zm3.581-.047q.757 0 1.204.494.456.487.456 1.343v2.517h-1.312v-2.339q0-.432-.224-.672-.225-.24-.602-.239-.378 0-.602.24-.225.239-.224.671v2.339h-1.32V91.78h1.32v.57q.201-.285.54-.447.34-.17.764-.17m3.241-.401a.82.82 0 0 1-.571-.2.68.68 0 0 1-.216-.51q0-.309.216-.51a.8.8 0 0 1 .571-.208q.34 0 .556.208.225.201.224.51 0 .3-.224.51a.8.8 0 0 1-.556.2m.656.448v4.307h-1.32V91.78zm3.581-.047q.757 0 1.205.494.455.487.455 1.343v2.517h-1.312v-2.339q0-.432-.224-.672-.225-.24-.602-.239-.378 0-.602.24-.225.239-.224.671v2.339h-1.32V91.78h1.32v.57q.201-.285.54-.447.34-.17.764-.17m4.214-.015q.454 0 .795.185.347.186.532.486v-.61h1.32v4.3q0 .595-.239 1.073a1.76 1.76 0 0 1-.718.772q-.479.285-1.196.286-.958 0-1.552-.456-.594-.447-.68-1.22h1.305a.6.6 0 0 0 .294.387q.231.146.571.146.41 0 .649-.239.247-.231.247-.749v-.61q-.195.302-.533.494a1.64 1.64 0 0 1-.795.186q-.533 0-.965-.27a1.96 1.96 0 0 1-.687-.78 2.66 2.66 0 0 1-.247-1.174q0-.663.247-1.165.255-.502.687-.772t.965-.27m1.328 2.215q0-.494-.278-.78a.88.88 0 0 0-.664-.285.9.9 0 0 0-.672.286q-.27.277-.27.772 0 .493.27.787.278.286.672.286a.88.88 0 0 0 .664-.286q.278-.285.278-.78"/><defs><clipPath id="clip0_334_364"><path fill="#fff" d="M14.592 249.979c0-1.081.876-1.958 1.957-1.958h64.81a1.958 1.958 0 0 1 0 3.915H16.55a1.957 1.957 0 0 1-1.957-1.957"/></clipPath><clipPath id="clip1_334_364"><path fill="#fff" d="M91.147 249.979c0-1.081.876-1.958 1.957-1.958h64.82a1.958 1.958 0 0 1 0 3.915h-64.82a1.957 1.957 0 0 1-1.957-1.957"/></clipPath><clipPath id="clip2_334_364"><path fill="#fff" d="M167.711 249.979c0-1.081.877-1.958 1.958-1.958h64.81a1.958 1.958 0 0 1 0 3.915h-64.81a1.96 1.96 0 0 1-1.958-1.957"/></clipPath><clipPath id="clip3_334_364"><path fill="#fff" d="M11.626 158.917a3.864 3.864 0 0 1 3.865-3.864h162.076a3.865 3.865 0 1 1 0 7.729H15.491a3.865 3.865 0 0 1-3.865-3.865"/></clipPath><filter id="filter1_f_334_364" width="155.25" height="155.25" x="-50.125" y="-45.125" color-interpolation-filters="sRGB" filterUnits="userSpaceOnUse"><feFlood flood-opacity="0" result="BackgroundImageFix"/><feBlend in="SourceGraphic" in2="BackgroundImageFix" result="shape"/><feGaussianBlur result="effect1_foregroundBlur_334_364" stdDeviation="21.563"/></filter><filter id="filter2_i_334_364" width="219" height="10.306" x="10.982" y="154.408" color-interpolation-filters="sRGB" filterUnits="userSpaceOnUse"><feFlood flood-opacity="0" result="BackgroundImageFix"/><feBlend in="SourceGraphic" in2="BackgroundImageFix" result="shape"/><feColorMatrix in="SourceAlpha" result="hardAlpha" values="0 0 0 0 0 0 0 0 0 0 0 0 0 0 0 0 0 0 127 0"/><feOffset dy="1.288"/><feGaussianBlur stdDeviation="1.288"/><feComposite in2="hardAlpha" k2="-1" k3="1" operator="arithmetic"/><feColorMatrix values="0 0 0 0 0 0 0 0 0 0 0 0 0 0 0 0 0 0 0.05 0"/><feBlend in2="shape" result="effect1_innerShadow_334_364"/></filter></defs></svg>