<svg width="256" height="316" viewBox="0 0 256 316" fill="none" xmlns="http://www.w3.org/2000/svg">
<path d="M0 10C0 4.47716 4.47715 0 10 0H246C251.523 0 256 4.47715 256 10V306C256 311.523 251.523 316 246 316H10C4.47715 316 0 311.523 0 306V10Z" fill="#D9D9D9" fill-opacity="0.2"/>
<mask id="path-2-inside-1_334_508" fill="white">
<path d="M18.7386 55.5029C18.7386 47.0806 25.5663 40.2529 33.9886 40.2529H103.02C111.442 40.2529 118.27 47.0806 118.27 55.5029C118.27 63.9253 111.442 70.7529 103.02 70.7529H33.9886C25.5663 70.7529 18.7386 63.9253 18.7386 55.5029Z"/>
</mask>
<path d="M18.7386 55.5029C18.7386 47.0806 25.5663 40.2529 33.9886 40.2529H103.02C111.442 40.2529 118.27 47.0806 118.27 55.5029C118.27 63.9253 111.442 70.7529 103.02 70.7529H33.9886C25.5663 70.7529 18.7386 63.9253 18.7386 55.5029Z" fill="white"/>
<path d="M18.7386 55.5029M118.27 55.5029M118.27 55.5029M18.7386 55.5029M33.9886 40.2529V41.2529H103.02V40.2529V39.2529H33.9886V40.2529ZM118.27 55.5029M103.02 70.7529V69.7529H33.9886V70.7529V71.7529H103.02V70.7529ZM18.7386 55.5029M33.9886 70.7529V69.7529C26.1186 69.7529 19.7386 63.373 19.7386 55.5029H18.7386H17.7386C17.7386 64.4776 25.014 71.7529 33.9886 71.7529V70.7529ZM118.27 55.5029H117.27C117.27 63.373 110.89 69.7529 103.02 69.7529V70.7529V71.7529C111.995 71.7529 119.27 64.4776 119.27 55.5029H118.27ZM103.02 40.2529V41.2529C110.89 41.2529 117.27 47.6329 117.27 55.5029H118.27H119.27C119.27 46.5283 111.995 39.2529 103.02 39.2529V40.2529ZM33.9886 40.2529V39.2529C25.014 39.2529 17.7386 46.5283 17.7386 55.5029H18.7386H19.7386C19.7386 47.6329 26.1186 41.2529 33.9886 41.2529V40.2529Z" fill="#F1F5F9" mask="url(#path-2-inside-1_334_508)"/>
<g clip-path="url(#clip0_334_508)">
<path d="M35.2386 57.6533C36.3386 57.6533 37.2386 56.7383 37.2386 55.6283C37.2386 55.0483 36.9536 54.4983 36.3836 54.0333C35.8136 53.5683 35.3836 52.8783 35.2386 52.1533C35.0936 52.8783 34.6686 53.5733 34.0936 54.0333C33.5186 54.4933 33.2386 55.0533 33.2386 55.6283C33.2386 56.7383 34.1386 57.6533 35.2386 57.6533Z" stroke="#558FE6" stroke-linecap="round" stroke-linejoin="round"/>
<path d="M38.0187 52.8027C38.3626 52.2533 38.6063 51.6472 38.7387 51.0127C38.9887 52.2627 39.7387 53.4627 40.7387 54.2627C41.7387 55.0627 42.2387 56.0127 42.2387 57.0127C42.2415 57.7038 42.0391 58.3803 41.6571 58.9562C41.2751 59.5322 40.7306 59.9818 40.0928 60.2479C39.4549 60.5141 38.7524 60.5849 38.0743 60.4513C37.3962 60.3178 36.773 59.9859 36.2837 59.4977" stroke="#558FE6" stroke-linecap="round" stroke-linejoin="round"/>
</g>
<path d="M56.8666 51.5749V59.2529H55.3266V55.9859H52.0376V59.2529H50.4976V51.5749H52.0376V54.7319H55.3266V51.5749H56.8666ZM64.2124 53.1589L60.4394 62.1349H58.8004L60.1204 59.0989L57.6784 53.1589H59.4054L60.9784 57.4159L62.5734 53.1589H64.2124ZM64.6466 56.1839C64.6466 55.5679 64.7676 55.0216 65.0096 54.5449C65.2589 54.0683 65.5962 53.7016 66.0216 53.4449C66.4469 53.1883 66.9199 53.0599 67.4406 53.0599C67.8366 53.0599 68.2142 53.1479 68.5736 53.3239C68.9329 53.4926 69.2189 53.7199 69.4316 54.0059V51.1129H70.9936V59.2529H69.4316V58.3509C69.2409 58.6516 68.9732 58.8936 68.6286 59.0769C68.2839 59.2603 67.8842 59.3519 67.4296 59.3519C66.9162 59.3519 66.4469 59.2199 66.0216 58.9559C65.5962 58.6919 65.2589 58.3216 65.0096 57.8449C64.7676 57.3609 64.6466 56.8073 64.6466 56.1839ZM69.4426 56.2059C69.4426 55.8319 69.3692 55.5129 69.2226 55.2489C69.0759 54.9776 68.8779 54.7723 68.6286 54.6329C68.3792 54.4863 68.1116 54.4129 67.8256 54.4129C67.5396 54.4129 67.2756 54.4826 67.0336 54.6219C66.7916 54.7613 66.5936 54.9666 66.4396 55.2379C66.2929 55.5019 66.2196 55.8173 66.2196 56.1839C66.2196 56.5506 66.2929 56.8733 66.4396 57.1519C66.5936 57.4233 66.7916 57.6323 67.0336 57.7789C67.2829 57.9256 67.5469 57.9989 67.8256 57.9989C68.1116 57.9989 68.3792 57.9293 68.6286 57.7899C68.8779 57.6433 69.0759 57.4379 69.2226 57.1739C69.3692 56.9026 69.4426 56.5799 69.4426 56.2059ZM74.0376 54.1049C74.2356 53.7823 74.4923 53.5293 74.8076 53.3459C75.1303 53.1626 75.497 53.0709 75.9076 53.0709V54.6879H75.5006C75.0166 54.6879 74.65 54.8016 74.4006 55.0289C74.1586 55.2563 74.0376 55.6523 74.0376 56.2169V59.2529H72.4976V53.1589H74.0376V54.1049ZM76.5489 56.1839C76.5489 55.5679 76.6699 55.0216 76.9119 54.5449C77.1612 54.0683 77.4949 53.7016 77.9129 53.4449C78.3382 53.1883 78.8112 53.0599 79.3319 53.0599C79.7866 53.0599 80.1826 53.1516 80.5199 53.3349C80.8646 53.5183 81.1396 53.7493 81.3449 54.0279V53.1589H82.8959V59.2529H81.3449V58.3619C81.1469 58.6479 80.8719 58.8863 80.5199 59.0769C80.1752 59.2603 79.7756 59.3519 79.3209 59.3519C78.8076 59.3519 78.3382 59.2199 77.9129 58.9559C77.4949 58.6919 77.1612 58.3216 76.9119 57.8449C76.6699 57.3609 76.5489 56.8073 76.5489 56.1839ZM81.3449 56.2059C81.3449 55.8319 81.2716 55.5129 81.1249 55.2489C80.9782 54.9776 80.7802 54.7723 80.5309 54.6329C80.2816 54.4863 80.0139 54.4129 79.7279 54.4129C79.4419 54.4129 79.1779 54.4826 78.9359 54.6219C78.6939 54.7613 78.4959 54.9666 78.3419 55.2379C78.1952 55.5019 78.1219 55.8173 78.1219 56.1839C78.1219 56.5506 78.1952 56.8733 78.3419 57.1519C78.4959 57.4233 78.6939 57.6323 78.9359 57.7789C79.1852 57.9256 79.4492 57.9989 79.7279 57.9989C80.0139 57.9989 80.2816 57.9293 80.5309 57.7899C80.7802 57.6433 80.9782 57.4379 81.1249 57.1739C81.2716 56.9026 81.3449 56.5799 81.3449 56.2059ZM86.193 54.4239V57.3719C86.193 57.5773 86.2407 57.7276 86.336 57.8229C86.4387 57.9109 86.6073 57.9549 86.842 57.9549H87.557V59.2529H86.589C85.291 59.2529 84.642 58.6223 84.642 57.3609V54.4239H83.916V53.1589H84.642V51.6519H86.193V53.1589H87.557V54.4239H86.193ZM89.4456 52.4329C89.1743 52.4329 88.947 52.3486 88.7636 52.1799C88.5876 52.0039 88.4996 51.7876 88.4996 51.5309C88.4996 51.2743 88.5876 51.0616 88.7636 50.8929C88.947 50.7169 89.1743 50.6289 89.4456 50.6289C89.717 50.6289 89.9406 50.7169 90.1166 50.8929C90.3 51.0616 90.3916 51.2743 90.3916 51.5309C90.3916 51.7876 90.3 52.0039 90.1166 52.1799C89.9406 52.3486 89.717 52.4329 89.4456 52.4329ZM90.2046 53.1589V59.2529H88.6646V53.1589H90.2046ZM94.4322 59.3519C93.8455 59.3519 93.3175 59.2236 92.8482 58.9669C92.3788 58.7029 92.0085 58.3326 91.7372 57.8559C91.4732 57.3793 91.3412 56.8293 91.3412 56.2059C91.3412 55.5826 91.4768 55.0326 91.7482 54.5559C92.0268 54.0793 92.4045 53.7126 92.8812 53.4559C93.3578 53.1919 93.8895 53.0599 94.4762 53.0599C95.0628 53.0599 95.5945 53.1919 96.0712 53.4559C96.5478 53.7126 96.9218 54.0793 97.1932 54.5559C97.4718 55.0326 97.6112 55.5826 97.6112 56.2059C97.6112 56.8293 97.4682 57.3793 97.1822 57.8559C96.9035 58.3326 96.5222 58.7029 96.0382 58.9669C95.5615 59.2236 95.0262 59.3519 94.4322 59.3519ZM94.4322 58.0099C94.7108 58.0099 94.9712 57.9439 95.2132 57.8119C95.4625 57.6726 95.6605 57.4673 95.8072 57.1959C95.9538 56.9246 96.0272 56.5946 96.0272 56.2059C96.0272 55.6266 95.8732 55.1829 95.5652 54.8749C95.2645 54.5596 94.8942 54.4019 94.4542 54.4019C94.0142 54.4019 93.6438 54.5596 93.3432 54.8749C93.0498 55.1829 92.9032 55.6266 92.9032 56.2059C92.9032 56.7853 93.0462 57.2326 93.3322 57.5479C93.6255 57.8559 93.9922 58.0099 94.4322 58.0099ZM102.118 53.0709C102.844 53.0709 103.43 53.3019 103.878 53.7639C104.325 54.2186 104.549 54.8566 104.549 55.6779V59.2529H103.009V55.8869C103.009 55.4029 102.888 55.0326 102.646 54.7759C102.404 54.5119 102.074 54.3799 101.656 54.3799C101.23 54.3799 100.893 54.5119 100.644 54.7759C100.402 55.0326 100.281 55.4029 100.281 55.8869V59.2529H98.7408V53.1589H100.281V53.9179C100.486 53.6539 100.746 53.4486 101.062 53.3019C101.384 53.1479 101.736 53.0709 102.118 53.0709Z" fill="#1D293D"/>
<path d="M162.286 55.5029C162.286 49.1517 167.434 44.0029 173.786 44.0029H213.239C219.59 44.0029 224.739 49.1517 224.739 55.5029C224.739 61.8542 219.59 67.0029 213.239 67.0029H173.786C167.434 67.0029 162.286 61.8542 162.286 55.5029Z" fill="#1D293D"/>
<path d="M174.369 55.5029H180.202" stroke="white" stroke-width="1.25" stroke-linecap="round" stroke-linejoin="round"/>
<path d="M177.286 52.5859V58.4193" stroke="white" stroke-width="1.25" stroke-linecap="round" stroke-linejoin="round"/>
<path d="M193.193 52.0229V53.1529H191.333V59.0029H189.933V53.1529H188.073V52.0229H193.193ZM195.615 54.3229C195.795 54.0296 196.028 53.7996 196.315 53.6329C196.608 53.4663 196.942 53.3829 197.315 53.3829V54.8529H196.945C196.505 54.8529 196.172 54.9563 195.945 55.1629C195.725 55.3696 195.615 55.7296 195.615 56.2429V59.0029H194.215V53.4629H195.615V54.3229ZM197.898 56.2129C197.898 55.6529 198.008 55.1563 198.228 54.7229C198.455 54.2896 198.758 53.9563 199.138 53.7229C199.525 53.4896 199.955 53.3729 200.428 53.3729C200.841 53.3729 201.201 53.4563 201.508 53.6229C201.821 53.7896 202.071 53.9996 202.258 54.2529V53.4629H203.668V59.0029H202.258V58.1929C202.078 58.4529 201.828 58.6696 201.508 58.8429C201.195 59.0096 200.831 59.0929 200.418 59.0929C199.951 59.0929 199.525 58.9729 199.138 58.7329C198.758 58.4929 198.455 58.1563 198.228 57.7229C198.008 57.2829 197.898 56.7796 197.898 56.2129ZM202.258 56.2329C202.258 55.8929 202.191 55.6029 202.058 55.3629C201.925 55.1163 201.745 54.9296 201.518 54.8029C201.291 54.6696 201.048 54.6029 200.788 54.6029C200.528 54.6029 200.288 54.6663 200.068 54.7929C199.848 54.9196 199.668 55.1063 199.528 55.3529C199.395 55.5929 199.328 55.8796 199.328 56.2129C199.328 56.5463 199.395 56.8396 199.528 57.0929C199.668 57.3396 199.848 57.5296 200.068 57.6629C200.295 57.7963 200.535 57.8629 200.788 57.8629C201.048 57.8629 201.291 57.7996 201.518 57.6729C201.745 57.5396 201.925 57.3529 202.058 57.1129C202.191 56.8663 202.258 56.5729 202.258 56.2329ZM204.675 56.2329C204.675 55.6596 204.792 55.1596 205.025 54.7329C205.259 54.2996 205.582 53.9663 205.995 53.7329C206.409 53.4929 206.882 53.3729 207.415 53.3729C208.102 53.3729 208.669 53.5463 209.115 53.8929C209.569 54.2329 209.872 54.7129 210.025 55.3329H208.515C208.435 55.0929 208.299 54.9063 208.105 54.7729C207.919 54.6329 207.685 54.5629 207.405 54.5629C207.005 54.5629 206.689 54.7096 206.455 55.0029C206.222 55.2896 206.105 55.6996 206.105 56.2329C206.105 56.7596 206.222 57.1696 206.455 57.4629C206.689 57.7496 207.005 57.8929 207.405 57.8929C207.972 57.8929 208.342 57.6396 208.515 57.1329H210.025C209.872 57.7329 209.569 58.2096 209.115 58.5629C208.662 58.9163 208.095 59.0929 207.415 59.0929C206.882 59.0929 206.409 58.9763 205.995 58.7429C205.582 58.5029 205.259 58.1696 205.025 57.7429C204.792 57.3096 204.675 56.8063 204.675 56.2329ZM214.331 59.0029L212.451 56.6429V59.0029H211.051V51.6029H212.451V55.8129L214.311 53.4629H216.131L213.691 56.2429L216.151 59.0029H214.331Z" fill="white"/>
<path d="M25.7109 120.455V121.811H23.4789V128.831H21.7989V121.811H19.5669V120.455H25.7109ZM29.8886 128.939C29.2486 128.939 28.6726 128.799 28.1606 128.519C27.6486 128.231 27.2446 127.827 26.9486 127.307C26.6606 126.787 26.5166 126.187 26.5166 125.507C26.5166 124.827 26.6646 124.227 26.9606 123.707C27.2646 123.187 27.6766 122.787 28.1966 122.507C28.7166 122.219 29.2966 122.075 29.9366 122.075C30.5766 122.075 31.1566 122.219 31.6766 122.507C32.1966 122.787 32.6046 123.187 32.9006 123.707C33.2046 124.227 33.3566 124.827 33.3566 125.507C33.3566 126.187 33.2006 126.787 32.8886 127.307C32.5846 127.827 32.1686 128.231 31.6406 128.519C31.1206 128.799 30.5366 128.939 29.8886 128.939ZM29.8886 127.475C30.1926 127.475 30.4766 127.403 30.7406 127.259C31.0126 127.107 31.2286 126.883 31.3886 126.587C31.5486 126.291 31.6286 125.931 31.6286 125.507C31.6286 124.875 31.4606 124.391 31.1246 124.055C30.7966 123.711 30.3926 123.539 29.9126 123.539C29.4326 123.539 29.0286 123.711 28.7006 124.055C28.3806 124.391 28.2206 124.875 28.2206 125.507C28.2206 126.139 28.3766 126.627 28.6886 126.971C29.0086 127.307 29.4086 127.475 29.8886 127.475ZM34.157 125.483C34.157 124.811 34.289 124.215 34.553 123.695C34.825 123.175 35.193 122.775 35.657 122.495C36.121 122.215 36.637 122.075 37.205 122.075C37.637 122.075 38.049 122.171 38.441 122.363C38.833 122.547 39.145 122.795 39.377 123.107V119.951H41.081V128.831H39.377V127.847C39.169 128.175 38.877 128.439 38.501 128.639C38.125 128.839 37.689 128.939 37.193 128.939C36.633 128.939 36.121 128.795 35.657 128.507C35.193 128.219 34.825 127.815 34.553 127.295C34.289 126.767 34.157 126.163 34.157 125.483ZM39.389 125.507C39.389 125.099 39.309 124.751 39.149 124.463C38.989 124.167 38.773 123.943 38.501 123.791C38.229 123.631 37.937 123.551 37.625 123.551C37.313 123.551 37.025 123.627 36.761 123.779C36.497 123.931 36.281 124.155 36.113 124.451C35.953 124.739 35.873 125.083 35.873 125.483C35.873 125.883 35.953 126.235 36.113 126.539C36.281 126.835 36.497 127.063 36.761 127.223C37.033 127.383 37.321 127.463 37.625 127.463C37.937 127.463 38.229 127.387 38.501 127.235C38.773 127.075 38.989 126.851 39.149 126.563C39.309 126.267 39.389 125.915 39.389 125.507ZM42.2898 125.483C42.2898 124.811 42.4218 124.215 42.6858 123.695C42.9578 123.175 43.3218 122.775 43.7778 122.495C44.2418 122.215 44.7578 122.075 45.3258 122.075C45.8218 122.075 46.2538 122.175 46.6218 122.375C46.9978 122.575 47.2978 122.827 47.5218 123.131V122.183H49.2138V128.831H47.5218V127.859C47.3058 128.171 47.0058 128.431 46.6218 128.639C46.2458 128.839 45.8098 128.939 45.3138 128.939C44.7538 128.939 44.2418 128.795 43.7778 128.507C43.3218 128.219 42.9578 127.815 42.6858 127.295C42.4218 126.767 42.2898 126.163 42.2898 125.483ZM47.5218 125.507C47.5218 125.099 47.4418 124.751 47.2818 124.463C47.1218 124.167 46.9058 123.943 46.6338 123.791C46.3618 123.631 46.0698 123.551 45.7578 123.551C45.4458 123.551 45.1578 123.627 44.8938 123.779C44.6298 123.931 44.4138 124.155 44.2458 124.451C44.0858 124.739 44.0058 125.083 44.0058 125.483C44.0058 125.883 44.0858 126.235 44.2458 126.539C44.4138 126.835 44.6298 127.063 44.8938 127.223C45.1658 127.383 45.4538 127.463 45.7578 127.463C46.0698 127.463 46.3618 127.387 46.6338 127.235C46.9058 127.075 47.1218 126.851 47.2818 126.563C47.4418 126.267 47.5218 125.915 47.5218 125.507ZM57.2146 122.183L53.0986 131.975H51.3106L52.7506 128.663L50.0866 122.183H51.9706L53.6866 126.827L55.4266 122.183H57.2146ZM59.1762 119.255L59.0322 121.799H57.8922L57.7362 119.255H59.1762ZM63.008 128.939C62.464 128.939 61.976 128.843 61.544 128.651C61.112 128.451 60.768 128.183 60.512 127.847C60.264 127.511 60.128 127.139 60.104 126.731H61.796C61.828 126.987 61.952 127.199 62.168 127.367C62.392 127.535 62.668 127.619 62.996 127.619C63.316 127.619 63.564 127.555 63.74 127.427C63.924 127.299 64.016 127.135 64.016 126.935C64.016 126.719 63.904 126.559 63.68 126.455C63.464 126.343 63.116 126.223 62.636 126.095C62.14 125.975 61.732 125.851 61.412 125.723C61.1 125.595 60.828 125.399 60.596 125.135C60.372 124.871 60.26 124.515 60.26 124.067C60.26 123.699 60.364 123.363 60.572 123.059C60.788 122.755 61.092 122.515 61.484 122.339C61.884 122.163 62.352 122.075 62.888 122.075C63.68 122.075 64.312 122.275 64.784 122.675C65.256 123.067 65.516 123.599 65.564 124.271H63.956C63.932 124.007 63.82 123.799 63.62 123.647C63.428 123.487 63.168 123.407 62.84 123.407C62.536 123.407 62.3 123.463 62.132 123.575C61.972 123.687 61.892 123.843 61.892 124.043C61.892 124.267 62.004 124.439 62.228 124.559C62.452 124.671 62.8 124.787 63.272 124.907C63.752 125.027 64.148 125.151 64.46 125.279C64.772 125.407 65.04 125.607 65.264 125.879C65.496 126.143 65.616 126.495 65.624 126.935C65.624 127.319 65.516 127.663 65.3 127.967C65.092 128.271 64.788 128.511 64.388 128.687C63.996 128.855 63.536 128.939 63.008 128.939ZM75.6944 122.975C75.5024 122.623 75.2384 122.355 74.9024 122.171C74.5664 121.987 74.1744 121.895 73.7264 121.895C73.2304 121.895 72.7904 122.007 72.4064 122.231C72.0224 122.455 71.7224 122.775 71.5064 123.191C71.2904 123.607 71.1824 124.087 71.1824 124.631C71.1824 125.191 71.2904 125.679 71.5064 126.095C71.7304 126.511 72.0384 126.831 72.4304 127.055C72.8224 127.279 73.2784 127.391 73.7984 127.391C74.4384 127.391 74.9624 127.223 75.3704 126.887C75.7784 126.543 76.0464 126.067 76.1744 125.459H73.2944V124.175H77.8304V125.639C77.7184 126.223 77.4784 126.763 77.1104 127.259C76.7424 127.755 76.2664 128.155 75.6824 128.459C75.1064 128.755 74.4584 128.903 73.7384 128.903C72.9304 128.903 72.1984 128.723 71.5424 128.363C70.8944 127.995 70.3824 127.487 70.0064 126.839C69.6384 126.191 69.4544 125.455 69.4544 124.631C69.4544 123.807 69.6384 123.071 70.0064 122.423C70.3824 121.767 70.8944 121.259 71.5424 120.899C72.1984 120.531 72.9264 120.347 73.7264 120.347C74.6704 120.347 75.4904 120.579 76.1864 121.043C76.8824 121.499 77.3624 122.143 77.6264 122.975H75.6944ZM82.0254 128.939C81.3854 128.939 80.8094 128.799 80.2974 128.519C79.7854 128.231 79.3814 127.827 79.0854 127.307C78.7974 126.787 78.6534 126.187 78.6534 125.507C78.6534 124.827 78.8014 124.227 79.0974 123.707C79.4014 123.187 79.8134 122.787 80.3334 122.507C80.8534 122.219 81.4334 122.075 82.0734 122.075C82.7134 122.075 83.2934 122.219 83.8134 122.507C84.3334 122.787 84.7414 123.187 85.0374 123.707C85.3414 124.227 85.4934 124.827 85.4934 125.507C85.4934 126.187 85.3374 126.787 85.0254 127.307C84.7214 127.827 84.3054 128.231 83.7774 128.519C83.2574 128.799 82.6734 128.939 82.0254 128.939ZM82.0254 127.475C82.3294 127.475 82.6134 127.403 82.8774 127.259C83.1494 127.107 83.3654 126.883 83.5254 126.587C83.6854 126.291 83.7654 125.931 83.7654 125.507C83.7654 124.875 83.5974 124.391 83.2614 124.055C82.9334 123.711 82.5294 123.539 82.0494 123.539C81.5694 123.539 81.1654 123.711 80.8374 124.055C80.5174 124.391 80.3574 124.875 80.3574 125.507C80.3574 126.139 80.5134 126.627 80.8254 126.971C81.1454 127.307 81.5454 127.475 82.0254 127.475ZM86.2937 125.483C86.2937 124.811 86.4257 124.215 86.6897 123.695C86.9617 123.175 87.3257 122.775 87.7817 122.495C88.2457 122.215 88.7617 122.075 89.3297 122.075C89.8257 122.075 90.2577 122.175 90.6257 122.375C91.0017 122.575 91.3017 122.827 91.5257 123.131V122.183H93.2177V128.831H91.5257V127.859C91.3097 128.171 91.0097 128.431 90.6257 128.639C90.2497 128.839 89.8137 128.939 89.3177 128.939C88.7577 128.939 88.2457 128.795 87.7817 128.507C87.3257 128.219 86.9617 127.815 86.6897 127.295C86.4257 126.767 86.2937 126.163 86.2937 125.483ZM91.5257 125.507C91.5257 125.099 91.4457 124.751 91.2857 124.463C91.1257 124.167 90.9097 123.943 90.6377 123.791C90.3657 123.631 90.0737 123.551 89.7617 123.551C89.4497 123.551 89.1617 123.627 88.8977 123.779C88.6337 123.931 88.4177 124.155 88.2497 124.451C88.0897 124.739 88.0097 125.083 88.0097 125.483C88.0097 125.883 88.0897 126.235 88.2497 126.539C88.4177 126.835 88.6337 127.063 88.8977 127.223C89.1697 127.383 89.4577 127.463 89.7617 127.463C90.0737 127.463 90.3657 127.387 90.6377 127.235C90.9097 127.075 91.1257 126.851 91.2857 126.563C91.4457 126.267 91.5257 125.915 91.5257 125.507ZM96.5385 119.951V128.831H94.8585V119.951H96.5385Z" fill="#AAB4C2"/>
<path d="M36.5589 146.375H26.1909V151.847C26.6389 151.292 27.2789 150.844 28.1109 150.503C28.9429 150.14 29.8282 149.959 30.7669 149.959C32.4735 149.959 33.8709 150.332 34.9589 151.079C36.0469 151.826 36.8362 152.786 37.3269 153.959C37.8175 155.111 38.0629 156.348 38.0629 157.671C38.0629 160.124 37.3589 162.098 35.9509 163.591C34.5642 165.084 32.5802 165.831 29.9989 165.831C27.5669 165.831 25.6255 165.223 24.1749 164.007C22.7242 162.791 21.9029 161.202 21.7109 159.239H26.0629C26.2549 160.092 26.6815 160.775 27.3429 161.287C28.0255 161.799 28.8895 162.055 29.9349 162.055C31.1935 162.055 32.1429 161.66 32.7829 160.871C33.4229 160.082 33.7429 159.036 33.7429 157.735C33.7429 156.412 33.4122 155.41 32.7509 154.727C32.1109 154.023 31.1615 153.671 29.9029 153.671C29.0069 153.671 28.2602 153.895 27.6629 154.343C27.0655 154.791 26.6389 155.388 26.3829 156.135H22.0949V142.439H36.5589V146.375Z" fill="#A4A4A4"/>
<path d="M46.0806 150.679L41.7606 168.727H39.5686L43.8886 150.679H46.0806ZM48.7579 159.655C47.6912 159.1 47.1579 158.242 47.1579 157.079C47.1579 156.503 47.3019 155.98 47.5899 155.511C47.8885 155.031 48.3312 154.652 48.9179 154.375C49.5152 154.087 50.2405 153.943 51.0939 153.943C51.9472 153.943 52.6672 154.087 53.2539 154.375C53.8512 154.652 54.2939 155.031 54.5819 155.511C54.8805 155.98 55.0299 156.503 55.0299 157.079C55.0299 157.666 54.8859 158.183 54.5979 158.631C54.3099 159.068 53.9259 159.41 53.4459 159.655C54.0325 159.911 54.4912 160.284 54.8219 160.775C55.1525 161.266 55.3179 161.847 55.3179 162.519C55.3179 163.244 55.1312 163.879 54.7579 164.423C54.3952 164.956 53.8939 165.367 53.2539 165.655C52.6139 165.943 51.8939 166.087 51.0939 166.087C50.2939 166.087 49.5739 165.943 48.9339 165.655C48.3045 165.367 47.8032 164.956 47.4299 164.423C47.0672 163.879 46.8859 163.244 46.8859 162.519C46.8859 161.847 47.0512 161.266 47.3819 160.775C47.7125 160.274 48.1712 159.9 48.7579 159.655ZM52.8539 157.399C52.8539 156.876 52.6939 156.471 52.3739 156.183C52.0645 155.895 51.6379 155.751 51.0939 155.751C50.5605 155.751 50.1339 155.895 49.8139 156.183C49.5045 156.471 49.3499 156.882 49.3499 157.415C49.3499 157.895 49.5099 158.279 49.8299 158.567C50.1605 158.855 50.5819 158.999 51.0939 158.999C51.6059 158.999 52.0272 158.855 52.3579 158.567C52.6885 158.268 52.8539 157.879 52.8539 157.399ZM51.0939 160.631C50.4859 160.631 49.9899 160.786 49.6059 161.095C49.2325 161.404 49.0459 161.847 49.0459 162.423C49.0459 162.956 49.2272 163.394 49.5899 163.735C49.9632 164.066 50.4645 164.231 51.0939 164.231C51.7232 164.231 52.2192 164.06 52.5819 163.719C52.9445 163.378 53.1259 162.946 53.1259 162.423C53.1259 161.858 52.9392 161.42 52.5659 161.111C52.1925 160.791 51.7019 160.631 51.0939 160.631Z" fill="#90A1B9"/>
<path d="M67.2341 157.999C67.0101 157.588 66.7021 157.276 66.3101 157.061C65.9181 156.846 65.4608 156.739 64.9381 156.739C64.3594 156.739 63.8461 156.87 63.3981 157.131C62.9501 157.392 62.6001 157.766 62.3481 158.251C62.0961 158.736 61.9701 159.296 61.9701 159.931C61.9701 160.584 62.0961 161.154 62.3481 161.639C62.6094 162.124 62.9688 162.498 63.4261 162.759C63.8834 163.02 64.4154 163.151 65.0221 163.151C65.7688 163.151 66.3801 162.955 66.8561 162.563C67.3321 162.162 67.6448 161.606 67.7941 160.897H64.4341V159.399H69.7261V161.107C69.5954 161.788 69.3154 162.418 68.8861 162.997C68.4568 163.576 67.9014 164.042 67.2201 164.397C66.5481 164.742 65.7921 164.915 64.9521 164.915C64.0094 164.915 63.1554 164.705 62.3901 164.285C61.6341 163.856 61.0368 163.263 60.5981 162.507C60.1688 161.751 59.9541 160.892 59.9541 159.931C59.9541 158.97 60.1688 158.111 60.5981 157.355C61.0368 156.59 61.6341 155.997 62.3901 155.577C63.1554 155.148 64.0048 154.933 64.9381 154.933C66.0394 154.933 66.9961 155.204 67.8081 155.745C68.6201 156.277 69.1801 157.028 69.4881 157.999H67.2341ZM73.1362 154.471V164.831H71.1762V154.471H73.1362ZM74.5687 160.925C74.5687 160.141 74.7227 159.446 75.0307 158.839C75.348 158.232 75.7727 157.766 76.3047 157.439C76.846 157.112 77.448 156.949 78.1107 156.949C78.6894 156.949 79.1934 157.066 79.6227 157.299C80.0614 157.532 80.4114 157.826 80.6727 158.181V157.075H82.6467V164.831H80.6727V163.697C80.4207 164.061 80.0707 164.364 79.6227 164.607C79.184 164.84 78.6754 164.957 78.0967 164.957C77.4434 164.957 76.846 164.789 76.3047 164.453C75.7727 164.117 75.348 163.646 75.0307 163.039C74.7227 162.423 74.5687 161.718 74.5687 160.925ZM80.6727 160.953C80.6727 160.477 80.5794 160.071 80.3927 159.735C80.206 159.39 79.954 159.128 79.6367 158.951C79.3194 158.764 78.9787 158.671 78.6147 158.671C78.2507 158.671 77.9147 158.76 77.6067 158.937C77.2987 159.114 77.0467 159.376 76.8507 159.721C76.664 160.057 76.5707 160.458 76.5707 160.925C76.5707 161.392 76.664 161.802 76.8507 162.157C77.0467 162.502 77.2987 162.768 77.6067 162.955C77.924 163.142 78.26 163.235 78.6147 163.235C78.9787 163.235 79.3194 163.146 79.6367 162.969C79.954 162.782 80.206 162.521 80.3927 162.185C80.5794 161.84 80.6727 161.429 80.6727 160.953ZM87.529 164.957C86.8943 164.957 86.325 164.845 85.821 164.621C85.317 164.388 84.9156 164.075 84.617 163.683C84.3276 163.291 84.169 162.857 84.141 162.381H86.115C86.1523 162.68 86.297 162.927 86.549 163.123C86.8103 163.319 87.1323 163.417 87.515 163.417C87.8883 163.417 88.1776 163.342 88.383 163.193C88.5976 163.044 88.705 162.852 88.705 162.619C88.705 162.367 88.5743 162.18 88.313 162.059C88.061 161.928 87.655 161.788 87.095 161.639C86.5163 161.499 86.0403 161.354 85.667 161.205C85.303 161.056 84.9856 160.827 84.715 160.519C84.4536 160.211 84.323 159.796 84.323 159.273C84.323 158.844 84.4443 158.452 84.687 158.097C84.939 157.742 85.2936 157.462 85.751 157.257C86.2176 157.052 86.7636 156.949 87.389 156.949C88.313 156.949 89.0503 157.182 89.601 157.649C90.1516 158.106 90.455 158.727 90.511 159.511H88.635C88.607 159.203 88.4763 158.96 88.243 158.783C88.019 158.596 87.7156 158.503 87.333 158.503C86.9783 158.503 86.703 158.568 86.507 158.699C86.3203 158.83 86.227 159.012 86.227 159.245C86.227 159.506 86.3576 159.707 86.619 159.847C86.8803 159.978 87.2863 160.113 87.837 160.253C88.397 160.393 88.859 160.538 89.223 160.687C89.587 160.836 89.8996 161.07 90.161 161.387C90.4316 161.695 90.5716 162.106 90.581 162.619C90.581 163.067 90.455 163.468 90.203 163.823C89.9603 164.178 89.6056 164.458 89.139 164.663C88.6816 164.859 88.145 164.957 87.529 164.957ZM95.1579 164.957C94.5232 164.957 93.9539 164.845 93.4499 164.621C92.9459 164.388 92.5445 164.075 92.2459 163.683C91.9565 163.291 91.7979 162.857 91.7699 162.381H93.7439C93.7812 162.68 93.9259 162.927 94.1779 163.123C94.4392 163.319 94.7612 163.417 95.1439 163.417C95.5172 163.417 95.8065 163.342 96.0119 163.193C96.2265 163.044 96.3339 162.852 96.3339 162.619C96.3339 162.367 96.2032 162.18 95.9419 162.059C95.6899 161.928 95.2839 161.788 94.7239 161.639C94.1452 161.499 93.6692 161.354 93.2959 161.205C92.9319 161.056 92.6145 160.827 92.3439 160.519C92.0825 160.211 91.9519 159.796 91.9519 159.273C91.9519 158.844 92.0732 158.452 92.3159 158.097C92.5679 157.742 92.9225 157.462 93.3799 157.257C93.8465 157.052 94.3925 156.949 95.0179 156.949C95.9419 156.949 96.6792 157.182 97.2299 157.649C97.7805 158.106 98.0839 158.727 98.1399 159.511H96.2639C96.2359 159.203 96.1052 158.96 95.8719 158.783C95.6479 158.596 95.3445 158.503 94.9619 158.503C94.6072 158.503 94.3319 158.568 94.1359 158.699C93.9492 158.83 93.8559 159.012 93.8559 159.245C93.8559 159.506 93.9865 159.707 94.2479 159.847C94.5092 159.978 94.9152 160.113 95.4659 160.253C96.0259 160.393 96.4879 160.538 96.8519 160.687C97.2159 160.836 97.5285 161.07 97.7899 161.387C98.0605 161.695 98.2005 162.106 98.2099 162.619C98.2099 163.067 98.0839 163.468 97.8319 163.823C97.5892 164.178 97.2345 164.458 96.7679 164.663C96.3105 164.859 95.7739 164.957 95.1579 164.957ZM107.029 160.785C107.029 161.065 107.01 161.317 106.973 161.541H101.303C101.349 162.101 101.545 162.54 101.891 162.857C102.236 163.174 102.661 163.333 103.165 163.333C103.893 163.333 104.411 163.02 104.719 162.395H106.833C106.609 163.142 106.179 163.758 105.545 164.243C104.91 164.719 104.131 164.957 103.207 164.957C102.46 164.957 101.788 164.794 101.191 164.467C100.603 164.131 100.141 163.66 99.8048 163.053C99.4781 162.446 99.3148 161.746 99.3148 160.953C99.3148 160.15 99.4781 159.446 99.8048 158.839C100.131 158.232 100.589 157.766 101.177 157.439C101.765 157.112 102.441 156.949 103.207 156.949C103.944 156.949 104.602 157.108 105.181 157.425C105.769 157.742 106.221 158.195 106.539 158.783C106.865 159.362 107.029 160.029 107.029 160.785ZM104.999 160.225C104.989 159.721 104.807 159.32 104.453 159.021C104.098 158.713 103.664 158.559 103.151 158.559C102.665 158.559 102.255 158.708 101.919 159.007C101.592 159.296 101.391 159.702 101.317 160.225H104.999ZM111.427 164.957C110.793 164.957 110.223 164.845 109.719 164.621C109.215 164.388 108.814 164.075 108.515 163.683C108.226 163.291 108.067 162.857 108.039 162.381H110.013C110.051 162.68 110.195 162.927 110.447 163.123C110.709 163.319 111.031 163.417 111.413 163.417C111.787 163.417 112.076 163.342 112.281 163.193C112.496 163.044 112.603 162.852 112.603 162.619C112.603 162.367 112.473 162.18 112.211 162.059C111.959 161.928 111.553 161.788 110.993 161.639C110.415 161.499 109.939 161.354 109.565 161.205C109.201 161.056 108.884 160.827 108.613 160.519C108.352 160.211 108.221 159.796 108.221 159.273C108.221 158.844 108.343 158.452 108.585 158.097C108.837 157.742 109.192 157.462 109.649 157.257C110.116 157.052 110.662 156.949 111.287 156.949C112.211 156.949 112.949 157.182 113.499 157.649C114.05 158.106 114.353 158.727 114.409 159.511H112.533C112.505 159.203 112.375 158.96 112.141 158.783C111.917 158.596 111.614 158.503 111.231 158.503C110.877 158.503 110.601 158.568 110.405 158.699C110.219 158.83 110.125 159.012 110.125 159.245C110.125 159.506 110.256 159.707 110.517 159.847C110.779 159.978 111.185 160.113 111.735 160.253C112.295 160.393 112.757 160.538 113.121 160.687C113.485 160.836 113.798 161.07 114.059 161.387C114.33 161.695 114.47 162.106 114.479 162.619C114.479 163.067 114.353 163.468 114.101 163.823C113.859 164.178 113.504 164.458 113.037 164.663C112.58 164.859 112.043 164.957 111.427 164.957Z" fill="#558FE6"/>
<g opacity="0.8">
<path d="M18 215.625C18 209.481 22.9808 204.5 29.125 204.5C35.2692 204.5 40.25 209.481 40.25 215.625V217.375C40.25 223.519 35.2692 228.5 29.125 228.5C22.9808 228.5 18 223.519 18 217.375V215.625Z" fill="#558FE6"/>
</g>
<g opacity="0.8">
<path d="M44.25 215.625C44.25 209.481 49.2308 204.5 55.375 204.5C61.5192 204.5 66.5 209.481 66.5 215.625V217.375C66.5 223.519 61.5192 228.5 55.375 228.5C49.2308 228.5 44.25 223.519 44.25 217.375V215.625Z" fill="#558FE6"/>
</g>
<g opacity="0.8">
<path d="M70.5 215.625C70.5 209.481 75.4808 204.5 81.625 204.5C87.7692 204.5 92.75 209.481 92.75 215.625V217.375C92.75 223.519 87.7692 228.5 81.625 228.5C75.4808 228.5 70.5 223.519 70.5 217.375V215.625Z" fill="#558FE6"/>
</g>
<g opacity="0.8">
<path d="M96.75 215.625C96.75 209.481 101.731 204.5 107.875 204.5C114.019 204.5 119 209.481 119 215.625V217.375C119 223.519 114.019 228.5 107.875 228.5C101.731 228.5 96.75 223.519 96.75 217.375V215.625Z" fill="#558FE6"/>
</g>
<g opacity="0.8">
<path d="M123 215.625C123 209.481 127.981 204.5 134.125 204.5C140.269 204.5 145.25 209.481 145.25 215.625V217.375C145.25 223.519 140.269 228.5 134.125 228.5C127.981 228.5 123 223.519 123 217.375V215.625Z" fill="#558FE6"/>
</g>
<path d="M149.25 215.625C149.25 209.481 154.231 204.5 160.375 204.5C166.519 204.5 171.5 209.481 171.5 215.625V217.375C171.5 223.519 166.519 228.5 160.375 228.5C154.231 228.5 149.25 223.519 149.25 217.375V215.625Z" fill="#F1F5F9"/>
<path d="M175.5 215.625C175.5 209.481 180.481 204.5 186.625 204.5C192.769 204.5 197.75 209.481 197.75 215.625V217.375C197.75 223.519 192.769 228.5 186.625 228.5C180.481 228.5 175.5 223.519 175.5 217.375V215.625Z" fill="#F1F5F9"/>
<path d="M201.75 215.625C201.75 209.481 206.731 204.5 212.875 204.5C219.019 204.5 224 209.481 224 215.625V217.375C224 223.519 219.019 228.5 212.875 228.5C206.731 228.5 201.75 223.519 201.75 217.375V215.625Z" fill="#F1F5F9"/>
<mask id="path-22-inside-2_334_508" fill="white">
<path d="M18.0004 264C18.0004 255.163 25.1638 248 34.0004 248H208C216.837 248 224 255.163 224 264V290C224 298.837 216.837 306 208 306H34.0004C25.1638 306 18.0004 298.837 18.0004 290V264Z"/>
</mask>
<path d="M18.0004 264C18.0004 255.163 25.1638 248 34.0004 248H208C216.837 248 224 255.163 224 264V290C224 298.837 216.837 306 208 306H34.0004C25.1638 306 18.0004 298.837 18.0004 290V264Z" fill="white" fill-opacity="0.5"/>
<path d="M34.0004 248V249H208V248V247H34.0004V248ZM224 264H223V290H224H225V264H224ZM208 306V305H34.0004V306V307H208V306ZM18.0004 290H19.0004V264H18.0004H17.0004V290H18.0004ZM34.0004 306V305C25.7161 305 19.0004 298.284 19.0004 290H18.0004H17.0004C17.0004 299.389 24.6115 307 34.0004 307V306ZM224 290H223C223 298.284 216.285 305 208 305V306V307C217.389 307 225 299.389 225 290H224ZM208 248V249C216.285 249 223 255.716 223 264H224H225C225 254.611 217.389 247 208 247V248ZM34.0004 248V247C24.6115 247 17.0004 254.611 17.0004 264H18.0004H19.0004C19.0004 255.716 25.7161 249 34.0004 249V248Z" fill="white" mask="url(#path-22-inside-2_334_508)"/>
<mask id="path-24-inside-3_334_508" fill="white">
<path d="M31.0004 277C31.0004 268.163 38.1638 261 47.0004 261C55.8369 261 63.0004 268.163 63.0004 277C63.0004 285.837 55.8369 293 47.0004 293C38.1638 293 31.0004 285.837 31.0004 277Z"/>
</mask>
<path d="M31.0004 277C31.0004 268.163 38.1638 261 47.0004 261C55.8369 261 63.0004 268.163 63.0004 277C63.0004 285.837 55.8369 293 47.0004 293C38.1638 293 31.0004 285.837 31.0004 277Z" fill="#EAF3FA"/>
<path d="M31.0004 277M63.0004 277M63.0004 277M31.0004 277M47.0004 261M63.0004 277M47.0004 293M31.0004 277M47.0004 293V292C38.7161 292 32.0004 285.284 32.0004 277H31.0004H30.0004C30.0004 286.389 37.6115 294 47.0004 294V293ZM63.0004 277H62.0004C62.0004 285.284 55.2846 292 47.0004 292V293V294C56.3892 294 64.0004 286.389 64.0004 277H63.0004ZM47.0004 261V262C55.2846 262 62.0004 268.716 62.0004 277H63.0004H64.0004C64.0004 267.611 56.3892 260 47.0004 260V261ZM47.0004 261V260C37.6115 260 30.0004 267.611 30.0004 277H31.0004H32.0004C32.0004 268.716 38.7161 262 47.0004 262V261Z" fill="white" mask="url(#path-24-inside-3_334_508)"/>
<path d="M42.9847 272.394C42.9762 272.313 42.9849 272.231 43.0102 272.153C43.0354 272.075 43.0767 272.004 43.1314 271.943C43.1861 271.882 43.2529 271.834 43.3275 271.801C43.4021 271.767 43.4829 271.75 43.5646 271.75H50.4362C50.518 271.75 50.5988 271.767 50.6735 271.801C50.7481 271.834 50.815 271.882 50.8696 271.943C50.9243 272.004 50.9656 272.076 50.9908 272.153C51.016 272.231 51.0246 272.313 51.0161 272.395L50.0279 281.789C49.9976 282.076 49.8623 282.341 49.6479 282.534C49.4335 282.727 49.1554 282.833 48.8671 282.833H45.1337C44.8444 282.835 44.5648 282.729 44.3492 282.536C44.1336 282.343 43.9974 282.077 43.9671 281.789L42.9847 272.394Z" stroke="#558FE6" stroke-width="1.16667" stroke-linecap="round" stroke-linejoin="round"/>
<path d="M43.5004 277C44.0052 276.622 44.6193 276.417 45.2504 276.417C45.8814 276.417 46.4955 276.622 47.0004 277C47.5052 277.379 48.1193 277.584 48.7504 277.584C49.3814 277.584 49.9955 277.379 50.5004 277" stroke="#558FE6" stroke-width="1.16667" stroke-linecap="round" stroke-linejoin="round"/>
<path d="M81.8645 265.572L79.2685 270.577V273.25H77.7285V270.577L75.1215 265.572H76.8595L78.5095 269.081L80.1485 265.572H81.8645ZM85.4587 273.349C84.872 273.349 84.344 273.221 83.8747 272.964C83.4053 272.7 83.035 272.33 82.7637 271.853C82.4997 271.376 82.3677 270.826 82.3677 270.203C82.3677 269.58 82.5033 269.03 82.7747 268.553C83.0533 268.076 83.431 267.71 83.9077 267.453C84.3843 267.189 84.916 267.057 85.5027 267.057C86.0893 267.057 86.621 267.189 87.0977 267.453C87.5743 267.71 87.9483 268.076 88.2197 268.553C88.4983 269.03 88.6377 269.58 88.6377 270.203C88.6377 270.826 88.4947 271.376 88.2087 271.853C87.93 272.33 87.5487 272.7 87.0647 272.964C86.588 273.221 86.0527 273.349 85.4587 273.349ZM85.4587 272.007C85.7373 272.007 85.9977 271.941 86.2397 271.809C86.489 271.67 86.687 271.464 86.8337 271.193C86.9803 270.922 87.0537 270.592 87.0537 270.203C87.0537 269.624 86.8997 269.18 86.5917 268.872C86.291 268.557 85.9207 268.399 85.4807 268.399C85.0407 268.399 84.6703 268.557 84.3697 268.872C84.0763 269.18 83.9297 269.624 83.9297 270.203C83.9297 270.782 84.0727 271.23 84.3587 271.545C84.652 271.853 85.0187 272.007 85.4587 272.007ZM95.5203 267.156V273.25H93.9693V272.48C93.7713 272.744 93.511 272.953 93.1883 273.107C92.873 273.254 92.5283 273.327 92.1543 273.327C91.6776 273.327 91.256 273.228 90.8893 273.03C90.5226 272.825 90.233 272.528 90.0203 272.139C89.815 271.743 89.7123 271.274 89.7123 270.731V267.156H91.2523V270.511C91.2523 270.995 91.3733 271.369 91.6153 271.633C91.8573 271.89 92.1873 272.018 92.6053 272.018C93.0306 272.018 93.3643 271.89 93.6063 271.633C93.8483 271.369 93.9693 270.995 93.9693 270.511V267.156H95.5203ZM98.0078 264.472L97.8758 266.804H96.8308L96.6878 264.472H98.0078ZM100.728 268.102C100.926 267.779 101.183 267.526 101.498 267.343C101.821 267.16 102.188 267.068 102.598 267.068V268.685H102.191C101.707 268.685 101.341 268.799 101.091 269.026C100.849 269.253 100.728 269.649 100.728 270.214V273.25H99.1882V267.156H100.728V268.102ZM109.3 270.071C109.3 270.291 109.286 270.489 109.256 270.665H104.801C104.838 271.105 104.992 271.45 105.263 271.699C105.535 271.948 105.868 272.073 106.264 272.073C106.836 272.073 107.243 271.827 107.485 271.336H109.146C108.97 271.923 108.633 272.407 108.134 272.788C107.636 273.162 107.023 273.349 106.297 273.349C105.711 273.349 105.183 273.221 104.713 272.964C104.251 272.7 103.888 272.33 103.624 271.853C103.368 271.376 103.239 270.826 103.239 270.203C103.239 269.572 103.368 269.019 103.624 268.542C103.881 268.065 104.24 267.699 104.702 267.442C105.164 267.185 105.696 267.057 106.297 267.057C106.877 267.057 107.394 267.182 107.848 267.431C108.31 267.68 108.666 268.036 108.915 268.498C109.172 268.953 109.3 269.477 109.3 270.071ZM107.705 269.631C107.698 269.235 107.555 268.92 107.276 268.685C106.998 268.443 106.657 268.322 106.253 268.322C105.872 268.322 105.549 268.439 105.285 268.674C105.029 268.901 104.871 269.22 104.812 269.631H107.705ZM115.752 273.349C115.165 273.349 114.637 273.221 114.168 272.964C113.698 272.7 113.328 272.33 113.057 271.853C112.793 271.376 112.661 270.826 112.661 270.203C112.661 269.58 112.796 269.03 113.068 268.553C113.346 268.076 113.724 267.71 114.201 267.453C114.677 267.189 115.209 267.057 115.796 267.057C116.382 267.057 116.914 267.189 117.391 267.453C117.867 267.71 118.241 268.076 118.513 268.553C118.791 269.03 118.931 269.58 118.931 270.203C118.931 270.826 118.788 271.376 118.502 271.853C118.223 272.33 117.842 272.7 117.358 272.964C116.881 273.221 116.346 273.349 115.752 273.349ZM115.752 272.007C116.03 272.007 116.291 271.941 116.533 271.809C116.782 271.67 116.98 271.464 117.127 271.193C117.273 270.922 117.347 270.592 117.347 270.203C117.347 269.624 117.193 269.18 116.885 268.872C116.584 268.557 116.214 268.399 115.774 268.399C115.334 268.399 114.963 268.557 114.663 268.872C114.369 269.18 114.223 269.624 114.223 270.203C114.223 270.782 114.366 271.23 114.652 271.545C114.945 271.853 115.312 272.007 115.752 272.007ZM123.437 267.068C124.163 267.068 124.75 267.299 125.197 267.761C125.645 268.216 125.868 268.854 125.868 269.675V273.25H124.328V269.884C124.328 269.4 124.207 269.03 123.965 268.773C123.723 268.509 123.393 268.377 122.975 268.377C122.55 268.377 122.213 268.509 121.963 268.773C121.721 269.03 121.6 269.4 121.6 269.884V273.25H120.06V267.156H121.6V267.915C121.806 267.651 122.066 267.446 122.381 267.299C122.704 267.145 123.056 267.068 123.437 267.068ZM131.747 268.421V271.369C131.747 271.574 131.794 271.725 131.89 271.82C131.992 271.908 132.161 271.952 132.396 271.952H133.111V273.25H132.143C130.845 273.25 130.196 272.619 130.196 271.358V268.421H129.47V267.156H130.196V265.649H131.747V267.156H133.111V268.421H131.747ZM135.758 268.102C135.956 267.779 136.213 267.526 136.528 267.343C136.851 267.16 137.218 267.068 137.628 267.068V268.685H137.221C136.737 268.685 136.371 268.799 136.121 269.026C135.879 269.253 135.758 269.649 135.758 270.214V273.25H134.218V267.156H135.758V268.102ZM138.27 270.181C138.27 269.565 138.391 269.019 138.633 268.542C138.882 268.065 139.216 267.699 139.634 267.442C140.059 267.185 140.532 267.057 141.053 267.057C141.507 267.057 141.903 267.149 142.241 267.332C142.585 267.515 142.86 267.746 143.066 268.025V267.156H144.617V273.25H143.066V272.359C142.868 272.645 142.593 272.883 142.241 273.074C141.896 273.257 141.496 273.349 141.042 273.349C140.528 273.349 140.059 273.217 139.634 272.953C139.216 272.689 138.882 272.319 138.633 271.842C138.391 271.358 138.27 270.804 138.27 270.181ZM143.066 270.203C143.066 269.829 142.992 269.51 142.846 269.246C142.699 268.975 142.501 268.769 142.252 268.63C142.002 268.483 141.735 268.41 141.449 268.41C141.163 268.41 140.899 268.48 140.657 268.619C140.415 268.758 140.217 268.964 140.063 269.235C139.916 269.499 139.843 269.814 139.843 270.181C139.843 270.548 139.916 270.87 140.063 271.149C140.217 271.42 140.415 271.629 140.657 271.776C140.906 271.923 141.17 271.996 141.449 271.996C141.735 271.996 142.002 271.926 142.252 271.787C142.501 271.64 142.699 271.435 142.846 271.171C142.992 270.9 143.066 270.577 143.066 270.203ZM145.725 270.203C145.725 269.572 145.853 269.022 146.11 268.553C146.366 268.076 146.722 267.71 147.177 267.453C147.631 267.189 148.152 267.057 148.739 267.057C149.494 267.057 150.117 267.248 150.609 267.629C151.107 268.003 151.441 268.531 151.61 269.213H149.949C149.861 268.949 149.71 268.744 149.498 268.597C149.292 268.443 149.036 268.366 148.728 268.366C148.288 268.366 147.939 268.527 147.683 268.85C147.426 269.165 147.298 269.616 147.298 270.203C147.298 270.782 147.426 271.233 147.683 271.556C147.939 271.871 148.288 272.029 148.728 272.029C149.351 272.029 149.758 271.75 149.949 271.193H151.61C151.441 271.853 151.107 272.377 150.609 272.766C150.11 273.155 149.487 273.349 148.739 273.349C148.152 273.349 147.631 273.221 147.177 272.964C146.722 272.7 146.366 272.333 146.11 271.864C145.853 271.387 145.725 270.834 145.725 270.203ZM156.346 273.25L154.278 270.654V273.25H152.738V265.11H154.278V269.741L156.324 267.156H158.326L155.642 270.214L158.348 273.25H156.346ZM159.844 273.327C159.565 273.327 159.334 273.243 159.151 273.074C158.975 272.898 158.887 272.682 158.887 272.425C158.887 272.168 158.975 271.956 159.151 271.787C159.334 271.611 159.565 271.523 159.844 271.523C160.115 271.523 160.339 271.611 160.515 271.787C160.691 271.956 160.779 272.168 160.779 272.425C160.779 272.682 160.691 272.898 160.515 273.074C160.339 273.243 160.115 273.327 159.844 273.327ZM167.324 265.572C168.131 265.572 168.839 265.73 169.447 266.045C170.063 266.36 170.536 266.811 170.866 267.398C171.204 267.977 171.372 268.652 171.372 269.422C171.372 270.192 171.204 270.867 170.866 271.446C170.536 272.018 170.063 272.462 169.447 272.777C168.839 273.092 168.131 273.25 167.324 273.25H164.64V265.572H167.324ZM167.269 271.941C168.076 271.941 168.699 271.721 169.139 271.281C169.579 270.841 169.799 270.221 169.799 269.422C169.799 268.623 169.579 267.999 169.139 267.552C168.699 267.097 168.076 266.87 167.269 266.87H166.18V271.941H167.269ZM174.065 268.102C174.263 267.779 174.52 267.526 174.835 267.343C175.158 267.16 175.524 267.068 175.935 267.068V268.685H175.528C175.044 268.685 174.677 268.799 174.428 269.026C174.186 269.253 174.065 269.649 174.065 270.214V273.25H172.525V267.156H174.065V268.102ZM177.753 266.43C177.482 266.43 177.255 266.346 177.071 266.177C176.895 266.001 176.807 265.785 176.807 265.528C176.807 265.271 176.895 265.059 177.071 264.89C177.255 264.714 177.482 264.626 177.753 264.626C178.025 264.626 178.248 264.714 178.424 264.89C178.608 265.059 178.699 265.271 178.699 265.528C178.699 265.785 178.608 266.001 178.424 266.177C178.248 266.346 178.025 266.43 177.753 266.43ZM178.512 267.156V273.25H176.972V267.156H178.512ZM183.411 267.068C184.137 267.068 184.724 267.299 185.171 267.761C185.618 268.216 185.842 268.854 185.842 269.675V273.25H184.302V269.884C184.302 269.4 184.181 269.03 183.939 268.773C183.697 268.509 183.367 268.377 182.949 268.377C182.524 268.377 182.186 268.509 181.937 268.773C181.695 269.03 181.574 269.4 181.574 269.884V273.25H180.034V267.156H181.574V267.915C181.779 267.651 182.04 267.446 182.355 267.299C182.678 267.145 183.03 267.068 183.411 267.068ZM190.914 273.25L188.846 270.654V273.25H187.306V265.11H188.846V269.741L190.892 267.156H192.894L190.21 270.214L192.916 273.25H190.914ZM195.988 266.65V265.231H198.639V273.25H197.055V266.65H195.988ZM83.3275 280.068C84.0755 280.068 84.6768 280.299 85.1315 280.761C85.5935 281.216 85.8245 281.854 85.8245 282.675V286.25H84.2845V282.884C84.2845 282.407 84.1635 282.044 83.9215 281.795C83.6795 281.538 83.3495 281.41 82.9315 281.41C82.5135 281.41 82.1798 281.538 81.9305 281.795C81.6885 282.044 81.5675 282.407 81.5675 282.884V286.25H80.0275V282.884C80.0275 282.407 79.9065 282.044 79.6645 281.795C79.4225 281.538 79.0925 281.41 78.6745 281.41C78.2492 281.41 77.9118 281.538 77.6625 281.795C77.4205 282.044 77.2995 282.407 77.2995 282.884V286.25H75.7595V280.156H77.2995V280.893C77.4975 280.636 77.7505 280.435 78.0585 280.288C78.3738 280.141 78.7185 280.068 79.0925 280.068C79.5692 280.068 79.9945 280.171 80.3685 280.376C80.7425 280.574 81.0322 280.86 81.2375 281.234C81.4355 280.882 81.7215 280.6 82.0955 280.387C82.4768 280.174 82.8875 280.068 83.3275 280.068ZM89.9919 286.349C89.4052 286.349 88.8772 286.221 88.4079 285.964C87.9385 285.7 87.5682 285.33 87.2969 284.853C87.0329 284.376 86.9009 283.826 86.9009 283.203C86.9009 282.58 87.0365 282.03 87.3079 281.553C87.5865 281.076 87.9642 280.71 88.4409 280.453C88.9175 280.189 89.4492 280.057 90.0359 280.057C90.6225 280.057 91.1542 280.189 91.6309 280.453C92.1075 280.71 92.4815 281.076 92.7529 281.553C93.0315 282.03 93.1709 282.58 93.1709 283.203C93.1709 283.826 93.0279 284.376 92.7419 284.853C92.4632 285.33 92.0819 285.7 91.5979 285.964C91.1212 286.221 90.5859 286.349 89.9919 286.349ZM89.9919 285.007C90.2705 285.007 90.5309 284.941 90.7729 284.809C91.0222 284.67 91.2202 284.464 91.3669 284.193C91.5135 283.922 91.5869 283.592 91.5869 283.203C91.5869 282.624 91.4329 282.18 91.1249 281.872C90.8242 281.557 90.4539 281.399 90.0139 281.399C89.5739 281.399 89.2035 281.557 88.9029 281.872C88.6095 282.18 88.4629 282.624 88.4629 283.203C88.4629 283.782 88.6059 284.23 88.8919 284.545C89.1852 284.853 89.5519 285.007 89.9919 285.007ZM95.8405 281.102C96.0385 280.779 96.2952 280.526 96.6105 280.343C96.9332 280.16 97.2998 280.068 97.7105 280.068V281.685H97.3035C96.8195 281.685 96.4528 281.799 96.2035 282.026C95.9615 282.253 95.8405 282.649 95.8405 283.214V286.25H94.3005V280.156H95.8405V281.102ZM104.413 283.071C104.413 283.291 104.398 283.489 104.369 283.665H99.9138C99.9504 284.105 100.104 284.45 100.376 284.699C100.647 284.948 100.981 285.073 101.377 285.073C101.949 285.073 102.356 284.827 102.598 284.336H104.259C104.083 284.923 103.745 285.407 103.247 285.788C102.748 286.162 102.136 286.349 101.41 286.349C100.823 286.349 100.295 286.221 99.8258 285.964C99.3638 285.7 99.0008 285.33 98.7368 284.853C98.4801 284.376 98.3518 283.826 98.3518 283.203C98.3518 282.572 98.4801 282.019 98.7368 281.542C98.9934 281.065 99.3528 280.699 99.8148 280.442C100.277 280.185 100.808 280.057 101.41 280.057C101.989 280.057 102.506 280.182 102.961 280.431C103.423 280.68 103.778 281.036 104.028 281.498C104.284 281.953 104.413 282.477 104.413 283.071ZM102.818 282.631C102.81 282.235 102.667 281.92 102.389 281.685C102.11 281.443 101.769 281.322 101.366 281.322C100.984 281.322 100.662 281.439 100.398 281.674C100.141 281.901 99.9834 282.22 99.9248 282.631H102.818ZM110.545 280.057C111 280.057 111.399 280.149 111.744 280.332C112.089 280.508 112.36 280.739 112.558 281.025V280.156H114.109V286.294C114.109 286.859 113.995 287.361 113.768 287.801C113.541 288.248 113.2 288.6 112.745 288.857C112.29 289.121 111.74 289.253 111.095 289.253C110.23 289.253 109.518 289.051 108.961 288.648C108.411 288.245 108.099 287.695 108.026 286.998H109.555C109.636 287.277 109.808 287.497 110.072 287.658C110.343 287.827 110.67 287.911 111.051 287.911C111.498 287.911 111.861 287.775 112.14 287.504C112.419 287.24 112.558 286.837 112.558 286.294V285.348C112.36 285.634 112.085 285.872 111.733 286.063C111.388 286.254 110.992 286.349 110.545 286.349C110.032 286.349 109.562 286.217 109.137 285.953C108.712 285.689 108.374 285.319 108.125 284.842C107.883 284.358 107.762 283.804 107.762 283.181C107.762 282.565 107.883 282.019 108.125 281.542C108.374 281.065 108.708 280.699 109.126 280.442C109.551 280.185 110.024 280.057 110.545 280.057ZM112.558 283.203C112.558 282.829 112.485 282.51 112.338 282.246C112.191 281.975 111.993 281.769 111.744 281.63C111.495 281.483 111.227 281.41 110.941 281.41C110.655 281.41 110.391 281.48 110.149 281.619C109.907 281.758 109.709 281.964 109.555 282.235C109.408 282.499 109.335 282.814 109.335 283.181C109.335 283.548 109.408 283.87 109.555 284.149C109.709 284.42 109.907 284.629 110.149 284.776C110.398 284.923 110.662 284.996 110.941 284.996C111.227 284.996 111.495 284.926 111.744 284.787C111.993 284.64 112.191 284.435 112.338 284.171C112.485 283.9 112.558 283.577 112.558 283.203ZM117.153 278.11V286.25H115.613V278.11H117.153ZM118.279 283.181C118.279 282.565 118.4 282.019 118.642 281.542C118.891 281.065 119.225 280.699 119.643 280.442C120.068 280.185 120.541 280.057 121.062 280.057C121.516 280.057 121.912 280.149 122.25 280.332C122.594 280.515 122.869 280.746 123.075 281.025V280.156H124.626V286.25H123.075V285.359C122.877 285.645 122.602 285.883 122.25 286.074C121.905 286.257 121.505 286.349 121.051 286.349C120.537 286.349 120.068 286.217 119.643 285.953C119.225 285.689 118.891 285.319 118.642 284.842C118.4 284.358 118.279 283.804 118.279 283.181ZM123.075 283.203C123.075 282.829 123.001 282.51 122.855 282.246C122.708 281.975 122.51 281.769 122.261 281.63C122.011 281.483 121.744 281.41 121.458 281.41C121.172 281.41 120.908 281.48 120.666 281.619C120.424 281.758 120.226 281.964 120.072 282.235C119.925 282.499 119.852 282.814 119.852 283.181C119.852 283.548 119.925 283.87 120.072 284.149C120.226 284.42 120.424 284.629 120.666 284.776C120.915 284.923 121.179 284.996 121.458 284.996C121.744 284.996 122.011 284.926 122.261 284.787C122.51 284.64 122.708 284.435 122.855 284.171C123.001 283.9 123.075 283.577 123.075 283.203ZM128.462 286.349C127.963 286.349 127.516 286.261 127.12 286.085C126.724 285.902 126.408 285.656 126.174 285.348C125.946 285.04 125.822 284.699 125.8 284.325H127.351C127.38 284.56 127.494 284.754 127.692 284.908C127.897 285.062 128.15 285.139 128.451 285.139C128.744 285.139 128.971 285.08 129.133 284.963C129.301 284.846 129.386 284.695 129.386 284.512C129.386 284.314 129.283 284.167 129.078 284.072C128.88 283.969 128.561 283.859 128.121 283.742C127.666 283.632 127.292 283.518 126.999 283.401C126.713 283.284 126.463 283.104 126.251 282.862C126.045 282.62 125.943 282.294 125.943 281.883C125.943 281.546 126.038 281.238 126.229 280.959C126.427 280.68 126.705 280.46 127.065 280.299C127.431 280.138 127.86 280.057 128.352 280.057C129.078 280.057 129.657 280.24 130.09 280.607C130.522 280.966 130.761 281.454 130.805 282.07H129.331C129.309 281.828 129.206 281.637 129.023 281.498C128.847 281.351 128.608 281.278 128.308 281.278C128.029 281.278 127.813 281.329 127.659 281.432C127.512 281.535 127.439 281.678 127.439 281.861C127.439 282.066 127.541 282.224 127.747 282.334C127.952 282.437 128.271 282.543 128.704 282.653C129.144 282.763 129.507 282.877 129.793 282.994C130.079 283.111 130.324 283.295 130.53 283.544C130.742 283.786 130.852 284.109 130.86 284.512C130.86 284.864 130.761 285.179 130.563 285.458C130.372 285.737 130.093 285.957 129.727 286.118C129.367 286.272 128.946 286.349 128.462 286.349ZM134.456 286.349C133.957 286.349 133.51 286.261 133.114 286.085C132.718 285.902 132.402 285.656 132.168 285.348C131.94 285.04 131.816 284.699 131.794 284.325H133.345C133.374 284.56 133.488 284.754 133.686 284.908C133.891 285.062 134.144 285.139 134.445 285.139C134.738 285.139 134.965 285.08 135.127 284.963C135.295 284.846 135.38 284.695 135.38 284.512C135.38 284.314 135.277 284.167 135.072 284.072C134.874 283.969 134.555 283.859 134.115 283.742C133.66 283.632 133.286 283.518 132.993 283.401C132.707 283.284 132.457 283.104 132.245 282.862C132.039 282.62 131.937 282.294 131.937 281.883C131.937 281.546 132.032 281.238 132.223 280.959C132.421 280.68 132.699 280.46 133.059 280.299C133.425 280.138 133.854 280.057 134.346 280.057C135.072 280.057 135.651 280.24 136.084 280.607C136.516 280.966 136.755 281.454 136.799 282.07H135.325C135.303 281.828 135.2 281.637 135.017 281.498C134.841 281.351 134.602 281.278 134.302 281.278C134.023 281.278 133.807 281.329 133.653 281.432C133.506 281.535 133.433 281.678 133.433 281.861C133.433 282.066 133.535 282.224 133.741 282.334C133.946 282.437 134.265 282.543 134.698 282.653C135.138 282.763 135.501 282.877 135.787 282.994C136.073 283.111 136.318 283.295 136.524 283.544C136.736 283.786 136.846 284.109 136.854 284.512C136.854 284.864 136.755 285.179 136.557 285.458C136.366 285.737 136.087 285.957 135.721 286.118C135.361 286.272 134.94 286.349 134.456 286.349ZM144.116 280.068C144.842 280.068 145.429 280.299 145.876 280.761C146.323 281.216 146.547 281.854 146.547 282.675V286.25H145.007V282.884C145.007 282.4 144.886 282.03 144.644 281.773C144.402 281.509 144.072 281.377 143.654 281.377C143.229 281.377 142.891 281.509 142.642 281.773C142.4 282.03 142.279 282.4 142.279 282.884V286.25H140.739V280.156H142.279V280.915C142.484 280.651 142.745 280.446 143.06 280.299C143.383 280.145 143.735 280.068 144.116 280.068ZM150.717 286.349C150.131 286.349 149.603 286.221 149.133 285.964C148.664 285.7 148.294 285.33 148.022 284.853C147.758 284.376 147.626 283.826 147.626 283.203C147.626 282.58 147.762 282.03 148.033 281.553C148.312 281.076 148.69 280.71 149.166 280.453C149.643 280.189 150.175 280.057 150.761 280.057C151.348 280.057 151.88 280.189 152.356 280.453C152.833 280.71 153.207 281.076 153.478 281.553C153.757 282.03 153.896 282.58 153.896 283.203C153.896 283.826 153.753 284.376 153.467 284.853C153.189 285.33 152.807 285.7 152.323 285.964C151.847 286.221 151.311 286.349 150.717 286.349ZM150.717 285.007C150.996 285.007 151.256 284.941 151.498 284.809C151.748 284.67 151.946 284.464 152.092 284.193C152.239 283.922 152.312 283.592 152.312 283.203C152.312 282.624 152.158 282.18 151.85 281.872C151.55 281.557 151.179 281.399 150.739 281.399C150.299 281.399 149.929 281.557 149.628 281.872C149.335 282.18 149.188 282.624 149.188 283.203C149.188 283.782 149.331 284.23 149.617 284.545C149.911 284.853 150.277 285.007 150.717 285.007ZM163.474 280.156L161.692 286.25H160.031L158.92 281.993L157.809 286.25H156.137L154.344 280.156H155.906L156.984 284.798L158.15 280.156H159.778L160.922 284.787L162 280.156H163.474ZM164.989 286.327C164.711 286.327 164.48 286.243 164.296 286.074C164.12 285.898 164.032 285.682 164.032 285.425C164.032 285.168 164.12 284.956 164.296 284.787C164.48 284.611 164.711 284.523 164.989 284.523C165.261 284.523 165.484 284.611 165.66 284.787C165.836 284.956 165.924 285.168 165.924 285.425C165.924 285.682 165.836 285.898 165.66 286.074C165.484 286.243 165.261 286.327 164.989 286.327Z" fill="#1D293D"/>
<defs>
<clipPath id="clip0_334_508">
<rect width="12" height="12" fill="white" transform="translate(31.7386 49.5029)"/>
</clipPath>
</defs>
</svg>
