<svg xmlns="http://www.w3.org/2000/svg" width="245" height="331" fill="none" viewBox="0 0 245 331"><path fill="#d9d9d9" fill-opacity=".2" d="M0 10C0 4.477 4.477 0 10 0h225c5.523 0 10 4.477 10 10v304.5c0 5.523-4.477 10-10 10H10c-5.523 0-10-4.477-10-10z"/><path fill="#fff" d="m40.465 170.451-2.24 4.27v2.72h-.7v-2.72l-2.26-4.27h.79l1.82 3.63 1.81-3.63zm3.414 7.07q-.77 0-1.39-.34a2.6 2.6 0 0 1-.97-.98q-.35-.64-.35-1.49t.36-1.48q.36-.64.98-.98.62-.35 1.39-.35t1.39.35q.63.34.98.98.36.63.36 1.48 0 .84-.36 1.48a2.5 2.5 0 0 1-.99.99q-.63.34-1.4.34m0-.61q.54 0 1-.24.46-.25.74-.74.29-.5.29-1.22t-.28-1.21a1.8 1.8 0 0 0-.74-.74 2.1 2.1 0 0 0-1-.25q-.54 0-1 .25a1.8 1.8 0 0 0-.74.74q-.27.49-.27 1.21t.27 1.22q.28.49.73.74.46.24 1 .24m8.756-4.93v5.46h-.7v-.96q-.24.51-.74.78t-1.12.27q-.98 0-1.6-.6-.62-.61-.62-1.76v-3.19h.69v3.11q0 .89.44 1.36.45.47 1.22.47.79 0 1.26-.5t.47-1.47v-2.97zm2.298.97a1.72 1.72 0 0 1 .7-.79q.48-.28 1.17-.28v.73h-.19q-.76 0-1.22.41t-.46 1.37v3.05h-.7v-5.46h.7zm6.357.24q.27-.57.83-.93.57-.36 1.34-.36.75 0 1.34.35.59.34.92.98.34.63.34 1.47t-.34 1.48q-.33.64-.93.99a2.55 2.55 0 0 1-1.33.35q-.78 0-1.35-.35a2.16 2.16 0 0 1-.82-.93v1.2h-.69v-7.4h.69zm4.06 1.51q0-.68-.27-1.17a1.8 1.8 0 0 0-.72-.76 2.1 2.1 0 0 0-1.04-.26q-.56 0-1.03.27a1.94 1.94 0 0 0-.73.77q-.27.5-.27 1.16t.27 1.16.73.77q.47.27 1.03.27a2.07 2.07 0 0 0 1.04-.26q.46-.27.72-.77.27-.51.27-1.18m2.349-3.75q-.21 0-.36-.15a.5.5 0 0 1-.15-.37q0-.219.15-.36.15-.15.36-.15t.36.15q.15.141.15.36 0 .22-.15.37t-.36.15m.35 1.03v5.46h-.7v-5.46zm3.975 5.54a2.84 2.84 0 0 1-1.39-.34 2.6 2.6 0 0 1-.97-.98q-.35-.64-.35-1.49t.36-1.48q.36-.64.98-.98.62-.35 1.39-.35t1.39.35q.63.34.98.98.36.63.36 1.48 0 .84-.36 1.48a2.5 2.5 0 0 1-.99.99q-.63.34-1.4.34m0-.61q.54 0 1-.24.46-.25.74-.74.29-.5.29-1.22t-.28-1.21a1.8 1.8 0 0 0-.74-.74 2.1 2.1 0 0 0-1-.25q-.54 0-1 .25a1.8 1.8 0 0 0-.74.74q-.27.49-.27 1.21t.27 1.22q.28.49.73.74.46.24 1 .24m4.726-6.87v7.4h-.7v-7.4zm3.975 7.48q-.77 0-1.39-.34a2.6 2.6 0 0 1-.97-.98q-.35-.64-.35-1.49t.36-1.48q.36-.64.98-.98.62-.35 1.39-.35t1.39.35q.63.34.98.98.36.63.36 1.48 0 .84-.36 1.48a2.5 2.5 0 0 1-.99.99q-.63.34-1.4.34m0-.61q.54 0 1-.24.46-.25.74-.74.29-.5.29-1.22t-.28-1.21a1.8 1.8 0 0 0-.74-.74 2.1 2.1 0 0 0-1-.25q-.54 0-1 .25a1.8 1.8 0 0 0-.74.74q-.27.49-.27 1.21t.27 1.22q.28.49.73.74.46.24 1 .24m6.316-5.01q.77 0 1.34.36t.82.91v-1.19h.7v5.6q0 .75-.33 1.33a2.2 2.2 0 0 1-.9.89 2.7 2.7 0 0 1-1.32.32q-1.05 0-1.75-.5a2.13 2.13 0 0 1-.86-1.36h.69q.18.57.68.91.51.34 1.24.34.53 0 .95-.23.42-.219.66-.66.24-.44.24-1.04v-1.35q-.26.561-.83.93-.56.36-1.33.36-.75 0-1.35-.35a2.47 2.47 0 0 1-.93-.99q-.33-.64-.33-1.48t.33-1.47q.34-.64.93-.98.6-.35 1.35-.35m2.16 2.81q0-.66-.27-1.16a1.9 1.9 0 0 0-.74-.77 2 2 0 0 0-1.02-.27 2.1 2.1 0 0 0-1.04.26q-.46.26-.73.76-.26.49-.26 1.17 0 .67.26 1.18.27.5.73.77.46.26 1.04.26.56 0 1.02-.27.47-.27.74-.77t.27-1.16m2.648-3.76q-.21 0-.36-.15a.5.5 0 0 1-.15-.37q0-.219.15-.36.15-.15.36-.15t.36.15q.15.141.15.36 0 .22-.15.37t-.36.15m.35 1.03v5.46h-.7v-5.46zm1.265 2.73q0-.85.34-1.48.34-.64.94-.98.6-.35 1.37-.35 1.01 0 1.66.5.66.5.85 1.36h-.75a1.5 1.5 0 0 0-.61-.92q-.46-.34-1.15-.34-.55 0-.99.25a1.8 1.8 0 0 0-.7.75q-.25.49-.25 1.21t.25 1.22q.26.501.7.75.44.25.99.25.69 0 1.15-.33a1.55 1.55 0 0 0 .61-.94h.75a2.3 2.3 0 0 1-.85 1.35q-.66.51-1.66.51-.77 0-1.37-.34-.6-.35-.94-.98-.34-.64-.34-1.49m6.133-.01q0-.84.33-1.47a2.4 2.4 0 0 1 .93-.98q.6-.35 1.35-.35.78 0 1.34.36.57.36.82.92v-1.2h.7v5.46h-.7v-1.21q-.26.561-.83.93-.56.36-1.34.36-.74 0-1.34-.35a2.46 2.46 0 0 1-.93-.99q-.33-.64-.33-1.48m4.77.01q0-.66-.27-1.16a1.9 1.9 0 0 0-.74-.77 2 2 0 0 0-1.02-.27q-.58 0-1.04.26t-.73.76q-.26.49-.26 1.17 0 .67.26 1.18.27.5.73.77.46.26 1.04.26.56 0 1.02-.27.47-.27.74-.77t.27-1.16m2.998-4.67v7.4h-.7v-7.4zm4.009 4.66q0-.84.33-1.47.34-.64.93-.98.6-.35 1.35-.35.78 0 1.34.36.57.36.82.92v-1.2h.7v5.46h-.7v-1.21q-.26.561-.83.93-.56.36-1.34.36-.74 0-1.34-.35a2.47 2.47 0 0 1-.93-.99q-.33-.64-.33-1.48m4.77.01q0-.66-.27-1.16a1.9 1.9 0 0 0-.74-.77 2 2 0 0 0-1.02-.27 2.1 2.1 0 0 0-1.04.26q-.46.26-.73.76-.26.49-.26 1.17 0 .67.26 1.18.27.5.73.77.46.26 1.04.26.56 0 1.02-.27.47-.27.74-.77t.27-1.16m4.588-2.81q.77 0 1.34.36t.82.91v-1.19h.7v5.6q0 .75-.33 1.33a2.17 2.17 0 0 1-.9.89q-.579.32-1.32.32-1.05 0-1.75-.5a2.13 2.13 0 0 1-.86-1.36h.69q.18.57.68.91.51.34 1.24.34.53 0 .95-.23.42-.219.66-.66.24-.44.24-1.04v-1.35q-.26.561-.83.93-.56.36-1.33.36-.75 0-1.35-.35a2.47 2.47 0 0 1-.93-.99q-.33-.64-.33-1.48t.33-1.47q.34-.64.93-.98.6-.35 1.35-.35m2.16 2.81q0-.66-.27-1.16a1.97 1.97 0 0 0-1.76-1.04q-.58 0-1.04.26t-.73.76q-.26.49-.26 1.17 0 .67.26 1.18.27.5.73.77.46.26 1.04.26a1.97 1.97 0 0 0 1.76-1.04q.27-.5.27-1.16m7.238-.28q0 .36-.02.55h-4.53q.03.62.3 1.06t.71.67q.441.22.96.22.681 0 1.14-.33.47-.33.62-.89h.74q-.2.8-.86 1.31-.65.5-1.64.5-.77 0-1.38-.34a2.5 2.5 0 0 1-.96-.98q-.34-.64-.34-1.49t.34-1.49.95-.98 1.39-.34 1.36.34q.591.34.9.92.32.57.32 1.27m-.71-.02q.01-.61-.25-1.04a1.6 1.6 0 0 0-.69-.65 2.1 2.1 0 0 0-.96-.22q-.78 0-1.33.5-.55.501-.61 1.41zm5.085-3.46q-.21 0-.36-.15a.5.5 0 0 1-.15-.37q0-.219.15-.36.15-.15.36-.15t.36.15q.15.141.15.36 0 .22-.15.37t-.36.15m.35 1.03v5.46h-.7v-5.46zm3.465 5.54q-.94 0-1.54-.43a1.6 1.6 0 0 1-.66-1.19h.72q.05.46.43.75.39.28 1.04.28.57 0 .89-.27.33-.27.33-.67 0-.28-.18-.46a1.2 1.2 0 0 0-.46-.28 6 6 0 0 0-.74-.23 7.5 7.5 0 0 1-.99-.32 1.74 1.74 0 0 1-.65-.47q-.26-.32-.26-.85 0-.4.24-.74a1.65 1.65 0 0 1 .68-.54 2.4 2.4 0 0 1 1-.2q.88 0 1.42.45.54.44.58 1.22h-.7a1.04 1.04 0 0 0-.38-.77q-.34-.3-.94-.3-.53 0-.86.25t-.33.62q0 .32.19.53.2.2.49.32.291.11.78.25.59.16.94.31.351.15.6.44.25.29.26.77 0 .44-.24.79-.24.34-.67.54a2.3 2.3 0 0 1-.99.2m5.672-.63q1.84-1.38 2.84-2.47 1.01-1.1 1.01-2.15 0-.69-.35-1.1-.34-.42-1.12-.42-.76 0-1.18.48-.41.471-.46 1.26h-.68q.06-1.11.68-1.72.63-.62 1.64-.62.97 0 1.57.55.6.54.6 1.54 0 1.21-1.01 2.35-1 1.13-2.47 2.21h3.7v.59h-4.77zm13.257-4.91-3.24 8.03h-.73l1.06-2.6-2.24-5.43h.77l1.86 4.66 1.8-4.66zm5.889 2.45q0 .36-.02.55h-4.53q.03.62.3 1.06t.71.67q.44.22.96.22.68 0 1.14-.33.47-.33.62-.89h.74q-.2.8-.86 1.31-.65.5-1.64.5-.77 0-1.38-.34a2.5 2.5 0 0 1-.96-.98q-.34-.64-.34-1.49t.34-1.49a2.37 2.37 0 0 1 .95-.98q.61-.34 1.39-.34t1.36.34q.59.34.9.92.32.57.32 1.27m-.71-.02q.01-.61-.25-1.04a1.63 1.63 0 0 0-.69-.65 2.1 2.1 0 0 0-.96-.22q-.78 0-1.33.5-.55.501-.61 1.41zm1.671.29q0-.84.33-1.47.339-.64.93-.98.6-.35 1.35-.35.78 0 1.34.36.57.36.82.92v-1.2h.7v5.46h-.7v-1.21q-.26.561-.83.93-.56.36-1.34.36-.74 0-1.34-.35a2.46 2.46 0 0 1-.93-.99q-.33-.64-.33-1.48m4.77.01q0-.66-.27-1.16a1.9 1.9 0 0 0-.74-.77 2 2 0 0 0-1.02-.27q-.58 0-1.04.26t-.73.76q-.26.49-.26 1.17 0 .67.26 1.18.27.5.73.77.46.26 1.04.26.56 0 1.02-.27.47-.27.74-.77t.27-1.16m2.998-1.76q.23-.51.7-.79.48-.28 1.17-.28v.73h-.19q-.76 0-1.22.41t-.46 1.37v3.05h-.7v-5.46h.7zm4.803 4.57q-.94 0-1.54-.43a1.6 1.6 0 0 1-.66-1.19h.72q.05.46.43.75.39.28 1.04.28.57 0 .89-.27.33-.27.33-.67 0-.28-.18-.46a1.2 1.2 0 0 0-.46-.28 6 6 0 0 0-.74-.23 7.4 7.4 0 0 1-.99-.32 1.74 1.74 0 0 1-.65-.47q-.26-.32-.26-.85 0-.4.24-.74a1.65 1.65 0 0 1 .68-.54q.44-.2 1-.2.88 0 1.42.45.54.44.58 1.22h-.7a1.04 1.04 0 0 0-.38-.77q-.34-.3-.94-.3-.53 0-.86.25t-.33.62q0 .32.19.53.2.2.49.32.29.11.78.25.59.16.94.31t.6.44.26.77q0 .44-.24.79-.24.34-.67.54t-.99.2m8.352 0q-.77 0-1.39-.34a2.6 2.6 0 0 1-.97-.98q-.35-.64-.35-1.49t.36-1.48q.36-.64.98-.98.62-.35 1.39-.35t1.39.35q.63.34.98.98.36.63.36 1.48 0 .84-.36 1.48a2.5 2.5 0 0 1-.99.99q-.63.34-1.4.34m0-.61q.54 0 1-.24a1.9 1.9 0 0 0 .74-.74q.29-.5.29-1.22t-.28-1.21a1.8 1.8 0 0 0-.74-.74 2.1 2.1 0 0 0-1-.25q-.54 0-1 .25-.46.24-.74.74-.27.49-.27 1.21t.27 1.22q.28.49.73.74.46.24 1 .24m4.726-6.87v7.4h-.7v-7.4zm1.265 4.66q0-.84.34-1.47.34-.64.93-.98.6-.35 1.35-.35.72 0 1.3.35t.85.91v-3.12h.7v7.4h-.7v-1.22q-.25.57-.82.94-.57.36-1.34.36-.75 0-1.35-.35a2.47 2.47 0 0 1-.93-.99q-.33-.64-.33-1.48m4.77.01q0-.66-.27-1.16a1.9 1.9 0 0 0-.74-.77 2 2 0 0 0-1.02-.27 2.1 2.1 0 0 0-1.04.26q-.46.26-.73.76-.26.49-.26 1.17 0 .67.26 1.18.27.5.73.77.46.26 1.04.26.56 0 1.02-.27.47-.27.74-.77t.27-1.16m7.238-.28q0 .36-.02.55h-4.53q.03.62.3 1.06t.71.67q.44.22.96.22.68 0 1.14-.33.47-.33.62-.89h.74q-.2.8-.86 1.31-.65.5-1.64.5-.77 0-1.38-.34a2.5 2.5 0 0 1-.96-.98q-.34-.64-.34-1.49t.34-1.49a2.37 2.37 0 0 1 .95-.98q.61-.34 1.39-.34t1.36.34q.59.34.9.92.32.57.32 1.27m-.71-.02q.01-.61-.25-1.04a1.63 1.63 0 0 0-.69-.65 2.1 2.1 0 0 0-.96-.22q-.78 0-1.33.5-.55.501-.61 1.41zm2.691-1.46q.23-.51.7-.79.48-.28 1.17-.28v.73h-.19q-.76 0-1.22.41t-.46 1.37v3.05h-.7v-5.46h.7zm-168.247 14.62v3.39q0 .501.19.69.19.19.67.19h.64v.6h-.75q-.74 0-1.1-.34-.36-.35-.36-1.14v-3.39h-.76v-.59h.76v-1.37h.71v1.37h1.5v.59zm5.254-.69q.62 0 1.11.26.5.26.78.8.29.53.29 1.3v3.2h-.69v-3.12q0-.89-.45-1.36-.44-.47-1.21-.47-.79 0-1.26.5-.47.501-.47 1.47v2.98h-.7v-7.4h.7v2.87a1.8 1.8 0 0 1 .76-.76q.51-.27 1.14-.27m3.408 2.82q0-.84.33-1.47.34-.64.93-.98.6-.35 1.35-.35.78 0 1.34.36.57.36.82.92v-1.2h.7v5.46h-.7v-1.21q-.26.561-.83.93-.56.36-1.34.36-.74 0-1.34-.35a2.47 2.47 0 0 1-.93-.99q-.33-.64-.33-1.48m4.77.01q0-.66-.27-1.16a1.9 1.9 0 0 0-.74-.77 2 2 0 0 0-1.02-.27 2.1 2.1 0 0 0-1.04.26q-.46.26-.73.76-.26.49-.26 1.17 0 .67.26 1.18.27.5.73.77.46.26 1.04.26.561 0 1.02-.27.47-.27.74-.77t.27-1.16m4.858-2.83q.98 0 1.6.61.62.6.62 1.75v3.2h-.69v-3.12q0-.89-.45-1.36-.44-.47-1.21-.47-.79 0-1.26.5-.47.501-.47 1.47v2.98h-.7v-5.46h.7v.93q.26-.5.75-.76.49-.27 1.11-.27m11.012.1-3.24 8.03h-.73l1.06-2.6-2.24-5.43h.77l1.86 4.66 1.8-4.66zm3.34 5.54q-.77 0-1.39-.34a2.6 2.6 0 0 1-.97-.98q-.35-.64-.35-1.49t.36-1.48a2.5 2.5 0 0 1 .98-.98q.62-.35 1.39-.35t1.39.35a2.4 2.4 0 0 1 .98.98q.36.63.36 1.48 0 .84-.36 1.48a2.5 2.5 0 0 1-.99.99q-.63.34-1.4.34m0-.61q.54 0 1-.24.46-.25.74-.74.29-.5.29-1.22t-.28-1.21a1.8 1.8 0 0 0-.74-.74 2.1 2.1 0 0 0-1-.25q-.54 0-1 .25a1.8 1.8 0 0 0-.74.74q-.27.49-.27 1.21t.27 1.22q.28.49.73.74.46.24 1 .24m8.756-4.93v5.46h-.7v-.96q-.24.51-.74.78a2.3 2.3 0 0 1-1.12.27q-.98 0-1.6-.6-.62-.61-.62-1.76v-3.19h.69v3.11q0 .89.44 1.36.45.47 1.22.47.789 0 1.26-.5.47-.5.47-1.47v-2.97zm2.298.97a1.72 1.72 0 0 1 .7-.79q.48-.28 1.17-.28v.73h-.19q-.76 0-1.22.41t-.46 1.37v3.05h-.7v-5.46h.7zm5.347 1.76q0-.85.34-1.48.34-.64.94-.98.6-.35 1.37-.35 1.01 0 1.66.5.66.5.85 1.36h-.75a1.5 1.5 0 0 0-.61-.92q-.46-.34-1.15-.34-.55 0-.99.25a1.8 1.8 0 0 0-.7.75q-.25.49-.25 1.21t.25 1.22q.26.501.7.75.44.25.99.25.69 0 1.15-.33a1.55 1.55 0 0 0 .61-.94h.75a2.3 2.3 0 0 1-.85 1.35q-.66.51-1.66.51-.77 0-1.37-.34-.6-.35-.94-.98-.34-.64-.34-1.49m9.053-2.83q.62 0 1.11.26.5.26.78.8.29.53.29 1.3v3.2h-.69v-3.12q0-.89-.45-1.36-.44-.47-1.21-.47-.79 0-1.26.5-.47.501-.47 1.47v2.98h-.7v-7.4h.7v2.87a1.8 1.8 0 0 1 .76-.76q.51-.27 1.14-.27m4.428 1.07a1.72 1.72 0 0 1 .7-.79q.48-.28 1.17-.28v.73h-.19q-.76 0-1.22.41t-.46 1.37v3.05h-.7v-5.46h.7zm5.313 4.57q-.77 0-1.39-.34a2.6 2.6 0 0 1-.97-.98q-.35-.64-.35-1.49t.36-1.48q.36-.64.98-.98.62-.35 1.39-.35t1.39.35q.63.34.98.98.36.63.36 1.48 0 .84-.36 1.48a2.5 2.5 0 0 1-.99.99q-.63.34-1.4.34m0-.61q.54 0 1-.24.46-.25.74-.74.29-.5.29-1.22t-.28-1.21a1.8 1.8 0 0 0-.74-.74 2.1 2.1 0 0 0-1-.25q-.54 0-1 .25a1.8 1.8 0 0 0-.74.74q-.27.49-.27 1.21t.27 1.22q.28.49.73.74.46.24 1 .24m6.586-5.03q.98 0 1.6.61.62.6.62 1.75v3.2h-.69v-3.12q0-.89-.45-1.36-.44-.47-1.21-.47-.79 0-1.26.5-.47.501-.47 1.47v2.98h-.7v-5.46h.7v.93q.26-.5.75-.76.49-.27 1.11-.27m6.158 5.64q-.77 0-1.39-.34a2.6 2.6 0 0 1-.97-.98q-.35-.64-.35-1.49t.36-1.48q.36-.64.98-.98.62-.35 1.39-.35t1.39.35q.63.34.98.98.36.63.36 1.48 0 .84-.36 1.48a2.5 2.5 0 0 1-.99.99q-.63.34-1.4.34m0-.61q.54 0 1-.24.46-.25.74-.74.29-.5.29-1.22t-.28-1.21a1.8 1.8 0 0 0-.74-.74 2.1 2.1 0 0 0-1-.25q-.54 0-1 .25a1.8 1.8 0 0 0-.74.74q-.27.49-.27 1.21t.27 1.22q.28.49.73.74.46.24 1 .24m4.726-6.87v7.4h-.7v-7.4zm3.975 7.48q-.77 0-1.39-.34a2.6 2.6 0 0 1-.97-.98q-.35-.64-.35-1.49t.36-1.48q.36-.64.98-.98.62-.35 1.39-.35t1.39.35q.63.34.98.98.36.63.36 1.48 0 .84-.36 1.48a2.5 2.5 0 0 1-.99.99q-.63.34-1.4.34m0-.61q.54 0 1-.24.46-.25.74-.74.29-.5.29-1.22t-.28-1.21a1.8 1.8 0 0 0-.74-.74 2.1 2.1 0 0 0-1-.25q-.54 0-1 .25-.46.24-.74.74-.27.49-.27 1.21t.27 1.22q.28.49.73.74.46.24 1 .24m6.316-5.01q.77 0 1.34.36t.82.91v-1.19h.7v5.6q0 .75-.33 1.33a2.17 2.17 0 0 1-.9.89q-.579.32-1.32.32-1.05 0-1.75-.5a2.13 2.13 0 0 1-.86-1.36h.69q.18.57.68.91.51.34 1.24.34.53 0 .95-.23.42-.219.66-.66.24-.44.24-1.04v-1.35q-.26.561-.83.93-.56.36-1.33.36-.75 0-1.35-.35a2.47 2.47 0 0 1-.93-.99q-.33-.64-.33-1.48t.33-1.47q.34-.64.93-.98.6-.35 1.35-.35m2.16 2.81q0-.66-.27-1.16a1.97 1.97 0 0 0-1.76-1.04q-.58 0-1.04.26t-.73.76q-.26.49-.26 1.17 0 .67.26 1.18.27.5.73.77.46.26 1.04.26a1.97 1.97 0 0 0 1.76-1.04q.27-.5.27-1.16m2.648-3.76q-.21 0-.36-.15a.5.5 0 0 1-.15-.37q0-.219.15-.36.15-.15.36-.15t.36.15q.15.141.15.36 0 .22-.15.37t-.36.15m.35 1.03v5.46h-.7v-5.46zm1.266 2.73q0-.85.34-1.48.34-.64.94-.98.6-.35 1.37-.35 1.01 0 1.66.5.66.5.85 1.36h-.75a1.5 1.5 0 0 0-.61-.92q-.46-.34-1.15-.34-.55 0-.99.25a1.8 1.8 0 0 0-.7.75q-.25.49-.25 1.21t.25 1.22q.26.501.7.75.44.25.99.25.69 0 1.15-.33.47-.34.61-.94h.75q-.19.84-.85 1.35t-1.66.51q-.77 0-1.37-.34-.6-.35-.94-.98-.34-.64-.34-1.49m6.132-.01q0-.84.33-1.47.34-.64.93-.98.6-.35 1.35-.35.78 0 1.34.36.57.36.82.92v-1.2h.7v5.46h-.7v-1.21q-.26.561-.83.93-.56.36-1.34.36-.74 0-1.34-.35a2.47 2.47 0 0 1-.93-.99q-.33-.64-.33-1.48m4.77.01q0-.66-.27-1.16a1.97 1.97 0 0 0-1.76-1.04q-.58 0-1.04.26t-.73.76q-.26.49-.26 1.17 0 .67.26 1.18.27.5.73.77.46.26 1.04.26a1.97 1.97 0 0 0 1.76-1.04q.27-.5.27-1.16m2.998-4.67v7.4h-.7v-7.4zm4.01 4.66q0-.84.33-1.47.339-.64.93-.98.6-.35 1.35-.35.78 0 1.34.36.57.36.82.92v-1.2h.7v5.46h-.7v-1.21q-.26.561-.83.93-.56.36-1.34.36-.74 0-1.34-.35a2.46 2.46 0 0 1-.93-.99q-.33-.64-.33-1.48m4.77.01q0-.66-.27-1.16a1.9 1.9 0 0 0-.74-.77 2 2 0 0 0-1.02-.27q-.58 0-1.04.26t-.73.76q-.26.49-.26 1.17 0 .67.26 1.18.27.5.73.77.46.26 1.04.26.56 0 1.02-.27.47-.27.74-.77t.27-1.16m4.588-2.81q.77 0 1.34.36t.82.91v-1.19h.7v5.6q0 .75-.33 1.33a2.2 2.2 0 0 1-.9.89q-.58.32-1.32.32-1.05 0-1.75-.5a2.12 2.12 0 0 1-.86-1.36h.69q.18.57.68.91.51.34 1.24.34.53 0 .95-.23.42-.219.66-.66.24-.44.24-1.04v-1.35q-.26.561-.83.93-.56.36-1.33.36-.75 0-1.35-.35a2.46 2.46 0 0 1-.93-.99q-.33-.64-.33-1.48t.33-1.47q.339-.64.93-.98.6-.35 1.35-.35m2.16 2.81q0-.66-.27-1.16a1.9 1.9 0 0 0-.74-.77 2 2 0 0 0-1.02-.27q-.58 0-1.04.26t-.73.76q-.26.49-.26 1.17 0 .67.26 1.18.27.5.73.77.46.26 1.04.26.56 0 1.02-.27.47-.27.74-.77t.27-1.16m7.238-.28q0 .36-.02.55h-4.53q.03.62.3 1.06t.71.67q.44.22.96.22.68 0 1.14-.33.47-.33.62-.89h.74q-.2.8-.86 1.31-.65.5-1.64.5-.771 0-1.38-.34a2.5 2.5 0 0 1-.96-.98q-.34-.64-.34-1.49t.34-1.49.95-.98 1.39-.34 1.36.34q.59.34.9.92.32.57.32 1.27m-.71-.02q.01-.61-.25-1.04a1.63 1.63 0 0 0-.69-.65 2.1 2.1 0 0 0-.96-.22q-.78 0-1.33.5-.55.501-.61 1.41zm2.11 3.08a.5.5 0 0 1-.37-.15.52.52 0 0 1-.14-.37.5.5 0 0 1 .14-.36q.15-.15.37-.15.21 0 .35.15.15.141.15.36 0 .22-.15.37-.14.15-.35.15"/><path fill="#f5f6f7" d="M28.503 29.568q.784.142 1.33.826.546.687.546 1.554 0 .742-.392 1.344-.377.588-1.106.938-.728.336-1.694.336h-3.892v-9.73h3.71q.994 0 1.708.336t1.078.91q.364.561.364 1.26 0 .84-.448 1.4-.448.561-1.204.826m-3.612-.644h1.974q.784 0 1.218-.35.448-.364.448-1.036 0-.657-.448-1.022-.434-.378-1.218-.378h-1.974zm2.156 4.34q.812 0 1.274-.392.462-.39.462-1.092 0-.714-.49-1.134t-1.302-.42h-2.1v3.038zm5.878-7.434a1 1 0 0 1-.728-.294 1 1 0 0 1-.294-.728q0-.434.294-.728a1 1 0 0 1 .728-.294q.42 0 .714.294a1 1 0 0 1 .294.728q0 .434-.294.728a.97.97 0 0 1-.714.294m.784 1.022v7.714h-1.596v-7.714zm5.442 7.84a4 4 0 0 1-1.974-.49 3.63 3.63 0 0 1-1.386-1.4q-.504-.909-.504-2.1 0-1.176.518-2.086a3.6 3.6 0 0 1 1.414-1.4 4.1 4.1 0 0 1 2.002-.49q1.105 0 2.002.49a3.6 3.6 0 0 1 1.414 1.4q.518.91.518 2.086 0 1.177-.532 2.086a3.7 3.7 0 0 1-1.456 1.414 4.2 4.2 0 0 1-2.016.49m0-1.386q.615 0 1.148-.294.546-.294.882-.882t.336-1.428q0-.839-.322-1.414a2.16 2.16 0 0 0-.854-.882 2.34 2.34 0 0 0-1.148-.294q-.616 0-1.148.294-.518.294-.826.882-.308.574-.308 1.414 0 1.246.63 1.932.645.672 1.61.672m7.177-9.1v10.36h-1.596v-10.36zm5.442 10.486a4 4 0 0 1-1.974-.49 3.63 3.63 0 0 1-1.386-1.4q-.504-.909-.504-2.1 0-1.176.518-2.086a3.6 3.6 0 0 1 1.414-1.4 4.1 4.1 0 0 1 2.002-.49q1.106 0 2.002.49a3.6 3.6 0 0 1 1.414 1.4q.518.91.518 2.086 0 1.177-.532 2.086a3.7 3.7 0 0 1-1.456 1.414 4.2 4.2 0 0 1-2.016.49m0-1.386q.615 0 1.148-.294.546-.294.882-.882t.336-1.428q0-.839-.322-1.414a2.16 2.16 0 0 0-.854-.882 2.34 2.34 0 0 0-1.148-.294q-.615 0-1.148.294-.517.294-.826.882-.308.574-.308 1.414 0 1.246.63 1.932.645.672 1.61.672m8.69-6.58q.895 0 1.582.364.699.351 1.092.882v-1.12h1.61v7.84q0 1.065-.448 1.89-.448.841-1.302 1.316-.84.476-2.016.476-1.569 0-2.604-.742a2.69 2.69 0 0 1-1.176-1.988h1.582q.182.603.77.966.602.378 1.428.378.966 0 1.554-.588.602-.587.602-1.708v-1.288q-.407.546-1.106.924-.686.364-1.568.364a3.5 3.5 0 0 1-1.848-.504 3.74 3.74 0 0 1-1.316-1.428q-.477-.923-.476-2.086 0-1.161.476-2.058a3.56 3.56 0 0 1 3.164-1.89m2.674 3.976q0-.798-.336-1.386a2.26 2.26 0 0 0-.854-.896 2.25 2.25 0 0 0-1.148-.308q-.617 0-1.148.308-.532.294-.868.882-.322.574-.322 1.372t.322 1.4q.336.603.868.924.546.309 1.148.308.615 0 1.148-.308a2.26 2.26 0 0 0 .854-.896q.336-.601.336-1.4m4.518-4.872a1 1 0 0 1-.728-.294 1 1 0 0 1-.294-.728q0-.434.294-.728a1 1 0 0 1 .728-.294q.42 0 .714.294a1 1 0 0 1 .294.728q0 .434-.294.728a.97.97 0 0 1-.714.294m.784 1.022v7.714H66.84v-7.714zm1.563 3.85q0-1.19.476-2.086a3.47 3.47 0 0 1 1.344-1.4q.855-.49 1.96-.49 1.401 0 2.31.672.924.66 1.246 1.89h-1.722a1.82 1.82 0 0 0-.672-.896q-.462-.321-1.162-.322-.98 0-1.568.7-.573.687-.574 1.932 0 1.247.574 1.946.588.7 1.568.7 1.387 0 1.834-1.218h1.722q-.336 1.176-1.26 1.876-.924.687-2.296.686-1.105 0-1.96-.49a3.6 3.6 0 0 1-1.344-1.4q-.476-.909-.476-2.1m8.395-.028q0-1.161.476-2.058a3.56 3.56 0 0 1 3.164-1.89q.91 0 1.582.364.685.351 1.092.882v-1.12h1.61v7.714h-1.61v-1.148q-.406.547-1.106.91-.7.364-1.596.364-.995 0-1.82-.504a3.74 3.74 0 0 1-1.316-1.428q-.476-.923-.476-2.086m6.314.028q0-.798-.336-1.386-.323-.588-.854-.896a2.25 2.25 0 0 0-1.148-.308q-.616 0-1.148.308-.532.294-.868.882-.322.574-.322 1.372t.322 1.4q.336.603.868.924.546.309 1.148.308.615 0 1.148-.308t.854-.896q.336-.601.336-1.4m5.302-6.496v10.36h-1.596v-10.36zm5.2 6.468q0-1.161.476-2.058a3.56 3.56 0 0 1 3.164-1.89q.91 0 1.582.364.687.351 1.092.882v-1.12h1.61v7.714h-1.61v-1.148q-.405.547-1.106.91-.699.364-1.596.364-.994 0-1.82-.504a3.74 3.74 0 0 1-1.316-1.428q-.476-.923-.476-2.086m6.314.028q0-.798-.336-1.386a2.25 2.25 0 0 0-.854-.896 2.25 2.25 0 0 0-1.148-.308q-.615 0-1.148.308-.531.294-.868.882-.322.574-.322 1.372t.322 1.4q.337.603.868.924.546.309 1.148.308.616 0 1.148-.308.533-.308.854-.896.336-.601.336-1.4m6.815-3.976q.895 0 1.582.364.699.351 1.092.882v-1.12h1.61v7.84q0 1.065-.448 1.89-.449.841-1.302 1.316-.84.476-2.016.476-1.569 0-2.604-.742a2.69 2.69 0 0 1-1.176-1.988h1.582q.182.603.77.966.602.378 1.428.378.966 0 1.554-.588.602-.587.602-1.708v-1.288q-.407.546-1.106.924-.687.364-1.568.364a3.5 3.5 0 0 1-1.848-.504 3.73 3.73 0 0 1-1.316-1.428q-.477-.923-.476-2.086 0-1.161.476-2.058a3.55 3.55 0 0 1 3.164-1.89m2.674 3.976q0-.798-.336-1.386-.323-.588-.854-.896a2.26 2.26 0 0 0-1.148-.308 2.25 2.25 0 0 0-1.148.308q-.532.294-.868.882-.322.574-.322 1.372t.322 1.4q.336.603.868.924a2.3 2.3 0 0 0 2.296 0q.531-.308.854-.896.336-.601.336-1.4m10.776-.182q0 .435-.056.784h-5.894q.07.924.686 1.484.615.56 1.512.56 1.287 0 1.82-1.078h1.722a3.5 3.5 0 0 1-1.274 1.75q-.91.672-2.268.672-1.106 0-1.988-.49a3.66 3.66 0 0 1-1.372-1.4q-.49-.909-.49-2.1 0-1.19.476-2.086a3.44 3.44 0 0 1 1.358-1.4q.882-.49 2.016-.49 1.091.001 1.946.476a3.36 3.36 0 0 1 1.33 1.344q.476.855.476 1.974m-1.666-.504q-.015-.882-.63-1.414-.617-.532-1.526-.532-.826 0-1.414.532-.589.519-.7 1.414z"/><path fill="#69a372" d="M85.878 123.774q.37-4.822 3.71-7.579 3.392-2.808 8.745-2.809 3.55 0 6.095 1.272t3.816 3.498q1.325 2.173 1.325 4.929 0 3.34-1.961 5.777-1.962 2.439-5.565 3.021v.265q3.762.742 5.989 3.286 2.226 2.492 2.226 6.572 0 4.559-3.074 7.473-3.021 2.862-8.798 2.862-5.512 0-9.063-2.862-3.552-2.914-4.081-8.215h3.604q.477 3.552 2.968 5.777 2.49 2.173 6.572 2.173 4.027 0 6.148-2.12 2.173-2.12 2.173-5.406 0-8.055-11.607-8.056h-1.166v-3.127h1.219q10.812 0 10.812-7.049 0-3.073-2.014-4.929-2.014-1.908-5.724-1.908-3.605 0-5.99 1.908-2.332 1.855-2.755 5.247zm38.529 8.586q-3.286-1.059-5.035-3.339-1.696-2.278-1.696-5.512 0-2.862 1.431-5.088 1.484-2.279 4.293-3.551 2.808-1.325 6.731-1.325 3.921 0 6.731 1.325 2.809 1.272 4.24 3.551 1.484 2.226 1.484 5.088 0 3.18-1.749 5.512-1.697 2.333-4.982 3.339 3.603.901 5.671 3.445t2.067 6.201q0 3.393-1.696 5.936-1.644 2.492-4.717 3.869-3.021 1.378-7.049 1.378t-7.102-1.378q-3.022-1.377-4.717-3.869-1.644-2.543-1.643-5.936 0-3.657 2.067-6.201t5.671-3.445m14.575-8.427q0-3.498-2.385-5.406-2.386-1.908-6.466-1.908-4.081 0-6.466 1.908-2.385 1.855-2.385 5.406 0 3.287 2.438 5.247 2.438 1.962 6.413 1.961t6.413-1.961 2.438-5.247m-8.851 10.07q-4.347 0-7.102 1.961-2.757 1.962-2.756 5.936 0 3.816 2.65 5.989t7.208 2.173q4.505 0 7.155-2.173 2.65-2.226 2.65-5.989 0-3.921-2.756-5.883-2.703-2.014-7.049-2.014"/><path fill="#fff" d="M20.72 268.925h-3.18l-.61 1.66h-.74l2.55-6.9h.79l2.54 6.9h-.74zm-.21-.58-1.38-3.78-1.38 3.78zm4.973-3.3q.77 0 1.34.36t.82.91v-1.19h.7v5.6q0 .75-.33 1.33a2.2 2.2 0 0 1-.9.89 2.7 2.7 0 0 1-1.32.32q-1.05 0-1.75-.5a2.13 2.13 0 0 1-.86-1.36h.69q.18.57.68.91.51.34 1.24.34.53 0 .95-.23.42-.22.66-.66t.24-1.04v-1.35q-.26.56-.83.93-.56.36-1.33.36-.75 0-1.35-.35a2.47 2.47 0 0 1-.93-.99q-.33-.64-.33-1.48t.33-1.47q.34-.64.93-.98.6-.35 1.35-.35m2.16 2.81q0-.66-.27-1.16a1.9 1.9 0 0 0-.74-.77 2 2 0 0 0-1.02-.27 2.1 2.1 0 0 0-1.04.26q-.46.26-.73.76-.26.49-.26 1.17 0 .67.26 1.18.27.5.73.77.46.26 1.04.26.56 0 1.02-.27.47-.27.74-.77t.27-1.16m2.648-3.76q-.21 0-.36-.15a.5.5 0 0 1-.15-.37.47.47 0 0 1 .15-.36q.15-.15.36-.15t.36.15q.15.14.15.36t-.15.37-.36.15m.35 1.03v5.46h-.7v-5.46zm4.145-.1q.98 0 1.6.61.62.6.62 1.75v3.2h-.69v-3.12q0-.89-.45-1.36-.44-.47-1.21-.47-.79 0-1.26.5t-.47 1.47v2.98h-.7v-5.46h.7v.93q.26-.5.75-.76.49-.27 1.11-.27m11.012.1-3.24 8.03h-.73l1.06-2.6-2.24-5.43h.77l1.86 4.66 1.8-4.66zm3.34 5.54a2.84 2.84 0 0 1-1.39-.34 2.6 2.6 0 0 1-.97-.98q-.35-.64-.35-1.49t.36-1.48q.36-.64.98-.98.62-.35 1.39-.35t1.39.35q.63.34.98.98.36.63.36 1.48 0 .84-.36 1.48a2.5 2.5 0 0 1-.99.99q-.63.34-1.4.34m0-.61q.54 0 1-.24a1.9 1.9 0 0 0 .74-.74q.29-.5.29-1.22t-.28-1.21a1.8 1.8 0 0 0-.74-.74 2.06 2.06 0 0 0-1-.25q-.54 0-1 .25a1.8 1.8 0 0 0-.74.74q-.27.49-.27 1.21t.27 1.22q.28.49.73.74.46.24 1 .24m8.756-4.93v5.46h-.7v-.96q-.24.51-.74.78t-1.12.27q-.98 0-1.6-.6-.62-.61-.62-1.76v-3.19h.69v3.11q0 .89.44 1.36.45.47 1.22.47.789 0 1.26-.5.47-.5.47-1.47v-2.97zM17.07 282.129h2.008v.456H16.51v-5.592h.56zm4.463-5.136q.927 0 1.592.336.663.336 1.016.968.352.632.352 1.504 0 .864-.352 1.496a2.36 2.36 0 0 1-1.016.96q-.665.328-1.592.328h-1.656v-5.592zm0 5.128q1.167 0 1.776-.608.616-.616.616-1.712 0-1.104-.616-1.72-.609-.624-1.776-.624h-1.096v4.664zm4.552.008h2.008v.456h-2.568v-5.592h.56zm4.747-2.344q0-.824.36-1.472a2.6 2.6 0 0 1 .984-1.016q.624-.368 1.392-.368.936 0 1.6.448.672.44.976 1.248h-.656a1.9 1.9 0 0 0-.736-.888q-.488-.32-1.184-.32-.617 0-1.112.288a2 2 0 0 0-.768.832q-.28.536-.28 1.248 0 .713.28 1.248.279.536.768.824.495.288 1.112.288.695 0 1.184-.312.495-.32.736-.88h.656a2.5 2.5 0 0 1-.976 1.24q-.672.44-1.6.44-.768 0-1.392-.36a2.65 2.65 0 0 1-.984-1.016 3 3 0 0 1-.36-1.472m8.508-1.648q.495 0 .887.208.4.208.625.64.231.424.232 1.04v2.56h-.553v-2.496q0-.712-.36-1.088-.351-.376-.968-.376-.63 0-1.008.4-.376.4-.376 1.176v2.384h-.56v-5.92h.56v2.296q.21-.392.608-.608.41-.216.913-.216m4.894 4.512q-.615 0-1.112-.272a2.07 2.07 0 0 1-.776-.784q-.28-.512-.28-1.192t.288-1.184a2 2 0 0 1 .784-.784q.495-.28 1.112-.28.615 0 1.112.28.504.272.784.784.288.504.288 1.184 0 .672-.288 1.184a2 2 0 0 1-.792.792q-.505.272-1.12.272m0-.488q.432 0 .8-.192.368-.2.592-.592.232-.4.232-.976t-.224-.968a1.44 1.44 0 0 0-.592-.592 1.65 1.65 0 0 0-.8-.2q-.432 0-.8.2a1.44 1.44 0 0 0-.592.592q-.216.392-.216.968t.216.976q.224.392.584.592.368.192.8.192m3.78-5.496v5.92h-.56v-5.92zm5.22 3.512q0 .288-.015.44h-3.624q.024.496.24.848t.568.536q.352.176.768.176.544 0 .912-.264.376-.264.496-.712h.592a1.86 1.86 0 0 1-.688 1.048q-.52.4-1.312.4-.616 0-1.104-.272a2 2 0 0 1-.768-.784q-.272-.512-.272-1.192t.272-1.192.76-.784a2.25 2.25 0 0 1 1.112-.272q.624 0 1.088.272.473.272.72.736.255.456.256 1.016m-.567-.016q.008-.488-.2-.832a1.3 1.3 0 0 0-.552-.52 1.7 1.7 0 0 0-.768-.176q-.624 0-1.064.4t-.488 1.128zm3.096 2.488q-.75 0-1.231-.344a1.29 1.29 0 0 1-.528-.952h.576a.84.84 0 0 0 .343.6q.313.224.832.224.456 0 .712-.216a.67.67 0 0 0 .264-.536.5.5 0 0 0-.144-.368 1 1 0 0 0-.368-.224 5 5 0 0 0-.592-.184 6 6 0 0 1-.791-.256 1.4 1.4 0 0 1-.52-.376q-.21-.256-.209-.68 0-.32.193-.592.192-.272.544-.432.35-.16.8-.16.704 0 1.136.36.432.352.463.976h-.56a.83.83 0 0 0-.303-.616q-.273-.24-.753-.24-.424 0-.687.2a.6.6 0 0 0-.264.496q0 .256.151.424.16.16.392.256.233.088.624.2.473.128.752.248a1.3 1.3 0 0 1 .48.352q.2.232.208.616 0 .352-.191.632a1.3 1.3 0 0 1-.536.432q-.345.16-.792.16m3.303-3.96v2.712q0 .4.152.552t.536.152h.512v.48h-.6q-.592 0-.88-.272-.288-.28-.288-.912v-2.712h-.608v-.472h.608v-1.096h.568v1.096h1.2v.472zm2.683.304q.185-.408.56-.632.384-.224.936-.224v.584h-.152q-.607 0-.976.328-.368.328-.368 1.096v2.44h-.56v-4.368h.56zm4.25 3.656q-.615 0-1.111-.272a2.07 2.07 0 0 1-.776-.784q-.28-.512-.28-1.192t.288-1.184a2 2 0 0 1 .784-.784 2.2 2.2 0 0 1 1.112-.28q.615 0 1.112.28.504.272.784.784.288.504.288 1.184 0 .672-.288 1.184a2 2 0 0 1-.792.792q-.504.272-1.12.272m0-.488q.433 0 .8-.192.368-.2.593-.592.231-.4.232-.976 0-.576-.224-.968a1.44 1.44 0 0 0-.592-.592 1.65 1.65 0 0 0-.8-.2q-.432 0-.8.2a1.44 1.44 0 0 0-.592.592q-.216.392-.216.968t.216.976q.224.392.584.592.368.192.8.192m3.781-5.496v5.92h-.56v-5.92zm1.78 4.992-.831 2.096h-.384l.592-2.096zm7.283.928h-.56l-3.096-4.704v4.704h-.56v-5.592h.56l3.096 4.696v-4.696h.56zm3.18.064q-.615 0-1.112-.272a2.07 2.07 0 0 1-.776-.784q-.28-.512-.28-1.192t.288-1.184a2 2 0 0 1 .784-.784q.495-.28 1.112-.28.615 0 1.112.28.504.272.784.784.288.504.288 1.184 0 .672-.288 1.184a2 2 0 0 1-.792.792q-.504.272-1.12.272m0-.488q.432 0 .8-.192.368-.2.592-.592.232-.4.232-.976t-.224-.968a1.44 1.44 0 0 0-.592-.592 1.65 1.65 0 0 0-.8-.2q-.432 0-.8.2a1.44 1.44 0 0 0-.592.592q-.216.392-.216.968t.216.976q.225.392.584.592.368.192.8.192m5.269-4.024q.784 0 1.28.488.495.48.496 1.4v2.56h-.552v-2.496q0-.712-.36-1.088-.353-.376-.968-.376-.633 0-1.008.4t-.376 1.176v2.384h-.56v-4.368h.56v.744q.207-.4.6-.608.392-.216.888-.216m5.726 1.248v.472H89.91v-.472zm5.589-2.392v5.592h-.56v-2.616h-3.032v2.616h-.56v-5.592h.56v2.512h3.032v-2.512zm2.934 0q.927 0 1.592.336.663.336 1.016.968.352.632.352 1.504 0 .864-.352 1.496a2.36 2.36 0 0 1-1.016.96q-.665.328-1.592.328h-1.656v-5.592zm0 5.128q1.167 0 1.776-.608.615-.616.616-1.712 0-1.104-.616-1.72-.609-.624-1.776-.624h-1.096v4.664zm4.552.008h2.008v.456h-2.568v-5.592h.56zm4.746-2.344q0-.824.36-1.472a2.6 2.6 0 0 1 .984-1.016q.624-.368 1.392-.368.936 0 1.6.448.672.44.976 1.248h-.656a1.9 1.9 0 0 0-.736-.888q-.488-.32-1.184-.32-.615 0-1.112.288a2 2 0 0 0-.768.832q-.28.536-.28 1.248 0 .713.28 1.248.28.536.768.824.497.288 1.112.288.696 0 1.184-.312a1.9 1.9 0 0 0 .736-.88h.656a2.5 2.5 0 0 1-.976 1.24q-.672.44-1.6.44-.768 0-1.392-.36a2.65 2.65 0 0 1-.984-1.016 3 3 0 0 1-.36-1.472m8.508-1.648q.496 0 .888.208.4.208.624.64.232.424.232 1.04v2.56h-.552v-2.496q0-.712-.36-1.088-.351-.376-.968-.376-.632 0-1.008.4-.375.4-.376 1.176v2.384h-.56v-5.92h.56v2.296a1.46 1.46 0 0 1 .608-.608q.408-.216.912-.216m4.895 4.512q-.617 0-1.112-.272a2.07 2.07 0 0 1-.776-.784q-.28-.512-.28-1.192t.288-1.184q.288-.512.784-.784.495-.28 1.112-.28.615 0 1.112.28.504.272.784.784.288.504.288 1.184 0 .672-.288 1.184a2 2 0 0 1-.792.792q-.504.272-1.12.272m0-.488q.432 0 .8-.192a1.5 1.5 0 0 0 .592-.592q.231-.4.232-.976 0-.576-.224-.968a1.44 1.44 0 0 0-.592-.592 1.65 1.65 0 0 0-.8-.2q-.432 0-.8.2a1.43 1.43 0 0 0-.592.592q-.216.392-.216.968t.216.976q.224.392.584.592.368.192.8.192m3.781-5.496v5.92h-.56v-5.92zm5.22 3.512q0 .288-.016.44h-3.624q.024.496.24.848t.568.536q.351.176.768.176.543 0 .912-.264.375-.264.496-.712h.592a1.86 1.86 0 0 1-.688 1.048q-.52.4-1.312.4a2.23 2.23 0 0 1-1.104-.272 2 2 0 0 1-.768-.784q-.272-.512-.272-1.192t.272-1.192q.271-.512.76-.784a2.25 2.25 0 0 1 1.112-.272q.624 0 1.088.272.471.272.72.736.255.456.256 1.016m-.568-.016q.007-.488-.2-.832a1.3 1.3 0 0 0-.552-.52 1.7 1.7 0 0 0-.768-.176q-.624 0-1.064.4t-.488 1.128zm3.096 2.488q-.752 0-1.232-.344a1.29 1.29 0 0 1-.528-.952h.576a.85.85 0 0 0 .344.6q.312.224.832.224.457 0 .712-.216a.67.67 0 0 0 .264-.536.5.5 0 0 0-.144-.368 1 1 0 0 0-.368-.224 5 5 0 0 0-.592-.184 6 6 0 0 1-.792-.256 1.4 1.4 0 0 1-.52-.376q-.208-.256-.208-.68 0-.32.192-.592a1.3 1.3 0 0 1 .544-.432q.353-.16.8-.16.704 0 1.136.36.432.352.464.976h-.56a.83.83 0 0 0-.304-.616q-.272-.24-.752-.24-.423 0-.688.2a.6.6 0 0 0-.264.496q0 .256.152.424.16.16.392.256.232.088.624.2.473.128.752.248.28.12.48.352t.208.616q0 .352-.192.632a1.3 1.3 0 0 1-.536.432q-.344.16-.792.16m3.302-3.96v2.712q0 .4.152.552.153.152.536.152h.512v.48h-.6q-.591 0-.88-.272-.288-.28-.288-.912v-2.712h-.608v-.472h.608v-1.096h.568v1.096h1.2v.472zm2.684.304q.184-.408.56-.632.384-.224.936-.224v.584h-.152q-.608 0-.976.328t-.368 1.096v2.44h-.56v-4.368h.56zm4.25 3.656a2.3 2.3 0 0 1-1.112-.272 2.07 2.07 0 0 1-.776-.784q-.28-.512-.28-1.192t.288-1.184q.288-.512.784-.784.497-.28 1.112-.28.617 0 1.112.28.505.272.784.784.288.504.288 1.184 0 .672-.288 1.184a2 2 0 0 1-.792.792 2.3 2.3 0 0 1-1.12.272m0-.488q.432 0 .8-.192.369-.2.592-.592.232-.4.232-.976t-.224-.968a1.43 1.43 0 0 0-.592-.592 1.65 1.65 0 0 0-.8-.2q-.432 0-.8.2a1.44 1.44 0 0 0-.592.592q-.216.392-.216.968t.216.976q.224.392.584.592.369.192.8.192m3.781-5.496v5.92h-.56v-5.92zm1.78 4.992-.832 2.096h-.384l.592-2.096zm6.339-4.664v.464h-1.552v5.128h-.56v-5.128h-1.56v-.464zm2.796 5.656q-.617 0-1.112-.272a2.07 2.07 0 0 1-.776-.784q-.28-.512-.28-1.192t.288-1.184q.288-.512.784-.784.495-.28 1.112-.28.615 0 1.112.28.504.272.784.784.288.504.288 1.184 0 .672-.288 1.184a2 2 0 0 1-.792.792q-.505.272-1.12.272m0-.488q.432 0 .8-.192a1.5 1.5 0 0 0 .592-.592q.231-.4.232-.976 0-.576-.224-.968a1.44 1.44 0 0 0-.592-.592 1.65 1.65 0 0 0-.8-.2q-.432 0-.8.2a1.43 1.43 0 0 0-.592.592q-.216.392-.216.968t.216.976q.224.392.584.592.368.192.8.192m3.949-3.472v2.712q0 .4.152.552t.536.152h.512v.48h-.6q-.592 0-.88-.272-.288-.28-.288-.912v-2.712h-.608v-.472h.608v-1.096h.568v1.096h1.2v.472zm1.867 1.704q0-.672.264-1.176.272-.512.744-.784a2.1 2.1 0 0 1 1.08-.28q.624 0 1.072.288.456.288.656.736v-.96h.56v4.368h-.56v-.968a1.77 1.77 0 0 1-.664.744q-.448.288-1.072.288-.592 0-1.072-.28a2 2 0 0 1-.744-.792 2.55 2.55 0 0 1-.264-1.184m3.816.008q0-.528-.216-.928a1.58 1.58 0 0 0-1.408-.832q-.464 0-.832.208t-.584.608q-.208.391-.208.936 0 .536.208.944.216.4.584.616.368.208.832.208a1.58 1.58 0 0 0 1.408-.832q.216-.4.216-.928m2.399-3.736v5.92h-.56v-5.92zm3.207 3.12q0-.824.36-1.472a2.6 2.6 0 0 1 .984-1.016q.624-.368 1.392-.368.936 0 1.6.448.672.44.976 1.248h-.656a1.9 1.9 0 0 0-.736-.888q-.488-.32-1.184-.32-.616 0-1.112.288a2 2 0 0 0-.768.832q-.28.536-.28 1.248 0 .713.28 1.248.28.536.768.824.496.288 1.112.288.696 0 1.184-.312a1.9 1.9 0 0 0 .736-.88h.656a2.5 2.5 0 0 1-.976 1.24q-.672.44-1.6.44-.768 0-1.392-.36a2.65 2.65 0 0 1-.984-1.016 3 3 0 0 1-.36-1.472m8.508-1.648q.497 0 .888.208.4.208.624.64.232.424.232 1.04v2.56h-.552v-2.496q0-.712-.36-1.088-.352-.376-.968-.376-.632 0-1.008.4t-.376 1.176v2.384h-.56v-5.92h.56v2.296q.208-.392.608-.608.408-.216.912-.216m3.542-1.472v5.92h-.56v-5.92zm3.181 5.984q-.617 0-1.112-.272a2.07 2.07 0 0 1-.776-.784q-.28-.512-.28-1.192t.288-1.184q.288-.512.784-.784.495-.28 1.112-.28.615 0 1.112.28.504.272.784.784.288.504.288 1.184 0 .672-.288 1.184a2 2 0 0 1-.792.792q-.505.272-1.12.272m0-.488q.431 0 .8-.192a1.5 1.5 0 0 0 .592-.592q.232-.4.232-.976t-.224-.968a1.44 1.44 0 0 0-.592-.592 1.65 1.65 0 0 0-.8-.2q-.432 0-.8.2a1.43 1.43 0 0 0-.592.592q-.216.392-.216.968t.216.976q.224.392.584.592.368.192.8.192m7.172-1.984q0 .288-.016.44h-3.624q.024.496.24.848.217.352.568.536a1.7 1.7 0 0 0 .768.176q.544 0 .912-.264.376-.264.496-.712h.592a1.86 1.86 0 0 1-.688 1.048q-.52.4-1.312.4-.615 0-1.104-.272a2 2 0 0 1-.768-.784q-.272-.512-.272-1.192t.272-1.192q.273-.512.76-.784a2.25 2.25 0 0 1 1.112-.272q.624 0 1.088.272.473.272.72.736.256.456.256 1.016m-.568-.016q.009-.488-.2-.832a1.3 1.3 0 0 0-.552-.52 1.7 1.7 0 0 0-.768-.176q-.624 0-1.064.4t-.488 1.128zm3.097 2.488q-.752 0-1.232-.344a1.28 1.28 0 0 1-.528-.952h.576a.84.84 0 0 0 .344.6q.312.224.832.224.456 0 .712-.216a.67.67 0 0 0 .264-.536.5.5 0 0 0-.144-.368 1 1 0 0 0-.368-.224 5 5 0 0 0-.592-.184 6 6 0 0 1-.792-.256 1.4 1.4 0 0 1-.52-.376q-.208-.256-.208-.68 0-.32.192-.592t.544-.432.8-.16q.704 0 1.136.36.432.352.464.976h-.56a.83.83 0 0 0-.304-.616q-.272-.24-.752-.24-.424 0-.688.2a.6.6 0 0 0-.264.496q0 .256.152.424.16.16.392.256.233.088.624.2.472.128.752.248t.48.352.208.616q0 .352-.192.632a1.3 1.3 0 0 1-.536.432q-.343.16-.792.16m3.302-3.96v2.712q0 .4.152.552t.536.152h.512v.48h-.6q-.592 0-.88-.272-.288-.28-.288-.912v-2.712h-.608v-.472h.608v-1.096h.568v1.096h1.2v.472zm2.684.304q.183-.408.56-.632.384-.224.936-.224v.584h-.152q-.609 0-.976.328-.369.328-.368 1.096v2.44h-.56v-4.368h.56zm4.25 3.656q-.616 0-1.112-.272a2.07 2.07 0 0 1-.776-.784q-.28-.512-.28-1.192t.288-1.184q.288-.512.784-.784.496-.28 1.112-.28t1.112.28q.504.272.784.784.288.504.288 1.184 0 .672-.288 1.184a2 2 0 0 1-.792.792 2.3 2.3 0 0 1-1.12.272m0-.488q.432 0 .8-.192.368-.2.592-.592.232-.4.232-.976t-.224-.968a1.44 1.44 0 0 0-.592-.592 1.65 1.65 0 0 0-.8-.2q-.432 0-.8.2a1.44 1.44 0 0 0-.592.592q-.216.392-.216.968t.216.976q.224.392.584.592.368.192.8.192m3.781-5.496v5.92h-.56v-5.92z"/></svg>