<svg width="249" height="362" viewBox="0 0 249 362" fill="none" xmlns="http://www.w3.org/2000/svg">
<path d="M0 10C0 4.47715 4.47715 0 10 0H239C244.523 0 249 4.47715 249 10V340.5C249 346.023 244.523 350.5 239 350.5H10C4.47716 350.5 0 346.023 0 340.5V10Z" fill="#D9D9D9" fill-opacity="0.2"/>
<path d="M32.6445 56.8311L29.8155 51.8345H28.6031V56.8311H26.0314V44.009H30.8442C31.8362 44.009 32.6812 44.1866 33.3792 44.5417C34.0773 44.8846 34.5978 45.3561 34.9407 45.9562C35.2958 46.544 35.4734 47.2053 35.4734 47.9401C35.4734 48.7851 35.2285 49.5505 34.7386 50.2363C34.2487 50.9099 33.5201 51.3753 32.5526 51.6324L35.6203 56.8311H32.6445ZM28.6031 49.9057H30.7524C31.4504 49.9057 31.9709 49.7404 32.3138 49.4097C32.6567 49.0668 32.8281 48.5953 32.8281 47.9952C32.8281 47.4074 32.6567 46.9543 32.3138 46.6359C31.9709 46.3052 31.4504 46.1399 30.7524 46.1399H28.6031V49.9057ZM46.8006 51.5222C46.8006 51.8896 46.7761 52.2203 46.7271 52.5142H39.2874C39.3486 53.249 39.6058 53.8245 40.0589 54.2409C40.512 54.6573 41.0693 54.8655 41.7306 54.8655C42.6858 54.8655 43.3655 54.4552 43.7696 53.6347H46.5434C46.2495 54.6144 45.6862 55.4227 44.8534 56.0595C44.0207 56.6841 42.9981 56.9964 41.7857 56.9964C40.806 56.9964 39.9242 56.7821 39.1404 56.3534C38.3689 55.9126 37.7627 55.2941 37.3218 54.4981C36.8932 53.7021 36.6789 52.7836 36.6789 51.7426C36.6789 50.6895 36.8932 49.7648 37.3218 48.9688C37.7505 48.1728 38.3505 47.5605 39.1221 47.1319C39.8936 46.7032 40.7815 46.4889 41.7857 46.4889C42.7531 46.4889 43.6165 46.6971 44.3758 47.1135C45.1473 47.5299 45.7413 48.1238 46.1577 48.8953C46.5863 49.6546 46.8006 50.5303 46.8006 51.5222ZM44.137 50.7874C44.1247 50.1261 43.8859 49.5995 43.4206 49.2076C42.9552 48.8035 42.3857 48.6014 41.7122 48.6014C41.0754 48.6014 40.5365 48.7974 40.0957 49.1893C39.667 49.5689 39.4037 50.1016 39.3058 50.7874H44.137ZM50.7903 48.1238C51.1209 47.6585 51.574 47.2727 52.1496 46.9665C52.7375 46.6481 53.4049 46.4889 54.1519 46.4889C55.0214 46.4889 55.8052 46.7032 56.5032 47.1319C57.2135 47.5605 57.7707 48.1728 58.1749 48.9688C58.5913 49.7526 58.7995 50.665 58.7995 51.7059C58.7995 52.7469 58.5913 53.6715 58.1749 54.4797C57.7707 55.2758 57.2135 55.8942 56.5032 56.3351C55.8052 56.7759 55.0214 56.9964 54.1519 56.9964C53.4049 56.9964 52.7436 56.8433 52.168 56.5371C51.6047 56.231 51.1454 55.8452 50.7903 55.3798V61.6807H48.2185V46.6542H50.7903V48.1238ZM56.1726 51.7059C56.1726 51.0936 56.044 50.567 55.7868 50.1261C55.5419 49.673 55.2112 49.3301 54.7949 49.0974C54.3907 48.8647 53.9499 48.7484 53.4722 48.7484C53.0069 48.7484 52.566 48.8709 52.1496 49.1158C51.7455 49.3485 51.4148 49.6914 51.1577 50.1445C50.9127 50.5976 50.7903 51.1303 50.7903 51.7426C50.7903 52.355 50.9127 52.8877 51.1577 53.3408C51.4148 53.7939 51.7455 54.143 52.1496 54.3879C52.566 54.6206 53.0069 54.7369 53.4722 54.7369C53.9499 54.7369 54.3907 54.6144 54.7949 54.3695C55.2112 54.1246 55.5419 53.7756 55.7868 53.3224C56.044 52.8693 56.1726 52.3305 56.1726 51.7059ZM64.728 56.9964C63.7483 56.9964 62.8665 56.7821 62.0827 56.3534C61.299 55.9126 60.6805 55.2941 60.2274 54.4981C59.7865 53.7021 59.5661 52.7836 59.5661 51.7426C59.5661 50.7017 59.7927 49.7832 60.2458 48.9872C60.7111 48.1912 61.3418 47.5789 62.1379 47.1502C62.9339 46.7094 63.8217 46.4889 64.8015 46.4889C65.7812 46.4889 66.669 46.7094 67.4651 47.1502C68.2611 47.5789 68.8857 48.1912 69.3388 48.9872C69.8041 49.7832 70.0368 50.7017 70.0368 51.7426C70.0368 52.7836 69.798 53.7021 69.3204 54.4981C68.855 55.2941 68.2182 55.9126 67.41 56.3534C66.6139 56.7821 65.7199 56.9964 64.728 56.9964ZM64.728 54.7553C65.1933 54.7553 65.6281 54.6451 66.0322 54.4246C66.4486 54.1919 66.7793 53.849 67.0242 53.3959C67.2691 52.9428 67.3916 52.3917 67.3916 51.7426C67.3916 50.7752 67.1344 50.0343 66.6201 49.5199C66.118 48.9933 65.4995 48.73 64.7647 48.73C64.0299 48.73 63.4115 48.9933 62.9094 49.5199C62.4195 50.0343 62.1746 50.7752 62.1746 51.7426C62.1746 52.7101 62.4134 53.4572 62.891 53.9838C63.3809 54.4981 63.9932 54.7553 64.728 54.7553ZM74.0358 48.234C74.3665 47.6952 74.7951 47.2727 75.3217 46.9665C75.8605 46.6604 76.4729 46.5073 77.1587 46.5073V49.2076H76.479C75.6707 49.2076 75.0584 49.3975 74.642 49.7771C74.2379 50.1567 74.0358 50.818 74.0358 51.761V56.8311H71.4641V46.6542H74.0358V48.234ZM81.4259 48.7668V53.6898C81.4259 54.0327 81.5055 54.2838 81.6647 54.443C81.8361 54.59 82.1178 54.6634 82.5097 54.6634H83.7037V56.8311H82.0872C79.9196 56.8311 78.8358 55.7779 78.8358 53.6715V48.7668H77.6234V46.6542H78.8358V44.1376H81.4259V46.6542H83.7037V48.7668H81.4259ZM96.8744 54.3879H91.7676L90.9226 56.8311H88.2222L92.833 43.9906H95.8273L100.438 56.8311H97.7194L96.8744 54.3879ZM96.1763 52.3305L94.321 46.9665L92.4656 52.3305H96.1763ZM107.342 46.5073C108.554 46.5073 109.534 46.8931 110.281 47.6646C111.028 48.4239 111.401 49.4893 111.401 50.8609V56.8311H108.83V51.2099C108.83 50.4017 108.628 49.7832 108.224 49.3546C107.819 48.9137 107.268 48.6933 106.57 48.6933C105.86 48.6933 105.297 48.9137 104.88 49.3546C104.476 49.7832 104.274 50.4017 104.274 51.2099V56.8311H101.702V46.6542H104.274V47.9218C104.617 47.4809 105.052 47.138 105.578 46.8931C106.117 46.6359 106.705 46.5073 107.342 46.5073ZM112.727 51.7059C112.727 50.6772 112.929 49.7648 113.333 48.9688C113.749 48.1728 114.306 47.5605 115.004 47.1319C115.715 46.7032 116.505 46.4889 117.374 46.4889C118.133 46.4889 118.795 46.642 119.358 46.9482C119.934 47.2543 120.393 47.6401 120.736 48.1055V46.6542H123.326V56.8311H120.736V55.3431C120.405 55.8207 119.946 56.2187 119.358 56.5371C118.782 56.8433 118.115 56.9964 117.356 56.9964C116.498 56.9964 115.715 56.7759 115.004 56.3351C114.306 55.8942 113.749 55.2758 113.333 54.4797C112.929 53.6715 112.727 52.7469 112.727 51.7059ZM120.736 51.7426C120.736 51.1181 120.613 50.5854 120.368 50.1445C120.123 49.6914 119.793 49.3485 119.376 49.1158C118.96 48.8709 118.513 48.7484 118.035 48.7484C117.558 48.7484 117.117 48.8647 116.713 49.0974C116.309 49.3301 115.978 49.673 115.721 50.1261C115.476 50.567 115.353 51.0936 115.353 51.7059C115.353 52.3182 115.476 52.8571 115.721 53.3224C115.978 53.7756 116.309 54.1246 116.713 54.3695C117.129 54.6144 117.57 54.7369 118.035 54.7369C118.513 54.7369 118.96 54.6206 119.376 54.3879C119.793 54.143 120.123 53.8001 120.368 53.3592C120.613 52.9061 120.736 52.3672 120.736 51.7426ZM127.95 43.2375V56.8311H125.378V43.2375H127.95ZM139.768 46.6542L133.467 61.6439H130.73L132.934 56.5739L128.856 46.6542H131.74L134.367 53.7633L137.031 46.6542H139.768ZM144.589 56.9964C143.756 56.9964 143.009 56.8494 142.348 56.5555C141.687 56.2493 141.16 55.8391 140.768 55.3247C140.389 54.8104 140.18 54.2409 140.144 53.6164H142.734C142.783 54.0082 142.973 54.3328 143.303 54.59C143.646 54.8471 144.069 54.9757 144.571 54.9757C145.061 54.9757 145.44 54.8777 145.71 54.6818C145.991 54.4859 146.132 54.2348 146.132 53.9286C146.132 53.598 145.961 53.3531 145.618 53.1939C145.287 53.0224 144.755 52.8387 144.02 52.6428C143.26 52.4591 142.636 52.2692 142.146 52.0733C141.668 51.8774 141.252 51.5773 140.897 51.1732C140.554 50.7691 140.383 50.2241 140.383 49.5383C140.383 48.9749 140.542 48.4606 140.86 47.9952C141.191 47.5299 141.656 47.1625 142.256 46.8931C142.869 46.6236 143.585 46.4889 144.406 46.4889C145.618 46.4889 146.585 46.7951 147.308 47.4074C148.03 48.0075 148.428 48.8219 148.502 49.8506H146.04C146.004 49.4464 145.832 49.128 145.526 48.8953C145.232 48.6504 144.834 48.528 144.332 48.528C143.867 48.528 143.505 48.6137 143.248 48.7851C143.003 48.9566 142.881 49.1954 142.881 49.5015C142.881 49.8444 143.052 50.1077 143.395 50.2914C143.738 50.4629 144.271 50.6405 144.993 50.8242C145.728 51.0079 146.334 51.1977 146.812 51.3936C147.29 51.5896 147.7 51.8957 148.043 52.3121C148.398 52.7162 148.582 53.2551 148.594 53.9286C148.594 54.5165 148.428 55.0431 148.098 55.5084C147.779 55.9738 147.314 56.3412 146.702 56.6106C146.102 56.8678 145.397 56.9964 144.589 56.9964ZM151.55 45.4418C151.097 45.4418 150.717 45.301 150.411 45.0193C150.117 44.7254 149.97 44.3642 149.97 43.9355C149.97 43.5069 150.117 43.1518 150.411 42.8701C150.717 42.5762 151.097 42.4292 151.55 42.4292C152.003 42.4292 152.377 42.5762 152.67 42.8701C152.977 43.1518 153.13 43.5069 153.13 43.9355C153.13 44.3642 152.977 44.7254 152.67 45.0193C152.377 45.301 152.003 45.4418 151.55 45.4418ZM152.817 46.6542V56.8311H150.246V46.6542H152.817ZM158.793 56.9964C157.961 56.9964 157.214 56.8494 156.552 56.5555C155.891 56.2493 155.364 55.8391 154.973 55.3247C154.593 54.8104 154.385 54.2409 154.348 53.6164H156.938C156.987 54.0082 157.177 54.3328 157.508 54.59C157.85 54.8471 158.273 54.9757 158.775 54.9757C159.265 54.9757 159.645 54.8777 159.914 54.6818C160.196 54.4859 160.336 54.2348 160.336 53.9286C160.336 53.598 160.165 53.3531 159.822 53.1939C159.491 53.0224 158.959 52.8387 158.224 52.6428C157.465 52.4591 156.84 52.2692 156.35 52.0733C155.873 51.8774 155.456 51.5773 155.101 51.1732C154.758 50.7691 154.587 50.2241 154.587 49.5383C154.587 48.9749 154.746 48.4606 155.064 47.9952C155.395 47.5299 155.86 47.1625 156.46 46.8931C157.073 46.6236 157.789 46.4889 158.61 46.4889C159.822 46.4889 160.79 46.7951 161.512 47.4074C162.235 48.0075 162.633 48.8219 162.706 49.8506H160.245C160.208 49.4464 160.036 49.128 159.73 48.8953C159.436 48.6504 159.038 48.528 158.536 48.528C158.071 48.528 157.71 48.6137 157.452 48.7851C157.208 48.9566 157.085 49.1954 157.085 49.5015C157.085 49.8444 157.256 50.1077 157.599 50.2914C157.942 50.4629 158.475 50.6405 159.198 50.8242C159.932 51.0079 160.539 51.1977 161.016 51.3936C161.494 51.5896 161.904 51.8957 162.247 52.3121C162.602 52.7162 162.786 53.2551 162.798 53.9286C162.798 54.5165 162.633 55.0431 162.302 55.5084C161.984 55.9738 161.518 56.3412 160.906 56.6106C160.306 56.8678 159.602 56.9964 158.793 56.9964Z" fill="#F5F6F7"/>
<path d="M28.3575 73.8701C27.7917 73.8701 27.2847 73.7783 26.8365 73.5946C26.3882 73.4109 26.0282 73.139 25.7563 72.779C25.4918 72.4189 25.3522 71.9854 25.3375 71.4784H27.3435C27.3729 71.765 27.472 71.9854 27.641 72.1397C27.8101 72.2867 28.0305 72.3601 28.3024 72.3601C28.5816 72.3601 28.802 72.2977 28.9637 72.1728C29.1253 72.0405 29.2061 71.8605 29.2061 71.6327C29.2061 71.4416 29.14 71.2837 29.0078 71.1588C28.8828 71.0338 28.7249 70.931 28.5338 70.8501C28.3501 70.7693 28.0856 70.6775 27.7402 70.5746C27.2406 70.4203 26.8328 70.266 26.5168 70.1117C26.2009 69.9574 25.929 69.7296 25.7012 69.4283C25.4734 69.1271 25.3595 68.734 25.3595 68.249C25.3595 67.5289 25.6204 66.9668 26.1421 66.5627C26.6638 66.1512 27.3435 65.9454 28.1811 65.9454C29.0335 65.9454 29.7205 66.1512 30.2422 66.5627C30.7639 66.9668 31.0431 67.5326 31.0799 68.26H29.0408C29.0261 68.0102 28.9343 67.8155 28.7653 67.6759C28.5963 67.5289 28.3795 67.4554 28.115 67.4554C27.8872 67.4554 27.7035 67.5179 27.5639 67.6428C27.4243 67.7604 27.3545 67.933 27.3545 68.1608C27.3545 68.4106 27.472 68.6054 27.7072 68.745C27.9423 68.8846 28.3097 69.0352 28.8094 69.1969C29.309 69.3659 29.7132 69.5275 30.0218 69.6818C30.3377 69.8361 30.6096 70.0602 30.8374 70.3542C31.0652 70.6481 31.1791 71.0265 31.1791 71.4894C31.1791 71.9303 31.0652 72.3307 30.8374 72.6908C30.6169 73.0508 30.2936 73.3374 29.8675 73.5505C29.4413 73.7636 28.9379 73.8701 28.3575 73.8701ZM40.1865 67.5767C40.9506 67.5767 41.5568 67.8081 42.0051 68.271C42.4606 68.734 42.6884 69.3769 42.6884 70.1999V73.793H40.8147V70.4534C40.8147 70.0566 40.7082 69.7516 40.4951 69.5385C40.2893 69.3181 40.0028 69.2079 39.6354 69.2079C39.268 69.2079 38.9777 69.3181 38.7646 69.5385C38.5589 69.7516 38.456 70.0566 38.456 70.4534V73.793H36.5823V70.4534C36.5823 70.0566 36.4758 69.7516 36.2627 69.5385C36.057 69.3181 35.7704 69.2079 35.403 69.2079C35.0356 69.2079 34.7454 69.3181 34.5323 69.5385C34.3265 69.7516 34.2237 70.0566 34.2237 70.4534V73.793H32.3389V67.6428H34.2237V68.4143C34.4147 68.1571 34.6645 67.9551 34.9731 67.8081C35.2818 67.6538 35.6308 67.5767 36.0202 67.5767C36.4831 67.5767 36.8946 67.6759 37.2547 67.8743C37.622 68.0726 37.9086 68.3555 38.1144 68.7229C38.3274 68.3849 38.6177 68.1094 38.9851 67.8963C39.3525 67.6832 39.7529 67.5767 40.1865 67.5767ZM43.6318 70.7069C43.6318 70.0749 43.7494 69.5202 43.9845 69.0426C44.227 68.565 44.554 68.1976 44.9654 67.9404C45.3769 67.6832 45.8362 67.5546 46.3432 67.5546C46.7767 67.5546 47.1551 67.6428 47.4784 67.8191C47.8091 67.9955 48.0626 68.227 48.2389 68.5135V67.6428H50.1237V73.793H48.2389V72.9222C48.0552 73.2088 47.7981 73.4403 47.4674 73.6166C47.1441 73.793 46.7657 73.8811 46.3322 73.8811C45.8325 73.8811 45.3769 73.7526 44.9654 73.4954C44.554 73.2309 44.227 72.8598 43.9845 72.3822C43.7494 71.8972 43.6318 71.3388 43.6318 70.7069ZM48.2389 70.7179C48.2389 70.2476 48.1067 69.8765 47.8421 69.6047C47.585 69.3328 47.269 69.1969 46.8943 69.1969C46.5195 69.1969 46.1999 69.3328 45.9354 69.6047C45.6782 69.8692 45.5496 70.2366 45.5496 70.7069C45.5496 71.1771 45.6782 71.5519 45.9354 71.8311C46.1999 72.103 46.5195 72.2389 46.8943 72.2389C47.269 72.2389 47.585 72.103 47.8421 71.8311C48.1067 71.5592 48.2389 71.1881 48.2389 70.7179ZM53.3719 68.6678C53.5923 68.3298 53.8679 68.0653 54.1985 67.8743C54.5292 67.6759 54.8966 67.5767 55.3007 67.5767V69.5716H54.7827C54.3124 69.5716 53.9597 69.6745 53.7246 69.8802C53.4895 70.0786 53.3719 70.4313 53.3719 70.9383V73.793H51.4872V67.6428H53.3719V68.6678ZM59.6294 72.1948V73.793H58.6705C57.9871 73.793 57.4544 73.6276 57.0723 73.297C56.6902 72.959 56.4992 72.4116 56.4992 71.6547V69.2079H55.7497V67.6428H56.4992V66.1438H58.3839V67.6428H59.6183V69.2079H58.3839V71.6768C58.3839 71.8605 58.428 71.9927 58.5162 72.0736C58.6043 72.1544 58.7513 72.1948 58.957 72.1948H59.6294ZM69.7161 66.0557V73.793H67.8314V70.6077H64.8996V73.793H63.0149V66.0557H64.8996V69.0867H67.8314V66.0557H69.7161ZM76.8742 70.6187C76.8742 70.795 76.8632 70.9787 76.8411 71.1698H72.5757C72.6051 71.5519 72.7263 71.8458 72.9394 72.0515C73.1599 72.2499 73.4281 72.3491 73.744 72.3491C74.2143 72.3491 74.5413 72.1507 74.725 71.7539H76.7309C76.6281 72.1581 76.4407 72.5218 76.1688 72.8451C75.9043 73.1684 75.57 73.4219 75.1658 73.6056C74.7617 73.7893 74.3098 73.8811 73.8101 73.8811C73.2076 73.8811 72.6712 73.7526 72.201 73.4954C71.7307 73.2382 71.3633 72.8708 71.0988 72.3932C70.8343 71.9156 70.702 71.3571 70.702 70.7179C70.702 70.0786 70.8306 69.5202 71.0878 69.0426C71.3523 68.565 71.7197 68.1976 72.1899 67.9404C72.6602 67.6832 73.2003 67.5546 73.8101 67.5546C74.4053 67.5546 74.9344 67.6795 75.3973 67.9294C75.8602 68.1792 76.2203 68.5356 76.4774 68.9985C76.7419 69.4614 76.8742 70.0015 76.8742 70.6187ZM74.9454 70.1227C74.9454 69.7994 74.8352 69.5422 74.6147 69.3512C74.3943 69.1601 74.1188 69.0646 73.7881 69.0646C73.4721 69.0646 73.2039 69.1565 72.9835 69.3402C72.7704 69.5239 72.6382 69.7847 72.5867 70.1227H74.9454ZM77.4938 70.7069C77.4938 70.0749 77.6113 69.5202 77.8465 69.0426C78.0889 68.565 78.4159 68.1976 78.8274 67.9404C79.2389 67.6832 79.6981 67.5546 80.2051 67.5546C80.6386 67.5546 81.0171 67.6428 81.3404 67.8191C81.671 67.9955 81.9245 68.227 82.1009 68.5135V67.6428H83.9856V73.793H82.1009V72.9222C81.9172 73.2088 81.66 73.4403 81.3293 73.6166C81.006 73.793 80.6276 73.8811 80.1941 73.8811C79.6944 73.8811 79.2389 73.7526 78.8274 73.4954C78.4159 73.2309 78.0889 72.8598 77.8465 72.3822C77.6113 71.8972 77.4938 71.3388 77.4938 70.7069ZM82.1009 70.7179C82.1009 70.2476 81.9686 69.8765 81.7041 69.6047C81.4469 69.3328 81.131 69.1969 80.7562 69.1969C80.3815 69.1969 80.0618 69.3328 79.7973 69.6047C79.5401 69.8692 79.4116 70.2366 79.4116 70.7069C79.4116 71.1771 79.5401 71.5519 79.7973 71.8311C80.0618 72.103 80.3815 72.2389 80.7562 72.2389C81.131 72.2389 81.4469 72.103 81.7041 71.8311C81.9686 71.5592 82.1009 71.1881 82.1009 70.7179ZM87.2339 65.6368V73.793H85.3491V65.6368H87.2339ZM92.0275 72.1948V73.793H91.0686C90.3852 73.793 89.8525 73.6276 89.4704 73.297C89.0883 72.959 88.8973 72.4116 88.8973 71.6547V69.2079H88.1478V67.6428H88.8973V66.1438H90.782V67.6428H92.0165V69.2079H90.782V71.6768C90.782 71.8605 90.8261 71.9927 90.9143 72.0736C91.0025 72.1544 91.1494 72.1948 91.3552 72.1948H92.0275ZM96.8578 67.5767C97.5632 67.5767 98.129 67.8118 98.5552 68.2821C98.9813 68.745 99.1944 69.3842 99.1944 70.1999V73.793H97.3207V70.4534C97.3207 70.0419 97.2142 69.7222 97.0011 69.4945C96.788 69.2667 96.5014 69.1528 96.1414 69.1528C95.7813 69.1528 95.4948 69.2667 95.2817 69.4945C95.0686 69.7222 94.962 70.0419 94.962 70.4534V73.793H93.0773V65.6368H94.962V68.4694C95.1531 68.1976 95.4139 67.9808 95.7446 67.8191C96.0752 67.6575 96.4463 67.5767 96.8578 67.5767ZM104.725 66.0557V73.793H102.84V66.0557H104.725ZM109.838 67.5767C110.558 67.5767 111.131 67.8118 111.557 68.2821C111.991 68.745 112.207 69.3842 112.207 70.1999V73.793H110.334V70.4534C110.334 70.0419 110.227 69.7222 110.014 69.4945C109.801 69.2667 109.514 69.1528 109.154 69.1528C108.794 69.1528 108.508 69.2667 108.295 69.4945C108.082 69.7222 107.975 70.0419 107.975 70.4534V73.793H106.09V67.6428H107.975V68.4584C108.166 68.1865 108.423 67.9734 108.747 67.8191C109.07 67.6575 109.434 67.5767 109.838 67.5767ZM116.019 73.8811C115.483 73.8811 115.005 73.7893 114.586 73.6056C114.167 73.4219 113.837 73.1721 113.594 72.8561C113.352 72.5328 113.216 72.1728 113.187 71.776H115.049C115.071 71.9891 115.17 72.1617 115.347 72.294C115.523 72.4263 115.74 72.4924 115.997 72.4924C116.232 72.4924 116.412 72.4483 116.537 72.3601C116.669 72.2646 116.736 72.1434 116.736 71.9964C116.736 71.8201 116.644 71.6915 116.46 71.6106C116.276 71.5225 115.979 71.427 115.567 71.3241C115.126 71.2212 114.759 71.1147 114.465 71.0044C114.171 70.8869 113.918 70.7069 113.705 70.4644C113.491 70.2146 113.385 69.8802 113.385 69.4614C113.385 69.1087 113.48 68.7891 113.671 68.5025C113.87 68.2086 114.156 67.9771 114.531 67.8081C114.913 67.6391 115.365 67.5546 115.887 67.5546C116.658 67.5546 117.265 67.7457 117.705 68.1278C118.154 68.5098 118.411 69.0168 118.477 69.6488H116.736C116.706 69.4357 116.611 69.2667 116.449 69.1418C116.295 69.0168 116.089 68.9544 115.832 68.9544C115.611 68.9544 115.442 68.9985 115.325 69.0867C115.207 69.1675 115.148 69.2814 115.148 69.4283C115.148 69.6047 115.24 69.7369 115.424 69.8251C115.615 69.9133 115.909 70.0015 116.306 70.0896C116.761 70.2072 117.132 70.3248 117.419 70.4423C117.705 70.5526 117.955 70.7363 118.168 70.9934C118.389 71.2433 118.503 71.5813 118.51 72.0074C118.51 72.3675 118.407 72.6908 118.201 72.9774C118.003 73.2566 117.713 73.477 117.331 73.6387C116.956 73.8003 116.519 73.8811 116.019 73.8811ZM120.611 67.0035C120.28 67.0035 120.008 66.908 119.795 66.717C119.59 66.5186 119.487 66.2761 119.487 65.9895C119.487 65.6956 119.59 65.4531 119.795 65.2621C120.008 65.0637 120.28 64.9645 120.611 64.9645C120.934 64.9645 121.199 65.0637 121.405 65.2621C121.618 65.4531 121.724 65.6956 121.724 65.9895C121.724 66.2761 121.618 66.5186 121.405 66.717C121.199 66.908 120.934 67.0035 120.611 67.0035ZM121.548 67.6428V73.793H119.663V67.6428H121.548ZM125.25 67.5546C125.684 67.5546 126.062 67.6428 126.386 67.8191C126.716 67.9955 126.97 68.227 127.146 68.5135V67.6428H129.031V73.7819C129.031 74.3477 128.917 74.8584 128.689 75.314C128.469 75.7769 128.127 76.1443 127.664 76.4162C127.209 76.688 126.639 76.824 125.956 76.824C125.045 76.824 124.306 76.6072 123.74 76.1737C123.175 75.7475 122.851 75.167 122.77 74.4322H124.633C124.692 74.6674 124.832 74.8511 125.052 74.9833C125.272 75.1229 125.544 75.1927 125.868 75.1927C126.257 75.1927 126.566 75.0788 126.793 74.8511C127.029 74.6306 127.146 74.2743 127.146 73.7819V72.9112C126.962 73.1978 126.709 73.4329 126.386 73.6166C126.062 73.793 125.684 73.8811 125.25 73.8811C124.743 73.8811 124.284 73.7526 123.873 73.4954C123.461 73.2309 123.134 72.8598 122.892 72.3822C122.657 71.8972 122.539 71.3388 122.539 70.7069C122.539 70.0749 122.657 69.5202 122.892 69.0426C123.134 68.565 123.461 68.1976 123.873 67.9404C124.284 67.6832 124.743 67.5546 125.25 67.5546ZM127.146 70.7179C127.146 70.2476 127.014 69.8765 126.749 69.6047C126.492 69.3328 126.176 69.1969 125.801 69.1969C125.427 69.1969 125.107 69.3328 124.843 69.6047C124.585 69.8692 124.457 70.2366 124.457 70.7069C124.457 71.1771 124.585 71.5519 124.843 71.8311C125.107 72.103 125.427 72.2389 125.801 72.2389C126.176 72.2389 126.492 72.103 126.749 71.8311C127.014 71.5592 127.146 71.1881 127.146 70.7179ZM134.175 67.5767C134.88 67.5767 135.446 67.8118 135.872 68.2821C136.298 68.745 136.511 69.3842 136.511 70.1999V73.793H134.638V70.4534C134.638 70.0419 134.531 69.7222 134.318 69.4945C134.105 69.2667 133.818 69.1528 133.458 69.1528C133.098 69.1528 132.812 69.2667 132.599 69.4945C132.386 69.7222 132.279 70.0419 132.279 70.4534V73.793H130.394V65.6368H132.279V68.4694C132.47 68.1976 132.731 67.9808 133.062 67.8191C133.392 67.6575 133.763 67.5767 134.175 67.5767ZM141.249 72.1948V73.793H140.29C139.607 73.793 139.074 73.6276 138.692 73.297C138.31 72.959 138.119 72.4116 138.119 71.6547V69.2079H137.369V67.6428H138.119V66.1438H140.003V67.6428H141.238V69.2079H140.003V71.6768C140.003 71.8605 140.048 71.9927 140.136 72.0736C140.224 72.1544 140.371 72.1948 140.577 72.1948H141.249ZM144.801 73.8811C144.264 73.8811 143.787 73.7893 143.368 73.6056C142.949 73.4219 142.618 73.1721 142.376 72.8561C142.133 72.5328 141.997 72.1728 141.968 71.776H143.831C143.853 71.9891 143.952 72.1617 144.128 72.294C144.305 72.4263 144.521 72.4924 144.779 72.4924C145.014 72.4924 145.194 72.4483 145.319 72.3601C145.451 72.2646 145.517 72.1434 145.517 71.9964C145.517 71.8201 145.425 71.6915 145.242 71.6106C145.058 71.5225 144.76 71.427 144.349 71.3241C143.908 71.2212 143.541 71.1147 143.247 71.0044C142.953 70.8869 142.699 70.7069 142.486 70.4644C142.273 70.2146 142.167 69.8802 142.167 69.4614C142.167 69.1087 142.262 68.7891 142.453 68.5025C142.651 68.2086 142.938 67.9771 143.313 67.8081C143.695 67.6391 144.147 67.5546 144.668 67.5546C145.44 67.5546 146.046 67.7457 146.487 68.1278C146.935 68.5098 147.192 69.0168 147.259 69.6488H145.517C145.488 69.4357 145.392 69.2667 145.231 69.1418C145.076 69.0168 144.871 68.9544 144.613 68.9544C144.393 68.9544 144.224 68.9985 144.106 69.0867C143.989 69.1675 143.93 69.2814 143.93 69.4283C143.93 69.6047 144.022 69.7369 144.206 69.8251C144.397 69.9133 144.69 70.0015 145.087 70.0896C145.543 70.2072 145.914 70.3248 146.2 70.4423C146.487 70.5526 146.737 70.7363 146.95 70.9934C147.17 71.2433 147.284 71.5813 147.292 72.0074C147.292 72.3675 147.189 72.6908 146.983 72.9774C146.785 73.2566 146.494 73.477 146.112 73.6387C145.738 73.8003 145.3 73.8811 144.801 73.8811Z" fill="#69A372"/>
<g filter="url(#filter1_dd_334_193)">
<path d="M17.9413 114.228C17.9413 106.536 24.1769 100.301 31.8689 100.301C39.5608 100.301 45.7964 106.536 45.7964 114.228C45.7964 121.92 39.5608 128.156 31.8689 128.156C24.1769 128.156 17.9413 121.92 17.9413 114.228Z" fill="#69A372" shape-rendering="crispEdges"/>
<path d="M36.2893 110.911L30.2099 116.991L27.4465 114.227" stroke="white" stroke-width="1.65804" stroke-linecap="round" stroke-linejoin="round"/>
</g>
<path d="M64.9336 97.0163V104H63.2324V99.8118L61.6706 104H60.2977L58.7259 99.8019V104H57.0247V97.0163H59.0343L60.9941 101.851L62.934 97.0163H64.9336ZM71.3897 101.135C71.3897 101.294 71.3797 101.46 71.3598 101.632H67.5099C67.5364 101.977 67.6458 102.242 67.8382 102.428C68.0371 102.607 68.2792 102.697 68.5644 102.697C68.9888 102.697 69.284 102.518 69.4498 102.16H71.2603C71.1675 102.524 70.9984 102.853 70.753 103.144C70.5142 103.436 70.2125 103.665 69.8477 103.831C69.4829 103.997 69.0751 104.08 68.6241 104.08C68.0802 104.08 67.5961 103.964 67.1716 103.731C66.7472 103.499 66.4156 103.168 66.1768 102.737C65.938 102.305 65.8187 101.801 65.8187 101.224C65.8187 100.647 65.9347 100.143 66.1669 99.7123C66.4056 99.2812 66.7372 98.9496 67.1617 98.7175C67.5861 98.4854 68.0736 98.3693 68.6241 98.3693C69.1613 98.3693 69.6388 98.4821 70.0566 98.7075C70.4744 98.933 70.7994 99.2547 71.0315 99.6725C71.2703 100.09 71.3897 100.578 71.3897 101.135ZM69.6487 100.687C69.6487 100.395 69.5492 100.163 69.3503 99.9909C69.1513 99.8184 68.9026 99.7322 68.6042 99.7322C68.319 99.7322 68.0769 99.8151 67.8779 99.9809C67.6856 100.147 67.5662 100.382 67.5198 100.687H69.6487ZM75.381 102.558V104H74.5155C73.8987 104 73.4179 103.851 73.073 103.552C72.7281 103.247 72.5557 102.753 72.5557 102.07V99.8615H71.8792V98.4489H72.5557V97.0959H74.2569V98.4489H75.3711V99.8615H74.2569V102.09C74.2569 102.256 74.2966 102.375 74.3762 102.448C74.4558 102.521 74.5885 102.558 74.7742 102.558H75.381ZM75.9903 101.214C75.9903 100.644 76.0964 100.143 76.3087 99.7123C76.5275 99.2812 76.8227 98.9496 77.1941 98.7175C77.5655 98.4854 77.98 98.3693 78.4376 98.3693C78.8289 98.3693 79.1704 98.4489 79.4623 98.6081C79.7607 98.7672 79.9895 98.9761 80.1487 99.2348V98.4489H81.8498V104H80.1487V103.214C79.9829 103.473 79.7508 103.682 79.4523 103.841C79.1605 104 78.8189 104.08 78.4276 104.08C77.9767 104.08 77.5655 103.964 77.1941 103.731C76.8227 103.493 76.5275 103.158 76.3087 102.727C76.0964 102.289 75.9903 101.785 75.9903 101.214ZM80.1487 101.224C80.1487 100.8 80.0293 100.465 79.7906 100.22C79.5584 99.9743 79.2732 99.8516 78.935 99.8516C78.5968 99.8516 78.3083 99.9743 78.0695 100.22C77.8374 100.458 77.7213 100.79 77.7213 101.214C77.7213 101.639 77.8374 101.977 78.0695 102.229C78.3083 102.475 78.5968 102.597 78.935 102.597C79.2732 102.597 79.5584 102.475 79.7906 102.229C80.0293 101.984 80.1487 101.649 80.1487 101.224ZM84.7817 99.2348C84.9409 98.9761 85.1697 98.7672 85.4681 98.6081C85.7666 98.4489 86.1081 98.3693 86.4928 98.3693C86.9504 98.3693 87.3649 98.4854 87.7363 98.7175C88.1077 98.9496 88.3995 99.2812 88.6117 99.7123C88.8306 100.143 88.94 100.644 88.94 101.214C88.94 101.785 88.8306 102.289 88.6117 102.727C88.3995 103.158 88.1077 103.493 87.7363 103.731C87.3649 103.964 86.9504 104.08 86.4928 104.08C86.1015 104.08 85.7599 104.003 85.4681 103.851C85.1763 103.692 84.9475 103.483 84.7817 103.224V104H83.0805V96.6383H84.7817V99.2348ZM87.2091 101.214C87.2091 100.79 87.0897 100.458 86.8509 100.22C86.6188 99.9743 86.3303 99.8516 85.9854 99.8516C85.6472 99.8516 85.3587 99.9743 85.1199 100.22C84.8878 100.465 84.7717 100.8 84.7717 101.224C84.7717 101.649 84.8878 101.984 85.1199 102.229C85.3587 102.475 85.6472 102.597 85.9854 102.597C86.3237 102.597 86.6122 102.475 86.8509 102.229C87.0897 101.977 87.2091 101.639 87.2091 101.214ZM92.3594 104.08C91.8155 104.08 91.3247 103.964 90.887 103.731C90.4559 103.499 90.1144 103.168 89.8624 102.737C89.617 102.305 89.4943 101.801 89.4943 101.224C89.4943 100.654 89.6203 100.153 89.8723 99.7223C90.1243 99.2845 90.4692 98.9496 90.9069 98.7175C91.3446 98.4854 91.8354 98.3693 92.3793 98.3693C92.9231 98.3693 93.4139 98.4854 93.8516 98.7175C94.2893 98.9496 94.6342 99.2845 94.8862 99.7223C95.1382 100.153 95.2642 100.654 95.2642 101.224C95.2642 101.795 95.1349 102.299 94.8763 102.737C94.6242 103.168 94.276 103.499 93.8317 103.731C93.394 103.964 92.9032 104.08 92.3594 104.08ZM92.3594 102.607C92.6843 102.607 92.9596 102.488 93.1851 102.249C93.4172 102.01 93.5332 101.669 93.5332 101.224C93.5332 100.78 93.4205 100.439 93.195 100.2C92.9761 99.961 92.7042 99.8416 92.3793 99.8416C92.0476 99.8416 91.7724 99.961 91.5535 100.2C91.3347 100.432 91.2253 100.773 91.2253 101.224C91.2253 101.669 91.3314 102.01 91.5436 102.249C91.7625 102.488 92.0344 102.607 92.3594 102.607ZM97.8679 96.6383V104H96.1667V96.6383H97.8679ZM99.9562 97.8719C99.6578 97.8719 99.4124 97.7857 99.2201 97.6132C99.0344 97.4342 98.9415 97.2153 98.9415 96.9567C98.9415 96.6914 99.0344 96.4725 99.2201 96.3001C99.4124 96.121 99.6578 96.0315 99.9562 96.0315C100.248 96.0315 100.487 96.121 100.672 96.3001C100.865 96.4725 100.961 96.6914 100.961 96.9567C100.961 97.2153 100.865 97.4342 100.672 97.6132C100.487 97.7857 100.248 97.8719 99.9562 97.8719ZM100.802 98.4489V104H99.1007V98.4489H100.802ZM101.696 101.224C101.696 100.647 101.812 100.143 102.045 99.7123C102.283 99.2812 102.612 98.9496 103.029 98.7175C103.454 98.4854 103.938 98.3693 104.482 98.3693C105.178 98.3693 105.759 98.5517 106.223 98.9165C106.694 99.2812 107.002 99.7952 107.148 100.458H105.337C105.185 100.034 104.89 99.8217 104.452 99.8217C104.14 99.8217 103.892 99.9444 103.706 100.19C103.52 100.429 103.427 100.773 103.427 101.224C103.427 101.675 103.52 102.024 103.706 102.269C103.892 102.508 104.14 102.627 104.452 102.627C104.89 102.627 105.185 102.415 105.337 101.99H107.148C107.002 102.64 106.694 103.151 106.223 103.522C105.752 103.894 105.172 104.08 104.482 104.08C103.938 104.08 103.454 103.964 103.029 103.731C102.612 103.499 102.283 103.168 102.045 102.737C101.812 102.305 101.696 101.801 101.696 101.224ZM115.488 99.2646C115.488 99.6692 115.396 100.041 115.21 100.379C115.024 100.71 114.739 100.979 114.354 101.185C113.97 101.39 113.492 101.493 112.922 101.493H111.867V104H110.166V97.0163H112.922C113.479 97.0163 113.95 97.1125 114.334 97.3048C114.719 97.4972 115.008 97.7625 115.2 98.1007C115.392 98.4389 115.488 98.8269 115.488 99.2646ZM112.792 100.14C113.117 100.14 113.36 100.064 113.519 99.9113C113.678 99.7587 113.757 99.5432 113.757 99.2646C113.757 98.9861 113.678 98.7706 113.519 98.618C113.36 98.4655 113.117 98.3892 112.792 98.3892H111.867V100.14H112.792ZM116.036 101.214C116.036 100.644 116.142 100.143 116.354 99.7123C116.573 99.2812 116.868 98.9496 117.24 98.7175C117.611 98.4854 118.025 98.3693 118.483 98.3693C118.874 98.3693 119.216 98.4489 119.508 98.6081C119.806 98.7672 120.035 98.9761 120.194 99.2348V98.4489H121.895V104H120.194V103.214C120.028 103.473 119.796 103.682 119.498 103.841C119.206 104 118.864 104.08 118.473 104.08C118.022 104.08 117.611 103.964 117.24 103.731C116.868 103.493 116.573 103.158 116.354 102.727C116.142 102.289 116.036 101.785 116.036 101.214ZM120.194 101.224C120.194 100.8 120.075 100.465 119.836 100.22C119.604 99.9743 119.319 99.8516 118.98 99.8516C118.642 99.8516 118.354 99.9743 118.115 100.22C117.883 100.458 117.767 100.79 117.767 101.214C117.767 101.639 117.883 101.977 118.115 102.229C118.354 102.475 118.642 102.597 118.98 102.597C119.319 102.597 119.604 102.475 119.836 102.229C120.075 101.984 120.194 101.649 120.194 101.224ZM126.508 98.3892C127.158 98.3892 127.676 98.6014 128.06 99.0259C128.452 99.4437 128.647 100.021 128.647 100.757V104H126.956V100.986C126.956 100.614 126.86 100.326 126.668 100.12C126.475 99.9146 126.217 99.8118 125.892 99.8118C125.567 99.8118 125.308 99.9146 125.116 100.12C124.923 100.326 124.827 100.614 124.827 100.986V104H123.126V98.4489H124.827V99.1851C125 98.9397 125.232 98.7473 125.524 98.6081C125.815 98.4622 126.144 98.3892 126.508 98.3892ZM135.062 101.135C135.062 101.294 135.052 101.46 135.032 101.632L131.182 101.632C131.209 101.977 131.318 102.242 131.511 102.428C131.71 102.607 131.952 102.697 132.237 102.697C132.661 102.697 132.956 102.518 133.122 102.16H134.933C134.84 102.524 134.671 102.853 134.425 103.144C134.187 103.436 133.885 103.665 133.52 103.831C133.155 103.997 132.748 104.08 132.297 104.08C131.753 104.08 131.269 103.964 130.844 103.731C130.42 103.499 130.088 103.168 129.849 102.737C129.611 102.305 129.491 101.801 129.491 101.224C129.491 100.647 129.607 100.143 129.839 99.7123C130.078 99.2812 130.41 98.9496 130.834 98.7175C131.259 98.4854 131.746 98.3693 132.297 98.3693C132.834 98.3693 133.311 98.4821 133.729 98.7075C134.147 98.933 134.472 99.2547 134.704 99.6725C134.943 100.09 135.062 100.578 135.062 101.135ZM133.321 100.687C133.321 100.395 133.222 100.163 133.023 99.9909C132.824 99.8184 132.575 99.7322 132.277 99.7322C131.991 99.7322 131.749 99.8151 131.55 99.9809C131.358 100.147 131.239 100.382 131.192 100.687H133.321ZM137.661 96.6383V104H135.96V96.6383H137.661ZM62.3669 116L61.7203 115.373C61.077 115.864 60.3077 116.109 59.4123 116.109C58.8751 116.109 58.4076 116.023 58.0096 115.851C57.6117 115.672 57.3033 115.423 57.0844 115.105C56.8722 114.78 56.7661 114.402 56.7661 113.971C56.7661 113.533 56.8822 113.138 57.1143 112.787C57.353 112.429 57.7079 112.137 58.1787 111.911C58.0063 111.699 57.8836 111.497 57.8107 111.304C57.7377 111.105 57.7012 110.89 57.7012 110.658C57.7012 110.326 57.7874 110.024 57.9599 109.753C58.1323 109.481 58.381 109.268 58.706 109.116C59.0376 108.957 59.4289 108.877 59.8799 108.877C60.3375 108.877 60.7255 108.96 61.0438 109.126C61.3622 109.292 61.6009 109.514 61.7601 109.792C61.9193 110.071 61.9922 110.376 61.979 110.708H60.3773C60.3839 110.528 60.3375 110.393 60.238 110.3C60.1452 110.2 60.0192 110.15 59.86 110.15C59.7008 110.15 59.5682 110.197 59.4621 110.29C59.3559 110.383 59.3029 110.502 59.3029 110.648C59.3029 110.787 59.346 110.933 59.4322 111.086C59.5251 111.238 59.6677 111.414 59.86 111.613L61.5611 113.274C61.5744 113.241 61.591 113.201 61.6109 113.155C61.6374 113.108 61.6639 113.055 61.6905 112.996L62.0585 112.369H63.7597L63.2822 113.234C63.1031 113.626 62.8975 113.997 62.6654 114.349L64.3466 116H62.3669ZM59.4919 114.737C59.9363 114.737 60.3309 114.611 60.6757 114.359L59.1238 112.856C58.6463 113.102 58.4076 113.433 58.4076 113.851C58.4076 114.103 58.5037 114.315 58.696 114.488C58.895 114.654 59.1603 114.737 59.4919 114.737ZM73.1186 109.016V116H71.4175V113.125H68.7713V116H67.0701V109.016H68.7713V111.752H71.4175V109.016H73.1186ZM76.0478 111.235C76.207 110.976 76.4358 110.767 76.7343 110.608C77.0327 110.449 77.3743 110.369 77.7589 110.369C78.2166 110.369 78.6311 110.485 79.0025 110.717C79.3739 110.95 79.6657 111.281 79.8779 111.712C80.0968 112.143 80.2062 112.644 80.2062 113.214C80.2062 113.785 80.0968 114.289 79.8779 114.727C79.6657 115.158 79.3739 115.493 79.0025 115.731C78.6311 115.964 78.2166 116.08 77.7589 116.08C77.3676 116.08 77.0261 116.003 76.7343 115.851C76.4425 115.692 76.2136 115.483 76.0478 115.224V116H74.3467V108.638H76.0478V111.235ZM78.4752 113.214C78.4752 112.79 78.3558 112.458 78.1171 112.22C77.885 111.974 77.5965 111.852 77.2516 111.852C76.9133 111.852 76.6248 111.974 76.3861 112.22C76.154 112.465 76.0379 112.8 76.0379 113.224C76.0379 113.649 76.154 113.984 76.3861 114.229C76.6248 114.475 76.9133 114.597 77.2516 114.597C77.5898 114.597 77.8783 114.475 78.1171 114.229C78.3558 113.977 78.4752 113.639 78.4752 113.214ZM85.446 114.766H82.8396L82.4218 116H80.641L83.1679 109.016H85.1376L87.6645 116H85.8639L85.446 114.766ZM85.0083 113.453L84.1428 110.897L83.2873 113.453H85.0083ZM88.0853 110.32V108.738H90.841V116H89.0702V110.32H88.0853ZM91.8356 113.224C91.8356 112.647 91.9517 112.143 92.1838 111.712C92.4225 111.281 92.7508 110.95 93.1687 110.717C93.5931 110.485 94.0773 110.369 94.6211 110.369C95.3175 110.369 95.8978 110.552 96.362 110.916C96.8329 111.281 97.1413 111.795 97.2872 112.458H95.4766C95.3241 112.034 95.029 111.822 94.5913 111.822C94.2795 111.822 94.0308 111.944 93.8451 112.19C93.6594 112.429 93.5666 112.773 93.5666 113.224C93.5666 113.675 93.6594 114.024 93.8451 114.269C94.0308 114.508 94.2795 114.627 94.5913 114.627C95.029 114.627 95.3241 114.415 95.4766 113.99H97.2872C97.1413 114.64 96.8329 115.151 96.362 115.522C95.8912 115.894 95.3108 116.08 94.6211 116.08C94.0773 116.08 93.5931 115.964 93.1687 115.731C92.7508 115.499 92.4225 115.168 92.1838 114.737C91.9517 114.305 91.8356 113.801 91.8356 113.224Z" fill="white"/>
<path d="M63.7967 124.471V130.523H62.3224V126.894L60.9688 130.523H59.779L58.4167 126.885V130.523H56.9424V124.471H58.684L60.3825 128.661L62.0637 124.471H63.7967ZM64.5638 128.109C64.5638 127.615 64.6557 127.181 64.8397 126.807C65.0294 126.434 65.2851 126.146 65.607 125.945C65.9289 125.744 66.2881 125.644 66.6847 125.644C67.0239 125.644 67.3199 125.712 67.5728 125.85C67.8314 125.988 68.0297 126.169 68.1677 126.394V125.712H69.642V130.523H68.1677V129.842C68.024 130.066 67.8228 130.248 67.5642 130.385C67.3113 130.523 67.0152 130.592 66.6761 130.592C66.2853 130.592 65.9289 130.492 65.607 130.291C65.2851 130.084 65.0294 129.793 64.8397 129.42C64.6557 129.04 64.5638 128.604 64.5638 128.109ZM68.1677 128.118C68.1677 127.75 68.0642 127.46 67.8573 127.247C67.6561 127.034 67.409 126.928 67.1158 126.928C66.8227 126.928 66.5727 127.034 66.3657 127.247C66.1646 127.454 66.064 127.741 66.064 128.109C66.064 128.477 66.1646 128.77 66.3657 128.989C66.5727 129.201 66.8227 129.308 67.1158 129.308C67.409 129.308 67.6561 129.201 67.8573 128.989C68.0642 128.776 68.1677 128.486 68.1677 128.118ZM72.183 126.514C72.3554 126.25 72.5709 126.043 72.8296 125.894C73.0882 125.738 73.3756 125.661 73.6918 125.661V127.221H73.2865C72.9187 127.221 72.6428 127.302 72.4589 127.463C72.2749 127.618 72.183 127.894 72.183 128.29V130.523H70.7086V125.712H72.183V126.514ZM75.9218 125.6V124.23H78.31V130.523H76.7753V125.6H75.9218ZM81.0515 129.161L80.0945 131.636H79.1548L79.6548 129.161H81.0515ZM83.5693 129.342C83.7647 129.187 83.8538 129.115 83.8366 129.127C84.3999 128.661 84.8425 128.279 85.1643 127.98C85.492 127.681 85.7679 127.368 85.992 127.04C86.2162 126.713 86.3283 126.394 86.3283 126.083C86.3283 125.848 86.2737 125.664 86.1645 125.531C86.0553 125.399 85.8914 125.333 85.673 125.333C85.4546 125.333 85.2822 125.416 85.1557 125.583C85.035 125.744 84.9747 125.974 84.9747 126.273H83.5521C83.5636 125.784 83.667 125.376 83.8625 125.049C84.0636 124.721 84.3252 124.48 84.647 124.324C84.9747 124.169 85.3368 124.092 85.7334 124.092C86.4174 124.092 86.9318 124.267 87.2767 124.618C87.6273 124.968 87.8026 125.425 87.8026 125.988C87.8026 126.603 87.5928 127.175 87.1732 127.704C86.7536 128.227 86.2191 128.739 85.5696 129.239H87.8975V130.437H83.5693V129.342ZM88.5466 127.29C88.5466 126.302 88.7363 125.523 89.1156 124.954C89.5007 124.385 90.1186 124.1 90.9693 124.1C91.82 124.1 92.435 124.385 92.8144 124.954C93.1995 125.523 93.392 126.302 93.392 127.29C93.392 128.29 93.1995 129.075 92.8144 129.644C92.435 130.213 91.82 130.498 90.9693 130.498C90.1186 130.498 89.5007 130.213 89.1156 129.644C88.7363 129.075 88.5466 128.29 88.5466 127.29ZM91.9436 127.29C91.9436 126.71 91.8803 126.264 91.7539 125.954C91.6274 125.638 91.3659 125.48 90.9693 125.48C90.5727 125.48 90.3112 125.638 90.1847 125.954C90.0583 126.264 89.995 126.71 89.995 127.29C89.995 127.681 90.018 128.006 90.064 128.265C90.11 128.517 90.202 128.724 90.3399 128.885C90.4836 129.04 90.6934 129.118 90.9693 129.118C91.2452 129.118 91.4521 129.04 91.5901 128.885C91.7338 128.724 91.8286 128.517 91.8746 128.265C91.9206 128.006 91.9436 127.681 91.9436 127.29ZM94.1192 129.342C94.3146 129.187 94.4037 129.115 94.3865 129.127C94.9498 128.661 95.3924 128.279 95.7142 127.98C96.0419 127.681 96.3178 127.368 96.5419 127.04C96.7661 126.713 96.8782 126.394 96.8782 126.083C96.8782 125.848 96.8236 125.664 96.7144 125.531C96.6052 125.399 96.4414 125.333 96.2229 125.333C96.0045 125.333 95.8321 125.416 95.7056 125.583C95.5849 125.744 95.5246 125.974 95.5246 126.273H94.102C94.1135 125.784 94.2169 125.376 94.4124 125.049C94.6135 124.721 94.8751 124.48 95.1969 124.324C95.5246 124.169 95.8867 124.092 96.2833 124.092C96.9673 124.092 97.4817 124.267 97.8266 124.618C98.1772 124.968 98.3525 125.425 98.3525 125.988C98.3525 126.603 98.1427 127.175 97.7231 127.704C97.3035 128.227 96.769 128.739 96.1195 129.239H98.4474V130.437H94.1192V129.342ZM102.209 125.928C102.163 125.715 102.082 125.557 101.968 125.454C101.853 125.345 101.689 125.29 101.476 125.29C101.148 125.29 100.913 125.434 100.769 125.721C100.625 126.003 100.551 126.451 100.545 127.066C100.671 126.865 100.852 126.707 101.088 126.592C101.33 126.477 101.594 126.419 101.881 126.419C102.445 126.419 102.896 126.598 103.235 126.954C103.58 127.31 103.752 127.808 103.752 128.446C103.752 128.865 103.666 129.233 103.494 129.549C103.327 129.865 103.08 130.112 102.752 130.291C102.43 130.469 102.048 130.558 101.605 130.558C100.72 130.558 100.105 130.282 99.7604 129.73C99.4155 129.173 99.2431 128.374 99.2431 127.333C99.2431 126.241 99.4241 125.431 99.7862 124.902C100.154 124.367 100.74 124.1 101.545 124.1C101.976 124.1 102.338 124.186 102.631 124.359C102.93 124.526 103.154 124.747 103.304 125.023C103.459 125.299 103.551 125.6 103.58 125.928H102.209ZM101.528 127.583C101.281 127.583 101.074 127.658 100.907 127.808C100.746 127.951 100.666 128.158 100.666 128.428C100.666 128.704 100.74 128.92 100.89 129.075C101.045 129.23 101.263 129.308 101.545 129.308C101.798 129.308 101.996 129.233 102.14 129.084C102.289 128.928 102.364 128.719 102.364 128.454C102.364 128.184 102.292 127.971 102.149 127.816C102.005 127.661 101.798 127.583 101.528 127.583Z" fill="#69A372"/>
<g filter="url(#filter2_dd_334_193)">
<mask id="path-8-inside-1_334_193" fill="white">
<path d="M174.605 103.119C174.605 98.0828 178.688 94 183.724 94H226.512C231.548 94 235.631 98.0828 235.631 103.119C235.631 108.156 231.548 112.238 226.512 112.238H183.724C178.688 112.238 174.605 108.156 174.605 103.119Z"/>
</mask>
<path d="M174.605 103.119C174.605 98.0828 178.688 94 183.724 94H226.512C231.548 94 235.631 98.0828 235.631 103.119C235.631 108.156 231.548 112.238 226.512 112.238H183.724C178.688 112.238 174.605 108.156 174.605 103.119Z" fill="#E2EED2" shape-rendering="crispEdges"/>
<path d="M174.605 103.119M235.631 103.119M235.631 103.119M174.605 103.119M183.724 94V94.6632H226.512V94V93.3368H183.724V94ZM235.631 103.119M226.512 112.238V111.575H183.724V112.238V112.902H226.512V112.238ZM174.605 103.119M183.724 112.238V111.575C179.054 111.575 175.268 107.789 175.268 103.119H174.605H173.942C173.942 108.522 178.322 112.902 183.724 112.902V112.238ZM235.631 103.119H234.968C234.968 107.789 231.182 111.575 226.512 111.575V112.238V112.902C231.915 112.902 236.294 108.522 236.294 103.119H235.631ZM226.512 94V94.6632C231.182 94.6632 234.968 98.4491 234.968 103.119H235.631H236.294C236.294 97.7165 231.915 93.3368 226.512 93.3368V94ZM183.724 94V93.3368C178.322 93.3368 173.942 97.7165 173.942 103.119H174.605H175.268C175.268 98.4491 179.054 94.6632 183.724 94.6632V94Z" fill="white" mask="url(#path-8-inside-1_334_193)"/>
<path d="M186.134 103.494C186.376 103.545 186.571 103.667 186.719 103.858C186.866 104.045 186.939 104.26 186.939 104.503C186.939 104.853 186.816 105.131 186.569 105.338C186.327 105.541 185.986 105.643 185.549 105.643H183.597V101.452H185.483C185.909 101.452 186.241 101.55 186.48 101.745C186.723 101.94 186.844 102.204 186.844 102.539C186.844 102.785 186.778 102.99 186.647 103.154C186.52 103.317 186.348 103.43 186.134 103.494ZM184.618 103.148H185.286C185.453 103.148 185.58 103.112 185.668 103.04C185.76 102.965 185.805 102.855 185.805 102.712C185.805 102.569 185.76 102.459 185.668 102.384C185.58 102.308 185.453 102.27 185.286 102.27H184.618V103.148ZM185.37 104.819C185.541 104.819 185.672 104.781 185.764 104.705C185.859 104.626 185.907 104.512 185.907 104.365C185.907 104.218 185.857 104.103 185.758 104.019C185.662 103.935 185.529 103.894 185.358 103.894H184.618V104.819H185.37ZM188.851 104.855H190.188V105.643H187.83V101.452H188.851L188.851 104.855ZM192.955 105.684C192.561 105.684 192.199 105.593 191.868 105.41C191.542 105.227 191.281 104.972 191.086 104.646C190.895 104.315 190.8 103.945 190.8 103.536C190.8 103.126 190.895 102.758 191.086 102.431C191.281 102.105 191.542 101.85 191.868 101.667C192.199 101.484 192.561 101.393 192.955 101.393C193.349 101.393 193.709 101.484 194.035 101.667C194.365 101.85 194.624 102.105 194.811 102.431C195.002 102.758 195.097 103.126 195.097 103.536C195.097 103.945 195.002 104.315 194.811 104.646C194.62 104.972 194.361 105.227 194.035 105.41C193.709 105.593 193.349 105.684 192.955 105.684ZM192.955 104.753C193.289 104.753 193.555 104.642 193.754 104.419C193.957 104.196 194.059 103.902 194.059 103.536C194.059 103.165 193.957 102.871 193.754 102.652C193.555 102.429 193.289 102.318 192.955 102.318C192.616 102.318 192.346 102.427 192.143 102.646C191.944 102.865 191.844 103.161 191.844 103.536C191.844 103.906 191.944 104.202 192.143 104.425C192.346 104.644 192.616 104.753 192.955 104.753ZM197.945 105.684C197.551 105.684 197.189 105.593 196.859 105.41C196.533 105.227 196.272 104.972 196.077 104.646C195.886 104.315 195.791 103.945 195.791 103.536C195.791 103.126 195.886 102.758 196.077 102.431C196.272 102.105 196.533 101.85 196.859 101.667C197.189 101.484 197.551 101.393 197.945 101.393C198.339 101.393 198.699 101.484 199.026 101.667C199.356 101.85 199.615 102.105 199.802 102.431C199.993 102.758 200.088 103.126 200.088 103.536C200.088 103.945 199.993 104.315 199.802 104.646C199.611 104.972 199.352 105.227 199.026 105.41C198.699 105.593 198.339 105.684 197.945 105.684ZM197.945 104.753C198.28 104.753 198.546 104.642 198.745 104.419C198.948 104.196 199.05 103.902 199.05 103.536C199.05 103.165 198.948 102.871 198.745 102.652C198.546 102.429 198.28 102.318 197.945 102.318C197.607 102.318 197.337 102.427 197.134 102.646C196.935 102.865 196.835 103.161 196.835 103.536C196.835 103.906 196.935 104.202 197.134 104.425C197.337 104.644 197.607 104.753 197.945 104.753ZM202.524 101.452C202.966 101.452 203.352 101.54 203.682 101.715C204.013 101.89 204.267 102.137 204.446 102.455C204.629 102.77 204.721 103.134 204.721 103.547C204.721 103.957 204.629 104.321 204.446 104.64C204.267 104.958 204.011 105.205 203.676 105.38C203.346 105.555 202.962 105.643 202.524 105.643H200.955V101.452H202.524ZM202.459 104.759C202.845 104.759 203.145 104.654 203.36 104.443C203.575 104.232 203.682 103.933 203.682 103.547C203.682 103.161 203.575 102.861 203.36 102.646C203.145 102.431 202.845 102.324 202.459 102.324H201.975V104.759H202.459ZM212.919 101.452L211.827 105.643H210.591L209.923 102.885L209.23 105.643H207.995L206.932 101.452H208.025L208.627 104.503L209.374 101.452H210.496L211.212 104.503L211.821 101.452H212.919ZM215.711 105.684C215.317 105.684 214.955 105.593 214.625 105.41C214.298 105.227 214.038 104.972 213.843 104.646C213.652 104.315 213.556 103.945 213.556 103.536C213.556 103.126 213.652 102.758 213.843 102.431C214.038 102.105 214.298 101.85 214.625 101.667C214.955 101.484 215.317 101.393 215.711 101.393C216.105 101.393 216.465 101.484 216.792 101.667C217.122 101.85 217.38 102.105 217.567 102.431C217.758 102.758 217.854 103.126 217.854 103.536C217.854 103.945 217.758 104.315 217.567 104.646C217.376 104.972 217.118 105.227 216.792 105.41C216.465 105.593 216.105 105.684 215.711 105.684ZM215.711 104.753C216.045 104.753 216.312 104.642 216.511 104.419C216.714 104.196 216.815 103.902 216.815 103.536C216.815 103.165 216.714 102.871 216.511 102.652C216.312 102.429 216.045 102.318 215.711 102.318C215.373 102.318 215.102 102.427 214.899 102.646C214.7 102.865 214.601 103.161 214.601 103.536C214.601 103.906 214.7 104.202 214.899 104.425C215.102 104.644 215.373 104.753 215.711 104.753ZM220.857 105.643L219.986 104.061H219.741V105.643H218.72V101.452H220.433C220.764 101.452 221.044 101.51 221.275 101.625C221.51 101.741 221.685 101.9 221.8 102.103C221.916 102.302 221.973 102.525 221.973 102.772C221.973 103.05 221.894 103.299 221.735 103.518C221.579 103.736 221.349 103.892 221.042 103.983L222.009 105.643H220.857ZM219.741 103.339H220.374C220.561 103.339 220.7 103.293 220.791 103.201C220.887 103.11 220.935 102.98 220.935 102.813C220.935 102.654 220.887 102.529 220.791 102.437C220.7 102.346 220.561 102.3 220.374 102.3H219.741V103.339ZM225.342 105.643L223.933 103.792V105.643H222.913V101.452H223.933V103.291L225.33 101.452H226.53L224.906 103.506L226.589 105.643H225.342Z" fill="#69A372"/>
</g>
<path d="M211.107 121.215L209.456 125.871H208.037L206.385 121.215H207.592L208.746 124.73L209.907 121.215H211.107ZM213.047 121.215V125.871H211.913V121.215H213.047ZM215.334 122.124V123.066H216.853V123.941H215.334V124.962H217.052V125.871H214.2V121.215H217.052V122.124H215.334ZM224.527 121.215L223.313 125.871H221.94L221.197 122.807L220.428 125.871H219.055L217.875 121.215H219.088L219.758 124.604L220.587 121.215H221.834L222.63 124.604L223.306 121.215H224.527Z" fill="#69A372"/>
<path d="M230.658 125.834L232.647 123.844L230.658 121.854" stroke="#69A372" stroke-width="0.829018" stroke-linecap="round" stroke-linejoin="round"/>
<g filter="url(#filter3_dd_334_193)">
<path d="M20.2964 193.18C20.2964 184.487 27.3438 177.439 36.0371 177.439C44.7304 177.439 51.7777 184.487 51.7777 193.18C51.7777 201.873 44.7304 208.921 36.0371 208.921C27.3438 208.921 20.2964 201.873 20.2964 193.18Z" fill="#69A372" shape-rendering="crispEdges"/>
<path d="M41.0336 189.432L34.1627 196.303L31.0396 193.179" stroke="white" stroke-width="1.87388" stroke-linecap="round" stroke-linejoin="round"/>
</g>
<path d="M66.39 186.863H68.9085V188.347H64.4674V180.454H66.39V186.863ZM70.7925 181.421C70.4552 181.421 70.1778 181.323 69.9605 181.128C69.7506 180.926 69.6457 180.679 69.6457 180.386C69.6457 180.087 69.7506 179.839 69.9605 179.644C70.1778 179.442 70.4552 179.341 70.7925 179.341C71.1223 179.341 71.3921 179.442 71.602 179.644C71.8194 179.839 71.928 180.087 71.928 180.386C71.928 180.679 71.8194 180.926 71.602 181.128C71.3921 181.323 71.1223 181.421 70.7925 181.421ZM71.7482 182.073V188.347H69.8255L69.8255 182.073H71.7482ZM75.0641 182.961C75.2514 182.669 75.51 182.433 75.8398 182.253C76.1696 182.073 76.5557 181.983 76.9979 181.983C77.5151 181.983 77.9836 182.114 78.4033 182.376C78.8231 182.639 79.1529 183.014 79.3927 183.501C79.6401 183.988 79.7638 184.554 79.7638 185.199C79.7638 185.843 79.6401 186.413 79.3927 186.908C79.1529 187.395 78.8231 187.773 78.4033 188.043C77.9836 188.305 77.5151 188.437 76.9979 188.437C76.5632 188.437 76.1771 188.347 75.8398 188.167C75.51 187.987 75.2514 187.755 75.0641 187.47V191.337H73.1414V182.073H75.0641V182.961ZM77.8074 185.199C77.8074 184.719 77.6725 184.344 77.4027 184.074C77.1403 183.797 76.8143 183.658 76.4245 183.658C76.0422 183.658 75.7162 183.797 75.4463 184.074C75.184 184.352 75.0528 184.73 75.0528 185.21C75.0528 185.69 75.184 186.068 75.4463 186.345C75.7162 186.623 76.0422 186.761 76.4245 186.761C76.8068 186.761 77.1328 186.623 77.4027 186.345C77.6725 186.061 77.8074 185.678 77.8074 185.199ZM81.7393 181.421C81.402 181.421 81.1247 181.323 80.9073 181.128C80.6974 180.926 80.5925 180.679 80.5925 180.386C80.5925 180.087 80.6974 179.839 80.9073 179.644C81.1247 179.442 81.402 179.341 81.7393 179.341C82.0691 179.341 82.339 179.442 82.5488 179.644C82.7662 179.839 82.8749 180.087 82.8749 180.386C82.8749 180.679 82.7662 180.926 82.5488 181.128C82.339 181.323 82.0691 181.421 81.7393 181.421ZM82.695 182.073V188.347H80.7724V182.073H82.695ZM83.706 185.199C83.706 184.554 83.826 183.988 84.0658 183.501C84.3132 183.014 84.6467 182.639 85.0665 182.376C85.4862 182.114 85.9547 181.983 86.4719 181.983C86.8841 181.983 87.2589 182.069 87.5962 182.242C87.941 182.414 88.2108 182.646 88.4057 182.939V180.027H90.3283V188.347H88.4057V187.447C88.2258 187.747 87.9672 187.987 87.6299 188.167C87.3001 188.347 86.9141 188.437 86.4719 188.437C85.9547 188.437 85.4862 188.305 85.0665 188.043C84.6467 187.773 84.3132 187.395 84.0658 186.908C83.826 186.413 83.706 185.843 83.706 185.199ZM88.4057 185.21C88.4057 184.73 88.2708 184.352 88.001 184.074C87.7386 183.797 87.4163 183.658 87.034 183.658C86.6518 183.658 86.3257 183.797 86.0559 184.074C85.7935 184.344 85.6624 184.719 85.6624 185.199C85.6624 185.678 85.7935 186.061 86.0559 186.345C86.3257 186.623 86.6518 186.761 87.034 186.761C87.4163 186.761 87.7386 186.623 88.001 186.345C88.2708 186.068 88.4057 185.69 88.4057 185.21ZM100.117 182.995C100.117 183.452 100.012 183.872 99.8022 184.254C99.5924 184.629 99.27 184.932 98.8353 185.165C98.4006 185.397 97.8609 185.513 97.2163 185.513H96.0245V188.347H94.1019V180.454H97.2163C97.8459 180.454 98.3781 180.563 98.8128 180.78C99.2476 180.997 99.5736 181.297 99.791 181.679C100.008 182.062 100.117 182.5 100.117 182.995ZM97.0701 183.984C97.4374 183.984 97.711 183.898 97.8909 183.726C98.0708 183.553 98.1607 183.31 98.1607 182.995C98.1607 182.68 98.0708 182.436 97.8909 182.264C97.711 182.092 97.4374 182.005 97.0701 182.005H96.0245V183.984H97.0701ZM103.041 183.119C103.265 182.774 103.547 182.504 103.884 182.309C104.221 182.107 104.596 182.005 105.008 182.005V184.04H104.48C104 184.04 103.64 184.145 103.4 184.355C103.16 184.558 103.041 184.917 103.041 185.435V188.347H101.118V182.073H103.041V183.119ZM108.783 188.437C108.168 188.437 107.614 188.305 107.119 188.043C106.632 187.781 106.246 187.406 105.961 186.919C105.683 186.432 105.545 185.862 105.545 185.21C105.545 184.565 105.687 183.999 105.972 183.512C106.257 183.017 106.647 182.639 107.141 182.376C107.636 182.114 108.191 181.983 108.805 181.983C109.42 181.983 109.975 182.114 110.469 182.376C110.964 182.639 111.354 183.017 111.639 183.512C111.924 183.999 112.066 184.565 112.066 185.21C112.066 185.854 111.92 186.424 111.627 186.919C111.343 187.406 110.949 187.781 110.447 188.043C109.952 188.305 109.398 188.437 108.783 188.437ZM108.783 186.773C109.15 186.773 109.461 186.638 109.716 186.368C109.978 186.098 110.11 185.712 110.11 185.21C110.11 184.708 109.982 184.322 109.727 184.052C109.48 183.782 109.173 183.647 108.805 183.647C108.431 183.647 108.12 183.782 107.872 184.052C107.625 184.314 107.501 184.7 107.501 185.21C107.501 185.712 107.621 186.098 107.861 186.368C108.108 186.638 108.416 186.773 108.783 186.773ZM116.234 183.669H115.2V188.347H113.277V183.669H112.58V182.073H113.277V181.893C113.277 181.121 113.498 180.536 113.94 180.139C114.383 179.734 115.031 179.532 115.886 179.532C116.028 179.532 116.133 179.536 116.2 179.543V181.173C115.833 181.151 115.574 181.203 115.425 181.331C115.275 181.458 115.2 181.687 115.2 182.017V182.073H116.234V183.669ZM118.104 181.421C117.767 181.421 117.49 181.323 117.272 181.128C117.063 180.926 116.958 180.679 116.958 180.386C116.958 180.087 117.063 179.839 117.272 179.644C117.49 179.442 117.767 179.341 118.104 179.341C118.434 179.341 118.704 179.442 118.914 179.644C119.131 179.839 119.24 180.087 119.24 180.386C119.24 180.679 119.131 180.926 118.914 181.128C118.704 181.323 118.434 181.421 118.104 181.421ZM119.06 182.073V188.347H117.137V182.073H119.06ZM122.376 180.027V188.347H120.453V180.027H122.376ZM129.683 185.109C129.683 185.289 129.672 185.476 129.65 185.671H125.298C125.328 186.061 125.452 186.36 125.669 186.57C125.894 186.773 126.168 186.874 126.49 186.874C126.97 186.874 127.303 186.671 127.491 186.267H129.537C129.432 186.679 129.241 187.05 128.964 187.38C128.694 187.71 128.353 187.968 127.941 188.156C127.528 188.343 127.067 188.437 126.558 188.437C125.943 188.437 125.396 188.305 124.916 188.043C124.436 187.781 124.062 187.406 123.792 186.919C123.522 186.432 123.387 185.862 123.387 185.21C123.387 184.558 123.518 183.988 123.781 183.501C124.05 183.014 124.425 182.639 124.905 182.376C125.385 182.114 125.935 181.983 126.558 181.983C127.165 181.983 127.704 182.11 128.177 182.365C128.649 182.62 129.016 182.984 129.278 183.456C129.548 183.928 129.683 184.479 129.683 185.109ZM127.716 184.603C127.716 184.273 127.603 184.011 127.378 183.816C127.154 183.621 126.872 183.523 126.535 183.523C126.213 183.523 125.939 183.617 125.714 183.804C125.497 183.992 125.362 184.258 125.31 184.603H127.716Z" fill="white"/>
<path d="M68.6622 198.558V203.216C68.6622 203.937 68.4575 204.492 68.0483 204.882C67.6455 205.272 67.0998 205.467 66.4112 205.467C65.6902 205.467 65.112 205.262 64.6768 204.853C64.2415 204.444 64.0239 203.862 64.0239 203.109H65.6804C65.6804 203.394 65.7389 203.612 65.8558 203.761C65.9728 203.904 66.1417 203.976 66.3625 203.976C66.5639 203.976 66.7198 203.911 66.8302 203.781C66.9407 203.651 66.9959 203.463 66.9959 203.216V198.558H68.6622ZM69.6768 202.67C69.6768 202.111 69.7807 201.621 69.9886 201.199C70.203 200.776 70.492 200.452 70.8558 200.224C71.2196 199.997 71.6256 199.883 72.0738 199.883C72.4571 199.883 72.7917 199.961 73.0775 200.117C73.3698 200.273 73.5939 200.478 73.7498 200.731V199.961H75.4161V205.398H73.7498V204.629C73.5874 204.882 73.3601 205.087 73.0678 205.243C72.7819 205.398 72.4474 205.476 72.0641 205.476C71.6224 205.476 71.2196 205.363 70.8558 205.135C70.492 204.901 70.203 204.573 69.9886 204.151C69.7807 203.722 69.6768 203.229 69.6768 202.67ZM73.7498 202.68C73.7498 202.264 73.6329 201.936 73.3991 201.696C73.1717 201.455 72.8924 201.335 72.5611 201.335C72.2298 201.335 71.9472 201.455 71.7133 201.696C71.4859 201.93 71.3723 202.254 71.3723 202.67C71.3723 203.086 71.4859 203.417 71.7133 203.664C71.9472 203.904 72.2298 204.025 72.5611 204.025C72.8924 204.025 73.1717 203.904 73.3991 203.664C73.6329 203.424 73.7498 203.096 73.7498 202.68ZM79.9346 199.903C80.5712 199.903 81.0779 200.111 81.4547 200.526C81.838 200.936 82.0296 201.501 82.0296 202.222V205.398H80.3731V202.446C80.3731 202.082 80.2789 201.8 80.0905 201.598C79.9021 201.397 79.6488 201.296 79.3305 201.296C79.0121 201.296 78.7588 201.397 78.5704 201.598C78.382 201.8 78.2878 202.082 78.2878 202.446V205.398H76.6216V199.961H78.2878V200.682C78.4567 200.442 78.6841 200.254 78.9699 200.117C79.2558 199.974 79.5773 199.903 79.9346 199.903ZM84.9114 199.834V198.285H87.6105V205.398H85.876V199.834H84.9114ZM93.7589 199.737H90.7187V201.082C90.8486 200.939 91.0305 200.822 91.2644 200.731C91.4982 200.64 91.7516 200.595 92.0244 200.595C92.5116 200.595 92.9144 200.705 93.2327 200.926C93.5575 201.147 93.7946 201.433 93.944 201.783C94.0934 202.134 94.1681 202.514 94.1681 202.923C94.1681 203.683 93.9538 204.288 93.525 204.736C93.0963 205.178 92.4921 205.398 91.7126 205.398C91.1929 205.398 90.7414 205.311 90.3581 205.135C89.9749 204.953 89.6793 204.703 89.4714 204.385C89.2636 204.067 89.1499 203.7 89.1304 203.284H90.7577C90.7966 203.485 90.8908 203.654 91.0402 203.791C91.1897 203.921 91.3943 203.986 91.6541 203.986C91.9594 203.986 92.1868 203.888 92.3362 203.693C92.4856 203.498 92.5603 203.238 92.5603 202.914C92.5603 202.595 92.4824 202.352 92.3265 202.183C92.1706 202.014 91.9432 201.93 91.6444 201.93C91.4235 201.93 91.2416 201.985 91.0987 202.095C90.9558 202.199 90.8616 202.339 90.8161 202.514H89.2083V198.275H93.7589V199.737ZM97.0465 203.859L95.9649 206.655H94.9028L95.4679 203.859H97.0465ZM99.892 204.063C100.113 203.888 100.214 203.807 100.194 203.82C100.831 203.294 101.331 202.862 101.695 202.524C102.065 202.186 102.377 201.832 102.63 201.462C102.883 201.092 103.01 200.731 103.01 200.38C103.01 200.114 102.948 199.906 102.825 199.757C102.702 199.607 102.516 199.532 102.27 199.532C102.023 199.532 101.828 199.627 101.685 199.815C101.549 199.997 101.48 200.257 101.48 200.595H99.8725C99.8855 200.042 100.002 199.581 100.223 199.211C100.451 198.841 100.746 198.568 101.11 198.392C101.48 198.217 101.89 198.129 102.338 198.129C103.111 198.129 103.692 198.327 104.082 198.724C104.478 199.12 104.676 199.636 104.676 200.273C104.676 200.968 104.439 201.614 103.965 202.212C103.491 202.803 102.887 203.381 102.153 203.947H104.784V205.301H99.892V204.063ZM105.517 201.744C105.517 200.627 105.732 199.747 106.16 199.104C106.596 198.461 107.294 198.139 108.255 198.139C109.217 198.139 109.912 198.461 110.341 199.104C110.776 199.747 110.993 200.627 110.993 201.744C110.993 202.875 110.776 203.761 110.341 204.405C109.912 205.048 109.217 205.369 108.255 205.369C107.294 205.369 106.596 205.048 106.16 204.405C105.732 203.761 105.517 202.875 105.517 201.744ZM109.356 201.744C109.356 201.088 109.285 200.585 109.142 200.234C108.999 199.877 108.704 199.698 108.255 199.698C107.807 199.698 107.512 199.877 107.369 200.234C107.226 200.585 107.154 201.088 107.154 201.744C107.154 202.186 107.18 202.553 107.232 202.845C107.284 203.131 107.388 203.365 107.544 203.547C107.706 203.722 107.944 203.81 108.255 203.81C108.567 203.81 108.801 203.722 108.957 203.547C109.119 203.365 109.227 203.131 109.278 202.845C109.33 202.553 109.356 202.186 109.356 201.744ZM111.815 204.063C112.036 203.888 112.137 203.807 112.117 203.82C112.754 203.294 113.254 202.862 113.618 202.524C113.988 202.186 114.3 201.832 114.553 201.462C114.807 201.092 114.933 200.731 114.933 200.38C114.933 200.114 114.872 199.906 114.748 199.757C114.625 199.607 114.44 199.532 114.193 199.532C113.946 199.532 113.751 199.627 113.608 199.815C113.472 199.997 113.404 200.257 113.404 200.595H111.796C111.809 200.042 111.926 199.581 112.147 199.211C112.374 198.841 112.67 198.568 113.033 198.392C113.404 198.217 113.813 198.129 114.261 198.129C115.034 198.129 115.616 198.327 116.005 198.724C116.402 199.12 116.6 199.636 116.6 200.273C116.6 200.968 116.363 201.614 115.888 202.212C115.414 202.803 114.81 203.381 114.076 203.947H116.707V205.301H111.815V204.063ZM120.958 200.205C120.906 199.964 120.815 199.786 120.685 199.669C120.555 199.545 120.37 199.484 120.13 199.484C119.76 199.484 119.493 199.646 119.331 199.971C119.169 200.289 119.084 200.796 119.078 201.491C119.22 201.264 119.425 201.085 119.691 200.955C119.964 200.825 120.263 200.76 120.588 200.76C121.225 200.76 121.734 200.962 122.118 201.364C122.508 201.767 122.702 202.329 122.702 203.05C122.702 203.524 122.605 203.94 122.41 204.297C122.222 204.655 121.942 204.934 121.572 205.135C121.208 205.337 120.776 205.437 120.276 205.437C119.276 205.437 118.581 205.126 118.191 204.502C117.801 203.872 117.606 202.969 117.606 201.793C117.606 200.559 117.811 199.643 118.22 199.045C118.636 198.441 119.298 198.139 120.208 198.139C120.695 198.139 121.104 198.236 121.436 198.431C121.773 198.62 122.027 198.87 122.196 199.182C122.371 199.493 122.475 199.834 122.508 200.205H120.958ZM120.188 202.076C119.909 202.076 119.675 202.16 119.487 202.329C119.305 202.491 119.214 202.725 119.214 203.031C119.214 203.342 119.298 203.586 119.467 203.761C119.643 203.937 119.89 204.025 120.208 204.025C120.494 204.025 120.718 203.94 120.88 203.771C121.049 203.596 121.134 203.359 121.134 203.06C121.134 202.755 121.052 202.514 120.89 202.339C120.728 202.163 120.494 202.076 120.188 202.076Z" fill="#69A372"/>
<g filter="url(#filter4_dd_334_193)">
<mask id="path-17-inside-2_334_193" fill="white">
<path d="M177.024 185.654C177.024 181.082 180.731 177.375 185.303 177.375H224.147C228.72 177.375 232.426 181.082 232.426 185.654C232.426 190.226 228.72 193.933 224.147 193.933H185.303C180.731 193.933 177.024 190.226 177.024 185.654Z"/>
</mask>
<path d="M177.024 185.654C177.024 181.082 180.731 177.375 185.303 177.375H224.147C228.72 177.375 232.426 181.082 232.426 185.654C232.426 190.226 228.72 193.933 224.147 193.933H185.303C180.731 193.933 177.024 190.226 177.024 185.654Z" fill="#E2EED2" shape-rendering="crispEdges"/>
<path d="M177.024 185.654M232.426 185.654M232.426 185.654M177.024 185.654M185.303 177.375V177.977H224.147V177.375V176.773H185.303V177.375ZM232.426 185.654M224.147 193.933V193.331H185.303V193.933V194.535H224.147V193.933ZM177.024 185.654M185.303 193.933V193.331C181.063 193.331 177.626 189.894 177.626 185.654H177.024H176.422C176.422 190.559 180.398 194.535 185.303 194.535V193.933ZM232.426 185.654H231.824C231.824 189.894 228.387 193.331 224.147 193.331V193.933V194.535C229.052 194.535 233.028 190.559 233.028 185.654H232.426ZM224.147 177.375V177.977C228.387 177.977 231.824 181.414 231.824 185.654H232.426H233.028C233.028 180.749 229.052 176.773 224.147 176.773V177.375ZM185.303 177.375V176.773C180.398 176.773 176.422 180.749 176.422 185.654H177.024H177.626C177.626 181.414 181.063 177.977 185.303 177.977V177.375Z" fill="white" mask="url(#path-17-inside-2_334_193)"/>
<path d="M187.49 185.639C187.711 185.686 187.888 185.796 188.021 185.97C188.155 186.139 188.222 186.334 188.222 186.555C188.222 186.873 188.11 187.126 187.886 187.313C187.666 187.498 187.357 187.59 186.959 187.59H185.187V183.786H186.9C187.286 183.786 187.588 183.874 187.805 184.051C188.025 184.228 188.135 184.469 188.135 184.772C188.135 184.996 188.076 185.182 187.956 185.33C187.841 185.478 187.685 185.581 187.49 185.639ZM186.114 185.325H186.721C186.873 185.325 186.988 185.292 187.068 185.227C187.151 185.159 187.192 185.059 187.192 184.929C187.192 184.799 187.151 184.7 187.068 184.631C186.988 184.563 186.873 184.528 186.721 184.528H186.114V185.325ZM186.797 186.842C186.952 186.842 187.071 186.808 187.154 186.739C187.241 186.667 187.284 186.564 187.284 186.43C187.284 186.297 187.239 186.192 187.149 186.116C187.062 186.04 186.941 186.002 186.786 186.002H186.114V186.842H186.797ZM189.957 186.875H191.171V187.59H189.03V183.786H189.957V186.875ZM193.683 187.628C193.325 187.628 192.996 187.545 192.696 187.379C192.4 187.212 192.164 186.981 191.987 186.685C191.813 186.385 191.726 186.049 191.726 185.677C191.726 185.305 191.813 184.971 191.987 184.674C192.164 184.378 192.4 184.147 192.696 183.981C192.996 183.815 193.325 183.732 193.683 183.732C194.04 183.732 194.367 183.815 194.663 183.981C194.963 184.147 195.198 184.378 195.368 184.674C195.541 184.971 195.628 185.305 195.628 185.677C195.628 186.049 195.541 186.385 195.368 186.685C195.195 186.981 194.96 187.212 194.663 187.379C194.367 187.545 194.04 187.628 193.683 187.628ZM193.683 186.782C193.986 186.782 194.228 186.681 194.409 186.479C194.593 186.277 194.685 186.009 194.685 185.677C194.685 185.341 194.593 185.074 194.409 184.875C194.228 184.673 193.986 184.572 193.683 184.572C193.376 184.572 193.13 184.671 192.946 184.87C192.765 185.068 192.675 185.337 192.675 185.677C192.675 186.013 192.765 186.282 192.946 186.484C193.13 186.683 193.376 186.782 193.683 186.782ZM198.214 187.628C197.856 187.628 197.527 187.545 197.227 187.379C196.931 187.212 196.694 186.981 196.517 186.685C196.344 186.385 196.257 186.049 196.257 185.677C196.257 185.305 196.344 184.971 196.517 184.674C196.694 184.378 196.931 184.147 197.227 183.981C197.527 183.815 197.856 183.732 198.214 183.732C198.571 183.732 198.898 183.815 199.194 183.981C199.494 184.147 199.729 184.378 199.899 184.674C200.072 184.971 200.159 185.305 200.159 185.677C200.159 186.049 200.072 186.385 199.899 186.685C199.725 186.981 199.491 187.212 199.194 187.379C198.898 187.545 198.571 187.628 198.214 187.628ZM198.214 186.782C198.517 186.782 198.759 186.681 198.94 186.479C199.124 186.277 199.216 186.009 199.216 185.677C199.216 185.341 199.124 185.074 198.94 184.875C198.759 184.673 198.517 184.572 198.214 184.572C197.906 184.572 197.661 184.671 197.477 184.87C197.296 185.068 197.206 185.337 197.206 185.677C197.206 186.013 197.296 186.282 197.477 186.484C197.661 186.683 197.906 186.782 198.214 186.782ZM202.371 183.786C202.772 183.786 203.122 183.865 203.422 184.024C203.722 184.183 203.953 184.407 204.115 184.696C204.282 184.982 204.365 185.312 204.365 185.688C204.365 186.06 204.282 186.39 204.115 186.679C203.953 186.968 203.72 187.192 203.416 187.351C203.117 187.51 202.768 187.59 202.371 187.59H200.945V183.786H202.371ZM202.311 186.788C202.661 186.788 202.934 186.692 203.129 186.501C203.324 186.309 203.422 186.038 203.422 185.688C203.422 185.337 203.324 185.065 203.129 184.87C202.934 184.674 202.661 184.577 202.311 184.577H201.872V186.788H202.311ZM211.807 183.786L210.816 187.59H209.694L209.087 185.086L208.458 187.59H207.337L206.372 183.786H207.364L207.911 186.555L208.589 183.786H209.607L210.258 186.555L210.81 183.786H211.807ZM214.342 187.628C213.984 187.628 213.656 187.545 213.356 187.379C213.06 187.212 212.823 186.981 212.646 186.685C212.473 186.385 212.386 186.049 212.386 185.677C212.386 185.305 212.473 184.971 212.646 184.674C212.823 184.378 213.06 184.147 213.356 183.981C213.656 183.815 213.984 183.732 214.342 183.732C214.7 183.732 215.027 183.815 215.323 183.981C215.623 184.147 215.858 184.378 216.027 184.674C216.201 184.971 216.287 185.305 216.287 185.677C216.287 186.049 216.201 186.385 216.027 186.685C215.854 186.981 215.619 187.212 215.323 187.379C215.027 187.545 214.7 187.628 214.342 187.628ZM214.342 186.782C214.645 186.782 214.888 186.681 215.068 186.479C215.252 186.277 215.345 186.009 215.345 185.677C215.345 185.341 215.252 185.074 215.068 184.875C214.888 184.673 214.645 184.572 214.342 184.572C214.035 184.572 213.789 184.671 213.605 184.87C213.424 185.068 213.334 185.337 213.334 185.677C213.334 186.013 213.424 186.282 213.605 186.484C213.789 186.683 214.035 186.782 214.342 186.782ZM219.014 187.59L218.223 186.154H218V187.59H217.074V183.786H218.629C218.929 183.786 219.184 183.838 219.393 183.943C219.606 184.048 219.765 184.192 219.87 184.376C219.975 184.557 220.027 184.759 220.027 184.983C220.027 185.236 219.955 185.462 219.81 185.661C219.669 185.859 219.46 186 219.182 186.083L220.06 187.59H219.014ZM218 185.498H218.575C218.745 185.498 218.871 185.457 218.954 185.374C219.041 185.29 219.084 185.173 219.084 185.021C219.084 184.877 219.041 184.763 218.954 184.68C218.871 184.597 218.745 184.555 218.575 184.555H218V185.498ZM223.085 187.59L221.806 185.91V187.59H220.88V183.786H221.806V185.455L223.074 183.786H224.164L222.69 185.65L224.218 187.59H223.085Z" fill="#69A372"/>
</g>
<path d="M210.162 202.725L208.663 206.952H207.375L205.875 202.725H206.971L208.019 205.917L209.073 202.725H210.162ZM211.923 202.725V206.952H210.894V202.725H211.923ZM214 203.55V204.405H215.379V205.2H214V206.127H215.559V206.952H212.97V202.725H215.559V203.55H214ZM222.345 202.725L221.243 206.952H219.997L219.323 204.17L218.624 206.952H217.378L216.306 202.725H217.408L218.016 205.802L218.769 202.725H219.901L220.623 205.802L221.237 202.725H222.345Z" fill="#69A372"/>
<path d="M227.91 206.276L229.716 204.469L227.91 202.663" stroke="#69A372" stroke-width="0.752619" stroke-linecap="round" stroke-linejoin="round"/>
<g filter="url(#filter5_dd_334_193)">
<mask id="path-22-inside-3_334_193" fill="white">
<path d="M21.9299 272.789C21.9299 264.518 28.6344 257.813 36.905 257.813C45.1755 257.813 51.8801 264.518 51.8801 272.789C51.8801 281.059 45.1755 287.764 36.905 287.764C28.6344 287.764 21.9299 281.059 21.9299 272.789Z"/>
</mask>
<path d="M21.9299 272.789C21.9299 264.518 28.6344 257.813 36.905 257.813C45.1755 257.813 51.8801 264.518 51.8801 272.789C51.8801 281.059 45.1755 287.764 36.905 287.764C28.6344 287.764 21.9299 281.059 21.9299 272.789Z" fill="white" fill-opacity="0.8" shape-rendering="crispEdges"/>
<path d="M21.9299 272.789M51.8801 272.789M51.8801 272.789M21.9299 272.789M36.905 257.813M51.8801 272.789M36.905 287.764M21.9299 272.789M36.905 287.764V287.051C29.0283 287.051 22.643 280.665 22.643 272.789H21.9299H21.2168C21.2168 281.453 28.2406 288.477 36.905 288.477V287.764ZM51.8801 272.789H51.167C51.167 280.665 44.7816 287.051 36.905 287.051V287.764V288.477C45.5693 288.477 52.5932 281.453 52.5932 272.789H51.8801ZM36.905 257.813V258.527C44.7816 258.527 51.167 264.912 51.167 272.789H51.8801H52.5932C52.5932 264.124 45.5693 257.1 36.905 257.1V257.813ZM36.905 257.813V257.1C28.2406 257.1 21.2168 264.124 21.2168 272.789H21.9299H22.643C22.643 264.912 29.0283 258.527 36.905 258.527V257.813Z" fill="white" mask="url(#path-22-inside-3_334_193)"/>
<g clip-path="url(#clip0_334_193)">
<path d="M38.5112 267.443H33.6978C33.4141 267.443 33.1421 267.556 32.9415 267.757C32.7409 267.957 32.6282 268.229 32.6282 268.513V277.07C32.6282 277.354 32.7409 277.626 32.9415 277.827C33.1421 278.027 33.4141 278.14 33.6978 278.14H40.1157C40.3994 278.14 40.6715 278.027 40.8721 277.827C41.0727 277.626 41.1854 277.354 41.1854 277.07V270.117L38.5112 267.443Z" stroke="#7DB467" stroke-width="1.06965" stroke-linecap="round" stroke-linejoin="round"/>
<path d="M37.9747 267.443V269.583C37.9747 269.866 38.0874 270.138 38.288 270.339C38.4886 270.54 38.7607 270.652 39.0444 270.652H41.1837" stroke="#7DB467" stroke-width="1.06965" stroke-linecap="round" stroke-linejoin="round"/>
<path d="M35.8349 271.188H34.7653" stroke="#7DB467" stroke-width="1.06965" stroke-linecap="round" stroke-linejoin="round"/>
<path d="M39.0438 273.325H34.7652" stroke="#7DB467" stroke-width="1.06965" stroke-linecap="round" stroke-linejoin="round"/>
<path d="M39.0439 275.465H34.7653" stroke="#7DB467" stroke-width="1.06965" stroke-linecap="round" stroke-linejoin="round"/>
</g>
</g>
<path d="M68.9375 262.591C68.802 262.342 68.6059 262.153 68.3492 262.024C68.0996 261.889 67.8037 261.821 67.4614 261.821C66.8695 261.821 66.3953 262.017 66.0387 262.409C65.6822 262.795 65.5039 263.311 65.5039 263.96C65.5039 264.652 65.6893 265.194 66.0601 265.586C66.4381 265.971 66.9551 266.164 67.6111 266.164C68.0604 266.164 68.4383 266.05 68.7449 265.822C69.0587 265.593 69.2869 265.265 69.4295 264.838H67.1084V263.49H71.0875V265.191C70.952 265.647 70.7202 266.071 70.3922 266.463C70.0713 266.856 69.6613 267.173 69.1621 267.415C68.6629 267.658 68.0996 267.779 67.4721 267.779C66.7304 267.779 66.0673 267.619 65.4825 267.298C64.9049 266.97 64.4521 266.517 64.1241 265.939C63.8032 265.362 63.6427 264.702 63.6427 263.96C63.6427 263.219 63.8032 262.559 64.1241 261.982C64.4521 261.397 64.9049 260.944 65.4825 260.623C66.0601 260.295 66.7197 260.131 67.4614 260.131C68.3599 260.131 69.1158 260.349 69.729 260.784C70.3494 261.219 70.7595 261.821 70.9591 262.591H68.9375ZM77.727 264.645C77.727 264.816 77.7163 264.994 77.6949 265.18H73.5554C73.5839 265.551 73.7015 265.836 73.9083 266.036C74.1223 266.228 74.3826 266.324 74.6892 266.324C75.1456 266.324 75.4629 266.132 75.6412 265.747H77.5879C77.4881 266.139 77.3063 266.492 77.0424 266.806C76.7857 267.119 76.4612 267.365 76.069 267.544C75.6768 267.722 75.2383 267.811 74.7534 267.811C74.1686 267.811 73.6481 267.686 73.1917 267.437C72.7353 267.187 72.3787 266.831 72.122 266.367C71.8653 265.904 71.737 265.362 71.737 264.741C71.737 264.121 71.8617 263.579 72.1113 263.115C72.368 262.652 72.7246 262.295 73.181 262.046C73.6374 261.796 74.1615 261.671 74.7534 261.671C75.331 261.671 75.8444 261.793 76.2937 262.035C76.7429 262.278 77.0923 262.623 77.3419 263.073C77.5986 263.522 77.727 264.046 77.727 264.645ZM75.8551 264.164C75.8551 263.85 75.7481 263.6 75.5342 263.415C75.3203 263.229 75.0529 263.137 74.732 263.137C74.4253 263.137 74.1651 263.226 73.9511 263.404C73.7443 263.582 73.616 263.836 73.5661 264.164H75.8551ZM82.3287 261.693C83.0276 261.693 83.5838 261.921 83.9974 262.377C84.4181 262.827 84.6285 263.447 84.6285 264.239V267.726H82.8101V264.485C82.8101 264.085 82.7067 263.775 82.4999 263.554C82.2931 263.333 82.015 263.222 81.6656 263.222C81.3161 263.222 81.038 263.333 80.8312 263.554C80.6244 263.775 80.521 264.085 80.521 264.485V267.726H78.6919V261.757H80.521V262.548C80.7064 262.285 80.956 262.078 81.2698 261.928C81.5836 261.771 81.9365 261.693 82.3287 261.693ZM91.5259 264.645C91.5259 264.816 91.5152 264.994 91.4938 265.18H87.3543C87.3828 265.551 87.5004 265.836 87.7072 266.036C87.9212 266.228 88.1815 266.324 88.4881 266.324C88.9445 266.324 89.2618 266.132 89.4401 265.747H91.3868C91.287 266.139 91.1052 266.492 90.8413 266.806C90.5846 267.119 90.2601 267.365 89.8679 267.544C89.4757 267.722 89.0372 267.811 88.5523 267.811C87.9675 267.811 87.447 267.686 86.9906 267.437C86.5342 267.187 86.1776 266.831 85.9209 266.367C85.6642 265.904 85.5359 265.362 85.5359 264.741C85.5359 264.121 85.6606 263.579 85.9102 263.115C86.1669 262.652 86.5235 262.295 86.9799 262.046C87.4363 261.796 87.9604 261.671 88.5523 261.671C89.1299 261.671 89.6433 261.793 90.0926 262.035C90.5418 262.278 90.8912 262.623 91.1408 263.073C91.3975 263.522 91.5259 264.046 91.5259 264.645ZM89.654 264.164C89.654 263.85 89.547 263.6 89.3331 263.415C89.1192 263.229 88.8518 263.137 88.5309 263.137C88.2242 263.137 87.964 263.226 87.75 263.404C87.5432 263.582 87.4149 263.836 87.365 264.164H89.654ZM94.3199 262.752C94.5339 262.424 94.8013 262.167 95.1222 261.982C95.4431 261.789 95.7996 261.693 96.1918 261.693V263.629H95.6891C95.2327 263.629 94.8904 263.729 94.6622 263.928C94.434 264.121 94.3199 264.463 94.3199 264.955V267.726H92.4908V261.757H94.3199V262.752ZM96.7024 264.731C96.7024 264.117 96.8165 263.579 97.0447 263.115C97.28 262.652 97.5973 262.295 97.9967 262.046C98.396 261.796 98.8417 261.671 99.3337 261.671C99.7545 261.671 100.122 261.757 100.435 261.928C100.756 262.099 101.002 262.324 101.174 262.602V261.757H103.003V267.726H101.174V266.881C100.995 267.159 100.746 267.383 100.425 267.554C100.111 267.726 99.7438 267.811 99.323 267.811C98.8381 267.811 98.396 267.686 97.9967 267.437C97.5973 267.18 97.28 266.82 97.0447 266.356C96.8165 265.886 96.7024 265.344 96.7024 264.731ZM101.174 264.741C101.174 264.285 101.045 263.925 100.788 263.661C100.539 263.397 100.232 263.265 99.8686 263.265C99.5049 263.265 99.1947 263.397 98.938 263.661C98.6884 263.918 98.5636 264.274 98.5636 264.731C98.5636 265.187 98.6884 265.551 98.938 265.822C99.1947 266.085 99.5049 266.217 99.8686 266.217C100.232 266.217 100.539 266.085 100.788 265.822C101.045 265.558 101.174 265.198 101.174 264.741ZM106.155 259.81V267.726H104.326V259.81H106.155ZM109.437 263.96C109.437 263.219 109.598 262.559 109.918 261.982C110.239 261.397 110.685 260.944 111.255 260.623C111.833 260.295 112.486 260.131 113.213 260.131C114.104 260.131 114.867 260.366 115.502 260.837C116.137 261.308 116.561 261.949 116.775 262.762H114.764C114.614 262.449 114.4 262.21 114.122 262.046C113.851 261.882 113.541 261.8 113.192 261.8C112.628 261.8 112.172 261.996 111.822 262.388C111.473 262.78 111.298 263.304 111.298 263.96C111.298 264.616 111.473 265.141 111.822 265.533C112.172 265.925 112.628 266.121 113.192 266.121C113.541 266.121 113.851 266.039 114.122 265.875C114.4 265.711 114.614 265.472 114.764 265.158H116.775C116.561 265.971 116.137 266.613 115.502 267.084C114.867 267.547 114.104 267.779 113.213 267.779C112.486 267.779 111.833 267.619 111.255 267.298C110.685 266.97 110.239 266.517 109.918 265.939C109.598 265.362 109.437 264.702 109.437 263.96ZM121.564 261.693C122.248 261.693 122.798 261.921 123.211 262.377C123.625 262.827 123.832 263.447 123.832 264.239V267.726H122.013V264.485C122.013 264.085 121.91 263.775 121.703 263.554C121.496 263.333 121.218 263.222 120.869 263.222C120.519 263.222 120.241 263.333 120.034 263.554C119.828 263.775 119.724 264.085 119.724 264.485V267.726H117.895V259.81H119.724V262.559C119.91 262.295 120.163 262.085 120.484 261.928C120.804 261.771 121.165 261.693 121.564 261.693ZM130.729 264.645C130.729 264.816 130.718 264.994 130.697 265.18H126.557C126.586 265.551 126.704 265.836 126.91 266.036C127.124 266.228 127.385 266.324 127.691 266.324C128.148 266.324 128.465 266.132 128.643 265.747H130.59C130.49 266.139 130.308 266.492 130.044 266.806C129.788 267.119 129.463 267.365 129.071 267.544C128.679 267.722 128.24 267.811 127.755 267.811C127.171 267.811 126.65 267.686 126.194 267.437C125.737 267.187 125.381 266.831 125.124 266.367C124.867 265.904 124.739 265.362 124.739 264.741C124.739 264.121 124.864 263.579 125.113 263.115C125.37 262.652 125.727 262.295 126.183 262.046C126.639 261.796 127.163 261.671 127.755 261.671C128.333 261.671 128.846 261.793 129.296 262.035C129.745 262.278 130.094 262.623 130.344 263.073C130.601 263.522 130.729 264.046 130.729 264.645ZM128.857 264.164C128.857 263.85 128.75 263.6 128.536 263.415C128.322 263.229 128.055 263.137 127.734 263.137C127.427 263.137 127.167 263.226 126.953 263.404C126.746 263.582 126.618 263.836 126.568 264.164H128.857ZM131.33 264.741C131.33 264.121 131.455 263.579 131.705 263.115C131.961 262.652 132.314 262.295 132.764 262.046C133.22 261.796 133.74 261.671 134.325 261.671C135.074 261.671 135.698 261.867 136.197 262.26C136.703 262.652 137.035 263.205 137.192 263.918H135.245C135.081 263.461 134.764 263.233 134.293 263.233C133.958 263.233 133.691 263.365 133.491 263.629C133.291 263.886 133.191 264.256 133.191 264.741C133.191 265.226 133.291 265.601 133.491 265.864C133.691 266.121 133.958 266.249 134.293 266.249C134.764 266.249 135.081 266.021 135.245 265.565H137.192C137.035 266.264 136.703 266.813 136.197 267.212C135.691 267.611 135.067 267.811 134.325 267.811C133.74 267.811 133.22 267.686 132.764 267.437C132.314 267.187 131.961 266.831 131.705 266.367C131.455 265.904 131.33 265.362 131.33 264.741ZM141.818 267.726L139.999 265.223V267.726H138.17V259.81H139.999V264.185L141.807 261.757H144.064L141.582 264.752L144.085 267.726H141.818ZM150.676 261.757V267.726H148.847V266.913C148.662 267.176 148.409 267.39 148.088 267.554C147.774 267.711 147.425 267.79 147.039 267.79C146.583 267.79 146.18 267.69 145.831 267.49C145.481 267.283 145.21 266.988 145.018 266.602C144.825 266.217 144.729 265.765 144.729 265.244V261.757H146.547V264.998C146.547 265.397 146.651 265.708 146.858 265.929C147.064 266.15 147.343 266.26 147.692 266.26C148.048 266.26 148.33 266.15 148.537 265.929C148.744 265.708 148.847 265.397 148.847 264.998V261.757H150.676ZM153.819 262.602C153.997 262.324 154.243 262.099 154.557 261.928C154.871 261.757 155.238 261.671 155.659 261.671C156.151 261.671 156.597 261.796 156.996 262.046C157.395 262.295 157.709 262.652 157.937 263.115C158.173 263.579 158.29 264.117 158.29 264.731C158.29 265.344 158.173 265.886 157.937 266.356C157.709 266.82 157.395 267.18 156.996 267.437C156.597 267.686 156.151 267.811 155.659 267.811C155.245 267.811 154.878 267.726 154.557 267.554C154.243 267.383 153.997 267.162 153.819 266.891V270.571H151.99V261.757H153.819V262.602ZM156.429 264.731C156.429 264.274 156.301 263.918 156.044 263.661C155.794 263.397 155.484 263.265 155.113 263.265C154.75 263.265 154.44 263.397 154.183 263.661C153.933 263.925 153.808 264.285 153.808 264.741C153.808 265.198 153.933 265.558 154.183 265.822C154.44 266.085 154.75 266.217 155.113 266.217C155.477 266.217 155.787 266.085 156.044 265.822C156.301 265.551 156.429 265.187 156.429 264.731Z" fill="white"/>
<path d="M67.9154 282.798H65.4866L65.0973 283.947H63.4379L65.7925 277.44H67.628L69.9827 283.947H68.3048L67.9154 282.798ZM67.5075 281.574L66.701 279.192L65.9038 281.574H67.5075ZM75.8073 278.774V283.947H74.2221V283.243C74.0614 283.471 73.842 283.657 73.5639 283.799C73.2919 283.935 72.9891 284.003 72.6554 284.003C72.2598 284.003 71.9107 283.916 71.6078 283.743C71.305 283.564 71.0702 283.308 70.9033 282.974C70.7364 282.64 70.653 282.248 70.653 281.797V278.774H72.2289V281.583C72.2289 281.929 72.3186 282.198 72.4978 282.39C72.677 282.581 72.918 282.677 73.2209 282.677C73.5299 282.677 73.774 282.581 73.9532 282.39C74.1324 282.198 74.2221 281.929 74.2221 281.583V278.774H75.8073ZM78.9112 278.7C79.2759 278.7 79.5941 278.774 79.8661 278.923C80.1442 279.071 80.3574 279.266 80.5057 279.507V278.774H82.0909V283.938C82.0909 284.414 81.9951 284.843 81.8036 285.227C81.6182 285.616 81.3308 285.925 80.9414 286.154C80.5583 286.382 80.0793 286.497 79.5045 286.497C78.7382 286.497 78.1171 286.314 77.6412 285.95C77.1653 285.591 76.8934 285.103 76.8254 284.485H78.3921C78.4415 284.683 78.559 284.837 78.7444 284.948C78.9298 285.066 79.1584 285.125 79.4304 285.125C79.7579 285.125 80.0175 285.029 80.2091 284.837C80.4068 284.652 80.5057 284.352 80.5057 283.938V283.206C80.3512 283.447 80.138 283.644 79.8661 283.799C79.5941 283.947 79.2759 284.021 78.9112 284.021C78.4848 284.021 78.0985 283.913 77.7524 283.697C77.4064 283.474 77.1313 283.162 76.9274 282.761C76.7296 282.353 76.6307 281.883 76.6307 281.352C76.6307 280.82 76.7296 280.353 76.9274 279.952C77.1313 279.55 77.4064 279.241 77.7524 279.025C78.0985 278.808 78.4848 278.7 78.9112 278.7ZM80.5057 281.361C80.5057 280.965 80.3945 280.653 80.172 280.425C79.9557 280.196 79.6899 280.082 79.3747 280.082C79.0596 280.082 78.7907 280.196 78.5682 280.425C78.3519 280.647 78.2438 280.956 78.2438 281.352C78.2438 281.747 78.3519 282.062 78.5682 282.297C78.7907 282.526 79.0596 282.64 79.3747 282.64C79.6899 282.64 79.9557 282.526 80.172 282.297C80.3945 282.068 80.5057 281.756 80.5057 281.361ZM89.8096 278.561H86.9173V279.841C87.0409 279.705 87.2139 279.593 87.4364 279.507C87.6589 279.42 87.8999 279.377 88.1595 279.377C88.623 279.377 89.0062 279.482 89.309 279.692C89.618 279.902 89.8436 280.174 89.9858 280.508C90.1279 280.842 90.199 281.203 90.199 281.593C90.199 282.316 89.995 282.89 89.5871 283.317C89.1792 283.737 88.6045 283.947 87.8629 283.947C87.3684 283.947 86.9389 283.864 86.5743 283.697C86.2097 283.524 85.9285 283.286 85.7307 282.983C85.5329 282.68 85.4248 282.331 85.4062 281.936H86.9544C86.9914 282.127 87.0811 282.288 87.2232 282.418C87.3654 282.541 87.56 282.603 87.8072 282.603C88.0977 282.603 88.314 282.51 88.4562 282.325C88.5983 282.14 88.6694 281.892 88.6694 281.583C88.6694 281.281 88.5952 281.049 88.4469 280.888C88.2986 280.727 88.0823 280.647 87.798 280.647C87.5878 280.647 87.4148 280.7 87.2788 280.805C87.1429 280.904 87.0533 281.036 87.01 281.203H85.4804V277.171H89.8096V278.561ZM92.9373 282.483L91.9083 285.143H90.8979L91.4355 282.483H92.9373ZM95.6445 282.677C95.8546 282.51 95.9504 282.433 95.9319 282.445C96.5375 281.945 97.0134 281.534 97.3595 281.213C97.7117 280.891 98.0084 280.554 98.2494 280.202C98.4905 279.85 98.611 279.507 98.611 279.173C98.611 278.92 98.5523 278.722 98.4348 278.58C98.3174 278.438 98.1413 278.367 97.9064 278.367C97.6716 278.367 97.4862 278.456 97.3502 278.635C97.2204 278.808 97.1555 279.056 97.1555 279.377H95.6259C95.6383 278.852 95.7495 278.413 95.9597 278.061C96.176 277.708 96.4572 277.449 96.8033 277.282C97.1555 277.115 97.5449 277.032 97.9713 277.032C98.7068 277.032 99.2599 277.22 99.6307 277.597C100.008 277.974 100.196 278.465 100.196 279.071C100.196 279.732 99.9706 280.347 99.5195 280.916C99.0683 281.478 98.4935 282.028 97.7952 282.566H100.298V283.855H95.6445V282.677ZM100.996 280.471C100.996 279.408 101.2 278.57 101.608 277.959C102.022 277.347 102.686 277.041 103.601 277.041C104.516 277.041 105.177 277.347 105.585 277.959C105.999 278.57 106.206 279.408 106.206 280.471C106.206 281.546 105.999 282.39 105.585 283.002C105.177 283.614 104.516 283.919 103.601 283.919C102.686 283.919 102.022 283.614 101.608 283.002C101.2 282.39 100.996 281.546 100.996 280.471ZM104.649 280.471C104.649 279.847 104.581 279.368 104.445 279.034C104.309 278.694 104.027 278.524 103.601 278.524C103.175 278.524 102.893 278.694 102.757 279.034C102.622 279.368 102.554 279.847 102.554 280.471C102.554 280.891 102.578 281.24 102.628 281.518C102.677 281.79 102.776 282.013 102.924 282.186C103.079 282.353 103.304 282.436 103.601 282.436C103.898 282.436 104.12 282.353 104.269 282.186C104.423 282.013 104.525 281.79 104.574 281.518C104.624 281.24 104.649 280.891 104.649 280.471ZM106.988 282.677C107.198 282.51 107.294 282.433 107.275 282.445C107.881 281.945 108.357 281.534 108.703 281.213C109.055 280.891 109.352 280.554 109.593 280.202C109.834 279.85 109.954 279.507 109.954 279.173C109.954 278.92 109.896 278.722 109.778 278.58C109.661 278.438 109.485 278.367 109.25 278.367C109.015 278.367 108.83 278.456 108.694 278.635C108.564 278.808 108.499 279.056 108.499 279.377H106.969C106.982 278.852 107.093 278.413 107.303 278.061C107.519 277.708 107.801 277.449 108.147 277.282C108.499 277.115 108.888 277.032 109.315 277.032C110.05 277.032 110.603 277.22 110.974 277.597C111.351 277.974 111.54 278.465 111.54 279.071C111.54 279.732 111.314 280.347 110.863 280.916C110.412 281.478 109.837 282.028 109.139 282.566H111.642V283.855H106.988V282.677ZM117.104 278.561H114.212V279.841C114.336 279.705 114.509 279.593 114.731 279.507C114.954 279.42 115.195 279.377 115.454 279.377C115.918 279.377 116.301 279.482 116.604 279.692C116.913 279.902 117.138 280.174 117.281 280.508C117.423 280.842 117.494 281.203 117.494 281.593C117.494 282.316 117.29 282.89 116.882 283.317C116.474 283.737 115.899 283.947 115.158 283.947C114.663 283.947 114.234 283.864 113.869 283.697C113.505 283.524 113.223 283.286 113.026 282.983C112.828 282.68 112.72 282.331 112.701 281.936H114.249C114.286 282.127 114.376 282.288 114.518 282.418C114.66 282.541 114.855 282.603 115.102 282.603C115.393 282.603 115.609 282.51 115.751 282.325C115.893 282.14 115.964 281.892 115.964 281.583C115.964 281.281 115.89 281.049 115.742 280.888C115.593 280.727 115.377 280.647 115.093 280.647C114.883 280.647 114.71 280.7 114.574 280.805C114.438 280.904 114.348 281.036 114.305 281.203H112.775V277.171H117.104V278.561Z" fill="#7DB467"/>
<g filter="url(#filter6_dd_334_193)">
<mask id="path-31-inside-4_334_193" fill="white">
<path d="M177.6 264.334C177.6 259.197 181.764 255.033 186.9 255.033H214.337C219.473 255.033 223.637 259.197 223.637 264.334C223.637 269.47 219.473 273.634 214.337 273.634H186.9C181.764 273.634 177.6 269.47 177.6 264.334Z"/>
</mask>
<path d="M177.6 264.334C177.6 259.197 181.764 255.033 186.9 255.033H214.337C219.473 255.033 223.637 259.197 223.637 264.334C223.637 269.47 219.473 273.634 214.337 273.634H186.9C181.764 273.634 177.6 269.47 177.6 264.334Z" fill="white" fill-opacity="0.95" shape-rendering="crispEdges"/>
<path d="M177.6 264.334M223.637 264.334M223.637 264.334M177.6 264.334M186.9 255.033V255.71H214.337V255.033V254.357H186.9V255.033ZM223.637 264.334M214.337 273.634V272.958H186.9V273.634V274.311H214.337V273.634ZM177.6 264.334M186.9 273.634V272.958C182.137 272.958 178.276 269.097 178.276 264.334H177.6H176.924C176.924 269.844 181.39 274.311 186.9 274.311V273.634ZM223.637 264.334H222.961C222.961 269.097 219.1 272.958 214.337 272.958V273.634V274.311C219.847 274.311 224.314 269.844 224.314 264.334H223.637ZM214.337 255.033V255.71C219.1 255.71 222.961 259.571 222.961 264.334H223.637H224.314C224.314 258.824 219.847 254.357 214.337 254.357V255.033ZM186.9 255.033V254.357C181.39 254.357 176.924 258.824 176.924 264.334H177.6H178.276C178.276 259.571 182.137 255.71 186.9 255.71V255.033Z" fill="white" mask="url(#path-31-inside-4_334_193)"/>
<path d="M188.95 266.768L188.061 265.154H187.812V266.768H186.771V262.494H188.518C188.855 262.494 189.141 262.553 189.376 262.671C189.615 262.788 189.794 262.951 189.912 263.158C190.029 263.361 190.088 263.588 190.088 263.839C190.088 264.124 190.007 264.377 189.845 264.6C189.687 264.824 189.451 264.982 189.139 265.075L190.125 266.768H188.95ZM187.812 264.418H188.457C188.648 264.418 188.79 264.371 188.883 264.278C188.98 264.184 189.029 264.053 189.029 263.882C189.029 263.72 188.98 263.592 188.883 263.499C188.79 263.405 188.648 263.359 188.457 263.359H187.812V264.418ZM193.067 266.81C192.665 266.81 192.296 266.717 191.959 266.53C191.626 266.343 191.361 266.084 191.162 265.751C190.967 265.414 190.87 265.037 190.87 264.619C190.87 264.201 190.967 263.825 191.162 263.492C191.361 263.16 191.626 262.9 191.959 262.713C192.296 262.527 192.665 262.433 193.067 262.433C193.469 262.433 193.836 262.527 194.169 262.713C194.506 262.9 194.77 263.16 194.96 263.492C195.155 263.825 195.253 264.201 195.253 264.619C195.253 265.037 195.155 265.414 194.96 265.751C194.766 266.084 194.502 266.343 194.169 266.53C193.836 266.717 193.469 266.81 193.067 266.81ZM193.067 265.861C193.408 265.861 193.68 265.747 193.883 265.52C194.09 265.292 194.193 264.992 194.193 264.619C194.193 264.241 194.09 263.941 193.883 263.718C193.68 263.49 193.408 263.377 193.067 263.377C192.722 263.377 192.446 263.488 192.239 263.712C192.036 263.935 191.935 264.237 191.935 264.619C191.935 264.996 192.036 265.298 192.239 265.526C192.446 265.749 192.722 265.861 193.067 265.861ZM197.159 262.494V265.051C197.159 265.307 197.222 265.503 197.348 265.641C197.473 265.779 197.658 265.848 197.902 265.848C198.145 265.848 198.332 265.779 198.462 265.641C198.592 265.503 198.656 265.307 198.656 265.051V262.494H199.697V265.045C199.697 265.426 199.616 265.749 199.454 266.013C199.292 266.277 199.072 266.475 198.796 266.609C198.525 266.743 198.22 266.81 197.883 266.81C197.546 266.81 197.244 266.745 196.976 266.615C196.712 266.481 196.503 266.283 196.349 266.019C196.195 265.751 196.118 265.426 196.118 265.045V262.494H197.159ZM203.807 262.494V263.328H202.675V266.768H201.634V263.328H200.501V262.494H203.807ZM205.675 262.494V266.768H204.634V262.494H205.675ZM210.557 266.768H209.516L207.775 264.132V266.768H206.734V262.494H207.775L209.516 265.142V262.494H210.557V266.768ZM212.657 263.328V264.193H214.051V264.996H212.657V265.934H214.233V266.768H211.616V262.494H214.233V263.328H212.657Z" fill="#7DB467"/>
</g>
<path d="M198.626 282.651L196.941 287.399H195.494L193.81 282.651H195.041L196.218 286.236L197.401 282.651H198.626ZM200.604 282.651V287.399H199.447V282.651H200.604ZM202.937 283.578V284.538H204.486V285.431H202.937V286.473H204.689V287.399H201.78V282.651H204.689V283.578H202.937ZM212.312 282.651L211.074 287.399H209.674L208.916 284.274L208.132 287.399H206.732L205.528 282.651H206.765L207.449 286.107L208.294 282.651H209.566L210.377 286.107L211.067 282.651H212.312Z" fill="#A9C191"/>
<path d="M218.565 287.502L220.594 285.473L218.565 283.443" stroke="#A9C191" stroke-width="0.8455" stroke-linecap="round" stroke-linejoin="round"/>
<defs>
<filter id="filter1_dd_334_193" x="15.9517" y="98.9744" width="31.8343" height="31.8348" filterUnits="userSpaceOnUse" color-interpolation-filters="sRGB">
<feFlood flood-opacity="0" result="BackgroundImageFix"/>
<feColorMatrix in="SourceAlpha" type="matrix" values="0 0 0 0 0 0 0 0 0 0 0 0 0 0 0 0 0 0 127 0" result="hardAlpha"/>
<feMorphology radius="0.663215" operator="erode" in="SourceAlpha" result="effect1_dropShadow_334_193"/>
<feOffset dy="0.663215"/>
<feGaussianBlur stdDeviation="0.663215"/>
<feComposite in2="hardAlpha" operator="out"/>
<feColorMatrix type="matrix" values="0 0 0 0 0 0 0 0 0 0 0 0 0 0 0 0 0 0 0.1 0"/>
<feBlend mode="normal" in2="BackgroundImageFix" result="effect1_dropShadow_334_193"/>
<feColorMatrix in="SourceAlpha" type="matrix" values="0 0 0 0 0 0 0 0 0 0 0 0 0 0 0 0 0 0 127 0" result="hardAlpha"/>
<feOffset dy="0.663215"/>
<feGaussianBlur stdDeviation="0.994822"/>
<feComposite in2="hardAlpha" operator="out"/>
<feColorMatrix type="matrix" values="0 0 0 0 0 0 0 0 0 0 0 0 0 0 0 0 0 0 0.1 0"/>
<feBlend mode="normal" in2="effect1_dropShadow_334_193" result="effect2_dropShadow_334_193"/>
<feBlend mode="normal" in="SourceGraphic" in2="effect2_dropShadow_334_193" result="shape"/>
</filter>
<filter id="filter2_dd_334_193" x="172.615" y="92.6736" width="65.0054" height="22.2176" filterUnits="userSpaceOnUse" color-interpolation-filters="sRGB">
<feFlood flood-opacity="0" result="BackgroundImageFix"/>
<feColorMatrix in="SourceAlpha" type="matrix" values="0 0 0 0 0 0 0 0 0 0 0 0 0 0 0 0 0 0 127 0" result="hardAlpha"/>
<feMorphology radius="0.663215" operator="erode" in="SourceAlpha" result="effect1_dropShadow_334_193"/>
<feOffset dy="0.663215"/>
<feGaussianBlur stdDeviation="0.663215"/>
<feComposite in2="hardAlpha" operator="out"/>
<feColorMatrix type="matrix" values="0 0 0 0 0 0 0 0 0 0 0 0 0 0 0 0 0 0 0.1 0"/>
<feBlend mode="normal" in2="BackgroundImageFix" result="effect1_dropShadow_334_193"/>
<feColorMatrix in="SourceAlpha" type="matrix" values="0 0 0 0 0 0 0 0 0 0 0 0 0 0 0 0 0 0 127 0" result="hardAlpha"/>
<feOffset dy="0.663215"/>
<feGaussianBlur stdDeviation="0.994822"/>
<feComposite in2="hardAlpha" operator="out"/>
<feColorMatrix type="matrix" values="0 0 0 0 0 0 0 0 0 0 0 0 0 0 0 0 0 0 0.1 0"/>
<feBlend mode="normal" in2="effect1_dropShadow_334_193" result="effect2_dropShadow_334_193"/>
<feBlend mode="normal" in="SourceGraphic" in2="effect2_dropShadow_334_193" result="shape"/>
</filter>
<filter id="filter3_dd_334_193" x="18.0478" y="175.94" width="35.9786" height="35.9788" filterUnits="userSpaceOnUse" color-interpolation-filters="sRGB">
<feFlood flood-opacity="0" result="BackgroundImageFix"/>
<feColorMatrix in="SourceAlpha" type="matrix" values="0 0 0 0 0 0 0 0 0 0 0 0 0 0 0 0 0 0 127 0" result="hardAlpha"/>
<feMorphology radius="0.749554" operator="erode" in="SourceAlpha" result="effect1_dropShadow_334_193"/>
<feOffset dy="0.749554"/>
<feGaussianBlur stdDeviation="0.749554"/>
<feComposite in2="hardAlpha" operator="out"/>
<feColorMatrix type="matrix" values="0 0 0 0 0 0 0 0 0 0 0 0 0 0 0 0 0 0 0.1 0"/>
<feBlend mode="normal" in2="BackgroundImageFix" result="effect1_dropShadow_334_193"/>
<feColorMatrix in="SourceAlpha" type="matrix" values="0 0 0 0 0 0 0 0 0 0 0 0 0 0 0 0 0 0 127 0" result="hardAlpha"/>
<feOffset dy="0.749554"/>
<feGaussianBlur stdDeviation="1.12433"/>
<feComposite in2="hardAlpha" operator="out"/>
<feColorMatrix type="matrix" values="0 0 0 0 0 0 0 0 0 0 0 0 0 0 0 0 0 0 0.1 0"/>
<feBlend mode="normal" in2="effect1_dropShadow_334_193" result="effect2_dropShadow_334_193"/>
<feBlend mode="normal" in="SourceGraphic" in2="effect2_dropShadow_334_193" result="shape"/>
</filter>
<filter id="filter4_dd_334_193" x="175.218" y="176.171" width="59.0147" height="20.1702" filterUnits="userSpaceOnUse" color-interpolation-filters="sRGB">
<feFlood flood-opacity="0" result="BackgroundImageFix"/>
<feColorMatrix in="SourceAlpha" type="matrix" values="0 0 0 0 0 0 0 0 0 0 0 0 0 0 0 0 0 0 127 0" result="hardAlpha"/>
<feMorphology radius="0.602095" operator="erode" in="SourceAlpha" result="effect1_dropShadow_334_193"/>
<feOffset dy="0.602095"/>
<feGaussianBlur stdDeviation="0.602095"/>
<feComposite in2="hardAlpha" operator="out"/>
<feColorMatrix type="matrix" values="0 0 0 0 0 0 0 0 0 0 0 0 0 0 0 0 0 0 0.1 0"/>
<feBlend mode="normal" in2="BackgroundImageFix" result="effect1_dropShadow_334_193"/>
<feColorMatrix in="SourceAlpha" type="matrix" values="0 0 0 0 0 0 0 0 0 0 0 0 0 0 0 0 0 0 127 0" result="hardAlpha"/>
<feOffset dy="0.602095"/>
<feGaussianBlur stdDeviation="0.903143"/>
<feComposite in2="hardAlpha" operator="out"/>
<feColorMatrix type="matrix" values="0 0 0 0 0 0 0 0 0 0 0 0 0 0 0 0 0 0 0.1 0"/>
<feBlend mode="normal" in2="effect1_dropShadow_334_193" result="effect2_dropShadow_334_193"/>
<feBlend mode="normal" in="SourceGraphic" in2="effect2_dropShadow_334_193" result="shape"/>
</filter>
<filter id="filter5_dd_334_193" x="19.7906" y="256.387" width="34.2288" height="34.2288" filterUnits="userSpaceOnUse" color-interpolation-filters="sRGB">
<feFlood flood-opacity="0" result="BackgroundImageFix"/>
<feColorMatrix in="SourceAlpha" type="matrix" values="0 0 0 0 0 0 0 0 0 0 0 0 0 0 0 0 0 0 127 0" result="hardAlpha"/>
<feMorphology radius="0.7131" operator="erode" in="SourceAlpha" result="effect1_dropShadow_334_193"/>
<feOffset dy="0.7131"/>
<feGaussianBlur stdDeviation="0.7131"/>
<feComposite in2="hardAlpha" operator="out"/>
<feColorMatrix type="matrix" values="0 0 0 0 0 0 0 0 0 0 0 0 0 0 0 0 0 0 0.1 0"/>
<feBlend mode="normal" in2="BackgroundImageFix" result="effect1_dropShadow_334_193"/>
<feColorMatrix in="SourceAlpha" type="matrix" values="0 0 0 0 0 0 0 0 0 0 0 0 0 0 0 0 0 0 127 0" result="hardAlpha"/>
<feOffset dy="0.7131"/>
<feGaussianBlur stdDeviation="1.06965"/>
<feComposite in2="hardAlpha" operator="out"/>
<feColorMatrix type="matrix" values="0 0 0 0 0 0 0 0 0 0 0 0 0 0 0 0 0 0 0.1 0"/>
<feBlend mode="normal" in2="effect1_dropShadow_334_193" result="effect2_dropShadow_334_193"/>
<feBlend mode="normal" in="SourceGraphic" in2="effect2_dropShadow_334_193" result="shape"/>
</filter>
<filter id="filter6_dd_334_193" x="175.571" y="253.68" width="50.0959" height="22.659" filterUnits="userSpaceOnUse" color-interpolation-filters="sRGB">
<feFlood flood-opacity="0" result="BackgroundImageFix"/>
<feColorMatrix in="SourceAlpha" type="matrix" values="0 0 0 0 0 0 0 0 0 0 0 0 0 0 0 0 0 0 127 0" result="hardAlpha"/>
<feMorphology radius="0.6764" operator="erode" in="SourceAlpha" result="effect1_dropShadow_334_193"/>
<feOffset dy="0.6764"/>
<feGaussianBlur stdDeviation="0.6764"/>
<feComposite in2="hardAlpha" operator="out"/>
<feColorMatrix type="matrix" values="0 0 0 0 0 0 0 0 0 0 0 0 0 0 0 0 0 0 0.1 0"/>
<feBlend mode="normal" in2="BackgroundImageFix" result="effect1_dropShadow_334_193"/>
<feColorMatrix in="SourceAlpha" type="matrix" values="0 0 0 0 0 0 0 0 0 0 0 0 0 0 0 0 0 0 127 0" result="hardAlpha"/>
<feOffset dy="0.6764"/>
<feGaussianBlur stdDeviation="1.0146"/>
<feComposite in2="hardAlpha" operator="out"/>
<feColorMatrix type="matrix" values="0 0 0 0 0 0 0 0 0 0 0 0 0 0 0 0 0 0 0.1 0"/>
<feBlend mode="normal" in2="effect1_dropShadow_334_193" result="effect2_dropShadow_334_193"/>
<feBlend mode="normal" in="SourceGraphic" in2="effect2_dropShadow_334_193" result="shape"/>
</filter>
<clipPath id="clip0_334_193">
<rect width="12.8358" height="12.8358" fill="white" transform="translate(30.4871 266.371)"/>
</clipPath>
</defs>
</svg>
