<svg width="266" height="379" viewBox="0 0 266 379" fill="none" xmlns="http://www.w3.org/2000/svg">
<path d="M0 9.99999C0 4.47714 4.47715 0 10 0H256C261.523 0 266 4.47715 266 10V368.5C266 374.023 261.523 378.5 256 378.5H9.99999C4.47715 378.5 0 374.023 0 368.5V9.99999Z" fill="#D9D9D9" fill-opacity="0.2"/>
<path d="M33.7556 102.625C34.6356 102.625 35.4076 102.797 36.0716 103.141C36.7436 103.485 37.2596 103.977 37.6196 104.617C37.9876 105.249 38.1716 105.985 38.1716 106.825C38.1716 107.665 37.9876 108.401 37.6196 109.033C37.2596 109.657 36.7436 110.141 36.0716 110.485C35.4076 110.829 34.6356 111.001 33.7556 111.001H30.8276V102.625H33.7556ZM33.6956 109.573C34.5756 109.573 35.2556 109.333 35.7356 108.853C36.2156 108.373 36.4556 107.697 36.4556 106.825C36.4556 105.953 36.2156 105.273 35.7356 104.785C35.2556 104.289 34.5756 104.041 33.6956 104.041H32.5076V109.573H33.6956ZM38.9972 107.653C38.9972 106.981 39.1292 106.385 39.3932 105.865C39.6652 105.345 40.0292 104.945 40.4852 104.665C40.9492 104.385 41.4652 104.245 42.0332 104.245C42.5292 104.245 42.9612 104.345 43.3292 104.545C43.7052 104.745 44.0052 104.997 44.2292 105.301V104.353H45.9212V111.001H44.2292V110.029C44.0132 110.341 43.7132 110.601 43.3292 110.809C42.9532 111.009 42.5172 111.109 42.0212 111.109C41.4612 111.109 40.9492 110.965 40.4852 110.677C40.0292 110.389 39.6652 109.985 39.3932 109.465C39.1292 108.937 38.9972 108.333 38.9972 107.653ZM44.2292 107.677C44.2292 107.269 44.1492 106.921 43.9892 106.633C43.8292 106.337 43.6132 106.113 43.3412 105.961C43.0692 105.801 42.7772 105.721 42.4652 105.721C42.1532 105.721 41.8652 105.797 41.6012 105.949C41.3372 106.101 41.1212 106.325 40.9532 106.621C40.7932 106.909 40.7132 107.253 40.7132 107.653C40.7132 108.053 40.7932 108.405 40.9532 108.709C41.1212 109.005 41.3372 109.233 41.6012 109.393C41.8732 109.553 42.1612 109.633 42.4652 109.633C42.7772 109.633 43.0692 109.557 43.3412 109.405C43.6132 109.245 43.8292 109.021 43.9892 108.733C44.1492 108.437 44.2292 108.085 44.2292 107.677ZM48.414 103.561C48.118 103.561 47.87 103.469 47.67 103.285C47.478 103.093 47.382 102.857 47.382 102.577C47.382 102.297 47.478 102.065 47.67 101.881C47.87 101.689 48.118 101.593 48.414 101.593C48.71 101.593 48.954 101.689 49.146 101.881C49.346 102.065 49.446 102.297 49.446 102.577C49.446 102.857 49.346 103.093 49.146 103.285C48.954 103.469 48.71 103.561 48.414 103.561ZM49.242 104.353V111.001H47.562V104.353H49.242ZM52.5818 102.121V111.001H50.9018V102.121H52.5818ZM60.6017 104.353L56.4857 114.145H54.6977L56.1377 110.833L53.4737 104.353H55.3577L57.0737 108.997L58.8137 104.353H60.6017ZM67.2587 111.085C66.6747 111.085 66.1467 110.985 65.6747 110.785C65.2107 110.585 64.8427 110.297 64.5707 109.921C64.2987 109.545 64.1587 109.101 64.1507 108.589H65.9507C65.9747 108.933 66.0947 109.205 66.3107 109.405C66.5347 109.605 66.8387 109.705 67.2227 109.705C67.6147 109.705 67.9227 109.613 68.1467 109.429C68.3707 109.237 68.4827 108.989 68.4827 108.685C68.4827 108.437 68.4067 108.233 68.2547 108.073C68.1027 107.913 67.9107 107.789 67.6787 107.701C67.4547 107.605 67.1427 107.501 66.7427 107.389C66.1987 107.229 65.7547 107.073 65.4107 106.921C65.0747 106.761 64.7827 106.525 64.5347 106.213C64.2947 105.893 64.1747 105.469 64.1747 104.941C64.1747 104.445 64.2987 104.013 64.5467 103.645C64.7947 103.277 65.1427 102.997 65.5907 102.805C66.0387 102.605 66.5507 102.505 67.1267 102.505C67.9907 102.505 68.6907 102.717 69.2267 103.141C69.7707 103.557 70.0707 104.141 70.1267 104.893H68.2787C68.2627 104.605 68.1387 104.369 67.9067 104.185C67.6827 103.993 67.3827 103.897 67.0067 103.897C66.6787 103.897 66.4147 103.981 66.2147 104.149C66.0227 104.317 65.9267 104.561 65.9267 104.881C65.9267 105.105 65.9987 105.293 66.1427 105.445C66.2947 105.589 66.4787 105.709 66.6947 105.805C66.9187 105.893 67.2307 105.997 67.6307 106.117C68.1747 106.277 68.6187 106.437 68.9627 106.597C69.3067 106.757 69.6027 106.997 69.8507 107.317C70.0987 107.637 70.2227 108.057 70.2227 108.577C70.2227 109.025 70.1067 109.441 69.8747 109.825C69.6427 110.209 69.3027 110.517 68.8547 110.749C68.4067 110.973 67.8747 111.085 67.2587 111.085ZM71.2472 107.677C71.2472 106.989 71.3872 106.389 71.6672 105.877C71.9472 105.357 72.3352 104.957 72.8312 104.677C73.3272 104.389 73.8952 104.245 74.5352 104.245C75.3592 104.245 76.0392 104.453 76.5752 104.869C77.1192 105.277 77.4832 105.853 77.6672 106.597H75.8552C75.7592 106.309 75.5952 106.085 75.3632 105.925C75.1392 105.757 74.8592 105.673 74.5232 105.673C74.0432 105.673 73.6632 105.849 73.3832 106.201C73.1032 106.545 72.9632 107.037 72.9632 107.677C72.9632 108.309 73.1032 108.801 73.3832 109.153C73.6632 109.497 74.0432 109.669 74.5232 109.669C75.2032 109.669 75.6472 109.365 75.8552 108.757H77.6672C77.4832 109.477 77.1192 110.049 76.5752 110.473C76.0312 110.897 75.3512 111.109 74.5352 111.109C73.8952 111.109 73.3272 110.969 72.8312 110.689C72.3352 110.401 71.9472 110.001 71.6672 109.489C71.3872 108.969 71.2472 108.365 71.2472 107.677ZM81.8499 111.109C81.2099 111.109 80.6339 110.969 80.1219 110.689C79.6099 110.401 79.2059 109.997 78.9099 109.477C78.6219 108.957 78.4779 108.357 78.4779 107.677C78.4779 106.997 78.6259 106.397 78.9219 105.877C79.2259 105.357 79.6379 104.957 80.1579 104.677C80.6779 104.389 81.2579 104.245 81.8979 104.245C82.5379 104.245 83.1179 104.389 83.6379 104.677C84.1579 104.957 84.5659 105.357 84.8619 105.877C85.1659 106.397 85.3179 106.997 85.3179 107.677C85.3179 108.357 85.1619 108.957 84.8499 109.477C84.5459 109.997 84.1299 110.401 83.6019 110.689C83.0819 110.969 82.4979 111.109 81.8499 111.109ZM81.8499 109.645C82.1539 109.645 82.4379 109.573 82.7019 109.429C82.9739 109.277 83.1899 109.053 83.3499 108.757C83.5099 108.461 83.5899 108.101 83.5899 107.677C83.5899 107.045 83.4219 106.561 83.0859 106.225C82.7579 105.881 82.3539 105.709 81.8739 105.709C81.3939 105.709 80.9899 105.881 80.6619 106.225C80.3419 106.561 80.1819 107.045 80.1819 107.677C80.1819 108.309 80.3379 108.797 80.6499 109.141C80.9699 109.477 81.3699 109.645 81.8499 109.645ZM88.2303 105.385C88.4463 105.033 88.7263 104.757 89.0703 104.557C89.4223 104.357 89.8223 104.257 90.2703 104.257V106.021H89.8263C89.2983 106.021 88.8983 106.145 88.6263 106.393C88.3623 106.641 88.2303 107.073 88.2303 107.689V111.001H86.5503V104.353H88.2303V105.385ZM97.5818 107.533C97.5818 107.773 97.5658 107.989 97.5338 108.181H92.6738C92.7138 108.661 92.8818 109.037 93.1778 109.309C93.4738 109.581 93.8378 109.717 94.2698 109.717C94.8938 109.717 95.3378 109.449 95.6018 108.913H97.4138C97.2218 109.553 96.8538 110.081 96.3098 110.497C95.7658 110.905 95.0978 111.109 94.3058 111.109C93.6658 111.109 93.0898 110.969 92.5778 110.689C92.0738 110.401 91.6778 109.997 91.3898 109.477C91.1098 108.957 90.9698 108.357 90.9698 107.677C90.9698 106.989 91.1098 106.385 91.3898 105.865C91.6698 105.345 92.0618 104.945 92.5658 104.665C93.0698 104.385 93.6498 104.245 94.3058 104.245C94.9378 104.245 95.5018 104.381 95.9978 104.653C96.5018 104.925 96.8898 105.313 97.1618 105.817C97.4418 106.313 97.5818 106.885 97.5818 107.533ZM95.8418 107.053C95.8338 106.621 95.6778 106.277 95.3738 106.021C95.0698 105.757 94.6978 105.625 94.2578 105.625C93.8418 105.625 93.4898 105.753 93.2018 106.009C92.9218 106.257 92.7498 106.605 92.6858 107.053H95.8418Z" fill="white"/>
<path d="M36.8796 141.441C37.0503 142.38 37.4343 143.105 38.0316 143.617C38.6503 144.108 39.4716 144.353 40.4956 144.353C41.8183 144.353 42.7783 143.809 43.3756 142.721C43.9729 141.612 44.2716 139.756 44.2716 137.153C43.7809 137.836 43.0876 138.369 42.1916 138.753C41.3169 139.137 40.3676 139.329 39.3436 139.329C37.9783 139.329 36.7409 139.052 35.6316 138.497C34.5436 137.921 33.6796 137.078 33.0396 135.969C32.3996 134.838 32.0796 133.473 32.0796 131.873C32.0796 129.505 32.7836 127.628 34.1916 126.241C35.5996 124.833 37.5196 124.129 39.9516 124.129C42.9809 124.129 45.1143 125.1 46.3516 127.041C47.6103 128.982 48.2396 131.905 48.2396 135.809C48.2396 138.582 47.9943 140.854 47.5036 142.625C47.0343 144.396 46.2129 145.74 45.0396 146.657C43.8876 147.574 42.3089 148.033 40.3036 148.033C38.7249 148.033 37.3809 147.734 36.2716 147.137C35.1623 146.518 34.3089 145.718 33.7116 144.737C33.1356 143.734 32.8049 142.636 32.7196 141.441H36.8796ZM40.2716 135.681C41.3809 135.681 42.2556 135.34 42.8956 134.657C43.5356 133.974 43.8556 133.057 43.8556 131.905C43.8556 130.646 43.5143 129.676 42.8316 128.993C42.1703 128.289 41.2636 127.937 40.1116 127.937C38.9596 127.937 38.0423 128.3 37.3596 129.025C36.6983 129.729 36.3676 130.668 36.3676 131.841C36.3676 132.972 36.6876 133.9 37.3276 134.625C37.9889 135.329 38.9703 135.681 40.2716 135.681ZM54.8309 135.649C52.6975 134.54 51.6309 132.822 51.6309 130.497C51.6309 129.345 51.9189 128.3 52.4949 127.361C53.0922 126.401 53.9775 125.644 55.1509 125.089C56.3455 124.513 57.7962 124.225 59.5029 124.225C61.2095 124.225 62.6495 124.513 63.8229 125.089C65.0175 125.644 65.9029 126.401 66.4789 127.361C67.0762 128.3 67.3749 129.345 67.3749 130.497C67.3749 131.67 67.0869 132.705 66.5109 133.601C65.9349 134.476 65.1669 135.158 64.2069 135.649C65.3802 136.161 66.2975 136.908 66.9589 137.889C67.6202 138.87 67.9509 140.033 67.9509 141.377C67.9509 142.828 67.5775 144.097 66.8309 145.185C66.1055 146.252 65.1029 147.073 63.8229 147.649C62.5429 148.225 61.1029 148.513 59.5029 148.513C57.9029 148.513 56.4629 148.225 55.1829 147.649C53.9242 147.073 52.9215 146.252 52.1749 145.185C51.4495 144.097 51.0869 142.828 51.0869 141.377C51.0869 140.033 51.4175 138.87 52.0789 137.889C52.7402 136.886 53.6575 136.14 54.8309 135.649ZM63.0229 131.137C63.0229 130.092 62.7029 129.281 62.0629 128.705C61.4442 128.129 60.5909 127.841 59.5029 127.841C58.4362 127.841 57.5829 128.129 56.9429 128.705C56.3242 129.281 56.0149 130.102 56.0149 131.169C56.0149 132.129 56.3349 132.897 56.9749 133.473C57.6362 134.049 58.4789 134.337 59.5029 134.337C60.5269 134.337 61.3695 134.049 62.0309 133.473C62.6922 132.876 63.0229 132.097 63.0229 131.137ZM59.5029 137.601C58.2869 137.601 57.2949 137.91 56.5269 138.529C55.7802 139.148 55.4069 140.033 55.4069 141.185C55.4069 142.252 55.7695 143.126 56.4949 143.809C57.2415 144.47 58.2442 144.801 59.5029 144.801C60.7615 144.801 61.7535 144.46 62.4789 143.777C63.2042 143.094 63.5669 142.23 63.5669 141.185C63.5669 140.054 63.1935 139.18 62.4469 138.561C61.7002 137.921 60.7189 137.601 59.5029 137.601Z" fill="#D9DDE6"/>
<path d="M73.6072 139.201C73.6072 138.39 73.8419 137.756 74.3112 137.297C74.7912 136.838 75.4046 136.609 76.1512 136.609C76.8979 136.609 77.5059 136.838 77.9752 137.297C78.4552 137.756 78.6952 138.39 78.6952 139.201C78.6952 140.022 78.4552 140.662 77.9752 141.121C77.5059 141.58 76.8979 141.809 76.1512 141.809C75.4046 141.809 74.7912 141.58 74.3112 141.121C73.8419 140.662 73.6072 140.022 73.6072 139.201ZM83.8792 136.801L77.5912 148.001H75.4152L81.6872 136.801H83.8792ZM76.1352 137.953C75.5486 137.953 75.2552 138.369 75.2552 139.201C75.2552 140.044 75.5486 140.465 76.1352 140.465C76.4232 140.465 76.6472 140.364 76.8072 140.161C76.9672 139.948 77.0472 139.628 77.0472 139.201C77.0472 138.369 76.7432 137.953 76.1352 137.953ZM80.6312 145.585C80.6312 144.764 80.8659 144.129 81.3352 143.681C81.8152 143.222 82.4286 142.993 83.1752 142.993C83.9219 142.993 84.5246 143.222 84.9832 143.681C85.4526 144.129 85.6872 144.764 85.6872 145.585C85.6872 146.406 85.4526 147.046 84.9832 147.505C84.5246 147.964 83.9219 148.193 83.1752 148.193C82.4179 148.193 81.8046 147.964 81.3352 147.505C80.8659 147.046 80.6312 146.406 80.6312 145.585ZM83.1592 144.337C82.5512 144.337 82.2472 144.753 82.2472 145.585C82.2472 146.428 82.5512 146.849 83.1592 146.849C83.7566 146.849 84.0552 146.428 84.0552 145.585C84.0552 144.753 83.7566 144.337 83.1592 144.337Z" fill="#E88F4A"/>
<path d="M32.8168 201.718C33.4768 201.718 34.0558 201.847 34.5538 202.105C35.0578 202.363 35.4448 202.732 35.7148 203.212C35.9908 203.686 36.1288 204.238 36.1288 204.868C36.1288 205.498 35.9908 206.05 35.7148 206.524C35.4448 206.992 35.0578 207.355 34.5538 207.613C34.0558 207.871 33.4768 208 32.8168 208H30.6208V201.718H32.8168ZM32.7718 206.929C33.4318 206.929 33.9418 206.749 34.3018 206.389C34.6618 206.029 34.8418 205.522 34.8418 204.868C34.8418 204.214 34.6618 203.704 34.3018 203.338C33.9418 202.966 33.4318 202.78 32.7718 202.78H31.8808V206.929H32.7718ZM38.782 202.735V204.31H40.897V205.309H38.782V206.974H41.167V208H37.522V201.709H41.167V202.735H38.782ZM44.022 202.735V204.31H46.137V205.309H44.022V206.974H46.407V208H42.762V201.709H46.407V202.735H44.022ZM52.5831 203.662C52.5831 203.998 52.5021 204.313 52.3401 204.607C52.1841 204.901 51.9351 205.138 51.5931 205.318C51.2571 205.498 50.8311 205.588 50.3151 205.588H49.2621V208H48.0021V201.718H50.3151C50.8011 201.718 51.2151 201.802 51.5571 201.97C51.8991 202.138 52.1541 202.369 52.3221 202.663C52.4961 202.957 52.5831 203.29 52.5831 203.662ZM50.2611 204.571C50.6091 204.571 50.8671 204.493 51.0351 204.337C51.2031 204.175 51.2871 203.95 51.2871 203.662C51.2871 203.05 50.9451 202.744 50.2611 202.744H49.2621V204.571H50.2611Z" fill="white"/>
<path d="M122.811 207.001H124.881V208H121.551V201.718H122.811V207.001ZM127.391 201.718V208H126.131V201.718H127.391ZM133.46 203.608C133.316 203.344 133.118 203.143 132.866 203.005C132.614 202.867 132.32 202.798 131.984 202.798C131.612 202.798 131.282 202.882 130.994 203.05C130.706 203.218 130.481 203.458 130.319 203.77C130.157 204.082 130.076 204.442 130.076 204.85C130.076 205.27 130.157 205.636 130.319 205.948C130.487 206.26 130.718 206.5 131.012 206.668C131.306 206.836 131.648 206.92 132.038 206.92C132.518 206.92 132.911 206.794 133.217 206.542C133.523 206.284 133.724 205.927 133.82 205.471H131.66V204.508H135.062V205.606C134.978 206.044 134.798 206.449 134.522 206.821C134.246 207.193 133.889 207.493 133.451 207.721C133.019 207.943 132.533 208.054 131.993 208.054C131.387 208.054 130.838 207.919 130.346 207.649C129.86 207.373 129.476 206.992 129.194 206.506C128.918 206.02 128.78 205.468 128.78 204.85C128.78 204.232 128.918 203.68 129.194 203.194C129.476 202.702 129.86 202.321 130.346 202.051C130.838 201.775 131.384 201.637 131.984 201.637C132.692 201.637 133.307 201.811 133.829 202.159C134.351 202.501 134.711 202.984 134.909 203.608H133.46ZM141.655 201.718V208H140.395V205.327H137.704V208H136.444V201.718H137.704V204.301H140.395V201.718H141.655ZM147.621 201.718V202.735H145.947V208H144.687V202.735H143.013V201.718H147.621Z" fill="white"/>
<path d="M219.861 208L218.475 205.552H217.881V208H216.621V201.718H218.979C219.465 201.718 219.879 201.805 220.221 201.979C220.563 202.147 220.818 202.378 220.986 202.672C221.16 202.96 221.247 203.284 221.247 203.644C221.247 204.058 221.127 204.433 220.887 204.769C220.647 205.099 220.29 205.327 219.816 205.453L221.319 208H219.861ZM217.881 204.607H218.934C219.276 204.607 219.531 204.526 219.699 204.364C219.867 204.196 219.951 203.965 219.951 203.671C219.951 203.383 219.867 203.161 219.699 203.005C219.531 202.843 219.276 202.762 218.934 202.762H217.881V204.607ZM224.096 202.735V204.31H226.211V205.309H224.096V206.974H226.481V208H222.836V201.709H226.481V202.735H224.096ZM234.925 201.718V208H233.665V203.914L231.982 208H231.028L229.336 203.914V208H228.076V201.718H229.507L231.505 206.389L233.503 201.718H234.925Z" fill="white"/>
<g filter="url(#filter1_i_334_159)">
<g clip-path="url(#clip0_334_159)">
<path d="M29.9998 224.5C29.9998 221.739 32.2384 219.5 34.9998 219.5H231C233.761 219.5 236 221.739 236 224.5C236 227.261 233.761 229.5 231 229.5H34.9998C32.2384 229.5 29.9998 227.261 29.9998 224.5Z" fill="#F1F5F9"/>
<path d="M29.9998 224.5C29.9998 221.739 32.2384 219.5 34.9998 219.5H90.6092V229.5H34.9998C32.2384 229.5 29.9998 227.261 29.9998 224.5Z" fill="#5D5589"/>
<rect width="90.8906" height="10" transform="translate(92.6092 219.5)" fill="#7B9CC7"/>
<path d="M185.5 219.5H231C233.761 219.5 236 221.739 236 224.5C236 227.261 233.761 229.5 231 229.5H185.5V219.5Z" fill="#E88F4A"/>
</g>
</g>
<mask id="path-11-inside-1_334_159" fill="white">
<path d="M30.0002 299.001C30.0002 290.164 37.1636 283.001 46.0002 283.001H220C228.837 283.001 236 290.164 236 299.001V325.001C236 333.838 228.837 341.001 220 341.001H46.0002C37.1636 341.001 30.0002 333.838 30.0002 325.001V299.001Z"/>
</mask>
<path d="M30.0002 299.001C30.0002 290.164 37.1636 283.001 46.0002 283.001H220C228.837 283.001 236 290.164 236 299.001V325.001C236 333.838 228.837 341.001 220 341.001H46.0002C37.1636 341.001 30.0002 333.838 30.0002 325.001V299.001Z" fill="white" fill-opacity="0.5"/>
<path d="M46.0002 283.001V284.001H220V283.001V282.001H46.0002V283.001ZM236 299.001H235V325.001H236H237V299.001H236ZM220 341.001V340.001H46.0002V341.001V342.001H220V341.001ZM30.0002 325.001H31.0002V299.001H30.0002H29.0002V325.001H30.0002ZM46.0002 341.001V340.001C37.7159 340.001 31.0002 333.285 31.0002 325.001H30.0002H29.0002C29.0002 334.39 36.6113 342.001 46.0002 342.001V341.001ZM236 325.001H235C235 333.285 228.284 340.001 220 340.001V341.001V342.001C229.389 342.001 237 334.39 237 325.001H236ZM220 283.001V284.001C228.284 284.001 235 290.717 235 299.001H236H237C237 289.612 229.389 282.001 220 282.001V283.001ZM46.0002 283.001V282.001C36.6113 282.001 29.0002 289.612 29.0002 299.001H30.0002H31.0002C31.0002 290.717 37.7159 284.001 46.0002 284.001V283.001Z" fill="white" mask="url(#path-11-inside-1_334_159)"/>
<mask id="path-13-inside-2_334_159" fill="white">
<path d="M43.0002 312.001C43.0002 303.164 50.1636 296.001 59.0002 296.001C67.8367 296.001 75.0002 303.164 75.0002 312.001C75.0002 320.838 67.8367 328.001 59.0002 328.001C50.1636 328.001 43.0002 320.838 43.0002 312.001Z"/>
</mask>
<path d="M43.0002 312.001C43.0002 303.164 50.1636 296.001 59.0002 296.001C67.8367 296.001 75.0002 303.164 75.0002 312.001C75.0002 320.838 67.8367 328.001 59.0002 328.001C50.1636 328.001 43.0002 320.838 43.0002 312.001Z" fill="#FAF0E7" fill-opacity="0.5"/>
<path d="M43.0002 312.001M75.0002 312.001M75.0002 312.001M43.0002 312.001M59.0002 296.001M75.0002 312.001M59.0002 328.001M43.0002 312.001M59.0002 328.001V327.001C50.7159 327.001 44.0002 320.285 44.0002 312.001H43.0002H42.0002C42.0002 321.39 49.6113 329.001 59.0002 329.001V328.001ZM75.0002 312.001H74.0002C74.0002 320.285 67.2845 327.001 59.0002 327.001V328.001V329.001C68.389 329.001 76.0002 321.39 76.0002 312.001H75.0002ZM59.0002 296.001V297.001C67.2845 297.001 74.0002 303.717 74.0002 312.001H75.0002H76.0002C76.0002 302.612 68.389 295.001 59.0002 295.001V296.001ZM59.0002 296.001V295.001C49.6113 295.001 42.0002 302.612 42.0002 312.001H43.0002H44.0002C44.0002 303.717 50.7159 297.001 59.0002 297.001V296.001Z" fill="white" mask="url(#path-13-inside-2_334_159)"/>
<g clip-path="url(#clip1_334_159)">
<path d="M54.3335 313.168C54.2231 313.168 54.1149 313.137 54.0214 313.078C53.9279 313.02 53.853 312.936 53.8053 312.836C53.7577 312.736 53.7393 312.625 53.7522 312.516C53.7652 312.406 53.809 312.302 53.8785 312.217L59.6535 306.267C59.6968 306.217 59.7559 306.183 59.8209 306.171C59.886 306.159 59.9532 306.169 60.0115 306.2C60.0699 306.232 60.1159 306.282 60.142 306.343C60.1681 306.403 60.1727 306.471 60.1552 306.535L59.0352 310.047C59.0022 310.135 58.9911 310.23 59.0029 310.324C59.0147 310.417 59.049 310.507 59.1029 310.584C59.1568 310.662 59.2287 310.725 59.3124 310.768C59.3961 310.812 59.4892 310.835 59.5835 310.834H63.6669C63.7772 310.834 63.8855 310.865 63.979 310.923C64.0725 310.982 64.1474 311.066 64.195 311.166C64.2427 311.265 64.2611 311.376 64.2481 311.486C64.2352 311.596 64.1914 311.699 64.1219 311.785L58.3469 317.735C58.3035 317.785 58.2445 317.819 58.1794 317.831C58.1144 317.843 58.0472 317.832 57.9888 317.801C57.9305 317.77 57.8845 317.72 57.8584 317.659C57.8323 317.598 57.8276 317.53 57.8452 317.467L58.9652 313.955C58.9982 313.867 59.0093 313.772 58.9975 313.678C58.9857 313.584 58.9514 313.495 58.8975 313.418C58.8436 313.34 58.7717 313.277 58.6879 313.233C58.6042 313.19 58.5112 313.167 58.4169 313.168H54.3335Z" stroke="#E88F4A" stroke-width="1.16667" stroke-linecap="round" stroke-linejoin="round"/>
</g>
<path d="M93.3582 302.949C93.3582 303.36 93.2592 303.745 93.0612 304.104C92.8705 304.463 92.5662 304.753 92.1482 304.973C91.7375 305.193 91.2169 305.303 90.5862 305.303H89.2992V308.251H87.7592V300.573H90.5862C91.1802 300.573 91.6862 300.676 92.1042 300.881C92.5222 301.086 92.8339 301.369 93.0392 301.728C93.2518 302.087 93.3582 302.494 93.3582 302.949ZM90.5202 304.06C90.9455 304.06 91.2608 303.965 91.4662 303.774C91.6715 303.576 91.7742 303.301 91.7742 302.949C91.7742 302.201 91.3562 301.827 90.5202 301.827H89.2992V304.06H90.5202ZM95.9916 303.103C96.1896 302.78 96.4462 302.527 96.7616 302.344C97.0842 302.161 97.4509 302.069 97.8616 302.069V303.686H97.4546C96.9706 303.686 96.6039 303.8 96.3546 304.027C96.1126 304.254 95.9916 304.65 95.9916 305.215V308.251H94.4516V302.157H95.9916V303.103ZM99.6798 301.431C99.4085 301.431 99.1812 301.347 98.9978 301.178C98.8218 301.002 98.7338 300.786 98.7338 300.529C98.7338 300.272 98.8218 300.06 98.9978 299.891C99.1812 299.715 99.4085 299.627 99.6798 299.627C99.9512 299.627 100.175 299.715 100.351 299.891C100.534 300.06 100.626 300.272 100.626 300.529C100.626 300.786 100.534 301.002 100.351 301.178C100.175 301.347 99.9512 301.431 99.6798 301.431ZM100.439 302.157V308.251H98.8988V302.157H100.439ZM109.528 302.069C110.276 302.069 110.878 302.3 111.332 302.762C111.794 303.217 112.025 303.855 112.025 304.676V308.251H110.485V304.885C110.485 304.408 110.364 304.045 110.122 303.796C109.88 303.539 109.55 303.411 109.132 303.411C108.714 303.411 108.381 303.539 108.131 303.796C107.889 304.045 107.768 304.408 107.768 304.885V308.251H106.228V304.885C106.228 304.408 106.107 304.045 105.865 303.796C105.623 303.539 105.293 303.411 104.875 303.411C104.45 303.411 104.113 303.539 103.863 303.796C103.621 304.045 103.5 304.408 103.5 304.885V308.251H101.96V302.157H103.5V302.894C103.698 302.637 103.951 302.436 104.259 302.289C104.575 302.142 104.919 302.069 105.293 302.069C105.77 302.069 106.195 302.172 106.569 302.377C106.943 302.575 107.233 302.861 107.438 303.235C107.636 302.883 107.922 302.601 108.296 302.388C108.678 302.175 109.088 302.069 109.528 302.069ZM119.152 305.072C119.152 305.292 119.137 305.49 119.108 305.666H114.653C114.689 306.106 114.843 306.451 115.115 306.7C115.386 306.949 115.72 307.074 116.116 307.074C116.688 307.074 117.095 306.828 117.337 306.337H118.998C118.822 306.924 118.484 307.408 117.986 307.789C117.487 308.163 116.875 308.35 116.149 308.35C115.562 308.35 115.034 308.222 114.565 307.965C114.103 307.701 113.74 307.331 113.476 306.854C113.219 306.377 113.091 305.827 113.091 305.204C113.091 304.573 113.219 304.02 113.476 303.543C113.732 303.066 114.092 302.7 114.554 302.443C115.016 302.186 115.547 302.058 116.149 302.058C116.728 302.058 117.245 302.183 117.7 302.432C118.162 302.681 118.517 303.037 118.767 303.499C119.023 303.954 119.152 304.478 119.152 305.072ZM117.557 304.632C117.549 304.236 117.406 303.921 117.128 303.686C116.849 303.444 116.508 303.323 116.105 303.323C115.723 303.323 115.401 303.44 115.137 303.675C114.88 303.902 114.722 304.221 114.664 304.632H117.557ZM119.88 305.182C119.88 304.566 120.001 304.02 120.243 303.543C120.492 303.066 120.829 302.7 121.255 302.443C121.68 302.186 122.153 302.058 122.674 302.058C123.07 302.058 123.447 302.146 123.807 302.322C124.166 302.491 124.452 302.718 124.665 303.004V300.111H126.227V308.251H124.665V307.349C124.474 307.65 124.206 307.892 123.862 308.075C123.517 308.258 123.117 308.35 122.663 308.35C122.149 308.35 121.68 308.218 121.255 307.954C120.829 307.69 120.492 307.32 120.243 306.843C120.001 306.359 119.88 305.805 119.88 305.182ZM124.676 305.204C124.676 304.83 124.602 304.511 124.456 304.247C124.309 303.976 124.111 303.77 123.862 303.631C123.612 303.484 123.345 303.411 123.059 303.411C122.773 303.411 122.509 303.481 122.267 303.62C122.025 303.759 121.827 303.965 121.673 304.236C121.526 304.5 121.453 304.815 121.453 305.182C121.453 305.549 121.526 305.871 121.673 306.15C121.827 306.421 122.025 306.63 122.267 306.777C122.516 306.924 122.78 306.997 123.059 306.997C123.345 306.997 123.612 306.927 123.862 306.788C124.111 306.641 124.309 306.436 124.456 306.172C124.602 305.901 124.676 305.578 124.676 305.204ZM133.146 303.422H132.079V308.251H130.517V303.422H129.824V302.157H130.517V301.849C130.517 301.101 130.73 300.551 131.155 300.199C131.58 299.847 132.222 299.682 133.08 299.704V301.002C132.706 300.995 132.446 301.057 132.299 301.189C132.152 301.321 132.079 301.559 132.079 301.904V302.157H133.146V303.422ZM136.85 308.35C136.263 308.35 135.735 308.222 135.266 307.965C134.797 307.701 134.426 307.331 134.155 306.854C133.891 306.377 133.759 305.827 133.759 305.204C133.759 304.581 133.895 304.031 134.166 303.554C134.445 303.077 134.822 302.711 135.299 302.454C135.776 302.19 136.307 302.058 136.894 302.058C137.481 302.058 138.012 302.19 138.489 302.454C138.966 302.711 139.34 303.077 139.611 303.554C139.89 304.031 140.029 304.581 140.029 305.204C140.029 305.827 139.886 306.377 139.6 306.854C139.321 307.331 138.94 307.701 138.456 307.965C137.979 308.222 137.444 308.35 136.85 308.35ZM136.85 307.008C137.129 307.008 137.389 306.942 137.631 306.81C137.88 306.671 138.078 306.465 138.225 306.194C138.372 305.923 138.445 305.593 138.445 305.204C138.445 304.625 138.291 304.181 137.983 303.873C137.682 303.558 137.312 303.4 136.872 303.4C136.432 303.4 136.062 303.558 135.761 303.873C135.468 304.181 135.321 304.625 135.321 305.204C135.321 305.783 135.464 306.231 135.75 306.546C136.043 306.854 136.41 307.008 136.85 307.008ZM142.699 303.103C142.897 302.78 143.153 302.527 143.469 302.344C143.791 302.161 144.158 302.069 144.569 302.069V303.686H144.162C143.678 303.686 143.311 303.8 143.062 304.027C142.82 304.254 142.699 304.65 142.699 305.215V308.251H141.159V302.157H142.699V303.103ZM149.767 303.037C149.965 302.758 150.236 302.527 150.581 302.344C150.933 302.153 151.333 302.058 151.78 302.058C152.301 302.058 152.77 302.186 153.188 302.443C153.613 302.7 153.947 303.066 154.189 303.543C154.438 304.012 154.563 304.559 154.563 305.182C154.563 305.805 154.438 306.359 154.189 306.843C153.947 307.32 153.613 307.69 153.188 307.954C152.77 308.218 152.301 308.35 151.78 308.35C151.333 308.35 150.937 308.258 150.592 308.075C150.255 307.892 149.98 307.661 149.767 307.382V311.155H148.227V302.157H149.767V303.037ZM152.99 305.182C152.99 304.815 152.913 304.5 152.759 304.236C152.612 303.965 152.414 303.759 152.165 303.62C151.923 303.481 151.659 303.411 151.373 303.411C151.094 303.411 150.83 303.484 150.581 303.631C150.339 303.77 150.141 303.976 149.987 304.247C149.84 304.518 149.767 304.837 149.767 305.204C149.767 305.571 149.84 305.89 149.987 306.161C150.141 306.432 150.339 306.641 150.581 306.788C150.83 306.927 151.094 306.997 151.373 306.997C151.659 306.997 151.923 306.924 152.165 306.777C152.414 306.63 152.612 306.421 152.759 306.15C152.913 305.879 152.99 305.556 152.99 305.182ZM161.347 305.072C161.347 305.292 161.332 305.49 161.303 305.666H156.848C156.885 306.106 157.039 306.451 157.31 306.7C157.581 306.949 157.915 307.074 158.311 307.074C158.883 307.074 159.29 306.828 159.532 306.337H161.193C161.017 306.924 160.68 307.408 160.181 307.789C159.682 308.163 159.07 308.35 158.344 308.35C157.757 308.35 157.229 308.222 156.76 307.965C156.298 307.701 155.935 307.331 155.671 306.854C155.414 306.377 155.286 305.827 155.286 305.204C155.286 304.573 155.414 304.02 155.671 303.543C155.928 303.066 156.287 302.7 156.749 302.443C157.211 302.186 157.743 302.058 158.344 302.058C158.923 302.058 159.44 302.183 159.895 302.432C160.357 302.681 160.713 303.037 160.962 303.499C161.219 303.954 161.347 304.478 161.347 305.072ZM159.752 304.632C159.745 304.236 159.602 303.921 159.323 303.686C159.044 303.444 158.703 303.323 158.3 303.323C157.919 303.323 157.596 303.44 157.332 303.675C157.075 303.902 156.918 304.221 156.859 304.632H159.752ZM162.075 305.182C162.075 304.566 162.196 304.02 162.438 303.543C162.687 303.066 163.021 302.7 163.439 302.443C163.864 302.186 164.337 302.058 164.858 302.058C165.313 302.058 165.709 302.15 166.046 302.333C166.391 302.516 166.666 302.747 166.871 303.026V302.157H168.422V308.251H166.871V307.36C166.673 307.646 166.398 307.884 166.046 308.075C165.701 308.258 165.302 308.35 164.847 308.35C164.334 308.35 163.864 308.218 163.439 307.954C163.021 307.69 162.687 307.32 162.438 306.843C162.196 306.359 162.075 305.805 162.075 305.182ZM166.871 305.204C166.871 304.83 166.798 304.511 166.651 304.247C166.504 303.976 166.306 303.77 166.057 303.631C165.808 303.484 165.54 303.411 165.254 303.411C164.968 303.411 164.704 303.481 164.462 303.62C164.22 303.759 164.022 303.965 163.868 304.236C163.721 304.5 163.648 304.815 163.648 305.182C163.648 305.549 163.721 305.871 163.868 306.15C164.022 306.421 164.22 306.63 164.462 306.777C164.711 306.924 164.975 306.997 165.254 306.997C165.54 306.997 165.808 306.927 166.057 306.788C166.306 306.641 166.504 306.436 166.651 306.172C166.798 305.901 166.871 305.578 166.871 305.204ZM173.534 308.251L171.466 305.655V308.251H169.926V300.111H171.466V304.742L173.512 302.157H175.514L172.83 305.215L175.536 308.251H173.534ZM181.677 308.35C181.09 308.35 180.562 308.222 180.093 307.965C179.624 307.701 179.253 307.331 178.982 306.854C178.718 306.377 178.586 305.827 178.586 305.204C178.586 304.581 178.722 304.031 178.993 303.554C179.272 303.077 179.649 302.711 180.126 302.454C180.603 302.19 181.134 302.058 181.721 302.058C182.308 302.058 182.839 302.19 183.316 302.454C183.793 302.711 184.167 303.077 184.438 303.554C184.717 304.031 184.856 304.581 184.856 305.204C184.856 305.827 184.713 306.377 184.427 306.854C184.148 307.331 183.767 307.701 183.283 307.965C182.806 308.222 182.271 308.35 181.677 308.35ZM181.677 307.008C181.956 307.008 182.216 306.942 182.458 306.81C182.707 306.671 182.905 306.465 183.052 306.194C183.199 305.923 183.272 305.593 183.272 305.204C183.272 304.625 183.118 304.181 182.81 303.873C182.509 303.558 182.139 303.4 181.699 303.4C181.259 303.4 180.889 303.558 180.588 303.873C180.295 304.181 180.148 304.625 180.148 305.204C180.148 305.783 180.291 306.231 180.577 306.546C180.87 306.854 181.237 307.008 181.677 307.008ZM191.739 302.157V308.251H190.188V307.481C189.99 307.745 189.729 307.954 189.407 308.108C189.091 308.255 188.747 308.328 188.373 308.328C187.896 308.328 187.474 308.229 187.108 308.031C186.741 307.826 186.451 307.529 186.239 307.14C186.033 306.744 185.931 306.275 185.931 305.732V302.157H187.471V305.512C187.471 305.996 187.592 306.37 187.834 306.634C188.076 306.891 188.406 307.019 188.824 307.019C189.249 307.019 189.583 306.891 189.825 306.634C190.067 306.37 190.188 305.996 190.188 305.512V302.157H191.739ZM195.051 303.422V306.37C195.051 306.575 195.099 306.726 195.194 306.821C195.297 306.909 195.466 306.953 195.7 306.953H196.415V308.251H195.447C194.149 308.251 193.5 307.62 193.5 306.359V303.422H192.774V302.157H193.5V300.65H195.051V302.157H196.415V303.422H195.051ZM199.063 303.037C199.261 302.758 199.532 302.527 199.877 302.344C200.229 302.153 200.629 302.058 201.076 302.058C201.597 302.058 202.066 302.186 202.484 302.443C202.909 302.7 203.243 303.066 203.485 303.543C203.734 304.012 203.859 304.559 203.859 305.182C203.859 305.805 203.734 306.359 203.485 306.843C203.243 307.32 202.909 307.69 202.484 307.954C202.066 308.218 201.597 308.35 201.076 308.35C200.629 308.35 200.233 308.258 199.888 308.075C199.551 307.892 199.276 307.661 199.063 307.382V311.155H197.523V302.157H199.063V303.037ZM202.286 305.182C202.286 304.815 202.209 304.5 202.055 304.236C201.908 303.965 201.71 303.759 201.461 303.62C201.219 303.481 200.955 303.411 200.669 303.411C200.39 303.411 200.126 303.484 199.877 303.631C199.635 303.77 199.437 303.976 199.283 304.247C199.136 304.518 199.063 304.837 199.063 305.204C199.063 305.571 199.136 305.89 199.283 306.161C199.437 306.432 199.635 306.641 199.877 306.788C200.126 306.927 200.39 306.997 200.669 306.997C200.955 306.997 201.219 306.924 201.461 306.777C201.71 306.63 201.908 306.421 202.055 306.15C202.209 305.879 202.286 305.556 202.286 305.182ZM210.731 302.157V308.251H209.18V307.481C208.982 307.745 208.722 307.954 208.399 308.108C208.084 308.255 207.739 308.328 207.365 308.328C206.888 308.328 206.467 308.229 206.1 308.031C205.733 307.826 205.444 307.529 205.231 307.14C205.026 306.744 204.923 306.275 204.923 305.732V302.157H206.463V305.512C206.463 305.996 206.584 306.37 206.826 306.634C207.068 306.891 207.398 307.019 207.816 307.019C208.241 307.019 208.575 306.891 208.817 306.634C209.059 306.37 209.18 305.996 209.18 305.512V302.157H210.731ZM214.043 303.422V306.37C214.043 306.575 214.091 306.726 214.186 306.821C214.289 306.909 214.458 306.953 214.692 306.953H215.407V308.251H214.439C213.141 308.251 212.492 307.62 212.492 306.359V303.422H211.766V302.157H212.492V300.65H214.043V302.157H215.407V303.422H214.043ZM217.197 308.328C216.918 308.328 216.687 308.244 216.504 308.075C216.328 307.899 216.24 307.683 216.24 307.426C216.24 307.169 216.328 306.957 216.504 306.788C216.687 306.612 216.918 306.524 217.197 306.524C217.468 306.524 217.692 306.612 217.868 306.788C218.044 306.957 218.132 307.169 218.132 307.426C218.132 307.683 218.044 307.899 217.868 308.075C217.692 308.244 217.468 308.328 217.197 308.328ZM93.3582 315.949C93.3582 316.36 93.2592 316.745 93.0612 317.104C92.8705 317.463 92.5662 317.753 92.1482 317.973C91.7375 318.193 91.2169 318.303 90.5862 318.303H89.2992V321.251H87.7592V313.573H90.5862C91.1802 313.573 91.6862 313.676 92.1042 313.881C92.5222 314.086 92.8339 314.369 93.0392 314.728C93.2518 315.087 93.3582 315.494 93.3582 315.949ZM90.5202 317.06C90.9455 317.06 91.2608 316.965 91.4662 316.774C91.6715 316.576 91.7742 316.301 91.7742 315.949C91.7742 315.201 91.3562 314.827 90.5202 314.827H89.2992V317.06H90.5202ZM100.205 315.157V321.251H98.6536V320.481C98.4556 320.745 98.1952 320.954 97.8726 321.108C97.5572 321.255 97.2126 321.328 96.8386 321.328C96.3619 321.328 95.9402 321.229 95.5736 321.031C95.2069 320.826 94.9172 320.529 94.7046 320.14C94.4992 319.744 94.3966 319.275 94.3966 318.732V315.157H95.9366V318.512C95.9366 318.996 96.0576 319.37 96.2996 319.634C96.5416 319.891 96.8716 320.019 97.2896 320.019C97.7149 320.019 98.0486 319.891 98.2906 319.634C98.5326 319.37 98.6536 318.996 98.6536 318.512V315.157H100.205ZM104.056 321.35C103.557 321.35 103.11 321.262 102.714 321.086C102.318 320.903 102.003 320.657 101.768 320.349C101.541 320.041 101.416 319.7 101.394 319.326H102.945C102.974 319.561 103.088 319.755 103.286 319.909C103.491 320.063 103.744 320.14 104.045 320.14C104.338 320.14 104.566 320.081 104.727 319.964C104.896 319.847 104.98 319.696 104.98 319.513C104.98 319.315 104.877 319.168 104.672 319.073C104.474 318.97 104.155 318.86 103.715 318.743C103.26 318.633 102.886 318.519 102.593 318.402C102.307 318.285 102.058 318.105 101.845 317.863C101.64 317.621 101.537 317.295 101.537 316.884C101.537 316.547 101.632 316.239 101.823 315.96C102.021 315.681 102.3 315.461 102.659 315.3C103.026 315.139 103.455 315.058 103.946 315.058C104.672 315.058 105.251 315.241 105.684 315.608C106.117 315.967 106.355 316.455 106.399 317.071H104.925C104.903 316.829 104.8 316.638 104.617 316.499C104.441 316.352 104.203 316.279 103.902 316.279C103.623 316.279 103.407 316.33 103.253 316.433C103.106 316.536 103.033 316.679 103.033 316.862C103.033 317.067 103.136 317.225 103.341 317.335C103.546 317.438 103.865 317.544 104.298 317.654C104.738 317.764 105.101 317.878 105.387 317.995C105.673 318.112 105.919 318.296 106.124 318.545C106.337 318.787 106.447 319.11 106.454 319.513C106.454 319.865 106.355 320.18 106.157 320.459C105.966 320.738 105.688 320.958 105.321 321.119C104.962 321.273 104.54 321.35 104.056 321.35ZM111.15 315.069C111.612 315.069 112.023 315.172 112.382 315.377C112.742 315.575 113.02 315.872 113.218 316.268C113.424 316.657 113.526 317.126 113.526 317.676V321.251H111.986V317.885C111.986 317.401 111.865 317.031 111.623 316.774C111.381 316.51 111.051 316.378 110.633 316.378C110.208 316.378 109.871 316.51 109.621 316.774C109.379 317.031 109.258 317.401 109.258 317.885V321.251H107.718V313.111H109.258V315.916C109.456 315.652 109.72 315.447 110.05 315.3C110.38 315.146 110.747 315.069 111.15 315.069ZM121.044 315.069C121.506 315.069 121.916 315.172 122.276 315.377C122.635 315.575 122.914 315.872 123.112 316.268C123.317 316.657 123.42 317.126 123.42 317.676V321.251H121.88V317.885C121.88 317.401 121.759 317.031 121.517 316.774C121.275 316.51 120.945 316.378 120.527 316.378C120.101 316.378 119.764 316.51 119.515 316.774C119.273 317.031 119.152 317.401 119.152 317.885V321.251H117.612V313.111H119.152V315.916C119.35 315.652 119.614 315.447 119.944 315.3C120.274 315.146 120.64 315.069 121.044 315.069ZM124.488 318.182C124.488 317.566 124.609 317.02 124.851 316.543C125.101 316.066 125.434 315.7 125.852 315.443C126.278 315.186 126.751 315.058 127.271 315.058C127.726 315.058 128.122 315.15 128.459 315.333C128.804 315.516 129.079 315.747 129.284 316.026V315.157H130.835V321.251H129.284V320.36C129.086 320.646 128.811 320.884 128.459 321.075C128.115 321.258 127.715 321.35 127.26 321.35C126.747 321.35 126.278 321.218 125.852 320.954C125.434 320.69 125.101 320.32 124.851 319.843C124.609 319.359 124.488 318.805 124.488 318.182ZM129.284 318.204C129.284 317.83 129.211 317.511 129.064 317.247C128.918 316.976 128.72 316.77 128.47 316.631C128.221 316.484 127.953 316.411 127.667 316.411C127.381 316.411 127.117 316.481 126.875 316.62C126.633 316.759 126.435 316.965 126.281 317.236C126.135 317.5 126.061 317.815 126.061 318.182C126.061 318.549 126.135 318.871 126.281 319.15C126.435 319.421 126.633 319.63 126.875 319.777C127.125 319.924 127.389 319.997 127.667 319.997C127.953 319.997 128.221 319.927 128.47 319.788C128.72 319.641 128.918 319.436 129.064 319.172C129.211 318.901 129.284 318.578 129.284 318.204ZM133.879 316.103C134.077 315.78 134.334 315.527 134.649 315.344C134.972 315.161 135.339 315.069 135.749 315.069V316.686H135.342C134.858 316.686 134.492 316.8 134.242 317.027C134 317.254 133.879 317.65 133.879 318.215V321.251H132.339V315.157H133.879V316.103ZM136.391 318.182C136.391 317.566 136.512 317.02 136.754 316.543C137.003 316.066 137.34 315.7 137.766 315.443C138.191 315.186 138.664 315.058 139.185 315.058C139.581 315.058 139.958 315.146 140.318 315.322C140.677 315.491 140.963 315.718 141.176 316.004V313.111H142.738V321.251H141.176V320.349C140.985 320.65 140.717 320.892 140.373 321.075C140.028 321.258 139.628 321.35 139.174 321.35C138.66 321.35 138.191 321.218 137.766 320.954C137.34 320.69 137.003 320.32 136.754 319.843C136.512 319.359 136.391 318.805 136.391 318.182ZM141.187 318.204C141.187 317.83 141.113 317.511 140.967 317.247C140.82 316.976 140.622 316.77 140.373 316.631C140.123 316.484 139.856 316.411 139.57 316.411C139.284 316.411 139.02 316.481 138.778 316.62C138.536 316.759 138.338 316.965 138.184 317.236C138.037 317.5 137.964 317.815 137.964 318.182C137.964 318.549 138.037 318.871 138.184 319.15C138.338 319.421 138.536 319.63 138.778 319.777C139.027 319.924 139.291 319.997 139.57 319.997C139.856 319.997 140.123 319.927 140.373 319.788C140.622 319.641 140.82 319.436 140.967 319.172C141.113 318.901 141.187 318.578 141.187 318.204ZM149.907 318.072C149.907 318.292 149.892 318.49 149.863 318.666H145.408C145.444 319.106 145.598 319.451 145.87 319.7C146.141 319.949 146.475 320.074 146.871 320.074C147.443 320.074 147.85 319.828 148.092 319.337H149.753C149.577 319.924 149.239 320.408 148.741 320.789C148.242 321.163 147.63 321.35 146.904 321.35C146.317 321.35 145.789 321.222 145.32 320.965C144.858 320.701 144.495 320.331 144.231 319.854C143.974 319.377 143.846 318.827 143.846 318.204C143.846 317.573 143.974 317.02 144.231 316.543C144.487 316.066 144.847 315.7 145.309 315.443C145.771 315.186 146.302 315.058 146.904 315.058C147.483 315.058 148 315.183 148.455 315.432C148.917 315.681 149.272 316.037 149.522 316.499C149.778 316.954 149.907 317.478 149.907 318.072ZM148.312 317.632C148.304 317.236 148.161 316.921 147.883 316.686C147.604 316.444 147.263 316.323 146.86 316.323C146.478 316.323 146.156 316.44 145.892 316.675C145.635 316.902 145.477 317.221 145.419 317.632H148.312ZM152.571 316.103C152.769 315.78 153.025 315.527 153.341 315.344C153.663 315.161 154.03 315.069 154.441 315.069V316.686H154.034C153.55 316.686 153.183 316.8 152.934 317.027C152.692 317.254 152.571 317.65 152.571 318.215V321.251H151.031V315.157H152.571V316.103ZM159.892 316.422V319.37C159.892 319.575 159.94 319.726 160.035 319.821C160.138 319.909 160.306 319.953 160.541 319.953H161.256V321.251H160.288C158.99 321.251 158.341 320.62 158.341 319.359V316.422H157.615V315.157H158.341V313.65H159.892V315.157H161.256V316.422H159.892ZM165.07 321.35C164.483 321.35 163.955 321.222 163.486 320.965C163.016 320.701 162.646 320.331 162.375 319.854C162.111 319.377 161.979 318.827 161.979 318.204C161.979 317.581 162.114 317.031 162.386 316.554C162.664 316.077 163.042 315.711 163.519 315.454C163.995 315.19 164.527 315.058 165.114 315.058C165.7 315.058 166.232 315.19 166.709 315.454C167.185 315.711 167.559 316.077 167.831 316.554C168.109 317.031 168.249 317.581 168.249 318.204C168.249 318.827 168.106 319.377 167.82 319.854C167.541 320.331 167.16 320.701 166.676 320.965C166.199 321.222 165.664 321.35 165.07 321.35ZM165.07 320.008C165.348 320.008 165.609 319.942 165.851 319.81C166.1 319.671 166.298 319.465 166.445 319.194C166.591 318.923 166.665 318.593 166.665 318.204C166.665 317.625 166.511 317.181 166.203 316.873C165.902 316.558 165.532 316.4 165.092 316.4C164.652 316.4 164.281 316.558 163.981 316.873C163.687 317.181 163.541 317.625 163.541 318.204C163.541 318.783 163.684 319.231 163.97 319.546C164.263 319.854 164.63 320.008 165.07 320.008ZM168.982 318.182C168.982 317.566 169.103 317.02 169.345 316.543C169.595 316.066 169.932 315.7 170.357 315.443C170.783 315.186 171.256 315.058 171.776 315.058C172.172 315.058 172.55 315.146 172.909 315.322C173.269 315.491 173.555 315.718 173.767 316.004V313.111H175.329V321.251H173.767V320.349C173.577 320.65 173.309 320.892 172.964 321.075C172.62 321.258 172.22 321.35 171.765 321.35C171.252 321.35 170.783 321.218 170.357 320.954C169.932 320.69 169.595 320.32 169.345 319.843C169.103 319.359 168.982 318.805 168.982 318.182ZM173.778 318.204C173.778 317.83 173.705 317.511 173.558 317.247C173.412 316.976 173.214 316.77 172.964 316.631C172.715 316.484 172.447 316.411 172.161 316.411C171.875 316.411 171.611 316.481 171.369 316.62C171.127 316.759 170.929 316.965 170.775 317.236C170.629 317.5 170.555 317.815 170.555 318.182C170.555 318.549 170.629 318.871 170.775 319.15C170.929 319.421 171.127 319.63 171.369 319.777C171.619 319.924 171.883 319.997 172.161 319.997C172.447 319.997 172.715 319.927 172.964 319.788C173.214 319.641 173.412 319.436 173.558 319.172C173.705 318.901 173.778 318.578 173.778 318.204ZM176.437 318.182C176.437 317.566 176.558 317.02 176.8 316.543C177.05 316.066 177.383 315.7 177.801 315.443C178.227 315.186 178.7 315.058 179.22 315.058C179.675 315.058 180.071 315.15 180.408 315.333C180.753 315.516 181.028 315.747 181.233 316.026V315.157H182.784V321.251H181.233V320.36C181.035 320.646 180.76 320.884 180.408 321.075C180.064 321.258 179.664 321.35 179.209 321.35C178.696 321.35 178.227 321.218 177.801 320.954C177.383 320.69 177.05 320.32 176.8 319.843C176.558 319.359 176.437 318.805 176.437 318.182ZM181.233 318.204C181.233 317.83 181.16 317.511 181.013 317.247C180.867 316.976 180.669 316.77 180.419 316.631C180.17 316.484 179.902 316.411 179.616 316.411C179.33 316.411 179.066 316.481 178.824 316.62C178.582 316.759 178.384 316.965 178.23 317.236C178.084 317.5 178.01 317.815 178.01 318.182C178.01 318.549 178.084 318.871 178.23 319.15C178.384 319.421 178.582 319.63 178.824 319.777C179.074 319.924 179.338 319.997 179.616 319.997C179.902 319.997 180.17 319.927 180.419 319.788C180.669 319.641 180.867 319.436 181.013 319.172C181.16 318.901 181.233 318.578 181.233 318.204ZM190.118 315.157L186.345 324.133H184.706L186.026 321.097L183.584 315.157H185.311L186.884 319.414L188.479 315.157H190.118ZM191.631 321.328C191.352 321.328 191.121 321.244 190.938 321.075C190.762 320.899 190.674 320.683 190.674 320.426C190.674 320.169 190.762 319.957 190.938 319.788C191.121 319.612 191.352 319.524 191.631 319.524C191.902 319.524 192.126 319.612 192.302 319.788C192.478 319.957 192.566 320.169 192.566 320.426C192.566 320.683 192.478 320.899 192.302 321.075C192.126 321.244 191.902 321.328 191.631 321.328Z" fill="#1D293D"/>
<path d="M196 28.5C196 22.1487 201.149 17 207.5 17H246.953C253.304 17 258.453 22.1487 258.453 28.5C258.453 34.8513 253.304 40 246.953 40H207.5C201.149 40 196 34.8513 196 28.5Z" fill="#1D293D"/>
<path d="M208.083 28.5H213.917" stroke="white" stroke-width="1.25" stroke-linecap="round" stroke-linejoin="round"/>
<path d="M211 25.583V31.4163" stroke="white" stroke-width="1.25" stroke-linecap="round" stroke-linejoin="round"/>
<path d="M226.908 25.02V26.15H225.048V32H223.648V26.15H221.788V25.02H226.908ZM229.329 27.32C229.509 27.0267 229.743 26.7967 230.029 26.63C230.323 26.4633 230.656 26.38 231.029 26.38V27.85H230.659C230.219 27.85 229.886 27.9533 229.659 28.16C229.439 28.3667 229.329 28.7267 229.329 29.24V32H227.929V26.46H229.329V27.32ZM231.612 29.21C231.612 28.65 231.722 28.1533 231.942 27.72C232.169 27.2867 232.472 26.9533 232.852 26.72C233.239 26.4867 233.669 26.37 234.142 26.37C234.556 26.37 234.916 26.4533 235.222 26.62C235.536 26.7867 235.786 26.9967 235.972 27.25V26.46H237.382V32H235.972V31.19C235.792 31.45 235.542 31.6667 235.222 31.84C234.909 32.0067 234.546 32.09 234.132 32.09C233.666 32.09 233.239 31.97 232.852 31.73C232.472 31.49 232.169 31.1533 231.942 30.72C231.722 30.28 231.612 29.7767 231.612 29.21ZM235.972 29.23C235.972 28.89 235.906 28.6 235.772 28.36C235.639 28.1133 235.459 27.9267 235.232 27.8C235.006 27.6667 234.762 27.6 234.502 27.6C234.242 27.6 234.002 27.6633 233.782 27.79C233.562 27.9167 233.382 28.1033 233.242 28.35C233.109 28.59 233.042 28.8767 233.042 29.21C233.042 29.5433 233.109 29.8367 233.242 30.09C233.382 30.3367 233.562 30.5267 233.782 30.66C234.009 30.7933 234.249 30.86 234.502 30.86C234.762 30.86 235.006 30.7967 235.232 30.67C235.459 30.5367 235.639 30.35 235.772 30.11C235.906 29.8633 235.972 29.57 235.972 29.23ZM238.39 29.23C238.39 28.6567 238.506 28.1567 238.74 27.73C238.973 27.2967 239.296 26.9633 239.71 26.73C240.123 26.49 240.596 26.37 241.13 26.37C241.816 26.37 242.383 26.5433 242.83 26.89C243.283 27.23 243.586 27.71 243.74 28.33H242.23C242.15 28.09 242.013 27.9033 241.82 27.77C241.633 27.63 241.4 27.56 241.12 27.56C240.72 27.56 240.403 27.7067 240.17 28C239.936 28.2867 239.82 28.6967 239.82 29.23C239.82 29.7567 239.936 30.1667 240.17 30.46C240.403 30.7467 240.72 30.89 241.12 30.89C241.686 30.89 242.056 30.6367 242.23 30.13H243.74C243.586 30.73 243.283 31.2067 242.83 31.56C242.376 31.9133 241.81 32.09 241.13 32.09C240.596 32.09 240.123 31.9733 239.71 31.74C239.296 31.5 238.973 31.1667 238.74 30.74C238.506 30.3067 238.39 29.8033 238.39 29.23ZM248.045 32L246.165 29.64V32H244.765V24.6H246.165V28.81L248.025 26.46H249.845L247.405 29.24L249.865 32H248.045Z" fill="white"/>
<path d="M35.4554 43.5923V45.1743H31.3814V47.6803H34.5034V49.2343H31.3814V53.3643H29.4214V43.5923H35.4554ZM40.2893 53.4903C39.5426 53.4903 38.8706 53.3269 38.2733 53.0003C37.6759 52.6643 37.2046 52.1929 36.8593 51.5863C36.5233 50.9796 36.3553 50.2796 36.3553 49.4863C36.3553 48.6929 36.5279 47.9929 36.8733 47.3863C37.2279 46.7796 37.7086 46.3129 38.3153 45.9863C38.9219 45.6503 39.5986 45.4823 40.3453 45.4823C41.0919 45.4823 41.7686 45.6503 42.3753 45.9863C42.9819 46.3129 43.4579 46.7796 43.8033 47.3863C44.1579 47.9929 44.3353 48.6929 44.3353 49.4863C44.3353 50.2796 44.1533 50.9796 43.7893 51.5863C43.4346 52.1929 42.9493 52.6643 42.3333 53.0003C41.7266 53.3269 41.0453 53.4903 40.2893 53.4903ZM40.2893 51.7823C40.6439 51.7823 40.9753 51.6983 41.2833 51.5303C41.6006 51.3529 41.8526 51.0916 42.0393 50.7463C42.2259 50.4009 42.3193 49.9809 42.3193 49.4863C42.3193 48.7489 42.1233 48.1843 41.7313 47.7923C41.3486 47.3909 40.8773 47.1903 40.3173 47.1903C39.7573 47.1903 39.2859 47.3909 38.9033 47.7923C38.5299 48.1843 38.3433 48.7489 38.3433 49.4863C38.3433 50.2236 38.5253 50.7929 38.8893 51.1943C39.2626 51.5863 39.7293 51.7823 40.2893 51.7823ZM47.733 46.8123C47.985 46.4016 48.3117 46.0796 48.713 45.8463C49.1237 45.6129 49.5903 45.4963 50.113 45.4963V47.5543H49.595C48.979 47.5543 48.5123 47.6989 48.195 47.9883C47.887 48.2776 47.733 48.7816 47.733 49.5003V53.3643H45.773V45.6083H47.733V46.8123ZM64.4011 45.4963C65.3531 45.4963 66.1184 45.7903 66.6971 46.3783C67.2851 46.9569 67.5791 47.7689 67.5791 48.8143V53.3643H65.6191V49.0803C65.6191 48.4736 65.4651 48.0116 65.1571 47.6943C64.8491 47.3676 64.4291 47.2043 63.8971 47.2043C63.3651 47.2043 62.9404 47.3676 62.6231 47.6943C62.3151 48.0116 62.1611 48.4736 62.1611 49.0803V53.3643H60.2011V49.0803C60.2011 48.4736 60.0471 48.0116 59.7391 47.6943C59.4311 47.3676 59.0111 47.2043 58.4791 47.2043C57.9378 47.2043 57.5084 47.3676 57.1911 47.6943C56.8831 48.0116 56.7291 48.4736 56.7291 49.0803V53.3643H54.7691V45.6083H56.7291V46.5463C56.9811 46.2196 57.3031 45.9629 57.6951 45.7763C58.0964 45.5896 58.5351 45.4963 59.0111 45.4963C59.6178 45.4963 60.1591 45.6269 60.6351 45.8883C61.1111 46.1403 61.4798 46.5043 61.7411 46.9803C61.9931 46.5323 62.3571 46.1729 62.8331 45.9023C63.3184 45.6316 63.8411 45.4963 64.4011 45.4963ZM72.883 53.4903C72.1364 53.4903 71.4644 53.3269 70.867 53.0003C70.2697 52.6643 69.7984 52.1929 69.453 51.5863C69.117 50.9796 68.949 50.2796 68.949 49.4863C68.949 48.6929 69.1217 47.9929 69.467 47.3863C69.8217 46.7796 70.3024 46.3129 70.909 45.9863C71.5157 45.6503 72.1924 45.4823 72.939 45.4823C73.6857 45.4823 74.3624 45.6503 74.969 45.9863C75.5757 46.3129 76.0517 46.7796 76.397 47.3863C76.7517 47.9929 76.929 48.6929 76.929 49.4863C76.929 50.2796 76.747 50.9796 76.383 51.5863C76.0284 52.1929 75.543 52.6643 74.927 53.0003C74.3204 53.3269 73.639 53.4903 72.883 53.4903ZM72.883 51.7823C73.2377 51.7823 73.569 51.6983 73.877 51.5303C74.1944 51.3529 74.4464 51.0916 74.633 50.7463C74.8197 50.4009 74.913 49.9809 74.913 49.4863C74.913 48.7489 74.717 48.1843 74.325 47.7923C73.9424 47.3909 73.471 47.1903 72.911 47.1903C72.351 47.1903 71.8797 47.3909 71.497 47.7923C71.1237 48.1843 70.937 48.7489 70.937 49.4863C70.937 50.2236 71.119 50.7929 71.483 51.1943C71.8564 51.5863 72.323 51.7823 72.883 51.7823ZM80.3268 46.8123C80.5788 46.4016 80.9054 46.0796 81.3068 45.8463C81.7174 45.6129 82.1841 45.4963 82.7068 45.4963V47.5543H82.1888C81.5728 47.5543 81.1061 47.6989 80.7888 47.9883C80.4808 48.2776 80.3268 48.7816 80.3268 49.5003V53.3643H78.3668V45.6083H80.3268V46.8123ZM91.2369 49.3183C91.2369 49.5983 91.2182 49.8503 91.1809 50.0743H85.5109C85.5576 50.6343 85.7536 51.0729 86.0989 51.3903C86.4442 51.7076 86.8689 51.8663 87.3729 51.8663C88.1009 51.8663 88.6189 51.5536 88.9269 50.9283H91.0409C90.8169 51.6749 90.3876 52.2909 89.7529 52.7763C89.1182 53.2523 88.3389 53.4903 87.4149 53.4903C86.6682 53.4903 85.9962 53.3269 85.3989 53.0003C84.8109 52.6643 84.3489 52.1929 84.0129 51.5863C83.6862 50.9796 83.5229 50.2796 83.5229 49.4863C83.5229 48.6836 83.6862 47.9789 84.0129 47.3723C84.3396 46.7656 84.7969 46.2989 85.3849 45.9723C85.9729 45.6456 86.6496 45.4823 87.4149 45.4823C88.1522 45.4823 88.8102 45.6409 89.3889 45.9583C89.9769 46.2756 90.4296 46.7283 90.7469 47.3163C91.0736 47.8949 91.2369 48.5623 91.2369 49.3183ZM89.2069 48.7583C89.1976 48.2543 89.0156 47.8529 88.6609 47.5543C88.3062 47.2463 87.8722 47.0923 87.3589 47.0923C86.8736 47.0923 86.4629 47.2416 86.1269 47.5403C85.8002 47.8296 85.5996 48.2356 85.5249 48.7583H89.2069ZM104.109 43.5923V53.3643H102.149V49.2063H97.9635V53.3643H96.0035V43.5923H97.9635V47.6103H102.149V43.5923H104.109ZM113.249 49.3183C113.249 49.5983 113.23 49.8503 113.193 50.0743H107.523C107.569 50.6343 107.765 51.0729 108.111 51.3903C108.456 51.7076 108.881 51.8663 109.385 51.8663C110.113 51.8663 110.631 51.5536 110.939 50.9283H113.053C112.829 51.6749 112.399 52.2909 111.765 52.7763C111.13 53.2523 110.351 53.4903 109.427 53.4903C108.68 53.4903 108.008 53.3269 107.411 53.0003C106.823 52.6643 106.361 52.1929 106.025 51.5863C105.698 50.9796 105.535 50.2796 105.535 49.4863C105.535 48.6836 105.698 47.9789 106.025 47.3723C106.351 46.7656 106.809 46.2989 107.397 45.9723C107.985 45.6456 108.661 45.4823 109.427 45.4823C110.164 45.4823 110.822 45.6409 111.401 45.9583C111.989 46.2756 112.441 46.7283 112.759 47.3163C113.085 47.8949 113.249 48.5623 113.249 49.3183ZM111.219 48.7583C111.209 48.2543 111.027 47.8529 110.673 47.5543C110.318 47.2463 109.884 47.0923 109.371 47.0923C108.885 47.0923 108.475 47.2416 108.139 47.5403C107.812 47.8296 107.611 48.2356 107.537 48.7583H111.219ZM114.175 49.4583C114.175 48.6743 114.329 47.9789 114.637 47.3723C114.955 46.7656 115.379 46.2989 115.911 45.9723C116.453 45.6456 117.055 45.4823 117.717 45.4823C118.296 45.4823 118.8 45.5989 119.229 45.8323C119.668 46.0656 120.018 46.3596 120.279 46.7143V45.6083H122.253V53.3643H120.279V52.2303C120.027 52.5943 119.677 52.8976 119.229 53.1403C118.791 53.3736 118.282 53.4903 117.703 53.4903C117.05 53.4903 116.453 53.3223 115.911 52.9863C115.379 52.6503 114.955 52.1789 114.637 51.5723C114.329 50.9563 114.175 50.2516 114.175 49.4583ZM120.279 49.4863C120.279 49.0103 120.186 48.6043 119.999 48.2683C119.813 47.9229 119.561 47.6616 119.243 47.4843C118.926 47.2976 118.585 47.2043 118.221 47.2043C117.857 47.2043 117.521 47.2929 117.213 47.4703C116.905 47.6476 116.653 47.9089 116.457 48.2543C116.271 48.5903 116.177 48.9916 116.177 49.4583C116.177 49.9249 116.271 50.3356 116.457 50.6903C116.653 51.0356 116.905 51.3016 117.213 51.4883C117.531 51.6749 117.867 51.7683 118.221 51.7683C118.585 51.7683 118.926 51.6796 119.243 51.5023C119.561 51.3156 119.813 51.0543 119.999 50.7183C120.186 50.3729 120.279 49.9623 120.279 49.4863ZM126.128 43.0043V53.3643H124.168V43.0043H126.128ZM130.346 47.2183V50.9703C130.346 51.2316 130.407 51.4229 130.528 51.5443C130.659 51.6563 130.873 51.7123 131.172 51.7123H132.082V53.3643H130.85C129.198 53.3643 128.372 52.5616 128.372 50.9563V47.2183H127.448V45.6083H128.372V43.6903H130.346V45.6083H132.082V47.2183H130.346ZM137.86 45.4963C138.448 45.4963 138.97 45.6269 139.428 45.8883C139.885 46.1403 140.24 46.5183 140.492 47.0223C140.753 47.5169 140.884 48.1143 140.884 48.8143V53.3643H138.924V49.0803C138.924 48.4643 138.77 47.9929 138.462 47.6663C138.154 47.3303 137.734 47.1623 137.202 47.1623C136.66 47.1623 136.231 47.3303 135.914 47.6663C135.606 47.9929 135.452 48.4643 135.452 49.0803V53.3643H133.492V43.0043H135.452V46.5743C135.704 46.2383 136.04 45.9769 136.46 45.7903C136.88 45.5943 137.346 45.4963 137.86 45.4963ZM150.168 45.6083L145.366 57.0323H143.28L144.96 53.1683L141.852 45.6083H144.05L146.052 51.0263L148.082 45.6083H150.168ZM156.52 51.8103H159.74V53.3643H154.56V43.5923H156.52V51.8103ZM161.98 44.6843C161.635 44.6843 161.345 44.5769 161.112 44.3623C160.888 44.1383 160.776 43.8629 160.776 43.5363C160.776 43.2096 160.888 42.9389 161.112 42.7243C161.345 42.5003 161.635 42.3883 161.98 42.3883C162.325 42.3883 162.61 42.5003 162.834 42.7243C163.067 42.9389 163.184 43.2096 163.184 43.5363C163.184 43.8629 163.067 44.1383 162.834 44.3623C162.61 44.5769 162.325 44.6843 161.98 44.6843ZM162.946 45.6083V53.3643H160.986V45.6083H162.946ZM168.438 47.2183H167.08V53.3643H165.092V47.2183H164.21V45.6083H165.092V45.2163C165.092 44.2643 165.363 43.5643 165.904 43.1163C166.446 42.6683 167.262 42.4583 168.354 42.4863V44.1383C167.878 44.1289 167.547 44.2083 167.36 44.3763C167.174 44.5443 167.08 44.8476 167.08 45.2863V45.6083H168.438V47.2183ZM176.919 49.3183C176.919 49.5983 176.9 49.8503 176.863 50.0743H171.193C171.239 50.6343 171.435 51.0729 171.781 51.3903C172.126 51.7076 172.551 51.8663 173.055 51.8663C173.783 51.8663 174.301 51.5536 174.609 50.9283H176.723C176.499 51.6749 176.069 52.2909 175.435 52.7763C174.8 53.2523 174.021 53.4903 173.097 53.4903C172.35 53.4903 171.678 53.3269 171.081 53.0003C170.493 52.6643 170.031 52.1929 169.695 51.5863C169.368 50.9796 169.205 50.2796 169.205 49.4863C169.205 48.6836 169.368 47.9789 169.695 47.3723C170.021 46.7656 170.479 46.2989 171.067 45.9723C171.655 45.6456 172.331 45.4823 173.097 45.4823C173.834 45.4823 174.492 45.6409 175.071 45.9583C175.659 46.2756 176.111 46.7283 176.429 47.3163C176.755 47.8949 176.919 48.5623 176.919 49.3183ZM174.889 48.7583C174.879 48.2543 174.697 47.8529 174.343 47.5543C173.988 47.2463 173.554 47.0923 173.041 47.0923C172.555 47.0923 172.145 47.2416 171.809 47.5403C171.482 47.8296 171.281 48.2356 171.207 48.7583H174.889Z" fill="white"/>
<defs>
<filter id="filter1_i_334_159" x="29.9998" y="219.5" width="206" height="12" filterUnits="userSpaceOnUse" color-interpolation-filters="sRGB">
<feFlood flood-opacity="0" result="BackgroundImageFix"/>
<feBlend mode="normal" in="SourceGraphic" in2="BackgroundImageFix" result="shape"/>
<feColorMatrix in="SourceAlpha" type="matrix" values="0 0 0 0 0 0 0 0 0 0 0 0 0 0 0 0 0 0 127 0" result="hardAlpha"/>
<feOffset dy="2"/>
<feGaussianBlur stdDeviation="2"/>
<feComposite in2="hardAlpha" operator="arithmetic" k2="-1" k3="1"/>
<feColorMatrix type="matrix" values="0 0 0 0 0 0 0 0 0 0 0 0 0 0 0 0 0 0 0.05 0"/>
<feBlend mode="normal" in2="shape" result="effect1_innerShadow_334_159"/>
</filter>
<clipPath id="clip0_334_159">
<path d="M29.9998 224.5C29.9998 221.739 32.2384 219.5 34.9998 219.5H231C233.761 219.5 236 221.739 236 224.5C236 227.261 233.761 229.5 231 229.5H34.9998C32.2384 229.5 29.9998 227.261 29.9998 224.5Z" fill="white"/>
</clipPath>
<clipPath id="clip1_334_159">
<rect width="14" height="14" fill="white" transform="translate(52.0002 305.001)"/>
</clipPath>
</defs>
</svg>
