<svg width="243" height="269" viewBox="0 0 243 269" fill="none" xmlns="http://www.w3.org/2000/svg">
<path d="M0 9.99999C0 4.47715 4.47715 0 10 0H233C238.523 0 243 4.47715 243 10V259C243 264.523 238.523 269 233 269H9.99999C4.47715 269 0 264.523 0 259V9.99999Z" fill="#D9D9D9" fill-opacity="0.2"/>
<path d="M23.2248 25.6782C24.2514 25.6782 25.1521 25.8789 25.9268 26.2802C26.7108 26.6815 27.3128 27.2555 27.7328 28.0022C28.1621 28.7395 28.3768 29.5982 28.3768 30.5782C28.3768 31.5582 28.1621 32.4169 27.7328 33.1542C27.3128 33.8822 26.7108 34.4469 25.9268 34.8482C25.1521 35.2495 24.2514 35.4502 23.2248 35.4502H19.8088V25.6782H23.2248ZM23.1548 33.7842C24.1814 33.7842 24.9748 33.5042 25.5348 32.9442C26.0948 32.3842 26.3748 31.5955 26.3748 30.5782C26.3748 29.5609 26.0948 28.7675 25.5348 28.1982C24.9748 27.6195 24.1814 27.3302 23.1548 27.3302H21.7688V33.7842H23.1548ZM30.1054 26.7702C29.76 26.7702 29.4707 26.6629 29.2374 26.4482C29.0134 26.2242 28.9014 25.9489 28.9014 25.6222C28.9014 25.2955 29.0134 25.0249 29.2374 24.8102C29.4707 24.5862 29.76 24.4742 30.1054 24.4742C30.4507 24.4742 30.7354 24.5862 30.9594 24.8102C31.1927 25.0249 31.3094 25.2955 31.3094 25.6222C31.3094 25.9489 31.1927 26.2242 30.9594 26.4482C30.7354 26.6629 30.4507 26.7702 30.1054 26.7702ZM31.0714 27.6942V35.4502H29.1114V27.6942H31.0714ZM31.7713 31.5442C31.7713 30.7602 31.9253 30.0649 32.2333 29.4582C32.5507 28.8515 32.9753 28.3849 33.5073 28.0582C34.0487 27.7315 34.6507 27.5682 35.3133 27.5682C35.892 27.5682 36.396 27.6849 36.8253 27.9182C37.264 28.1515 37.614 28.4455 37.8753 28.8002V27.6942H39.8493V35.4502H37.8753V34.3162C37.6233 34.6802 37.2733 34.9835 36.8253 35.2262C36.3867 35.4595 35.878 35.5762 35.2993 35.5762C34.646 35.5762 34.0487 35.4082 33.5073 35.0722C32.9753 34.7362 32.5507 34.2649 32.2333 33.6582C31.9253 33.0422 31.7713 32.3375 31.7713 31.5442ZM37.8753 31.5722C37.8753 31.0962 37.782 30.6902 37.5953 30.3542C37.4087 30.0089 37.1567 29.7475 36.8393 29.5702C36.522 29.3835 36.1813 29.2902 35.8173 29.2902C35.4533 29.2902 35.1173 29.3789 34.8093 29.5562C34.5013 29.7335 34.2493 29.9949 34.0533 30.3402C33.8667 30.6762 33.7733 31.0775 33.7733 31.5442C33.7733 32.0109 33.8667 32.4215 34.0533 32.7762C34.2493 33.1215 34.5013 33.3875 34.8093 33.5742C35.1267 33.7609 35.4627 33.8542 35.8173 33.8542C36.1813 33.8542 36.522 33.7655 36.8393 33.5882C37.1567 33.4015 37.4087 33.1402 37.5953 32.8042C37.782 32.4589 37.8753 32.0482 37.8753 31.5722ZM42.9911 28.8282C43.2431 28.4549 43.5884 28.1515 44.0271 27.9182C44.4751 27.6849 44.9837 27.5682 45.5531 27.5682C46.2157 27.5682 46.8131 27.7315 47.3451 28.0582C47.8864 28.3849 48.3111 28.8515 48.6191 29.4582C48.9364 30.0555 49.0951 30.7509 49.0951 31.5442C49.0951 32.3375 48.9364 33.0422 48.6191 33.6582C48.3111 34.2649 47.8864 34.7362 47.3451 35.0722C46.8131 35.4082 46.2157 35.5762 45.5531 35.5762C44.9744 35.5762 44.4657 35.4642 44.0271 35.2402C43.5977 35.0069 43.2524 34.7082 42.9911 34.3442V35.4502H41.0311V25.0902H42.9911V28.8282ZM47.0931 31.5442C47.0931 31.0775 46.9951 30.6762 46.7991 30.3402C46.6124 29.9949 46.3604 29.7335 46.0431 29.5562C45.7351 29.3789 45.3991 29.2902 45.0351 29.2902C44.6804 29.2902 44.3444 29.3835 44.0271 29.5702C43.7191 29.7475 43.4671 30.0089 43.2711 30.3542C43.0844 30.6995 42.9911 31.1055 42.9911 31.5722C42.9911 32.0389 43.0844 32.4449 43.2711 32.7902C43.4671 33.1355 43.7191 33.4015 44.0271 33.5882C44.3444 33.7655 44.6804 33.8542 45.0351 33.8542C45.3991 33.8542 45.7351 33.7609 46.0431 33.5742C46.3604 33.3875 46.6124 33.1215 46.7991 32.7762C46.9951 32.4309 47.0931 32.0202 47.0931 31.5442ZM56.9968 31.4042C56.9968 31.6842 56.9781 31.9362 56.9408 32.1602H51.2708C51.3174 32.7202 51.5134 33.1589 51.8588 33.4762C52.2041 33.7935 52.6288 33.9522 53.1328 33.9522C53.8608 33.9522 54.3788 33.6395 54.6868 33.0142H56.8008C56.5768 33.7609 56.1474 34.3769 55.5128 34.8622C54.8781 35.3382 54.0988 35.5762 53.1748 35.5762C52.4281 35.5762 51.7561 35.4129 51.1588 35.0862C50.5708 34.7502 50.1088 34.2789 49.7728 33.6722C49.4461 33.0655 49.2828 32.3655 49.2828 31.5722C49.2828 30.7695 49.4461 30.0649 49.7728 29.4582C50.0994 28.8515 50.5568 28.3849 51.1448 28.0582C51.7328 27.7315 52.4094 27.5682 53.1748 27.5682C53.9121 27.5682 54.5701 27.7269 55.1488 28.0442C55.7368 28.3615 56.1894 28.8142 56.5068 29.4022C56.8334 29.9809 56.9968 30.6482 56.9968 31.4042ZM54.9668 30.8442C54.9574 30.3402 54.7754 29.9389 54.4208 29.6402C54.0661 29.3322 53.6321 29.1782 53.1188 29.1782C52.6334 29.1782 52.2228 29.3275 51.8868 29.6262C51.5601 29.9155 51.3594 30.3215 51.2848 30.8442H54.9668ZM59.9769 29.3042V33.0562C59.9769 33.3175 60.0375 33.5089 60.1589 33.6302C60.2895 33.7422 60.5042 33.7982 60.8029 33.7982H61.7129V35.4502H60.4809C58.8289 35.4502 58.0029 34.6475 58.0029 33.0422V29.3042H57.0789V27.6942H58.0029V25.7762H59.9769V27.6942H61.7129V29.3042H59.9769ZM69.6 31.4042C69.6 31.6842 69.5814 31.9362 69.544 32.1602H63.874C63.9207 32.7202 64.1167 33.1589 64.462 33.4762C64.8074 33.7935 65.232 33.9522 65.736 33.9522C66.464 33.9522 66.982 33.6395 67.29 33.0142H69.404C69.18 33.7609 68.7507 34.3769 68.116 34.8622C67.4814 35.3382 66.702 35.5762 65.778 35.5762C65.0314 35.5762 64.3594 35.4129 63.762 35.0862C63.174 34.7502 62.712 34.2789 62.376 33.6722C62.0494 33.0655 61.886 32.3655 61.886 31.5722C61.886 30.7695 62.0494 30.0649 62.376 29.4582C62.7027 28.8515 63.16 28.3849 63.748 28.0582C64.336 27.7315 65.0127 27.5682 65.778 27.5682C66.5154 27.5682 67.1734 27.7269 67.752 28.0442C68.34 28.3615 68.7927 28.8142 69.11 29.4022C69.4367 29.9809 69.6 30.6482 69.6 31.4042ZM67.57 30.8442C67.5607 30.3402 67.3787 29.9389 67.024 29.6402C66.6694 29.3322 66.2354 29.1782 65.722 29.1782C65.2367 29.1782 64.826 29.3275 64.49 29.6262C64.1634 29.9155 63.9627 30.3215 63.888 30.8442H67.57ZM73.2661 35.5762C72.6315 35.5762 72.0621 35.4642 71.5581 35.2402C71.0541 35.0069 70.6528 34.6942 70.3541 34.3022C70.0648 33.9102 69.9061 33.4762 69.8781 33.0002H71.8521C71.8895 33.2989 72.0341 33.5462 72.2861 33.7422C72.5475 33.9382 72.8695 34.0362 73.2521 34.0362C73.6255 34.0362 73.9148 33.9615 74.1201 33.8122C74.3348 33.6629 74.4421 33.4715 74.4421 33.2382C74.4421 32.9862 74.3115 32.7995 74.0501 32.6782C73.7981 32.5475 73.3921 32.4075 72.8321 32.2582C72.2535 32.1182 71.7775 31.9735 71.4041 31.8242C71.0401 31.6749 70.7228 31.4462 70.4521 31.1382C70.1908 30.8302 70.0601 30.4149 70.0601 29.8922C70.0601 29.4629 70.1815 29.0709 70.4241 28.7162C70.6761 28.3615 71.0308 28.0815 71.4881 27.8762C71.9548 27.6709 72.5008 27.5682 73.1261 27.5682C74.0501 27.5682 74.7875 27.8015 75.3381 28.2682C75.8888 28.7255 76.1921 29.3462 76.2481 30.1302H74.3721C74.3441 29.8222 74.2135 29.5795 73.9801 29.4022C73.7561 29.2155 73.4528 29.1222 73.0701 29.1222C72.7155 29.1222 72.4401 29.1875 72.2441 29.3182C72.0575 29.4489 71.9641 29.6309 71.9641 29.8642C71.9641 30.1255 72.0948 30.3262 72.3561 30.4662C72.6175 30.5969 73.0235 30.7322 73.5741 30.8722C74.1341 31.0122 74.5961 31.1569 74.9601 31.3062C75.3241 31.4555 75.6368 31.6889 75.8981 32.0062C76.1688 32.3142 76.3088 32.7249 76.3181 33.2382C76.3181 33.6862 76.1921 34.0875 75.9401 34.4422C75.6975 34.7969 75.3428 35.0769 74.8761 35.2822C74.4188 35.4782 73.8821 35.5762 73.2661 35.5762ZM81.7579 33.8962H84.9779V35.4502H79.7979V25.6782H81.7579V33.8962ZM88.9351 35.5762C88.1884 35.5762 87.5164 35.4129 86.9191 35.0862C86.3218 34.7502 85.8504 34.2789 85.5051 33.6722C85.1691 33.0655 85.0011 32.3655 85.0011 31.5722C85.0011 30.7789 85.1738 30.0789 85.5191 29.4722C85.8738 28.8655 86.3544 28.3989 86.9611 28.0722C87.5678 27.7362 88.2444 27.5682 88.9911 27.5682C89.7378 27.5682 90.4144 27.7362 91.0211 28.0722C91.6278 28.3989 92.1038 28.8655 92.4491 29.4722C92.8038 30.0789 92.9811 30.7789 92.9811 31.5722C92.9811 32.3655 92.7991 33.0655 92.4351 33.6722C92.0804 34.2789 91.5951 34.7502 90.9791 35.0862C90.3724 35.4129 89.6911 35.5762 88.9351 35.5762ZM88.9351 33.8682C89.2898 33.8682 89.6211 33.7842 89.9291 33.6162C90.2464 33.4389 90.4984 33.1775 90.6851 32.8322C90.8718 32.4869 90.9651 32.0669 90.9651 31.5722C90.9651 30.8349 90.7691 30.2702 90.3771 29.8782C89.9944 29.4769 89.5231 29.2762 88.9631 29.2762C88.4031 29.2762 87.9318 29.4769 87.5491 29.8782C87.1758 30.2702 86.9891 30.8349 86.9891 31.5722C86.9891 32.3095 87.1711 32.8789 87.5351 33.2802C87.9084 33.6722 88.3751 33.8682 88.9351 33.8682ZM96.7243 27.5682C97.303 27.5682 97.8116 27.6849 98.2503 27.9182C98.689 28.1422 99.0343 28.4362 99.2863 28.8002V27.6942H101.26V35.5062C101.26 36.2249 101.116 36.8642 100.826 37.4242C100.537 37.9935 100.103 38.4415 99.5243 38.7682C98.9456 39.1042 98.2456 39.2722 97.4243 39.2722C96.323 39.2722 95.4176 39.0155 94.7083 38.5022C94.0083 37.9889 93.6116 37.2889 93.5183 36.4022H95.4643C95.567 36.7569 95.7863 37.0369 96.1223 37.2422C96.4676 37.4569 96.883 37.5642 97.3683 37.5642C97.9376 37.5642 98.3996 37.3915 98.7543 37.0462C99.109 36.7102 99.2863 36.1969 99.2863 35.5062V34.3022C99.0343 34.6662 98.6843 34.9695 98.2363 35.2122C97.7976 35.4549 97.2936 35.5762 96.7243 35.5762C96.071 35.5762 95.4736 35.4082 94.9323 35.0722C94.391 34.7362 93.9616 34.2649 93.6443 33.6582C93.3363 33.0422 93.1823 32.3375 93.1823 31.5442C93.1823 30.7602 93.3363 30.0649 93.6443 29.4582C93.9616 28.8515 94.3863 28.3849 94.9183 28.0582C95.4596 27.7315 96.0616 27.5682 96.7243 27.5682ZM99.2863 31.5722C99.2863 31.0962 99.193 30.6902 99.0063 30.3542C98.8196 30.0089 98.5676 29.7475 98.2503 29.5702C97.933 29.3835 97.5923 29.2902 97.2283 29.2902C96.8643 29.2902 96.5283 29.3789 96.2203 29.5562C95.9123 29.7335 95.6603 29.9949 95.4643 30.3402C95.2776 30.6762 95.1843 31.0775 95.1843 31.5442C95.1843 32.0109 95.2776 32.4215 95.4643 32.7762C95.6603 33.1215 95.9123 33.3875 96.2203 33.5742C96.5376 33.7609 96.8736 33.8542 97.2283 33.8542C97.5923 33.8542 97.933 33.7655 98.2503 33.5882C98.5676 33.4015 98.8196 33.1402 99.0063 32.8042C99.193 32.4589 99.2863 32.0482 99.2863 31.5722Z" fill="#F5F6F7"/>
<path d="M16.2891 76.5041C16.2891 70.8328 20.8865 66.2354 26.5578 66.2354H104.087C109.758 66.2354 114.356 70.8328 114.356 76.5041V96.0148C114.356 101.686 109.758 106.284 104.087 106.284H26.5578C20.8865 106.284 16.2891 101.686 16.2891 96.0148V76.5041Z" fill="#949494" fill-opacity="0.7"/>
<path d="M27.5691 80.281H26.1418L25.9056 80.9639H25.1508L26.4396 77.3749H27.2765L28.5652 80.9639H27.8053L27.5691 80.281ZM27.374 79.7059L26.8554 78.2067L26.3369 79.7059H27.374ZM32.5229 77.3801L31.2085 80.9639H30.3356L29.0212 77.3801H29.7914L30.7772 80.2296L31.7579 77.3801H32.5229ZM35.7059 78.4583C35.6237 78.3077 35.5108 78.193 35.367 78.1143C35.2233 78.0356 35.0555 77.9962 34.8638 77.9962C34.6516 77.9962 34.4634 78.0441 34.2991 78.14C34.1348 78.2358 34.0064 78.3727 33.914 78.5507C33.8216 78.7287 33.7754 78.9341 33.7754 79.1668C33.7754 79.4064 33.8216 79.6152 33.914 79.7932C34.0098 79.9712 34.1416 80.1081 34.3093 80.204C34.4771 80.2998 34.6722 80.3477 34.8947 80.3477C35.1685 80.3477 35.3927 80.2759 35.5673 80.1321C35.7418 79.9849 35.8565 79.7812 35.9113 79.5211H34.679V78.9717H36.6198V79.5981C36.5719 79.848 36.4692 80.079 36.3117 80.2913C36.1543 80.5035 35.9506 80.6746 35.7008 80.8047C35.4543 80.9313 35.177 80.9947 34.869 80.9947C34.5233 80.9947 34.2101 80.9177 33.9294 80.7636C33.6521 80.6062 33.4331 80.3888 33.2722 80.1116C33.1147 79.8343 33.036 79.5194 33.036 79.1668C33.036 78.8143 33.1147 78.4994 33.2722 78.2221C33.4331 77.9414 33.6521 77.7241 33.9294 77.57C34.2101 77.4126 34.5216 77.3339 34.8638 77.3339C35.2678 77.3339 35.6186 77.4331 35.9164 77.6316C36.2142 77.8268 36.4196 78.1023 36.5325 78.4583H35.7059ZM41.1014 77.3801V77.9603H39.6073V78.8793H40.7523V79.4492H39.6073V80.9639H38.8885V77.3801H41.1014ZM44.0654 80.281H42.638L42.4018 80.9639H41.6471L42.9358 77.3749H43.7727L45.0614 80.9639H44.3015L44.0654 80.281ZM43.8702 79.7059L43.3517 78.2067L42.8331 79.7059H43.8702ZM47.0372 80.9998C46.7874 80.9998 46.5615 80.957 46.3595 80.8714C46.161 80.7859 46.0035 80.6626 45.8871 80.5018C45.7708 80.3409 45.7109 80.1509 45.7074 79.9319H46.4776C46.4879 80.079 46.5392 80.1954 46.6316 80.281C46.7275 80.3666 46.8575 80.4094 47.0218 80.4094C47.1896 80.4094 47.3213 80.37 47.4172 80.2913C47.513 80.2091 47.5609 80.103 47.5609 79.9729C47.5609 79.8668 47.5284 79.7795 47.4634 79.7111C47.3984 79.6426 47.3162 79.5896 47.2169 79.5519C47.1211 79.5108 46.9876 79.4663 46.8165 79.4184C46.5837 79.35 46.3937 79.2832 46.2465 79.2182C46.1028 79.1497 45.9778 79.0487 45.8717 78.9152C45.769 78.7783 45.7177 78.5969 45.7177 78.371C45.7177 78.1588 45.7708 77.9739 45.8769 77.8165C45.983 77.659 46.1319 77.5392 46.3236 77.4571C46.5152 77.3715 46.7343 77.3287 46.9808 77.3287C47.3504 77.3287 47.6499 77.4194 47.8793 77.6008C48.112 77.7788 48.2404 78.0287 48.2644 78.3505H47.4737C47.4668 78.2272 47.4138 78.1263 47.3145 78.0475C47.2187 77.9654 47.0903 77.9243 46.9294 77.9243C46.7891 77.9243 46.6761 77.9603 46.5905 78.0321C46.5084 78.104 46.4673 78.2084 46.4673 78.3453C46.4673 78.4412 46.4981 78.5216 46.5597 78.5866C46.6248 78.6483 46.7035 78.6996 46.7959 78.7407C46.8918 78.7783 47.0253 78.8228 47.1964 78.8742C47.4292 78.9426 47.6191 79.0111 47.7663 79.0795C47.9135 79.148 48.0402 79.2507 48.1463 79.3876C48.2524 79.5245 48.3054 79.7042 48.3054 79.9267C48.3054 80.1184 48.2558 80.2964 48.1565 80.4607C48.0573 80.625 47.9118 80.7568 47.7201 80.856C47.5284 80.9519 47.3008 80.9998 47.0372 80.9998ZM51.6242 77.3801V77.9603H50.6692V80.9639H49.9504V77.9603H48.9954V77.3801H51.6242ZM53.1242 77.3801V80.9639H52.4054V77.3801H53.1242ZM57.1563 80.9639H56.4375L54.8099 78.5045V80.9639H54.0911V77.3749H54.8099L56.4375 79.8394V77.3749H57.1563V80.9639ZM60.6187 78.4583C60.5365 78.3077 60.4236 78.193 60.2798 78.1143C60.1361 78.0356 59.9683 77.9962 59.7767 77.9962C59.5644 77.9962 59.3762 78.0441 59.2119 78.14C59.0476 78.2358 58.9192 78.3727 58.8268 78.5507C58.7344 78.7287 58.6882 78.9341 58.6882 79.1668C58.6882 79.4064 58.7344 79.6152 58.8268 79.7932C58.9226 79.9712 59.0544 80.1081 59.2221 80.204C59.3899 80.2998 59.585 80.3477 59.8075 80.3477C60.0813 80.3477 60.3055 80.2759 60.4801 80.1321C60.6546 79.9849 60.7693 79.7812 60.8241 79.5211H59.5918V78.9717H61.5326V79.5981C61.4847 79.848 61.382 80.079 61.2246 80.2913C61.0671 80.5035 60.8634 80.6746 60.6136 80.8047C60.3671 80.9313 60.0899 80.9947 59.7818 80.9947C59.4361 80.9947 59.1229 80.9177 58.8422 80.7636C58.5649 80.6062 58.3459 80.3888 58.185 80.1116C58.0275 79.8343 57.9488 79.5194 57.9488 79.1668C57.9488 78.8143 58.0275 78.4994 58.185 78.2221C58.3459 77.9414 58.5649 77.7241 58.8422 77.57C59.1229 77.4126 59.4344 77.3339 59.7767 77.3339C60.1806 77.3339 60.5314 77.4331 60.8292 77.6316C61.127 77.8268 61.3324 78.1023 61.4453 78.4583H60.6187Z" fill="#E1E1E1"/>
<path d="M25.4605 87.8389V86.2493H28.4302V95.2324H26.6557V87.8389H25.4605ZM30.1345 90.6238C30.1345 89.2026 30.3891 88.0895 30.8984 87.2844C31.416 86.4793 32.2704 86.0768 33.4615 86.0768C34.6527 86.0768 35.503 86.4793 36.0123 87.2844C36.5298 88.0895 36.7886 89.2026 36.7886 90.6238C36.7886 92.0532 36.5298 93.1746 36.0123 93.9878C35.503 94.8011 34.6527 95.2078 33.4615 95.2078C32.2704 95.2078 31.416 94.8011 30.8984 93.9878C30.3891 93.1746 30.1345 92.0532 30.1345 90.6238ZM35.0881 90.6238C35.0881 90.0159 35.047 89.5066 34.9649 89.0958C34.8909 88.6768 34.7349 88.3359 34.4966 88.073C34.2666 87.8102 33.9216 87.6787 33.4615 87.6787C33.0015 87.6787 32.6524 87.8102 32.4141 88.073C32.1841 88.3359 32.028 88.6768 31.9459 89.0958C31.8719 89.5066 31.835 90.0159 31.835 90.6238C31.835 91.2481 31.8719 91.7739 31.9459 92.2011C32.0198 92.62 32.1759 92.961 32.4141 93.2238C32.6524 93.4785 33.0015 93.6058 33.4615 93.6058C33.9216 93.6058 34.2707 93.4785 34.5089 93.2238C34.7472 92.961 34.9033 92.62 34.9772 92.2011C35.0511 91.7739 35.0881 91.2481 35.0881 90.6238ZM38.643 93.2855C39.4316 92.6283 40.0601 92.082 40.5283 91.6466C40.9966 91.203 41.3868 90.7429 41.699 90.2664C42.0111 89.79 42.1672 89.3217 42.1672 88.8617C42.1672 88.4427 42.0686 88.1141 41.8715 87.8759C41.6743 87.6376 41.3704 87.5185 40.9596 87.5185C40.5488 87.5185 40.2326 87.6582 40.0108 87.9375C39.789 88.2086 39.674 88.5824 39.6657 89.0588H37.9899C38.0227 88.073 38.3144 87.3255 38.8648 86.8161C39.4234 86.3068 40.1299 86.0521 40.9842 86.0521C41.9208 86.0521 42.6396 86.3027 43.1407 86.8038C43.6418 87.2967 43.8924 87.9498 43.8924 88.7631C43.8924 89.4039 43.7198 90.0159 43.3748 90.5992C43.0298 91.1824 42.6355 91.6917 42.1919 92.1271C41.7482 92.5543 41.1691 93.0719 40.4544 93.6798H44.0895V95.1092H38.0022V93.8277L38.643 93.2855Z" fill="#69A38D"/>
<path d="M51.2294 91.8508C51.6484 91.8508 51.9852 91.9802 52.2398 92.239C52.4986 92.4937 52.628 92.851 52.628 93.3111V95.3135H51.7654V93.4281C51.7654 93.1611 51.6976 92.9578 51.5621 92.8182C51.4265 92.6744 51.2417 92.6025 51.0076 92.6025C50.7735 92.6025 50.5866 92.6744 50.4469 92.8182C50.3114 92.9578 50.2436 93.1611 50.2436 93.4281V95.3135H49.381V93.4281C49.381 93.1611 49.3132 92.9578 49.1777 92.8182C49.0421 92.6744 48.8573 92.6025 48.6232 92.6025C48.3849 92.6025 48.196 92.6744 48.0563 92.8182C47.9208 92.9578 47.853 93.1611 47.853 93.4281V95.3135H46.9904V91.9001H47.853V92.3129C47.9639 92.1692 48.1056 92.0562 48.2781 91.9741C48.4548 91.8919 48.6478 91.8508 48.8573 91.8508C49.1243 91.8508 49.3625 91.9084 49.572 92.0234C49.7815 92.1343 49.9437 92.2945 50.0587 92.5039C50.1696 92.3068 50.3298 92.1486 50.5393 92.0295C50.7529 91.9104 50.9829 91.8508 51.2294 91.8508ZM54.7835 91.8447C55.0382 91.8447 55.262 91.896 55.4551 91.9987C55.6482 92.0973 55.8001 92.2267 55.911 92.3869V91.9001H56.7798V95.3381C56.7798 95.6544 56.7161 95.9358 56.5888 96.1822C56.4614 96.4328 56.2704 96.6299 56.0158 96.7737C55.7611 96.9216 55.453 96.9955 55.0916 96.9955C54.6069 96.9955 54.2085 96.8825 53.8963 96.6566C53.5882 96.4307 53.4137 96.1227 53.3726 95.7324H54.229C54.2742 95.8885 54.3707 96.0118 54.5186 96.1021C54.6706 96.1966 54.8533 96.2438 55.0669 96.2438C55.3175 96.2438 55.5208 96.1678 55.6769 96.0159C55.833 95.868 55.911 95.6421 55.911 95.3381V94.8083C55.8001 94.9684 55.6461 95.1019 55.4489 95.2087C55.2559 95.3155 55.0341 95.3689 54.7835 95.3689C54.496 95.3689 54.2331 95.295 53.9949 95.1471C53.7566 94.9993 53.5677 94.7918 53.428 94.5248C53.2925 94.2537 53.2247 93.9436 53.2247 93.5945C53.2247 93.2495 53.2925 92.9434 53.428 92.6765C53.5677 92.4095 53.7546 92.2041 53.9887 92.0603C54.227 91.9166 54.4919 91.8447 54.7835 91.8447ZM55.911 93.6068C55.911 93.3973 55.87 93.2186 55.7878 93.0708C55.7057 92.9188 55.5948 92.8038 55.4551 92.7257C55.3154 92.6436 55.1655 92.6025 55.0053 92.6025C54.8451 92.6025 54.6973 92.6415 54.5617 92.7196C54.4262 92.7976 54.3153 92.9126 54.229 93.0646C54.1469 93.2125 54.1058 93.3891 54.1058 93.5945C54.1058 93.7999 54.1469 93.9806 54.229 94.1367C54.3153 94.2887 54.4262 94.4057 54.5617 94.4879C54.7014 94.57 54.8492 94.6111 55.0053 94.6111C55.1655 94.6111 55.3154 94.5721 55.4551 94.494C55.5948 94.4119 55.7057 94.2969 55.7878 94.149C55.87 93.997 55.911 93.8163 55.911 93.6068ZM59.9327 89.4788L58.2692 96.4287H57.4251L59.0886 89.4788H59.9327ZM60.3968 93.5945C60.3968 93.2495 60.4646 92.9434 60.6001 92.6765C60.7398 92.4095 60.9287 92.2041 61.167 92.0603C61.4052 91.9166 61.6701 91.8447 61.9618 91.8447C62.1836 91.8447 62.3951 91.894 62.5964 91.9926C62.7977 92.087 62.9579 92.2144 63.077 92.3746V90.7541H63.9519V95.3135H63.077V94.8083C62.9702 94.9767 62.8202 95.1122 62.6272 95.2149C62.4341 95.3176 62.2103 95.3689 61.9556 95.3689C61.6681 95.3689 61.4052 95.295 61.167 95.1471C60.9287 94.9993 60.7398 94.7918 60.6001 94.5248C60.4646 94.2537 60.3968 93.9436 60.3968 93.5945ZM63.0831 93.6068C63.0831 93.3973 63.0421 93.2186 62.9599 93.0708C62.8778 92.9188 62.7669 92.8038 62.6272 92.7257C62.4875 92.6436 62.3376 92.6025 62.1774 92.6025C62.0172 92.6025 61.8694 92.6415 61.7338 92.7196C61.5983 92.7976 61.4874 92.9126 61.4011 93.0646C61.319 93.2125 61.2779 93.3891 61.2779 93.5945C61.2779 93.7999 61.319 93.9806 61.4011 94.1367C61.4874 94.2887 61.5983 94.4057 61.7338 94.4879C61.8735 94.57 62.0213 94.6111 62.1774 94.6111C62.3376 94.6111 62.4875 94.5721 62.6272 94.494C62.7669 94.4119 62.8778 94.2969 62.9599 94.149C63.0421 93.997 63.0831 93.8163 63.0831 93.6068ZM65.6569 94.6296H67.074V95.3135H64.7943V91.0129H65.6569V94.6296Z" fill="#E1E1E1"/>
<path d="M122.571 76.5041C122.571 70.8328 127.168 66.2354 132.84 66.2354H210.369C216.04 66.2354 220.638 70.8328 220.638 76.5041V96.0148C220.638 101.686 216.04 106.284 210.369 106.284H132.84C127.168 106.284 122.571 101.686 122.571 96.0148V76.5041Z" fill="#949494" fill-opacity="0.7"/>
<path d="M132.373 80.394H133.553V80.9639H131.654V77.3801H132.373V80.394ZM136.465 80.281H135.037L134.801 80.9639H134.046L135.335 77.3749H136.172L137.461 80.9639H136.701L136.465 80.281ZM136.269 79.7059L135.751 78.2067L135.232 79.7059H136.269ZM140.638 77.3801V77.9603H139.683V80.9639H138.964V77.9603H138.009V77.3801H140.638ZM142.138 77.9603V78.8588H143.344V79.4287H142.138V80.3785H143.499V80.9639H141.419V77.3749H143.499V77.9603H142.138ZM145.646 80.9998C145.396 80.9998 145.17 80.957 144.968 80.8714C144.77 80.7859 144.612 80.6626 144.496 80.5018C144.379 80.3409 144.319 80.1509 144.316 79.9319H145.086C145.096 80.079 145.148 80.1954 145.24 80.281C145.336 80.3666 145.466 80.4094 145.63 80.4094C145.798 80.4094 145.93 80.37 146.026 80.2913C146.122 80.2091 146.17 80.103 146.17 79.9729C146.17 79.8668 146.137 79.7795 146.072 79.7111C146.007 79.6426 145.925 79.5896 145.826 79.5519C145.73 79.5108 145.596 79.4663 145.425 79.4184C145.192 79.35 145.002 79.2832 144.855 79.2182C144.711 79.1497 144.586 79.0487 144.48 78.9152C144.378 78.7783 144.326 78.5969 144.326 78.371C144.326 78.1588 144.379 77.9739 144.485 77.8165C144.592 77.659 144.74 77.5392 144.932 77.4571C145.124 77.3715 145.343 77.3287 145.589 77.3287C145.959 77.3287 146.259 77.4194 146.488 77.6008C146.721 77.7788 146.849 78.0287 146.873 78.3505H146.082C146.075 78.2272 146.022 78.1263 145.923 78.0475C145.827 77.9654 145.699 77.9243 145.538 77.9243C145.398 77.9243 145.285 77.9603 145.199 78.0321C145.117 78.104 145.076 78.2084 145.076 78.3453C145.076 78.4412 145.107 78.5216 145.168 78.5866C145.233 78.6483 145.312 78.6996 145.405 78.7407C145.5 78.7783 145.634 78.8228 145.805 78.8742C146.038 78.9426 146.228 79.0111 146.375 79.0795C146.522 79.148 146.649 79.2507 146.755 79.3876C146.861 79.5245 146.914 79.7042 146.914 79.9267C146.914 80.1184 146.864 80.2964 146.765 80.4607C146.666 80.625 146.52 80.7568 146.329 80.856C146.137 80.9519 145.909 80.9998 145.646 80.9998ZM150.233 77.3801V77.9603H149.278V80.9639H148.559V77.9603H147.604V77.3801H150.233ZM155.467 77.3801V80.9639H154.748V79.439H153.213V80.9639H152.494V77.3801H153.213V78.8536H154.748V77.3801H155.467ZM158.464 79.1258C158.666 79.1634 158.832 79.2644 158.962 79.4287C159.092 79.593 159.158 79.7812 159.158 79.9935C159.158 80.1852 159.11 80.3546 159.014 80.5018C158.921 80.6455 158.786 80.7585 158.608 80.8406C158.43 80.9228 158.22 80.9639 157.977 80.9639H156.431V77.3801H157.91C158.153 77.3801 158.362 77.4194 158.536 77.4982C158.714 77.5769 158.848 77.6864 158.937 77.8268C159.029 77.9671 159.075 78.1263 159.075 78.3043C159.075 78.5131 159.019 78.6876 158.906 78.828C158.796 78.9683 158.649 79.0676 158.464 79.1258ZM157.15 78.8588H157.807C157.978 78.8588 158.11 78.8211 158.203 78.7458C158.295 78.6671 158.341 78.5558 158.341 78.4121C158.341 78.2683 158.295 78.1571 158.203 78.0783C158.11 77.9996 157.978 77.9603 157.807 77.9603H157.15V78.8588ZM157.874 80.3785C158.048 80.3785 158.184 80.3375 158.28 80.2553C158.379 80.1732 158.428 80.0568 158.428 79.9062C158.428 79.7522 158.377 79.6323 158.274 79.5468C158.172 79.4578 158.033 79.4133 157.859 79.4133H157.15V80.3785H157.874ZM162.185 80.281H160.757L160.521 80.9639H159.766L161.055 77.3749H161.892L163.181 80.9639H162.421L162.185 80.281ZM161.99 79.7059L161.471 78.2067L160.952 79.7059H161.99ZM163.75 77.8832V77.2209H164.987V80.9639H164.248V77.8832H163.75ZM165.861 79.1668C165.861 78.8143 165.94 78.4994 166.098 78.2221C166.259 77.9414 166.476 77.7241 166.75 77.57C167.027 77.4126 167.337 77.3339 167.679 77.3339C168.08 77.3339 168.43 77.4365 168.732 77.6419C169.033 77.8473 169.243 78.1314 169.363 78.4942H168.537C168.454 78.3231 168.338 78.1947 168.187 78.1091C168.04 78.0236 167.869 77.9808 167.674 77.9808C167.465 77.9808 167.279 78.0304 167.114 78.1297C166.953 78.2255 166.827 78.3624 166.734 78.5404C166.645 78.7184 166.601 78.9272 166.601 79.1668C166.601 79.403 166.645 79.6118 166.734 79.7932C166.827 79.9712 166.953 80.1098 167.114 80.2091C167.279 80.305 167.465 80.3529 167.674 80.3529C167.869 80.3529 168.04 80.3101 168.187 80.2245C168.338 80.1355 168.454 80.0054 168.537 79.8343H169.363C169.243 80.2006 169.033 80.4864 168.732 80.6917C168.434 80.8937 168.083 80.9947 167.679 80.9947C167.337 80.9947 167.027 80.9177 166.75 80.7636C166.476 80.6062 166.259 80.3888 166.098 80.1116C165.94 79.8343 165.861 79.5194 165.861 79.1668Z" fill="#E1E1E1"/>
<path d="M136.611 88.49C136.529 88.145 136.385 87.8862 136.18 87.7137C135.983 87.5412 135.695 87.455 135.317 87.455C134.75 87.455 134.332 87.685 134.06 88.145C133.798 88.5968 133.662 89.3362 133.654 90.3631C133.851 90.0345 134.138 89.7798 134.516 89.5991C134.894 89.4101 135.305 89.3157 135.749 89.3157C136.283 89.3157 136.755 89.4307 137.166 89.6607C137.576 89.8907 137.897 90.2275 138.127 90.6711C138.357 91.1065 138.472 91.6323 138.472 92.2484C138.472 92.8317 138.353 93.3533 138.115 93.8134C137.885 94.2652 137.544 94.6184 137.092 94.8731C136.64 95.1278 136.102 95.2551 135.478 95.2551C134.623 95.2551 133.95 95.0662 133.457 94.6883C132.972 94.3104 132.631 93.7846 132.434 93.111C132.245 92.4291 132.15 91.5912 132.15 90.5972C132.15 89.0938 132.409 87.9602 132.927 87.1962C133.444 86.424 134.262 86.0379 135.379 86.0379C136.242 86.0379 136.911 86.272 137.388 86.7402C137.864 87.2085 138.139 87.7918 138.213 88.49H136.611ZM135.354 90.7327C134.919 90.7327 134.553 90.8601 134.258 91.1147C133.962 91.3694 133.814 91.7391 133.814 92.2238C133.814 92.7085 133.95 93.0905 134.221 93.3698C134.5 93.6491 134.89 93.7887 135.391 93.7887C135.835 93.7887 136.184 93.6532 136.439 93.3821C136.702 93.111 136.833 92.7454 136.833 92.2854C136.833 91.8089 136.706 91.431 136.451 91.1517C136.205 90.8724 135.839 90.7327 135.354 90.7327ZM140.797 95.3167C140.484 95.3167 140.226 95.2223 140.02 95.0333C139.823 94.8361 139.724 94.5938 139.724 94.3063C139.724 94.0188 139.823 93.7805 140.02 93.5916C140.226 93.3944 140.484 93.2958 140.797 93.2958C141.1 93.2958 141.351 93.3944 141.548 93.5916C141.745 93.7805 141.844 94.0188 141.844 94.3063C141.844 94.5938 141.745 94.8361 141.548 95.0333C141.351 95.2223 141.1 95.3167 140.797 95.3167ZM142.827 87.837V86.2473H145.797V95.2305H144.022V87.837H142.827Z" fill="#E88F4A"/>
<path d="M149.137 91.9238C149.137 91.6116 149.228 91.3672 149.408 91.1906C149.593 91.014 149.829 90.9257 150.117 90.9257C150.404 90.9257 150.639 91.014 150.819 91.1906C151.004 91.3672 151.097 91.6116 151.097 91.9238C151.097 92.2401 151.004 92.4865 150.819 92.6632C150.639 92.8398 150.404 92.9281 150.117 92.9281C149.829 92.9281 149.593 92.8398 149.408 92.6632C149.228 92.4865 149.137 92.2401 149.137 91.9238ZM153.093 90.9996L150.671 95.3125H149.833L152.249 90.9996H153.093ZM150.111 91.4432C149.885 91.4432 149.772 91.6034 149.772 91.9238C149.772 92.2483 149.885 92.4105 150.111 92.4105C150.222 92.4105 150.308 92.3715 150.37 92.2935C150.431 92.2113 150.462 92.0881 150.462 91.9238C150.462 91.6034 150.345 91.4432 150.111 91.4432ZM151.842 94.3821C151.842 94.0659 151.932 93.8215 152.113 93.649C152.298 93.4723 152.534 93.384 152.822 93.384C153.109 93.384 153.341 93.4723 153.518 93.649C153.699 93.8215 153.789 94.0659 153.789 94.3821C153.789 94.6984 153.699 94.9449 153.518 95.1215C153.341 95.2981 153.109 95.3864 152.822 95.3864C152.53 95.3864 152.294 95.2981 152.113 95.1215C151.932 94.9449 151.842 94.6984 151.842 94.3821ZM152.816 93.9016C152.581 93.9016 152.464 94.0618 152.464 94.3821C152.464 94.7066 152.581 94.8689 152.816 94.8689C153.046 94.8689 153.161 94.7066 153.161 94.3821C153.161 94.0618 153.046 93.9016 152.816 93.9016Z" fill="#E1E1E1"/>
<g clip-path="url(#clip0_334_293)">
<path d="M32.7368 220.735C32.4772 220.734 32.2539 220.67 32.0667 220.543C31.8806 220.416 31.7372 220.233 31.6366 219.992C31.537 219.752 31.4877 219.463 31.4887 219.125C31.4887 218.787 31.5385 218.5 31.6381 218.263C31.7387 218.025 31.8821 217.845 32.0682 217.721C32.2554 217.596 32.4783 217.534 32.7368 217.534C32.9954 217.534 33.2178 217.596 33.4039 217.721C33.5911 217.846 33.7349 218.027 33.8356 218.264C33.9362 218.501 33.986 218.787 33.985 219.125C33.985 219.464 33.9347 219.753 33.834 219.994C33.7344 220.234 33.5916 220.418 33.4054 220.545C33.2193 220.672 32.9964 220.735 32.7368 220.735ZM32.7368 220.193C32.9139 220.193 33.0553 220.104 33.1609 219.926C33.2666 219.748 33.3189 219.481 33.3179 219.125C33.3179 218.89 33.2937 218.695 33.2454 218.539C33.1982 218.383 33.1307 218.266 33.0432 218.187C32.9567 218.109 32.8546 218.07 32.7368 218.07C32.5608 218.07 32.4199 218.158 32.3142 218.334C32.2086 218.51 32.1553 218.773 32.1543 219.125C32.1543 219.362 32.1779 219.56 32.2252 219.719C32.2735 219.877 32.3414 219.996 32.429 220.075C32.5165 220.154 32.6191 220.193 32.7368 220.193ZM35.6372 220.709C35.4782 220.708 35.3248 220.682 35.1769 220.629C35.03 220.577 34.8982 220.492 34.7815 220.374C34.6648 220.256 34.5722 220.101 34.5038 219.906C34.4364 219.712 34.4026 219.474 34.4026 219.191C34.4037 218.931 34.4333 218.699 34.4917 218.495C34.5511 218.29 34.6356 218.116 34.7452 217.973C34.8559 217.83 34.9882 217.721 35.1422 217.647C35.2961 217.572 35.4687 217.534 35.6598 217.534C35.8661 217.534 36.0482 217.574 36.2062 217.655C36.3641 217.734 36.4909 217.842 36.5865 217.979C36.6831 218.116 36.7415 218.269 36.7616 218.439H36.1171C36.092 218.332 36.0392 218.247 35.9587 218.186C35.8782 218.124 35.7786 218.094 35.6598 218.094C35.4586 218.094 35.3057 218.181 35.201 218.356C35.0974 218.531 35.0446 218.769 35.0426 219.07H35.0637C35.11 218.979 35.1724 218.901 35.2508 218.836C35.3303 218.771 35.4204 218.721 35.521 218.687C35.6226 218.652 35.7298 218.634 35.8425 218.634C36.0256 218.634 36.1886 218.677 36.3314 218.764C36.4743 218.849 36.587 218.967 36.6695 219.117C36.752 219.267 36.7933 219.438 36.7933 219.632C36.7933 219.841 36.7445 220.027 36.6469 220.19C36.5503 220.353 36.415 220.481 36.2409 220.573C36.0678 220.665 35.8666 220.71 35.6372 220.709ZM35.6342 220.196C35.7348 220.196 35.8249 220.172 35.9043 220.124C35.9838 220.075 36.0462 220.01 36.0915 219.927C36.1368 219.845 36.1594 219.752 36.1594 219.65C36.1594 219.547 36.1368 219.455 36.0915 219.374C36.0472 219.292 35.9858 219.227 35.9074 219.179C35.8289 219.131 35.7393 219.106 35.6387 219.106C35.5633 219.106 35.4933 219.121 35.4289 219.149C35.3655 219.177 35.3097 219.216 35.2614 219.266C35.2141 219.317 35.1769 219.375 35.1497 219.441C35.1226 219.507 35.109 219.577 35.109 219.651C35.109 219.751 35.1316 219.842 35.1769 219.924C35.2232 220.007 35.2856 220.073 35.364 220.122C35.4435 220.171 35.5336 220.196 35.6342 220.196ZM37.6384 220.308C37.5388 220.308 37.4533 220.273 37.3819 220.202C37.3114 220.132 37.2762 220.046 37.2762 219.946C37.2762 219.847 37.3114 219.762 37.3819 219.692C37.4533 219.622 37.5388 219.586 37.6384 219.586C37.735 219.586 37.8196 219.622 37.892 219.692C37.9644 219.762 38.0007 219.847 38.0007 219.946C38.0007 220.012 37.9836 220.073 37.9493 220.128C37.9161 220.183 37.8724 220.226 37.818 220.259C37.7637 220.292 37.7038 220.308 37.6384 220.308ZM37.6384 218.791C37.5388 218.791 37.4533 218.756 37.3819 218.685C37.3114 218.615 37.2762 218.529 37.2762 218.429C37.2762 218.33 37.3114 218.246 37.3819 218.177C37.4533 218.106 37.5388 218.071 37.6384 218.071C37.735 218.071 37.8196 218.106 37.892 218.177C37.9644 218.246 38.0007 218.33 38.0007 218.429C38.0007 218.496 37.9836 218.558 37.9493 218.613C37.9161 218.667 37.8724 218.711 37.818 218.743C37.7637 218.775 37.7038 218.791 37.6384 218.791ZM39.7344 220.735C39.4748 220.734 39.2514 220.67 39.0643 220.543C38.8782 220.416 38.7348 220.233 38.6342 219.992C38.5346 219.752 38.4853 219.463 38.4863 219.125C38.4863 218.787 38.5361 218.5 38.6357 218.263C38.7363 218.025 38.8797 217.845 39.0658 217.721C39.2529 217.596 39.4758 217.534 39.7344 217.534C39.993 217.534 40.2153 217.596 40.4015 217.721C40.5886 217.846 40.7325 218.027 40.8331 218.264C40.9337 218.501 40.9835 218.787 40.9825 219.125C40.9825 219.464 40.9322 219.753 40.8316 219.994C40.732 220.234 40.5891 220.418 40.403 220.545C40.2168 220.672 39.994 220.735 39.7344 220.735ZM39.7344 220.193C39.9115 220.193 40.0528 220.104 40.1585 219.926C40.2641 219.748 40.3165 219.481 40.3154 219.125C40.3154 218.89 40.2913 218.695 40.243 218.539C40.1957 218.383 40.1283 218.266 40.0408 218.187C39.9542 218.109 39.8521 218.07 39.7344 218.07C39.5583 218.07 39.4175 218.158 39.3118 218.334C39.2062 218.51 39.1528 218.773 39.1518 219.125C39.1518 219.362 39.1755 219.56 39.2228 219.719C39.2711 219.877 39.339 219.996 39.4265 220.075C39.514 220.154 39.6167 220.193 39.7344 220.193ZM42.6604 220.735C42.4008 220.734 42.1775 220.67 41.9903 220.543C41.8042 220.416 41.6608 220.233 41.5602 219.992C41.4606 219.752 41.4113 219.463 41.4123 219.125C41.4123 218.787 41.4621 218.5 41.5617 218.263C41.6623 218.025 41.8057 217.845 41.9918 217.721C42.179 217.596 42.4018 217.534 42.6604 217.534C42.919 217.534 43.1414 217.596 43.3275 217.721C43.5146 217.846 43.6585 218.027 43.7591 218.264C43.8598 218.501 43.9096 218.787 43.9086 219.125C43.9086 219.464 43.8582 219.753 43.7576 219.994C43.658 220.234 43.5151 220.418 43.329 220.545C43.1429 220.672 42.92 220.735 42.6604 220.735ZM42.6604 220.193C42.8375 220.193 42.9789 220.104 43.0845 219.926C43.1902 219.748 43.2425 219.481 43.2415 219.125C43.2415 218.89 43.2173 218.695 43.169 218.539C43.1217 218.383 43.0543 218.266 42.9668 218.187C42.8803 218.109 42.7781 218.07 42.6604 218.07C42.4843 218.07 42.3435 218.158 42.2378 218.334C42.1322 218.51 42.0789 218.773 42.0779 219.125C42.0779 219.362 42.1015 219.56 42.1488 219.719C42.1971 219.877 42.265 219.996 42.3525 220.075C42.4401 220.154 42.5427 220.193 42.6604 220.193Z" fill="#C8C9CB"/>
<path d="M73.7715 220.735C73.5119 220.734 73.2885 220.67 73.1014 220.543C72.9153 220.416 72.7719 220.233 72.6713 219.992C72.5717 219.752 72.5224 219.463 72.5234 219.125C72.5234 218.787 72.5732 218.5 72.6728 218.263C72.7734 218.025 72.9168 217.845 73.1029 217.721C73.2901 217.596 73.5129 217.534 73.7715 217.534C74.0301 217.534 74.2524 217.596 74.4386 217.721C74.6257 217.846 74.7696 218.027 74.8702 218.264C74.9708 218.501 75.0206 218.787 75.0196 219.125C75.0196 219.464 74.9693 219.753 74.8687 219.994C74.7691 220.234 74.6262 220.418 74.4401 220.545C74.254 220.672 74.0311 220.735 73.7715 220.735ZM73.7715 220.193C73.9486 220.193 74.09 220.104 74.1956 219.926C74.3012 219.748 74.3536 219.481 74.3526 219.125C74.3526 218.89 74.3284 218.695 74.2801 218.539C74.2328 218.383 74.1654 218.266 74.0779 218.187C73.9913 218.109 73.8892 218.07 73.7715 218.07C73.5954 218.07 73.4546 218.158 73.3489 218.334C73.2433 218.51 73.1899 218.773 73.1889 219.125C73.1889 219.362 73.2126 219.56 73.2599 219.719C73.3082 219.877 73.3761 219.996 73.4636 220.075C73.5512 220.154 73.6538 220.193 73.7715 220.193ZM76.604 217.534C76.7629 217.534 76.9159 217.56 77.0628 217.614C77.2107 217.667 77.3425 217.752 77.4582 217.869C77.5749 217.986 77.667 218.141 77.7344 218.334C77.8028 218.526 77.8375 218.762 77.8385 219.042C77.8385 219.304 77.8088 219.539 77.7495 219.745C77.6911 219.95 77.6071 220.125 77.4974 220.269C77.3878 220.412 77.2554 220.522 77.1005 220.598C76.9455 220.672 76.7725 220.709 76.5813 220.709C76.3751 220.709 76.1929 220.67 76.035 220.59C75.877 220.51 75.7497 220.4 75.6531 220.263C75.5576 220.124 75.4997 219.968 75.4796 219.795H76.124C76.1492 219.907 76.202 219.995 76.2825 220.057C76.363 220.119 76.4626 220.149 76.5813 220.149C76.7825 220.149 76.9355 220.062 77.0401 219.887C77.1448 219.711 77.1976 219.47 77.1986 219.164H77.1775C77.1312 219.254 77.0688 219.332 76.9903 219.398C76.9118 219.462 76.8218 219.512 76.7202 219.547C76.6196 219.582 76.5124 219.6 76.3987 219.6C76.2166 219.6 76.0541 219.557 75.9112 219.472C75.7683 219.386 75.6557 219.268 75.5731 219.119C75.4906 218.969 75.4494 218.798 75.4494 218.605C75.4484 218.398 75.4962 218.213 75.5928 218.051C75.6894 217.89 75.8242 217.763 75.9972 217.671C76.1713 217.579 76.3735 217.533 76.604 217.534ZM76.6085 218.047C76.5069 218.047 76.4163 218.071 76.3368 218.119C76.2583 218.168 76.196 218.233 76.1497 218.314C76.1044 218.396 76.0823 218.487 76.0833 218.587C76.0833 218.689 76.1054 218.78 76.1497 218.862C76.195 218.942 76.2563 219.007 76.3338 219.055C76.4123 219.102 76.5018 219.126 76.6024 219.126C76.6779 219.126 76.7478 219.112 76.8122 219.084C76.8766 219.056 76.9325 219.017 76.9798 218.968C77.028 218.917 77.0658 218.859 77.0929 218.794C77.1201 218.729 77.1337 218.659 77.1337 218.586C77.1327 218.488 77.1095 218.399 77.0643 218.317C77.019 218.236 76.9566 218.17 76.8771 218.121C76.7976 218.072 76.7081 218.047 76.6085 218.047ZM78.6731 220.308C78.5735 220.308 78.488 220.273 78.4165 220.202C78.3461 220.132 78.3109 220.046 78.3109 219.946C78.3109 219.847 78.3461 219.762 78.4165 219.692C78.488 219.622 78.5735 219.586 78.6731 219.586C78.7697 219.586 78.8542 219.622 78.9267 219.692C78.9991 219.762 79.0353 219.847 79.0353 219.946C79.0353 220.012 79.0182 220.073 78.984 220.128C78.9508 220.183 78.907 220.226 78.8527 220.259C78.7984 220.292 78.7385 220.308 78.6731 220.308ZM78.6731 218.791C78.5735 218.791 78.488 218.756 78.4165 218.685C78.3461 218.615 78.3109 218.529 78.3109 218.429C78.3109 218.33 78.3461 218.246 78.4165 218.177C78.488 218.106 78.5735 218.071 78.6731 218.071C78.7697 218.071 78.8542 218.106 78.9267 218.177C78.9991 218.246 79.0353 218.33 79.0353 218.429C79.0353 218.496 79.0182 218.558 78.984 218.613C78.9508 218.667 78.907 218.711 78.8527 218.743C78.7984 218.775 78.7385 218.791 78.6731 218.791ZM80.7691 220.735C80.5095 220.734 80.2861 220.67 80.099 220.543C79.9128 220.416 79.7694 220.233 79.6688 219.992C79.5692 219.752 79.5199 219.463 79.5209 219.125C79.5209 218.787 79.5707 218.5 79.6703 218.263C79.771 218.025 79.9143 217.845 80.1005 217.721C80.2876 217.596 80.5105 217.534 80.7691 217.534C81.0276 217.534 81.25 217.596 81.4361 217.721C81.6233 217.846 81.7672 218.027 81.8678 218.264C81.9684 218.501 82.0182 218.787 82.0172 219.125C82.0172 219.464 81.9669 219.753 81.8663 219.994C81.7667 220.234 81.6238 220.418 81.4377 220.545C81.2515 220.672 81.0286 220.735 80.7691 220.735ZM80.7691 220.193C80.9461 220.193 81.0875 220.104 81.1932 219.926C81.2988 219.748 81.3511 219.481 81.3501 219.125C81.3501 218.89 81.326 218.695 81.2777 218.539C81.2304 218.383 81.163 218.266 81.0754 218.187C80.9889 218.109 80.8868 218.07 80.7691 218.07C80.593 218.07 80.4521 218.158 80.3465 218.334C80.2408 218.51 80.1875 218.773 80.1865 219.125C80.1865 219.362 80.2101 219.56 80.2574 219.719C80.3057 219.877 80.3736 219.996 80.4612 220.075C80.5487 220.154 80.6513 220.193 80.7691 220.193ZM83.6951 220.735C83.4355 220.734 83.2121 220.67 83.025 220.543C82.8388 220.416 82.6955 220.233 82.5949 219.992C82.4952 219.752 82.4459 219.463 82.447 219.125C82.447 218.787 82.4968 218.5 82.5964 218.263C82.697 218.025 82.8404 217.845 83.0265 217.721C83.2136 217.596 83.4365 217.534 83.6951 217.534C83.9537 217.534 84.176 217.596 84.3622 217.721C84.5493 217.846 84.6932 218.027 84.7938 218.264C84.8944 218.501 84.9442 218.787 84.9432 219.125C84.9432 219.464 84.8929 219.753 84.7923 219.994C84.6927 220.234 84.5498 220.418 84.3637 220.545C84.1775 220.672 83.9547 220.735 83.6951 220.735ZM83.6951 220.193C83.8722 220.193 84.0135 220.104 84.1192 219.926C84.2248 219.748 84.2771 219.481 84.2761 219.125C84.2761 218.89 84.252 218.695 84.2037 218.539C84.1564 218.383 84.089 218.266 84.0015 218.187C83.9149 218.109 83.8128 218.07 83.6951 218.07C83.519 218.07 83.3781 218.158 83.2725 218.334C83.1669 218.51 83.1135 218.773 83.1125 219.125C83.1125 219.362 83.1362 219.56 83.1835 219.719C83.2318 219.877 83.2997 219.996 83.3872 220.075C83.4747 220.154 83.5774 220.193 83.6951 220.193Z" fill="#C8C9CB"/>
<path d="M115.629 217.576V220.667H114.975V218.196H114.957L114.249 218.64V218.061L115.015 217.576H115.629ZM116.364 220.667V220.196L117.464 219.177C117.557 219.087 117.636 219.005 117.699 218.933C117.764 218.86 117.812 218.79 117.846 218.72C117.879 218.65 117.895 218.574 117.895 218.492C117.895 218.402 117.875 218.324 117.834 218.258C117.792 218.192 117.736 218.141 117.664 218.106C117.593 218.07 117.512 218.051 117.421 218.051C117.327 218.051 117.244 218.071 117.174 218.109C117.104 218.147 117.049 218.202 117.011 218.273C116.973 218.345 116.954 218.43 116.954 218.528H116.333C116.333 218.326 116.379 218.151 116.471 218.002C116.562 217.853 116.691 217.738 116.856 217.656C117.021 217.575 117.211 217.534 117.426 217.534C117.647 217.534 117.84 217.573 118.004 217.652C118.169 217.729 118.297 217.837 118.389 217.975C118.48 218.112 118.526 218.27 118.526 218.448C118.526 218.565 118.503 218.68 118.457 218.794C118.412 218.908 118.331 219.034 118.214 219.173C118.097 219.311 117.933 219.476 117.72 219.669L117.269 220.112V220.133H118.567V220.667H116.364ZM119.422 220.308C119.323 220.308 119.237 220.273 119.166 220.202C119.095 220.132 119.06 220.046 119.06 219.946C119.06 219.847 119.095 219.762 119.166 219.692C119.237 219.622 119.323 219.586 119.422 219.586C119.519 219.586 119.603 219.622 119.676 219.692C119.748 219.762 119.785 219.847 119.785 219.946C119.785 220.012 119.767 220.073 119.733 220.128C119.7 220.183 119.656 220.226 119.602 220.259C119.548 220.292 119.488 220.308 119.422 220.308ZM119.422 218.791C119.323 218.791 119.237 218.756 119.166 218.685C119.095 218.615 119.06 218.529 119.06 218.429C119.06 218.33 119.095 218.246 119.166 218.177C119.237 218.106 119.323 218.071 119.422 218.071C119.519 218.071 119.603 218.106 119.676 218.177C119.748 218.246 119.785 218.33 119.785 218.429C119.785 218.496 119.767 218.558 119.733 218.613C119.7 218.667 119.656 218.711 119.602 218.743C119.548 218.775 119.488 218.791 119.422 218.791ZM121.518 220.735C121.259 220.734 121.035 220.67 120.848 220.543C120.662 220.416 120.519 220.233 120.418 219.992C120.318 219.752 120.269 219.463 120.27 219.125C120.27 218.787 120.32 218.5 120.42 218.263C120.52 218.025 120.664 217.845 120.85 217.721C121.037 217.596 121.26 217.534 121.518 217.534C121.777 217.534 121.999 217.596 122.185 217.721C122.373 217.846 122.516 218.027 122.617 218.264C122.718 218.501 122.767 218.787 122.766 219.125C122.766 219.464 122.716 219.753 122.616 219.994C122.516 220.234 122.373 220.418 122.187 220.545C122.001 220.672 121.778 220.735 121.518 220.735ZM121.518 220.193C121.695 220.193 121.837 220.104 121.942 219.926C122.048 219.748 122.1 219.481 122.099 219.125C122.099 218.89 122.075 218.695 122.027 218.539C121.98 218.383 121.912 218.266 121.825 218.187C121.738 218.109 121.636 218.07 121.518 218.07C121.342 218.07 121.201 218.158 121.096 218.334C120.99 218.51 120.937 218.773 120.936 219.125C120.936 219.362 120.959 219.56 121.007 219.719C121.055 219.877 121.123 219.996 121.21 220.075C121.298 220.154 121.401 220.193 121.518 220.193ZM124.444 220.735C124.185 220.734 123.961 220.67 123.774 220.543C123.588 220.416 123.445 220.233 123.344 219.992C123.244 219.752 123.195 219.463 123.196 219.125C123.196 218.787 123.246 218.5 123.346 218.263C123.446 218.025 123.59 217.845 123.776 217.721C123.963 217.596 124.186 217.534 124.444 217.534C124.703 217.534 124.925 217.596 125.111 217.721C125.299 217.846 125.442 218.027 125.543 218.264C125.644 218.501 125.693 218.787 125.692 219.125C125.692 219.464 125.642 219.753 125.542 219.994C125.442 220.234 125.299 220.418 125.113 220.545C124.927 220.672 124.704 220.735 124.444 220.735ZM124.444 220.193C124.621 220.193 124.763 220.104 124.868 219.926C124.974 219.748 125.026 219.481 125.025 219.125C125.025 218.89 125.001 218.695 124.953 218.539C124.906 218.383 124.838 218.266 124.751 218.187C124.664 218.109 124.562 218.07 124.444 218.07C124.268 218.07 124.127 218.158 124.022 218.334C123.916 218.51 123.863 218.773 123.862 219.125C123.862 219.362 123.885 219.56 123.933 219.719C123.981 219.877 124.049 219.996 124.136 220.075C124.224 220.154 124.327 220.193 124.444 220.193Z" fill="#C8C9CB"/>
<path d="M156.319 217.576V220.667H155.666V218.196H155.648L154.94 218.64V218.061L155.705 217.576H156.319ZM158.183 220.709C157.97 220.709 157.779 220.67 157.612 220.592C157.446 220.513 157.315 220.405 157.217 220.267C157.119 220.129 157.069 219.971 157.065 219.793H157.699C157.706 219.913 157.756 220.01 157.849 220.084C157.943 220.159 158.054 220.196 158.183 220.196C158.286 220.196 158.376 220.173 158.455 220.128C158.534 220.082 158.596 220.018 158.64 219.937C158.686 219.854 158.708 219.759 158.708 219.653C158.708 219.544 158.685 219.449 158.639 219.366C158.593 219.284 158.531 219.219 158.45 219.173C158.37 219.127 158.278 219.103 158.174 219.102C158.083 219.102 157.995 219.121 157.91 219.158C157.825 219.195 157.759 219.246 157.712 219.31L157.131 219.206L157.277 217.576H159.167V218.11H157.816L157.736 218.885H157.754C157.809 218.808 157.891 218.745 158 218.694C158.11 218.644 158.233 218.619 158.369 218.619C158.555 218.619 158.721 218.663 158.867 218.75C159.013 218.838 159.128 218.958 159.212 219.111C159.297 219.263 159.339 219.438 159.338 219.636C159.339 219.844 159.29 220.03 159.193 220.192C159.096 220.353 158.961 220.479 158.787 220.572C158.614 220.663 158.412 220.709 158.183 220.709ZM160.175 220.308C160.076 220.308 159.99 220.273 159.919 220.202C159.848 220.132 159.813 220.046 159.813 219.946C159.813 219.847 159.848 219.762 159.919 219.692C159.99 219.622 160.076 219.586 160.175 219.586C160.272 219.586 160.356 219.622 160.429 219.692C160.501 219.762 160.537 219.847 160.537 219.946C160.537 220.012 160.52 220.073 160.486 220.128C160.453 220.183 160.409 220.226 160.355 220.259C160.3 220.292 160.241 220.308 160.175 220.308ZM160.175 218.791C160.076 218.791 159.99 218.756 159.919 218.685C159.848 218.615 159.813 218.529 159.813 218.429C159.813 218.33 159.848 218.246 159.919 218.177C159.99 218.106 160.076 218.071 160.175 218.071C160.272 218.071 160.356 218.106 160.429 218.177C160.501 218.246 160.537 218.33 160.537 218.429C160.537 218.496 160.52 218.558 160.486 218.613C160.453 218.667 160.409 218.711 160.355 218.743C160.3 218.775 160.241 218.791 160.175 218.791ZM162.271 220.735C162.012 220.734 161.788 220.67 161.601 220.543C161.415 220.416 161.271 220.233 161.171 219.992C161.071 219.752 161.022 219.463 161.023 219.125C161.023 218.787 161.073 218.5 161.172 218.263C161.273 218.025 161.416 217.845 161.603 217.721C161.79 217.596 162.013 217.534 162.271 217.534C162.53 217.534 162.752 217.596 162.938 217.721C163.125 217.846 163.269 218.027 163.37 218.264C163.47 218.501 163.52 218.787 163.519 219.125C163.519 219.464 163.469 219.753 163.368 219.994C163.269 220.234 163.126 220.418 162.94 220.545C162.754 220.672 162.531 220.735 162.271 220.735ZM162.271 220.193C162.448 220.193 162.59 220.104 162.695 219.926C162.801 219.748 162.853 219.481 162.852 219.125C162.852 218.89 162.828 218.695 162.78 218.539C162.732 218.383 162.665 218.266 162.577 218.187C162.491 218.109 162.389 218.07 162.271 218.07C162.095 218.07 161.954 218.158 161.849 218.334C161.743 218.51 161.69 218.773 161.689 219.125C161.689 219.362 161.712 219.56 161.759 219.719C161.808 219.877 161.876 219.996 161.963 220.075C162.051 220.154 162.153 220.193 162.271 220.193ZM165.197 220.735C164.938 220.734 164.714 220.67 164.527 220.543C164.341 220.416 164.198 220.233 164.097 219.992C163.997 219.752 163.948 219.463 163.949 219.125C163.949 218.787 163.999 218.5 164.098 218.263C164.199 218.025 164.342 217.845 164.529 217.721C164.716 217.596 164.939 217.534 165.197 217.534C165.456 217.534 165.678 217.596 165.864 217.721C166.051 217.846 166.195 218.027 166.296 218.264C166.396 218.501 166.446 218.787 166.445 219.125C166.445 219.464 166.395 219.753 166.294 219.994C166.195 220.234 166.052 220.418 165.866 220.545C165.68 220.672 165.457 220.735 165.197 220.735ZM165.197 220.193C165.374 220.193 165.516 220.104 165.621 219.926C165.727 219.748 165.779 219.481 165.778 219.125C165.778 218.89 165.754 218.695 165.706 218.539C165.658 218.383 165.591 218.266 165.504 218.187C165.417 218.109 165.315 218.07 165.197 218.07C165.021 218.07 164.88 218.158 164.775 218.334C164.669 218.51 164.616 218.773 164.615 219.125C164.615 219.362 164.638 219.56 164.685 219.719C164.734 219.877 164.802 219.996 164.889 220.075C164.977 220.154 165.079 220.193 165.197 220.193Z" fill="#C8C9CB"/>
<path d="M198.054 217.576V220.667H197.4V218.196H197.382L196.674 218.64V218.061L197.44 217.576H198.054ZM199.942 220.709C199.709 220.709 199.502 220.672 199.321 220.596C199.141 220.52 199 220.415 198.897 220.284C198.795 220.152 198.743 220.002 198.743 219.835C198.743 219.707 198.772 219.588 198.831 219.481C198.89 219.372 198.971 219.282 199.072 219.211C199.174 219.138 199.288 219.092 199.413 219.072V219.051C199.248 219.017 199.114 218.937 199.012 218.811C198.909 218.683 198.858 218.534 198.858 218.365C198.858 218.205 198.905 218.063 198.998 217.938C199.092 217.813 199.22 217.714 199.383 217.642C199.547 217.57 199.733 217.534 199.942 217.534C200.15 217.534 200.335 217.57 200.498 217.642C200.662 217.715 200.791 217.814 200.885 217.94C200.978 218.065 201.026 218.206 201.027 218.365C201.026 218.535 200.973 218.684 200.87 218.811C200.766 218.937 200.633 219.017 200.471 219.051V219.072C200.595 219.092 200.707 219.138 200.808 219.211C200.909 219.282 200.99 219.372 201.049 219.481C201.11 219.588 201.14 219.707 201.141 219.835C201.14 220.002 201.089 220.152 200.986 220.284C200.883 220.415 200.741 220.52 200.56 220.596C200.38 220.672 200.174 220.709 199.942 220.709ZM199.942 220.229C200.045 220.229 200.136 220.211 200.213 220.173C200.291 220.135 200.351 220.083 200.394 220.017C200.439 219.949 200.461 219.872 200.461 219.784C200.461 219.695 200.438 219.616 200.393 219.547C200.348 219.478 200.286 219.423 200.209 219.384C200.131 219.344 200.042 219.324 199.942 219.324C199.842 219.324 199.753 219.344 199.674 219.384C199.596 219.423 199.534 219.478 199.489 219.547C199.444 219.616 199.422 219.695 199.422 219.784C199.422 219.872 199.444 219.949 199.487 220.017C199.531 220.083 199.591 220.135 199.67 220.173C199.748 220.211 199.839 220.229 199.942 220.229ZM199.942 218.848C200.028 218.848 200.105 218.831 200.172 218.796C200.24 218.76 200.293 218.712 200.331 218.649C200.369 218.587 200.388 218.515 200.388 218.433C200.388 218.353 200.369 218.282 200.331 218.222C200.293 218.161 200.24 218.113 200.174 218.079C200.108 218.043 200.03 218.026 199.942 218.026C199.854 218.026 199.777 218.043 199.709 218.079C199.642 218.113 199.589 218.161 199.551 218.222C199.513 218.282 199.495 218.353 199.495 218.433C199.495 218.515 199.514 218.587 199.552 218.649C199.59 218.712 199.643 218.76 199.711 218.796C199.778 218.831 199.855 218.848 199.942 218.848ZM201.98 220.308C201.881 220.308 201.795 220.273 201.724 220.202C201.653 220.132 201.618 220.046 201.618 219.946C201.618 219.847 201.653 219.762 201.724 219.692C201.795 219.622 201.881 219.586 201.98 219.586C202.077 219.586 202.161 219.622 202.234 219.692C202.306 219.762 202.342 219.847 202.342 219.946C202.342 220.012 202.325 220.073 202.291 220.128C202.258 220.183 202.214 220.226 202.16 220.259C202.105 220.292 202.046 220.308 201.98 220.308ZM201.98 218.791C201.881 218.791 201.795 218.756 201.724 218.685C201.653 218.615 201.618 218.529 201.618 218.429C201.618 218.33 201.653 218.246 201.724 218.177C201.795 218.106 201.881 218.071 201.98 218.071C202.077 218.071 202.161 218.106 202.234 218.177C202.306 218.246 202.342 218.33 202.342 218.429C202.342 218.496 202.325 218.558 202.291 218.613C202.258 218.667 202.214 218.711 202.16 218.743C202.105 218.775 202.046 218.791 201.98 218.791ZM204.076 220.735C203.816 220.734 203.593 220.67 203.406 220.543C203.22 220.416 203.076 220.233 202.976 219.992C202.876 219.752 202.827 219.463 202.828 219.125C202.828 218.787 202.878 218.5 202.977 218.263C203.078 218.025 203.221 217.845 203.407 217.721C203.595 217.596 203.817 217.534 204.076 217.534C204.335 217.534 204.557 217.596 204.743 217.721C204.93 217.846 205.074 218.027 205.175 218.264C205.275 218.501 205.325 218.787 205.324 219.125C205.324 219.464 205.274 219.753 205.173 219.994C205.074 220.234 204.931 220.418 204.745 220.545C204.559 220.672 204.336 220.735 204.076 220.735ZM204.076 220.193C204.253 220.193 204.395 220.104 204.5 219.926C204.606 219.748 204.658 219.481 204.657 219.125C204.657 218.89 204.633 218.695 204.585 218.539C204.537 218.383 204.47 218.266 204.382 218.187C204.296 218.109 204.194 218.07 204.076 218.07C203.9 218.07 203.759 218.158 203.653 218.334C203.548 218.51 203.495 218.773 203.494 219.125C203.494 219.362 203.517 219.56 203.564 219.719C203.613 219.877 203.681 219.996 203.768 220.075C203.856 220.154 203.958 220.193 204.076 220.193ZM207.002 220.735C206.743 220.734 206.519 220.67 206.332 220.543C206.146 220.416 206.002 220.233 205.902 219.992C205.802 219.752 205.753 219.463 205.754 219.125C205.754 218.787 205.804 218.5 205.903 218.263C206.004 218.025 206.147 217.845 206.334 217.721C206.521 217.596 206.744 217.534 207.002 217.534C207.261 217.534 207.483 217.596 207.669 217.721C207.856 217.846 208 218.027 208.101 218.264C208.201 218.501 208.251 218.787 208.25 219.125C208.25 219.464 208.2 219.753 208.099 219.994C208 220.234 207.857 220.418 207.671 220.545C207.485 220.672 207.262 220.735 207.002 220.735ZM207.002 220.193C207.179 220.193 207.321 220.104 207.426 219.926C207.532 219.748 207.584 219.481 207.583 219.125C207.583 218.89 207.559 218.695 207.511 218.539C207.463 218.383 207.396 218.266 207.308 218.187C207.222 218.109 207.12 218.07 207.002 218.07C206.826 218.07 206.685 218.158 206.58 218.334C206.474 218.51 206.421 218.773 206.42 219.125C206.42 219.362 206.443 219.56 206.49 219.719C206.539 219.877 206.607 219.996 206.694 220.075C206.782 220.154 206.884 220.193 207.002 220.193Z" fill="#C8C9CB"/>
<path d="M230.015 220.667V220.196L231.116 219.177C231.209 219.087 231.288 219.005 231.351 218.933C231.416 218.86 231.464 218.79 231.498 218.72C231.531 218.65 231.547 218.574 231.547 218.492C231.547 218.402 231.527 218.324 231.485 218.258C231.444 218.192 231.388 218.141 231.316 218.106C231.245 218.07 231.164 218.051 231.073 218.051C230.979 218.051 230.896 218.071 230.826 218.109C230.756 218.147 230.701 218.202 230.663 218.273C230.625 218.345 230.606 218.43 230.606 218.528H229.985C229.985 218.326 230.031 218.151 230.123 218.002C230.214 217.853 230.342 217.738 230.507 217.656C230.673 217.575 230.863 217.534 231.078 217.534C231.299 217.534 231.492 217.573 231.656 217.652C231.821 217.729 231.949 217.837 232.041 217.975C232.132 218.112 232.178 218.27 232.178 218.448C232.178 218.565 232.155 218.68 232.109 218.794C232.064 218.908 231.983 219.034 231.866 219.173C231.749 219.311 231.585 219.476 231.372 219.669L230.921 220.112V220.133H232.219V220.667H230.015ZM234.037 217.576V220.667H233.384V218.196H233.366L232.658 218.64V218.061L233.423 217.576H234.037ZM235.154 220.308C235.054 220.308 234.969 220.273 234.897 220.202C234.827 220.132 234.791 220.046 234.791 219.946C234.791 219.847 234.827 219.762 234.897 219.692C234.969 219.622 235.054 219.586 235.154 219.586C235.25 219.586 235.335 219.622 235.407 219.692C235.48 219.762 235.516 219.847 235.516 219.946C235.516 220.012 235.499 220.073 235.465 220.128C235.431 220.183 235.388 220.226 235.333 220.259C235.279 220.292 235.219 220.308 235.154 220.308ZM235.154 218.791C235.054 218.791 234.969 218.756 234.897 218.685C234.827 218.615 234.791 218.529 234.791 218.429C234.791 218.33 234.827 218.246 234.897 218.177C234.969 218.106 235.054 218.071 235.154 218.071C235.25 218.071 235.335 218.106 235.407 218.177C235.48 218.246 235.516 218.33 235.516 218.429C235.516 218.496 235.499 218.558 235.465 218.613C235.431 218.667 235.388 218.711 235.333 218.743C235.279 218.775 235.219 218.791 235.154 218.791ZM237.25 220.735C236.99 220.734 236.767 220.67 236.58 220.543C236.393 220.416 236.25 220.233 236.149 219.992C236.05 219.752 236 219.463 236.001 219.125C236.001 218.787 236.051 218.5 236.151 218.263C236.252 218.025 236.395 217.845 236.581 217.721C236.768 217.596 236.991 217.534 237.25 217.534C237.508 217.534 237.731 217.596 237.917 217.721C238.104 217.846 238.248 218.027 238.348 218.264C238.449 218.501 238.499 218.787 238.498 219.125C238.498 219.464 238.447 219.753 238.347 219.994C238.247 220.234 238.104 220.418 237.918 220.545C237.732 220.672 237.509 220.735 237.25 220.735ZM237.25 220.193C237.427 220.193 237.568 220.104 237.674 219.926C237.779 219.748 237.832 219.481 237.831 219.125C237.831 218.89 237.807 218.695 237.758 218.539C237.711 218.383 237.644 218.266 237.556 218.187C237.469 218.109 237.367 218.07 237.25 218.07C237.074 218.07 236.933 218.158 236.827 218.334C236.721 218.51 236.668 218.773 236.667 219.125C236.667 219.362 236.691 219.56 236.738 219.719C236.786 219.877 236.854 219.996 236.942 220.075C237.029 220.154 237.132 220.193 237.25 220.193ZM240.176 220.735C239.916 220.734 239.693 220.67 239.506 220.543C239.319 220.416 239.176 220.233 239.075 219.992C238.976 219.752 238.926 219.463 238.928 219.125C238.928 218.787 238.977 218.5 239.077 218.263C239.178 218.025 239.321 217.845 239.507 217.721C239.694 217.596 239.917 217.534 240.176 217.534C240.434 217.534 240.657 217.596 240.843 217.721C241.03 217.846 241.174 218.027 241.274 218.264C241.375 218.501 241.425 218.787 241.424 219.125C241.424 219.464 241.373 219.753 241.273 219.994C241.173 220.234 241.03 220.418 240.844 220.545C240.658 220.672 240.435 220.735 240.176 220.735ZM240.176 220.193C240.353 220.193 240.494 220.104 240.6 219.926C240.705 219.748 240.758 219.481 240.757 219.125C240.757 218.89 240.733 218.695 240.684 218.539C240.637 218.383 240.57 218.266 240.482 218.187C240.395 218.109 240.293 218.07 240.176 218.07C240 218.07 239.859 218.158 239.753 218.334C239.647 218.51 239.594 218.773 239.593 219.125C239.593 219.362 239.617 219.56 239.664 219.719C239.712 219.877 239.78 219.996 239.868 220.075C239.955 220.154 240.058 220.193 240.176 220.193Z" fill="#C8C9CB"/>
<path d="M28.6178 211.55C28.4588 211.549 28.3053 211.522 28.1574 211.47C28.0105 211.418 27.8787 211.333 27.762 211.215C27.6453 211.097 27.5527 210.941 27.4843 210.747C27.4169 210.553 27.3832 210.315 27.3832 210.032C27.3842 209.772 27.4139 209.54 27.4723 209.336C27.5316 209.131 27.6161 208.957 27.7258 208.814C27.8365 208.671 27.9688 208.562 28.1227 208.488C28.2767 208.412 28.4492 208.375 28.6404 208.375C28.8467 208.375 29.0288 208.415 29.1867 208.495C29.3447 208.575 29.4715 208.683 29.5671 208.82C29.6637 208.957 29.722 209.11 29.7421 209.28H29.0977C29.0725 209.173 29.0197 209.088 28.9392 209.027C28.8587 208.965 28.7591 208.935 28.6404 208.935C28.4392 208.935 28.2862 209.022 28.1816 209.197C28.078 209.372 28.0251 209.61 28.0231 209.911H28.0442C28.0905 209.819 28.1529 209.742 28.2314 209.677C28.3109 209.612 28.4009 209.562 28.5015 209.528C28.6032 209.492 28.7103 209.475 28.823 209.475C29.0061 209.475 29.1691 209.518 29.312 209.605C29.4549 209.69 29.5676 209.808 29.6501 209.958C29.7326 210.108 29.7738 210.279 29.7738 210.472C29.7738 210.682 29.725 210.868 29.6274 211.031C29.5308 211.194 29.3955 211.322 29.2215 211.414C29.0484 211.506 28.8472 211.551 28.6178 211.55ZM28.6147 211.037C28.7154 211.037 28.8054 211.013 28.8849 210.964C28.9644 210.916 29.0268 210.851 29.072 210.768C29.1173 210.686 29.14 210.593 29.14 210.491C29.14 210.388 29.1173 210.296 29.072 210.214C29.0278 210.133 28.9664 210.068 28.8879 210.02C28.8094 209.971 28.7199 209.947 28.6193 209.947C28.5438 209.947 28.4739 209.961 28.4095 209.99C28.3461 210.018 28.2903 210.057 28.242 210.107C28.1947 210.158 28.1574 210.216 28.1303 210.282C28.1031 210.348 28.0895 210.418 28.0895 210.492C28.0895 210.592 28.1122 210.683 28.1574 210.765C28.2037 210.848 28.2661 210.914 28.3446 210.963C28.4241 211.012 28.5141 211.037 28.6147 211.037ZM31.4491 211.576C31.1895 211.575 30.9661 211.511 30.779 211.384C30.5928 211.257 30.4495 211.074 30.3488 210.833C30.2492 210.593 30.1999 210.303 30.2009 209.965C30.2009 209.628 30.2507 209.341 30.3504 209.104C30.451 208.866 30.5944 208.686 30.7805 208.562C30.9676 208.437 31.1905 208.375 31.4491 208.375C31.7077 208.375 31.93 208.437 32.1162 208.562C32.3033 208.687 32.4472 208.868 32.5478 209.105C32.6484 209.342 32.6982 209.628 32.6972 209.965C32.6972 210.304 32.6469 210.594 32.5463 210.835C32.4467 211.075 32.3038 211.259 32.1177 211.386C31.9315 211.512 31.7087 211.576 31.4491 211.576ZM31.4491 211.034C31.6262 211.034 31.7675 210.945 31.8732 210.767C31.9788 210.589 32.0311 210.322 32.0301 209.965C32.0301 209.731 32.006 209.536 31.9577 209.38C31.9104 209.224 31.843 209.107 31.7555 209.028C31.6689 208.95 31.5668 208.91 31.4491 208.91C31.273 208.91 31.1321 208.998 31.0265 209.175C30.9208 209.351 30.8675 209.614 30.8665 209.965C30.8665 210.203 30.8902 210.401 30.9374 210.56C30.9857 210.718 31.0537 210.837 31.1412 210.916C31.2287 210.995 31.3314 211.034 31.4491 211.034Z" fill="#C8C9CB"/>
<path d="M28.55 190.161C28.7089 190.161 28.8619 190.187 29.0088 190.241C29.1567 190.294 29.2885 190.379 29.4042 190.496C29.5209 190.613 29.613 190.767 29.6804 190.961C29.7488 191.153 29.7835 191.389 29.7845 191.669C29.7845 191.931 29.7548 192.166 29.6955 192.372C29.6371 192.577 29.5531 192.752 29.4434 192.896C29.3338 193.039 29.2015 193.149 29.0465 193.225C28.8916 193.299 28.7185 193.336 28.5273 193.336C28.3211 193.336 28.139 193.296 27.981 193.217C27.823 193.136 27.6957 193.027 27.5991 192.889C27.5036 192.751 27.4457 192.595 27.4256 192.422H28.07C28.0952 192.534 28.148 192.622 28.2285 192.684C28.309 192.746 28.4086 192.776 28.5273 192.776C28.7286 192.776 28.8815 192.689 28.9861 192.514C29.0908 192.338 29.1436 192.097 29.1446 191.791H29.1235C29.0772 191.881 29.0148 191.959 28.9363 192.025C28.8578 192.089 28.7678 192.139 28.6662 192.174C28.5656 192.209 28.4584 192.227 28.3447 192.227C28.1626 192.227 28.0001 192.184 27.8572 192.099C27.7144 192.013 27.6017 191.895 27.5192 191.745C27.4367 191.596 27.3954 191.425 27.3954 191.232C27.3944 191.025 27.4422 190.84 27.5388 190.678C27.6354 190.516 27.7702 190.39 27.9433 190.298C28.1173 190.206 28.3196 190.16 28.55 190.161ZM28.5545 190.674C28.4529 190.674 28.3623 190.698 28.2828 190.746C28.2044 190.795 28.142 190.86 28.0957 190.941C28.0504 191.023 28.0283 191.114 28.0293 191.214C28.0293 191.316 28.0514 191.407 28.0957 191.489C28.141 191.569 28.2023 191.634 28.2798 191.682C28.3583 191.729 28.4478 191.753 28.5485 191.753C28.6239 191.753 28.6938 191.739 28.7582 191.711C28.8226 191.683 28.8785 191.644 28.9258 191.595C28.9741 191.544 29.0118 191.486 29.039 191.421C29.0661 191.356 29.0797 191.286 29.0797 191.213C29.0787 191.115 29.0556 191.026 29.0103 190.944C28.965 190.863 28.9026 190.797 28.8231 190.748C28.7436 190.699 28.6541 190.674 28.5545 190.674ZM31.4492 193.362C31.1896 193.361 30.9662 193.297 30.7791 193.17C30.593 193.043 30.4496 192.86 30.349 192.619C30.2494 192.379 30.2001 192.09 30.2011 191.752C30.2011 191.414 30.2509 191.127 30.3505 190.89C30.4511 190.652 30.5945 190.472 30.7806 190.348C30.9678 190.223 31.1906 190.161 31.4492 190.161C31.7078 190.161 31.9301 190.223 32.1163 190.348C32.3034 190.473 32.4473 190.654 32.5479 190.891C32.6485 191.128 32.6983 191.414 32.6973 191.752C32.6973 192.091 32.647 192.38 32.5464 192.621C32.4468 192.861 32.3039 193.045 32.1178 193.172C31.9317 193.298 31.7088 193.362 31.4492 193.362ZM31.4492 192.82C31.6263 192.82 31.7676 192.731 31.8733 192.553C31.9789 192.375 32.0313 192.108 32.0303 191.752C32.0303 191.517 32.0061 191.322 31.9578 191.166C31.9105 191.01 31.8431 190.893 31.7556 190.814C31.669 190.736 31.5669 190.697 31.4492 190.697C31.2731 190.697 31.1323 190.785 31.0266 190.961C30.921 191.137 30.8676 191.4 30.8666 191.752C30.8666 191.989 30.8903 192.187 30.9376 192.346C30.9859 192.504 31.0538 192.623 31.1413 192.702C31.2289 192.781 31.3315 192.82 31.4492 192.82Z" fill="#C8C9CB"/>
<path d="M26.6426 171.988V175.079H25.9891V172.608H25.971L25.2631 173.052V172.473L26.0283 171.988H26.6426ZM27.3772 175.079V174.608L28.4774 173.589C28.571 173.499 28.6495 173.417 28.7129 173.345C28.7773 173.273 28.8261 173.202 28.8593 173.132C28.8925 173.062 28.9091 172.986 28.9091 172.904C28.9091 172.814 28.8884 172.736 28.8472 172.67C28.8059 172.604 28.7496 172.553 28.6782 172.518C28.6067 172.482 28.5257 172.464 28.4352 172.464C28.3406 172.464 28.2581 172.483 28.1877 172.521C28.1172 172.559 28.0629 172.614 28.0247 172.685C27.9864 172.757 27.9673 172.842 27.9673 172.941H27.347C27.347 172.738 27.3928 172.563 27.4844 172.414C27.5759 172.265 27.7042 172.15 27.8692 172.068C28.0342 171.987 28.2244 171.946 28.4397 171.946C28.6611 171.946 28.8537 171.985 29.0177 172.064C29.1827 172.141 29.311 172.249 29.4026 172.387C29.4942 172.524 29.5399 172.682 29.5399 172.861C29.5399 172.977 29.5168 173.092 29.4705 173.206C29.4252 173.32 29.3442 173.446 29.2275 173.585C29.1108 173.723 28.9463 173.888 28.734 174.081L28.2827 174.524V174.545H29.5807V175.079H27.3772ZM31.2661 175.147C31.0065 175.146 30.7832 175.082 30.596 174.955C30.4099 174.829 30.2665 174.645 30.1659 174.404C30.0663 174.164 30.017 173.875 30.018 173.537C30.018 173.2 30.0678 172.912 30.1674 172.675C30.268 172.437 30.4114 172.257 30.5975 172.133C30.7847 172.008 31.0075 171.946 31.2661 171.946C31.5247 171.946 31.7471 172.008 31.9332 172.133C32.1203 172.258 32.2642 172.439 32.3648 172.676C32.4655 172.913 32.5153 173.2 32.5143 173.537C32.5143 173.876 32.4639 174.166 32.3633 174.406C32.2637 174.646 32.1208 174.83 31.9347 174.957C31.7486 175.084 31.5257 175.147 31.2661 175.147ZM31.2661 174.605C31.4432 174.605 31.5846 174.516 31.6902 174.338C31.7959 174.16 31.8482 173.893 31.8472 173.537C31.8472 173.302 31.823 173.107 31.7747 172.951C31.7274 172.795 31.66 172.678 31.5725 172.599C31.486 172.521 31.3838 172.482 31.2661 172.482C31.09 172.482 30.9492 172.57 30.8435 172.746C30.7379 172.922 30.6846 173.186 30.6836 173.537C30.6836 173.774 30.7072 173.972 30.7545 174.131C30.8028 174.289 30.8707 174.408 30.9582 174.487C31.0458 174.566 31.1484 174.605 31.2661 174.605Z" fill="#C8C9CB"/>
<path d="M26.5803 153.774V156.865H25.9268V154.395H25.9087L25.2009 154.838V154.259L25.9661 153.774H26.5803ZM28.4439 156.907C28.2305 156.907 28.0404 156.868 27.8734 156.79C27.7073 156.711 27.5755 156.603 27.4779 156.465C27.3803 156.327 27.3295 156.169 27.3255 155.991H27.9594C27.9664 156.111 28.0167 156.208 28.1103 156.283C28.2039 156.357 28.3151 156.394 28.4439 156.394C28.5465 156.394 28.637 156.372 28.7155 156.326C28.795 156.28 28.8569 156.216 28.9011 156.135C28.9464 156.052 28.9691 155.958 28.9691 155.851C28.9691 155.742 28.9459 155.647 28.8996 155.564C28.8544 155.482 28.7915 155.417 28.711 155.371C28.6305 155.325 28.5384 155.301 28.4348 155.3C28.3442 155.3 28.2562 155.319 28.1707 155.356C28.0862 155.393 28.0203 155.444 27.973 155.508L27.3919 155.404L27.5383 153.774H29.4279V154.309H28.0771L27.9971 155.083H28.0152C28.0696 155.006 28.1516 154.943 28.2612 154.893C28.3709 154.842 28.4937 154.817 28.6295 154.817C28.8156 154.817 28.9816 154.861 29.1275 154.949C29.2734 155.036 29.3886 155.156 29.4731 155.309C29.5577 155.461 29.5994 155.636 29.5984 155.834C29.5994 156.043 29.5511 156.228 29.4535 156.39C29.3569 156.551 29.2216 156.678 29.0475 156.77C28.8745 156.862 28.6733 156.907 28.4439 156.907ZM31.2661 156.933C31.0065 156.932 30.7832 156.868 30.596 156.741C30.4099 156.615 30.2665 156.431 30.1659 156.191C30.0663 155.95 30.017 155.661 30.018 155.323C30.018 154.986 30.0678 154.698 30.1674 154.461C30.268 154.224 30.4114 154.043 30.5975 153.919C30.7847 153.794 31.0075 153.732 31.2661 153.732C31.5247 153.732 31.7471 153.794 31.9332 153.919C32.1203 154.044 32.2642 154.225 32.3648 154.463C32.4655 154.699 32.5153 154.986 32.5143 155.323C32.5143 155.662 32.4639 155.952 32.3633 156.192C32.2637 156.433 32.1208 156.616 31.9347 156.743C31.7486 156.87 31.5257 156.933 31.2661 156.933ZM31.2661 156.391C31.4432 156.391 31.5846 156.302 31.6902 156.124C31.7959 155.946 31.8482 155.679 31.8472 155.323C31.8472 155.088 31.823 154.893 31.7747 154.737C31.7274 154.581 31.66 154.464 31.5725 154.386C31.486 154.307 31.3838 154.268 31.2661 154.268C31.09 154.268 30.9492 154.356 30.8435 154.532C30.7379 154.708 30.6846 154.972 30.6836 155.323C30.6836 155.56 30.7072 155.758 30.7545 155.917C30.8028 156.075 30.8707 156.194 30.9582 156.274C31.0458 156.352 31.1484 156.391 31.2661 156.391Z" fill="#C8C9CB"/>
<path d="M26.5098 135.559V138.65H25.8563V136.18H25.8382L25.1303 136.623V136.044L25.8955 135.559H26.5098ZM28.3974 138.693C28.165 138.693 27.9583 138.655 27.7771 138.579C27.597 138.503 27.4557 138.399 27.3531 138.267C27.2504 138.135 27.1991 137.986 27.1991 137.819C27.1991 137.69 27.2283 137.572 27.2866 137.464C27.346 137.355 27.4265 137.265 27.5281 137.194C27.6297 137.122 27.7434 137.075 27.8692 137.055V137.034C27.7042 137.001 27.5704 136.921 27.4678 136.794C27.3651 136.666 27.3138 136.518 27.3138 136.349C27.3138 136.189 27.3606 136.046 27.4542 135.922C27.5477 135.796 27.676 135.697 27.839 135.626C28.003 135.553 28.1892 135.517 28.3974 135.517C28.6057 135.517 28.7914 135.553 28.9543 135.626C29.1184 135.698 29.2471 135.797 29.3407 135.923C29.4343 136.048 29.4816 136.19 29.4826 136.349C29.4816 136.519 29.4293 136.667 29.3256 136.794C29.222 136.921 29.0892 137.001 28.9272 137.034V137.055C29.0509 137.075 29.1631 137.122 29.2637 137.194C29.3654 137.265 29.4459 137.355 29.5052 137.464C29.5656 137.572 29.5963 137.69 29.5973 137.819C29.5963 137.986 29.5445 138.135 29.4418 138.267C29.3392 138.399 29.1973 138.503 29.0162 138.579C28.8361 138.655 28.6299 138.693 28.3974 138.693ZM28.3974 138.213C28.5011 138.213 28.5916 138.194 28.6691 138.157C28.7466 138.119 28.8069 138.066 28.8502 138C28.8945 137.932 28.9166 137.855 28.9166 137.767C28.9166 137.678 28.894 137.599 28.8487 137.531C28.8034 137.461 28.742 137.407 28.6646 137.368C28.5871 137.327 28.4981 137.307 28.3974 137.307C28.2978 137.307 28.2088 137.327 28.1303 137.368C28.0518 137.407 27.9899 137.461 27.9447 137.531C27.9004 137.599 27.8783 137.678 27.8783 137.767C27.8783 137.855 27.8999 137.932 27.9432 138C27.9864 138.066 28.0473 138.119 28.1258 138.157C28.2043 138.194 28.2948 138.213 28.3974 138.213ZM28.3974 136.832C28.484 136.832 28.5609 136.814 28.6284 136.779C28.6958 136.744 28.7486 136.695 28.7868 136.633C28.8251 136.57 28.8442 136.498 28.8442 136.417C28.8442 136.336 28.8251 136.266 28.7868 136.205C28.7486 136.144 28.6963 136.096 28.6299 136.062C28.5635 136.027 28.486 136.009 28.3974 136.009C28.3099 136.009 28.2324 136.027 28.165 136.062C28.0976 136.096 28.0448 136.144 28.0065 136.205C27.9693 136.266 27.9507 136.336 27.9507 136.417C27.9507 136.498 27.9698 136.57 28.0081 136.633C28.0463 136.695 28.0991 136.744 28.1665 136.779C28.2339 136.814 28.3109 136.832 28.3974 136.832ZM31.2661 138.718C31.0065 138.717 30.7832 138.653 30.596 138.527C30.4099 138.4 30.2665 138.216 30.1659 137.976C30.0663 137.735 30.017 137.446 30.018 137.108C30.018 136.771 30.0678 136.484 30.1674 136.246C30.268 136.009 30.4114 135.828 30.5975 135.704C30.7847 135.58 31.0075 135.517 31.2661 135.517C31.5247 135.517 31.7471 135.58 31.9332 135.704C32.1203 135.829 32.2642 136.01 32.3648 136.248C32.4655 136.484 32.5153 136.771 32.5143 137.108C32.5143 137.447 32.4639 137.737 32.3633 137.977C32.2637 138.218 32.1208 138.401 31.9347 138.528C31.7486 138.655 31.5257 138.718 31.2661 138.718ZM31.2661 138.176C31.4432 138.176 31.5846 138.087 31.6902 137.909C31.7959 137.731 31.8482 137.464 31.8472 137.108C31.8472 136.874 31.823 136.678 31.7747 136.522C31.7274 136.366 31.66 136.249 31.5725 136.171C31.486 136.092 31.3838 136.053 31.2661 136.053C31.09 136.053 30.9492 136.141 30.8435 136.317C30.7379 136.493 30.6846 136.757 30.6836 137.108C30.6836 137.345 30.7072 137.544 30.7545 137.703C30.8028 137.861 30.8707 137.979 30.9582 138.059C31.0458 138.137 31.1484 138.176 31.2661 138.176Z" fill="#C8C9CB"/>
<path d="M37.8267 161.678H243" stroke="#F87171" stroke-opacity="0.5" stroke-width="0.425" stroke-dasharray="1.27 1.27"/>
<path d="M37.8268 192.037H243" stroke="#94A3B8" stroke-opacity="0.5" stroke-width="0.425" stroke-dasharray="1.27 1.27"/>
<mask id="mask0_334_293" style="mask-type:luminance" maskUnits="userSpaceOnUse" x="37" y="121" width="206" height="91">
<path d="M242.999 121H37.8263V211.1H242.999V121Z" fill="white"/>
</mask>
<g mask="url(#mask0_334_293)">
<path d="M37.8262 189.001C51.5042 176.858 65.1828 164.715 78.8608 164.715C92.5388 164.715 106.217 179.893 119.895 179.893C133.573 179.893 147.252 160.465 160.93 160.465C174.608 160.465 188.287 176.858 201.965 176.858C215.643 176.858 229.321 173.822 242.999 170.786V210.251C229.321 210.251 215.643 210.251 201.965 210.251C188.287 210.251 174.608 210.251 160.93 210.251C147.252 210.251 133.573 210.251 119.895 210.251C106.217 210.251 92.5388 210.251 78.8608 210.251C65.1828 210.251 51.5042 210.251 37.8262 210.251V189.001Z" fill="url(#paint0_linear_334_293)"/>
<path d="M37.8262 189.001C51.5042 176.858 65.1828 164.715 78.8608 164.715C92.5388 164.715 106.217 179.893 119.895 179.893C133.573 179.893 147.252 160.465 160.93 160.465C174.608 160.465 188.287 176.858 201.965 176.858C215.643 176.858 229.321 173.822 242.999 170.786" stroke="#69A38D" stroke-width="1.0625"/>
</g>
</g>
<mask id="path-27-inside-1_334_293" fill="white">
<path d="M98.0004 234.745H107.222V235.898H98.0004V234.745Z"/>
</mask>
<path d="M107.222 234.745V234.169H106.197V234.745V235.321H107.222V234.745ZM105.172 234.745V234.169H103.123V234.745V235.321H105.172V234.745ZM102.099 234.745V234.169H100.05V234.745V235.321H102.099V234.745ZM99.0249 234.745V234.169H98.0004V234.745V235.321H99.0249V234.745ZM107.222 234.745V233.592H106.197V234.745V235.898H107.222V234.745ZM105.172 234.745V233.592H103.123V234.745V235.898H105.172V234.745ZM102.099 234.745V233.592H100.05V234.745V235.898H102.099V234.745ZM99.0249 234.745V233.592H98.0004V234.745V235.898H99.0249V234.745Z" fill="#FF637E" mask="url(#path-27-inside-1_334_293)"/>
<path d="M114.011 237.039C113.715 237.039 113.45 236.991 113.215 236.895C112.981 236.799 112.793 236.657 112.651 236.469C112.512 236.281 112.439 236.054 112.432 235.789H113.48C113.496 235.939 113.548 236.054 113.636 236.135C113.724 236.211 113.84 236.25 113.982 236.25C114.128 236.25 114.243 236.217 114.328 236.152C114.412 236.083 114.454 235.989 114.454 235.869C114.454 235.77 114.42 235.687 114.351 235.622C114.285 235.556 114.203 235.502 114.103 235.46C114.007 235.418 113.869 235.37 113.688 235.316C113.427 235.235 113.213 235.155 113.048 235.074C112.883 234.993 112.741 234.874 112.622 234.717C112.503 234.559 112.443 234.354 112.443 234.1C112.443 233.724 112.58 233.43 112.852 233.218C113.125 233.003 113.48 232.896 113.919 232.896C114.364 232.896 114.723 233.003 114.996 233.218C115.269 233.43 115.415 233.725 115.434 234.106H114.368C114.36 233.975 114.312 233.873 114.224 233.8C114.136 233.724 114.022 233.685 113.884 233.685C113.765 233.685 113.669 233.718 113.596 233.783C113.523 233.845 113.486 233.935 113.486 234.054C113.486 234.185 113.548 234.286 113.671 234.359C113.794 234.432 113.986 234.511 114.247 234.596C114.508 234.684 114.72 234.769 114.881 234.849C115.046 234.93 115.188 235.047 115.307 235.201C115.427 235.355 115.486 235.552 115.486 235.795C115.486 236.025 115.427 236.234 115.307 236.423C115.192 236.611 115.023 236.761 114.8 236.872C114.577 236.984 114.314 237.039 114.011 237.039ZM119.464 234.256C119.464 234.49 119.41 234.705 119.303 234.901C119.195 235.093 119.03 235.249 118.807 235.368C118.584 235.487 118.308 235.547 117.977 235.547H117.366V236.999H116.381V232.953H117.977C118.3 232.953 118.573 233.009 118.796 233.12C119.018 233.232 119.186 233.385 119.297 233.581C119.408 233.777 119.464 234.002 119.464 234.256ZM117.902 234.763C118.091 234.763 118.231 234.719 118.323 234.63C118.415 234.542 118.461 234.417 118.461 234.256C118.461 234.094 118.415 233.969 118.323 233.881C118.231 233.793 118.091 233.749 117.902 233.749H117.366V234.763H117.902ZM121.251 232.953V236.999H120.265V232.953H121.251ZM124.599 236.999L123.239 235.212V236.999H122.253V232.953H123.239V234.728L124.587 232.953H125.746L124.178 234.936L125.803 236.999H124.599ZM127.545 233.743V234.561H128.865V235.322H127.545V236.209H129.038V236.999H126.56V232.953H129.038V233.743H127.545ZM137.043 232.953L135.988 236.999H134.795L134.15 234.336L133.481 236.999H132.288L131.262 232.953H132.317L132.899 235.898L133.619 232.953H134.703L135.395 235.898L135.982 232.953H137.043ZM140.344 236.284H138.834L138.592 236.999H137.56L139.024 232.953H140.165L141.629 236.999H140.586L140.344 236.284ZM140.09 235.524L139.589 234.042L139.093 235.524H140.09ZM144.426 236.999L143.584 235.472H143.348V236.999H142.363V232.953H144.017C144.336 232.953 144.606 233.009 144.829 233.12C145.056 233.232 145.225 233.385 145.336 233.581C145.448 233.774 145.504 233.989 145.504 234.227C145.504 234.496 145.427 234.736 145.273 234.947C145.123 235.159 144.9 235.308 144.605 235.397L145.538 236.999H144.426ZM143.348 234.774H143.959C144.14 234.774 144.274 234.73 144.363 234.642C144.455 234.553 144.501 234.429 144.501 234.267C144.501 234.114 144.455 233.993 144.363 233.904C144.274 233.816 144.14 233.772 143.959 233.772H143.348V234.774ZM150.03 236.999H149.044L147.396 234.504V236.999H146.41V232.953H147.396L149.044 235.46V232.953H150.03V236.999ZM152.018 232.953V236.999H151.032V232.953H152.018ZM156.639 236.999H155.654L154.006 234.504V236.999H153.02V232.953H154.006L155.654 235.46V232.953H156.639V236.999ZM160.328 234.233C160.255 234.098 160.149 233.996 160.011 233.927C159.876 233.854 159.717 233.818 159.532 233.818C159.213 233.818 158.958 233.923 158.766 234.135C158.574 234.342 158.478 234.621 158.478 234.97C158.478 235.343 158.578 235.635 158.777 235.846C158.981 236.054 159.26 236.158 159.613 236.158C159.855 236.158 160.059 236.096 160.224 235.973C160.393 235.85 160.516 235.673 160.593 235.443H159.342V234.717H161.486V235.633C161.413 235.879 161.288 236.108 161.111 236.319C160.939 236.53 160.718 236.701 160.449 236.832C160.18 236.963 159.876 237.028 159.538 237.028C159.139 237.028 158.781 236.941 158.466 236.768C158.155 236.592 157.911 236.348 157.734 236.037C157.561 235.725 157.475 235.37 157.475 234.97C157.475 234.571 157.561 234.215 157.734 233.904C157.911 233.589 158.155 233.345 158.466 233.172C158.777 232.995 159.133 232.907 159.532 232.907C160.016 232.907 160.424 233.024 160.754 233.259C161.088 233.493 161.309 233.818 161.417 234.233H160.328Z" fill="#E1E1E1"/>
<path d="M22.2434 235.429C22.2434 233.838 23.5336 232.548 25.125 232.548C26.7165 232.548 28.0067 233.838 28.0067 235.429C28.0067 237.021 26.7165 238.311 25.125 238.311C23.5336 238.311 22.2434 237.021 22.2434 235.429Z" fill="#69A38D"/>
<path d="M36.0173 234.341C35.9443 234.207 35.8387 234.105 35.7003 234.036C35.5659 233.963 35.4064 233.926 35.222 233.926C34.9031 233.926 34.6476 234.032 34.4555 234.243C34.2634 234.451 34.1673 234.729 34.1673 235.079C34.1673 235.451 34.2672 235.743 34.467 235.955C34.6706 236.162 34.9492 236.266 35.3027 236.266C35.5447 236.266 35.7484 236.205 35.9136 236.082C36.0826 235.959 36.2056 235.782 36.2824 235.551H35.0318V234.825H37.1757V235.742C37.1027 235.987 36.9779 236.216 36.8011 236.427C36.6282 236.639 36.4073 236.81 36.1383 236.94C35.8694 237.071 35.5659 237.136 35.2277 237.136C34.8282 237.136 34.4708 237.05 34.1558 236.877C33.8446 236.7 33.6006 236.456 33.4239 236.145C33.251 235.834 33.1645 235.478 33.1645 235.079C33.1645 234.679 33.251 234.324 33.4239 234.013C33.6006 233.697 33.8446 233.454 34.1558 233.281C34.467 233.104 34.8224 233.016 35.222 233.016C35.7061 233.016 36.1134 233.133 36.4438 233.367C36.7781 233.601 36.999 233.926 37.1066 234.341H36.0173ZM38.9953 236.347H40.2863V237.107H38.0098V233.062H38.9953V236.347ZM42.0127 233.062V235.482C42.0127 235.724 42.0723 235.911 42.1914 236.041C42.3105 236.172 42.4853 236.237 42.7158 236.237C42.9464 236.237 43.1231 236.172 43.246 236.041C43.369 235.911 43.4305 235.724 43.4305 235.482V233.062H44.416V235.476C44.416 235.838 44.3391 236.143 44.1855 236.393C44.0318 236.643 43.8243 236.831 43.563 236.958C43.3056 237.084 43.0174 237.148 42.6985 237.148C42.3796 237.148 42.0934 237.086 41.8398 236.963C41.5901 236.837 41.3922 236.648 41.2462 236.399C41.1002 236.145 41.0272 235.838 41.0272 235.476V233.062H42.0127ZM45.2291 235.079C45.2291 234.679 45.3155 234.324 45.4884 234.013C45.6613 233.697 45.9014 233.454 46.2088 233.281C46.52 233.104 46.8716 233.016 47.2635 233.016C47.7438 233.016 48.1549 233.142 48.4968 233.396C48.8388 233.649 49.0674 233.995 49.1826 234.433H48.0992C48.0185 234.264 47.9032 234.136 47.7534 234.047C47.6074 233.959 47.4402 233.915 47.252 233.915C46.9484 233.915 46.7025 234.02 46.5143 234.232C46.326 234.443 46.2319 234.725 46.2319 235.079C46.2319 235.432 46.326 235.715 46.5143 235.926C46.7025 236.137 46.9484 236.243 47.252 236.243C47.4402 236.243 47.6074 236.199 47.7534 236.11C47.9032 236.022 48.0185 235.893 48.0992 235.724H49.1826C49.0674 236.162 48.8388 236.508 48.4968 236.762C48.1549 237.011 47.7438 237.136 47.2635 237.136C46.8716 237.136 46.52 237.05 46.2088 236.877C45.9014 236.7 45.6613 236.456 45.4884 236.145C45.3155 235.834 45.2291 235.478 45.2291 235.079ZM51.9877 237.148C51.6074 237.148 51.2577 237.059 50.9388 236.883C50.6238 236.706 50.3721 236.46 50.1838 236.145C49.9994 235.826 49.9072 235.469 49.9072 235.073C49.9072 234.677 49.9994 234.322 50.1838 234.007C50.3721 233.692 50.6238 233.446 50.9388 233.269C51.2577 233.092 51.6074 233.004 51.9877 233.004C52.3681 233.004 52.7158 233.092 53.0309 233.269C53.3498 233.446 53.5995 233.692 53.7801 234.007C53.9645 234.322 54.0567 234.677 54.0567 235.073C54.0567 235.469 53.9645 235.826 53.7801 236.145C53.5957 236.46 53.3459 236.706 53.0309 236.883C52.7158 237.059 52.3681 237.148 51.9877 237.148ZM51.9877 236.249C52.3105 236.249 52.5679 236.141 52.76 235.926C52.956 235.711 53.0539 235.426 53.0539 235.073C53.0539 234.716 52.956 234.431 52.76 234.22C52.5679 234.005 52.3105 233.897 51.9877 233.897C51.6611 233.897 51.3999 234.003 51.2039 234.214C51.0118 234.426 50.9158 234.712 50.9158 235.073C50.9158 235.43 51.0118 235.717 51.2039 235.932C51.3999 236.143 51.6611 236.249 51.9877 236.249ZM56.357 237.148C56.0612 237.148 55.7961 237.1 55.5617 237.004C55.3273 236.908 55.1391 236.765 54.9969 236.577C54.8586 236.389 54.7856 236.162 54.7779 235.897H55.8268C55.8422 236.047 55.8941 236.162 55.9824 236.243C56.0708 236.32 56.1861 236.358 56.3282 236.358C56.4742 236.358 56.5895 236.326 56.674 236.26C56.7585 236.191 56.8008 236.097 56.8008 235.978C56.8008 235.878 56.7662 235.795 56.6971 235.73C56.6318 235.665 56.5491 235.611 56.4492 235.569C56.3532 235.526 56.2149 235.478 56.0343 235.425C55.773 235.344 55.5598 235.263 55.3946 235.182C55.2294 235.102 55.0872 234.983 54.9681 234.825C54.849 234.668 54.7894 234.462 54.7894 234.209C54.7894 233.832 54.9258 233.538 55.1986 233.327C55.4714 233.112 55.8268 233.004 56.2648 233.004C56.7105 233.004 57.0698 233.112 57.3426 233.327C57.6153 233.538 57.7613 233.834 57.7806 234.214H56.7144C56.7067 234.084 56.6586 233.982 56.5703 233.909C56.4819 233.832 56.3686 233.794 56.2302 233.794C56.1111 233.794 56.0151 233.826 55.9421 233.892C55.8691 233.953 55.8326 234.043 55.8326 234.162C55.8326 234.293 55.8941 234.395 56.017 234.468C56.14 234.541 56.3321 234.62 56.5933 234.704C56.8546 234.793 57.0659 234.877 57.2273 234.958C57.3925 235.038 57.5347 235.156 57.6538 235.309C57.7729 235.463 57.8324 235.661 57.8324 235.903C57.8324 236.133 57.7729 236.343 57.6538 236.531C57.5385 236.719 57.3694 236.869 57.1466 236.981C56.9238 237.092 56.6606 237.148 56.357 237.148ZM59.7126 233.851V234.67H61.0324V235.43H59.7126V236.318H61.2053V237.107H58.7271V233.062H61.2053V233.851H59.7126ZM64.6282 236.347H65.9192V237.107H63.6427V233.062H64.6282V236.347ZM67.663 233.851V234.67H68.9827V235.43H67.663V236.318H69.1556V237.107H66.6774V233.062H69.1556V233.851H67.663ZM73.8816 233.062L72.4465 237.107H71.2132L69.7782 233.062H70.8271L71.8299 236.116L72.8384 233.062H73.8816ZM75.5672 233.851V234.67H76.8869V235.43H75.5672V236.318H77.0598V237.107H74.5816V233.062H77.0598V233.851H75.5672ZM78.9733 236.347H80.2643V237.107H77.9878V233.062H78.9733V236.347Z" fill="#E1E1E1"/>
<defs>
<linearGradient id="paint0_linear_334_293" x1="37.8262" y1="160.465" x2="37.8262" y2="210.251" gradientUnits="userSpaceOnUse">
<stop offset="0.05" stop-color="#69A38D" stop-opacity="0.3"/>
<stop offset="0.95" stop-color="#69A38D" stop-opacity="0"/>
</linearGradient>
<clipPath id="clip0_334_293">
<rect width="227" height="102" fill="white" transform="translate(16 121)"/>
</clipPath>
</defs>
</svg>
