<svg xmlns="http://www.w3.org/2000/svg" width="266" height="379" fill="none" viewBox="0 0 266 379"><path fill="#d9d9d9" fill-opacity=".2" d="M0 10C0 4.477 4.477 0 10 0h246c5.523 0 10 4.477 10 10v358.5c0 5.523-4.477 10-10 10H10c-5.523 0-10-4.477-10-10z"/><path fill="#fff" d="M33.756 102.625q1.32 0 2.316.516a3.63 3.63 0 0 1 1.548 1.476q.552.948.552 2.208t-.552 2.208a3.67 3.67 0 0 1-1.548 1.452q-.996.516-2.316.516h-2.928v-8.376zm-.06 6.948q1.32 0 2.04-.72t.72-2.028-.72-2.04q-.72-.744-2.04-.744h-1.188v5.532zm5.301-1.92q0-1.008.396-1.788.408-.78 1.092-1.2.696-.42 1.548-.42.744 0 1.296.3.564.3.9.756v-.948h1.692v6.648H44.23v-.972a2.54 2.54 0 0 1-.9.78q-.564.3-1.308.3-.84 0-1.536-.432a3.1 3.1 0 0 1-1.092-1.212q-.396-.792-.396-1.812m5.232.024q0-.612-.24-1.044a1.64 1.64 0 0 0-.648-.672 1.7 1.7 0 0 0-.876-.24q-.468 0-.864.228t-.648.672q-.24.432-.24 1.032t.24 1.056q.252.444.648.684.408.24.864.24.468 0 .876-.228.408-.24.648-.672.24-.444.24-1.056m4.185-4.116q-.444 0-.744-.276a.96.96 0 0 1-.288-.708q0-.42.288-.696.3-.288.744-.288t.732.288q.3.276.3.696t-.3.708a1 1 0 0 1-.732.276m.828.792v6.648h-1.68v-6.648zm3.34-2.232v8.88h-1.68v-8.88zm8.02 2.232-4.116 9.792h-1.788l1.44-3.312-2.664-6.48h1.884l1.716 4.644 1.74-4.644zm6.657 6.732q-.876 0-1.584-.3a2.6 2.6 0 0 1-1.104-.864q-.408-.564-.42-1.332h1.8q.036.516.36.816.336.3.912.3.588 0 .924-.276a.94.94 0 0 0 .336-.744.85.85 0 0 0-.228-.612 1.5 1.5 0 0 0-.576-.372 8 8 0 0 0-.936-.312q-.816-.24-1.332-.468a2.5 2.5 0 0 1-.876-.708q-.36-.48-.36-1.272 0-.744.372-1.296a2.33 2.33 0 0 1 1.044-.84q.672-.3 1.536-.3 1.296 0 2.1.636.816.624.9 1.752H68.28a.94.94 0 0 0-.372-.708q-.336-.288-.9-.288-.492 0-.792.252-.288.252-.288.732 0 .336.216.564.228.216.552.36.336.132.936.312.816.24 1.332.48t.888.72.372 1.26q0 .672-.348 1.248t-1.02.924q-.672.336-1.596.336m3.988-3.408q0-1.032.42-1.8.42-.78 1.164-1.2.744-.432 1.704-.432 1.236 0 2.04.624.816.612 1.092 1.728h-1.812a1.28 1.28 0 0 0-.492-.672q-.336-.252-.84-.252-.72 0-1.14.528-.42.516-.42 1.476 0 .948.42 1.476.42.516 1.14.516 1.02 0 1.332-.912h1.812q-.276 1.08-1.092 1.716t-2.04.636q-.96 0-1.704-.42a3.05 3.05 0 0 1-1.164-1.2q-.42-.78-.42-1.812m10.603 3.432q-.96 0-1.728-.42a3.15 3.15 0 0 1-1.212-1.212q-.432-.78-.432-1.8t.444-1.8q.456-.78 1.236-1.2a3.53 3.53 0 0 1 1.74-.432q.96 0 1.74.432.78.42 1.224 1.2.456.78.456 1.8t-.468 1.8q-.456.78-1.248 1.212-.78.42-1.752.42m0-1.464q.456 0 .852-.216.408-.228.648-.672t.24-1.08q0-.948-.504-1.452a1.6 1.6 0 0 0-1.212-.516q-.72 0-1.212.516-.48.504-.48 1.452t.468 1.464q.48.504 1.2.504m6.38-4.26q.324-.528.84-.828.528-.3 1.2-.3v1.764h-.444q-.792 0-1.2.372-.396.372-.396 1.296v3.312h-1.68v-6.648h1.68zm9.352 2.148q0 .36-.048.648h-4.86q.06.72.504 1.128t1.092.408q.936 0 1.332-.804h1.812a3.06 3.06 0 0 1-1.104 1.584q-.816.612-2.004.612-.96 0-1.728-.42a3.1 3.1 0 0 1-1.188-1.212q-.42-.78-.42-1.8 0-1.032.42-1.812t1.176-1.2 1.74-.42q.948 0 1.692.408.756.408 1.164 1.164.42.744.42 1.716m-1.74-.48q-.012-.648-.468-1.032-.456-.396-1.116-.396-.624 0-1.056.384-.42.372-.516 1.044z"/><path fill="#d9dde6" d="M36.88 141.441q.255 1.408 1.152 2.176.928.736 2.464.736 1.983 0 2.88-1.632.896-1.663.896-5.568-.736 1.024-2.08 1.6a7 7 0 0 1-2.848.576q-2.049 0-3.712-.832-1.632-.864-2.592-2.528-.96-1.696-.96-4.096 0-3.552 2.112-5.632 2.112-2.112 5.76-2.112 4.543 0 6.4 2.912 1.888 2.912 1.888 8.768 0 4.16-.736 6.816-.705 2.656-2.464 4.032-1.728 1.376-4.736 1.376-2.37 0-4.032-.896-1.665-.928-2.56-2.4a7.6 7.6 0 0 1-.992-3.296zm3.392-5.76q1.664 0 2.624-1.024t.96-2.752q0-1.888-1.024-2.912-.992-1.056-2.72-1.056t-2.752 1.088q-.992 1.056-.992 2.816 0 1.697.96 2.784.99 1.056 2.944 1.056m14.559-.032q-3.2-1.664-3.2-5.152 0-1.728.864-3.136.896-1.44 2.656-2.272 1.791-.864 4.352-.864 2.56 0 4.32.864 1.791.832 2.656 2.272.896 1.408.896 3.136 0 1.76-.864 3.104a5.94 5.94 0 0 1-2.304 2.048q1.76.768 2.752 2.24t.992 3.488q0 2.176-1.12 3.808-1.088 1.6-3.008 2.464t-4.32.864-4.32-.864q-1.888-.864-3.008-2.464-1.088-1.632-1.088-3.808 0-2.016.992-3.488.991-1.504 2.752-2.24m8.192-4.512q0-1.568-.96-2.432-.928-.864-2.56-.864-1.6 0-2.56.864-.928.864-.928 2.464 0 1.44.96 2.304.992.864 2.528.864t2.528-.864q.992-.896.992-2.336m-3.52 6.464q-1.824 0-2.976.928-1.12.928-1.12 2.656 0 1.6 1.088 2.624 1.12.992 3.008.992t2.976-1.024 1.088-2.592q0-1.696-1.12-2.624-1.12-.96-2.944-.96"/><path fill="#e88f4a" d="M73.607 139.201q0-1.216.704-1.904.72-.688 1.84-.688t1.824.688q.72.688.72 1.904 0 1.232-.72 1.92-.704.688-1.824.688t-1.84-.688q-.704-.689-.704-1.92m10.272-2.4-6.288 11.2h-2.176l6.272-11.2zm-7.744 1.152q-.88 0-.88 1.248 0 1.264.88 1.264.432 0 .672-.304.24-.32.24-.96 0-1.248-.912-1.248m4.496 7.632q0-1.232.704-1.904.72-.688 1.84-.688t1.808.688q.705.672.704 1.904 0 1.232-.704 1.92-.687.688-1.808.688-1.135 0-1.84-.688-.704-.688-.704-1.92m2.528-1.248q-.912 0-.912 1.248 0 1.264.912 1.264.896 0 .896-1.264 0-1.248-.896-1.248"/><path fill="#fff" d="M32.817 201.718q.99 0 1.737.387.755.387 1.16 1.107.415.711.415 1.656t-.414 1.656q-.405.702-1.161 1.089-.747.387-1.737.387H30.62v-6.282zm-.045 5.211q.99 0 1.53-.54t.54-1.521-.54-1.53q-.54-.558-1.53-.558h-.891v4.149zm6.01-4.194v1.575h2.115v.999h-2.115v1.665h2.385V208h-3.645v-6.291h3.645v1.026zm5.24 0v1.575h2.115v.999h-2.115v1.665h2.385V208h-3.645v-6.291h3.645v1.026zm8.561.927q0 .504-.243.945-.234.441-.747.711-.504.27-1.278.27h-1.053V208h-1.26v-6.282h2.313q.729 0 1.242.252t.765.693q.261.441.261.999m-2.322.909q.522 0 .774-.234.252-.243.252-.675 0-.918-1.026-.918h-.999v1.827zm72.55 2.43h2.07V208h-3.33v-6.282h1.26zm4.58-5.283V208h-1.26v-6.282zm6.069 1.89a1.5 1.5 0 0 0-.594-.603 1.8 1.8 0 0 0-.882-.207q-.558 0-.99.252a1.74 1.74 0 0 0-.675.72 2.3 2.3 0 0 0-.243 1.08q0 .63.243 1.098.252.468.693.72t1.026.252q.72 0 1.179-.378.459-.387.603-1.071h-2.16v-.963h3.402v1.098a2.95 2.95 0 0 1-.54 1.215 3.1 3.1 0 0 1-1.071.9 3.14 3.14 0 0 1-1.458.333 3.4 3.4 0 0 1-1.647-.405 3.05 3.05 0 0 1-1.152-1.143q-.414-.729-.414-1.656t.414-1.656a2.97 2.97 0 0 1 1.152-1.143 3.3 3.3 0 0 1 1.638-.414q1.062 0 1.845.522.783.513 1.08 1.449zm8.195-1.89V208h-1.26v-2.673h-2.691V208h-1.26v-6.282h1.26v2.583h2.691v-2.583zm5.966 0v1.017h-1.674V208h-1.26v-5.265h-1.674v-1.017zm72.24 6.282-1.386-2.448h-.594V208h-1.26v-6.282h2.358q.729 0 1.242.261.513.252.765.693.261.432.261.972 0 .621-.36 1.125-.36.495-1.071.684l1.503 2.547zm-1.98-3.393h1.053q.513 0 .765-.243.252-.252.252-.693 0-.432-.252-.666-.252-.243-.765-.243h-1.053zm6.215-1.872v1.575h2.115v.999h-2.115v1.665h2.385V208h-3.645v-6.291h3.645v1.026zm10.829-1.017V208h-1.26v-4.086L231.982 208h-.954l-1.692-4.086V208h-1.26v-6.282h1.431l1.998 4.671 1.998-4.671z"/><g filter="url(#filter1_i_334_159)"><g clip-path="url(#clip0_334_159)"><path fill="#f1f5f9" d="M30 224.5a5 5 0 0 1 5-5h196a5 5 0 0 1 0 10H35a5 5 0 0 1-5-5"/><path fill="#5d5589" d="M30 224.5a5 5 0 0 1 5-5h55.61v10H35a5 5 0 0 1-5-5"/><path fill="#7b9cc7" d="M92.61 219.5h90.89v10H92.61z"/><path fill="#e88f4a" d="M185.5 219.5H231a5 5 0 0 1 0 10h-45.5z"/></g></g><mask id="path-11-inside-1_334_159" fill="#fff"><path d="M30 299.001c0-8.837 7.164-16 16-16h174c8.837 0 16 7.163 16 16v26c0 8.837-7.163 16-16 16H46c-8.836 0-16-7.163-16-16z"/></mask><path fill="#fff" fill-opacity=".5" d="M30 299.001c0-8.837 7.164-16 16-16h174c8.837 0 16 7.163 16 16v26c0 8.837-7.163 16-16 16H46c-8.836 0-16-7.163-16-16z"/><path fill="#fff" d="M46 283.001v1h174v-2H46zm190 16h-1v26h2v-26zm-16 42v-1H46v2h174zm-190-16h1v-26h-2v26zm16 16v-1c-8.284 0-15-6.716-15-15h-2c0 9.389 7.611 17 17 17zm190-16h-1c0 8.284-6.716 15-15 15v2c9.389 0 17-7.611 17-17zm-16-42v1c8.284 0 15 6.716 15 15h2c0-9.389-7.611-17-17-17zm-174 0v-1c-9.389 0-17 7.611-17 17h2c0-8.284 6.716-15 15-15z" mask="url(#path-11-inside-1_334_159)"/><mask id="path-13-inside-2_334_159" fill="#fff"><path d="M43 312.001c0-8.837 7.164-16 16-16s16 7.163 16 16-7.163 16-16 16-16-7.163-16-16"/></mask><path fill="#faf0e7" fill-opacity=".5" d="M43 312.001c0-8.837 7.164-16 16-16s16 7.163 16 16-7.163 16-16 16-16-7.163-16-16"/><path fill="#fff" d="M59 328.001v-1c-8.284 0-15-6.716-15-15h-2c0 9.389 7.611 17 17 17zm16-16h-1c0 8.284-6.716 15-15 15v2c9.389 0 17-7.611 17-17zm-16-16v1c8.284 0 15 6.716 15 15h2c0-9.389-7.611-17-17-17zm0 0v-1c-9.389 0-17 7.611-17 17h2c0-8.284 6.716-15 15-15z" mask="url(#path-13-inside-2_334_159)"/><g clip-path="url(#clip1_334_159)"><path stroke="#e88f4a" stroke-linecap="round" stroke-linejoin="round" stroke-width="1.167" d="M54.334 313.168a.585.585 0 0 1-.456-.951l5.776-5.95a.292.292 0 0 1 .501.268l-1.12 3.512a.582.582 0 0 0 .549.787h4.083a.584.584 0 0 1 .455.951l-5.775 5.95a.292.292 0 0 1-.502-.268l1.12-3.512a.582.582 0 0 0-.548-.787z"/></g><path fill="#1d293d" d="M93.358 302.949q0 .617-.297 1.155-.285.539-.913.869-.615.33-1.562.33H89.3v2.948h-1.54v-7.678h2.827q.891 0 1.518.308t.935.847q.32.538.32 1.221m-2.838 1.111q.637 0 .946-.286.309-.297.308-.825 0-1.122-1.254-1.122H89.3v2.233zm5.472-.957q.296-.485.77-.759a2.2 2.2 0 0 1 1.1-.275v1.617h-.407q-.726 0-1.1.341-.363.34-.363 1.188v3.036h-1.54v-6.094h1.54zm3.688-1.672a.97.97 0 0 1-.682-.253.88.88 0 0 1-.264-.649q0-.385.264-.638a.95.95 0 0 1 .682-.264.9.9 0 0 1 .671.264.83.83 0 0 1 .275.638.87.87 0 0 1-.275.649.93.93 0 0 1-.671.253m.759.726v6.094h-1.54v-6.094zm9.089-.088q1.123 0 1.804.693.693.683.693 1.914v3.575h-1.54v-3.366q0-.716-.363-1.089-.363-.385-.99-.385-.626 0-1.001.385-.363.373-.363 1.089v3.366h-1.54v-3.366q0-.716-.363-1.089-.363-.385-.99-.385-.637 0-1.012.385-.363.373-.363 1.089v3.366h-1.54v-6.094h1.54v.737a2.06 2.06 0 0 1 .759-.605q.474-.22 1.034-.22.715 0 1.276.308.561.297.869.858.297-.528.858-.847a2.5 2.5 0 0 1 1.232-.319m9.624 3.003q0 .33-.044.594h-4.455q.054.66.462 1.034.407.374 1.001.374.858 0 1.221-.737H119a2.8 2.8 0 0 1-1.012 1.452q-.748.561-1.837.561a3.24 3.24 0 0 1-1.584-.385 2.83 2.83 0 0 1-1.089-1.111q-.385-.715-.385-1.65 0-.946.385-1.661a2.7 2.7 0 0 1 1.078-1.1q.692-.385 1.595-.385.868 0 1.551.374.692.374 1.067 1.067.385.682.385 1.573m-1.595-.44q-.012-.594-.429-.946a1.5 1.5 0 0 0-1.023-.363q-.573 0-.968.352-.386.34-.473.957zm2.323.55q0-.924.363-1.639a2.7 2.7 0 0 1 1.012-1.1 2.7 2.7 0 0 1 1.419-.385q.594 0 1.133.264.538.253.858.682v-2.893h1.562v8.14h-1.562v-.902a2.1 2.1 0 0 1-.803.726 2.5 2.5 0 0 1-1.199.275q-.77 0-1.408-.396a2.8 2.8 0 0 1-1.012-1.111q-.363-.726-.363-1.661m4.796.022q0-.561-.22-.957a1.5 1.5 0 0 0-.594-.616 1.56 1.56 0 0 0-.803-.22q-.429 0-.792.209t-.594.616q-.22.396-.22.946t.22.968q.231.407.594.627.374.22.792.22.428 0 .803-.209.374-.22.594-.616.22-.407.22-.968m8.47-1.782h-1.067v4.829h-1.562v-4.829h-.693v-1.265h.693v-.308q0-1.122.638-1.65t1.925-.495v1.298q-.56-.01-.781.187-.22.198-.22.715v.253h1.067zm3.704 4.928a3.24 3.24 0 0 1-1.584-.385 2.9 2.9 0 0 1-1.111-1.111q-.396-.715-.396-1.65t.407-1.65a2.87 2.87 0 0 1 1.133-1.1 3.24 3.24 0 0 1 1.595-.396q.88 0 1.595.396.715.385 1.122 1.1.418.716.418 1.65 0 .935-.429 1.65-.418.715-1.144 1.111a3.3 3.3 0 0 1-1.606.385m0-1.342q.418 0 .781-.198a1.5 1.5 0 0 0 .594-.616q.22-.406.22-.99 0-.869-.462-1.331a1.48 1.48 0 0 0-1.111-.473q-.66 0-1.111.473-.44.462-.44 1.331t.429 1.342q.44.462 1.1.462m5.849-3.905q.296-.485.77-.759a2.2 2.2 0 0 1 1.1-.275v1.617h-.407q-.726 0-1.1.341-.363.34-.363 1.188v3.036h-1.54v-6.094h1.54zm7.068-.066q.297-.419.814-.693a2.5 2.5 0 0 1 1.199-.286 2.63 2.63 0 0 1 2.409 1.485q.374.704.374 1.639t-.374 1.661a2.73 2.73 0 0 1-1.001 1.111 2.6 2.6 0 0 1-1.408.396q-.67 0-1.188-.275a2.55 2.55 0 0 1-.825-.693v3.773h-1.54v-8.998h1.54zm3.223 2.145q0-.55-.231-.946a1.5 1.5 0 0 0-.594-.616 1.56 1.56 0 0 0-1.584.011q-.363.209-.594.616-.22.406-.22.957t.22.957q.231.406.594.627.374.209.792.209.429 0 .792-.22a1.6 1.6 0 0 0 .594-.627q.231-.407.231-.968m8.357-.11q0 .33-.044.594h-4.455q.056.66.462 1.034t1.001.374q.858 0 1.221-.737h1.661a2.8 2.8 0 0 1-1.012 1.452q-.748.561-1.837.561a3.24 3.24 0 0 1-1.584-.385 2.83 2.83 0 0 1-1.089-1.111q-.385-.715-.385-1.65 0-.946.385-1.661a2.7 2.7 0 0 1 1.078-1.1q.693-.385 1.595-.385.869 0 1.551.374.693.374 1.067 1.067.385.682.385 1.573m-1.595-.44q-.01-.594-.429-.946a1.5 1.5 0 0 0-1.023-.363q-.572 0-.968.352-.385.34-.473.957zm2.323.55q0-.924.363-1.639a2.75 2.75 0 0 1 1.001-1.1 2.7 2.7 0 0 1 1.419-.385q.683 0 1.188.275.518.274.825.693v-.869h1.551v6.094h-1.551v-.891a2.3 2.3 0 0 1-.825.715 2.5 2.5 0 0 1-1.199.275q-.77 0-1.408-.396a2.83 2.83 0 0 1-1.001-1.111q-.363-.726-.363-1.661m4.796.022q0-.561-.22-.957a1.5 1.5 0 0 0-.594-.616 1.55 1.55 0 0 0-.803-.22q-.429 0-.792.209t-.594.616q-.22.396-.22.946t.22.968q.231.407.594.627.373.22.792.22.43 0 .803-.209.374-.22.594-.616.22-.407.22-.968m6.663 3.047-2.068-2.596v2.596h-1.54v-8.14h1.54v4.631l2.046-2.585h2.002l-2.684 3.058 2.706 3.036zm8.143.099a3.24 3.24 0 0 1-1.584-.385 2.9 2.9 0 0 1-1.111-1.111q-.396-.715-.396-1.65t.407-1.65a2.87 2.87 0 0 1 1.133-1.1 3.24 3.24 0 0 1 1.595-.396q.88 0 1.595.396.715.385 1.122 1.1.418.716.418 1.65 0 .935-.429 1.65-.418.715-1.144 1.111a3.3 3.3 0 0 1-1.606.385m0-1.342q.418 0 .781-.198a1.5 1.5 0 0 0 .594-.616q.22-.406.22-.99 0-.869-.462-1.331a1.48 1.48 0 0 0-1.111-.473q-.66 0-1.111.473-.44.462-.44 1.331t.429 1.342q.44.462 1.1.462m10.062-4.851v6.094h-1.551v-.77a2.1 2.1 0 0 1-.781.627q-.474.22-1.034.22-.716 0-1.265-.297a2.2 2.2 0 0 1-.869-.891q-.309-.594-.308-1.408v-3.575h1.54v3.355q0 .726.363 1.122.363.385.99.385.638 0 1.001-.385.363-.396.363-1.122v-3.355zm3.312 1.265v2.948q0 .308.143.451.155.132.506.132h.715v1.298h-.968q-1.947 0-1.947-1.892v-2.937h-.726v-1.265h.726v-1.507h1.551v1.507h1.364v1.265zm4.012-.385q.297-.419.814-.693a2.5 2.5 0 0 1 1.199-.286 2.63 2.63 0 0 1 2.409 1.485q.374.704.374 1.639t-.374 1.661a2.73 2.73 0 0 1-1.001 1.111 2.6 2.6 0 0 1-1.408.396q-.67 0-1.188-.275a2.55 2.55 0 0 1-.825-.693v3.773h-1.54v-8.998h1.54zm3.223 2.145q0-.55-.231-.946a1.5 1.5 0 0 0-.594-.616 1.56 1.56 0 0 0-1.584.011q-.363.209-.594.616-.22.406-.22.957t.22.957q.231.406.594.627.374.209.792.209.429 0 .792-.22a1.6 1.6 0 0 0 .594-.627q.231-.407.231-.968m8.445-3.025v6.094h-1.551v-.77a2.1 2.1 0 0 1-.781.627q-.473.22-1.034.22a2.6 2.6 0 0 1-1.265-.297 2.2 2.2 0 0 1-.869-.891q-.308-.594-.308-1.408v-3.575h1.54v3.355q0 .726.363 1.122.363.385.99.385.638 0 1.001-.385.363-.396.363-1.122v-3.355zm3.312 1.265v2.948q0 .308.143.451.155.132.506.132h.715v1.298h-.968q-1.947 0-1.947-1.892v-2.937h-.726v-1.265h.726v-1.507h1.551v1.507h1.364v1.265zm3.154 4.906a.98.98 0 0 1-.693-.253.88.88 0 0 1-.264-.649q0-.385.264-.638a.96.96 0 0 1 .693-.264.9.9 0 0 1 .671.264.85.85 0 0 1 .264.638.88.88 0 0 1-.264.649.93.93 0 0 1-.671.253M93.36 315.949q0 .617-.297 1.155-.285.539-.913.869-.615.33-1.562.33H89.3v2.948h-1.54v-7.678h2.827q.891 0 1.518.308t.935.847q.32.538.32 1.221m-2.838 1.111q.637 0 .946-.286.309-.297.308-.825 0-1.122-1.254-1.122H89.3v2.233zm9.685-1.903v6.094h-1.551v-.77a2.1 2.1 0 0 1-.781.627q-.474.22-1.034.22a2.6 2.6 0 0 1-1.265-.297 2.2 2.2 0 0 1-.87-.891q-.307-.594-.307-1.408v-3.575h1.54v3.355q0 .726.363 1.122.363.385.99.385.638 0 1-.385.364-.396.364-1.122v-3.355zm3.851 6.193a3.3 3.3 0 0 1-1.342-.264 2.46 2.46 0 0 1-.946-.737 1.9 1.9 0 0 1-.374-1.023h1.551a.85.85 0 0 0 .341.583q.307.231.759.231.44 0 .682-.176a.53.53 0 0 0 .253-.451q0-.297-.308-.44-.297-.154-.957-.33a8.5 8.5 0 0 1-1.122-.341 2 2 0 0 1-.748-.539q-.308-.363-.308-.979a1.6 1.6 0 0 1 .286-.924 2 2 0 0 1 .836-.66q.55-.242 1.287-.242 1.089 0 1.738.55.65.539.715 1.463h-1.474a.77.77 0 0 0-.308-.572q-.264-.22-.715-.22-.418 0-.649.154a.5.5 0 0 0-.22.429q0 .308.308.473.307.154.957.319.66.165 1.089.341.43.176.737.55.32.363.33.968 0 .528-.297.946-.286.418-.836.66-.539.231-1.265.231m7.094-6.281q.693 0 1.232.308.54.297.836.891.309.583.308 1.408v3.575h-1.54v-3.366q0-.726-.363-1.111-.363-.396-.99-.396-.637 0-1.012.396-.363.385-.363 1.111v3.366h-1.54v-8.14h1.54v2.805q.297-.396.792-.616a2.6 2.6 0 0 1 1.1-.231m9.894 0q.693 0 1.232.308.539.297.836.891.308.583.308 1.408v3.575h-1.54v-3.366q0-.726-.363-1.111-.363-.396-.99-.396-.639 0-1.012.396-.363.385-.363 1.111v3.366h-1.54v-8.14h1.54v2.805q.297-.396.792-.616.495-.231 1.1-.231m3.444 3.113q0-.924.363-1.639.375-.715 1.001-1.1a2.7 2.7 0 0 1 1.419-.385q.683 0 1.188.275.518.274.825.693v-.869h1.551v6.094h-1.551v-.891a2.3 2.3 0 0 1-.825.715q-.516.275-1.199.275a2.6 2.6 0 0 1-1.408-.396 2.84 2.84 0 0 1-1.001-1.111q-.363-.726-.363-1.661m4.796.022q0-.561-.22-.957a1.5 1.5 0 0 0-.594-.616 1.55 1.55 0 0 0-.803-.22q-.429 0-.792.209t-.594.616q-.22.396-.22.946t.22.968q.231.407.594.627.375.22.792.22.43 0 .803-.209.375-.22.594-.616.22-.407.22-.968m4.595-2.101q.297-.485.77-.759.485-.275 1.1-.275v1.617h-.407q-.726 0-1.1.341-.363.34-.363 1.188v3.036h-1.54v-6.094h1.54zm2.512 2.079q0-.924.363-1.639a2.7 2.7 0 0 1 1.012-1.1 2.7 2.7 0 0 1 1.419-.385q.594 0 1.133.264.539.253.858.682v-2.893h1.562v8.14h-1.562v-.902a2.1 2.1 0 0 1-.803.726 2.5 2.5 0 0 1-1.199.275q-.77 0-1.408-.396a2.8 2.8 0 0 1-1.012-1.111q-.363-.726-.363-1.661m4.796.022q0-.561-.22-.957a1.5 1.5 0 0 0-.594-.616 1.56 1.56 0 0 0-.803-.22q-.429 0-.792.209t-.594.616q-.22.396-.22.946t.22.968q.231.407.594.627.374.22.792.22.428 0 .803-.209.374-.22.594-.616.22-.407.22-.968m8.72-.132q0 .33-.044.594h-4.455q.054.66.462 1.034.407.374 1.001.374.858 0 1.221-.737h1.661a2.8 2.8 0 0 1-1.012 1.452q-.748.561-1.837.561a3.24 3.24 0 0 1-1.584-.385 2.83 2.83 0 0 1-1.089-1.111q-.385-.715-.385-1.65 0-.946.385-1.661a2.7 2.7 0 0 1 1.078-1.1q.692-.385 1.595-.385.869 0 1.551.374.692.374 1.067 1.067.385.682.385 1.573m-1.595-.44q-.012-.594-.429-.946a1.5 1.5 0 0 0-1.023-.363q-.572 0-.968.352-.386.34-.473.957zm4.259-1.529q.297-.485.77-.759a2.2 2.2 0 0 1 1.1-.275v1.617h-.407q-.726 0-1.1.341-.363.34-.363 1.188v3.036h-1.54v-6.094h1.54zm7.321.319v2.948q0 .308.143.451.154.132.506.132h.715v1.298h-.968q-1.947 0-1.947-1.892v-2.937h-.726v-1.265h.726v-1.507h1.551v1.507h1.364v1.265zm5.178 4.928a3.24 3.24 0 0 1-1.584-.385 2.9 2.9 0 0 1-1.111-1.111q-.396-.715-.396-1.65t.407-1.65a2.86 2.86 0 0 1 1.133-1.1 3.23 3.23 0 0 1 1.595-.396q.88 0 1.595.396a2.8 2.8 0 0 1 1.122 1.1q.417.716.418 1.65 0 .935-.429 1.65-.418.715-1.144 1.111a3.3 3.3 0 0 1-1.606.385m0-1.342q.417 0 .781-.198a1.5 1.5 0 0 0 .594-.616q.22-.406.22-.99 0-.869-.462-1.331a1.48 1.48 0 0 0-1.111-.473q-.66 0-1.111.473-.44.462-.44 1.331t.429 1.342q.44.462 1.1.462m3.912-1.826q0-.924.363-1.639.375-.715 1.012-1.1a2.7 2.7 0 0 1 1.419-.385q.594 0 1.133.264.54.253.858.682v-2.893h1.562v8.14h-1.562v-.902q-.285.451-.803.726-.516.275-1.199.275a2.6 2.6 0 0 1-1.408-.396 2.8 2.8 0 0 1-1.012-1.111q-.363-.726-.363-1.661m4.796.022q0-.561-.22-.957a1.5 1.5 0 0 0-.594-.616 1.55 1.55 0 0 0-.803-.22q-.429 0-.792.209t-.594.616q-.22.396-.22.946t.22.968q.231.407.594.627.375.22.792.22.43 0 .803-.209.375-.22.594-.616.22-.407.22-.968m2.659-.022q0-.924.363-1.639.375-.715 1.001-1.1a2.7 2.7 0 0 1 1.419-.385q.683 0 1.188.275.518.274.825.693v-.869h1.551v6.094h-1.551v-.891a2.3 2.3 0 0 1-.825.715q-.516.275-1.199.275a2.6 2.6 0 0 1-1.408-.396 2.84 2.84 0 0 1-1.001-1.111q-.363-.726-.363-1.661m4.796.022q0-.561-.22-.957a1.5 1.5 0 0 0-.594-.616 1.55 1.55 0 0 0-.803-.22q-.429 0-.792.209t-.594.616q-.22.396-.22.946t.22.968q.231.407.594.627.375.22.792.22.43 0 .803-.209.375-.22.594-.616.22-.407.22-.968m8.885-3.047-3.773 8.976h-1.639l1.32-3.036-2.442-5.94h1.727l1.573 4.257 1.595-4.257zm1.513 6.171a.98.98 0 0 1-.693-.253.88.88 0 0 1-.264-.649q0-.385.264-.638a.96.96 0 0 1 .693-.264.9.9 0 0 1 .671.264.85.85 0 0 1 .264.638.88.88 0 0 1-.264.649.93.93 0 0 1-.671.253M196 28.5c0-6.351 5.149-11.5 11.5-11.5h39.453c6.351 0 11.5 5.149 11.5 11.5s-5.149 11.5-11.5 11.5H207.5c-6.351 0-11.5-5.149-11.5-11.5"/><path stroke="#fff" stroke-linecap="round" stroke-linejoin="round" stroke-width="1.25" d="M208.083 28.5h5.834M211 25.583v5.833"/><path fill="#fff" d="M226.908 25.02v1.13h-1.86V32h-1.4v-5.85h-1.86v-1.13zm2.421 2.3q.27-.44.7-.69a2 2 0 0 1 1-.25v1.47h-.37q-.66 0-1 .31-.33.31-.33 1.08V32h-1.4v-5.54h1.4zm2.283 1.89q0-.84.33-1.49.34-.65.91-1a2.45 2.45 0 0 1 1.29-.35q.621 0 1.08.25.471.25.75.63v-.79h1.41V32h-1.41v-.81q-.27.39-.75.65-.47.25-1.09.25-.7 0-1.28-.36a2.6 2.6 0 0 1-.91-1.01q-.33-.66-.33-1.51m4.36.02q0-.51-.2-.87a1.36 1.36 0 0 0-.54-.56q-.34-.2-.73-.2t-.72.19-.54.56q-.2.36-.2.86t.2.88q.21.37.54.57.34.2.72.2.39 0 .73-.19a1.45 1.45 0 0 0 .54-.56q.2-.37.2-.88m2.418 0q0-.86.35-1.5.35-.65.97-1 .62-.36 1.42-.36 1.03 0 1.7.52.68.51.91 1.44h-1.51a1.07 1.07 0 0 0-.41-.56q-.28-.21-.7-.21-.6 0-.95.44-.35.43-.35 1.23 0 .79.35 1.23.35.43.95.43.849 0 1.11-.76h1.51q-.23.9-.91 1.43t-1.7.53q-.8 0-1.42-.35a2.54 2.54 0 0 1-.97-1q-.35-.65-.35-1.51m9.655 2.77-1.88-2.36V32h-1.4v-7.4h1.4v4.21l1.86-2.35h1.82l-2.44 2.78 2.46 2.76zM35.455 43.592v1.582h-4.074v2.506h3.122v1.554h-3.122v4.13h-1.96v-9.772zm4.834 9.898q-1.119 0-2.016-.49a3.7 3.7 0 0 1-1.414-1.414q-.504-.909-.504-2.1 0-1.19.518-2.1a3.65 3.65 0 0 1 1.442-1.4 4.1 4.1 0 0 1 2.03-.504q1.12 0 2.03.504a3.55 3.55 0 0 1 1.428 1.4q.532.91.532 2.1 0 1.191-.546 2.1A3.7 3.7 0 0 1 42.333 53q-.91.49-2.044.49m0-1.708q.532 0 .994-.252.477-.265.756-.784.28-.517.28-1.26 0-1.106-.588-1.694a1.88 1.88 0 0 0-1.414-.602q-.84 0-1.414.602-.56.588-.56 1.694 0 1.107.546 1.708.56.588 1.4.588m7.444-4.97q.378-.615.98-.966.615-.35 1.4-.35v2.058h-.518q-.924 0-1.4.434-.462.435-.462 1.512v3.864h-1.96v-7.756h1.96zm16.668-1.316q1.428 0 2.296.882.882.868.882 2.436v4.55h-1.96V49.08q0-.909-.462-1.386-.462-.49-1.26-.49t-1.274.49q-.462.477-.462 1.386v4.284h-1.96V49.08q0-.909-.462-1.386-.462-.49-1.26-.49-.811 0-1.288.49-.462.477-.462 1.386v4.284h-1.96v-7.756h1.96v.938q.378-.49.966-.77.602-.28 1.316-.28.91 0 1.624.392.714.378 1.106 1.092a2.8 2.8 0 0 1 1.092-1.078 3.17 3.17 0 0 1 1.568-.406m8.482 7.994q-1.12 0-2.016-.49a3.7 3.7 0 0 1-1.414-1.414q-.504-.909-.504-2.1 0-1.19.518-2.1a3.65 3.65 0 0 1 1.442-1.4 4.1 4.1 0 0 1 2.03-.504q1.12 0 2.03.504a3.55 3.55 0 0 1 1.428 1.4q.532.91.532 2.1 0 1.191-.546 2.1A3.7 3.7 0 0 1 74.927 53q-.91.49-2.044.49m0-1.708q.532 0 .994-.252.476-.265.756-.784.28-.517.28-1.26 0-1.106-.588-1.694a1.88 1.88 0 0 0-1.414-.602q-.84 0-1.414.602-.56.588-.56 1.694 0 1.107.546 1.708.56.588 1.4.588m7.444-4.97q.377-.615.98-.966.615-.35 1.4-.35v2.058h-.518q-.924 0-1.4.434-.462.435-.462 1.512v3.864h-1.96v-7.756h1.96zm10.91 2.506q0 .42-.056.756h-5.67q.07.84.588 1.316t1.274.476q1.092 0 1.554-.938h2.114a3.57 3.57 0 0 1-1.288 1.848q-.952.714-2.338.714-1.12 0-2.016-.49a3.6 3.6 0 0 1-1.386-1.414q-.49-.909-.49-2.1 0-1.203.49-2.114a3.4 3.4 0 0 1 1.372-1.4q.882-.49 2.03-.49 1.105 0 1.974.476.882.477 1.358 1.358.49.868.49 2.002m-2.03-.56q-.014-.756-.546-1.204-.532-.462-1.302-.462-.728 0-1.232.448-.49.435-.602 1.218zm14.902-5.166v9.772h-1.96v-4.158h-4.186v4.158h-1.96v-9.772h1.96v4.018h4.186v-4.018zm9.14 5.726q0 .42-.056.756h-5.67q.069.84.588 1.316t1.274.476q1.092 0 1.554-.938h2.114a3.57 3.57 0 0 1-1.288 1.848q-.952.714-2.338.714-1.12 0-2.016-.49a3.6 3.6 0 0 1-1.386-1.414q-.49-.909-.49-2.1 0-1.203.49-2.114a3.4 3.4 0 0 1 1.372-1.4q.881-.49 2.03-.49 1.105 0 1.974.476.881.477 1.358 1.358.49.868.49 2.002m-2.03-.56q-.015-.756-.546-1.204-.532-.462-1.302-.462-.729 0-1.232.448-.49.435-.602 1.218zm2.956.7q0-1.176.462-2.086.477-.91 1.274-1.4a3.43 3.43 0 0 1 1.806-.49q.868 0 1.512.35.658.351 1.05.882v-1.106h1.974v7.756h-1.974V52.23q-.378.546-1.05.91-.657.35-1.526.35-.98 0-1.792-.504-.797-.504-1.274-1.414-.462-.924-.462-2.114m6.104.028q0-.714-.28-1.218a1.9 1.9 0 0 0-.756-.784 2 2 0 0 0-1.022-.28q-.546 0-1.008.266a2.04 2.04 0 0 0-.756.784q-.28.504-.28 1.204t.28 1.232q.294.519.756.798.477.28 1.008.28.546 0 1.022-.266.477-.28.756-.784.28-.518.28-1.232m5.849-6.482v10.36h-1.96v-10.36zm4.218 4.214v3.752q0 .393.182.574.196.168.644.168h.91v1.652h-1.232q-2.478 0-2.478-2.408v-3.738h-.924v-1.61h.924V43.69h1.974v1.918h1.736v1.61zm7.514-1.722q.882 0 1.568.392.686.378 1.064 1.134.392.742.392 1.792v4.55h-1.96V49.08q0-.924-.462-1.414-.462-.504-1.26-.504-.813 0-1.288.504-.462.49-.462 1.414v4.284h-1.96v-10.36h1.96v3.57a2.5 2.5 0 0 1 1.008-.784q.63-.294 1.4-.294m12.308.112-4.802 11.424h-2.086l1.68-3.864-3.108-7.56h2.198l2.002 5.418 2.03-5.418zm6.352 6.202h3.22v1.554h-5.18v-9.772h1.96zm5.46-7.126q-.518 0-.868-.322a1.12 1.12 0 0 1-.336-.826q0-.49.336-.812.35-.336.868-.336t.854.336q.35.323.35.812t-.35.826q-.336.322-.854.322m.966.924v7.756h-1.96v-7.756zm5.492 1.61h-1.358v6.146h-1.988v-6.146h-.882v-1.61h.882v-.392q0-1.428.812-2.1t2.45-.63v1.652q-.714-.014-.994.238-.28.253-.28.91v.322h1.358zm8.481 2.1q0 .42-.056.756h-5.67q.069.84.588 1.316t1.274.476q1.092 0 1.554-.938h2.114a3.57 3.57 0 0 1-1.288 1.848q-.952.714-2.338.714-1.12 0-2.016-.49a3.6 3.6 0 0 1-1.386-1.414q-.49-.909-.49-2.1 0-1.203.49-2.114a3.4 3.4 0 0 1 1.372-1.4q.882-.49 2.03-.49 1.106 0 1.974.476.881.477 1.358 1.358.49.868.49 2.002m-2.03-.56q-.015-.756-.546-1.204-.532-.462-1.302-.462-.728 0-1.232.448-.49.435-.602 1.218z"/><defs><clipPath id="clip0_334_159"><path fill="#fff" d="M30 224.5a5 5 0 0 1 5-5h196a5 5 0 0 1 0 10H35a5 5 0 0 1-5-5"/></clipPath><clipPath id="clip1_334_159"><path fill="#fff" d="M52 305.001h14v14H52z"/></clipPath><filter id="filter1_i_334_159" width="206" height="12" x="30" y="219.5" color-interpolation-filters="sRGB" filterUnits="userSpaceOnUse"><feFlood flood-opacity="0" result="BackgroundImageFix"/><feBlend in="SourceGraphic" in2="BackgroundImageFix" result="shape"/><feColorMatrix in="SourceAlpha" result="hardAlpha" values="0 0 0 0 0 0 0 0 0 0 0 0 0 0 0 0 0 0 127 0"/><feOffset dy="2"/><feGaussianBlur stdDeviation="2"/><feComposite in2="hardAlpha" k2="-1" k3="1" operator="arithmetic"/><feColorMatrix values="0 0 0 0 0 0 0 0 0 0 0 0 0 0 0 0 0 0 0.05 0"/><feBlend in2="shape" result="effect1_innerShadow_334_159"/></filter></defs></svg>